G04 DipTrace 2.4.0.2*
%INTopSilk.gbr*%
%MOIN*%
%ADD10C,0.0098*%
%ADD12C,0.003*%
%ADD18C,0.0158*%
%ADD29C,0.0077*%
%FSLAX44Y44*%
G04*
G70*
G90*
G75*
G01*
%LNTopSilk*%
%LPD*%
X789Y7881D2*
D10*
Y7369D1*
D18*
X-1986Y6734D3*
X-2164Y9408D2*
D29*
Y8905D1*
X-1996D1*
X-1924Y8930D1*
X-1876Y8977D1*
X-1852Y9025D1*
X-1829Y9096D1*
Y9216D1*
X-1852Y9288D1*
X-1876Y9336D1*
X-1924Y9384D1*
X-1996Y9408D1*
X-2164D1*
X-1555Y9240D2*
X-1602Y9216D1*
X-1651Y9168D1*
X-1674Y9096D1*
Y9049D1*
X-1651Y8977D1*
X-1602Y8930D1*
X-1555Y8905D1*
X-1483D1*
X-1435Y8930D1*
X-1387Y8977D1*
X-1363Y9049D1*
Y9096D1*
X-1387Y9168D1*
X-1435Y9216D1*
X-1483Y9240D1*
X-1555D1*
X-922Y9408D2*
Y8905D1*
Y9168D2*
X-969Y9216D1*
X-1017Y9240D1*
X-1089D1*
X-1137Y9216D1*
X-1185Y9168D1*
X-1209Y9096D1*
Y9049D1*
X-1185Y8977D1*
X-1137Y8930D1*
X-1089Y8905D1*
X-1017D1*
X-969Y8930D1*
X-922Y8977D1*
X-648Y9240D2*
X-696Y9216D1*
X-744Y9168D1*
X-767Y9096D1*
Y9049D1*
X-744Y8977D1*
X-696Y8930D1*
X-648Y8905D1*
X-576D1*
X-528Y8930D1*
X-481Y8977D1*
X-456Y9049D1*
Y9096D1*
X-481Y9168D1*
X-528Y9216D1*
X-576Y9240D1*
X-648D1*
X543Y9288D2*
X519Y9336D1*
X471Y9384D1*
X423Y9408D1*
X328D1*
X280Y9384D1*
X232Y9336D1*
X208Y9288D1*
X184Y9216D1*
Y9096D1*
X208Y9025D1*
X232Y8977D1*
X280Y8930D1*
X328Y8905D1*
X423D1*
X471Y8930D1*
X519Y8977D1*
X543Y9025D1*
Y9096D1*
X423D1*
X984Y9240D2*
Y8905D1*
Y9168D2*
X937Y9216D1*
X888Y9240D1*
X817D1*
X769Y9216D1*
X722Y9168D1*
X697Y9096D1*
Y9049D1*
X722Y8977D1*
X769Y8930D1*
X817Y8905D1*
X888D1*
X937Y8930D1*
X984Y8977D1*
X1138Y9240D2*
Y8905D1*
Y9145D2*
X1210Y9216D1*
X1258Y9240D1*
X1330D1*
X1378Y9216D1*
X1402Y9145D1*
Y8905D1*
Y9145D2*
X1473Y9216D1*
X1521Y9240D1*
X1593D1*
X1641Y9216D1*
X1665Y9145D1*
Y8905D1*
X1820Y9096D2*
X2106D1*
Y9145D1*
X2083Y9193D1*
X2059Y9216D1*
X2011Y9240D1*
X1939D1*
X1891Y9216D1*
X1843Y9168D1*
X1820Y9096D1*
Y9049D1*
X1843Y8977D1*
X1891Y8930D1*
X1939Y8905D1*
X2011D1*
X2059Y8930D1*
X2106Y8977D1*
X1586Y7740D2*
X1730Y7405D1*
X1873Y7740D1*
X2028Y7811D2*
X2076Y7836D1*
X2148Y7907D1*
Y7405D1*
X2326Y7453D2*
X2302Y7429D1*
X2326Y7405D1*
X2350Y7429D1*
X2326Y7453D1*
X2553Y7907D2*
X2815D1*
X2672Y7716D1*
X2744D1*
X2791Y7692D1*
X2815Y7668D1*
X2839Y7596D1*
Y7549D1*
X2815Y7477D1*
X2768Y7429D1*
X2696Y7405D1*
X2624D1*
X2553Y7429D1*
X2529Y7453D1*
X2504Y7501D1*
X-3610Y4582D2*
D12*
X-3591Y4563D1*
X-3562Y4544D1*
X-3524Y4525D1*
X-3476Y4515D1*
X-3437D1*
X-3390Y4525D1*
X-3351Y4544D1*
X-3323Y4563D1*
X-3304Y4582D1*
X-3461Y4759D2*
X-3481Y4740D1*
X-3490Y4721D1*
Y4692D1*
X-3481Y4673D1*
X-3461Y4654D1*
X-3433Y4644D1*
X-3414D1*
X-3385Y4654D1*
X-3366Y4673D1*
X-3356Y4692D1*
Y4721D1*
X-3366Y4740D1*
X-3385Y4759D1*
X-3610Y4821D2*
X-3591Y4840D1*
X-3562Y4859D1*
X-3524Y4878D1*
X-3476Y4888D1*
X-3437D1*
X-3390Y4878D1*
X-3351Y4859D1*
X-3323Y4840D1*
X-3304Y4821D1*
X-3509Y5154D2*
X-3519D1*
X-3538Y5163D1*
X-3547Y5173D1*
X-3557Y5192D1*
Y5230D1*
X-3547Y5249D1*
X-3538Y5259D1*
X-3519Y5269D1*
X-3500D1*
X-3480Y5259D1*
X-3452Y5240D1*
X-3356Y5144D1*
Y5278D1*
X-3557Y5397D2*
X-3547Y5369D1*
X-3519Y5349D1*
X-3471Y5340D1*
X-3442D1*
X-3394Y5349D1*
X-3366Y5369D1*
X-3356Y5397D1*
Y5416D1*
X-3366Y5445D1*
X-3394Y5464D1*
X-3442Y5474D1*
X-3471D1*
X-3519Y5464D1*
X-3547Y5445D1*
X-3557Y5416D1*
Y5397D1*
X-3519Y5464D2*
X-3394Y5349D1*
X-3519Y5536D2*
X-3528Y5555D1*
X-3557Y5583D1*
X-3356D1*
X-3528Y5760D2*
X-3547Y5750D1*
X-3557Y5722D1*
Y5703D1*
X-3547Y5674D1*
X-3519Y5655D1*
X-3471Y5645D1*
X-3423D1*
X-3385Y5655D1*
X-3366Y5674D1*
X-3356Y5703D1*
Y5712D1*
X-3366Y5741D1*
X-3385Y5760D1*
X-3414Y5769D1*
X-3423D1*
X-3452Y5760D1*
X-3471Y5741D1*
X-3480Y5712D1*
Y5703D1*
X-3471Y5674D1*
X-3452Y5655D1*
X-3423Y5645D1*
X-3452Y6026D2*
Y6112D1*
X-3461Y6140D1*
X-3471Y6150D1*
X-3490Y6160D1*
X-3519D1*
X-3538Y6150D1*
X-3548Y6140D1*
X-3557Y6112D1*
Y6026D1*
X-3356D1*
X-3433Y6221D2*
Y6336D1*
X-3452D1*
X-3471Y6327D1*
X-3481Y6317D1*
X-3490Y6298D1*
Y6269D1*
X-3481Y6250D1*
X-3461Y6231D1*
X-3433Y6221D1*
X-3414D1*
X-3385Y6231D1*
X-3366Y6250D1*
X-3356Y6269D1*
Y6298D1*
X-3366Y6317D1*
X-3385Y6336D1*
X-3557Y6427D2*
X-3394D1*
X-3366Y6436D1*
X-3356Y6455D1*
Y6474D1*
X-3490Y6398D2*
Y6465D1*
X-3433Y6536D2*
Y6651D1*
X-3452D1*
X-3471Y6641D1*
X-3481Y6632D1*
X-3490Y6613D1*
Y6584D1*
X-3481Y6565D1*
X-3461Y6546D1*
X-3433Y6536D1*
X-3414D1*
X-3385Y6546D1*
X-3366Y6565D1*
X-3356Y6584D1*
Y6613D1*
X-3366Y6632D1*
X-3385Y6651D1*
X-3490Y6713D2*
X-3356D1*
X-3433D2*
X-3461Y6722D1*
X-3481Y6741D1*
X-3490Y6761D1*
Y6789D1*
X-3557Y7179D2*
X-3356D1*
X-3557Y7045D1*
X-3356D1*
X-3490Y7289D2*
X-3481Y7270D1*
X-3461Y7251D1*
X-3433Y7241D1*
X-3414D1*
X-3385Y7251D1*
X-3366Y7270D1*
X-3356Y7289D1*
Y7318D1*
X-3366Y7337D1*
X-3385Y7356D1*
X-3414Y7366D1*
X-3433D1*
X-3461Y7356D1*
X-3481Y7337D1*
X-3490Y7318D1*
Y7289D1*
Y7437D2*
X-3356Y7494D1*
X-3318Y7475D1*
X-3299Y7456D1*
X-3289Y7437D1*
Y7427D1*
X-3490Y7552D2*
X-3356Y7494D1*
X-3433Y7614D2*
Y7728D1*
X-3452D1*
X-3471Y7719D1*
X-3481Y7709D1*
X-3490Y7690D1*
Y7661D1*
X-3481Y7642D1*
X-3461Y7623D1*
X-3433Y7614D1*
X-3414D1*
X-3385Y7623D1*
X-3366Y7642D1*
X-3356Y7661D1*
Y7690D1*
X-3366Y7709D1*
X-3385Y7728D1*
X-3461Y7895D2*
X-3481Y7886D1*
X-3490Y7857D1*
Y7828D1*
X-3481Y7800D1*
X-3461Y7790D1*
X-3442Y7800D1*
X-3433Y7819D1*
X-3423Y7867D1*
X-3414Y7886D1*
X-3394Y7895D1*
X-3385D1*
X-3366Y7886D1*
X-3356Y7857D1*
Y7828D1*
X-3366Y7800D1*
X-3385Y7790D1*
X-2572Y4009D2*
X-2668D1*
X-2677Y3923D1*
X-2668Y3933D1*
X-2639Y3942D1*
X-2610D1*
X-2582Y3933D1*
X-2562Y3914D1*
X-2553Y3885D1*
Y3866D1*
X-2562Y3837D1*
X-2582Y3818D1*
X-2610Y3808D1*
X-2639D1*
X-2668Y3818D1*
X-2677Y3828D1*
X-2687Y3847D1*
X-2491Y4009D2*
X-2415Y3808D1*
X-2338Y4009D1*
X-1668Y3962D2*
X-1678Y3981D1*
X-1697Y4000D1*
X-1716Y4009D1*
X-1754D1*
X-1774Y4000D1*
X-1793Y3981D1*
X-1802Y3962D1*
X-1812Y3933D1*
Y3885D1*
X-1802Y3856D1*
X-1793Y3837D1*
X-1774Y3818D1*
X-1754Y3808D1*
X-1716D1*
X-1697Y3818D1*
X-1678Y3837D1*
X-1668Y3856D1*
Y3885D1*
X-1716D1*
X-1473Y4009D2*
Y3808D1*
X-1607Y4009D1*
Y3808D1*
X-1411Y4009D2*
Y3808D1*
X-1344D1*
X-1315Y3818D1*
X-1296Y3837D1*
X-1286Y3856D1*
X-1277Y3885D1*
Y3933D1*
X-1286Y3962D1*
X-1296Y3981D1*
X-1315Y4000D1*
X-1344Y4009D1*
X-1411D1*
X-678Y3981D2*
X-697Y4000D1*
X-726Y4009D1*
X-764D1*
X-793Y4000D1*
X-812Y3981D1*
Y3962D1*
X-802Y3942D1*
X-793Y3933D1*
X-774Y3923D1*
X-716Y3904D1*
X-697Y3895D1*
X-687Y3885D1*
X-678Y3866D1*
Y3837D1*
X-697Y3818D1*
X-726Y3808D1*
X-764D1*
X-793Y3818D1*
X-812Y3837D1*
X-473Y3962D2*
X-482Y3981D1*
X-501Y4000D1*
X-520Y4009D1*
X-559D1*
X-578Y4000D1*
X-597Y3981D1*
X-607Y3962D1*
X-616Y3933D1*
Y3885D1*
X-607Y3856D1*
X-597Y3837D1*
X-578Y3818D1*
X-559Y3808D1*
X-520D1*
X-501Y3818D1*
X-482Y3837D1*
X-473Y3856D1*
X-411Y4009D2*
Y3808D1*
X-277Y4009D2*
X-411Y3875D1*
X-363Y3923D2*
X-277Y3808D1*
X2457Y3962D2*
X2447Y3981D1*
X2428Y4000D1*
X2409Y4009D1*
X2371D1*
X2351Y4000D1*
X2332Y3981D1*
X2323Y3962D1*
X2313Y3933D1*
Y3885D1*
X2323Y3856D1*
X2332Y3837D1*
X2351Y3818D1*
X2371Y3808D1*
X2409D1*
X2428Y3818D1*
X2447Y3837D1*
X2457Y3856D1*
X2652Y3981D2*
X2633Y4000D1*
X2605Y4009D1*
X2566D1*
X2538Y4000D1*
X2518Y3981D1*
Y3962D1*
X2528Y3942D1*
X2538Y3933D1*
X2557Y3923D1*
X2614Y3904D1*
X2633Y3895D1*
X2643Y3885D1*
X2652Y3866D1*
Y3837D1*
X2633Y3818D1*
X2605Y3808D1*
X2566D1*
X2538Y3818D1*
X2518Y3837D1*
X1341Y3808D2*
Y4009D1*
X1265Y3808D1*
X1188Y4009D1*
Y3808D1*
X1460Y4009D2*
X1441Y4000D1*
X1422Y3981D1*
X1412Y3962D1*
X1403Y3933D1*
Y3885D1*
X1412Y3856D1*
X1422Y3837D1*
X1441Y3818D1*
X1460Y3808D1*
X1499D1*
X1518Y3818D1*
X1537Y3837D1*
X1546Y3856D1*
X1556Y3885D1*
Y3933D1*
X1546Y3962D1*
X1537Y3981D1*
X1518Y4000D1*
X1499Y4009D1*
X1460D1*
X1752Y3981D2*
X1733Y4000D1*
X1704Y4009D1*
X1666D1*
X1637Y4000D1*
X1618Y3981D1*
Y3962D1*
X1627Y3942D1*
X1637Y3933D1*
X1656Y3923D1*
X1713Y3904D1*
X1733Y3895D1*
X1742Y3885D1*
X1752Y3866D1*
Y3837D1*
X1733Y3818D1*
X1704Y3808D1*
X1666D1*
X1637Y3818D1*
X1618Y3837D1*
X1813Y4009D2*
Y3808D1*
X341D2*
Y4009D1*
X265Y3808D1*
X188Y4009D1*
Y3808D1*
X403Y4009D2*
Y3808D1*
X599Y3981D2*
X580Y4000D1*
X551Y4009D1*
X513D1*
X484Y4000D1*
X465Y3981D1*
Y3962D1*
X474Y3942D1*
X484Y3933D1*
X503Y3923D1*
X560Y3904D1*
X580Y3895D1*
X589Y3885D1*
X599Y3866D1*
Y3837D1*
X580Y3818D1*
X551Y3808D1*
X513D1*
X484Y3818D1*
X465Y3837D1*
X718Y4009D2*
X699Y4000D1*
X680Y3981D1*
X670Y3962D1*
X660Y3933D1*
Y3885D1*
X670Y3856D1*
X680Y3837D1*
X699Y3818D1*
X718Y3808D1*
X756D1*
X775Y3818D1*
X794Y3837D1*
X804Y3856D1*
X813Y3885D1*
Y3933D1*
X804Y3962D1*
X794Y3981D1*
X775Y4000D1*
X756Y4009D1*
X718D1*
X-2794Y7907D2*
D29*
X-2866Y7883D1*
X-2890Y7836D1*
Y7788D1*
X-2866Y7740D1*
X-2818Y7716D1*
X-2722Y7692D1*
X-2651Y7668D1*
X-2603Y7620D1*
X-2579Y7573D1*
Y7501D1*
X-2603Y7453D1*
X-2627Y7429D1*
X-2699Y7405D1*
X-2794D1*
X-2866Y7429D1*
X-2890Y7453D1*
X-2914Y7501D1*
Y7573D1*
X-2890Y7620D1*
X-2842Y7668D1*
X-2770Y7692D1*
X-2675Y7716D1*
X-2627Y7740D1*
X-2603Y7788D1*
Y7836D1*
X-2627Y7883D1*
X-2699Y7907D1*
X-2794D1*
X-2425Y7908D2*
Y7405D1*
X-2186Y7740D2*
X-2425Y7501D1*
X-2329Y7596D2*
X-2162Y7405D1*
X-2007Y7908D2*
Y7405D1*
X-1792D1*
X-1720Y7430D1*
X-1696Y7453D1*
X-1672Y7501D1*
Y7573D1*
X-1696Y7621D1*
X-1720Y7645D1*
X-1792Y7668D1*
X-1720Y7693D1*
X-1696Y7716D1*
X-1672Y7764D1*
Y7812D1*
X-1696Y7860D1*
X-1720Y7884D1*
X-1792Y7908D1*
X-2007D1*
Y7668D2*
X-1792D1*
M02*
