<?xml version="1.0" encoding="UTF-8" standalone="no"?>
<svg
   xmlns:dc="http://purl.org/dc/elements/1.1/"
   xmlns:cc="http://creativecommons.org/ns#"
   xmlns:rdf="http://www.w3.org/1999/02/22-rdf-syntax-ns#"
   xmlns:svg="http://www.w3.org/2000/svg"
   xmlns="http://www.w3.org/2000/svg"
   id="svg68"
   height="31.700001mm"
   width="33.450001mm"
   version="1.0">
  <metadata
     id="metadata72">
    <rdf:RDF>
      <cc:Work
         rdf:about="">
        <dc:format>image/svg+xml</dc:format>
        <dc:type
           rdf:resource="http://purl.org/dc/dcmitype/StillImage" />
      </cc:Work>
    </rdf:RDF>
  </metadata>
  <defs
     id="defs30">
    <clipPath
       id="clipEmfPath1"
       clipPathUnits="userSpaceOnUse">
      <path
         id="path2"
         d="M 7.216378,7.216378 L 105.99055,7.216378 L 105.99055,103.28441 L 7.216378,103.28441 z" />
    </clipPath>
    <clipPath
       id="clipEmfPath2"
       clipPathUnits="userSpaceOnUse">
      <path
         id="path5"
         d="M 26.610394,25.257323 L 39.690079,25.257323 L 39.690079,55.024882 L 26.610394,55.024882 z" />
    </clipPath>
    <clipPath
       id="clipEmfPath3"
       clipPathUnits="userSpaceOnUse">
      <path
         id="path8"
         d="M 17.589921,34.277795 L 52.769764,34.277795 L 52.769764,58.633071 L 17.589921,58.633071 z" />
    </clipPath>
    <clipPath
       id="clipEmfPath4"
       clipPathUnits="userSpaceOnUse">
      <path
         id="path11"
         d="M 37.885984,17.138898 L 58.182047,17.138898 L 58.182047,38.337008 L 37.885984,38.337008 z" />
    </clipPath>
    <clipPath
       id="clipEmfPath5"
       clipPathUnits="userSpaceOnUse">
      <path
         id="path14"
         d="M 46.004409,22.100157 L 67.653543,22.100157 L 67.653543,45.553386 L 46.004409,45.553386 z" />
    </clipPath>
    <clipPath
       id="clipEmfPath6"
       clipPathUnits="userSpaceOnUse">
      <path
         id="path17"
         d="M 49.612598,54.573858 L 93.812913,54.573858 L 93.812913,82.086299 L 49.612598,82.086299 z" />
    </clipPath>
    <clipPath
       id="clipEmfPath7"
       clipPathUnits="userSpaceOnUse">
      <path
         id="path20"
         d="M 92.008819,43.749291 L 119.97228,43.749291 L 119.97228,74.869921 L 92.008819,74.869921 z" />
    </clipPath>
    <clipPath
       id="clipEmfPath8"
       clipPathUnits="userSpaceOnUse">
      <path
         id="path23"
         d="M 43.749291,27.061417 L 48.259528,27.061417 L 48.259528,32.022677 L 43.749291,32.022677 z" />
    </clipPath>
    <clipPath
       id="clipEmfPath9"
       clipPathUnits="userSpaceOnUse">
      <path
         id="path26"
         d="M 52.769764,32.473701 L 57.731024,32.473701 L 57.731024,37.434961 L 52.769764,37.434961 z" />
    </clipPath>
    <pattern
       y="0"
       x="0"
       height="6"
       width="6"
       patternUnits="userSpaceOnUse"
       id="EMFhbasepattern" />
  </defs>
  <path
     id="path32"
     d="  M 46.596378,47.949449   C 46.596378,47.949449 36.673858,51.78315 41.155906,70.585197   C 47.836693,98.520472 99.027874,93.89748 99.986299,66.723307   C 101.22661,32.586457 58.322992,46.004409 58.322992,46.004409   C 58.322992,46.004409 79.013701,26.243937 60.775433,18.012756   C 45.891654,11.275591 41.155906,31.289764 41.155906,31.289764   C 41.155906,31.289764 28.555433,25.172756 19.929606,34.13685   C 11.275591,43.072756 21.705512,54.320157 21.705512,54.320157   C 21.705512,54.320157 21.902835,51.924094 23.227717,49.866299   C 24.665354,47.582992 25.764724,47.470236 25.764724,47.470236   C 25.764724,47.470236 30.331339,50.965669 35.546299,50.571024   C 40.76126,50.148189 46.596378,47.949449 46.596378,47.949449  "
     clip-path="url(#clipEmfPath1)"
     style="fill:none;stroke:#000000;stroke-width:2.2551181px;stroke-linecap:butt;stroke-linejoin:miter;stroke-miterlimit:10;stroke-dasharray:none;stroke-opacity:1;" />
  <path
     id="path34"
     d="  M 30.754173,29.429291   C 30.754173,29.429291 35.123465,32.811969 35.264409,39.126299   C 35.433543,45.44063 32.389134,50.486457 32.389134,50.486457  "
     clip-path="url(#clipEmfPath2)"
     style="fill:none;stroke:#000000;stroke-width:2.2551181px;stroke-linecap:butt;stroke-linejoin:miter;stroke-miterlimit:10;stroke-dasharray:none;stroke-opacity:1;" />
  <path
     id="path36"
     d="  M 21.564567,54.320157   C 21.564567,54.320157 22.607559,45.637953 32.868346,43.664724   C 38.449764,42.593543 42.114331,43.044567 45.017795,41.917008   C 47.047402,41.127717 48.231339,38.56252 48.231339,38.56252  "
     clip-path="url(#clipEmfPath3)"
     style="fill:none;stroke:#000000;stroke-width:2.2551181px;stroke-linecap:butt;stroke-linejoin:miter;stroke-miterlimit:10;stroke-dasharray:none;stroke-opacity:1;" />
  <path
     id="path38"
     d="  M 42.001575,29.034646   C 42.001575,29.034646 42.790866,31.487087 45.186929,32.896535   C 47.019213,33.967717 50.176378,33.347559 51.952283,30.500472   C 53.897323,27.427874 52.008661,24.24252 51.191181,23.227717   C 49.528031,21.113543 45.327874,22.466614 45.327874,22.466614  "
     clip-path="url(#clipEmfPath4)"
     style="fill:none;stroke:#000000;stroke-width:2.2551181px;stroke-linecap:butt;stroke-linejoin:miter;stroke-miterlimit:10;stroke-dasharray:none;stroke-opacity:1;" />
  <path
     id="path40"
     d="  M 52.403307,30.415906   C 53.615433,28.414488 56.99811,26.187559 60.183465,27.484252   C 63.34063,28.780945 63.030551,33.770394 61.67748,36.222835   C 60.719055,37.970551 57.195433,41.071339 54.291969,39.38   C 50.260945,37.068504 51.247559,32.389134 52.431496,30.387717  "
     clip-path="url(#clipEmfPath5)"
     style="fill:none;stroke:#000000;stroke-width:2.2551181px;stroke-linecap:butt;stroke-linejoin:miter;stroke-miterlimit:10;stroke-dasharray:none;stroke-opacity:1;" />
  <path
     id="path42"
     d="  M 58.886772,59.225039   C 58.886772,59.225039 53.812756,61.762047 54.291969,68.217323   C 54.771181,74.700787 60.803622,77.519685 66.807874,77.519685   C 72.812126,77.519685 79.070079,73.79874 80.000315,73.065827   C 80.930551,72.332913 89.556378,65.652126 89.556378,65.652126   C 89.556378,65.652126 86.540157,64.693701 84.454173,63.086929   C 82.368189,61.508346 79.85937,58.717638 79.85937,58.717638  "
     clip-path="url(#clipEmfPath6)"
     style="fill:none;stroke:#000000;stroke-width:2.2551181px;stroke-linecap:butt;stroke-linejoin:miter;stroke-miterlimit:10;stroke-dasharray:none;stroke-opacity:1;" />
  <path
     id="path44"
     d="  M 96.09622,51.332126   C 96.09622,51.332126 97.618425,48.062205 103.87638,47.977638   C 108.75307,47.92126 110.07795,48.259528 112.16394,50.289134   C 114.50362,52.516063 115.26472,54.771181 115.26472,54.771181   C 115.26472,54.771181 114.27811,54.179213 111.17732,54.714803   C 108.07654,55.250394 106.35701,57.787402 106.35701,57.787402   C 106.35701,57.787402 108.44299,57.364567 109.9652,58.09748   C 111.4874,58.858583 112.27669,60.775433 112.27669,60.775433   C 112.27669,60.775433 110.35984,59.676063 108.72488,61.733858   C 107.06173,63.791654 107.68189,64.891024 105.90598,66.751496   C 102.38236,70.416063 99.929921,69.316693 99.929921,69.316693  "
     clip-path="url(#clipEmfPath7)"
     style="fill:none;stroke:#000000;stroke-width:2.2551181px;stroke-linecap:butt;stroke-linejoin:miter;stroke-miterlimit:10;stroke-dasharray:none;stroke-opacity:1;" />
  <path
     id="path46"
     d="  M 54.855748,86.624724   L 53.728189,102.8052  "
     style="fill:none;stroke:#000000;stroke-width:2.2551181px;stroke-linecap:butt;stroke-linejoin:miter;stroke-miterlimit:10;stroke-dasharray:none;stroke-opacity:1;" />
  <path
     id="path48"
     d="  M 54.066457,96.039843   L 48.034016,100.71921  "
     style="fill:none;stroke:#000000;stroke-width:2.2551181px;stroke-linecap:butt;stroke-linejoin:miter;stroke-miterlimit:10;stroke-dasharray:none;stroke-opacity:1;" />
  <path
     id="path50"
     d="  M 54.179213,96.180787   L 60.211654,101.67764  "
     style="fill:none;stroke:#000000;stroke-width:2.2551181px;stroke-linecap:butt;stroke-linejoin:miter;stroke-miterlimit:10;stroke-dasharray:none;stroke-opacity:1;" />
  <path
     id="path52"
     d="  M 72.586614,89.274488   L 73.319528,98.774173  "
     style="fill:none;stroke:#000000;stroke-width:2.2551181px;stroke-linecap:butt;stroke-linejoin:miter;stroke-miterlimit:10;stroke-dasharray:none;stroke-opacity:1;" />
  <path
     id="path54"
     d="  M 73.375906,97.984882   L 82.114488,100.21181  "
     style="fill:none;stroke:#000000;stroke-width:2.2551181px;stroke-linecap:butt;stroke-linejoin:miter;stroke-miterlimit:10;stroke-dasharray:none;stroke-opacity:1;" />
  <path
     id="path56"
     d="  M 73.545039,98.182205   L 70.275118,102.35417  "
     style="fill:none;stroke:#000000;stroke-width:2.2551181px;stroke-linecap:butt;stroke-linejoin:miter;stroke-miterlimit:10;stroke-dasharray:none;stroke-opacity:1;" />
  <path
     id="path58"
     d="  M 73.432283,98.097638   L 75.349134,104.0737  "
     style="fill:none;stroke:#000000;stroke-width:2.2551181px;stroke-linecap:butt;stroke-linejoin:miter;stroke-miterlimit:10;stroke-dasharray:none;stroke-opacity:1;" />
  <path
     id="path60"
     d="  M 45.694331,30.30315   C 46.201732,30.30315 46.624567,29.880315 46.624567,29.372913   C 46.624567,28.837323 46.201732,28.414488 45.694331,28.414488   C 45.15874,28.414488 44.735906,28.837323 44.735906,29.372913   C 44.735906,29.880315 45.15874,30.30315 45.694331,30.30315   z "
     style="fill:#000000;fill-rule:nonzero;fill-opacity:1;stroke:none;" />
  <path
     id="path62"
     d="  M 45.694331,30.30315   C 46.201732,30.30315 46.624567,29.880315 46.624567,29.372913   C 46.624567,28.837323 46.201732,28.414488 45.694331,28.414488   C 45.15874,28.414488 44.735906,28.837323 44.735906,29.372913   C 44.735906,29.880315 45.15874,30.30315 45.694331,30.30315  "
     clip-path="url(#clipEmfPath8)"
     style="fill:none;stroke:#000000;stroke-width:1.3530709px;stroke-linecap:butt;stroke-linejoin:miter;stroke-miterlimit:10;stroke-dasharray:none;stroke-opacity:1;" />
  <path
     id="path64"
     d="  M 54.940315,35.489921   C 55.36315,35.489921 55.729606,35.151654 55.729606,34.757008   C 55.729606,34.362362 55.36315,34.052283 54.940315,34.052283   C 54.51748,34.052283 54.151024,34.362362 54.151024,34.757008   C 54.151024,35.151654 54.51748,35.489921 54.940315,35.489921   z "
     style="fill:#000000;fill-rule:nonzero;fill-opacity:1;stroke:none;" />
  <path
     id="path66"
     d="  M 54.940315,35.489921   C 55.36315,35.489921 55.729606,35.151654 55.729606,34.757008   C 55.729606,34.362362 55.36315,34.052283 54.940315,34.052283   C 54.51748,34.052283 54.151024,34.362362 54.151024,34.757008   C 54.151024,35.151654 54.51748,35.489921 54.940315,35.489921  "
     clip-path="url(#clipEmfPath9)"
     style="fill:none;stroke:#000000;stroke-width:1.8040944px;stroke-linecap:butt;stroke-linejoin:miter;stroke-miterlimit:10;stroke-dasharray:none;stroke-opacity:1;" />
</svg>
