G04 DipTrace 2.4.0.2*
%INBottom.gbr*%
%MOIN*%
%ADD13C,0.013*%
%ADD14C,0.02*%
%ADD15C,0.025*%
%ADD18C,0.0472*%
%ADD19C,0.063*%
%ADD20R,0.063X0.063*%
%ADD21R,0.0709X0.0709*%
%ADD22C,0.0709*%
%ADD23R,0.0591X0.0591*%
%ADD24C,0.0591*%
%ADD25C,0.063*%
%ADD26R,0.0665X0.0665*%
%ADD27C,0.0665*%
%ADD28C,0.1874*%
%ADD29C,0.065*%
%ADD30C,0.06*%
%ADD31C,0.06*%
%ADD32R,0.0669X0.0669*%
%ADD33C,0.0669*%
%ADD34O,0.0394X0.0787*%
%ADD35C,0.04*%
%FSLAX44Y44*%
G04*
G70*
G90*
G75*
G01*
%LNBottom*%
%LPD*%
X23331Y8284D2*
D13*
Y5534D1*
X25806Y3059D1*
Y-5566D1*
X23681Y-7691D1*
X22556D1*
X3931Y3684D2*
X3306D1*
X2931Y3309D1*
Y-4191D1*
X5056Y-6316D1*
X9556D1*
X10306Y-7066D1*
Y-8566D1*
X9556Y-9316D1*
X-7069D1*
X-8069Y-8316D1*
Y-7691D1*
X22331Y8284D2*
Y6159D1*
X25556Y2934D1*
Y-4816D1*
X23681Y-6691D1*
X22556D1*
X3931Y4684D2*
X3306D1*
X2681Y4059D1*
Y-4316D1*
X4931Y-6566D1*
X9431D1*
X10056Y-7191D1*
Y-8441D1*
X9431Y-9066D1*
X-6319D1*
X-7069Y-8316D1*
Y-7691D1*
X21331Y8284D2*
Y6784D1*
X25306Y2809D1*
Y-4066D1*
X23681Y-5691D1*
X22556D1*
X3931Y5684D2*
X3306D1*
X2431Y4809D1*
Y-4441D1*
X4806Y-6816D1*
X9306D1*
X9806Y-7316D1*
Y-8316D1*
X9306Y-8816D1*
X-5569D1*
X-6069Y-8316D1*
Y-7816D1*
Y-7691D1*
X20331Y8284D2*
Y7409D1*
X25056Y2684D1*
Y-3316D1*
X23681Y-4691D1*
X22556D1*
X3931Y6684D2*
X3306D1*
X2181Y5559D1*
Y-4566D1*
X4681Y-7066D1*
X9181D1*
X9556Y-7441D1*
Y-8191D1*
X9181Y-8566D1*
X-4819D1*
X-5069Y-8316D1*
Y-7691D1*
X19331Y8284D2*
Y8034D1*
X24806Y2559D1*
Y-2566D1*
X23681Y-3691D1*
X22556D1*
X20306Y-12316D2*
Y-9191D1*
X21931Y-7566D1*
Y-4316D1*
X22556Y-3691D1*
Y-2691D2*
X23681D1*
X24556Y-1816D1*
Y2434D1*
X19446Y7544D1*
X18571D1*
X18306Y7809D1*
Y8259D1*
X18331Y8284D1*
X19306Y-12316D2*
Y-9816D1*
X21681Y-7441D1*
Y-3566D1*
X22556Y-2691D1*
Y-1691D2*
X23681D1*
X24306Y-1066D1*
Y2309D1*
X19306Y7309D1*
X17806D1*
X17306Y7809D1*
Y8259D1*
X17331Y8284D1*
X18306Y-12316D2*
Y-10441D1*
X21431Y-7316D1*
Y-2816D1*
X22556Y-1691D1*
Y-691D2*
X23681D1*
X24056Y-316D1*
Y2184D1*
X19181Y7059D1*
X17056D1*
X16306Y7809D1*
Y8259D1*
X16331Y8284D1*
X17306Y-12316D2*
Y-11066D1*
X21181Y-7191D1*
Y-2066D1*
X22556Y-691D1*
X17331Y14284D2*
Y13709D1*
X17056Y13434D1*
X6431D1*
X4431Y15434D1*
X3556D1*
X2931Y14809D1*
Y12684D1*
X3931Y11684D1*
X28556Y-1691D2*
X28056D1*
X27056Y-691D1*
Y6184D1*
X28431Y7559D1*
X18331Y14284D2*
Y13709D1*
X17806Y13184D1*
X6306D1*
X4306Y15184D1*
X3681D1*
X3181Y14684D1*
Y13434D1*
X3931Y12684D1*
X28556Y-2691D2*
X28056D1*
X26806Y-1441D1*
Y10059D1*
X22806Y14059D1*
Y14934D1*
X22431Y15309D1*
X18806D1*
X18306Y14809D1*
Y14284D1*
X18331D1*
X3931Y13684D2*
X5181Y12434D1*
X18556D1*
X19806Y13684D1*
Y14559D1*
X20056Y14809D1*
X20931D1*
X21306Y14434D1*
Y14284D1*
X21331D1*
X21431D2*
X21331D1*
X28556Y-5691D2*
X27806D1*
X26056Y-3941D1*
Y3184D1*
X23806Y5434D1*
Y11309D1*
X22681Y12434D1*
X18556D1*
X19331Y14284D2*
Y13709D1*
X18556Y12934D1*
X5681D1*
X3931Y14684D1*
X28556Y-3691D2*
X28056D1*
X26556Y-2191D1*
Y7309D1*
X25806Y8059D1*
Y10059D1*
X21806Y14059D1*
Y14559D1*
X21306Y15059D1*
X19556D1*
X19306Y14809D1*
Y14284D1*
X19331D1*
X15331Y8284D2*
Y7784D1*
X16306Y6809D1*
X19056D1*
X23806Y2059D1*
Y809D1*
X23306Y309D1*
X22556D1*
X15331Y8284D2*
Y8909D1*
X14931Y9309D1*
X6681D1*
X5806Y10184D1*
X1431D1*
X-2069Y13684D1*
X16331Y14909D2*
X15306Y15934D1*
X306D1*
X-1444Y14184D1*
X-2444D1*
X-2819Y13809D1*
Y12934D1*
X-2569Y12684D1*
X-2069D1*
X28556Y-691D2*
X28056D1*
X27306Y59D1*
Y5809D1*
X28431Y6934D1*
X14331Y8284D2*
Y7784D1*
X15556Y6559D1*
X18931D1*
X22556Y2934D1*
Y1309D1*
X14331Y8284D2*
Y8534D1*
X14056Y8809D1*
X4931D1*
X4556Y9184D1*
X431D1*
X-2069Y11684D1*
Y10684D2*
X1306Y7309D1*
X5431Y-941D2*
X8431D1*
X-9444Y-2191D2*
Y5434D1*
X-2569Y-19691D2*
X-1069D1*
X-944Y-19566D1*
X-194D1*
X-69Y-19691D1*
X56D1*
X-3069Y-19316D2*
X4931D1*
X5431Y-18816D1*
X-3069Y-7691D2*
Y-7066D1*
X-1194Y-5191D1*
Y1809D1*
X-2069Y2684D1*
X-10569Y-17816D2*
X-11444D1*
X-12194Y-17066D1*
Y-6816D1*
X-11319Y-5941D1*
X-9944D1*
X-6569Y-2566D1*
Y-1816D1*
X-5694Y-941D1*
X-5085D1*
X-2069Y-7691D2*
Y-7066D1*
X-944Y-5941D1*
Y2684D1*
X-1944Y3684D1*
X-2069D1*
X-9569Y-18816D2*
Y-19066D1*
X-9819Y-19316D1*
X-12194D1*
X-12444Y-19066D1*
Y-6691D1*
X-11444Y-5691D1*
X-10069D1*
X-6819Y-2441D1*
Y-1066D1*
X-5694Y59D1*
X-5085D1*
X-1069Y-7691D2*
Y-7066D1*
X-694Y-6691D1*
Y3309D1*
X-2069Y4684D1*
X-9569Y-17816D2*
X-10069Y-17316D1*
X-11569D1*
X-11944Y-16941D1*
Y-6941D1*
X-11194Y-6191D1*
X-9819D1*
X-6319Y-2691D1*
Y-2066D1*
X-5694Y-1441D1*
X-4819D1*
X-4444Y-1066D1*
Y418D1*
X-5085Y1059D1*
X-69Y-7691D2*
Y-7066D1*
X-444Y-6691D1*
Y4059D1*
X-2069Y5684D1*
X-8569Y-18816D2*
X-9319Y-19566D1*
X-12319D1*
X-12694Y-19191D1*
Y-6566D1*
X-11569Y-5441D1*
X-10194D1*
X-7069Y-2316D1*
Y684D1*
X-5694Y2059D1*
X-5085D1*
X931Y-7691D2*
Y-7066D1*
X-194Y-5941D1*
Y4809D1*
X-2194Y6809D1*
X-2069Y6684D1*
X-5085Y3059D2*
X-5694D1*
X-7319Y1434D1*
Y-2191D1*
X-10319Y-5191D1*
X-11694D1*
X-12944Y-6441D1*
Y-19316D1*
X-12444Y-19816D1*
X-8444D1*
X-8069Y-19441D1*
Y-18316D1*
X-8569Y-17816D1*
X1931Y-7691D2*
Y-7066D1*
X56Y-5191D1*
Y5559D1*
X-2069Y7684D1*
X-7569Y-18816D2*
Y-19441D1*
X-8194Y-20066D1*
X-12569D1*
X-13194Y-19441D1*
Y-6316D1*
X-11819Y-4941D1*
X-10444D1*
X-7569Y-2066D1*
Y2184D1*
X-5694Y4059D1*
X-5085D1*
X2931Y-7691D2*
Y-7066D1*
X306Y-4441D1*
Y6309D1*
X-2069Y8684D1*
X-5085Y5059D2*
X-5694D1*
X-7819Y2934D1*
Y-1941D1*
X-10569Y-4691D1*
X-11944D1*
X-13444Y-6191D1*
Y-19566D1*
X-12694Y-20316D1*
X-7944D1*
X-7069Y-19441D1*
Y-18316D1*
X-7569Y-17816D1*
X3931Y-7691D2*
Y-7066D1*
X556Y-3691D1*
Y7059D1*
X-2069Y9684D1*
X-6569Y-18816D2*
Y-19441D1*
X-7694Y-20566D1*
X-12819D1*
X-13694Y-19691D1*
Y-6066D1*
X-12069Y-4441D1*
X-10694D1*
X-8069Y-1816D1*
Y3684D1*
X-5694Y6059D1*
X-5085D1*
X16306Y-12316D2*
Y-8816D1*
X12556Y-5066D1*
Y-4191D1*
X11181Y-2816D1*
X-13319Y559D2*
X-13069Y809D1*
Y3559D1*
X-5085Y7059D2*
X-4069D1*
X-3319Y6309D1*
Y-1066D1*
X-2569Y-1816D1*
X-1569D1*
X-10069Y-10941D2*
Y-10316D1*
X-11444Y-8941D1*
X-22069Y-12941D2*
X-17819D1*
X-16819Y-11941D1*
X-569Y-19941D2*
X-69Y-20441D1*
X2181D1*
X-19069Y-20691D2*
X-20819Y-18941D1*
X28556Y-4691D2*
X28056D1*
X26306Y-2941D1*
Y6559D1*
X24806Y8059D1*
Y10684D1*
X21681Y13809D1*
X20806D1*
X20331Y14284D1*
X-2569Y-17816D2*
Y-17691D1*
X-2069Y-17191D1*
X14931D1*
X29681Y-13441D2*
Y-11263D1*
Y-4691D2*
X28556D1*
X15331Y14284D2*
Y13959D1*
X15056Y13684D1*
X6556D1*
X4556Y15684D1*
X3431D1*
X2556Y14809D1*
X4681Y1184D2*
X7306D1*
X30056Y-12441D2*
Y-16441D1*
X4806Y-19816D2*
X3681Y-20941D1*
X-3319D1*
X-4069Y-20191D1*
Y-18691D1*
X-3694Y-18316D1*
X-2069D1*
X-1569Y-18816D1*
X-3069Y-10566D2*
X-569D1*
Y-8191D2*
X3181D1*
X3431Y-7941D1*
Y-7066D1*
X806Y-4441D1*
X3306Y-3316D2*
Y59D1*
X3931Y684D1*
X-5085Y8059D2*
X-6819D1*
X-7319Y7559D1*
X-11319D1*
X-12069Y6809D1*
Y5059D1*
X-15444Y1684D1*
X-19819D1*
X-2069Y-1316D2*
X-2694D1*
X-3069Y-941D1*
Y6934D1*
X-4194Y8059D1*
X-5085D1*
X931Y-1316D2*
Y-2850D1*
Y-3691D1*
X4931Y-7691D1*
X-10444Y-12816D2*
Y-10566D1*
X-11569Y-9441D1*
X931Y-2850D2*
X1647D1*
X1681Y-2816D1*
X5431Y-2191D2*
X7931D1*
X8931Y-13691D2*
D14*
X9181D1*
X11056Y-11816D1*
X22431Y-16003D2*
Y-15441D1*
X20181Y-13191D1*
X16181D1*
X15306Y-12316D1*
X-25819Y1684D2*
Y6309D1*
X-18069Y6059D2*
X-17194D1*
X-15694Y7559D1*
X-12069D1*
X-11569Y8059D1*
X-11069D1*
X18056Y-3316D2*
D13*
X15556D1*
X-2069Y-4316D2*
Y-5066D1*
X-4069Y-7066D1*
Y-7691D1*
X-2069Y-4316D2*
X-2694Y-3691D1*
Y-2066D1*
X-3569Y-1191D1*
Y6184D1*
X-3944Y6559D1*
X-10569D1*
X-11069Y6059D1*
X-19753Y-17044D2*
Y-17882D1*
X-16819Y-20816D1*
X-5694D1*
X-5069Y-20191D1*
Y-18566D1*
X-4775Y-18272D1*
X-4025D1*
X-3569Y-17816D1*
X-2194Y-10191D2*
X-3569D1*
X22331Y14284D2*
Y14034D1*
X25181Y11184D1*
X8806Y3184D2*
Y-316D1*
X-5085Y9059D2*
X-4194D1*
X-2819Y7684D1*
Y2434D1*
X-2069Y1684D1*
X7181Y-1566D2*
X5431D1*
X-569Y-16816D2*
X9681D1*
X-6569Y-11441D2*
Y-9816D1*
Y-6381D2*
X-5125Y-4937D1*
X-15069Y7059D2*
X-14819D1*
X-14319Y6559D1*
Y4309D1*
X-14944Y3684D1*
X-16819D1*
D35*
X28431Y7559D3*
X16331Y14909D3*
X28431Y6934D3*
X1306Y7309D3*
X5431Y-941D3*
X8431D3*
X-9444Y-2191D3*
Y5434D3*
X-2569Y-19691D3*
X56D3*
X-3069Y-19316D3*
X-13069Y3559D3*
X-1569Y-1816D3*
X-10069Y-10941D3*
X-11444Y-8941D3*
X-569Y-19941D3*
X2181Y-20441D3*
X-19069Y-20691D3*
X-20819Y-18941D3*
X14931Y-17191D3*
X29681Y-13441D3*
Y-11263D3*
Y-4691D3*
X2556Y14809D3*
X4681Y1184D3*
X7306D3*
X30056Y-12441D3*
Y-16441D3*
X4806Y-19816D3*
X-3069Y-10566D3*
X-569D3*
Y-8191D3*
X806Y-4441D3*
X3306Y-3316D3*
X931Y-1316D3*
X-10444Y-12816D3*
X-11569Y-9441D3*
X1681Y-2816D3*
X5431Y-2191D3*
X7931D3*
X18056Y-3316D3*
X15556D3*
X-2194Y-10191D3*
X-3569D3*
X25181Y11184D3*
X8806Y3184D3*
Y-316D3*
X7181Y-1566D3*
X5431D3*
X-569Y-16816D3*
X9681D3*
X-6569Y-11441D3*
Y-9816D3*
Y-6381D3*
X-5125Y-4937D3*
X-26315Y17810D2*
D15*
X29178D1*
X-26163Y17562D2*
X29025D1*
X-26093Y17313D2*
X-15100D1*
X-13878D2*
X-11576D1*
X-10831D2*
X-10486D1*
X-9741D2*
X-9397D1*
X-8651D2*
X-8307D1*
X-7561D2*
X-5260D1*
X-4038D2*
X12119D1*
X12493D2*
X13631D1*
X14981D2*
X28955D1*
X-26093Y17064D2*
X-15432D1*
X-13546D2*
X-11815D1*
X-7323D2*
X-5592D1*
X-3706D2*
X11756D1*
X12856D2*
X13631D1*
X14981D2*
X28955D1*
X-26159Y16816D2*
X-15615D1*
X-13358D2*
X-11893D1*
X-7245D2*
X-5779D1*
X-3522D2*
X11646D1*
X12966D2*
X13631D1*
X14981D2*
X29021D1*
X-26308Y16567D2*
X-15725D1*
X-13249D2*
X-11873D1*
X-7265D2*
X-5889D1*
X-3413D2*
X11642D1*
X12970D2*
X13631D1*
X14981D2*
X29170D1*
X-27919Y16318D2*
X-27510D1*
X-26628D2*
X-15779D1*
X-13198D2*
X-11744D1*
X-7394D2*
X-5940D1*
X-3358D2*
X170D1*
X15442D2*
X29490D1*
X30372D2*
X30783D1*
X-27919Y16070D2*
X-15779D1*
X-13198D2*
X-12444D1*
X-6866D2*
X-5940D1*
X-3358D2*
X-151D1*
X15763D2*
X30783D1*
X-27919Y15821D2*
X-15733D1*
X-13245D2*
X-12444D1*
X-6726D2*
X-5893D1*
X-3405D2*
X-397D1*
X16009D2*
X30783D1*
X-27919Y15572D2*
X-15627D1*
X-13347D2*
X-12444D1*
X-6698D2*
X-5791D1*
X-3511D2*
X-647D1*
X16259D2*
X18478D1*
X22759D2*
X30783D1*
X-27919Y15323D2*
X-15451D1*
X-13526D2*
X-12444D1*
X-6769D2*
X-5611D1*
X-3686D2*
X-897D1*
X16692D2*
X18228D1*
X23009D2*
X30783D1*
X-27919Y15075D2*
X-15135D1*
X-13843D2*
X-12444D1*
X-10257D2*
X-9971D1*
X-9167D2*
X-8881D1*
X-8077D2*
X-7791D1*
X-6983D2*
X-5295D1*
X-4003D2*
X-2588D1*
X-1550D2*
X-1143D1*
X16864D2*
X17982D1*
X23204D2*
X30783D1*
X-27919Y14826D2*
X-2709D1*
X17677D2*
X17881D1*
X23677D2*
X23986D1*
X24677D2*
X24986D1*
X25677D2*
X25986D1*
X26677D2*
X26986D1*
X27677D2*
X30783D1*
X-27919Y14577D2*
X-2713D1*
X27915D2*
X30783D1*
X-27919Y14329D2*
X-2889D1*
X27985D2*
X30783D1*
X-27919Y14080D2*
X-3139D1*
X27954D2*
X30783D1*
X-27919Y13831D2*
X-3244D1*
X27794D2*
X30783D1*
X-27919Y13583D2*
X-18444D1*
X-17694D2*
X-15444D1*
X-14694D2*
X-11440D1*
X-10811D2*
X-3244D1*
X23872D2*
X30783D1*
X-27919Y13334D2*
X-18662D1*
X-17476D2*
X-15662D1*
X-14476D2*
X-11709D1*
X-10542D2*
X-3244D1*
X24122D2*
X30783D1*
X-27919Y13085D2*
X-18725D1*
X-17413D2*
X-15725D1*
X-14413D2*
X-11795D1*
X-10456D2*
X-3244D1*
X24372D2*
X30783D1*
X-27919Y12837D2*
X-26190D1*
X-25448D2*
X-23190D1*
X-22448D2*
X-18682D1*
X-17456D2*
X-15682D1*
X-14456D2*
X-11779D1*
X-10472D2*
X-3233D1*
X24618D2*
X30783D1*
X-27919Y12588D2*
X-26408D1*
X-25229D2*
X-23408D1*
X-22229D2*
X-18514D1*
X-17624D2*
X-15514D1*
X-14624D2*
X-11651D1*
X-10597D2*
X-3065D1*
X24868D2*
X30783D1*
X-27919Y12339D2*
X-26475D1*
X-25163D2*
X-23475D1*
X-22163D2*
X-18658D1*
X-17479D2*
X-15658D1*
X-14479D2*
X-2795D1*
X25118D2*
X30783D1*
X-27919Y12091D2*
X-26436D1*
X-25202D2*
X-23436D1*
X-22202D2*
X-18725D1*
X-17413D2*
X-15725D1*
X-14413D2*
X-2576D1*
X25364D2*
X30783D1*
X-27919Y11842D2*
X-26268D1*
X-25370D2*
X-23268D1*
X-22370D2*
X-18686D1*
X-17452D2*
X-15686D1*
X-14452D2*
X-2705D1*
X25614D2*
X30783D1*
X-27919Y11593D2*
X-18518D1*
X-17620D2*
X-15518D1*
X-14620D2*
X-13713D1*
X-12913D2*
X-11799D1*
X-10452D2*
X-2717D1*
X25864D2*
X30783D1*
X-27919Y11344D2*
X-18654D1*
X-17483D2*
X-15654D1*
X-14483D2*
X-13924D1*
X-12702D2*
X-11799D1*
X-10452D2*
X-2623D1*
X26110D2*
X30783D1*
X-27919Y11096D2*
X-18725D1*
X-17413D2*
X-15725D1*
X-14413D2*
X-13986D1*
X-12640D2*
X-11799D1*
X-10452D2*
X-2572D1*
X26360D2*
X30783D1*
X-27919Y10847D2*
X-18686D1*
X-17452D2*
X-15686D1*
X-14452D2*
X-13951D1*
X-12675D2*
X-11799D1*
X-10452D2*
X-2701D1*
X26610D2*
X30783D1*
X-27919Y10598D2*
X-18526D1*
X-17612D2*
X-15526D1*
X-14612D2*
X-13791D1*
X-12831D2*
X-11799D1*
X-10452D2*
X-2717D1*
X26856D2*
X30783D1*
X-27919Y10350D2*
X-18654D1*
X-17483D2*
X-15654D1*
X-14483D2*
X-2627D1*
X27106D2*
X30783D1*
X-27919Y10101D2*
X-18721D1*
X-17417D2*
X-15721D1*
X-14417D2*
X-2565D1*
X27228D2*
X30783D1*
X-27919Y9852D2*
X-18690D1*
X-17448D2*
X-15690D1*
X-14448D2*
X-2701D1*
X27231D2*
X30783D1*
X-27919Y9604D2*
X-18529D1*
X-17608D2*
X-15529D1*
X-14608D2*
X-13986D1*
X-12640D2*
X-11725D1*
X-10413D2*
X-5428D1*
X-4741D2*
X-2717D1*
X27231D2*
X30783D1*
X-27919Y9355D2*
X-18651D1*
X-17487D2*
X-15651D1*
X-14487D2*
X-13986D1*
X-12640D2*
X-11725D1*
X-10413D2*
X-5666D1*
X-3901D2*
X-2631D1*
X27231D2*
X30783D1*
X-27919Y9106D2*
X-18721D1*
X-17417D2*
X-15721D1*
X-14417D2*
X-13986D1*
X-12640D2*
X-11725D1*
X-10413D2*
X-5736D1*
X-3651D2*
X-2561D1*
X27231D2*
X30783D1*
X-27919Y8858D2*
X-18690D1*
X-17448D2*
X-15690D1*
X-14448D2*
X-13986D1*
X-12640D2*
X-11725D1*
X-10413D2*
X-5705D1*
X-3401D2*
X-2701D1*
X27618D2*
X30783D1*
X-27919Y8609D2*
X-18533D1*
X-17604D2*
X-15533D1*
X-14604D2*
X-13986D1*
X-12640D2*
X-11725D1*
X-10413D2*
X-5549D1*
X-3151D2*
X-2721D1*
X27896D2*
X30783D1*
X-27919Y8360D2*
X-18647D1*
X-17491D2*
X-15647D1*
X-14491D2*
X-11908D1*
X-10491D2*
X-7108D1*
X-2905D2*
X-2635D1*
X4497D2*
X13678D1*
X27981D2*
X30783D1*
X-27919Y8112D2*
X-20311D1*
X-19577D2*
X-18721D1*
X-17417D2*
X-15721D1*
X-14417D2*
X-12158D1*
X-10417D2*
X-7358D1*
X4419D2*
X13678D1*
X27962D2*
X30783D1*
X-27919Y7863D2*
X-20545D1*
X-19343D2*
X-18694D1*
X-17444D2*
X-16029D1*
X4560D2*
X13678D1*
X27825D2*
X27967D1*
X28896D2*
X30783D1*
X-27919Y7614D2*
X-20615D1*
X-19272D2*
X-18541D1*
X-17597D2*
X-16279D1*
X4583D2*
X13943D1*
X27231D2*
X27873D1*
X28989D2*
X30783D1*
X-27919Y7365D2*
X-20588D1*
X-19300D2*
X-18643D1*
X-17495D2*
X-16526D1*
X4501D2*
X14158D1*
X27231D2*
X27646D1*
X28954D2*
X30783D1*
X-27919Y7117D2*
X-20444D1*
X-19444D2*
X-18721D1*
X-17417D2*
X-16776D1*
X4415D2*
X14408D1*
X27231D2*
X27396D1*
X28958D2*
X30783D1*
X-27919Y6868D2*
X-26135D1*
X-25503D2*
X-23475D1*
X-22163D2*
X-18694D1*
X-17444D2*
X-17026D1*
X4560D2*
X14658D1*
X28985D2*
X30783D1*
X-27919Y6619D2*
X-26393D1*
X-25245D2*
X-23475D1*
X-22163D2*
X-18545D1*
X-17593D2*
X-17272D1*
X-15995D2*
X-15725D1*
X4583D2*
X14904D1*
X28888D2*
X30783D1*
X-27919Y6371D2*
X-26471D1*
X-25167D2*
X-23475D1*
X-22163D2*
X-18643D1*
X-16241D2*
X-15725D1*
X4501D2*
X15154D1*
X28458D2*
X30783D1*
X-27919Y6122D2*
X-26447D1*
X-25190D2*
X-23475D1*
X-22163D2*
X-20619D1*
X-19269D2*
X-18721D1*
X-16491D2*
X-15725D1*
X-4433D2*
X-4096D1*
X4407D2*
X18779D1*
X28712D2*
X30783D1*
X-27919Y5873D2*
X-26299D1*
X-25339D2*
X-23475D1*
X-22163D2*
X-20619D1*
X-19269D2*
X-18697D1*
X-16741D2*
X-15725D1*
X-4456D2*
X-3994D1*
X4556D2*
X19025D1*
X29056D2*
X30783D1*
X-27919Y5625D2*
X-26279D1*
X-25358D2*
X-20619D1*
X-19269D2*
X-18549D1*
X-17147D2*
X-15725D1*
X-4604D2*
X-3994D1*
X4583D2*
X19275D1*
X29161D2*
X30783D1*
X-27919Y5376D2*
X-26279D1*
X-25358D2*
X-20619D1*
X-19269D2*
X-14744D1*
X-4515D2*
X-3994D1*
X4505D2*
X19525D1*
X29161D2*
X30783D1*
X-27919Y5127D2*
X-26279D1*
X-25358D2*
X-20619D1*
X-19269D2*
X-14744D1*
X-4433D2*
X-3994D1*
X4403D2*
X5244D1*
X6243D2*
X19771D1*
X27731D2*
X27943D1*
X29056D2*
X30783D1*
X-27919Y4879D2*
X-26279D1*
X-25358D2*
X-14744D1*
X-4456D2*
X-3994D1*
X4556D2*
X5099D1*
X6388D2*
X20021D1*
X27731D2*
X28283D1*
X28716D2*
X30783D1*
X-27919Y4630D2*
X-26279D1*
X-25358D2*
X-14744D1*
X-11909D2*
X-11557D1*
X-4597D2*
X-3994D1*
X4583D2*
X5072D1*
X6415D2*
X20271D1*
X27731D2*
X30783D1*
X-27919Y4381D2*
X-26279D1*
X-25358D2*
X-14838D1*
X-12155D2*
X-11635D1*
X-4519D2*
X-3994D1*
X4509D2*
X5142D1*
X6345D2*
X20517D1*
X27731D2*
X30783D1*
X-27919Y4133D2*
X-26279D1*
X-25358D2*
X-19315D1*
X-18323D2*
X-17494D1*
X-16144D2*
X-15084D1*
X-13936D2*
X-13584D1*
X-12405D2*
X-11721D1*
X-4433D2*
X-3994D1*
X4399D2*
X5377D1*
X6110D2*
X20767D1*
X29173D2*
X30783D1*
X-27919Y3884D2*
X-26279D1*
X-25358D2*
X-19463D1*
X-18175D2*
X-17494D1*
X-14155D2*
X-13834D1*
X-12620D2*
X-11697D1*
X-4456D2*
X-3994D1*
X4552D2*
X21017D1*
X29173D2*
X30783D1*
X-27919Y3635D2*
X-26279D1*
X-25358D2*
X-19490D1*
X-18147D2*
X-17494D1*
X-14401D2*
X-14084D1*
X-12515D2*
X-11561D1*
X-4593D2*
X-3994D1*
X4583D2*
X8494D1*
X9118D2*
X21264D1*
X29173D2*
X30783D1*
X-27919Y3386D2*
X-26279D1*
X-25358D2*
X-19420D1*
X-18218D2*
X-17494D1*
X-14651D2*
X-14330D1*
X-12538D2*
X-11631D1*
X-4522D2*
X-3994D1*
X4513D2*
X8287D1*
X9325D2*
X21514D1*
X29173D2*
X30783D1*
X-27919Y3138D2*
X-26279D1*
X-25358D2*
X-19197D1*
X-18440D2*
X-17494D1*
X-16144D2*
X-14580D1*
X-12644D2*
X-11721D1*
X-4433D2*
X-3994D1*
X4392D2*
X5068D1*
X6419D2*
X8248D1*
X9364D2*
X21764D1*
X29173D2*
X30783D1*
X-27919Y2889D2*
X-26279D1*
X-25358D2*
X-14830D1*
X-13647D2*
X-13494D1*
X-12644D2*
X-11701D1*
X-4452D2*
X-3994D1*
X4552D2*
X5068D1*
X6419D2*
X8334D1*
X9278D2*
X22010D1*
X29173D2*
X30783D1*
X-27919Y2640D2*
X-26279D1*
X-25358D2*
X-15076D1*
X-13897D2*
X-13494D1*
X-12644D2*
X-11565D1*
X-4589D2*
X-3994D1*
X4583D2*
X5068D1*
X6419D2*
X8381D1*
X9231D2*
X22131D1*
X27731D2*
X30783D1*
X-27919Y2392D2*
X-26279D1*
X-25358D2*
X-15326D1*
X-14147D2*
X-13494D1*
X-12644D2*
X-11631D1*
X-4526D2*
X-3994D1*
X4513D2*
X5068D1*
X6419D2*
X8381D1*
X9231D2*
X22131D1*
X27731D2*
X30783D1*
X-27919Y2143D2*
X-26279D1*
X-25358D2*
X-20276D1*
X-19362D2*
X-15576D1*
X-14394D2*
X-13494D1*
X-12644D2*
X-11717D1*
X-4436D2*
X-3994D1*
X4388D2*
X5068D1*
X6419D2*
X8381D1*
X9231D2*
X22131D1*
X27731D2*
X30783D1*
X-27919Y1894D2*
X-26440D1*
X-25198D2*
X-20440D1*
X-14644D2*
X-13494D1*
X-12644D2*
X-11701D1*
X-4452D2*
X-3994D1*
X4552D2*
X8381D1*
X9231D2*
X21900D1*
X27731D2*
X28299D1*
X28814D2*
X30783D1*
X-27919Y1646D2*
X-26475D1*
X-25163D2*
X-20475D1*
X-14894D2*
X-13494D1*
X-12644D2*
X-11569D1*
X-4585D2*
X-3994D1*
X4978D2*
X7010D1*
X7603D2*
X8381D1*
X9231D2*
X10728D1*
X11634D2*
X13728D1*
X14634D2*
X16228D1*
X17134D2*
X19228D1*
X20134D2*
X21900D1*
X27731D2*
X27998D1*
X29114D2*
X30783D1*
X-27919Y1397D2*
X-26404D1*
X-25233D2*
X-20404D1*
X-15140D2*
X-13494D1*
X-12644D2*
X-11627D1*
X-4526D2*
X-3994D1*
X7821D2*
X8381D1*
X9231D2*
X10564D1*
X11798D2*
X13564D1*
X14798D2*
X16064D1*
X17298D2*
X19064D1*
X20298D2*
X21900D1*
X27731D2*
X27908D1*
X29204D2*
X30783D1*
X-27919Y1148D2*
X-26174D1*
X-25464D2*
X-20174D1*
X-19464D2*
X-17580D1*
X-17058D2*
X-13580D1*
X-12644D2*
X-11717D1*
X-4436D2*
X-3994D1*
X7864D2*
X8381D1*
X9231D2*
X10525D1*
X11837D2*
X13525D1*
X14837D2*
X16025D1*
X17337D2*
X19025D1*
X20337D2*
X21900D1*
X27731D2*
X27924D1*
X29189D2*
X30783D1*
X-27919Y900D2*
X-17881D1*
X-16757D2*
X-13881D1*
X-12644D2*
X-11705D1*
X-4335D2*
X-3994D1*
X7782D2*
X8381D1*
X9231D2*
X10596D1*
X11767D2*
X13596D1*
X14767D2*
X16096D1*
X17267D2*
X19096D1*
X20267D2*
X21900D1*
X27731D2*
X28053D1*
X29060D2*
X30783D1*
X-27919Y651D2*
X-17971D1*
X-16667D2*
X-13971D1*
X-12667D2*
X-11572D1*
X4751D2*
X4896D1*
X6216D2*
X7236D1*
X7374D2*
X8381D1*
X9231D2*
X10732D1*
X11630D2*
X13732D1*
X14630D2*
X16232D1*
X17130D2*
X19232D1*
X20130D2*
X22002D1*
X27731D2*
X28002D1*
X29110D2*
X30783D1*
X-27919Y402D2*
X-17959D1*
X-16679D2*
X-13959D1*
X-12679D2*
X-11623D1*
X4521D2*
X4963D1*
X6149D2*
X8381D1*
X9231D2*
X10564D1*
X11798D2*
X13564D1*
X14798D2*
X16064D1*
X17298D2*
X19064D1*
X20298D2*
X21908D1*
X27731D2*
X27908D1*
X29204D2*
X30783D1*
X-27919Y154D2*
X-17834D1*
X-16804D2*
X-13834D1*
X-12804D2*
X-11717D1*
X4376D2*
X5181D1*
X5931D2*
X8381D1*
X9231D2*
X10525D1*
X11837D2*
X13525D1*
X14837D2*
X16025D1*
X17337D2*
X19025D1*
X20337D2*
X21920D1*
X29192D2*
X30783D1*
X-27919Y-95D2*
X-11705D1*
X4548D2*
X8295D1*
X9317D2*
X10592D1*
X11771D2*
X13592D1*
X14771D2*
X16092D1*
X17271D2*
X19092D1*
X20271D2*
X22049D1*
X29064D2*
X30783D1*
X-27919Y-344D2*
X-11580D1*
X4587D2*
X8248D1*
X9364D2*
X10740D1*
X11622D2*
X13740D1*
X14622D2*
X16240D1*
X17122D2*
X19240D1*
X20122D2*
X22006D1*
X29106D2*
X30783D1*
X-27919Y-593D2*
X-11619D1*
X4521D2*
X5002D1*
X9290D2*
X10568D1*
X11794D2*
X13568D1*
X14794D2*
X16068D1*
X17294D2*
X19068D1*
X20294D2*
X21908D1*
X29204D2*
X30783D1*
X-27919Y-841D2*
X-26475D1*
X-25163D2*
X-20260D1*
X-19378D2*
X-11717D1*
X4372D2*
X4881D1*
X8981D2*
X10525D1*
X11837D2*
X13525D1*
X14837D2*
X16025D1*
X17337D2*
X19025D1*
X20337D2*
X21814D1*
X29192D2*
X30783D1*
X-27919Y-1090D2*
X-26475D1*
X-25163D2*
X-20432D1*
X-19206D2*
X-11705D1*
X4544D2*
X4892D1*
X8970D2*
X10588D1*
X11774D2*
X13588D1*
X14774D2*
X16088D1*
X17274D2*
X19088D1*
X20274D2*
X21568D1*
X29067D2*
X30783D1*
X-27919Y-1339D2*
X-26475D1*
X-25163D2*
X-20475D1*
X-19163D2*
X-11584D1*
X-4128D2*
X-3967D1*
X4587D2*
X4924D1*
X8814D2*
X10744D1*
X11618D2*
X13744D1*
X14618D2*
X16244D1*
X17118D2*
X19244D1*
X20118D2*
X21318D1*
X29103D2*
X30783D1*
X-27919Y-1587D2*
X-26475D1*
X-25163D2*
X-20412D1*
X-19226D2*
X-11615D1*
X-4374D2*
X-3764D1*
X4524D2*
X4873D1*
X7739D2*
X10568D1*
X11794D2*
X13568D1*
X14794D2*
X16068D1*
X17294D2*
X19068D1*
X20294D2*
X21068D1*
X29204D2*
X30783D1*
X-27919Y-1836D2*
X-26475D1*
X-25163D2*
X-20201D1*
X-19436D2*
X-11717D1*
X-4436D2*
X-3705D1*
X4364D2*
X4943D1*
X8356D2*
X10525D1*
X11837D2*
X13525D1*
X14837D2*
X16025D1*
X17337D2*
X19025D1*
X20337D2*
X20830D1*
X29192D2*
X30783D1*
X-27919Y-2085D2*
X-17522D1*
X-16815D2*
X-13533D1*
X-12104D2*
X-11709D1*
X-4444D2*
X-4014D1*
X4544D2*
X4881D1*
X8481D2*
X10588D1*
X11774D2*
X13588D1*
X14774D2*
X16088D1*
X17274D2*
X19088D1*
X20274D2*
X20756D1*
X29071D2*
X30783D1*
X-27919Y-2333D2*
X-17783D1*
X-16554D2*
X-13533D1*
X-12104D2*
X-11588D1*
X-5894D2*
X-5604D1*
X-4565D2*
X-4111D1*
X4587D2*
X4892D1*
X8470D2*
X10752D1*
X11610D2*
X13752D1*
X14610D2*
X16252D1*
X17110D2*
X19252D1*
X20110D2*
X20756D1*
X29099D2*
X30783D1*
X-27919Y-2582D2*
X-23088D1*
X-21659D2*
X-17873D1*
X-16464D2*
X-13533D1*
X-12104D2*
X-11611D1*
X-5894D2*
X-5627D1*
X-4542D2*
X-4104D1*
X4528D2*
X5041D1*
X8321D2*
X10572D1*
X11790D2*
X13572D1*
X14790D2*
X16072D1*
X17290D2*
X19072D1*
X20290D2*
X20756D1*
X29200D2*
X30783D1*
X-27919Y-2831D2*
X-23088D1*
X-21659D2*
X-17869D1*
X-16468D2*
X-13533D1*
X-12104D2*
X-11713D1*
X-5921D2*
X-5729D1*
X-4440D2*
X-3990D1*
X4356D2*
X5123D1*
X5989D2*
X10525D1*
X11837D2*
X13525D1*
X14837D2*
X15306D1*
X15806D2*
X16025D1*
X17337D2*
X17806D1*
X18306D2*
X19025D1*
X20337D2*
X20756D1*
X29196D2*
X30783D1*
X-27919Y-3079D2*
X-23088D1*
X-21659D2*
X-17764D1*
X-16573D2*
X-13533D1*
X-12104D2*
X-11709D1*
X-6116D2*
X-5725D1*
X-4444D2*
X-3588D1*
X-3298D2*
X-3119D1*
X4540D2*
X4943D1*
X6169D2*
X10584D1*
X12036D2*
X13584D1*
X14778D2*
X15053D1*
X18560D2*
X19084D1*
X20278D2*
X20756D1*
X29079D2*
X30783D1*
X-27919Y-3328D2*
X-23088D1*
X-21659D2*
X-17455D1*
X-16882D2*
X-13533D1*
X-12104D2*
X-11592D1*
X-6366D2*
X-5608D1*
X-4561D2*
X-3119D1*
X4587D2*
X4896D1*
X6216D2*
X10756D1*
X12282D2*
X13756D1*
X14606D2*
X14998D1*
X18614D2*
X19256D1*
X20106D2*
X20756D1*
X29095D2*
X30783D1*
X-27919Y-3577D2*
X-23088D1*
X-21659D2*
X-11608D1*
X-6616D2*
X-5623D1*
X-4546D2*
X-3119D1*
X4528D2*
X4951D1*
X6161D2*
X10572D1*
X12532D2*
X13572D1*
X14790D2*
X15064D1*
X18548D2*
X19072D1*
X20290D2*
X20756D1*
X29200D2*
X30783D1*
X-27919Y-3825D2*
X-23088D1*
X-21659D2*
X-11713D1*
X-6862D2*
X-5729D1*
X-4440D2*
X-4119D1*
X4587D2*
X5154D1*
X5958D2*
X9377D1*
X9735D2*
X10525D1*
X12782D2*
X13525D1*
X14837D2*
X15369D1*
X15743D2*
X16025D1*
X17337D2*
X17869D1*
X18243D2*
X19025D1*
X20337D2*
X20756D1*
X29196D2*
X30783D1*
X-27919Y-4074D2*
X-12252D1*
X-7112D2*
X-5725D1*
X-4444D2*
X-4119D1*
X4587D2*
X5014D1*
X6099D2*
X9014D1*
X10099D2*
X10580D1*
X12962D2*
X13580D1*
X14782D2*
X16080D1*
X17282D2*
X19080D1*
X20282D2*
X20756D1*
X29083D2*
X30783D1*
X-27919Y-4323D2*
X-12541D1*
X-7358D2*
X-5611D1*
X-4558D2*
X-4119D1*
X4587D2*
X4908D1*
X6204D2*
X8908D1*
X10204D2*
X10764D1*
X11599D2*
X12096D1*
X12981D2*
X13525D1*
X14837D2*
X16264D1*
X17099D2*
X19025D1*
X20337D2*
X20756D1*
X30095D2*
X30783D1*
X-27919Y-4572D2*
X-27748D1*
X-26890D2*
X-12791D1*
X-7608D2*
X-5541D1*
X-4710D2*
X-4119D1*
X4587D2*
X4908D1*
X6204D2*
X8908D1*
X10204D2*
X10576D1*
X11786D2*
X12131D1*
X12981D2*
X13525D1*
X14837D2*
X16076D1*
X17286D2*
X19025D1*
X20337D2*
X20756D1*
X30228D2*
X30783D1*
X-26710Y-4820D2*
X-13037D1*
X-7858D2*
X-5670D1*
X-4577D2*
X-4119D1*
X-2769D2*
X-2494D1*
X4587D2*
X5021D1*
X6091D2*
X9021D1*
X10091D2*
X10525D1*
X11837D2*
X12131D1*
X12981D2*
X13525D1*
X14837D2*
X16025D1*
X17337D2*
X19025D1*
X20337D2*
X20756D1*
X30224D2*
X30783D1*
X-26663Y-5069D2*
X-13287D1*
X-8104D2*
X-5846D1*
X-4581D2*
X-4119D1*
X4399D2*
X5439D1*
X5676D2*
X9439D1*
X9676D2*
X10580D1*
X11782D2*
X12131D1*
X13149D2*
X13525D1*
X14837D2*
X16080D1*
X17282D2*
X19025D1*
X20337D2*
X20756D1*
X26231D2*
X26592D1*
X30083D2*
X30783D1*
X-26722Y-5318D2*
X-13537D1*
X-8354D2*
X-6096D1*
X-4726D2*
X-2912D1*
X4649D2*
X10775D1*
X11587D2*
X12221D1*
X13399D2*
X13528D1*
X14837D2*
X16275D1*
X17087D2*
X19025D1*
X20337D2*
X20756D1*
X26231D2*
X26842D1*
X29087D2*
X30783D1*
X-27919Y-5566D2*
X-27713D1*
X-26925D2*
X-19432D1*
X-18956D2*
X-17463D1*
X-16987D2*
X-13783D1*
X-8604D2*
X-6346D1*
X-5163D2*
X-3158D1*
X4896D2*
X12467D1*
X13646D2*
X20756D1*
X26231D2*
X27092D1*
X29200D2*
X30783D1*
X-27919Y-5815D2*
X-27725D1*
X-26913D2*
X-19760D1*
X-18628D2*
X-17791D1*
X-16659D2*
X-14029D1*
X-8851D2*
X-6592D1*
X-5413D2*
X-3408D1*
X5146D2*
X12713D1*
X13896D2*
X20756D1*
X26146D2*
X27338D1*
X29200D2*
X30783D1*
X-26718Y-6064D2*
X-19865D1*
X-18522D2*
X-17897D1*
X-16554D2*
X-14119D1*
X-9101D2*
X-7026D1*
X-5659D2*
X-3658D1*
X9896D2*
X12963D1*
X14146D2*
X20756D1*
X25899D2*
X27635D1*
X29091D2*
X30783D1*
X-26663Y-6312D2*
X-19865D1*
X-18522D2*
X-17901D1*
X-16554D2*
X-14119D1*
X-9351D2*
X-7123D1*
X-5909D2*
X-3904D1*
X10142D2*
X13213D1*
X14392D2*
X20756D1*
X25649D2*
X28029D1*
X29083D2*
X30783D1*
X-26714Y-6561D2*
X-19764D1*
X-18624D2*
X-17795D1*
X-16655D2*
X-14119D1*
X-9644D2*
X-7096D1*
X-6042D2*
X-4154D1*
X11856D2*
X12998D1*
X14642D2*
X16006D1*
X17356D2*
X18498D1*
X18864D2*
X20756D1*
X25403D2*
X27916D1*
X29196D2*
X30783D1*
X-27919Y-6810D2*
X-27736D1*
X-26901D2*
X-19447D1*
X-18940D2*
X-17479D1*
X-16972D2*
X-14119D1*
X-11222D2*
X-6916D1*
X-6222D2*
X-4401D1*
X11856D2*
X12631D1*
X14892D2*
X16006D1*
X17356D2*
X18131D1*
X19231D2*
X20756D1*
X25153D2*
X27912D1*
X29200D2*
X30783D1*
X-27919Y-7058D2*
X-27705D1*
X-26933D2*
X-22826D1*
X-21925D2*
X-14119D1*
X-11472D2*
X-4494D1*
X11856D2*
X12521D1*
X15138D2*
X16006D1*
X17356D2*
X18021D1*
X19341D2*
X20724D1*
X24903D2*
X28017D1*
X29095D2*
X30783D1*
X-26726Y-7307D2*
X-23026D1*
X-21726D2*
X-14119D1*
X-11519D2*
X-10592D1*
X11856D2*
X12517D1*
X13845D2*
X14205D1*
X15388D2*
X16006D1*
X17356D2*
X18017D1*
X19345D2*
X20474D1*
X24657D2*
X28033D1*
X29079D2*
X30783D1*
X-26663Y-7556D2*
X-23088D1*
X-21663D2*
X-14119D1*
X-11519D2*
X-10709D1*
X11856D2*
X12619D1*
X13743D2*
X14455D1*
X15638D2*
X16006D1*
X17356D2*
X18119D1*
X19243D2*
X20224D1*
X24407D2*
X27916D1*
X29196D2*
X30783D1*
X-26706Y-7804D2*
X-23057D1*
X-21690D2*
X-14119D1*
X-11519D2*
X-10713D1*
X11856D2*
X12943D1*
X13419D2*
X14705D1*
X17356D2*
X18443D1*
X18919D2*
X19978D1*
X24157D2*
X27912D1*
X29200D2*
X30783D1*
X-27919Y-8053D2*
X-27756D1*
X-26882D2*
X-22920D1*
X-21831D2*
X-14119D1*
X-11519D2*
X-10611D1*
X10731D2*
X14951D1*
X16134D2*
X19728D1*
X23876D2*
X28014D1*
X29099D2*
X30783D1*
X-27919Y-8302D2*
X-24619D1*
X-23269D2*
X-14119D1*
X-11519D2*
X-10248D1*
X-9890D2*
X-9248D1*
X-8890D2*
X-8494D1*
X10731D2*
X15201D1*
X16384D2*
X19478D1*
X21786D2*
X22037D1*
X23075D2*
X28037D1*
X29075D2*
X30783D1*
X-27919Y-8551D2*
X-24619D1*
X-23269D2*
X-22596D1*
X-21542D2*
X-20475D1*
X-19163D2*
X-17338D1*
X-16300D2*
X-14119D1*
X-11054D2*
X-8416D1*
X10731D2*
X15451D1*
X16630D2*
X19232D1*
X21536D2*
X21916D1*
X23196D2*
X27916D1*
X29196D2*
X30783D1*
X-27919Y-8799D2*
X-24619D1*
X-23269D2*
X-22713D1*
X-21425D2*
X-20475D1*
X-19163D2*
X-17459D1*
X-16179D2*
X-14119D1*
X-10901D2*
X-8178D1*
X10657D2*
X15697D1*
X16731D2*
X18982D1*
X21290D2*
X21912D1*
X23200D2*
X27912D1*
X29200D2*
X30783D1*
X-27919Y-9048D2*
X-24619D1*
X-23269D2*
X-22721D1*
X-21417D2*
X-20475D1*
X-19163D2*
X-17463D1*
X-16175D2*
X-14119D1*
X-10745D2*
X-7928D1*
X10415D2*
X15881D1*
X16731D2*
X18732D1*
X21040D2*
X22014D1*
X23099D2*
X28014D1*
X29099D2*
X30783D1*
X-27919Y-9297D2*
X-24619D1*
X-23269D2*
X-22619D1*
X-21519D2*
X-20475D1*
X-19163D2*
X-17365D1*
X-16272D2*
X-14119D1*
X-10499D2*
X-7678D1*
X10165D2*
X15881D1*
X16731D2*
X18486D1*
X20790D2*
X22041D1*
X23071D2*
X28041D1*
X29071D2*
X30783D1*
X-27919Y-9545D2*
X-24619D1*
X-23269D2*
X-22287D1*
X-21851D2*
X-20475D1*
X-19163D2*
X-17334D1*
X-16304D2*
X-14119D1*
X-10249D2*
X-7432D1*
X9919D2*
X15881D1*
X16731D2*
X18236D1*
X20731D2*
X21920D1*
X23192D2*
X27920D1*
X29192D2*
X30783D1*
X-27919Y-9794D2*
X-26975D1*
X-26272D2*
X-26112D1*
X-25561D2*
X-24604D1*
X-23284D2*
X-20455D1*
X-19183D2*
X-17455D1*
X-16183D2*
X-14119D1*
X-9999D2*
X-7127D1*
X-6011D2*
X-3951D1*
X-1811D2*
X15881D1*
X16731D2*
X17986D1*
X20731D2*
X21908D1*
X23204D2*
X27908D1*
X29204D2*
X30783D1*
X-27919Y-10043D2*
X-27178D1*
X-25327D2*
X-24611D1*
X-23276D2*
X-20467D1*
X-19171D2*
X-17467D1*
X-16171D2*
X-14119D1*
X-9753D2*
X-7080D1*
X-6058D2*
X-4108D1*
X-1655D2*
X-705D1*
X-430D2*
X15881D1*
X16731D2*
X17740D1*
X20731D2*
X22010D1*
X23103D2*
X28010D1*
X29103D2*
X30783D1*
X-27919Y-10291D2*
X-27221D1*
X-25280D2*
X-24518D1*
X-23370D2*
X-20369D1*
X-19269D2*
X-17369D1*
X-16269D2*
X-15244D1*
X-11519D2*
X-11311D1*
X-9644D2*
X-6994D1*
X-6144D2*
X-4119D1*
X-85D2*
X15881D1*
X16731D2*
X17490D1*
X20731D2*
X22045D1*
X23067D2*
X28045D1*
X29067D2*
X30783D1*
X-27919Y-10540D2*
X-27151D1*
X-25358D2*
X-24221D1*
X-23667D2*
X-20330D1*
X-19308D2*
X-17330D1*
X-16308D2*
X-15244D1*
X-11519D2*
X-11061D1*
X-9644D2*
X-6994D1*
X-6144D2*
X-3998D1*
X-11D2*
X15881D1*
X16731D2*
X17240D1*
X20731D2*
X21920D1*
X23192D2*
X27920D1*
X29192D2*
X30783D1*
X-27919Y-10789D2*
X-26873D1*
X-26378D2*
X-25940D1*
X-25734D2*
X-20455D1*
X-19183D2*
X-17455D1*
X-16183D2*
X-15244D1*
X-11519D2*
X-10869D1*
X-9530D2*
X-6994D1*
X-6144D2*
X-3580D1*
X-58D2*
X15881D1*
X16731D2*
X16994D1*
X20731D2*
X21908D1*
X23204D2*
X27908D1*
X29204D2*
X29408D1*
X29954D2*
X30783D1*
X-27919Y-11037D2*
X-20467D1*
X-19171D2*
X-17467D1*
X-16171D2*
X-15244D1*
X-11519D2*
X-10869D1*
X-9519D2*
X-6994D1*
X-6144D2*
X-3346D1*
X-2792D2*
X-846D1*
X-292D2*
X15881D1*
X16731D2*
X16882D1*
X20731D2*
X22006D1*
X23106D2*
X28006D1*
X30192D2*
X30783D1*
X-27919Y-11286D2*
X-20369D1*
X-19269D2*
X-17369D1*
X-16269D2*
X-15244D1*
X-11519D2*
X-10869D1*
X-9636D2*
X-7108D1*
X-6030D2*
X10381D1*
X11731D2*
X15881D1*
X16731D2*
X16882D1*
X20731D2*
X22049D1*
X23064D2*
X28049D1*
X30239D2*
X30783D1*
X-27919Y-11535D2*
X-20326D1*
X-19311D2*
X-17326D1*
X-16311D2*
X-15244D1*
X-11519D2*
X-10869D1*
X-10019D2*
X-7119D1*
X-6019D2*
X10381D1*
X11731D2*
X15881D1*
X16731D2*
X16882D1*
X20731D2*
X21920D1*
X23192D2*
X27920D1*
X30165D2*
X30783D1*
X-27919Y-11783D2*
X-20455D1*
X-19183D2*
X-17455D1*
X-16183D2*
X-15225D1*
X-11519D2*
X-10869D1*
X-10019D2*
X-7006D1*
X-6132D2*
X10381D1*
X11731D2*
X12943D1*
X13669D2*
X13943D1*
X14669D2*
X14943D1*
X15669D2*
X15881D1*
X16731D2*
X16882D1*
X20962D2*
X21908D1*
X23204D2*
X27908D1*
X30106D2*
X30783D1*
X-27919Y-12032D2*
X-20467D1*
X-19171D2*
X-17502D1*
X-16171D2*
X-15236D1*
X-11519D2*
X-10869D1*
X-10019D2*
X10201D1*
X11731D2*
X12717D1*
X20962D2*
X22002D1*
X23110D2*
X28002D1*
X29110D2*
X29257D1*
X30427D2*
X30783D1*
X-27919Y-12281D2*
X-27108D1*
X-25409D2*
X-20373D1*
X-19265D2*
X-17748D1*
X-16265D2*
X-15147D1*
X-11519D2*
X-10869D1*
X-10019D2*
X9951D1*
X11731D2*
X12650D1*
X20962D2*
X22310D1*
X22802D2*
X28310D1*
X28802D2*
X29256D1*
X30591D2*
X30783D1*
X-27919Y-12530D2*
X-27213D1*
X-25288D2*
X-22576D1*
X-21561D2*
X-20069D1*
X-19569D2*
X-17998D1*
X-16569D2*
X-14869D1*
X-14269D2*
X-14118D1*
X-11519D2*
X-10920D1*
X-9968D2*
X9701D1*
X10981D2*
X12689D1*
X20962D2*
X29256D1*
X30610D2*
X30783D1*
X-27919Y-12778D2*
X-27201D1*
X-25304D2*
X-22709D1*
X-17065D2*
X-14119D1*
X-11519D2*
X-11002D1*
X-9886D2*
X9455D1*
X10735D2*
X12853D1*
X20962D2*
X29256D1*
X30497D2*
X30783D1*
X-27919Y-13027D2*
X-27057D1*
X-25464D2*
X-22725D1*
X-17315D2*
X-14119D1*
X-11519D2*
X-10959D1*
X-9929D2*
X9205D1*
X10485D2*
X15377D1*
X20657D2*
X29256D1*
X30481D2*
X30783D1*
X-27919Y-13276D2*
X-22635D1*
X-17573D2*
X-14119D1*
X-11519D2*
X-10744D1*
X10235D2*
X10670D1*
X11442D2*
X15627D1*
X20907D2*
X29146D1*
X30481D2*
X30783D1*
X-27919Y-13524D2*
X-22346D1*
X-21792D2*
X-14119D1*
X-11519D2*
X-10725D1*
X9989D2*
X10451D1*
X11661D2*
X15877D1*
X21153D2*
X21967D1*
X22896D2*
X29127D1*
X30481D2*
X30783D1*
X-27919Y-13773D2*
X-14119D1*
X-11519D2*
X-10725D1*
X9739D2*
X10385D1*
X11728D2*
X20123D1*
X21403D2*
X21799D1*
X23064D2*
X29236D1*
X30481D2*
X30783D1*
X-27919Y-14022D2*
X-22572D1*
X-21565D2*
X-18572D1*
X-17565D2*
X-17369D1*
X-16019D2*
X-15217D1*
X-11519D2*
X-10725D1*
X9493D2*
X10416D1*
X11696D2*
X20373D1*
X23106D2*
X29631D1*
X30481D2*
X30783D1*
X-27919Y-14270D2*
X-26744D1*
X-25394D2*
X-22705D1*
X-21433D2*
X-18705D1*
X-16019D2*
X-15346D1*
X-11519D2*
X-10725D1*
X-8796D2*
X-8342D1*
X-7796D2*
X-7342D1*
X-6796D2*
X-6342D1*
X-5796D2*
X-5342D1*
X-4796D2*
X-4342D1*
X-3796D2*
X-3342D1*
X-2796D2*
X-2342D1*
X-1796D2*
X-1342D1*
X-796D2*
X-342D1*
X204D2*
X658D1*
X1204D2*
X1658D1*
X2204D2*
X2658D1*
X3204D2*
X3658D1*
X4204D2*
X4658D1*
X5204D2*
X5658D1*
X6204D2*
X6658D1*
X7204D2*
X7658D1*
X8204D2*
X8658D1*
X9204D2*
X10568D1*
X11544D2*
X20619D1*
X23048D2*
X29631D1*
X30481D2*
X30783D1*
X-27919Y-14519D2*
X-26744D1*
X-25394D2*
X-22725D1*
X-21413D2*
X-18725D1*
X-16019D2*
X-15365D1*
X-11519D2*
X20869D1*
X22853D2*
X29631D1*
X30481D2*
X30783D1*
X-27919Y-14768D2*
X-26744D1*
X-25394D2*
X-22639D1*
X-21499D2*
X-18639D1*
X-17499D2*
X-17366D1*
X-16019D2*
X-15279D1*
X-11519D2*
X12971D1*
X13642D2*
X13971D1*
X14642D2*
X14971D1*
X15642D2*
X15971D1*
X16642D2*
X16971D1*
X17642D2*
X17971D1*
X18642D2*
X18971D1*
X19642D2*
X19971D1*
X20642D2*
X21119D1*
X22399D2*
X29631D1*
X30481D2*
X30783D1*
X-27919Y-15016D2*
X-26744D1*
X-25394D2*
X-22361D1*
X-21776D2*
X-18361D1*
X-17776D2*
X-17369D1*
X-16019D2*
X-15022D1*
X-14366D2*
X-14119D1*
X-11519D2*
X12728D1*
X20884D2*
X21365D1*
X22646D2*
X29631D1*
X30481D2*
X30783D1*
X-27919Y-15265D2*
X-26744D1*
X-25394D2*
X-14119D1*
X-11519D2*
X12654D1*
X20958D2*
X21615D1*
X22853D2*
X29631D1*
X30481D2*
X30783D1*
X-27919Y-15514D2*
X-26736D1*
X-25401D2*
X-14119D1*
X-11519D2*
X12681D1*
X20931D2*
X21756D1*
X23106D2*
X29631D1*
X30481D2*
X30783D1*
X-27919Y-15762D2*
X-26725D1*
X-25413D2*
X-14119D1*
X-11519D2*
X12838D1*
X20774D2*
X21756D1*
X23106D2*
X29631D1*
X30481D2*
X30783D1*
X-27919Y-16011D2*
X-26600D1*
X-25538D2*
X-14119D1*
X-11519D2*
X21756D1*
X23106D2*
X29631D1*
X30481D2*
X30783D1*
X-27919Y-16260D2*
X-14119D1*
X-11519D2*
X21756D1*
X23106D2*
X29529D1*
X30583D2*
X30783D1*
X-27919Y-16509D2*
X-20178D1*
X-19327D2*
X-17619D1*
X-16769D2*
X-14119D1*
X-11519D2*
X-1033D1*
X10146D2*
X21756D1*
X23106D2*
X29502D1*
X30610D2*
X30783D1*
X-27919Y-16757D2*
X-20381D1*
X-19124D2*
X-17822D1*
X-16565D2*
X-14119D1*
X-11519D2*
X-1127D1*
X10239D2*
X14592D1*
X15271D2*
X29599D1*
X30513D2*
X30783D1*
X-27919Y-17006D2*
X-20447D1*
X-19061D2*
X-17889D1*
X-16499D2*
X-14119D1*
X-9792D2*
X-2475D1*
X15458D2*
X30783D1*
X-27919Y-17255D2*
X-20412D1*
X-19093D2*
X-17854D1*
X-16534D2*
X-14119D1*
X-9257D2*
X-8881D1*
X-8257D2*
X-7881D1*
X-7257D2*
X-6881D1*
X-6257D2*
X-5881D1*
X-5257D2*
X-4881D1*
X-4257D2*
X-3881D1*
X-3257D2*
X-2881D1*
X15485D2*
X30783D1*
X-27919Y-17503D2*
X-23748D1*
X-21909D2*
X-20264D1*
X-19241D2*
X-17705D1*
X-16683D2*
X-14119D1*
X15392D2*
X30783D1*
X-27919Y-17752D2*
X-23873D1*
X-21776D2*
X-20178D1*
X-19292D2*
X-14119D1*
X14083D2*
X30783D1*
X-27919Y-18001D2*
X-23877D1*
X-21761D2*
X-20158D1*
X-19042D2*
X-14119D1*
X14060D2*
X30783D1*
X-27919Y-18249D2*
X-23877D1*
X-21761D2*
X-20135D1*
X-18796D2*
X-17889D1*
X-16499D2*
X-14119D1*
X13915D2*
X30783D1*
X-27919Y-18498D2*
X-23846D1*
X-21815D2*
X-21143D1*
X-20495D2*
X-20366D1*
X-18546D2*
X-17889D1*
X-16499D2*
X-14119D1*
X14001D2*
X30783D1*
X-27919Y-18747D2*
X-23615D1*
X-22073D2*
X-21342D1*
X-18296D2*
X-17889D1*
X-16499D2*
X-14119D1*
X14083D2*
X30783D1*
X-27919Y-18995D2*
X-27592D1*
X-26546D2*
X-21377D1*
X-18050D2*
X-17889D1*
X-16499D2*
X-14119D1*
X14060D2*
X29408D1*
X30454D2*
X30783D1*
X-26272Y-19244D2*
X-21283D1*
X-16499D2*
X-14119D1*
X13919D2*
X29135D1*
X-26140Y-19493D2*
X-20858D1*
X-17550D2*
X-14119D1*
X5345D2*
X29002D1*
X-26089Y-19741D2*
X-20608D1*
X-17304D2*
X-14115D1*
X5360D2*
X28951D1*
X-26101Y-19990D2*
X-20361D1*
X-17054D2*
X-13986D1*
X5337D2*
X28963D1*
X-26183Y-20239D2*
X-20111D1*
X-16804D2*
X-13736D1*
X5157D2*
X29045D1*
X-26358Y-20488D2*
X-19861D1*
X4724D2*
X29221D1*
X-26208Y-13010D2*
X-26259Y-13064D1*
X-26363Y-13133D1*
X-26479Y-13177D1*
X-26603Y-13196D1*
X-26727Y-13187D1*
X-26847Y-13151D1*
X-26956Y-13091D1*
X-27049Y-13008D1*
X-27122Y-12907D1*
X-27171Y-12792D1*
X-27194Y-12670D1*
X-27191Y-12545D1*
X-27160Y-12424D1*
X-27103Y-12313D1*
X-27024Y-12216D1*
X-26926Y-12139D1*
X-26813Y-12086D1*
X-26692Y-12058D1*
X-26567Y-12057D1*
X-26445Y-12083D1*
X-26332Y-12135D1*
X-26232Y-12210D1*
X-26204Y-12243D1*
X-26084Y-12154D1*
X-25968Y-12109D1*
X-25844Y-12093D1*
X-25720Y-12106D1*
X-25602Y-12148D1*
X-25498Y-12216D1*
X-25412Y-12306D1*
X-25349Y-12414D1*
X-25314Y-12534D1*
X-25306Y-12625D1*
X-25320Y-12749D1*
X-25363Y-12866D1*
X-25433Y-12970D1*
X-25524Y-13055D1*
X-25633Y-13116D1*
X-25753Y-13150D1*
X-25877Y-13155D1*
X-26000Y-13132D1*
X-26113Y-13080D1*
X-26202Y-13010D1*
X-26203Y-10648D2*
X-26299Y-10732D1*
X-26408Y-10791D1*
X-26528Y-10826D1*
X-26653Y-10833D1*
X-26776Y-10814D1*
X-26892Y-10768D1*
X-26995Y-10698D1*
X-27081Y-10607D1*
X-27145Y-10500D1*
X-27184Y-10381D1*
X-27196Y-10257D1*
X-27181Y-10133D1*
X-27140Y-10016D1*
X-27074Y-9910D1*
X-26987Y-9821D1*
X-26882Y-9753D1*
X-26765Y-9709D1*
X-26642Y-9692D1*
X-26517Y-9702D1*
X-26398Y-9739D1*
X-26290Y-9800D1*
X-26203Y-9878D1*
X-26084Y-9792D1*
X-25968Y-9747D1*
X-25844Y-9731D1*
X-25720Y-9744D1*
X-25602Y-9786D1*
X-25498Y-9854D1*
X-25412Y-9944D1*
X-25349Y-10052D1*
X-25314Y-10172D1*
X-25306Y-10263D1*
X-25320Y-10387D1*
X-25363Y-10504D1*
X-25433Y-10607D1*
X-25524Y-10692D1*
X-25633Y-10754D1*
X-25753Y-10788D1*
X-25877Y-10793D1*
X-26000Y-10769D1*
X-26113Y-10718D1*
X-26202Y-10648D1*
X-23294Y-9966D2*
X-23311Y-10090D1*
X-23351Y-10208D1*
X-23413Y-10316D1*
X-23495Y-10411D1*
X-23593Y-10488D1*
X-23704Y-10545D1*
X-23824Y-10580D1*
X-23948Y-10591D1*
X-24072Y-10578D1*
X-24192Y-10542D1*
X-24302Y-10483D1*
X-24399Y-10405D1*
X-24479Y-10310D1*
X-24540Y-10200D1*
X-24578Y-10082D1*
X-24594Y-9958D1*
X-24585Y-9833D1*
X-24553Y-9713D1*
X-24491Y-9591D1*
X-24594D1*
Y-8291D1*
X-23294D1*
Y-9591D1*
X-23399D1*
X-23355Y-9666D1*
X-23313Y-9784D1*
X-23295Y-9907D1*
X-23294Y-9966D1*
X11706Y-13841D2*
X11689Y-13965D1*
X11649Y-14083D1*
X11587Y-14191D1*
X11505Y-14286D1*
X11407Y-14363D1*
X11296Y-14420D1*
X11176Y-14455D1*
X11052Y-14466D1*
X10928Y-14453D1*
X10808Y-14417D1*
X10698Y-14358D1*
X10601Y-14280D1*
X10521Y-14185D1*
X10460Y-14075D1*
X10422Y-13957D1*
X10406Y-13833D1*
X10415Y-13708D1*
X10447Y-13588D1*
X10502Y-13476D1*
X10578Y-13376D1*
X10670Y-13293D1*
X10778Y-13229D1*
X10895Y-13186D1*
X11018Y-13167D1*
X11143Y-13172D1*
X11264Y-13200D1*
X11378Y-13251D1*
X11480Y-13323D1*
X11567Y-13414D1*
X11634Y-13519D1*
X11680Y-13635D1*
X11703Y-13757D1*
X11706Y-13841D1*
X-17219Y-13791D2*
X-16044D1*
Y-15091D1*
X-17344D1*
Y-13791D1*
X-17219D1*
X6393Y4659D2*
X6376Y4535D1*
X6336Y4417D1*
X6274Y4309D1*
X6193Y4214D1*
X6095Y4137D1*
X5984Y4080D1*
X5864Y4045D1*
X5740Y4034D1*
X5615Y4047D1*
X5496Y4083D1*
X5386Y4142D1*
X5289Y4220D1*
X5208Y4315D1*
X5148Y4425D1*
X5109Y4543D1*
X5094Y4667D1*
X5103Y4792D1*
X5135Y4912D1*
X5190Y5024D1*
X5265Y5124D1*
X5358Y5207D1*
X5465Y5271D1*
X5582Y5314D1*
X5706Y5333D1*
X5830Y5328D1*
X5952Y5300D1*
X6066Y5249D1*
X6168Y5177D1*
X6254Y5086D1*
X6322Y4981D1*
X6368Y4865D1*
X6391Y4743D1*
X6393Y4659D1*
X5219Y3334D2*
X6394D1*
Y2034D1*
X5094D1*
Y3334D1*
X5219D1*
X-19294Y7534D2*
X-19311Y7410D1*
X-19351Y7292D1*
X-19413Y7184D1*
X-19495Y7089D1*
X-19593Y7012D1*
X-19704Y6955D1*
X-19824Y6920D1*
X-19948Y6909D1*
X-20072Y6922D1*
X-20192Y6958D1*
X-20302Y7017D1*
X-20399Y7095D1*
X-20479Y7190D1*
X-20540Y7300D1*
X-20578Y7418D1*
X-20594Y7542D1*
X-20585Y7667D1*
X-20553Y7787D1*
X-20498Y7899D1*
X-20422Y7999D1*
X-20330Y8082D1*
X-20222Y8146D1*
X-20105Y8189D1*
X-19982Y8208D1*
X-19857Y8203D1*
X-19736Y8175D1*
X-19622Y8124D1*
X-19520Y8052D1*
X-19433Y7961D1*
X-19366Y7856D1*
X-19320Y7740D1*
X-19297Y7618D1*
X-19294Y7534D1*
X-20469Y6209D2*
X-19294D1*
Y4909D1*
X-20594D1*
Y6209D1*
X-20469D1*
X13831Y-7216D2*
X13814Y-7340D1*
X13774Y-7458D1*
X13712Y-7566D1*
X13630Y-7661D1*
X13532Y-7738D1*
X13421Y-7795D1*
X13301Y-7830D1*
X13177Y-7841D1*
X13053Y-7828D1*
X12933Y-7792D1*
X12823Y-7733D1*
X12726Y-7655D1*
X12646Y-7560D1*
X12585Y-7450D1*
X12547Y-7332D1*
X12531Y-7208D1*
X12540Y-7083D1*
X12572Y-6963D1*
X12627Y-6851D1*
X12703Y-6751D1*
X12795Y-6668D1*
X12903Y-6604D1*
X13020Y-6561D1*
X13143Y-6542D1*
X13268Y-6547D1*
X13389Y-6575D1*
X13503Y-6626D1*
X13605Y-6698D1*
X13692Y-6789D1*
X13759Y-6894D1*
X13805Y-7010D1*
X13828Y-7132D1*
X13831Y-7216D1*
X10531Y-6728D2*
Y-6541D1*
X11831D1*
Y-7841D1*
X10702D1*
X10706Y-8566D1*
X10687Y-8689D1*
X10628Y-8803D1*
X10412Y-9026D1*
X9839Y-9599D1*
X9738Y-9672D1*
X9616Y-9711D1*
X9306Y-9716D1*
X-1948D1*
X-1865Y-9769D1*
X-1776Y-9856D1*
X-1710Y-9962D1*
X-1670Y-10080D1*
X-1661Y-10167D1*
X-924Y-10166D1*
X-829Y-10098D1*
X-713Y-10051D1*
X-590Y-10031D1*
X-466Y-10041D1*
X-347Y-10079D1*
X-240Y-10144D1*
X-151Y-10231D1*
X-85Y-10337D1*
X-45Y-10455D1*
X-34Y-10566D1*
X-48Y-10690D1*
X-91Y-10807D1*
X-160Y-10911D1*
X-251Y-10996D1*
X-359Y-11058D1*
X-479Y-11093D1*
X-603Y-11100D1*
X-726Y-11077D1*
X-840Y-11027D1*
X-918Y-10968D1*
X-2444Y-10966D1*
X-2713D1*
X-2859Y-11058D1*
X-2979Y-11093D1*
X-3103Y-11100D1*
X-3226Y-11077D1*
X-3340Y-11027D1*
X-3440Y-10952D1*
X-3519Y-10855D1*
X-3578Y-10724D1*
X-3726Y-10702D1*
X-3840Y-10652D1*
X-3940Y-10577D1*
X-4019Y-10480D1*
X-4074Y-10368D1*
X-4101Y-10247D1*
X-4099Y-10122D1*
X-4069Y-10001D1*
X-4011Y-9890D1*
X-3930Y-9796D1*
X-3811Y-9716D1*
X-6042D1*
X-6034Y-9816D1*
X-6048Y-9940D1*
X-6091Y-10057D1*
X-6169Y-10169D1*
Y-11085D1*
X-6085Y-11212D1*
X-6045Y-11330D1*
X-6034Y-11441D1*
X-6048Y-11565D1*
X-6091Y-11682D1*
X-6160Y-11786D1*
X-6251Y-11871D1*
X-6359Y-11933D1*
X-6479Y-11968D1*
X-6603Y-11975D1*
X-6726Y-11952D1*
X-6840Y-11902D1*
X-6940Y-11827D1*
X-7019Y-11730D1*
X-7074Y-11618D1*
X-7101Y-11497D1*
X-7099Y-11372D1*
X-7069Y-11251D1*
X-7011Y-11140D1*
X-6968Y-11090D1*
X-6969Y-10171D1*
X-7019Y-10105D1*
X-7074Y-9993D1*
X-7101Y-9872D1*
X-7099Y-9747D1*
X-7091Y-9713D1*
X-7126Y-9712D1*
X-7245Y-9675D1*
X-7352Y-9599D1*
X-8352Y-8599D1*
X-8425Y-8498D1*
X-8464Y-8376D1*
X-8469Y-8179D1*
X-8566Y-8074D1*
X-8627Y-8140D1*
X-8724Y-8218D1*
X-8835Y-8276D1*
X-8955Y-8311D1*
X-9079Y-8321D1*
X-9203Y-8307D1*
X-9322Y-8268D1*
X-9430Y-8207D1*
X-9525Y-8126D1*
X-9566Y-8074D1*
X-9627Y-8140D1*
X-9724Y-8218D1*
X-9835Y-8276D1*
X-9955Y-8311D1*
X-10079Y-8321D1*
X-10203Y-8307D1*
X-10322Y-8268D1*
X-10430Y-8207D1*
X-10525Y-8126D1*
X-10602Y-8028D1*
X-10658Y-7916D1*
X-10690Y-7796D1*
X-10699Y-7671D1*
X-10683Y-7547D1*
X-10642Y-7429D1*
X-10579Y-7321D1*
X-10497Y-7228D1*
X-10397Y-7153D1*
X-10285Y-7099D1*
X-10164Y-7068D1*
X-10039Y-7061D1*
X-9916Y-7080D1*
X-9798Y-7122D1*
X-9691Y-7186D1*
X-9599Y-7271D1*
X-9569Y-7312D1*
X-9497Y-7228D1*
X-9397Y-7153D1*
X-9285Y-7099D1*
X-9164Y-7068D1*
X-9039Y-7061D1*
X-8916Y-7080D1*
X-8798Y-7122D1*
X-8691Y-7186D1*
X-8599Y-7271D1*
X-8569Y-7312D1*
X-8497Y-7228D1*
X-8397Y-7153D1*
X-8285Y-7099D1*
X-8164Y-7068D1*
X-8039Y-7061D1*
X-7916Y-7080D1*
X-7798Y-7122D1*
X-7691Y-7186D1*
X-7599Y-7271D1*
X-7569Y-7312D1*
X-7497Y-7228D1*
X-7397Y-7153D1*
X-7285Y-7099D1*
X-7164Y-7068D1*
X-7039Y-7061D1*
X-6916Y-7080D1*
X-6798Y-7122D1*
X-6691Y-7186D1*
X-6599Y-7271D1*
X-6569Y-7312D1*
X-6497Y-7228D1*
X-6397Y-7153D1*
X-6285Y-7099D1*
X-6164Y-7068D1*
X-6039Y-7061D1*
X-5916Y-7080D1*
X-5798Y-7122D1*
X-5691Y-7186D1*
X-5599Y-7271D1*
X-5569Y-7312D1*
X-5497Y-7228D1*
X-5397Y-7153D1*
X-5285Y-7099D1*
X-5164Y-7068D1*
X-5039Y-7061D1*
X-4916Y-7080D1*
X-4798Y-7122D1*
X-4691Y-7186D1*
X-4599Y-7271D1*
X-4569Y-7312D1*
X-4469Y-7207D1*
Y-7066D1*
X-4450Y-6943D1*
X-4391Y-6829D1*
X-4175Y-6606D1*
X-2471Y-4902D1*
X-2469Y-4804D1*
X-2525Y-4751D1*
X-2602Y-4653D1*
X-2658Y-4541D1*
X-2690Y-4421D1*
X-2699Y-4296D1*
X-2693Y-4253D1*
X-2794Y-4154D1*
Y-5091D1*
X-4094D1*
Y-3791D1*
X-3082D1*
X-3094Y-3691D1*
X-3093Y-2988D1*
X-3204Y-3045D1*
X-3324Y-3080D1*
X-3448Y-3091D1*
X-3572Y-3078D1*
X-3692Y-3042D1*
X-3802Y-2983D1*
X-3899Y-2905D1*
X-3979Y-2810D1*
X-4040Y-2700D1*
X-4078Y-2582D1*
X-4094Y-2458D1*
X-4085Y-2333D1*
X-4053Y-2213D1*
X-3998Y-2101D1*
X-3922Y-2001D1*
X-3830Y-1918D1*
X-3722Y-1854D1*
X-3605Y-1811D1*
X-3529Y-1797D1*
X-3852Y-1474D1*
X-3925Y-1373D1*
X-3964Y-1251D1*
X-3969Y-941D1*
Y6016D1*
X-4109Y6158D1*
X-4463Y6159D1*
X-4454Y6059D1*
X-4467Y5935D1*
X-4503Y5816D1*
X-4563Y5706D1*
X-4643Y5610D1*
X-4706Y5558D1*
X-4615Y5479D1*
X-4541Y5379D1*
X-4489Y5265D1*
X-4460Y5144D1*
X-4454Y5059D1*
X-4467Y4935D1*
X-4503Y4816D1*
X-4563Y4706D1*
X-4643Y4610D1*
X-4706Y4558D1*
X-4615Y4479D1*
X-4541Y4379D1*
X-4489Y4265D1*
X-4460Y4144D1*
X-4454Y4059D1*
X-4467Y3935D1*
X-4503Y3816D1*
X-4563Y3706D1*
X-4643Y3610D1*
X-4706Y3558D1*
X-4615Y3479D1*
X-4541Y3379D1*
X-4489Y3265D1*
X-4460Y3144D1*
X-4454Y3059D1*
X-4467Y2935D1*
X-4503Y2816D1*
X-4563Y2706D1*
X-4643Y2610D1*
X-4706Y2558D1*
X-4615Y2479D1*
X-4541Y2379D1*
X-4489Y2265D1*
X-4460Y2144D1*
X-4454Y2059D1*
X-4467Y1935D1*
X-4503Y1816D1*
X-4563Y1706D1*
X-4643Y1610D1*
X-4706Y1558D1*
X-4615Y1479D1*
X-4541Y1379D1*
X-4489Y1265D1*
X-4460Y1144D1*
Y1001D1*
X-4161Y701D1*
X-4088Y600D1*
X-4049Y478D1*
X-4044Y168D1*
Y-1066D1*
X-4063Y-1189D1*
X-4122Y-1303D1*
X-4338Y-1526D1*
X-4506Y-1694D1*
X-4475Y-1783D1*
X-4455Y-1906D1*
X-4462Y-2041D1*
X-4494Y-2161D1*
X-4549Y-2273D1*
X-4625Y-2372D1*
X-4701Y-2441D1*
X-4615Y-2521D1*
X-4541Y-2621D1*
X-4489Y-2735D1*
X-4460Y-2856D1*
X-4456Y-2991D1*
X-4479Y-3114D1*
X-4524Y-3230D1*
X-4592Y-3334D1*
X-4680Y-3424D1*
X-4701Y-3441D1*
X-4615Y-3521D1*
X-4541Y-3621D1*
X-4489Y-3735D1*
X-4460Y-3856D1*
X-4454Y-3941D1*
X-4467Y-4065D1*
X-4503Y-4184D1*
X-4563Y-4294D1*
X-4643Y-4390D1*
X-4740Y-4468D1*
X-4812Y-4506D1*
X-4708Y-4603D1*
X-4641Y-4709D1*
X-4602Y-4827D1*
X-4590Y-4937D1*
X-4605Y-5061D1*
X-4647Y-5178D1*
X-4716Y-5283D1*
X-4807Y-5368D1*
X-4915Y-5430D1*
X-5035Y-5465D1*
X-5093Y-5468D1*
X-5726Y-6104D1*
X-6033Y-6411D1*
X-6048Y-6505D1*
X-6091Y-6622D1*
X-6160Y-6726D1*
X-6251Y-6812D1*
X-6359Y-6874D1*
X-6479Y-6909D1*
X-6603Y-6915D1*
X-6726Y-6893D1*
X-6840Y-6842D1*
X-6940Y-6767D1*
X-7019Y-6671D1*
X-7074Y-6559D1*
X-7101Y-6437D1*
X-7099Y-6312D1*
X-7069Y-6191D1*
X-7011Y-6081D1*
X-6930Y-5986D1*
X-6829Y-5914D1*
X-6713Y-5866D1*
X-6602Y-5849D1*
X-5661Y-4908D1*
X-5625Y-4747D1*
X-5568Y-4637D1*
X-5486Y-4543D1*
X-5407Y-4486D1*
X-5541Y-4376D1*
X-5618Y-4278D1*
X-5673Y-4166D1*
X-5706Y-4046D1*
X-5715Y-3921D1*
X-5698Y-3797D1*
X-5658Y-3679D1*
X-5595Y-3571D1*
X-5512Y-3478D1*
X-5466Y-3443D1*
X-5558Y-3357D1*
X-5630Y-3256D1*
X-5682Y-3142D1*
X-5710Y-3021D1*
X-5713Y-2896D1*
X-5692Y-2773D1*
X-5647Y-2657D1*
X-5580Y-2551D1*
X-5494Y-2461D1*
X-5469Y-2441D1*
X-5558Y-2357D1*
X-5630Y-2256D1*
X-5682Y-2142D1*
X-5710Y-2022D1*
X-5917Y-2229D1*
X-5919Y-2691D1*
X-5938Y-2814D1*
X-5997Y-2928D1*
X-6213Y-3151D1*
X-9536Y-6474D1*
X-9637Y-6547D1*
X-9759Y-6586D1*
X-10069Y-6591D1*
X-11026D1*
X-11544Y-7106D1*
Y-8414D1*
X-11465Y-8406D1*
X-11341Y-8416D1*
X-11222Y-8454D1*
X-11115Y-8519D1*
X-11026Y-8606D1*
X-10960Y-8712D1*
X-10920Y-8830D1*
X-10912Y-8910D1*
X-9786Y-10033D1*
X-9713Y-10134D1*
X-9674Y-10256D1*
X-9669Y-10566D1*
Y-10585D1*
X-9585Y-10712D1*
X-9545Y-10830D1*
X-9534Y-10941D1*
X-9548Y-11065D1*
X-9591Y-11182D1*
X-9660Y-11286D1*
X-9751Y-11371D1*
X-9859Y-11433D1*
X-9979Y-11468D1*
X-10045Y-11472D1*
X-10044Y-12460D1*
X-9960Y-12587D1*
X-9920Y-12705D1*
X-9909Y-12816D1*
X-9923Y-12940D1*
X-9968Y-13060D1*
X-9439Y-13061D1*
Y-13180D1*
X-9285Y-13099D1*
X-9164Y-13068D1*
X-9039Y-13061D1*
X-8916Y-13080D1*
X-8798Y-13122D1*
X-8691Y-13186D1*
X-8599Y-13271D1*
X-8569Y-13312D1*
X-8497Y-13228D1*
X-8397Y-13153D1*
X-8285Y-13099D1*
X-8164Y-13068D1*
X-8039Y-13061D1*
X-7916Y-13080D1*
X-7798Y-13122D1*
X-7691Y-13186D1*
X-7599Y-13271D1*
X-7569Y-13312D1*
X-7497Y-13228D1*
X-7397Y-13153D1*
X-7285Y-13099D1*
X-7164Y-13068D1*
X-7039Y-13061D1*
X-6916Y-13080D1*
X-6798Y-13122D1*
X-6691Y-13186D1*
X-6599Y-13271D1*
X-6569Y-13312D1*
X-6497Y-13228D1*
X-6397Y-13153D1*
X-6285Y-13099D1*
X-6164Y-13068D1*
X-6039Y-13061D1*
X-5916Y-13080D1*
X-5798Y-13122D1*
X-5691Y-13186D1*
X-5599Y-13271D1*
X-5569Y-13312D1*
X-5497Y-13228D1*
X-5397Y-13153D1*
X-5285Y-13099D1*
X-5164Y-13068D1*
X-5039Y-13061D1*
X-4916Y-13080D1*
X-4798Y-13122D1*
X-4691Y-13186D1*
X-4599Y-13271D1*
X-4569Y-13312D1*
X-4497Y-13228D1*
X-4397Y-13153D1*
X-4285Y-13099D1*
X-4164Y-13068D1*
X-4039Y-13061D1*
X-3916Y-13080D1*
X-3798Y-13122D1*
X-3691Y-13186D1*
X-3599Y-13271D1*
X-3569Y-13312D1*
X-3497Y-13228D1*
X-3397Y-13153D1*
X-3285Y-13099D1*
X-3164Y-13068D1*
X-3039Y-13061D1*
X-2916Y-13080D1*
X-2798Y-13122D1*
X-2691Y-13186D1*
X-2599Y-13271D1*
X-2569Y-13312D1*
X-2497Y-13228D1*
X-2397Y-13153D1*
X-2285Y-13099D1*
X-2164Y-13068D1*
X-2039Y-13061D1*
X-1916Y-13080D1*
X-1798Y-13122D1*
X-1691Y-13186D1*
X-1599Y-13271D1*
X-1569Y-13312D1*
X-1497Y-13228D1*
X-1397Y-13153D1*
X-1285Y-13099D1*
X-1164Y-13068D1*
X-1039Y-13061D1*
X-916Y-13080D1*
X-798Y-13122D1*
X-691Y-13186D1*
X-599Y-13271D1*
X-569Y-13312D1*
X-497Y-13228D1*
X-397Y-13153D1*
X-285Y-13099D1*
X-164Y-13068D1*
X-39Y-13061D1*
X84Y-13080D1*
X202Y-13122D1*
X309Y-13186D1*
X401Y-13271D1*
X431Y-13312D1*
X503Y-13228D1*
X603Y-13153D1*
X715Y-13099D1*
X836Y-13068D1*
X961Y-13061D1*
X1084Y-13080D1*
X1202Y-13122D1*
X1309Y-13186D1*
X1401Y-13271D1*
X1431Y-13312D1*
X1503Y-13228D1*
X1603Y-13153D1*
X1715Y-13099D1*
X1836Y-13068D1*
X1961Y-13061D1*
X2084Y-13080D1*
X2202Y-13122D1*
X2309Y-13186D1*
X2401Y-13271D1*
X2431Y-13312D1*
X2503Y-13228D1*
X2603Y-13153D1*
X2715Y-13099D1*
X2836Y-13068D1*
X2961Y-13061D1*
X3084Y-13080D1*
X3202Y-13122D1*
X3309Y-13186D1*
X3401Y-13271D1*
X3431Y-13312D1*
X3503Y-13228D1*
X3603Y-13153D1*
X3715Y-13099D1*
X3836Y-13068D1*
X3961Y-13061D1*
X4084Y-13080D1*
X4202Y-13122D1*
X4309Y-13186D1*
X4401Y-13271D1*
X4431Y-13312D1*
X4503Y-13228D1*
X4603Y-13153D1*
X4715Y-13099D1*
X4836Y-13068D1*
X4961Y-13061D1*
X5084Y-13080D1*
X5202Y-13122D1*
X5309Y-13186D1*
X5401Y-13271D1*
X5431Y-13312D1*
X5503Y-13228D1*
X5603Y-13153D1*
X5715Y-13099D1*
X5836Y-13068D1*
X5961Y-13061D1*
X6084Y-13080D1*
X6202Y-13122D1*
X6309Y-13186D1*
X6401Y-13271D1*
X6431Y-13312D1*
X6503Y-13228D1*
X6603Y-13153D1*
X6715Y-13099D1*
X6836Y-13068D1*
X6961Y-13061D1*
X7084Y-13080D1*
X7202Y-13122D1*
X7309Y-13186D1*
X7401Y-13271D1*
X7431Y-13312D1*
X7503Y-13228D1*
X7603Y-13153D1*
X7715Y-13099D1*
X7836Y-13068D1*
X7961Y-13061D1*
X8084Y-13080D1*
X8202Y-13122D1*
X8309Y-13186D1*
X8401Y-13271D1*
X8431Y-13312D1*
X8503Y-13228D1*
X8603Y-13153D1*
X8715Y-13099D1*
X8836Y-13068D1*
X8961Y-13061D1*
X9084Y-13080D1*
X9154Y-13105D1*
X10406Y-11853D1*
Y-11166D1*
X11706D1*
Y-12466D1*
X11022D1*
X9486Y-14001D1*
X9373Y-14140D1*
X9276Y-14218D1*
X9165Y-14276D1*
X9045Y-14311D1*
X8921Y-14321D1*
X8797Y-14307D1*
X8678Y-14268D1*
X8570Y-14207D1*
X8475Y-14126D1*
X8434Y-14074D1*
X8373Y-14140D1*
X8276Y-14218D1*
X8165Y-14276D1*
X8045Y-14311D1*
X7921Y-14321D1*
X7797Y-14307D1*
X7678Y-14268D1*
X7570Y-14207D1*
X7475Y-14126D1*
X7434Y-14074D1*
X7373Y-14140D1*
X7276Y-14218D1*
X7165Y-14276D1*
X7045Y-14311D1*
X6921Y-14321D1*
X6797Y-14307D1*
X6678Y-14268D1*
X6570Y-14207D1*
X6475Y-14126D1*
X6434Y-14074D1*
X6373Y-14140D1*
X6276Y-14218D1*
X6165Y-14276D1*
X6045Y-14311D1*
X5921Y-14321D1*
X5797Y-14307D1*
X5678Y-14268D1*
X5570Y-14207D1*
X5475Y-14126D1*
X5434Y-14074D1*
X5373Y-14140D1*
X5276Y-14218D1*
X5165Y-14276D1*
X5045Y-14311D1*
X4921Y-14321D1*
X4797Y-14307D1*
X4678Y-14268D1*
X4570Y-14207D1*
X4475Y-14126D1*
X4434Y-14074D1*
X4373Y-14140D1*
X4276Y-14218D1*
X4165Y-14276D1*
X4045Y-14311D1*
X3921Y-14321D1*
X3797Y-14307D1*
X3678Y-14268D1*
X3570Y-14207D1*
X3475Y-14126D1*
X3434Y-14074D1*
X3373Y-14140D1*
X3276Y-14218D1*
X3165Y-14276D1*
X3045Y-14311D1*
X2921Y-14321D1*
X2797Y-14307D1*
X2678Y-14268D1*
X2570Y-14207D1*
X2475Y-14126D1*
X2434Y-14074D1*
X2373Y-14140D1*
X2276Y-14218D1*
X2165Y-14276D1*
X2045Y-14311D1*
X1921Y-14321D1*
X1797Y-14307D1*
X1678Y-14268D1*
X1570Y-14207D1*
X1475Y-14126D1*
X1434Y-14074D1*
X1373Y-14140D1*
X1276Y-14218D1*
X1165Y-14276D1*
X1045Y-14311D1*
X921Y-14321D1*
X797Y-14307D1*
X678Y-14268D1*
X570Y-14207D1*
X475Y-14126D1*
X434Y-14074D1*
X373Y-14140D1*
X276Y-14218D1*
X165Y-14276D1*
X45Y-14311D1*
X-79Y-14321D1*
X-203Y-14307D1*
X-322Y-14268D1*
X-430Y-14207D1*
X-525Y-14126D1*
X-566Y-14074D1*
X-627Y-14140D1*
X-724Y-14218D1*
X-835Y-14276D1*
X-955Y-14311D1*
X-1079Y-14321D1*
X-1203Y-14307D1*
X-1322Y-14268D1*
X-1430Y-14207D1*
X-1525Y-14126D1*
X-1566Y-14074D1*
X-1627Y-14140D1*
X-1724Y-14218D1*
X-1835Y-14276D1*
X-1955Y-14311D1*
X-2079Y-14321D1*
X-2203Y-14307D1*
X-2322Y-14268D1*
X-2430Y-14207D1*
X-2525Y-14126D1*
X-2566Y-14074D1*
X-2627Y-14140D1*
X-2724Y-14218D1*
X-2835Y-14276D1*
X-2955Y-14311D1*
X-3079Y-14321D1*
X-3203Y-14307D1*
X-3322Y-14268D1*
X-3430Y-14207D1*
X-3525Y-14126D1*
X-3566Y-14074D1*
X-3627Y-14140D1*
X-3724Y-14218D1*
X-3835Y-14276D1*
X-3955Y-14311D1*
X-4079Y-14321D1*
X-4203Y-14307D1*
X-4322Y-14268D1*
X-4430Y-14207D1*
X-4525Y-14126D1*
X-4566Y-14074D1*
X-4627Y-14140D1*
X-4724Y-14218D1*
X-4835Y-14276D1*
X-4955Y-14311D1*
X-5079Y-14321D1*
X-5203Y-14307D1*
X-5322Y-14268D1*
X-5430Y-14207D1*
X-5525Y-14126D1*
X-5566Y-14074D1*
X-5627Y-14140D1*
X-5724Y-14218D1*
X-5835Y-14276D1*
X-5955Y-14311D1*
X-6079Y-14321D1*
X-6203Y-14307D1*
X-6322Y-14268D1*
X-6430Y-14207D1*
X-6525Y-14126D1*
X-6566Y-14074D1*
X-6627Y-14140D1*
X-6724Y-14218D1*
X-6835Y-14276D1*
X-6955Y-14311D1*
X-7079Y-14321D1*
X-7203Y-14307D1*
X-7322Y-14268D1*
X-7430Y-14207D1*
X-7525Y-14126D1*
X-7566Y-14074D1*
X-7627Y-14140D1*
X-7724Y-14218D1*
X-7835Y-14276D1*
X-7955Y-14311D1*
X-8079Y-14321D1*
X-8203Y-14307D1*
X-8322Y-14268D1*
X-8430Y-14207D1*
X-8525Y-14126D1*
X-8566Y-14074D1*
X-8627Y-14140D1*
X-8724Y-14218D1*
X-8835Y-14276D1*
X-8955Y-14311D1*
X-9079Y-14321D1*
X-9203Y-14307D1*
X-9322Y-14268D1*
X-9439Y-14200D1*
Y-14321D1*
X-10699D1*
Y-13286D1*
X-10815Y-13202D1*
X-10894Y-13105D1*
X-10949Y-12993D1*
X-10976Y-12872D1*
X-10974Y-12747D1*
X-10944Y-12626D1*
X-10886Y-12515D1*
X-10843Y-12465D1*
X-10844Y-10734D1*
X-11542Y-10034D1*
X-11544Y-11441D1*
Y-16773D1*
X-11404Y-16915D1*
X-10069Y-16916D1*
X-9946Y-16935D1*
X-9832Y-16994D1*
X-9629Y-17191D1*
X-9539Y-17186D1*
X-9416Y-17205D1*
X-9298Y-17247D1*
X-9191Y-17311D1*
X-9099Y-17396D1*
X-9069Y-17437D1*
X-8997Y-17353D1*
X-8897Y-17278D1*
X-8785Y-17224D1*
X-8664Y-17193D1*
X-8539Y-17186D1*
X-8416Y-17205D1*
X-8298Y-17247D1*
X-8191Y-17311D1*
X-8099Y-17396D1*
X-8069Y-17437D1*
X-7997Y-17353D1*
X-7897Y-17278D1*
X-7785Y-17224D1*
X-7664Y-17193D1*
X-7539Y-17186D1*
X-7416Y-17205D1*
X-7298Y-17247D1*
X-7191Y-17311D1*
X-7099Y-17396D1*
X-7069Y-17437D1*
X-6997Y-17353D1*
X-6897Y-17278D1*
X-6785Y-17224D1*
X-6664Y-17193D1*
X-6539Y-17186D1*
X-6416Y-17205D1*
X-6298Y-17247D1*
X-6191Y-17311D1*
X-6099Y-17396D1*
X-6069Y-17437D1*
X-5997Y-17353D1*
X-5897Y-17278D1*
X-5785Y-17224D1*
X-5664Y-17193D1*
X-5539Y-17186D1*
X-5416Y-17205D1*
X-5298Y-17247D1*
X-5191Y-17311D1*
X-5099Y-17396D1*
X-5069Y-17437D1*
X-4997Y-17353D1*
X-4897Y-17278D1*
X-4785Y-17224D1*
X-4664Y-17193D1*
X-4539Y-17186D1*
X-4416Y-17205D1*
X-4298Y-17247D1*
X-4191Y-17311D1*
X-4099Y-17396D1*
X-4069Y-17437D1*
X-3997Y-17353D1*
X-3897Y-17278D1*
X-3785Y-17224D1*
X-3664Y-17193D1*
X-3539Y-17186D1*
X-3416Y-17205D1*
X-3298Y-17247D1*
X-3191Y-17311D1*
X-3099Y-17396D1*
X-3069Y-17437D1*
X-2997Y-17353D1*
X-2897Y-17278D1*
X-2785Y-17224D1*
X-2636Y-17191D1*
X-2352Y-16908D1*
X-2251Y-16835D1*
X-2129Y-16796D1*
X-1819Y-16791D1*
X-1104D1*
X-1069Y-16626D1*
X-1011Y-16515D1*
X-930Y-16421D1*
X-829Y-16348D1*
X-713Y-16301D1*
X-590Y-16281D1*
X-466Y-16291D1*
X-347Y-16329D1*
X-240Y-16394D1*
X-215Y-16418D1*
X806Y-16416D1*
X9326D1*
X9421Y-16348D1*
X9537Y-16301D1*
X9660Y-16281D1*
X9784Y-16291D1*
X9903Y-16329D1*
X10010Y-16394D1*
X10099Y-16481D1*
X10165Y-16587D1*
X10205Y-16705D1*
X10214Y-16792D1*
X14576Y-16791D1*
X14671Y-16723D1*
X14787Y-16676D1*
X14910Y-16656D1*
X15034Y-16666D1*
X15153Y-16704D1*
X15260Y-16769D1*
X15349Y-16856D1*
X15415Y-16962D1*
X15455Y-17080D1*
X15466Y-17191D1*
X15452Y-17315D1*
X15409Y-17432D1*
X15340Y-17536D1*
X15249Y-17621D1*
X15141Y-17683D1*
X15021Y-17718D1*
X14897Y-17725D1*
X14774Y-17702D1*
X14660Y-17652D1*
X14582Y-17593D1*
X14021Y-17591D1*
X14056Y-17731D1*
X14059Y-17866D1*
X14037Y-17989D1*
X13991Y-18105D1*
X13923Y-18209D1*
X13836Y-18299D1*
X13815Y-18316D1*
X13901Y-18396D1*
X13974Y-18496D1*
X14027Y-18610D1*
X14056Y-18731D1*
X14061Y-18816D1*
X14049Y-18940D1*
X14012Y-19059D1*
X13953Y-19169D1*
X13873Y-19265D1*
X13776Y-19343D1*
X13665Y-19401D1*
X13545Y-19436D1*
X13421Y-19446D1*
X13297Y-19432D1*
X13178Y-19393D1*
X13070Y-19332D1*
X12975Y-19251D1*
X12934Y-19199D1*
X12873Y-19265D1*
X12776Y-19343D1*
X12665Y-19401D1*
X12545Y-19436D1*
X12421Y-19446D1*
X12297Y-19432D1*
X12178Y-19393D1*
X12070Y-19332D1*
X11975Y-19251D1*
X11934Y-19199D1*
X11873Y-19265D1*
X11776Y-19343D1*
X11665Y-19401D1*
X11545Y-19436D1*
X11421Y-19446D1*
X11297Y-19432D1*
X11178Y-19393D1*
X11070Y-19332D1*
X10975Y-19251D1*
X10934Y-19199D1*
X10873Y-19265D1*
X10776Y-19343D1*
X10665Y-19401D1*
X10545Y-19436D1*
X10421Y-19446D1*
X10297Y-19432D1*
X10178Y-19393D1*
X10070Y-19332D1*
X9975Y-19251D1*
X9934Y-19199D1*
X9873Y-19265D1*
X9776Y-19343D1*
X9665Y-19401D1*
X9545Y-19436D1*
X9421Y-19446D1*
X9297Y-19432D1*
X9178Y-19393D1*
X9070Y-19332D1*
X8975Y-19251D1*
X8934Y-19199D1*
X8873Y-19265D1*
X8776Y-19343D1*
X8665Y-19401D1*
X8545Y-19436D1*
X8421Y-19446D1*
X8297Y-19432D1*
X8178Y-19393D1*
X8070Y-19332D1*
X7975Y-19251D1*
X7934Y-19199D1*
X7873Y-19265D1*
X7776Y-19343D1*
X7665Y-19401D1*
X7545Y-19436D1*
X7421Y-19446D1*
X7297Y-19432D1*
X7178Y-19393D1*
X7070Y-19332D1*
X6975Y-19251D1*
X6934Y-19199D1*
X6873Y-19265D1*
X6776Y-19343D1*
X6665Y-19401D1*
X6545Y-19436D1*
X6421Y-19446D1*
X6297Y-19432D1*
X6178Y-19393D1*
X6070Y-19332D1*
X5975Y-19251D1*
X5934Y-19199D1*
X5873Y-19265D1*
X5776Y-19343D1*
X5665Y-19401D1*
X5545Y-19436D1*
X5421Y-19446D1*
X5371Y-19440D1*
X5267Y-19546D1*
X5290Y-19587D1*
X5330Y-19705D1*
X5341Y-19816D1*
X5327Y-19940D1*
X5284Y-20057D1*
X5215Y-20161D1*
X5124Y-20246D1*
X5016Y-20308D1*
X4896Y-20343D1*
X4838Y-20346D1*
X4495Y-20693D1*
X9431Y-20691D1*
X29537D1*
X29356Y-20584D1*
X29261Y-20503D1*
X29177Y-20410D1*
X29106Y-20307D1*
X29050Y-20196D1*
X29008Y-20078D1*
X28981Y-19956D1*
X28971Y-19832D1*
X28977Y-19707D1*
X29000Y-19584D1*
X29037Y-19465D1*
X29091Y-19352D1*
X29158Y-19247D1*
X29238Y-19151D1*
X29330Y-19067D1*
X29433Y-18995D1*
X29544Y-18938D1*
X29661Y-18895D1*
X29783Y-18867D1*
X29907Y-18856D1*
X30032Y-18861D1*
X30155Y-18882D1*
X30274Y-18919D1*
X30388Y-18972D1*
X30494Y-19038D1*
X30590Y-19118D1*
X30675Y-19209D1*
X30748Y-19311D1*
X30808Y-19425D1*
X30806Y-6066D1*
Y16790D1*
X30695Y16602D1*
X30613Y16508D1*
X30519Y16425D1*
X30416Y16355D1*
X30304Y16299D1*
X30186Y16259D1*
X30064Y16233D1*
X29939Y16224D1*
X29814Y16231D1*
X29692Y16254D1*
X29573Y16293D1*
X29460Y16347D1*
X29356Y16416D1*
X29261Y16497D1*
X29177Y16590D1*
X29106Y16693D1*
X29050Y16804D1*
X29008Y16922D1*
X28981Y17044D1*
X28971Y17168D1*
X28977Y17293D1*
X29000Y17416D1*
X29037Y17535D1*
X29091Y17648D1*
X29158Y17753D1*
X29238Y17849D1*
X29330Y17933D1*
X29433Y18005D1*
X29540Y18061D1*
X18556Y18059D1*
X-26674D1*
X-26506Y17962D1*
X-26410Y17882D1*
X-26325Y17791D1*
X-26252Y17689D1*
X-26194Y17579D1*
X-26150Y17462D1*
X-26122Y17340D1*
X-26109Y17184D1*
X-26117Y17059D1*
X-26141Y16937D1*
X-26181Y16819D1*
X-26236Y16706D1*
X-26305Y16602D1*
X-26387Y16508D1*
X-26481Y16425D1*
X-26584Y16355D1*
X-26696Y16299D1*
X-26814Y16259D1*
X-26936Y16233D1*
X-27061Y16224D1*
X-27186Y16231D1*
X-27308Y16254D1*
X-27427Y16293D1*
X-27540Y16347D1*
X-27644Y16416D1*
X-27739Y16497D1*
X-27823Y16590D1*
X-27894Y16693D1*
X-27945Y16793D1*
X-27944Y-4976D1*
X-27933Y-4912D1*
X-27892Y-4794D1*
X-27829Y-4687D1*
X-27747Y-4593D1*
X-27647Y-4518D1*
X-27535Y-4464D1*
X-27414Y-4433D1*
X-27289Y-4427D1*
X-27166Y-4445D1*
X-27048Y-4487D1*
X-26941Y-4551D1*
X-26849Y-4636D1*
X-26776Y-4737D1*
X-26723Y-4850D1*
X-26694Y-4971D1*
X-26689Y-5056D1*
X-26701Y-5180D1*
X-26738Y-5300D1*
X-26797Y-5409D1*
X-26877Y-5505D1*
X-26974Y-5584D1*
X-27085Y-5641D1*
X-27205Y-5676D1*
X-27289Y-5686D1*
X-27166Y-5705D1*
X-27048Y-5747D1*
X-26941Y-5811D1*
X-26849Y-5896D1*
X-26776Y-5996D1*
X-26723Y-6110D1*
X-26694Y-6231D1*
X-26689Y-6316D1*
X-26701Y-6440D1*
X-26738Y-6559D1*
X-26797Y-6669D1*
X-26877Y-6765D1*
X-26974Y-6843D1*
X-27085Y-6901D1*
X-27205Y-6936D1*
X-27289Y-6946D1*
X-27166Y-6964D1*
X-27048Y-7007D1*
X-26941Y-7071D1*
X-26849Y-7155D1*
X-26776Y-7256D1*
X-26723Y-7370D1*
X-26694Y-7491D1*
X-26689Y-7576D1*
X-26701Y-7700D1*
X-26738Y-7819D1*
X-26797Y-7929D1*
X-26877Y-8025D1*
X-26974Y-8103D1*
X-27085Y-8161D1*
X-27205Y-8196D1*
X-27329Y-8206D1*
X-27453Y-8192D1*
X-27572Y-8153D1*
X-27680Y-8092D1*
X-27775Y-8011D1*
X-27852Y-7912D1*
X-27908Y-7801D1*
X-27940Y-7680D1*
X-27944Y-7630D1*
Y-19421D1*
X-27842Y-19247D1*
X-27762Y-19151D1*
X-27670Y-19067D1*
X-27567Y-18995D1*
X-27456Y-18938D1*
X-27339Y-18895D1*
X-27217Y-18867D1*
X-27093Y-18856D1*
X-26968Y-18861D1*
X-26845Y-18882D1*
X-26726Y-18919D1*
X-26612Y-18972D1*
X-26506Y-19038D1*
X-26410Y-19118D1*
X-26325Y-19209D1*
X-26252Y-19311D1*
X-26194Y-19421D1*
X-26150Y-19538D1*
X-26122Y-19660D1*
X-26109Y-19816D1*
X-26117Y-19941D1*
X-26141Y-20063D1*
X-26181Y-20181D1*
X-26236Y-20294D1*
X-26305Y-20398D1*
X-26387Y-20492D1*
X-26481Y-20575D1*
X-26584Y-20645D1*
X-26679Y-20692D1*
X-19635Y-20691D1*
X-20853Y-19475D1*
X-20976Y-19452D1*
X-21090Y-19402D1*
X-21190Y-19327D1*
X-21269Y-19230D1*
X-21324Y-19118D1*
X-21351Y-18997D1*
X-21349Y-18872D1*
X-21319Y-18751D1*
X-21261Y-18640D1*
X-21180Y-18546D1*
X-21079Y-18473D1*
X-20963Y-18426D1*
X-20840Y-18406D1*
X-20716Y-18416D1*
X-20597Y-18454D1*
X-20490Y-18519D1*
X-20391Y-18623D1*
X-20368Y-18552D1*
X-20309Y-18442D1*
X-20230Y-18346D1*
X-20134Y-18265D1*
X-20007Y-18198D1*
X-20109Y-18064D1*
X-20148Y-17942D1*
X-20153Y-17632D1*
Y-17581D1*
X-20259Y-17483D1*
X-20331Y-17382D1*
X-20384Y-17269D1*
X-20415Y-17148D1*
X-20422Y-17023D1*
X-20407Y-16899D1*
X-20368Y-16780D1*
X-20309Y-16671D1*
X-20230Y-16574D1*
X-20134Y-16494D1*
X-20025Y-16433D1*
X-19907Y-16393D1*
X-19784Y-16375D1*
X-19659Y-16381D1*
X-19537Y-16410D1*
X-19424Y-16461D1*
X-19321Y-16533D1*
X-19234Y-16622D1*
X-19164Y-16725D1*
X-19115Y-16840D1*
X-19088Y-16962D1*
X-19083Y-17044D1*
X-19095Y-17169D1*
X-19129Y-17289D1*
X-19186Y-17400D1*
X-19261Y-17499D1*
X-19351Y-17580D1*
X-19353Y-17720D1*
X-18409Y-18660D1*
X-17865Y-19204D1*
X-17864Y-18146D1*
X-16524D1*
Y-19486D1*
X-17584D1*
X-16655Y-20414D1*
X-14444Y-20416D1*
X-13534D1*
X-13977Y-19974D1*
X-14050Y-19873D1*
X-14089Y-19751D1*
X-14094Y-19441D1*
Y-14687D1*
X-14136Y-14774D1*
X-14210Y-14875D1*
X-14302Y-14959D1*
X-14408Y-15025D1*
X-14525Y-15069D1*
X-14648Y-15089D1*
X-14773Y-15086D1*
X-14895Y-15059D1*
X-15009Y-15009D1*
X-15112Y-14939D1*
X-15199Y-14850D1*
X-15268Y-14745D1*
X-15316Y-14630D1*
X-15340Y-14508D1*
X-15341Y-14383D1*
X-15318Y-14260D1*
X-15272Y-14144D1*
X-15205Y-14039D1*
X-15119Y-13949D1*
X-15017Y-13877D1*
X-14903Y-13826D1*
X-14781Y-13797D1*
X-14657Y-13792D1*
X-14533Y-13811D1*
X-14416Y-13853D1*
X-14309Y-13917D1*
X-14216Y-14001D1*
X-14140Y-14100D1*
X-14094Y-14191D1*
Y-12382D1*
X-14157Y-12444D1*
X-14261Y-12513D1*
X-14376Y-12562D1*
X-14498Y-12587D1*
X-14623Y-12589D1*
X-14746Y-12566D1*
X-14862Y-12521D1*
X-14967Y-12454D1*
X-15058Y-12369D1*
X-15131Y-12267D1*
X-15183Y-12154D1*
X-15212Y-12033D1*
X-15218Y-11908D1*
X-15200Y-11784D1*
X-15158Y-11667D1*
X-15116Y-11591D1*
X-15219D1*
Y-10291D1*
X-14090D1*
X-14094Y-9566D1*
Y-6066D1*
X-14075Y-5943D1*
X-14016Y-5829D1*
X-13800Y-5606D1*
X-12352Y-4158D1*
X-12251Y-4085D1*
X-12129Y-4046D1*
X-11819Y-4041D1*
X-11690D1*
X-11699Y-3921D1*
X-11683Y-3797D1*
X-11642Y-3679D1*
X-11579Y-3571D1*
X-11497Y-3478D1*
X-11450Y-3443D1*
X-11525Y-3376D1*
X-11602Y-3278D1*
X-11658Y-3166D1*
X-11690Y-3046D1*
X-11699Y-2921D1*
X-11683Y-2797D1*
X-11642Y-2679D1*
X-11579Y-2571D1*
X-11497Y-2478D1*
X-11450Y-2443D1*
X-11525Y-2376D1*
X-11602Y-2278D1*
X-11658Y-2166D1*
X-11690Y-2046D1*
X-11699Y-1921D1*
X-11683Y-1797D1*
X-11642Y-1679D1*
X-11579Y-1571D1*
X-11497Y-1478D1*
X-11450Y-1443D1*
X-11525Y-1376D1*
X-11602Y-1278D1*
X-11658Y-1166D1*
X-11690Y-1046D1*
X-11699Y-921D1*
X-11683Y-797D1*
X-11642Y-679D1*
X-11579Y-571D1*
X-11497Y-478D1*
X-11450Y-443D1*
X-11525Y-376D1*
X-11602Y-278D1*
X-11658Y-166D1*
X-11690Y-46D1*
X-11699Y79D1*
X-11683Y203D1*
X-11642Y321D1*
X-11579Y429D1*
X-11497Y522D1*
X-11450Y557D1*
X-11525Y624D1*
X-11602Y722D1*
X-11658Y834D1*
X-11690Y954D1*
X-11699Y1079D1*
X-11683Y1203D1*
X-11642Y1321D1*
X-11579Y1429D1*
X-11497Y1522D1*
X-11450Y1557D1*
X-11525Y1624D1*
X-11602Y1722D1*
X-11658Y1834D1*
X-11690Y1954D1*
X-11699Y2079D1*
X-11683Y2203D1*
X-11642Y2321D1*
X-11579Y2429D1*
X-11497Y2522D1*
X-11450Y2557D1*
X-11525Y2624D1*
X-11602Y2722D1*
X-11658Y2834D1*
X-11690Y2954D1*
X-11699Y3079D1*
X-11683Y3203D1*
X-11642Y3321D1*
X-11579Y3429D1*
X-11497Y3522D1*
X-11450Y3557D1*
X-11525Y3624D1*
X-11602Y3722D1*
X-11658Y3834D1*
X-11690Y3954D1*
X-11699Y4079D1*
X-11683Y4203D1*
X-11642Y4321D1*
X-11579Y4429D1*
X-11497Y4522D1*
X-11450Y4557D1*
X-11525Y4624D1*
X-11602Y4722D1*
X-11658Y4834D1*
X-11688Y4936D1*
X-11747Y4822D1*
X-11963Y4599D1*
X-12662Y3901D1*
X-12585Y3788D1*
X-12545Y3670D1*
X-12534Y3559D1*
X-12548Y3435D1*
X-12591Y3318D1*
X-12669Y3206D1*
Y809D1*
X-12690Y683D1*
X-12694Y670D1*
X-12684Y559D1*
X-12696Y435D1*
X-12732Y315D1*
X-12791Y205D1*
X-12871Y109D1*
X-12967Y30D1*
X-13078Y-28D1*
X-13197Y-64D1*
X-13321Y-76D1*
X-13446Y-63D1*
X-13565Y-26D1*
X-13675Y33D1*
X-13771Y113D1*
X-13849Y210D1*
X-13907Y320D1*
X-13943Y440D1*
X-13954Y564D1*
X-13941Y688D1*
X-13903Y807D1*
X-13844Y917D1*
X-13763Y1013D1*
X-13666Y1091D1*
X-13555Y1148D1*
X-13469Y1173D1*
Y3094D1*
X-15161Y1401D1*
X-15262Y1328D1*
X-15384Y1289D1*
X-15694Y1284D1*
X-19331D1*
X-19474Y1157D1*
X-19585Y1099D1*
X-19705Y1064D1*
X-19829Y1054D1*
X-19953Y1068D1*
X-20072Y1107D1*
X-20180Y1168D1*
X-20275Y1249D1*
X-20352Y1347D1*
X-20408Y1459D1*
X-20440Y1579D1*
X-20449Y1704D1*
X-20433Y1828D1*
X-20392Y1946D1*
X-20329Y2054D1*
X-20247Y2147D1*
X-20147Y2222D1*
X-20035Y2276D1*
X-19914Y2307D1*
X-19789Y2314D1*
X-19666Y2295D1*
X-19548Y2253D1*
X-19441Y2189D1*
X-19333Y2082D1*
X-16194Y2084D1*
X-15612D1*
X-13409Y4284D1*
X-13920D1*
X-13960Y4133D1*
X-14036Y4026D1*
X-14661Y3401D1*
X-14762Y3328D1*
X-14884Y3289D1*
X-15194Y3284D1*
X-16167D1*
X-16169Y3034D1*
X-17469D1*
Y4334D1*
X-16169D1*
Y4080D1*
X-15444Y4084D1*
X-15112D1*
X-14721Y4472D1*
X-14719Y5430D1*
X-15699Y5429D1*
Y6689D1*
X-15578D1*
X-15658Y6834D1*
X-15689Y6951D1*
X-16886Y5751D1*
X-16986Y5677D1*
X-17079Y5640D1*
X-17194Y5624D1*
X-17612D1*
X-17724Y5532D1*
X-17835Y5474D1*
X-17955Y5439D1*
X-18079Y5429D1*
X-18203Y5443D1*
X-18322Y5482D1*
X-18430Y5543D1*
X-18525Y5624D1*
X-18602Y5722D1*
X-18658Y5834D1*
X-18690Y5954D1*
X-18699Y6079D1*
X-18683Y6203D1*
X-18642Y6321D1*
X-18579Y6429D1*
X-18497Y6522D1*
X-18450Y6557D1*
X-18542Y6643D1*
X-18615Y6744D1*
X-18666Y6858D1*
X-18694Y6979D1*
X-18698Y7104D1*
X-18676Y7227D1*
X-18631Y7343D1*
X-18564Y7449D1*
X-18478Y7539D1*
X-18453Y7559D1*
X-18525Y7624D1*
X-18602Y7722D1*
X-18658Y7834D1*
X-18690Y7954D1*
X-18699Y8079D1*
X-18683Y8203D1*
X-18642Y8321D1*
X-18579Y8429D1*
X-18497Y8522D1*
X-18450Y8557D1*
X-18525Y8624D1*
X-18602Y8722D1*
X-18658Y8834D1*
X-18690Y8954D1*
X-18699Y9079D1*
X-18683Y9203D1*
X-18642Y9321D1*
X-18579Y9429D1*
X-18497Y9522D1*
X-18450Y9557D1*
X-18525Y9624D1*
X-18602Y9722D1*
X-18658Y9834D1*
X-18690Y9954D1*
X-18699Y10079D1*
X-18683Y10203D1*
X-18642Y10321D1*
X-18579Y10429D1*
X-18497Y10522D1*
X-18450Y10557D1*
X-18525Y10624D1*
X-18602Y10722D1*
X-18658Y10834D1*
X-18690Y10954D1*
X-18699Y11079D1*
X-18683Y11203D1*
X-18642Y11321D1*
X-18579Y11429D1*
X-18497Y11522D1*
X-18450Y11557D1*
X-18525Y11624D1*
X-18602Y11722D1*
X-18658Y11834D1*
X-18690Y11954D1*
X-18699Y12079D1*
X-18683Y12203D1*
X-18642Y12321D1*
X-18579Y12429D1*
X-18497Y12522D1*
X-18450Y12557D1*
X-18525Y12624D1*
X-18602Y12722D1*
X-18658Y12834D1*
X-18690Y12954D1*
X-18699Y13079D1*
X-18683Y13203D1*
X-18642Y13321D1*
X-18579Y13429D1*
X-18497Y13522D1*
X-18397Y13597D1*
X-18285Y13651D1*
X-18164Y13682D1*
X-18039Y13689D1*
X-17916Y13670D1*
X-17798Y13628D1*
X-17691Y13564D1*
X-17599Y13479D1*
X-17526Y13379D1*
X-17473Y13265D1*
X-17444Y13144D1*
X-17439Y13059D1*
X-17451Y12935D1*
X-17488Y12816D1*
X-17547Y12706D1*
X-17627Y12610D1*
X-17691Y12558D1*
X-17599Y12479D1*
X-17526Y12379D1*
X-17473Y12265D1*
X-17444Y12144D1*
X-17439Y12059D1*
X-17451Y11935D1*
X-17488Y11816D1*
X-17547Y11706D1*
X-17627Y11610D1*
X-17691Y11558D1*
X-17599Y11479D1*
X-17526Y11379D1*
X-17473Y11265D1*
X-17444Y11144D1*
X-17439Y11059D1*
X-17451Y10935D1*
X-17488Y10816D1*
X-17547Y10706D1*
X-17627Y10610D1*
X-17691Y10558D1*
X-17599Y10479D1*
X-17526Y10379D1*
X-17473Y10265D1*
X-17444Y10144D1*
X-17439Y10059D1*
X-17451Y9935D1*
X-17488Y9816D1*
X-17547Y9706D1*
X-17627Y9610D1*
X-17691Y9558D1*
X-17599Y9479D1*
X-17526Y9379D1*
X-17473Y9265D1*
X-17444Y9144D1*
X-17439Y9059D1*
X-17451Y8935D1*
X-17488Y8816D1*
X-17547Y8706D1*
X-17627Y8610D1*
X-17691Y8558D1*
X-17599Y8479D1*
X-17526Y8379D1*
X-17473Y8265D1*
X-17444Y8144D1*
X-17439Y8059D1*
X-17451Y7935D1*
X-17488Y7816D1*
X-17547Y7706D1*
X-17627Y7610D1*
X-17691Y7558D1*
X-17634Y7515D1*
X-17553Y7421D1*
X-17492Y7312D1*
X-17453Y7193D1*
X-17439Y7059D1*
X-17451Y6935D1*
X-17488Y6816D1*
X-17547Y6706D1*
X-17627Y6610D1*
X-17685Y6559D1*
X-17569Y6494D1*
X-17377D1*
X-16176Y7692D1*
X-16001Y7867D1*
X-15902Y7941D1*
X-15809Y7979D1*
X-15699Y8079D1*
X-15683Y8203D1*
X-15642Y8321D1*
X-15579Y8429D1*
X-15497Y8522D1*
X-15450Y8557D1*
X-15525Y8624D1*
X-15602Y8722D1*
X-15658Y8834D1*
X-15690Y8954D1*
X-15699Y9079D1*
X-15683Y9203D1*
X-15642Y9321D1*
X-15579Y9429D1*
X-15497Y9522D1*
X-15450Y9557D1*
X-15525Y9624D1*
X-15602Y9722D1*
X-15658Y9834D1*
X-15690Y9954D1*
X-15699Y10079D1*
X-15683Y10203D1*
X-15642Y10321D1*
X-15579Y10429D1*
X-15497Y10522D1*
X-15450Y10557D1*
X-15525Y10624D1*
X-15602Y10722D1*
X-15658Y10834D1*
X-15690Y10954D1*
X-15699Y11079D1*
X-15683Y11203D1*
X-15642Y11321D1*
X-15579Y11429D1*
X-15497Y11522D1*
X-15450Y11557D1*
X-15525Y11624D1*
X-15602Y11722D1*
X-15658Y11834D1*
X-15690Y11954D1*
X-15699Y12079D1*
X-15683Y12203D1*
X-15642Y12321D1*
X-15579Y12429D1*
X-15497Y12522D1*
X-15450Y12557D1*
X-15525Y12624D1*
X-15602Y12722D1*
X-15658Y12834D1*
X-15690Y12954D1*
X-15699Y13079D1*
X-15683Y13203D1*
X-15642Y13321D1*
X-15579Y13429D1*
X-15497Y13522D1*
X-15397Y13597D1*
X-15285Y13651D1*
X-15164Y13682D1*
X-15039Y13689D1*
X-14916Y13670D1*
X-14798Y13628D1*
X-14691Y13564D1*
X-14599Y13479D1*
X-14526Y13379D1*
X-14473Y13265D1*
X-14444Y13144D1*
X-14439Y13059D1*
X-14451Y12935D1*
X-14488Y12816D1*
X-14547Y12706D1*
X-14627Y12610D1*
X-14691Y12558D1*
X-14599Y12479D1*
X-14526Y12379D1*
X-14473Y12265D1*
X-14444Y12144D1*
X-14439Y12059D1*
X-14451Y11935D1*
X-14488Y11816D1*
X-14547Y11706D1*
X-14627Y11610D1*
X-14691Y11558D1*
X-14599Y11479D1*
X-14526Y11379D1*
X-14473Y11265D1*
X-14444Y11144D1*
X-14439Y11059D1*
X-14451Y10935D1*
X-14488Y10816D1*
X-14547Y10706D1*
X-14627Y10610D1*
X-14691Y10558D1*
X-14599Y10479D1*
X-14526Y10379D1*
X-14473Y10265D1*
X-14444Y10144D1*
X-14439Y10059D1*
X-14451Y9935D1*
X-14488Y9816D1*
X-14547Y9706D1*
X-14627Y9610D1*
X-14691Y9558D1*
X-14599Y9479D1*
X-14526Y9379D1*
X-14473Y9265D1*
X-14444Y9144D1*
X-14439Y9059D1*
X-14451Y8935D1*
X-14488Y8816D1*
X-14547Y8706D1*
X-14627Y8610D1*
X-14691Y8558D1*
X-14599Y8479D1*
X-14526Y8379D1*
X-14473Y8265D1*
X-14444Y8144D1*
X-14445Y7993D1*
X-12252Y7994D1*
X-11876Y8367D1*
X-11798Y8429D1*
X-11699Y8479D1*
Y9689D1*
X-10439D1*
Y8429D1*
X-10558D1*
X-10473Y8265D1*
X-10444Y8144D1*
X-10439Y8059D1*
X-10444Y7959D1*
X-7487D1*
X-7102Y8342D1*
X-7001Y8415D1*
X-6879Y8454D1*
X-6569Y8459D1*
X-5573D1*
X-5466Y8557D1*
X-5541Y8624D1*
X-5618Y8722D1*
X-5673Y8834D1*
X-5706Y8954D1*
X-5715Y9079D1*
X-5698Y9203D1*
X-5658Y9321D1*
X-5595Y9429D1*
X-5512Y9522D1*
X-5413Y9597D1*
X-5300Y9651D1*
X-5179Y9682D1*
X-5055Y9689D1*
X-4931Y9670D1*
X-4814Y9628D1*
X-4707Y9564D1*
X-4599Y9457D1*
X-4194Y9459D1*
X-4071Y9440D1*
X-3957Y9381D1*
X-3734Y9165D1*
X-2599Y8030D1*
X-2497Y8147D1*
X-2450Y8182D1*
X-2525Y8249D1*
X-2602Y8347D1*
X-2658Y8459D1*
X-2690Y8579D1*
X-2699Y8704D1*
X-2683Y8828D1*
X-2642Y8946D1*
X-2579Y9054D1*
X-2497Y9147D1*
X-2450Y9182D1*
X-2525Y9249D1*
X-2602Y9347D1*
X-2658Y9459D1*
X-2690Y9579D1*
X-2699Y9704D1*
X-2683Y9828D1*
X-2642Y9946D1*
X-2579Y10054D1*
X-2497Y10147D1*
X-2450Y10182D1*
X-2525Y10249D1*
X-2602Y10347D1*
X-2658Y10459D1*
X-2690Y10579D1*
X-2699Y10704D1*
X-2683Y10828D1*
X-2642Y10946D1*
X-2579Y11054D1*
X-2497Y11147D1*
X-2450Y11182D1*
X-2525Y11249D1*
X-2602Y11347D1*
X-2658Y11459D1*
X-2690Y11579D1*
X-2699Y11704D1*
X-2683Y11828D1*
X-2642Y11946D1*
X-2579Y12054D1*
X-2497Y12147D1*
X-2450Y12182D1*
X-2551Y12283D1*
X-2692Y12303D1*
X-2806Y12362D1*
X-3029Y12578D1*
X-3102Y12651D1*
X-3175Y12752D1*
X-3214Y12874D1*
X-3219Y13184D1*
Y13809D1*
X-3200Y13932D1*
X-3141Y14046D1*
X-2925Y14269D1*
X-2680Y14506D1*
X-2698Y14654D1*
X-2692Y14779D1*
X-2661Y14900D1*
X-2607Y15012D1*
X-2532Y15112D1*
X-2439Y15194D1*
X-2331Y15257D1*
X-2213Y15298D1*
X-2089Y15314D1*
X-1964Y15306D1*
X-1844Y15273D1*
X-1732Y15217D1*
X-1634Y15140D1*
X-1553Y15046D1*
X-1492Y14937D1*
X-1453Y14818D1*
X-1442Y14751D1*
X23Y16217D1*
X124Y16290D1*
X246Y16329D1*
X556Y16334D1*
X11757Y16336D1*
X11701Y16448D1*
X11667Y16568D1*
X11656Y16692D1*
X11670Y16816D1*
X11707Y16935D1*
X11766Y17045D1*
X11845Y17142D1*
X11941Y17222D1*
X12050Y17282D1*
X12169Y17319D1*
X12293Y17334D1*
X12418Y17324D1*
X12538Y17291D1*
X12650Y17236D1*
X12749Y17160D1*
X12832Y17066D1*
X12895Y16959D1*
X12937Y16841D1*
X12955Y16718D1*
X12948Y16584D1*
X12918Y16464D1*
X12864Y16351D1*
X12854Y16334D1*
X13654D1*
X13656Y17334D1*
X14956D1*
Y16330D1*
X15306Y16334D1*
X15429Y16315D1*
X15543Y16256D1*
X15766Y16040D1*
X16365Y15441D1*
X16434Y15434D1*
X16553Y15396D1*
X16660Y15331D1*
X16749Y15244D1*
X16815Y15138D1*
X16855Y15020D1*
X16866Y14909D1*
X16852Y14785D1*
X16815Y14686D1*
X17003Y14822D1*
X17115Y14876D1*
X17236Y14907D1*
X17361Y14914D1*
X17484Y14895D1*
X17602Y14853D1*
X17709Y14789D1*
X17801Y14704D1*
X17831Y14663D1*
X17906Y14749D1*
Y14809D1*
X17925Y14932D1*
X17984Y15046D1*
X18200Y15269D1*
X18523Y15592D1*
X18624Y15665D1*
X18746Y15704D1*
X19056Y15709D1*
X22431D1*
X22554Y15690D1*
X22668Y15631D1*
X22891Y15415D1*
X23089Y15217D1*
X23162Y15116D1*
X23201Y14994D1*
X23206Y14899D1*
X23361Y14914D1*
X23484Y14895D1*
X23602Y14853D1*
X23709Y14789D1*
X23801Y14704D1*
X23831Y14663D1*
X23903Y14747D1*
X24003Y14822D1*
X24115Y14876D1*
X24236Y14907D1*
X24361Y14914D1*
X24484Y14895D1*
X24602Y14853D1*
X24709Y14789D1*
X24801Y14704D1*
X24831Y14663D1*
X24903Y14747D1*
X25003Y14822D1*
X25115Y14876D1*
X25236Y14907D1*
X25361Y14914D1*
X25484Y14895D1*
X25602Y14853D1*
X25709Y14789D1*
X25801Y14704D1*
X25831Y14663D1*
X25903Y14747D1*
X26003Y14822D1*
X26115Y14876D1*
X26236Y14907D1*
X26361Y14914D1*
X26484Y14895D1*
X26602Y14853D1*
X26709Y14789D1*
X26801Y14704D1*
X26831Y14663D1*
X26903Y14747D1*
X27003Y14822D1*
X27115Y14876D1*
X27236Y14907D1*
X27361Y14914D1*
X27484Y14895D1*
X27602Y14853D1*
X27709Y14789D1*
X27801Y14704D1*
X27874Y14604D1*
X27927Y14490D1*
X27956Y14369D1*
X27961Y14284D1*
X27949Y14160D1*
X27912Y14041D1*
X27853Y13931D1*
X27773Y13835D1*
X27676Y13757D1*
X27565Y13699D1*
X27445Y13664D1*
X27321Y13654D1*
X27197Y13668D1*
X27078Y13707D1*
X26970Y13768D1*
X26875Y13849D1*
X26834Y13901D1*
X26773Y13835D1*
X26676Y13757D1*
X26565Y13699D1*
X26445Y13664D1*
X26321Y13654D1*
X26197Y13668D1*
X26078Y13707D1*
X25970Y13768D1*
X25875Y13849D1*
X25834Y13901D1*
X25773Y13835D1*
X25676Y13757D1*
X25565Y13699D1*
X25445Y13664D1*
X25321Y13654D1*
X25197Y13668D1*
X25078Y13707D1*
X24970Y13768D1*
X24875Y13849D1*
X24834Y13901D1*
X24773Y13835D1*
X24676Y13757D1*
X24565Y13699D1*
X24445Y13664D1*
X24321Y13654D1*
X24197Y13668D1*
X24078Y13707D1*
X23970Y13768D1*
X23875Y13849D1*
X23834Y13901D1*
X23773Y13835D1*
X23673Y13755D1*
X24592Y12839D1*
X27089Y10342D1*
X27162Y10241D1*
X27201Y10119D1*
X27206Y9809D1*
X27212Y8903D1*
X27336Y8914D1*
X27460Y8901D1*
X27579Y8863D1*
X27688Y8803D1*
X27784Y8723D1*
X27861Y8625D1*
X27918Y8514D1*
X27952Y8394D1*
X27961Y8259D1*
X27944Y8135D1*
X27902Y8018D1*
X27839Y7910D1*
X27755Y7818D1*
X27655Y7743D1*
X27542Y7690D1*
X27421Y7660D1*
X27296Y7655D1*
X27206Y7667D1*
Y6899D1*
X27897Y7591D1*
X27931Y7749D1*
X27989Y7860D1*
X28070Y7954D1*
X28171Y8027D1*
X28287Y8074D1*
X28410Y8094D1*
X28534Y8084D1*
X28653Y8046D1*
X28760Y7981D1*
X28849Y7894D1*
X28915Y7788D1*
X28955Y7670D1*
X28966Y7559D1*
X28952Y7435D1*
X28909Y7318D1*
X28864Y7250D1*
X28915Y7163D1*
X28955Y7045D1*
X28966Y6934D1*
X28952Y6810D1*
X28909Y6693D1*
X28840Y6589D1*
X28749Y6504D1*
X28641Y6442D1*
X28521Y6407D1*
X28463Y6404D1*
X27830Y5767D1*
X27706Y5643D1*
Y227D1*
X28144Y-213D1*
X28100Y-126D1*
X28023Y-28D1*
X27967Y84D1*
X27935Y204D1*
X27926Y329D1*
X27942Y453D1*
X27983Y571D1*
X28046Y679D1*
X28128Y772D1*
X28175Y807D1*
X28100Y874D1*
X28023Y972D1*
X27967Y1084D1*
X27935Y1204D1*
X27926Y1329D1*
X27942Y1453D1*
X27983Y1571D1*
X28046Y1679D1*
X28128Y1772D1*
X28228Y1847D1*
X28340Y1901D1*
X28461Y1932D1*
X28586Y1939D1*
X28709Y1920D1*
X28827Y1878D1*
X28934Y1814D1*
X29026Y1729D1*
X29099Y1629D1*
X29152Y1515D1*
X29181Y1394D1*
X29186Y1309D1*
X29174Y1185D1*
X29137Y1066D1*
X29078Y956D1*
X28998Y860D1*
X28934Y808D1*
X29026Y729D1*
X29099Y629D1*
X29152Y515D1*
X29181Y394D1*
X29186Y309D1*
X29174Y185D1*
X29137Y66D1*
X29078Y-44D1*
X28998Y-140D1*
X28934Y-192D1*
X29026Y-271D1*
X29099Y-371D1*
X29152Y-485D1*
X29181Y-606D1*
X29186Y-691D1*
X29174Y-815D1*
X29137Y-934D1*
X29078Y-1044D1*
X28998Y-1140D1*
X28934Y-1192D1*
X29026Y-1271D1*
X29099Y-1371D1*
X29152Y-1485D1*
X29181Y-1606D1*
X29186Y-1691D1*
X29174Y-1815D1*
X29137Y-1934D1*
X29078Y-2044D1*
X28998Y-2140D1*
X28934Y-2192D1*
X29026Y-2271D1*
X29099Y-2371D1*
X29152Y-2485D1*
X29181Y-2606D1*
X29186Y-2691D1*
X29174Y-2815D1*
X29137Y-2934D1*
X29078Y-3044D1*
X28998Y-3140D1*
X28934Y-3192D1*
X29026Y-3271D1*
X29099Y-3371D1*
X29152Y-3485D1*
X29181Y-3606D1*
X29186Y-3691D1*
X29174Y-3815D1*
X29137Y-3934D1*
X29078Y-4044D1*
X28998Y-4140D1*
X28934Y-4192D1*
X29042Y-4293D1*
X29326Y-4291D1*
X29421Y-4223D1*
X29537Y-4176D1*
X29660Y-4156D1*
X29784Y-4166D1*
X29903Y-4204D1*
X30010Y-4269D1*
X30099Y-4356D1*
X30165Y-4462D1*
X30205Y-4580D1*
X30216Y-4691D1*
X30202Y-4815D1*
X30159Y-4932D1*
X30090Y-5036D1*
X29999Y-5121D1*
X29891Y-5183D1*
X29771Y-5218D1*
X29647Y-5225D1*
X29524Y-5202D1*
X29410Y-5152D1*
X29332Y-5093D1*
X29044Y-5091D1*
X28934Y-5192D1*
X29026Y-5271D1*
X29099Y-5371D1*
X29152Y-5485D1*
X29181Y-5606D1*
X29186Y-5691D1*
X29174Y-5815D1*
X29137Y-5934D1*
X29078Y-6044D1*
X28998Y-6140D1*
X28934Y-6192D1*
X29026Y-6271D1*
X29099Y-6371D1*
X29152Y-6485D1*
X29181Y-6606D1*
X29186Y-6691D1*
X29174Y-6815D1*
X29137Y-6934D1*
X29078Y-7044D1*
X28998Y-7140D1*
X28934Y-7192D1*
X29026Y-7271D1*
X29099Y-7371D1*
X29152Y-7485D1*
X29181Y-7606D1*
X29186Y-7691D1*
X29174Y-7815D1*
X29137Y-7934D1*
X29078Y-8044D1*
X28998Y-8140D1*
X28934Y-8192D1*
X29026Y-8271D1*
X29099Y-8371D1*
X29152Y-8485D1*
X29181Y-8606D1*
X29186Y-8691D1*
X29174Y-8815D1*
X29137Y-8934D1*
X29078Y-9044D1*
X28998Y-9140D1*
X28934Y-9192D1*
X29026Y-9271D1*
X29099Y-9371D1*
X29152Y-9485D1*
X29181Y-9606D1*
X29186Y-9691D1*
X29174Y-9815D1*
X29137Y-9934D1*
X29078Y-10044D1*
X28998Y-10140D1*
X28934Y-10192D1*
X29026Y-10271D1*
X29099Y-10371D1*
X29152Y-10485D1*
X29181Y-10606D1*
X29186Y-10691D1*
X29174Y-10815D1*
X29137Y-10934D1*
X29078Y-11044D1*
X28998Y-11140D1*
X28934Y-11192D1*
X29026Y-11271D1*
X29099Y-11371D1*
X29152Y-11485D1*
X29181Y-11606D1*
X29186Y-11691D1*
X29174Y-11815D1*
X29137Y-11934D1*
X29078Y-12044D1*
X28998Y-12140D1*
X28901Y-12218D1*
X28790Y-12276D1*
X28670Y-12311D1*
X28546Y-12321D1*
X28422Y-12307D1*
X28303Y-12268D1*
X28195Y-12207D1*
X28100Y-12126D1*
X28023Y-12028D1*
X27967Y-11916D1*
X27935Y-11796D1*
X27926Y-11671D1*
X27942Y-11547D1*
X27983Y-11429D1*
X28046Y-11321D1*
X28128Y-11228D1*
X28175Y-11193D1*
X28100Y-11126D1*
X28023Y-11028D1*
X27967Y-10916D1*
X27935Y-10796D1*
X27926Y-10671D1*
X27942Y-10547D1*
X27983Y-10429D1*
X28046Y-10321D1*
X28128Y-10228D1*
X28175Y-10193D1*
X28100Y-10126D1*
X28023Y-10028D1*
X27967Y-9916D1*
X27935Y-9796D1*
X27926Y-9671D1*
X27942Y-9547D1*
X27983Y-9429D1*
X28046Y-9321D1*
X28128Y-9228D1*
X28175Y-9193D1*
X28100Y-9126D1*
X28023Y-9028D1*
X27967Y-8916D1*
X27935Y-8796D1*
X27926Y-8671D1*
X27942Y-8547D1*
X27983Y-8429D1*
X28046Y-8321D1*
X28128Y-8228D1*
X28175Y-8193D1*
X28100Y-8126D1*
X28023Y-8028D1*
X27967Y-7916D1*
X27935Y-7796D1*
X27926Y-7671D1*
X27942Y-7547D1*
X27983Y-7429D1*
X28046Y-7321D1*
X28128Y-7228D1*
X28175Y-7193D1*
X28100Y-7126D1*
X28023Y-7028D1*
X27967Y-6916D1*
X27935Y-6796D1*
X27926Y-6671D1*
X27942Y-6547D1*
X27983Y-6429D1*
X28046Y-6321D1*
X28128Y-6228D1*
X28175Y-6193D1*
X28074Y-6092D1*
X27806Y-6091D1*
X27683Y-6072D1*
X27569Y-6013D1*
X27346Y-5797D1*
X26206Y-4656D1*
Y-5566D1*
X26187Y-5689D1*
X26128Y-5803D1*
X25912Y-6026D1*
X23964Y-7974D1*
X23863Y-8047D1*
X23741Y-8086D1*
X23431Y-8091D1*
X23044D1*
X22934Y-8192D1*
X23026Y-8271D1*
X23099Y-8371D1*
X23152Y-8485D1*
X23181Y-8606D1*
X23186Y-8691D1*
X23174Y-8815D1*
X23137Y-8934D1*
X23078Y-9044D1*
X22998Y-9140D1*
X22934Y-9192D1*
X23026Y-9271D1*
X23099Y-9371D1*
X23152Y-9485D1*
X23181Y-9606D1*
X23186Y-9691D1*
X23174Y-9815D1*
X23137Y-9934D1*
X23078Y-10044D1*
X22998Y-10140D1*
X22934Y-10192D1*
X23026Y-10271D1*
X23099Y-10371D1*
X23152Y-10485D1*
X23181Y-10606D1*
X23186Y-10691D1*
X23174Y-10815D1*
X23137Y-10934D1*
X23078Y-11044D1*
X22998Y-11140D1*
X22934Y-11192D1*
X22991Y-11235D1*
X23072Y-11329D1*
X23133Y-11438D1*
X23172Y-11557D1*
X23186Y-11691D1*
X23174Y-11815D1*
X23137Y-11934D1*
X23078Y-12044D1*
X22998Y-12140D1*
X22901Y-12218D1*
X22790Y-12276D1*
X22670Y-12311D1*
X22546Y-12321D1*
X22422Y-12307D1*
X22303Y-12268D1*
X22195Y-12207D1*
X22100Y-12126D1*
X22023Y-12028D1*
X21967Y-11916D1*
X21935Y-11796D1*
X21926Y-11671D1*
X21942Y-11547D1*
X21983Y-11429D1*
X22046Y-11321D1*
X22128Y-11228D1*
X22172Y-11191D1*
X22100Y-11126D1*
X22023Y-11028D1*
X21967Y-10916D1*
X21935Y-10796D1*
X21926Y-10671D1*
X21942Y-10547D1*
X21983Y-10429D1*
X22046Y-10321D1*
X22128Y-10228D1*
X22175Y-10193D1*
X22100Y-10126D1*
X22023Y-10028D1*
X21967Y-9916D1*
X21935Y-9796D1*
X21926Y-9671D1*
X21942Y-9547D1*
X21983Y-9429D1*
X22046Y-9321D1*
X22128Y-9228D1*
X22175Y-9193D1*
X22100Y-9126D1*
X22023Y-9028D1*
X21967Y-8916D1*
X21935Y-8796D1*
X21926Y-8671D1*
X21942Y-8547D1*
X21983Y-8429D1*
X22046Y-8321D1*
X22128Y-8228D1*
X22175Y-8193D1*
X22100Y-8126D1*
X22030Y-8037D1*
X21153Y-8909D1*
X20709Y-9354D1*
X20706Y-11191D1*
Y-11687D1*
X20936Y-11686D1*
Y-12946D1*
X20550D1*
X21817Y-14212D1*
X21792Y-14120D1*
X21781Y-13995D1*
X21795Y-13871D1*
X21832Y-13752D1*
X21891Y-13642D1*
X21970Y-13546D1*
X22066Y-13466D1*
X22175Y-13406D1*
X22294Y-13368D1*
X22418Y-13354D1*
X22543Y-13363D1*
X22663Y-13396D1*
X22775Y-13452D1*
X22874Y-13528D1*
X22957Y-13621D1*
X23020Y-13729D1*
X23062Y-13846D1*
X23080Y-13970D1*
X23073Y-14103D1*
X23043Y-14224D1*
X22989Y-14337D1*
X22915Y-14437D1*
X22823Y-14522D1*
X22717Y-14587D1*
X22600Y-14631D1*
X22477Y-14652D1*
X22352Y-14649D1*
X22225Y-14620D1*
X22739Y-15133D1*
X22813Y-15233D1*
X22851Y-15326D1*
X22906Y-15353D1*
X23081D1*
Y-16653D1*
X21781D1*
Y-15407D1*
X19999Y-13624D1*
X16181Y-13626D1*
X16058Y-13608D1*
X15966Y-13569D1*
X15874Y-13499D1*
X15318Y-12943D1*
X15172Y-12932D1*
X15053Y-12893D1*
X14945Y-12832D1*
X14850Y-12751D1*
X14809Y-12699D1*
X14748Y-12765D1*
X14651Y-12843D1*
X14540Y-12901D1*
X14420Y-12936D1*
X14296Y-12946D1*
X14172Y-12932D1*
X14053Y-12893D1*
X13945Y-12832D1*
X13850Y-12751D1*
X13809Y-12699D1*
X13711Y-12799D1*
X13608Y-12869D1*
X13493Y-12918D1*
X13371Y-12943D1*
X13246D1*
X13124Y-12919D1*
X13008Y-12872D1*
X12905Y-12802D1*
X12817Y-12713D1*
X12748Y-12609D1*
X12701Y-12494D1*
X12678Y-12371D1*
X12680Y-12246D1*
X12706Y-12124D1*
X12755Y-12010D1*
X12826Y-11907D1*
X12916Y-11821D1*
X13022Y-11754D1*
X13138Y-11708D1*
X13261Y-11687D1*
X13386Y-11691D1*
X13507Y-11719D1*
X13621Y-11770D1*
X13723Y-11843D1*
X13806Y-11932D1*
X13878Y-11853D1*
X13978Y-11778D1*
X14090Y-11724D1*
X14211Y-11693D1*
X14336Y-11686D1*
X14459Y-11705D1*
X14577Y-11747D1*
X14684Y-11811D1*
X14776Y-11896D1*
X14806Y-11937D1*
X14878Y-11853D1*
X14978Y-11778D1*
X15090Y-11724D1*
X15211Y-11693D1*
X15336Y-11686D1*
X15459Y-11705D1*
X15577Y-11747D1*
X15684Y-11811D1*
X15776Y-11896D1*
X15806Y-11937D1*
X15906Y-11832D1*
Y-8984D1*
X12273Y-5349D1*
X12200Y-5248D1*
X12161Y-5126D1*
X12156Y-4816D1*
Y-4359D1*
X11790Y-3990D1*
X11703Y-4169D1*
X11623Y-4265D1*
X11559Y-4317D1*
X11651Y-4396D1*
X11724Y-4496D1*
X11777Y-4610D1*
X11806Y-4731D1*
X11811Y-4816D1*
X11799Y-4940D1*
X11762Y-5059D1*
X11703Y-5169D1*
X11623Y-5265D1*
X11526Y-5343D1*
X11415Y-5401D1*
X11295Y-5436D1*
X11171Y-5446D1*
X11047Y-5432D1*
X10928Y-5393D1*
X10820Y-5332D1*
X10725Y-5251D1*
X10648Y-5153D1*
X10592Y-5041D1*
X10560Y-4921D1*
X10551Y-4796D1*
X10567Y-4672D1*
X10608Y-4554D1*
X10671Y-4446D1*
X10753Y-4353D1*
X10800Y-4318D1*
X10725Y-4251D1*
X10648Y-4153D1*
X10592Y-4041D1*
X10560Y-3921D1*
X10551Y-3796D1*
X10567Y-3672D1*
X10608Y-3554D1*
X10671Y-3446D1*
X10753Y-3353D1*
X10800Y-3318D1*
X10725Y-3251D1*
X10648Y-3153D1*
X10592Y-3041D1*
X10560Y-2921D1*
X10551Y-2796D1*
X10567Y-2672D1*
X10608Y-2554D1*
X10671Y-2446D1*
X10753Y-2353D1*
X10800Y-2318D1*
X10725Y-2251D1*
X10648Y-2153D1*
X10592Y-2041D1*
X10560Y-1921D1*
X10551Y-1796D1*
X10567Y-1672D1*
X10608Y-1554D1*
X10671Y-1446D1*
X10753Y-1353D1*
X10800Y-1318D1*
X10725Y-1251D1*
X10648Y-1153D1*
X10592Y-1041D1*
X10560Y-921D1*
X10551Y-796D1*
X10567Y-672D1*
X10608Y-554D1*
X10671Y-446D1*
X10753Y-353D1*
X10800Y-318D1*
X10725Y-251D1*
X10648Y-153D1*
X10592Y-41D1*
X10560Y79D1*
X10551Y204D1*
X10567Y328D1*
X10608Y446D1*
X10671Y554D1*
X10753Y647D1*
X10800Y682D1*
X10725Y749D1*
X10648Y847D1*
X10592Y959D1*
X10560Y1079D1*
X10551Y1204D1*
X10567Y1328D1*
X10608Y1446D1*
X10671Y1554D1*
X10753Y1647D1*
X10853Y1722D1*
X10965Y1776D1*
X11086Y1807D1*
X11211Y1814D1*
X11334Y1795D1*
X11452Y1753D1*
X11559Y1689D1*
X11651Y1604D1*
X11724Y1504D1*
X11777Y1390D1*
X11806Y1269D1*
X11811Y1184D1*
X11799Y1060D1*
X11762Y941D1*
X11703Y831D1*
X11623Y735D1*
X11559Y683D1*
X11651Y604D1*
X11724Y504D1*
X11777Y390D1*
X11806Y269D1*
X11811Y184D1*
X11799Y60D1*
X11762Y-59D1*
X11703Y-169D1*
X11623Y-265D1*
X11559Y-317D1*
X11651Y-396D1*
X11724Y-496D1*
X11777Y-610D1*
X11806Y-731D1*
X11811Y-816D1*
X11799Y-940D1*
X11762Y-1059D1*
X11703Y-1169D1*
X11623Y-1265D1*
X11559Y-1317D1*
X11651Y-1396D1*
X11724Y-1496D1*
X11777Y-1610D1*
X11806Y-1731D1*
X11811Y-1816D1*
X11799Y-1940D1*
X11762Y-2059D1*
X11703Y-2169D1*
X11623Y-2265D1*
X11559Y-2317D1*
X11651Y-2396D1*
X11724Y-2496D1*
X11777Y-2610D1*
X11806Y-2731D1*
Y-2874D1*
X12839Y-3908D1*
X12912Y-4009D1*
X12951Y-4131D1*
X12956Y-4441D1*
Y-4898D1*
X16589Y-8533D1*
X16662Y-8634D1*
X16701Y-8756D1*
X16706Y-9066D1*
Y-11828D1*
X16806Y-11937D1*
X16906Y-11832D1*
Y-11066D1*
X16925Y-10943D1*
X16984Y-10829D1*
X17200Y-10606D1*
X20783Y-7024D1*
X20781Y-2066D1*
X20800Y-1943D1*
X20859Y-1829D1*
X21075Y-1606D1*
X21929Y-753D1*
X21926Y-671D1*
X21942Y-547D1*
X21983Y-429D1*
X22046Y-321D1*
X22128Y-228D1*
X22175Y-193D1*
X22100Y-126D1*
X22023Y-28D1*
X21967Y84D1*
X21935Y204D1*
X21926Y329D1*
X21942Y453D1*
X21983Y571D1*
X22048Y682D1*
X21926Y679D1*
Y1939D1*
X22156D1*
Y2766D1*
X18763Y6162D1*
X17556Y6159D1*
X15556D1*
X15433Y6178D1*
X15319Y6237D1*
X15096Y6453D1*
X14048Y7501D1*
X13974Y7606D1*
X13950Y7654D1*
X13701D1*
Y8408D1*
X5306Y8409D1*
X4931D1*
X4808Y8428D1*
X4694Y8487D1*
X4557Y8617D1*
X4512Y8441D1*
X4453Y8331D1*
X4373Y8235D1*
X4309Y8183D1*
X4401Y8104D1*
X4474Y8004D1*
X4527Y7890D1*
X4556Y7769D1*
X4561Y7684D1*
X4549Y7560D1*
X4512Y7441D1*
X4453Y7331D1*
X4373Y7235D1*
X4309Y7183D1*
X4401Y7104D1*
X4474Y7004D1*
X4527Y6890D1*
X4556Y6769D1*
X4561Y6684D1*
X4549Y6560D1*
X4512Y6441D1*
X4453Y6331D1*
X4373Y6235D1*
X4309Y6183D1*
X4401Y6104D1*
X4474Y6004D1*
X4527Y5890D1*
X4556Y5769D1*
X4561Y5684D1*
X4549Y5560D1*
X4512Y5441D1*
X4453Y5331D1*
X4373Y5235D1*
X4309Y5183D1*
X4401Y5104D1*
X4474Y5004D1*
X4527Y4890D1*
X4556Y4769D1*
X4561Y4684D1*
X4549Y4560D1*
X4512Y4441D1*
X4453Y4331D1*
X4373Y4235D1*
X4309Y4183D1*
X4401Y4104D1*
X4474Y4004D1*
X4527Y3890D1*
X4556Y3769D1*
X4561Y3684D1*
X4549Y3560D1*
X4512Y3441D1*
X4453Y3331D1*
X4373Y3235D1*
X4309Y3183D1*
X4401Y3104D1*
X4474Y3004D1*
X4527Y2890D1*
X4556Y2769D1*
X4561Y2684D1*
X4549Y2560D1*
X4512Y2441D1*
X4453Y2331D1*
X4373Y2235D1*
X4309Y2183D1*
X4401Y2104D1*
X4474Y2004D1*
X4527Y1890D1*
X4556Y1769D1*
X4560Y1703D1*
X4660Y1719D1*
X4784Y1709D1*
X4903Y1671D1*
X5010Y1606D1*
X5035Y1582D1*
X6056Y1584D1*
X6951D1*
X7046Y1652D1*
X7162Y1699D1*
X7285Y1719D1*
X7409Y1709D1*
X7528Y1671D1*
X7635Y1606D1*
X7724Y1519D1*
X7790Y1413D1*
X7830Y1295D1*
X7841Y1184D1*
X7827Y1060D1*
X7784Y943D1*
X7715Y839D1*
X7624Y754D1*
X7516Y692D1*
X7396Y657D1*
X7272Y650D1*
X7149Y673D1*
X7035Y723D1*
X6957Y782D1*
X6185Y784D1*
X6191Y684D1*
X6179Y560D1*
X6143Y440D1*
X6084Y330D1*
X6004Y234D1*
X5908Y155D1*
X5797Y97D1*
X5678Y61D1*
X5554Y49D1*
X5429Y62D1*
X5310Y99D1*
X5200Y158D1*
X5104Y238D1*
X5026Y335D1*
X4968Y445D1*
X4932Y565D1*
X4923Y709D1*
X4771Y657D1*
X4647Y650D1*
X4558Y666D1*
X4549Y560D1*
X4512Y441D1*
X4453Y331D1*
X4373Y235D1*
X4309Y183D1*
X4401Y104D1*
X4474Y4D1*
X4527Y-110D1*
X4556Y-231D1*
X4561Y-316D1*
X4549Y-440D1*
X4512Y-559D1*
X4453Y-669D1*
X4373Y-765D1*
X4309Y-817D1*
X4401Y-896D1*
X4474Y-996D1*
X4527Y-1110D1*
X4556Y-1231D1*
X4561Y-1316D1*
X4549Y-1440D1*
X4512Y-1559D1*
X4453Y-1669D1*
X4373Y-1765D1*
X4309Y-1817D1*
X4401Y-1896D1*
X4474Y-1996D1*
X4527Y-2110D1*
X4556Y-2231D1*
X4561Y-2316D1*
X4549Y-2440D1*
X4512Y-2559D1*
X4453Y-2669D1*
X4373Y-2765D1*
X4309Y-2817D1*
X4401Y-2896D1*
X4474Y-2996D1*
X4527Y-3110D1*
X4556Y-3231D1*
X4561Y-3316D1*
X4549Y-3440D1*
X4512Y-3559D1*
X4441Y-3684D1*
X4561Y-3686D1*
Y-4946D1*
X4253D1*
X5222Y-5916D1*
X9556D1*
X9679Y-5935D1*
X9793Y-5994D1*
X10016Y-6210D1*
X10532Y-6726D1*
X29149Y5475D2*
X29133Y5351D1*
X29093Y5233D1*
X29031Y5125D1*
X28949Y5030D1*
X28851Y4953D1*
X28740Y4896D1*
X28620Y4861D1*
X28496Y4850D1*
X28372Y4863D1*
X28252Y4899D1*
X28142Y4957D1*
X28045Y5036D1*
X27965Y5131D1*
X27904Y5241D1*
X27865Y5359D1*
X27850Y5483D1*
X27859Y5608D1*
X27891Y5728D1*
X27946Y5840D1*
X28021Y5940D1*
X28114Y6023D1*
X28221Y6087D1*
X28339Y6130D1*
X28462Y6149D1*
X28587Y6144D1*
X28708Y6116D1*
X28822Y6064D1*
X28924Y5992D1*
X29010Y5902D1*
X29078Y5797D1*
X29124Y5681D1*
X29147Y5559D1*
X29149Y5475D1*
X27975Y4150D2*
X29150D1*
Y2850D1*
X27850D1*
Y4150D1*
X27975D1*
X-12675Y10938D2*
X-12710Y10819D1*
X-12768Y10708D1*
X-12846Y10610D1*
X-12941Y10529D1*
X-13049Y10468D1*
X-13168Y10429D1*
X-13292Y10413D1*
X-13416Y10421D1*
X-13537Y10452D1*
X-13649Y10507D1*
X-13749Y10581D1*
X-13833Y10674D1*
X-13898Y10780D1*
X-13941Y10897D1*
X-13961Y11021D1*
X-13957Y11145D1*
X-13929Y11267D1*
X-13879Y11381D1*
X-13808Y11484D1*
X-13718Y11570D1*
X-13613Y11639D1*
X-13498Y11685D1*
X-13375Y11709D1*
X-13250D1*
X-13128Y11686D1*
X-13012Y11639D1*
X-12908Y11571D1*
X-12818Y11484D1*
X-12746Y11382D1*
X-12696Y11268D1*
X-12668Y11146D1*
X-12663Y11062D1*
X-12675Y10938D1*
X-13837Y9712D2*
X-12663D1*
Y8413D1*
X-13962D1*
Y9712D1*
X-13837D1*
X-18181Y3560D2*
X-18216Y3440D1*
X-18274Y3330D1*
X-18352Y3232D1*
X-18447Y3151D1*
X-18556Y3090D1*
X-18674Y3050D1*
X-18798Y3034D1*
X-18922Y3042D1*
X-19043Y3074D1*
X-19156Y3128D1*
X-19256Y3203D1*
X-19340Y3295D1*
X-19404Y3402D1*
X-19448Y3519D1*
X-19468Y3642D1*
X-19464Y3767D1*
X-19436Y3889D1*
X-19385Y4003D1*
X-19314Y4105D1*
X-19224Y4192D1*
X-19120Y4260D1*
X-19004Y4307D1*
X-18882Y4331D1*
X-18757D1*
X-18634Y4307D1*
X-18519Y4260D1*
X-18414Y4192D1*
X-18324Y4106D1*
X-18253Y4003D1*
X-18202Y3889D1*
X-18174Y3768D1*
X-18169Y3684D1*
X-18181Y3560D1*
X-10487Y12876D2*
X-10523Y12756D1*
X-10580Y12645D1*
X-10658Y12548D1*
X-10753Y12467D1*
X-10862Y12406D1*
X-10980Y12366D1*
X-11104Y12350D1*
X-11229Y12358D1*
X-11349Y12390D1*
X-11462Y12444D1*
X-11562Y12519D1*
X-11646Y12611D1*
X-11710Y12718D1*
X-11754Y12835D1*
X-11774Y12958D1*
X-11770Y13083D1*
X-11742Y13205D1*
X-11691Y13319D1*
X-11620Y13421D1*
X-11530Y13508D1*
X-11426Y13576D1*
X-11310Y13623D1*
X-11188Y13647D1*
X-11063D1*
X-10940Y13623D1*
X-10825Y13576D1*
X-10720Y13508D1*
X-10630Y13422D1*
X-10559Y13319D1*
X-10508Y13205D1*
X-10480Y13084D1*
X-10475Y13000D1*
X-10487Y12876D1*
X-11750Y11650D2*
X-10475D1*
Y10350D1*
X-11775D1*
Y11650D1*
X-11750D1*
X19331Y-7216D2*
X19314Y-7340D1*
X19274Y-7458D1*
X19212Y-7566D1*
X19130Y-7661D1*
X19032Y-7738D1*
X18921Y-7795D1*
X18801Y-7830D1*
X18677Y-7841D1*
X18553Y-7828D1*
X18433Y-7792D1*
X18323Y-7733D1*
X18226Y-7655D1*
X18146Y-7560D1*
X18085Y-7450D1*
X18047Y-7332D1*
X18031Y-7208D1*
X18040Y-7083D1*
X18072Y-6963D1*
X18127Y-6851D1*
X18203Y-6751D1*
X18295Y-6668D1*
X18403Y-6604D1*
X18520Y-6561D1*
X18643Y-6542D1*
X18768Y-6547D1*
X18889Y-6575D1*
X19003Y-6626D1*
X19105Y-6698D1*
X19192Y-6789D1*
X19259Y-6894D1*
X19305Y-7010D1*
X19328Y-7132D1*
X19331Y-7216D1*
X16156Y-6541D2*
X17331D1*
Y-7841D1*
X16031D1*
Y-6541D1*
X16156D1*
X-13383Y-2002D2*
X-12130D1*
Y-3380D1*
X-13508D1*
Y-2002D1*
X-13383D1*
X-16491Y-2815D2*
X-16525Y-2935D1*
X-16579Y-3048D1*
X-16653Y-3148D1*
X-16744Y-3234D1*
X-16849Y-3301D1*
X-16965Y-3349D1*
X-17087Y-3375D1*
X-17211Y-3379D1*
X-17335Y-3360D1*
X-17453Y-3319D1*
X-17561Y-3258D1*
X-17657Y-3178D1*
X-17737Y-3082D1*
X-17798Y-2973D1*
X-17839Y-2855D1*
X-17857Y-2732D1*
X-17853Y-2607D1*
X-17827Y-2485D1*
X-17779Y-2370D1*
X-17711Y-2265D1*
X-17625Y-2174D1*
X-17525Y-2100D1*
X-17412Y-2046D1*
X-17292Y-2013D1*
X-17168Y-2002D1*
X-17043Y-2013D1*
X-16923Y-2047D1*
X-16811Y-2102D1*
X-16711Y-2176D1*
X-16625Y-2267D1*
X-16558Y-2372D1*
X-16511Y-2488D1*
X-16485Y-2610D1*
X-16480Y-2691D1*
X-16491Y-2815D1*
X-22939Y-2561D2*
X-21686D1*
Y-3939D1*
X-23064D1*
Y-2561D1*
X-22939D1*
X-21697Y-7725D2*
X-21731Y-7845D1*
X-21785Y-7957D1*
X-21859Y-8058D1*
X-21950Y-8143D1*
X-22055Y-8211D1*
X-22170Y-8259D1*
X-22292Y-8285D1*
X-22417Y-8288D1*
X-22541Y-8270D1*
X-22659Y-8229D1*
X-22767Y-8167D1*
X-22863Y-8087D1*
X-22943Y-7991D1*
X-23004Y-7882D1*
X-23045Y-7764D1*
X-23063Y-7641D1*
X-23059Y-7516D1*
X-23033Y-7394D1*
X-22985Y-7279D1*
X-22917Y-7174D1*
X-22831Y-7084D1*
X-22730Y-7010D1*
X-22618Y-6955D1*
X-22498Y-6922D1*
X-22373Y-6911D1*
X-22249Y-6923D1*
X-22129Y-6956D1*
X-22017Y-7011D1*
X-21917Y-7086D1*
X-21831Y-7177D1*
X-21764Y-7282D1*
X-21716Y-7397D1*
X-21690Y-7519D1*
X-21686Y-7600D1*
X-21697Y-7725D1*
X-26594Y-14166D2*
X-25419D1*
Y-15466D1*
X-25433Y-15470D1*
X-25419Y-15603D1*
X-25431Y-15728D1*
X-25466Y-15847D1*
X-25524Y-15958D1*
X-25602Y-16055D1*
X-25697Y-16136D1*
X-25806Y-16198D1*
X-25924Y-16237D1*
X-26048Y-16253D1*
X-26172Y-16245D1*
X-26293Y-16213D1*
X-26406Y-16159D1*
X-26506Y-16085D1*
X-26590Y-15992D1*
X-26654Y-15886D1*
X-26698Y-15768D1*
X-26718Y-15645D1*
X-26714Y-15520D1*
X-26704Y-15466D1*
X-26719D1*
Y-14166D1*
X-26594D1*
X-12293Y16293D2*
X-11695D1*
X-11784Y16411D1*
X-11836Y16525D1*
X-11865Y16646D1*
X-11872Y16771D1*
X-11855Y16894D1*
X-11816Y17013D1*
X-11755Y17122D1*
X-11675Y17217D1*
X-11578Y17297D1*
X-11469Y17356D1*
X-11350Y17395D1*
X-11226Y17410D1*
X-11101Y17403D1*
X-10981Y17372D1*
X-10867Y17319D1*
X-10766Y17246D1*
X-10661Y17126D1*
X-10584Y17217D1*
X-10488Y17297D1*
X-10378Y17356D1*
X-10259Y17395D1*
X-10136Y17410D1*
X-10011Y17403D1*
X-9890Y17372D1*
X-9777Y17319D1*
X-9675Y17246D1*
X-9570Y17126D1*
X-9494Y17217D1*
X-9397Y17297D1*
X-9288Y17356D1*
X-9169Y17395D1*
X-9045Y17410D1*
X-8920Y17403D1*
X-8799Y17372D1*
X-8686Y17319D1*
X-8585Y17246D1*
X-8480Y17126D1*
X-8403Y17217D1*
X-8307Y17297D1*
X-8197Y17356D1*
X-8078Y17395D1*
X-7954Y17410D1*
X-7830Y17403D1*
X-7709Y17372D1*
X-7596Y17319D1*
X-7494Y17246D1*
X-7408Y17156D1*
X-7341Y17051D1*
X-7294Y16935D1*
X-7269Y16813D1*
X-7265Y16743D1*
X-7277Y16619D1*
X-7312Y16499D1*
X-7368Y16388D1*
X-7442Y16292D1*
X-7309Y16288D1*
X-7187Y16262D1*
X-7072Y16213D1*
X-6968Y16144D1*
X-6879Y16057D1*
X-6807Y15955D1*
X-6756Y15841D1*
X-6727Y15720D1*
X-6721Y15600D1*
X-6737Y15476D1*
X-6776Y15358D1*
X-6836Y15249D1*
X-6916Y15152D1*
X-7012Y15073D1*
X-7122Y15013D1*
X-7240Y14974D1*
X-7364Y14958D1*
X-7489Y14965D1*
X-7610Y14995D1*
X-7723Y15048D1*
X-7825Y15120D1*
X-7911Y15210D1*
X-7933Y15240D1*
X-7989Y15170D1*
X-8082Y15087D1*
X-8189Y15023D1*
X-8307Y14980D1*
X-8430Y14959D1*
X-8554Y14962D1*
X-8677Y14987D1*
X-8792Y15035D1*
X-8896Y15104D1*
X-8986Y15191D1*
X-9024Y15245D1*
X-9080Y15170D1*
X-9173Y15087D1*
X-9280Y15023D1*
X-9397Y14980D1*
X-9520Y14959D1*
X-9645Y14962D1*
X-9767Y14987D1*
X-9882Y15035D1*
X-9987Y15104D1*
X-10076Y15191D1*
X-10114Y15245D1*
X-10170Y15170D1*
X-10264Y15087D1*
X-10371Y15023D1*
X-10488Y14980D1*
X-10611Y14959D1*
X-10735Y14962D1*
X-10858Y14987D1*
X-10973Y15035D1*
X-11080Y15107D1*
X-11082Y14957D1*
X-12418D1*
Y16293D1*
X-12293D1*
X-13222Y16059D2*
X-13271Y15814D1*
X-13367Y15584D1*
X-13505Y15376D1*
X-13682Y15200D1*
X-13890Y15062D1*
X-14120Y14966D1*
X-14365Y14918D1*
X-14615D1*
X-14860Y14967D1*
X-15090Y15063D1*
X-15297Y15203D1*
X-15473Y15379D1*
X-15612Y15587D1*
X-15706Y15818D1*
X-15754Y16063D1*
Y16313D1*
X-15704Y16557D1*
X-15608Y16788D1*
X-15468Y16995D1*
X-15291Y17170D1*
X-15083Y17308D1*
X-14852Y17403D1*
X-14607Y17450D1*
X-14358Y17449D1*
X-14113Y17399D1*
X-13883Y17303D1*
X-13676Y17163D1*
X-13501Y16986D1*
X-13363Y16777D1*
X-13269Y16546D1*
X-13222Y16301D1*
Y16059D1*
X-3384D2*
X-3432Y15814D1*
X-3528Y15584D1*
X-3667Y15376D1*
X-3843Y15200D1*
X-4051Y15062D1*
X-4282Y14966D1*
X-4527Y14918D1*
X-4776D1*
X-5021Y14967D1*
X-5251Y15063D1*
X-5459Y15203D1*
X-5635Y15379D1*
X-5773Y15587D1*
X-5868Y15818D1*
X-5916Y16063D1*
X-5915Y16313D1*
X-5866Y16557D1*
X-5769Y16788D1*
X-5630Y16995D1*
X-5453Y17170D1*
X-5245Y17308D1*
X-5014Y17403D1*
X-4769Y17450D1*
X-4519Y17449D1*
X-4274Y17399D1*
X-4044Y17303D1*
X-3838Y17163D1*
X-3662Y16986D1*
X-3524Y16777D1*
X-3430Y16546D1*
X-3383Y16301D1*
X-3384Y16059D1*
X-16577Y-6315D2*
X-16612Y-6435D1*
X-16669Y-6546D1*
X-16746Y-6644D1*
X-16840Y-6727D1*
X-16948Y-6790D1*
X-17066Y-6831D1*
X-17189Y-6850D1*
X-17314Y-6845D1*
X-17435Y-6816D1*
X-17549Y-6766D1*
X-17652Y-6694D1*
X-17739Y-6605D1*
X-17808Y-6501D1*
X-17856Y-6386D1*
X-17881Y-6264D1*
X-17883Y-6139D1*
X-17862Y-6016D1*
X-17817Y-5899D1*
X-17752Y-5793D1*
X-17667Y-5701D1*
X-17567Y-5627D1*
X-17455Y-5572D1*
X-17334Y-5540D1*
X-17210Y-5531D1*
X-17086Y-5546D1*
X-16967Y-5584D1*
X-16857Y-5644D1*
X-16761Y-5723D1*
X-16681Y-5819D1*
X-16620Y-5928D1*
X-16582Y-6046D1*
X-16566Y-6191D1*
X-16577Y-6315D1*
X-18546D2*
X-18581Y-6435D1*
X-18638Y-6546D1*
X-18715Y-6644D1*
X-18809Y-6727D1*
X-18916Y-6790D1*
X-19034Y-6831D1*
X-19157Y-6850D1*
X-19282Y-6845D1*
X-19404Y-6816D1*
X-19518Y-6766D1*
X-19620Y-6694D1*
X-19707Y-6605D1*
X-19776Y-6501D1*
X-19824Y-6386D1*
X-19850Y-6264D1*
X-19852Y-6139D1*
X-19830Y-6016D1*
X-19786Y-5899D1*
X-19720Y-5793D1*
X-19636Y-5701D1*
X-19536Y-5627D1*
X-19423Y-5572D1*
X-19303Y-5540D1*
X-19178Y-5531D1*
X-19054Y-5546D1*
X-18935Y-5584D1*
X-18826Y-5644D1*
X-18729Y-5723D1*
X-18649Y-5819D1*
X-18589Y-5928D1*
X-18550Y-6046D1*
X-18534Y-6191D1*
X-18546Y-6315D1*
X-16696Y435D2*
X-16732Y315D1*
X-16791Y205D1*
X-16871Y109D1*
X-16967Y30D1*
X-17078Y-28D1*
X-17197Y-64D1*
X-17321Y-76D1*
X-17446Y-63D1*
X-17565Y-26D1*
X-17675Y33D1*
X-17771Y113D1*
X-17849Y210D1*
X-17907Y320D1*
X-17943Y440D1*
X-17954Y564D1*
X-17941Y688D1*
X-17903Y807D1*
X-17844Y917D1*
X-17763Y1013D1*
X-17666Y1091D1*
X-17555Y1148D1*
X-17436Y1183D1*
X-17311Y1194D1*
X-17187Y1180D1*
X-17068Y1143D1*
X-16959Y1082D1*
X-16864Y1002D1*
X-16786Y904D1*
X-16729Y793D1*
X-16694Y673D1*
X-16684Y559D1*
X-16696Y435D1*
X-21446Y-9065D2*
X-21482Y-9185D1*
X-21541Y-9295D1*
X-21621Y-9391D1*
X-21717Y-9470D1*
X-21828Y-9528D1*
X-21947Y-9564D1*
X-22071Y-9576D1*
X-22196Y-9563D1*
X-22315Y-9526D1*
X-22425Y-9467D1*
X-22521Y-9387D1*
X-22599Y-9290D1*
X-22657Y-9180D1*
X-22693Y-9060D1*
X-22704Y-8936D1*
X-22691Y-8812D1*
X-22653Y-8693D1*
X-22594Y-8583D1*
X-22513Y-8487D1*
X-22416Y-8409D1*
X-22305Y-8352D1*
X-22186Y-8317D1*
X-22061Y-8306D1*
X-21937Y-8320D1*
X-21818Y-8357D1*
X-21709Y-8418D1*
X-21614Y-8498D1*
X-21536Y-8596D1*
X-21479Y-8707D1*
X-21444Y-8827D1*
X-21434Y-8941D1*
X-21446Y-9065D1*
X-21579Y-13340D2*
X-21621Y-13391D1*
X-21717Y-13470D1*
X-21828Y-13528D1*
X-21947Y-13564D1*
X-22071Y-13576D1*
X-22196Y-13563D1*
X-22315Y-13526D1*
X-22425Y-13467D1*
X-22521Y-13387D1*
X-22599Y-13290D1*
X-22657Y-13180D1*
X-22693Y-13060D1*
X-22704Y-12936D1*
X-22691Y-12812D1*
X-22653Y-12693D1*
X-22594Y-12583D1*
X-22513Y-12487D1*
X-22416Y-12409D1*
X-22305Y-12352D1*
X-22186Y-12317D1*
X-22061Y-12306D1*
X-21937Y-12320D1*
X-21818Y-12357D1*
X-21709Y-12418D1*
X-21614Y-12498D1*
X-21577Y-12544D1*
X-21069Y-12541D1*
X-20010D1*
X-20072Y-12518D1*
X-20180Y-12457D1*
X-20275Y-12376D1*
X-20352Y-12278D1*
X-20408Y-12166D1*
X-20440Y-12046D1*
X-20449Y-11921D1*
X-20433Y-11797D1*
X-20392Y-11679D1*
X-20329Y-11571D1*
X-20247Y-11478D1*
X-20200Y-11443D1*
X-20275Y-11376D1*
X-20352Y-11278D1*
X-20408Y-11166D1*
X-20440Y-11046D1*
X-20449Y-10921D1*
X-20433Y-10797D1*
X-20392Y-10679D1*
X-20329Y-10571D1*
X-20247Y-10478D1*
X-20200Y-10443D1*
X-20292Y-10357D1*
X-20365Y-10256D1*
X-20416Y-10142D1*
X-20444Y-10021D1*
X-20448Y-9896D1*
X-20426Y-9773D1*
X-20381Y-9657D1*
X-20329Y-9571D1*
X-20449D1*
Y-8311D1*
X-19189D1*
Y-9571D1*
X-19310D1*
X-19252Y-9665D1*
X-19209Y-9783D1*
X-19190Y-9906D1*
X-19197Y-10041D1*
X-19228Y-10161D1*
X-19283Y-10273D1*
X-19359Y-10372D1*
X-19435Y-10441D1*
X-19349Y-10521D1*
X-19276Y-10621D1*
X-19223Y-10735D1*
X-19194Y-10856D1*
X-19189Y-10941D1*
X-19201Y-11065D1*
X-19238Y-11184D1*
X-19297Y-11294D1*
X-19377Y-11390D1*
X-19441Y-11442D1*
X-19349Y-11521D1*
X-19276Y-11621D1*
X-19223Y-11735D1*
X-19194Y-11856D1*
X-19189Y-11941D1*
X-19201Y-12065D1*
X-19238Y-12184D1*
X-19297Y-12294D1*
X-19377Y-12390D1*
X-19474Y-12468D1*
X-19585Y-12526D1*
X-19633Y-12540D1*
X-17987Y-12541D1*
X-17447Y-12003D1*
X-17449Y-11921D1*
X-17433Y-11797D1*
X-17392Y-11679D1*
X-17329Y-11571D1*
X-17247Y-11478D1*
X-17200Y-11443D1*
X-17275Y-11376D1*
X-17352Y-11278D1*
X-17408Y-11166D1*
X-17440Y-11046D1*
X-17449Y-10921D1*
X-17433Y-10797D1*
X-17392Y-10679D1*
X-17329Y-10571D1*
X-17247Y-10478D1*
X-17200Y-10443D1*
X-17292Y-10357D1*
X-17365Y-10256D1*
X-17416Y-10142D1*
X-17444Y-10021D1*
X-17448Y-9896D1*
X-17426Y-9773D1*
X-17381Y-9657D1*
X-17314Y-9551D1*
X-17228Y-9461D1*
X-17203Y-9441D1*
X-17275Y-9376D1*
X-17352Y-9278D1*
X-17408Y-9166D1*
X-17440Y-9046D1*
X-17449Y-8921D1*
X-17433Y-8797D1*
X-17392Y-8679D1*
X-17329Y-8571D1*
X-17247Y-8478D1*
X-17147Y-8403D1*
X-17035Y-8349D1*
X-16914Y-8318D1*
X-16789Y-8311D1*
X-16666Y-8330D1*
X-16548Y-8372D1*
X-16441Y-8436D1*
X-16349Y-8521D1*
X-16276Y-8621D1*
X-16223Y-8735D1*
X-16194Y-8856D1*
X-16189Y-8941D1*
X-16201Y-9065D1*
X-16238Y-9184D1*
X-16297Y-9294D1*
X-16377Y-9390D1*
X-16441Y-9442D1*
X-16384Y-9485D1*
X-16303Y-9579D1*
X-16242Y-9688D1*
X-16203Y-9807D1*
X-16189Y-9941D1*
X-16201Y-10065D1*
X-16238Y-10184D1*
X-16297Y-10294D1*
X-16377Y-10390D1*
X-16435Y-10441D1*
X-16349Y-10521D1*
X-16276Y-10621D1*
X-16223Y-10735D1*
X-16194Y-10856D1*
X-16189Y-10941D1*
X-16201Y-11065D1*
X-16238Y-11184D1*
X-16297Y-11294D1*
X-16377Y-11390D1*
X-16441Y-11442D1*
X-16349Y-11521D1*
X-16276Y-11621D1*
X-16223Y-11735D1*
X-16194Y-11856D1*
X-16189Y-11941D1*
X-16201Y-12065D1*
X-16238Y-12184D1*
X-16297Y-12294D1*
X-16377Y-12390D1*
X-16474Y-12468D1*
X-16585Y-12526D1*
X-16705Y-12561D1*
X-16829Y-12571D1*
X-16879Y-12565D1*
X-17536Y-13224D1*
X-17637Y-13297D1*
X-17759Y-13336D1*
X-18069Y-13341D1*
X-21573D1*
X10179Y-4565D2*
X10143Y-4685D1*
X10084Y-4795D1*
X10004Y-4891D1*
X9908Y-4970D1*
X9797Y-5028D1*
X9678Y-5064D1*
X9554Y-5076D1*
X9429Y-5063D1*
X9310Y-5026D1*
X9200Y-4967D1*
X9104Y-4887D1*
X9026Y-4790D1*
X8968Y-4680D1*
X8932Y-4560D1*
X8921Y-4436D1*
X8934Y-4312D1*
X8972Y-4193D1*
X9031Y-4083D1*
X9112Y-3987D1*
X9209Y-3909D1*
X9320Y-3852D1*
X9439Y-3817D1*
X9564Y-3806D1*
X9688Y-3820D1*
X9807Y-3857D1*
X9916Y-3918D1*
X10011Y-3998D1*
X10089Y-4096D1*
X10146Y-4207D1*
X10181Y-4327D1*
X10191Y-4441D1*
X10179Y-4565D1*
X6179D2*
X6143Y-4685D1*
X6084Y-4795D1*
X6004Y-4891D1*
X5908Y-4970D1*
X5797Y-5028D1*
X5678Y-5064D1*
X5554Y-5076D1*
X5429Y-5063D1*
X5310Y-5026D1*
X5200Y-4967D1*
X5104Y-4887D1*
X5026Y-4790D1*
X4968Y-4680D1*
X4932Y-4560D1*
X4921Y-4436D1*
X4934Y-4312D1*
X4972Y-4193D1*
X5031Y-4083D1*
X5112Y-3987D1*
X5209Y-3909D1*
X5268Y-3879D1*
X5200Y-3842D1*
X5104Y-3762D1*
X5026Y-3665D1*
X4968Y-3555D1*
X4932Y-3435D1*
X4921Y-3311D1*
X4934Y-3187D1*
X4972Y-3068D1*
X5031Y-2958D1*
X5112Y-2862D1*
X5209Y-2784D1*
X5346Y-2719D1*
X5274Y-2702D1*
X5160Y-2652D1*
X5060Y-2577D1*
X4981Y-2480D1*
X4926Y-2368D1*
X4899Y-2247D1*
X4901Y-2122D1*
X4931Y-2001D1*
X4996Y-1881D1*
X4926Y-1743D1*
X4899Y-1622D1*
X4901Y-1497D1*
X4931Y-1376D1*
X4996Y-1256D1*
X4926Y-1118D1*
X4899Y-997D1*
X4901Y-872D1*
X4931Y-751D1*
X4989Y-640D1*
X5070Y-546D1*
X5171Y-473D1*
X5287Y-426D1*
X5410Y-406D1*
X5534Y-416D1*
X5653Y-454D1*
X5760Y-519D1*
X5785Y-543D1*
X6806Y-541D1*
X8076D1*
X8171Y-473D1*
X8283Y-427D1*
X8274Y-372D1*
X8276Y-247D1*
X8306Y-126D1*
X8364Y-15D1*
X8407Y35D1*
X8406Y2829D1*
X8356Y2895D1*
X8301Y3007D1*
X8274Y3128D1*
X8276Y3253D1*
X8306Y3374D1*
X8364Y3485D1*
X8445Y3579D1*
X8546Y3652D1*
X8662Y3699D1*
X8785Y3719D1*
X8909Y3709D1*
X9028Y3671D1*
X9135Y3606D1*
X9224Y3519D1*
X9290Y3413D1*
X9330Y3295D1*
X9341Y3184D1*
X9327Y3060D1*
X9284Y2943D1*
X9206Y2831D1*
Y40D1*
X9290Y-87D1*
X9330Y-205D1*
X9341Y-316D1*
X9327Y-440D1*
X9284Y-557D1*
X9215Y-661D1*
X9124Y-746D1*
X9016Y-808D1*
X8955Y-830D1*
X8966Y-941D1*
X8952Y-1065D1*
X8909Y-1182D1*
X8840Y-1286D1*
X8749Y-1371D1*
X8641Y-1433D1*
X8521Y-1468D1*
X8397Y-1475D1*
X8274Y-1452D1*
X8160Y-1402D1*
X8082Y-1343D1*
X7669Y-1341D1*
X7705Y-1455D1*
X7716Y-1566D1*
X7695Y-1708D1*
X7787Y-1676D1*
X7910Y-1656D1*
X8034Y-1666D1*
X8153Y-1704D1*
X8260Y-1769D1*
X8349Y-1856D1*
X8415Y-1962D1*
X8455Y-2080D1*
X8466Y-2191D1*
X8452Y-2315D1*
X8409Y-2432D1*
X8340Y-2536D1*
X8249Y-2621D1*
X8141Y-2683D1*
X8021Y-2718D1*
X7897Y-2725D1*
X7774Y-2702D1*
X7660Y-2652D1*
X7582Y-2593D1*
X6056Y-2591D1*
X5787D1*
X5641Y-2683D1*
X5688Y-2695D1*
X5807Y-2732D1*
X5916Y-2793D1*
X6011Y-2873D1*
X6089Y-2971D1*
X6146Y-3082D1*
X6181Y-3202D1*
X6191Y-3316D1*
X6179Y-3440D1*
X6143Y-3560D1*
X6084Y-3670D1*
X6004Y-3766D1*
X5908Y-3845D1*
X5849Y-3876D1*
X5916Y-3918D1*
X6011Y-3998D1*
X6089Y-4096D1*
X6146Y-4207D1*
X6181Y-4327D1*
X6191Y-4441D1*
X6179Y-4565D1*
X-21446Y-14565D2*
X-21482Y-14685D1*
X-21541Y-14795D1*
X-21621Y-14891D1*
X-21717Y-14970D1*
X-21828Y-15028D1*
X-21947Y-15064D1*
X-22071Y-15076D1*
X-22196Y-15063D1*
X-22315Y-15026D1*
X-22425Y-14967D1*
X-22521Y-14887D1*
X-22599Y-14790D1*
X-22657Y-14680D1*
X-22693Y-14560D1*
X-22704Y-14436D1*
X-22691Y-14312D1*
X-22653Y-14193D1*
X-22594Y-14083D1*
X-22513Y-13987D1*
X-22416Y-13909D1*
X-22305Y-13852D1*
X-22186Y-13817D1*
X-22061Y-13806D1*
X-21937Y-13820D1*
X-21818Y-13857D1*
X-21709Y-13918D1*
X-21614Y-13998D1*
X-21536Y-14096D1*
X-21479Y-14207D1*
X-21444Y-14327D1*
X-21434Y-14441D1*
X-21446Y-14565D1*
X-17434Y-14466D2*
X-17452Y-14590D1*
X-17493Y-14707D1*
X-17556Y-14815D1*
X-17639Y-14908D1*
X-17739Y-14983D1*
X-17851Y-15037D1*
X-17972Y-15068D1*
X-18096Y-15075D1*
X-18220Y-15058D1*
X-18338Y-15016D1*
X-18445Y-14953D1*
X-18538Y-14869D1*
X-18613Y-14769D1*
X-18666Y-14656D1*
X-18697Y-14535D1*
X-18703Y-14411D1*
X-18685Y-14287D1*
X-18643Y-14170D1*
X-18579Y-14063D1*
X-18495Y-13970D1*
X-18395Y-13896D1*
X-18282Y-13843D1*
X-18161Y-13813D1*
X-18036Y-13807D1*
X-17913Y-13825D1*
X-17795Y-13868D1*
X-17689Y-13932D1*
X-17597Y-14017D1*
X-17523Y-14117D1*
X-17470Y-14230D1*
X-17440Y-14351D1*
X-17434Y-14466D1*
X-16536Y-17169D2*
X-16570Y-17289D1*
X-16627Y-17400D1*
X-16702Y-17499D1*
X-16795Y-17582D1*
X-16902Y-17647D1*
X-17019Y-17691D1*
X-17142Y-17712D1*
X-17267Y-17710D1*
X-17389Y-17685D1*
X-17505Y-17637D1*
X-17609Y-17570D1*
X-17700Y-17483D1*
X-17772Y-17382D1*
X-17825Y-17269D1*
X-17856Y-17148D1*
X-17863Y-17023D1*
X-17848Y-16899D1*
X-17809Y-16780D1*
X-17750Y-16671D1*
X-17671Y-16574D1*
X-17575Y-16494D1*
X-17466Y-16433D1*
X-17348Y-16393D1*
X-17225Y-16375D1*
X-17100Y-16381D1*
X-16978Y-16410D1*
X-16865Y-16461D1*
X-16762Y-16533D1*
X-16675Y-16622D1*
X-16605Y-16725D1*
X-16556Y-16840D1*
X-16529Y-16962D1*
X-16524Y-17044D1*
X-16536Y-17169D1*
X-27333Y-5686D2*
X-27453Y-5672D1*
X-27572Y-5634D1*
X-27680Y-5572D1*
X-27775Y-5491D1*
X-27852Y-5393D1*
X-27908Y-5281D1*
X-27940Y-5161D1*
X-27944Y-5110D1*
Y-6234D1*
X-27892Y-6054D1*
X-27829Y-5946D1*
X-27747Y-5853D1*
X-27647Y-5778D1*
X-27535Y-5724D1*
X-27414Y-5693D1*
X-27289Y-5686D1*
X-27333Y-6946D2*
X-27453Y-6932D1*
X-27572Y-6893D1*
X-27680Y-6832D1*
X-27775Y-6751D1*
X-27852Y-6653D1*
X-27908Y-6541D1*
X-27940Y-6421D1*
X-27944Y-6370D1*
Y-7492D1*
X-27892Y-7314D1*
X-27829Y-7206D1*
X-27747Y-7113D1*
X-27647Y-7038D1*
X-27535Y-6984D1*
X-27414Y-6953D1*
X-27289Y-6946D1*
X-23720Y-18631D2*
X-23808Y-18524D1*
X-23847Y-18413D1*
X-23851Y-17986D1*
Y-17771D1*
X-23828Y-17649D1*
X-23753Y-17534D1*
X-23654Y-17435D1*
X-23580Y-17380D1*
X-23470Y-17341D1*
X-23220Y-17337D1*
X-23083Y-17367D1*
X-22825Y-17337D1*
X-22701Y-17350D1*
X-22567Y-17403D1*
X-22520Y-17377D1*
X-22400Y-17343D1*
X-22275Y-17339D1*
X-22153Y-17364D1*
X-22040Y-17416D1*
X-21942Y-17494D1*
X-21865Y-17592D1*
X-21813Y-17705D1*
X-21789Y-17827D1*
X-21787Y-18263D1*
X-21802Y-18387D1*
X-21845Y-18504D1*
X-21914Y-18607D1*
X-22005Y-18692D1*
X-22114Y-18754D1*
X-22234Y-18788D1*
X-22358Y-18793D1*
X-22481Y-18769D1*
X-22569Y-18732D1*
X-22734Y-18788D1*
X-22858Y-18793D1*
X-22981Y-18769D1*
X-23041Y-18742D1*
X-23168Y-18791D1*
X-23417Y-18795D1*
X-23539Y-18772D1*
X-23654Y-18697D1*
X-23720Y-18631D1*
X13806Y-15696D2*
X13748Y-15765D1*
X13651Y-15843D1*
X13540Y-15901D1*
X13420Y-15936D1*
X13296Y-15946D1*
X13172Y-15932D1*
X13053Y-15893D1*
X12945Y-15832D1*
X12850Y-15751D1*
X12773Y-15653D1*
X12717Y-15541D1*
X12685Y-15421D1*
X12676Y-15296D1*
X12692Y-15172D1*
X12733Y-15054D1*
X12796Y-14946D1*
X12878Y-14853D1*
X12978Y-14778D1*
X13090Y-14724D1*
X13211Y-14693D1*
X13336Y-14686D1*
X13459Y-14705D1*
X13577Y-14747D1*
X13684Y-14811D1*
X13776Y-14896D1*
X13806Y-14937D1*
X13878Y-14853D1*
X13978Y-14778D1*
X14090Y-14724D1*
X14211Y-14693D1*
X14336Y-14686D1*
X14459Y-14705D1*
X14577Y-14747D1*
X14684Y-14811D1*
X14776Y-14896D1*
X14806Y-14937D1*
X14878Y-14853D1*
X14978Y-14778D1*
X15090Y-14724D1*
X15211Y-14693D1*
X15336Y-14686D1*
X15459Y-14705D1*
X15577Y-14747D1*
X15684Y-14811D1*
X15776Y-14896D1*
X15806Y-14937D1*
X15878Y-14853D1*
X15978Y-14778D1*
X16090Y-14724D1*
X16211Y-14693D1*
X16336Y-14686D1*
X16459Y-14705D1*
X16577Y-14747D1*
X16684Y-14811D1*
X16776Y-14896D1*
X16806Y-14937D1*
X16878Y-14853D1*
X16978Y-14778D1*
X17090Y-14724D1*
X17211Y-14693D1*
X17336Y-14686D1*
X17459Y-14705D1*
X17577Y-14747D1*
X17684Y-14811D1*
X17776Y-14896D1*
X17806Y-14937D1*
X17878Y-14853D1*
X17978Y-14778D1*
X18090Y-14724D1*
X18211Y-14693D1*
X18336Y-14686D1*
X18459Y-14705D1*
X18577Y-14747D1*
X18684Y-14811D1*
X18776Y-14896D1*
X18806Y-14937D1*
X18878Y-14853D1*
X18978Y-14778D1*
X19090Y-14724D1*
X19211Y-14693D1*
X19336Y-14686D1*
X19459Y-14705D1*
X19577Y-14747D1*
X19684Y-14811D1*
X19776Y-14896D1*
X19806Y-14937D1*
X19878Y-14853D1*
X19978Y-14778D1*
X20090Y-14724D1*
X20211Y-14693D1*
X20336Y-14686D1*
X20459Y-14705D1*
X20577Y-14747D1*
X20684Y-14811D1*
X20776Y-14896D1*
X20849Y-14996D1*
X20902Y-15110D1*
X20931Y-15231D1*
X20936Y-15316D1*
X20924Y-15440D1*
X20887Y-15559D1*
X20828Y-15669D1*
X20748Y-15765D1*
X20651Y-15843D1*
X20540Y-15901D1*
X20420Y-15936D1*
X20296Y-15946D1*
X20172Y-15932D1*
X20053Y-15893D1*
X19945Y-15832D1*
X19850Y-15751D1*
X19809Y-15699D1*
X19748Y-15765D1*
X19651Y-15843D1*
X19540Y-15901D1*
X19420Y-15936D1*
X19296Y-15946D1*
X19172Y-15932D1*
X19053Y-15893D1*
X18945Y-15832D1*
X18850Y-15751D1*
X18809Y-15699D1*
X18748Y-15765D1*
X18651Y-15843D1*
X18540Y-15901D1*
X18420Y-15936D1*
X18296Y-15946D1*
X18172Y-15932D1*
X18053Y-15893D1*
X17945Y-15832D1*
X17850Y-15751D1*
X17809Y-15699D1*
X17748Y-15765D1*
X17651Y-15843D1*
X17540Y-15901D1*
X17420Y-15936D1*
X17296Y-15946D1*
X17172Y-15932D1*
X17053Y-15893D1*
X16945Y-15832D1*
X16850Y-15751D1*
X16809Y-15699D1*
X16748Y-15765D1*
X16651Y-15843D1*
X16540Y-15901D1*
X16420Y-15936D1*
X16296Y-15946D1*
X16172Y-15932D1*
X16053Y-15893D1*
X15945Y-15832D1*
X15850Y-15751D1*
X15809Y-15699D1*
X15748Y-15765D1*
X15651Y-15843D1*
X15540Y-15901D1*
X15420Y-15936D1*
X15296Y-15946D1*
X15172Y-15932D1*
X15053Y-15893D1*
X14945Y-15832D1*
X14850Y-15751D1*
X14809Y-15699D1*
X14748Y-15765D1*
X14651Y-15843D1*
X14540Y-15901D1*
X14420Y-15936D1*
X14296Y-15946D1*
X14172Y-15932D1*
X14053Y-15893D1*
X13945Y-15832D1*
X13850Y-15751D1*
X13809Y-15699D1*
X20188Y-4186D2*
X20311D1*
Y-5446D1*
X19051D1*
Y-4186D1*
X19172D1*
X19092Y-4041D1*
X19060Y-3921D1*
X19051Y-3796D1*
X19067Y-3672D1*
X19108Y-3554D1*
X19171Y-3446D1*
X19253Y-3353D1*
X19300Y-3318D1*
X19225Y-3251D1*
X19148Y-3153D1*
X19092Y-3041D1*
X19060Y-2921D1*
X19051Y-2796D1*
X19067Y-2672D1*
X19108Y-2554D1*
X19171Y-2446D1*
X19253Y-2353D1*
X19300Y-2318D1*
X19225Y-2251D1*
X19148Y-2153D1*
X19092Y-2041D1*
X19060Y-1921D1*
X19051Y-1796D1*
X19067Y-1672D1*
X19108Y-1554D1*
X19171Y-1446D1*
X19253Y-1353D1*
X19300Y-1318D1*
X19225Y-1251D1*
X19148Y-1153D1*
X19092Y-1041D1*
X19060Y-921D1*
X19051Y-796D1*
X19067Y-672D1*
X19108Y-554D1*
X19171Y-446D1*
X19253Y-353D1*
X19300Y-318D1*
X19225Y-251D1*
X19148Y-153D1*
X19092Y-41D1*
X19060Y79D1*
X19051Y204D1*
X19067Y328D1*
X19108Y446D1*
X19171Y554D1*
X19253Y647D1*
X19300Y682D1*
X19208Y768D1*
X19135Y869D1*
X19084Y983D1*
X19056Y1104D1*
X19052Y1229D1*
X19074Y1352D1*
X19119Y1468D1*
X19186Y1574D1*
X19272Y1664D1*
X19375Y1735D1*
X19489Y1784D1*
X19611Y1810D1*
X19736Y1812D1*
X19859Y1789D1*
X19974Y1742D1*
X20078Y1673D1*
X20167Y1585D1*
X20237Y1482D1*
X20284Y1367D1*
X20309Y1244D1*
X20307Y1109D1*
X20280Y987D1*
X20229Y873D1*
X20157Y771D1*
X20065Y684D1*
X20151Y604D1*
X20224Y504D1*
X20277Y390D1*
X20306Y269D1*
X20311Y184D1*
X20299Y60D1*
X20262Y-59D1*
X20203Y-169D1*
X20123Y-265D1*
X20059Y-317D1*
X20151Y-396D1*
X20224Y-496D1*
X20277Y-610D1*
X20306Y-731D1*
X20311Y-816D1*
X20299Y-940D1*
X20262Y-1059D1*
X20203Y-1169D1*
X20123Y-1265D1*
X20059Y-1317D1*
X20151Y-1396D1*
X20224Y-1496D1*
X20277Y-1610D1*
X20306Y-1731D1*
X20311Y-1816D1*
X20299Y-1940D1*
X20262Y-2059D1*
X20203Y-2169D1*
X20123Y-2265D1*
X20059Y-2317D1*
X20151Y-2396D1*
X20224Y-2496D1*
X20277Y-2610D1*
X20306Y-2731D1*
X20311Y-2816D1*
X20299Y-2940D1*
X20262Y-3059D1*
X20203Y-3169D1*
X20123Y-3265D1*
X20059Y-3317D1*
X20151Y-3396D1*
X20224Y-3496D1*
X20277Y-3610D1*
X20306Y-3731D1*
X20311Y-3816D1*
X20299Y-3940D1*
X20262Y-4059D1*
X20191Y-4184D1*
X17299Y1060D2*
X17262Y941D1*
X17203Y831D1*
X17123Y735D1*
X17059Y683D1*
X17151Y604D1*
X17224Y504D1*
X17277Y390D1*
X17306Y269D1*
X17311Y184D1*
X17299Y60D1*
X17262Y-59D1*
X17203Y-169D1*
X17123Y-265D1*
X17059Y-317D1*
X17151Y-396D1*
X17224Y-496D1*
X17277Y-610D1*
X17306Y-731D1*
X17311Y-816D1*
X17299Y-940D1*
X17262Y-1059D1*
X17203Y-1169D1*
X17123Y-1265D1*
X17059Y-1317D1*
X17151Y-1396D1*
X17224Y-1496D1*
X17277Y-1610D1*
X17306Y-1731D1*
X17311Y-1816D1*
X17299Y-1940D1*
X17262Y-2059D1*
X17203Y-2169D1*
X17123Y-2265D1*
X17059Y-2317D1*
X17151Y-2396D1*
X17224Y-2496D1*
X17277Y-2610D1*
X17306Y-2731D1*
X17311Y-2816D1*
X17306Y-2916D1*
X17701D1*
X17796Y-2848D1*
X17912Y-2801D1*
X18035Y-2781D1*
X18159Y-2791D1*
X18278Y-2829D1*
X18385Y-2894D1*
X18474Y-2981D1*
X18540Y-3087D1*
X18580Y-3205D1*
X18591Y-3316D1*
X18577Y-3440D1*
X18534Y-3557D1*
X18465Y-3661D1*
X18374Y-3746D1*
X18266Y-3808D1*
X18146Y-3843D1*
X18022Y-3850D1*
X17899Y-3827D1*
X17785Y-3777D1*
X17707Y-3718D1*
X17302Y-3716D1*
X17311Y-3816D1*
X17299Y-3940D1*
X17262Y-4059D1*
X17203Y-4169D1*
X17123Y-4265D1*
X17059Y-4317D1*
X17151Y-4396D1*
X17224Y-4496D1*
X17277Y-4610D1*
X17306Y-4731D1*
X17311Y-4816D1*
X17299Y-4940D1*
X17262Y-5059D1*
X17203Y-5169D1*
X17123Y-5265D1*
X17026Y-5343D1*
X16915Y-5401D1*
X16795Y-5436D1*
X16671Y-5446D1*
X16547Y-5432D1*
X16428Y-5393D1*
X16320Y-5332D1*
X16225Y-5251D1*
X16148Y-5153D1*
X16092Y-5041D1*
X16060Y-4921D1*
X16051Y-4796D1*
X16067Y-4672D1*
X16108Y-4554D1*
X16171Y-4446D1*
X16253Y-4353D1*
X16300Y-4318D1*
X16225Y-4251D1*
X16148Y-4153D1*
X16092Y-4041D1*
X16060Y-3921D1*
X16051Y-3796D1*
X16056Y-3716D1*
X15912D1*
X15766Y-3808D1*
X15646Y-3843D1*
X15522Y-3850D1*
X15399Y-3827D1*
X15285Y-3777D1*
X15185Y-3702D1*
X15106Y-3605D1*
X15051Y-3493D1*
X15024Y-3372D1*
X15026Y-3247D1*
X15056Y-3126D1*
X15114Y-3015D1*
X15195Y-2921D1*
X15296Y-2848D1*
X15412Y-2801D1*
X15535Y-2781D1*
X15659Y-2791D1*
X15778Y-2829D1*
X15885Y-2894D1*
X15910Y-2918D1*
X16060Y-2916D1*
X16051Y-2796D1*
X16067Y-2672D1*
X16108Y-2554D1*
X16171Y-2446D1*
X16253Y-2353D1*
X16300Y-2318D1*
X16225Y-2251D1*
X16148Y-2153D1*
X16092Y-2041D1*
X16060Y-1921D1*
X16051Y-1796D1*
X16067Y-1672D1*
X16108Y-1554D1*
X16171Y-1446D1*
X16253Y-1353D1*
X16300Y-1318D1*
X16225Y-1251D1*
X16148Y-1153D1*
X16092Y-1041D1*
X16060Y-921D1*
X16051Y-796D1*
X16067Y-672D1*
X16108Y-554D1*
X16171Y-446D1*
X16253Y-353D1*
X16300Y-318D1*
X16225Y-251D1*
X16148Y-153D1*
X16092Y-41D1*
X16060Y79D1*
X16051Y204D1*
X16067Y328D1*
X16108Y446D1*
X16171Y554D1*
X16253Y647D1*
X16300Y682D1*
X16225Y749D1*
X16148Y847D1*
X16092Y959D1*
X16060Y1079D1*
X16051Y1204D1*
X16067Y1328D1*
X16108Y1446D1*
X16171Y1554D1*
X16253Y1647D1*
X16353Y1722D1*
X16465Y1776D1*
X16586Y1807D1*
X16711Y1814D1*
X16834Y1795D1*
X16952Y1753D1*
X17059Y1689D1*
X17151Y1604D1*
X17224Y1504D1*
X17277Y1390D1*
X17306Y1269D1*
X17311Y1184D1*
X17299Y1060D1*
X14688Y-4186D2*
X14811D1*
Y-5446D1*
X13551D1*
Y-4186D1*
X13672D1*
X13592Y-4041D1*
X13560Y-3921D1*
X13551Y-3796D1*
X13567Y-3672D1*
X13608Y-3554D1*
X13671Y-3446D1*
X13753Y-3353D1*
X13800Y-3318D1*
X13725Y-3251D1*
X13648Y-3153D1*
X13592Y-3041D1*
X13560Y-2921D1*
X13551Y-2796D1*
X13567Y-2672D1*
X13608Y-2554D1*
X13671Y-2446D1*
X13753Y-2353D1*
X13800Y-2318D1*
X13725Y-2251D1*
X13648Y-2153D1*
X13592Y-2041D1*
X13560Y-1921D1*
X13551Y-1796D1*
X13567Y-1672D1*
X13608Y-1554D1*
X13671Y-1446D1*
X13753Y-1353D1*
X13800Y-1318D1*
X13725Y-1251D1*
X13648Y-1153D1*
X13592Y-1041D1*
X13560Y-921D1*
X13551Y-796D1*
X13567Y-672D1*
X13608Y-554D1*
X13671Y-446D1*
X13753Y-353D1*
X13800Y-318D1*
X13725Y-251D1*
X13648Y-153D1*
X13592Y-41D1*
X13560Y79D1*
X13551Y204D1*
X13567Y328D1*
X13608Y446D1*
X13671Y554D1*
X13753Y647D1*
X13800Y682D1*
X13708Y768D1*
X13635Y869D1*
X13584Y983D1*
X13556Y1104D1*
X13552Y1229D1*
X13574Y1352D1*
X13619Y1468D1*
X13686Y1574D1*
X13772Y1664D1*
X13875Y1735D1*
X13989Y1784D1*
X14111Y1810D1*
X14236Y1812D1*
X14359Y1789D1*
X14474Y1742D1*
X14578Y1673D1*
X14667Y1585D1*
X14737Y1482D1*
X14784Y1367D1*
X14809Y1244D1*
X14807Y1109D1*
X14780Y987D1*
X14729Y873D1*
X14657Y771D1*
X14565Y684D1*
X14651Y604D1*
X14724Y504D1*
X14777Y390D1*
X14806Y269D1*
X14811Y184D1*
X14799Y60D1*
X14762Y-59D1*
X14703Y-169D1*
X14623Y-265D1*
X14559Y-317D1*
X14651Y-396D1*
X14724Y-496D1*
X14777Y-610D1*
X14806Y-731D1*
X14811Y-816D1*
X14799Y-940D1*
X14762Y-1059D1*
X14703Y-1169D1*
X14623Y-1265D1*
X14559Y-1317D1*
X14651Y-1396D1*
X14724Y-1496D1*
X14777Y-1610D1*
X14806Y-1731D1*
X14811Y-1816D1*
X14799Y-1940D1*
X14762Y-2059D1*
X14703Y-2169D1*
X14623Y-2265D1*
X14559Y-2317D1*
X14651Y-2396D1*
X14724Y-2496D1*
X14777Y-2610D1*
X14806Y-2731D1*
X14811Y-2816D1*
X14799Y-2940D1*
X14762Y-3059D1*
X14703Y-3169D1*
X14623Y-3265D1*
X14559Y-3317D1*
X14651Y-3396D1*
X14724Y-3496D1*
X14777Y-3610D1*
X14806Y-3731D1*
X14811Y-3816D1*
X14799Y-3940D1*
X14762Y-4059D1*
X14691Y-4184D1*
X-23324Y6939D2*
X-22189D1*
Y5679D1*
X-23449D1*
Y6939D1*
X-23324D1*
X-22189Y12284D2*
X-22206Y12160D1*
X-22248Y12043D1*
X-22311Y11935D1*
X-22395Y11843D1*
X-22495Y11768D1*
X-22608Y11715D1*
X-22729Y11685D1*
X-22854Y11680D1*
X-22977Y11699D1*
X-23094Y11742D1*
X-23201Y11807D1*
X-23292Y11893D1*
X-23365Y11994D1*
X-23416Y12108D1*
X-23444Y12229D1*
X-23448Y12354D1*
X-23426Y12477D1*
X-23381Y12593D1*
X-23314Y12699D1*
X-23228Y12789D1*
X-23125Y12860D1*
X-23011Y12909D1*
X-22889Y12935D1*
X-22764Y12937D1*
X-22641Y12914D1*
X-22526Y12867D1*
X-22422Y12798D1*
X-22333Y12710D1*
X-22263Y12607D1*
X-22216Y12492D1*
X-22191Y12369D1*
X-22189Y12284D1*
X-25201Y12185D2*
X-25238Y12066D1*
X-25297Y11956D1*
X-25377Y11860D1*
X-25474Y11782D1*
X-25585Y11724D1*
X-25705Y11689D1*
X-25829Y11679D1*
X-25953Y11693D1*
X-26072Y11732D1*
X-26180Y11793D1*
X-26275Y11874D1*
X-26352Y11972D1*
X-26408Y12084D1*
X-26440Y12204D1*
X-26449Y12329D1*
X-26433Y12453D1*
X-26392Y12571D1*
X-26329Y12679D1*
X-26247Y12772D1*
X-26147Y12847D1*
X-26035Y12901D1*
X-25914Y12932D1*
X-25789Y12939D1*
X-25666Y12920D1*
X-25548Y12878D1*
X-25441Y12814D1*
X-25349Y12729D1*
X-25276Y12629D1*
X-25223Y12515D1*
X-25194Y12394D1*
X-25189Y12309D1*
X-25201Y12185D1*
Y6185D2*
X-25238Y6066D1*
X-25297Y5956D1*
X-25386Y5853D1*
X-25384Y3309D1*
Y2141D1*
X-25276Y2004D1*
X-25223Y1890D1*
X-25194Y1769D1*
X-25189Y1684D1*
X-25201Y1560D1*
X-25238Y1441D1*
X-25297Y1331D1*
X-25377Y1235D1*
X-25474Y1157D1*
X-25585Y1099D1*
X-25705Y1064D1*
X-25829Y1054D1*
X-25953Y1068D1*
X-26072Y1107D1*
X-26180Y1168D1*
X-26275Y1249D1*
X-26352Y1347D1*
X-26408Y1459D1*
X-26440Y1579D1*
X-26449Y1704D1*
X-26433Y1828D1*
X-26392Y1946D1*
X-26329Y2054D1*
X-26254Y2138D1*
Y5852D1*
X-26352Y5972D1*
X-26408Y6084D1*
X-26440Y6204D1*
X-26449Y6329D1*
X-26433Y6453D1*
X-26392Y6571D1*
X-26329Y6679D1*
X-26247Y6772D1*
X-26147Y6847D1*
X-26035Y6901D1*
X-25914Y6932D1*
X-25789Y6939D1*
X-25666Y6920D1*
X-25548Y6878D1*
X-25441Y6814D1*
X-25349Y6729D1*
X-25276Y6629D1*
X-25223Y6515D1*
X-25194Y6394D1*
X-25189Y6309D1*
X-25201Y6185D1*
X-26324Y-686D2*
X-25189D1*
Y-1946D1*
X-26449D1*
Y-686D1*
X-26324D1*
X-19189Y-1341D2*
X-19206Y-1465D1*
X-19248Y-1582D1*
X-19311Y-1690D1*
X-19395Y-1782D1*
X-19495Y-1857D1*
X-19608Y-1910D1*
X-19729Y-1940D1*
X-19854Y-1945D1*
X-19977Y-1926D1*
X-20094Y-1883D1*
X-20201Y-1818D1*
X-20292Y-1732D1*
X-20365Y-1631D1*
X-20416Y-1517D1*
X-20444Y-1396D1*
X-20448Y-1271D1*
X-20426Y-1148D1*
X-20381Y-1032D1*
X-20314Y-926D1*
X-20228Y-836D1*
X-20125Y-765D1*
X-20011Y-716D1*
X-19889Y-690D1*
X-19764Y-688D1*
X-19641Y-711D1*
X-19526Y-758D1*
X-19422Y-827D1*
X-19333Y-915D1*
X-19263Y-1018D1*
X-19216Y-1133D1*
X-19191Y-1256D1*
X-19189Y-1341D1*
X29281Y-13085D2*
Y-11617D1*
X29231Y-11552D1*
X29176Y-11440D1*
X29149Y-11318D1*
X29151Y-11194D1*
X29181Y-11073D1*
X29239Y-10962D1*
X29320Y-10868D1*
X29421Y-10795D1*
X29537Y-10748D1*
X29660Y-10728D1*
X29784Y-10738D1*
X29903Y-10776D1*
X30010Y-10841D1*
X30099Y-10928D1*
X30165Y-11034D1*
X30205Y-11152D1*
X30216Y-11263D1*
X30202Y-11387D1*
X30159Y-11504D1*
X30081Y-11616D1*
Y-11907D1*
X30159Y-11916D1*
X30278Y-11954D1*
X30385Y-12019D1*
X30474Y-12106D1*
X30540Y-12212D1*
X30580Y-12330D1*
X30591Y-12441D1*
X30577Y-12565D1*
X30534Y-12682D1*
X30456Y-12794D1*
Y-16085D1*
X30540Y-16212D1*
X30580Y-16330D1*
X30591Y-16441D1*
X30577Y-16565D1*
X30534Y-16682D1*
X30465Y-16786D1*
X30374Y-16871D1*
X30266Y-16933D1*
X30146Y-16968D1*
X30022Y-16975D1*
X29899Y-16952D1*
X29785Y-16902D1*
X29685Y-16827D1*
X29606Y-16730D1*
X29551Y-16618D1*
X29524Y-16497D1*
X29526Y-16372D1*
X29556Y-16251D1*
X29614Y-16140D1*
X29657Y-16090D1*
X29656Y-13976D1*
X29524Y-13952D1*
X29410Y-13902D1*
X29310Y-13827D1*
X29231Y-13730D1*
X29176Y-13618D1*
X29149Y-13497D1*
X29151Y-13372D1*
X29181Y-13251D1*
X29239Y-13140D1*
X29282Y-13090D1*
X-26625Y-9692D2*
D13*
Y-10834D1*
X-27196Y-10263D2*
X-26625D1*
X-23944Y-9941D2*
Y-10590D1*
X-24593Y-9941D2*
X-23294D1*
X11056Y-13166D2*
Y-14465D1*
X10407Y-13816D2*
X11706D1*
X-14569Y-11941D2*
Y-12590D1*
X-15218Y-11941D2*
X-14569D1*
X12306Y17334D2*
Y16684D1*
X11657D2*
X12956D1*
X-3444Y-1791D2*
Y-3090D1*
X-4093Y-2441D2*
X-3444D1*
X-14694Y-13791D2*
Y-15090D1*
X-15343Y-14441D2*
X-14694D1*
X5744Y5334D2*
Y4035D1*
X5094Y4684D2*
X6393D1*
X-19944Y8209D2*
Y6910D1*
X-20593Y7559D2*
X-19294D1*
X13181Y-6541D2*
Y-7840D1*
X12532Y-7191D2*
X13831D1*
X28500Y6149D2*
Y4851D1*
X27851Y5500D2*
X29149D1*
X-11125Y11649D2*
Y10351D1*
X-11774Y11000D2*
X-10476D1*
X18681Y-6541D2*
Y-7840D1*
X18032Y-7191D2*
X19331D1*
X22431Y-13354D2*
Y-14653D1*
X21782Y-14003D2*
X23081D1*
X-10069Y-13061D2*
Y-14321D1*
X-10699Y-13691D2*
X-10069D1*
X-11069Y9689D2*
Y9059D1*
X-11699D2*
X-10439D1*
X-5714Y-2941D2*
X-4455D1*
X-5714Y-1941D2*
X-4455D1*
X27331Y8914D2*
Y7654D1*
Y8284D2*
X27961D1*
X-2069Y15314D2*
Y14684D1*
X-2699D2*
X-1439D1*
X22556Y-11691D2*
Y-12321D1*
X21926Y-11691D2*
X23186D1*
X-18699Y7059D2*
X-17439D1*
X13431Y-17816D2*
X14061D1*
X-26069Y-15603D2*
Y-16253D1*
X-26718Y-15603D2*
X-25419D1*
X-7388Y16292D2*
Y14958D1*
Y15625D2*
X-6721D1*
X-18069Y-13806D2*
Y-15075D1*
X-18703Y-14441D2*
X-17434D1*
X-17194Y-18147D2*
Y-19485D1*
X-17863Y-18816D2*
X-16525D1*
X-22319Y-17338D2*
Y-18794D1*
Y-18066D2*
X-21788D1*
X13306Y-11686D2*
Y-12946D1*
X12676Y-12316D2*
X13306D1*
X19681Y1814D2*
Y1184D1*
X19051D2*
X20311D1*
X-20449Y-9941D2*
X-19189D1*
X-17449D2*
X-16189D1*
X14181Y1814D2*
Y1184D1*
X13551D2*
X14811D1*
X-22819Y12939D2*
Y11679D1*
X-23449Y12309D2*
X-22189D1*
X-19819Y-686D2*
Y-1946D1*
X-20449Y-1316D2*
X-19189D1*
D18*
X-26625Y-12625D3*
Y-10263D3*
D19*
X-23944Y-9941D3*
D20*
Y-8941D3*
D19*
X11056Y-13816D3*
D20*
Y-11816D3*
D19*
X-14569Y-11941D3*
D20*
Y-10941D3*
D19*
X12306Y16684D3*
D20*
X14306D3*
D19*
X-3444Y-2441D3*
D20*
Y-4441D3*
D19*
X-14694Y-14441D3*
D20*
X-16694D3*
D19*
X5744Y4684D3*
D20*
Y2684D3*
D19*
X-13319Y6934D3*
D20*
Y4934D3*
D19*
X-19944Y7559D3*
D20*
Y5559D3*
D19*
X13181Y-7191D3*
D20*
X11181D3*
D19*
X28500Y5500D3*
D20*
Y3500D3*
D19*
X-13312Y11062D3*
D20*
Y9062D3*
D19*
X-18819Y3684D3*
D20*
X-16819D3*
D19*
X-11125Y13000D3*
D20*
Y11000D3*
D19*
X18681Y-7191D3*
D20*
X16681D3*
D19*
X22431Y-14003D3*
D20*
Y-16003D3*
D21*
X-12819Y-2691D3*
D22*
X-17169D3*
D21*
X-22375Y-3250D3*
D22*
Y-7600D3*
D23*
X-10069Y-13691D3*
D24*
X-9069D3*
X-8069D3*
X-7069D3*
X-6069D3*
X-5069D3*
X-4069D3*
X-3069D3*
X-2069D3*
X-1069D3*
X-69D3*
X931D3*
X1931D3*
X2931D3*
X3931D3*
X4931D3*
X5931D3*
X6931D3*
X7931D3*
X8931D3*
Y-7691D3*
X7931D3*
X6931D3*
X5931D3*
X4931D3*
X3931D3*
X2931D3*
X1931D3*
X931D3*
X-69D3*
X-1069D3*
X-2069D3*
X-3069D3*
X-4069D3*
X-5069D3*
X-6069D3*
X-7069D3*
X-8069D3*
X-9069D3*
X-10069D3*
D23*
X-11069Y9059D3*
D24*
Y8059D3*
Y7059D3*
Y6059D3*
Y5059D3*
Y4059D3*
Y3059D3*
Y2059D3*
Y1059D3*
Y59D3*
Y-941D3*
Y-1941D3*
Y-2941D3*
Y-3941D3*
X-5085D3*
Y-2941D3*
Y-1941D3*
Y-941D3*
Y59D3*
Y1059D3*
Y2059D3*
Y3059D3*
Y4059D3*
Y5059D3*
Y6059D3*
Y7059D3*
Y8059D3*
Y9059D3*
D23*
X14331Y8284D3*
D24*
X15331D3*
X16331D3*
X17331D3*
X18331D3*
X19331D3*
X20331D3*
X21331D3*
X22331D3*
X23331D3*
X24331D3*
X25331D3*
X26331D3*
X27331D3*
Y14284D3*
X26331D3*
X25331D3*
X24331D3*
X23331D3*
X22331D3*
X21331D3*
X20331D3*
X19331D3*
X18331D3*
X17331D3*
X16331D3*
X15331D3*
X14331D3*
D23*
X3931Y-4316D3*
D24*
Y-3316D3*
Y-2316D3*
Y-1316D3*
Y-316D3*
Y684D3*
Y1684D3*
Y2684D3*
Y3684D3*
Y4684D3*
Y5684D3*
Y6684D3*
Y7684D3*
Y8684D3*
Y9684D3*
Y10684D3*
Y11684D3*
Y12684D3*
Y13684D3*
Y14684D3*
X-2069D3*
Y13684D3*
Y12684D3*
Y11684D3*
Y10684D3*
Y9684D3*
Y8684D3*
Y7684D3*
Y6684D3*
Y5684D3*
Y4684D3*
Y3684D3*
Y2684D3*
Y1684D3*
Y684D3*
Y-316D3*
Y-1316D3*
Y-2316D3*
Y-3316D3*
Y-4316D3*
D23*
X22556Y1309D3*
D24*
Y309D3*
Y-691D3*
Y-1691D3*
Y-2691D3*
Y-3691D3*
Y-4691D3*
Y-5691D3*
Y-6691D3*
Y-7691D3*
Y-8691D3*
Y-9691D3*
Y-10691D3*
Y-11691D3*
X28556D3*
Y-10691D3*
Y-9691D3*
Y-8691D3*
Y-7691D3*
Y-6691D3*
Y-5691D3*
Y-4691D3*
Y-3691D3*
Y-2691D3*
Y-1691D3*
Y-691D3*
Y309D3*
Y1309D3*
D23*
X-15069Y6059D3*
D24*
Y7059D3*
Y8059D3*
Y9059D3*
Y10059D3*
Y11059D3*
Y12059D3*
Y13059D3*
X-18069D3*
Y12059D3*
Y11059D3*
Y10059D3*
Y9059D3*
Y8059D3*
Y7059D3*
Y6059D3*
D23*
X-10569Y-18816D3*
D24*
Y-17816D3*
X-9569Y-18816D3*
Y-17816D3*
X-8569Y-18816D3*
Y-17816D3*
X-7569Y-18816D3*
Y-17816D3*
X-6569Y-18816D3*
Y-17816D3*
X-5569Y-18816D3*
Y-17816D3*
X-4569Y-18816D3*
Y-17816D3*
X-3569Y-18816D3*
Y-17816D3*
X-2569Y-18816D3*
Y-17816D3*
X-1569Y-18816D3*
Y-17816D3*
X-569Y-18816D3*
Y-17816D3*
X431Y-18816D3*
Y-17816D3*
X1431Y-18816D3*
Y-17816D3*
X2431Y-18816D3*
Y-17816D3*
X3431Y-18816D3*
Y-17816D3*
X4431Y-18816D3*
Y-17816D3*
X5431Y-18816D3*
Y-17816D3*
X6431Y-18816D3*
Y-17816D3*
X7431Y-18816D3*
Y-17816D3*
X8431Y-18816D3*
Y-17816D3*
X9431Y-18816D3*
Y-17816D3*
X10431Y-18816D3*
Y-17816D3*
X11431Y-18816D3*
Y-17816D3*
X12431Y-18816D3*
Y-17816D3*
X13431Y-18816D3*
Y-17816D3*
D20*
X-26069Y-14816D3*
D25*
Y-15603D3*
D26*
X-11750Y15625D3*
D27*
X-10659D3*
X-9569D3*
X-8478D3*
X-7388D3*
X-11205Y16743D3*
X-10114D3*
X-9024D3*
X-7933D3*
D28*
X-14488Y16184D3*
X-4650D3*
D29*
X-17225Y-6191D3*
X-19194D3*
D30*
X-17319Y559D3*
D31*
X-13319D3*
D30*
X-22069Y-8941D3*
D31*
Y-12941D3*
D30*
X9556Y-4441D3*
D31*
X5556D3*
D30*
Y-3316D3*
D31*
Y684D3*
D30*
X-22069Y-14441D3*
D31*
X-18069D3*
D32*
X-17194Y-18816D3*
D33*
Y-17044D3*
X-19753D3*
Y-18816D3*
D24*
X-27319Y-5056D3*
Y-6316D3*
Y-7576D3*
G36*
X-23516Y-18361D2*
X-23417Y-18460D1*
X-23220D1*
X-23122Y-18361D1*
Y-17771D1*
X-23220Y-17672D1*
X-23417D1*
X-23516Y-17771D1*
Y-18361D1*
G37*
D34*
X-22819Y-18066D3*
X-22319D3*
D23*
X20306Y-12316D3*
D24*
X19306D3*
X18306D3*
X17306D3*
X16306D3*
X15306D3*
X14306D3*
X13306D3*
Y-15316D3*
X14306D3*
X15306D3*
X16306D3*
X17306D3*
X18306D3*
X19306D3*
X20306D3*
D23*
X19681Y-4816D3*
D24*
Y-3816D3*
Y-2816D3*
Y-1816D3*
Y-816D3*
Y184D3*
Y1184D3*
X16681D3*
Y184D3*
Y-816D3*
Y-1816D3*
Y-2816D3*
Y-3816D3*
Y-4816D3*
D23*
X-19819Y-8941D3*
D24*
Y-9941D3*
Y-10941D3*
Y-11941D3*
X-16819D3*
Y-10941D3*
Y-9941D3*
Y-8941D3*
D23*
X14181Y-4816D3*
D24*
Y-3816D3*
Y-2816D3*
Y-1816D3*
Y-816D3*
Y184D3*
Y1184D3*
X11181D3*
Y184D3*
Y-816D3*
Y-1816D3*
Y-2816D3*
Y-3816D3*
Y-4816D3*
D23*
X-22819Y6309D3*
D24*
Y12309D3*
X-25819D3*
Y6309D3*
D23*
Y-1316D3*
D24*
X-19819D3*
Y1684D3*
X-25819D3*
M02*
