M48
INCH
T01C0.019
T02C0.025
T03C0.0276
T04C0.0354
T05C0.0374
T06C0.038
T07C0.0394
T08C0.0429
T09C0.0472
T10C0.125
T11C0.1283
%
T01
X+028431Y+007559
X+028431Y+006934
X+025181Y+011184
X+016331Y+014909
X+002556Y+014809
X+001306Y+007309
X+004681Y+001184
X+005431Y-000941
X+005431Y-001566
X+005431Y-002191
X+007181Y-001566
X+007931Y-002191
X+008431Y-000941
X+008806Y-000316
X+007306Y+001184
X+008806Y+003184
X+003306Y-003316
X+001681Y-002816
X+000931Y-001316
X-001569Y-001816
X+000806Y-004441
X-000569Y-008191
X-000569Y-010566
X-002194Y-010191
X-003069Y-010566
X-003569Y-010191
X-006569Y-009816
X-006569Y-011441
X-010069Y-010941
X-010444Y-012816
X-011569Y-009441
X-011444Y-008941
X-006569Y-006381
X-005125Y-004937
X-009444Y-002191
X-013069Y+003559
X-009444Y+005434
X-000569Y-016816
X+000056Y-019691
X-000569Y-019941
X-002569Y-019691
X-003069Y-019316
X+002181Y-020441
X+004806Y-019816
X+009681Y-016816
X+014931Y-017191
X+015556Y-003316
X+018056Y-003316
X+029681Y-004691
X+029681Y-011263
X+030056Y-012441
X+029681Y-013441
X+030056Y-016441
X-019069Y-020691
X-020819Y-018941
T02
X-026625Y-012625
X-026625Y-010263
T03
X-023319Y-018066
X-022819Y-018066
X-022319Y-018066
T04
X+011056Y-013816
X+011056Y-011816
X+013306Y-012316
X+014306Y-012316
X+015306Y-012316
X+016306Y-012316
X+017306Y-012316
X+018306Y-012316
X+019306Y-012316
X+020306Y-012316
X+022556Y-011691
X+022556Y-010691
X+022556Y-009691
X+022556Y-008691
X+022556Y-007691
X+022556Y-006691
X+022556Y-005691
X+022556Y-004691
X+022556Y-003691
X+022556Y-002691
X+022556Y-001691
X+022556Y-000691
X+022556Y+000309
X+022556Y+001309
X+019681Y+001184
X+019681Y+000184
X+019681Y-000816
X+019681Y-001816
X+019681Y-002816
X+019681Y-003816
X+019681Y-004816
X+018681Y-007191
X+016681Y-007191
X+016681Y-004816
X+016681Y-003816
X+016681Y-002816
X+016681Y-001816
X+016681Y-000816
X+016681Y+000184
X+016681Y+001184
X+014181Y+001184
X+014181Y+000184
X+014181Y-000816
X+014181Y-001816
X+014181Y-002816
X+014181Y-003816
X+014181Y-004816
X+013181Y-007191
X+011181Y-007191
X+008931Y-007691
X+007931Y-007691
X+006931Y-007691
X+005931Y-007691
X+004931Y-007691
X+003931Y-007691
X+002931Y-007691
X+001931Y-007691
X+000931Y-007691
X-000069Y-007691
X-001069Y-007691
X-002069Y-007691
X-003069Y-007691
X-004069Y-007691
X-005069Y-007691
X-006069Y-007691
X-007069Y-007691
X-008069Y-007691
X-009069Y-007691
X-010069Y-007691
X-011069Y-003941
X-011069Y-002941
X-011069Y-001941
X-011069Y-000941
X-011069Y+000059
X-011069Y+001059
X-011069Y+002059
X-011069Y+003059
X-011069Y+004059
X-011069Y+005059
X-011069Y+006059
X-011069Y+007059
X-011069Y+008059
X-011069Y+009059
X-011125Y+011000
X-011125Y+013000
X-013312Y+011062
X-015069Y+011059
X-015069Y+010059
X-015069Y+009059
X-015069Y+008059
X-015069Y+007059
X-015069Y+006059
X-013319Y+006934
X-013319Y+004934
X-016819Y+003684
X-018819Y+003684
X-019944Y+005559
X-018069Y+006059
X-018069Y+007059
X-018069Y+008059
X-018069Y+009059
X-018069Y+010059
X-018069Y+011059
X-018069Y+012059
X-018069Y+013059
X-015069Y+013059
X-015069Y+012059
X-013312Y+009062
X-019944Y+007559
X-022819Y+006309
X-025819Y+006309
X-025819Y+001684
X-025819Y-001316
X-027319Y-005056
X-027319Y-006316
X-027319Y-007576
X-019819Y-008941
X-019819Y-009941
X-019819Y-010941
X-019819Y-011941
X-016819Y-011941
X-016819Y-010941
X-016819Y-009941
X-016819Y-008941
X-016694Y-014441
X-014694Y-014441
X-010069Y-013691
X-009069Y-013691
X-008069Y-013691
X-007069Y-013691
X-006069Y-013691
X-005069Y-013691
X-004069Y-013691
X-003069Y-013691
X-002069Y-013691
X-001069Y-013691
X-000069Y-013691
X+000931Y-013691
X+001931Y-013691
X+002931Y-013691
X+003931Y-013691
X+004931Y-013691
X+005931Y-013691
X+006931Y-013691
X+007931Y-013691
X+008931Y-013691
X+008431Y-017816
X+007431Y-017816
X+006431Y-017816
X+005431Y-017816
X+004431Y-017816
X+003431Y-017816
X+002431Y-017816
X+001431Y-017816
X+000431Y-017816
X-000569Y-017816
X-001569Y-017816
X-002569Y-017816
X-003569Y-017816
X-004569Y-017816
X-005569Y-017816
X-006569Y-017816
X-007569Y-017816
X-008569Y-017816
X-009569Y-017816
X-010569Y-017816
X-010569Y-018816
X-009569Y-018816
X-008569Y-018816
X-007569Y-018816
X-006569Y-018816
X-005569Y-018816
X-004569Y-018816
X-003569Y-018816
X-002569Y-018816
X-001569Y-018816
X-000569Y-018816
X+000431Y-018816
X+001431Y-018816
X+002431Y-018816
X+003431Y-018816
X+004431Y-018816
X+005431Y-018816
X+006431Y-018816
X+007431Y-018816
X+008431Y-018816
X+009431Y-018816
X+010431Y-018816
X+010431Y-017816
X+009431Y-017816
X+011431Y-017816
X+012431Y-017816
X+012431Y-018816
X+011431Y-018816
X+013431Y-018816
X+013431Y-017816
X+013306Y-015316
X+014306Y-015316
X+015306Y-015316
X+016306Y-015316
X+017306Y-015316
X+018306Y-015316
X+019306Y-015316
X+020306Y-015316
X+022431Y-016003
X+022431Y-014003
X+028556Y-011691
X+028556Y-010691
X+028556Y-009691
X+028556Y-008691
X+028556Y-007691
X+028556Y-006691
X+028556Y-005691
X+028556Y-004691
X+028556Y-003691
X+028556Y-002691
X+028556Y-001691
X+028556Y-000691
X+028556Y+000309
X+028556Y+001309
X+028500Y+003500
X+028500Y+005500
X+027331Y+008284
X+026331Y+008284
X+025331Y+008284
X+024331Y+008284
X+023331Y+008284
X+022331Y+008284
X+021331Y+008284
X+020331Y+008284
X+019331Y+008284
X+018331Y+008284
X+017331Y+008284
X+016331Y+008284
X+015331Y+008284
X+014331Y+008284
X+014331Y+014284
X+015331Y+014284
X+016331Y+014284
X+017331Y+014284
X+018331Y+014284
X+019331Y+014284
X+020331Y+014284
X+021331Y+014284
X+022331Y+014284
X+023331Y+014284
X+024331Y+014284
X+025331Y+014284
X+026331Y+014284
X+027331Y+014284
X+014306Y+016684
X+012306Y+016684
X+003931Y+014684
X+003931Y+013684
X+003931Y+012684
X+003931Y+011684
X+003931Y+010684
X+003931Y+009684
X+003931Y+008684
X+003931Y+007684
X+003931Y+006684
X+003931Y+005684
X+003931Y+004684
X+003931Y+003684
X+003931Y+002684
X+003931Y+001684
X+003931Y+000684
X+003931Y-000316
X+003931Y-001316
X+003931Y-002316
X+003931Y-003316
X+003931Y-004316
X-002069Y-004316
X-002069Y-003316
X-002069Y-002316
X-002069Y-001316
X-002069Y-000316
X-002069Y+000684
X-002069Y+001684
X-002069Y+002684
X-002069Y+003684
X-002069Y+004684
X-002069Y+005684
X-002069Y+006684
X-002069Y+007684
X-002069Y+008684
X-002069Y+009684
X-002069Y+010684
X-002069Y+011684
X-002069Y+012684
X-002069Y+013684
X-002069Y+014684
X-005085Y+009059
X-005085Y+008059
X-005085Y+007059
X-005085Y+006059
X-005085Y+005059
X-005085Y+004059
X-005085Y+003059
X-005085Y+002059
X-005085Y+001059
X-005085Y+000059
X-005085Y-000941
X-005085Y-001941
X-005085Y-002941
X-005085Y-003941
X-003444Y-004441
X-003444Y-002441
X+005744Y+002684
X+005744Y+004684
X+011181Y+001184
X+011181Y+000184
X+011181Y-000816
X+011181Y-001816
X+011181Y-002816
X+011181Y-003816
X+011181Y-004816
X-019819Y-001316
X-019819Y+001684
X-022819Y+012309
X-025819Y+012309
T05
X-017225Y-006191
X-019194Y-006191
T06
X-017319Y+000559
X-013319Y+000559
X-022069Y-008941
X-022069Y-012941
X-022069Y-014441
X-018069Y-014441
X+005556Y-004441
X+005556Y-003316
X+005556Y+000684
X+009556Y-004441
T07
X-025838Y-012625
X-026069Y-014816
X-026069Y-015603
X-025838Y-010263
X-023944Y-009941
X-023944Y-008941
X-019753Y-017044
X-019753Y-018816
X-017194Y-018816
X-017194Y-017044
X-014569Y-011941
X-014569Y-010941
T08
X-011750Y+015625
X-010659Y+015625
X-009569Y+015625
X-008478Y+015625
X-007388Y+015625
X-007933Y+016743
X-009024Y+016743
X-010114Y+016743
X-011205Y+016743
T09
X-012819Y-002691
X-017169Y-002691
X-022375Y-003250
X-022375Y-007600
T10
X-027069Y+017184
X-027069Y-019816
X+029931Y-019816
X+029931Y+017184
T11
X-014488Y+016184
X-004650Y+016184
T00
M30
