G04 DipTrace 2.4.0.2*
%INTop.gbr*%
%MOIN*%
%ADD13C,0.013*%
%ADD14C,0.02*%
%ADD18C,0.0472*%
%ADD19C,0.063*%
%ADD20R,0.063X0.063*%
%ADD21R,0.0709X0.0709*%
%ADD22C,0.0709*%
%ADD23R,0.0591X0.0591*%
%ADD24C,0.0591*%
%ADD25C,0.063*%
%ADD26R,0.0665X0.0665*%
%ADD27C,0.0665*%
%ADD28C,0.1874*%
%ADD29C,0.065*%
%ADD30C,0.06*%
%ADD31C,0.06*%
%ADD32R,0.0669X0.0669*%
%ADD33C,0.0669*%
%ADD34O,0.0394X0.0787*%
%ADD35C,0.04*%
%FSLAX44Y44*%
G04*
G70*
G90*
G75*
G01*
%LNTop*%
%LPD*%
X-16694Y-14441D2*
D13*
Y-13191D1*
X-18944Y-10941D1*
X-19819D1*
X3931Y3684D2*
X6181D1*
X8306Y5809D1*
X21431D1*
X23306Y7684D1*
Y8259D1*
X23331Y8284D1*
X-8069Y-7691D2*
Y-8316D1*
X-8319Y-8566D1*
X-9319D1*
X-12569Y-11816D1*
Y-15316D1*
X-11069Y-16816D1*
X-10069D1*
X-9805Y-17080D1*
X-7430D1*
X-6694Y-17816D1*
X-6569D1*
X-8069Y-7691D2*
Y-7066D1*
X-10694Y-4441D1*
X-13069D1*
X-13694Y-3816D1*
Y-2441D1*
X-13194Y-1941D1*
X-12069D1*
X-11069Y-2941D1*
X3931Y4684D2*
X4559D1*
X5250Y5375D1*
X7497D1*
X8181Y6059D1*
X20681D1*
X22306Y7684D1*
Y8259D1*
X22331Y8284D1*
X-7069Y-7691D2*
Y-8316D1*
X-7569Y-8816D1*
X-9194D1*
X-12319Y-11941D1*
Y-15191D1*
X-10944Y-16566D1*
X-9944D1*
X-9694Y-16816D1*
X-6444D1*
X-6069Y-17191D1*
Y-18316D1*
X-5569Y-18816D1*
X-7069Y-7691D2*
Y-7066D1*
X-10194Y-3941D1*
X-11069D1*
X3931Y5684D2*
X7431D1*
X8056Y6309D1*
X19931D1*
X21306Y7684D1*
Y8284D1*
X21331D1*
X-6069Y-7691D2*
Y-9941D1*
X-6444Y-10316D1*
X-10319D1*
X-12069Y-12066D1*
Y-15066D1*
X-10819Y-16316D1*
X-9819D1*
X-9569Y-16566D1*
X-5944D1*
X-5569Y-16941D1*
Y-17816D1*
X3931Y6684D2*
Y6559D1*
X19181D1*
X20306Y7684D1*
Y8284D1*
X20331D1*
X-5069Y-7691D2*
Y-9316D1*
X-6319Y-10566D1*
X-10194D1*
X-11819Y-12191D1*
Y-14941D1*
X-10694Y-16066D1*
X-9694D1*
X-9444Y-16316D1*
X-5819D1*
X-5069Y-17066D1*
Y-18316D1*
X-4569Y-18816D1*
X3931Y7684D2*
Y7809D1*
X6931D1*
X7931Y6809D1*
X18431D1*
X19306Y7684D1*
Y8284D1*
X19331D1*
X3931Y8684D2*
X6431D1*
X8056Y7059D1*
X17681D1*
X18306Y7684D1*
Y8284D1*
X18331D1*
X3931Y9684D2*
X5806D1*
X8181Y7309D1*
X16931D1*
X17306Y7684D1*
Y8284D1*
X17331D1*
X3931Y10684D2*
X5181D1*
X8306Y7559D1*
X16181D1*
X16306Y7684D1*
Y8284D1*
X16331D1*
X28431Y7559D2*
Y14684D1*
X27431Y15684D1*
X18056D1*
X17306Y14934D1*
Y14309D1*
X17331Y14284D1*
X19681Y-3816D2*
X20431D1*
X21306Y-4691D1*
Y-5566D1*
X21931Y-6191D1*
X26306D1*
X27306Y-7191D1*
X28806D1*
X29306Y-6691D1*
Y-2441D1*
X28556Y-1691D1*
X19681Y-2816D2*
X20431D1*
X21806Y-4191D1*
X25306D1*
X27306Y-6191D1*
X28806D1*
X29056Y-5941D1*
Y-3191D1*
X28556Y-2691D1*
X19681Y-1816D2*
X20431D1*
X21806Y-3191D1*
X24806D1*
X27306Y-5691D1*
X28556D1*
X19681Y-816D2*
X20431D1*
X20806Y-1191D1*
X24818D1*
X27318Y-3691D1*
X28556D1*
X19681Y184D2*
X22556D1*
Y309D1*
X16331Y14284D2*
Y14909D1*
X28431Y6934D2*
X28806Y7309D1*
Y14934D1*
X27681Y16059D1*
X17481D1*
X16331Y14909D1*
X16681Y-1816D2*
X17431D1*
X18306Y-941D1*
Y1059D1*
X19431Y2184D1*
X24444D1*
X27319Y-691D1*
X28556D1*
X16681Y-2816D2*
X17431D1*
X18681Y-1566D1*
Y184D1*
X19181Y684D1*
X20181D1*
X20806Y1309D1*
X22556D1*
X1306Y7309D2*
Y934D1*
X2056Y184D1*
X4306D1*
X5431Y-941D1*
X8431D2*
Y-1816D1*
X10931Y-4316D1*
X13681D1*
X14181Y-3816D1*
X18306Y-15316D2*
Y-14316D1*
X17681Y-13691D1*
X15306D1*
X14806Y-13191D1*
Y-11941D1*
X14556Y-11691D1*
X12806D1*
X12556Y-11941D1*
Y-14441D1*
X11681Y-15316D1*
X9431D1*
X8431Y-14316D1*
Y-12066D1*
X7556Y-11191D1*
X-1819D1*
X-4569Y-8441D1*
Y-7066D1*
X-9444Y-2191D1*
Y5434D2*
X-11069Y7059D1*
X-15069Y6059D2*
X-14819D1*
X-13694Y4934D1*
X-13319D1*
X-15069Y8059D2*
X-13944Y6934D1*
X-13319D1*
X-15069Y9059D2*
X-13819D1*
X-13815Y9062D1*
X-13312D1*
X-15069Y10059D2*
X-14316D1*
X-13312Y11062D1*
X-10069Y-7691D2*
Y-8566D1*
X-13069Y-11566D1*
Y-15566D1*
X-11319Y-17316D1*
X-10319D1*
X-10069Y-17566D1*
Y-17941D1*
X-9694Y-18316D1*
X-9319D1*
X-9069Y-18566D1*
Y-19316D1*
X-8694Y-19691D1*
X-2569D1*
X56D2*
X4306D1*
X4931Y-19066D1*
Y-18316D1*
X4431Y-17816D1*
X-9069Y-7691D2*
Y-7941D1*
X-12819Y-11691D1*
Y-15441D1*
X-11194Y-17066D1*
X-10194D1*
X-9944Y-17316D1*
X-8319D1*
X-8069Y-17566D1*
Y-19066D1*
X-7819Y-19316D1*
X-3069D1*
X6931Y-13691D2*
Y-14691D1*
X9431Y-17191D1*
Y-17816D1*
X7931Y-13691D2*
Y-14316D1*
X10181Y-16566D1*
Y-16941D1*
X9931Y-17191D1*
Y-18316D1*
X10431Y-18816D1*
X-11069Y1059D2*
X-11819D1*
X-13944Y3184D1*
Y3559D1*
X-16444Y6059D1*
Y12309D1*
X-17194Y13059D1*
X-18069D1*
X-2069Y2684D2*
X-2319D1*
X-2819Y2184D1*
Y934D1*
X-4694Y-941D1*
X-5085D1*
X24331Y8284D2*
Y9284D1*
X23556Y10059D1*
X9306D1*
X4056Y15309D1*
X1306D1*
X806Y14809D1*
Y3684D1*
X-194Y2684D1*
X-2069D1*
X22556Y-8691D2*
X22181D1*
X21681Y-9191D1*
X4306D1*
X3431Y-8316D1*
Y-7191D1*
X2806Y-6566D1*
X-2569D1*
X-3069Y-7066D1*
Y-7691D1*
X-2069Y3684D2*
X-2444D1*
X-3069Y3059D1*
Y1309D1*
X-4319Y59D1*
X-5085D1*
X25331Y8284D2*
Y9284D1*
X24306Y10309D1*
X9431D1*
X4181Y15559D1*
X1181D1*
X556Y14934D1*
Y4684D1*
X-444Y3684D1*
X-2069D1*
X22556Y-9691D2*
X3806D1*
X2431Y-8316D1*
Y-7066D1*
X2181Y-6816D1*
X-1819D1*
X-2069Y-7066D1*
Y-7691D1*
Y4684D2*
X-2569D1*
X-3319Y3934D1*
Y2059D1*
X-4319Y1059D1*
X-5085D1*
X26331Y8284D2*
Y9159D1*
X24931Y10559D1*
X9556D1*
X4306Y15809D1*
X1056D1*
X306Y15059D1*
Y5559D1*
X-569Y4684D1*
X-2069D1*
X22556Y-10691D2*
X21931D1*
X21431Y-10191D1*
X3306D1*
X1431Y-8316D1*
Y-7441D1*
X1056Y-7066D1*
X-569D1*
X-1069Y-7566D1*
Y-7691D1*
X-2069Y5684D2*
X-2694D1*
X-3569Y4809D1*
Y2809D1*
X-4319Y2059D1*
X-5085D1*
X27331Y14284D2*
Y13334D1*
X25806Y11809D1*
X8681D1*
X4431Y16059D1*
X931D1*
X56Y15184D1*
Y6309D1*
X-569Y5684D1*
X-2069D1*
X28556Y-11691D2*
X25306D1*
X24806Y-12191D1*
X22306D1*
X20806Y-10691D1*
X2306D1*
X-69Y-8316D1*
Y-7691D1*
X-2069Y6684D2*
X-2819D1*
X-3819Y5684D1*
Y3559D1*
X-4319Y3059D1*
X-5085D1*
X26331Y14284D2*
Y13459D1*
X24931Y12059D1*
X8806D1*
X4556Y16309D1*
X806D1*
X-194Y15309D1*
Y7059D1*
X-569Y6684D1*
X-2069D1*
X28556Y-10691D2*
X25306D1*
X24806Y-11191D1*
X22056D1*
X21306Y-10441D1*
X3056D1*
X931Y-8316D1*
Y-7691D1*
X-2069Y7684D2*
X-2694D1*
X-4069Y6309D1*
Y4309D1*
X-4319Y4059D1*
X-5085D1*
X25331Y14284D2*
X25306D1*
Y13434D1*
X24181Y12309D1*
X8931D1*
X4681Y16559D1*
X681D1*
X-444Y15434D1*
Y8059D1*
X-819Y7684D1*
X-2069D1*
X28556Y-9691D2*
X25306D1*
X24806Y-10191D1*
X21931D1*
X21681Y-9941D1*
X3556D1*
X1931Y-8316D1*
Y-7691D1*
X-2069Y8684D2*
X-2694D1*
X-4319Y7059D1*
Y5309D1*
X-4569Y5059D1*
X-5085D1*
X24331Y14284D2*
Y13459D1*
X23431Y12559D1*
X9056D1*
X4806Y16809D1*
X556D1*
X-694Y15559D1*
Y9184D1*
X-1194Y8684D1*
X-2069D1*
X28556Y-8691D2*
X25306D1*
X24806Y-9191D1*
X22056D1*
X21806Y-9441D1*
X4056D1*
X2931Y-8316D1*
Y-7691D1*
X-2069Y9684D2*
X-2569D1*
X-4569Y7684D1*
Y6184D1*
X-4694Y6059D1*
X-5085D1*
X23331Y14284D2*
Y13459D1*
X22681Y12809D1*
X9181D1*
X4931Y17059D1*
X431D1*
X-944Y15684D1*
Y9934D1*
X-1194Y9684D1*
X-2069D1*
X28556Y-7691D2*
X25431D1*
X24931Y-8191D1*
X22306D1*
X21556Y-8941D1*
X4556D1*
X3931Y-8316D1*
Y-7691D1*
X10431Y-17816D2*
Y-17191D1*
X11306Y-16316D1*
X12056D1*
X12431Y-15941D1*
Y-14941D1*
X13181Y-14191D1*
X17181D1*
X17306Y-14316D1*
Y-15316D1*
X11431Y-18816D2*
X10931Y-18316D1*
Y-17191D1*
X11556Y-16566D1*
X12181D1*
X12681Y-16066D1*
Y-15066D1*
X13306Y-14441D1*
X15931D1*
X16306Y-14816D1*
Y-15316D1*
X11431Y-17816D2*
Y-17941D1*
X11806Y-18316D1*
X12681D1*
X12931Y-18066D1*
Y-17191D1*
X14306Y-15816D1*
X14681D1*
X15181Y-15316D1*
X15306D1*
X12431Y-18816D2*
X12556D1*
X13056Y-18316D1*
X13681D1*
X13931Y-18066D1*
Y-17066D1*
X14931Y-16066D1*
X15306D1*
X15806Y-15566D1*
Y-14816D1*
X15681Y-14691D1*
X14931D1*
X14306Y-15316D1*
X12431Y-17816D2*
Y-17191D1*
X13306Y-16316D1*
Y-15316D1*
X13431Y-18816D2*
X13806D1*
X14181Y-18441D1*
Y-17191D1*
X15056Y-16316D1*
X15431D1*
X15931Y-15816D1*
X17556D1*
X17806Y-15566D1*
Y-14316D1*
X17431Y-13941D1*
X15056D1*
X14306Y-13191D1*
Y-12316D1*
X11181Y-2816D2*
X10431Y-2066D1*
Y-691D1*
X10806Y-316D1*
X11681D1*
X12681Y684D1*
X15306D1*
X15806Y1184D1*
X16681D1*
X-17169Y-2691D2*
X-15816D1*
X-13250Y-125D1*
Y559D1*
X-13319D1*
X-13069Y3559D2*
X-12319D1*
X-11319Y4559D1*
X-7585D1*
X-5085Y7059D1*
X-1569Y-1816D2*
X3431D1*
X3931Y-1316D1*
X-4569Y-17816D2*
Y-17191D1*
X-5694Y-16066D1*
X-9319D1*
X-9569Y-15816D1*
X-10569D1*
X-11569Y-14816D1*
Y-12441D1*
X-10069Y-10941D1*
X-11444Y-8941D2*
X-13444D1*
X-15819Y-6566D1*
Y-4041D1*
X-17169Y-2691D1*
X8931Y-7691D2*
X8431Y-8191D1*
X7681D1*
X7431Y-7941D1*
Y-7191D1*
X6306Y-6066D1*
X-4944D1*
X-9319Y-1691D1*
X-9694D1*
X-9944Y-1941D1*
Y-2566D1*
X-10819Y-3441D1*
X-12444D1*
X-12819Y-3066D1*
Y-2691D1*
X-22069Y-12941D2*
Y-14441D1*
X-569Y-18816D2*
Y-19941D1*
X2181Y-20441D2*
X1931Y-20691D1*
X-19069D1*
X-20819Y-18941D2*
Y-18691D1*
X-20069Y-17941D1*
X-19569D1*
X-19069Y-17441D1*
Y-16566D1*
X-19819Y-15816D1*
Y-11941D1*
X-22375Y-7600D2*
Y-6000D1*
X-21625Y-5250D1*
X-17625D1*
X-17250Y-5625D1*
Y-6216D1*
X-17225Y-6191D1*
Y-8534D1*
X-16819Y-8941D1*
X11181Y-816D2*
X11306D1*
X12056D1*
X13056Y184D1*
X14181D1*
X28556Y-4691D2*
X27318D1*
X24818Y-2191D1*
X21306D1*
X20431Y-1316D1*
X19306D1*
X17306Y-3316D1*
X16556D1*
X14556Y-1316D1*
X11806D1*
X11306Y-816D1*
X14931Y-17191D2*
X28681D1*
X29681Y-16191D1*
Y-13441D1*
Y-11263D2*
Y-4691D1*
X28556Y309D2*
X27319D1*
X25194Y2434D1*
X11681D1*
X11181Y1934D1*
Y1184D1*
X2556Y14809D2*
Y1934D1*
X3306Y1184D1*
X4681D1*
X7306D2*
X9431D1*
X11181D1*
X28556Y309D2*
X29556D1*
X30056Y-191D1*
Y-12441D1*
Y-16441D2*
X26681Y-19816D1*
X4806D1*
X5556Y684D2*
X3931D1*
X-3569Y-18816D2*
X-3444D1*
X-3069Y-18441D1*
Y-17566D1*
X-3569Y-17066D1*
X-3944D1*
X-5444Y-15566D1*
X-9069D1*
X-9319Y-15316D1*
X-10319D1*
X-11069Y-14566D1*
Y-12816D1*
X-9319Y-11066D1*
X-6069D1*
X-5569Y-10566D1*
X-3069D1*
X-569D2*
Y-8191D1*
X806Y-4441D2*
X2181D1*
X3306Y-3316D1*
X431Y-17816D2*
Y-16816D1*
X56Y-16441D1*
X-3819D1*
X-5194Y-15066D1*
X-8819D1*
X-9069Y-14816D1*
Y-13691D1*
X-8069D2*
Y-14566D1*
X-7819Y-14816D1*
X-5069D1*
X-3694Y-16191D1*
X181D1*
X931Y-16941D1*
Y-18316D1*
X1431Y-18816D1*
Y-17816D2*
Y-17066D1*
X306Y-15941D1*
X-3569D1*
X-4944Y-14566D1*
X-6819D1*
X-7069Y-14316D1*
Y-13691D1*
X2431Y-18816D2*
X1931Y-18316D1*
Y-17191D1*
X431Y-15691D1*
X-3444D1*
X-4819Y-14316D1*
X-5444D1*
X-6069Y-13691D1*
X-5069D2*
X-3319Y-15441D1*
X556D1*
X2431Y-17316D1*
Y-17816D1*
X3431Y-18816D2*
X2931Y-18316D1*
Y-17441D1*
X681Y-15191D1*
X-3194D1*
X-4069Y-14316D1*
Y-13691D1*
X-3069D2*
Y-14316D1*
X-2444Y-14941D1*
X806D1*
X1306Y-15441D1*
X1681D1*
X3431Y-17191D1*
Y-17816D1*
X4431Y-18816D2*
X3931Y-18316D1*
Y-17066D1*
X2056Y-15191D1*
X1431D1*
X931Y-14691D1*
X-1694D1*
X-2069Y-14316D1*
Y-13691D1*
X5431Y-17816D2*
Y-17066D1*
X4931Y-16566D1*
X3806D1*
X2181Y-14941D1*
X1556D1*
X1056Y-14441D1*
X-319D1*
X-1069Y-13691D1*
X6431Y-18816D2*
X5931Y-18316D1*
Y-17066D1*
X5181Y-16316D1*
X3931D1*
X2306Y-14691D1*
X1681D1*
X1181Y-14191D1*
X431D1*
X-69Y-13691D1*
X931D2*
X1056D1*
X1806Y-14441D1*
X2931D1*
X3681Y-15191D1*
X4556D1*
X6431Y-17066D1*
Y-17816D1*
X7431Y-18816D2*
X6931Y-18316D1*
Y-17066D1*
X4806Y-14941D1*
X3806D1*
X3056Y-14191D1*
X2306D1*
X1931Y-13816D1*
Y-13691D1*
X2931D2*
X3931Y-14691D1*
X5056D1*
X7431Y-17066D1*
Y-17816D1*
X8431Y-18816D2*
X7931Y-18316D1*
Y-17066D1*
X5306Y-14441D1*
X4681D1*
X3931Y-13691D1*
X4931D2*
X8431Y-17191D1*
Y-17816D1*
X9431Y-18816D2*
X8931Y-18316D1*
Y-17191D1*
X5931Y-14191D1*
Y-13691D1*
X-2069Y-1316D2*
X931D1*
X-1569Y-17816D2*
Y-17191D1*
X-1944Y-16816D1*
X-3819D1*
X-5319Y-15316D1*
X-8944D1*
X-9194Y-15066D1*
X-10194D1*
X-10819Y-14441D1*
Y-13191D1*
X-10444Y-12816D1*
X-11569Y-9441D2*
X-13444D1*
X-16319Y-6566D1*
Y-4816D1*
X-18569Y-2566D1*
Y434D1*
X-19819Y1684D1*
X1681Y-2816D2*
X4806D1*
X5431Y-2191D1*
X7931D2*
Y-191D1*
X8306Y184D1*
X11181D1*
X-19944Y5559D2*
D14*
X-21194D1*
X-22378Y4375D1*
X-27628D1*
X-27819Y4184D1*
Y3069D1*
X-26434Y1684D1*
X-25819D1*
X28500Y3500D2*
Y1309D1*
X28556D1*
X14306Y16684D2*
X14331D1*
Y14284D1*
X28500Y3500D2*
Y4500D1*
X30681Y6681D1*
Y13934D1*
X26681Y17934D1*
X15056D1*
X14306Y17184D1*
Y16684D1*
X-18819Y3684D2*
Y3819D1*
X-19375Y4375D1*
X-22378D1*
X5556Y-3316D2*
X7431D1*
X9181D1*
X9556Y-3691D1*
Y-4441D1*
X3931Y2684D2*
X5744D1*
X7431D1*
X9559D1*
X10375Y3500D1*
X28500D1*
X7431Y-3316D2*
X6556Y-2441D1*
Y1809D1*
X7431Y2684D1*
X-3444Y-4441D2*
X-4559D1*
X-5085Y-3915D1*
Y-3941D1*
X-3444Y-4441D2*
X-3438Y-4447D1*
X-2444Y-5441D1*
X8077D1*
X9181D1*
X9556Y-5066D1*
Y-4441D1*
X-2069Y-316D2*
Y-441D1*
X-2194D1*
X-2694Y-941D1*
Y-1691D1*
X-2069Y-2316D1*
X-3438Y-4447D2*
Y-3685D1*
X-2069Y-2316D1*
X-10569Y-18816D2*
Y-19941D1*
X-10944Y-20316D1*
X-13041D1*
X-21467D1*
X-24184D1*
X-27819Y-16681D1*
Y-15247D1*
Y-2056D1*
Y3069D1*
X11181Y-7191D2*
X9827D1*
X8077Y-5441D1*
X16681Y-7191D2*
Y-7444D1*
X16059Y-8066D1*
X13431D1*
X11779D1*
X10702D1*
X9827Y-7191D1*
X11181D2*
Y-4816D1*
X16681Y-7191D2*
Y-4816D1*
X22431Y-16003D2*
X20994D1*
X20306Y-15316D1*
X11056Y-11816D2*
X11806Y-11066D1*
X20431D1*
X22306Y-12941D1*
X22931D1*
X23313Y-13322D1*
Y-14562D1*
X22431Y-15444D1*
Y-16003D1*
X22931Y-12941D2*
X30056D1*
X30681Y-13566D1*
Y-13941D1*
Y6681D1*
X-10944Y-20316D2*
X1306D1*
X1556Y-20066D1*
X3806D1*
X4056Y-20316D1*
X26931D1*
X30681Y-16566D1*
Y-13941D1*
X-19944Y5559D2*
X-18069D1*
Y6059D1*
X13431Y-8066D2*
X14181Y-7316D1*
Y-4816D1*
X-26069Y-14816D2*
X-27388D1*
X-27819Y-15247D1*
X-22819Y-18066D2*
Y-18964D1*
X-21467Y-20316D1*
X-22375Y-3250D2*
X-26625D1*
X-27819Y-2056D1*
X-14569Y-10941D2*
X-16819D1*
X-14569D2*
X-14319D1*
X-13694Y-11566D1*
Y-19663D1*
X-13041Y-20316D1*
X-17319Y559D2*
X-18250Y1490D1*
Y3250D1*
X-18750Y3750D1*
Y3684D1*
X-18819D1*
X5931Y-7691D2*
Y-7816D1*
X6681Y-8566D1*
X11279D1*
X11779Y-8066D1*
X-18069Y9059D2*
D13*
X-18819D1*
X-19319Y9559D1*
Y13309D1*
X-18128Y14500D1*
X-10128D1*
X-9569Y15059D1*
Y15625D1*
X-15069Y13059D2*
X-13878Y14250D1*
X-9878D1*
X-9069Y15059D1*
Y15934D1*
X-9319Y16184D1*
X-9569D1*
X-10114Y16729D1*
Y16743D1*
X28556Y-6691D2*
X27318D1*
X25818Y-5191D1*
X22181D1*
X20306Y-3316D1*
X18056D1*
X15556D2*
X14556Y-2316D1*
X11681D1*
X11181Y-1816D1*
X3931Y-3316D2*
X4431D1*
X5556Y-4441D1*
X-23319Y-18066D2*
Y-17441D1*
X-22944Y-17066D1*
X-19775D1*
X-19753Y-17044D1*
X-4069Y-7691D2*
Y-8316D1*
X-2194Y-10191D1*
X-3569D2*
X-5569D1*
X-6194Y-10816D1*
X-9444D1*
X-11319Y-12691D1*
Y-14691D1*
X-10444Y-15566D1*
X-9444D1*
X-9194Y-15816D1*
X-5569D1*
X-3569Y-17816D1*
X19681Y-4816D2*
X18181D1*
X17681Y-4316D1*
X15681D1*
X14181Y-2816D1*
X11181Y-3816D2*
X13181D1*
X14181Y-2816D1*
X25181Y11184D2*
X25306D1*
X26806Y9684D1*
Y7684D1*
X24681Y5559D1*
X9806D1*
X8806Y4559D1*
Y3184D1*
Y-316D2*
Y-1441D1*
X11181Y-3816D1*
X-11069Y2059D2*
X-12444D1*
X-13694Y3309D1*
Y3684D1*
X-16194Y6184D1*
Y12434D1*
X-17319Y13559D1*
X-18319D1*
X-18569Y13309D1*
Y12559D1*
X-18069Y12059D1*
X7931Y-7691D2*
Y-7191D1*
X6556Y-5816D1*
X-4247D1*
X-5125Y-4937D1*
X-5697D1*
X-5944Y-4691D1*
Y-3691D1*
X-5694Y-3441D1*
X-4694D1*
X-4444Y-3191D1*
Y-1941D1*
X-2319Y184D1*
X-1694D1*
X-1319Y559D1*
Y1434D1*
X-1569Y1684D1*
X-2069D1*
X14181Y-816D2*
X14306D1*
X15806Y684D1*
X17056D1*
X17306Y934D1*
Y1434D1*
X17056Y1684D1*
X12556D1*
X11560Y688D1*
X7685D1*
X7181Y184D1*
Y-1566D1*
X5431D2*
X4681Y-816D1*
X931D1*
X-1319Y1434D1*
X-2569Y-18816D2*
X-2069Y-18316D1*
X-1444D1*
X-1069Y-17941D1*
Y-17316D1*
X-569Y-16816D1*
X9681D2*
X7431Y-14566D1*
Y-12066D1*
X6806Y-11441D1*
X-6569D1*
Y-9816D2*
Y-6381D1*
X-18069Y10059D2*
X-17194D1*
X-16944Y9809D1*
Y5809D1*
X-14444Y3309D1*
Y2934D1*
X-12319Y809D1*
Y-691D1*
X-11069Y-1941D1*
X-18069Y8059D2*
X-18944D1*
X-19569Y8684D1*
Y13434D1*
X-18253Y14750D1*
X-11003D1*
X-10659Y15094D1*
Y15625D1*
X-15069Y12059D2*
X-14819D1*
X-14444Y12434D1*
Y13309D1*
X-13753Y14000D1*
X-9003D1*
X-7944Y15059D1*
Y15934D1*
X-8194Y16184D1*
X-8465D1*
X-9024Y16743D1*
X-18069Y11059D2*
X-17194D1*
X-16694Y10559D1*
Y5934D1*
X-14194Y3434D1*
Y3059D1*
X-11194Y59D1*
X-11069D1*
X-15069Y11059D2*
Y11181D1*
X-13750Y12500D1*
X-11625D1*
X-11125Y13000D1*
X-27319Y-6316D2*
D14*
Y-7576D1*
Y-11931D1*
X-26625Y-12625D1*
X-23944Y-8941D2*
X-22069D1*
X-19819D1*
X-27319Y-5056D2*
X-25329D1*
X-23944Y-6441D1*
Y-8941D1*
X-19194Y-6191D2*
Y-8066D1*
X-19819Y-8691D1*
Y-8941D1*
X19306Y-15316D2*
D13*
Y-14316D1*
X18431Y-13441D1*
X16056D1*
X15806Y-13191D1*
Y-11941D1*
X15306Y-11441D1*
X12681D1*
X12306Y-11816D1*
Y-14316D1*
X11556Y-15066D1*
X10181D1*
X9431Y-14316D1*
Y-12066D1*
X8306Y-10941D1*
X-819D1*
X-3569Y-8191D1*
Y-6816D1*
X-3069Y-6316D1*
X6056D1*
X6931Y-7191D1*
Y-7691D1*
X-11069Y4059D2*
X-10194Y3184D1*
Y-2191D1*
X-10444Y-2441D1*
X-11194D1*
X-12569Y-1066D1*
Y684D1*
X-14694Y2809D1*
Y3184D1*
X-17194Y5684D1*
Y6184D1*
X-17569Y6559D1*
X-18309D1*
X-18625Y6875D1*
Y7375D1*
X-19750Y8500D1*
X-22010D1*
X-25819Y12309D1*
D35*
X28431Y7559D3*
X16331Y14909D3*
X28431Y6934D3*
X1306Y7309D3*
X5431Y-941D3*
X8431D3*
X-9444Y-2191D3*
Y5434D3*
X-2569Y-19691D3*
X56D3*
X-3069Y-19316D3*
X-13069Y3559D3*
X-1569Y-1816D3*
X-10069Y-10941D3*
X-11444Y-8941D3*
X-569Y-19941D3*
X2181Y-20441D3*
X-19069Y-20691D3*
X-20819Y-18941D3*
X14931Y-17191D3*
X29681Y-13441D3*
Y-11263D3*
Y-4691D3*
X2556Y14809D3*
X4681Y1184D3*
X7306D3*
X30056Y-12441D3*
Y-16441D3*
X4806Y-19816D3*
X-3069Y-10566D3*
X-569D3*
Y-8191D3*
X806Y-4441D3*
X3306Y-3316D3*
X931Y-1316D3*
X-10444Y-12816D3*
X-11569Y-9441D3*
X1681Y-2816D3*
X5431Y-2191D3*
X7931D3*
X18056Y-3316D3*
X15556D3*
X-2194Y-10191D3*
X-3569D3*
X25181Y11184D3*
X8806Y3184D3*
Y-316D3*
X7181Y-1566D3*
X5431D3*
X-569Y-16816D3*
X9681D3*
X-6569Y-11441D3*
Y-9816D3*
Y-6381D3*
X-5125Y-4937D3*
D18*
X-26625Y-12625D3*
Y-10263D3*
D19*
X-23944Y-9941D3*
D20*
Y-8941D3*
D19*
X11056Y-13816D3*
D20*
Y-11816D3*
D19*
X-14569Y-11941D3*
D20*
Y-10941D3*
D19*
X12306Y16684D3*
D20*
X14306D3*
D19*
X-3444Y-2441D3*
D20*
Y-4441D3*
D19*
X-14694Y-14441D3*
D20*
X-16694D3*
D19*
X5744Y4684D3*
D20*
Y2684D3*
D19*
X-13319Y6934D3*
D20*
Y4934D3*
D19*
X-19944Y7559D3*
D20*
Y5559D3*
D19*
X13181Y-7191D3*
D20*
X11181D3*
D19*
X28500Y5500D3*
D20*
Y3500D3*
D19*
X-13312Y11062D3*
D20*
Y9062D3*
D19*
X-18819Y3684D3*
D20*
X-16819D3*
D19*
X-11125Y13000D3*
D20*
Y11000D3*
D19*
X18681Y-7191D3*
D20*
X16681D3*
D19*
X22431Y-14003D3*
D20*
Y-16003D3*
D21*
X-12819Y-2691D3*
D22*
X-17169D3*
D21*
X-22375Y-3250D3*
D22*
Y-7600D3*
D23*
X-10069Y-13691D3*
D24*
X-9069D3*
X-8069D3*
X-7069D3*
X-6069D3*
X-5069D3*
X-4069D3*
X-3069D3*
X-2069D3*
X-1069D3*
X-69D3*
X931D3*
X1931D3*
X2931D3*
X3931D3*
X4931D3*
X5931D3*
X6931D3*
X7931D3*
X8931D3*
Y-7691D3*
X7931D3*
X6931D3*
X5931D3*
X4931D3*
X3931D3*
X2931D3*
X1931D3*
X931D3*
X-69D3*
X-1069D3*
X-2069D3*
X-3069D3*
X-4069D3*
X-5069D3*
X-6069D3*
X-7069D3*
X-8069D3*
X-9069D3*
X-10069D3*
D23*
X-11069Y9059D3*
D24*
Y8059D3*
Y7059D3*
Y6059D3*
Y5059D3*
Y4059D3*
Y3059D3*
Y2059D3*
Y1059D3*
Y59D3*
Y-941D3*
Y-1941D3*
Y-2941D3*
Y-3941D3*
X-5085D3*
Y-2941D3*
Y-1941D3*
Y-941D3*
Y59D3*
Y1059D3*
Y2059D3*
Y3059D3*
Y4059D3*
Y5059D3*
Y6059D3*
Y7059D3*
Y8059D3*
Y9059D3*
D23*
X14331Y8284D3*
D24*
X15331D3*
X16331D3*
X17331D3*
X18331D3*
X19331D3*
X20331D3*
X21331D3*
X22331D3*
X23331D3*
X24331D3*
X25331D3*
X26331D3*
X27331D3*
Y14284D3*
X26331D3*
X25331D3*
X24331D3*
X23331D3*
X22331D3*
X21331D3*
X20331D3*
X19331D3*
X18331D3*
X17331D3*
X16331D3*
X15331D3*
X14331D3*
D23*
X3931Y-4316D3*
D24*
Y-3316D3*
Y-2316D3*
Y-1316D3*
Y-316D3*
Y684D3*
Y1684D3*
Y2684D3*
Y3684D3*
Y4684D3*
Y5684D3*
Y6684D3*
Y7684D3*
Y8684D3*
Y9684D3*
Y10684D3*
Y11684D3*
Y12684D3*
Y13684D3*
Y14684D3*
X-2069D3*
Y13684D3*
Y12684D3*
Y11684D3*
Y10684D3*
Y9684D3*
Y8684D3*
Y7684D3*
Y6684D3*
Y5684D3*
Y4684D3*
Y3684D3*
Y2684D3*
Y1684D3*
Y684D3*
Y-316D3*
Y-1316D3*
Y-2316D3*
Y-3316D3*
Y-4316D3*
D23*
X22556Y1309D3*
D24*
Y309D3*
Y-691D3*
Y-1691D3*
Y-2691D3*
Y-3691D3*
Y-4691D3*
Y-5691D3*
Y-6691D3*
Y-7691D3*
Y-8691D3*
Y-9691D3*
Y-10691D3*
Y-11691D3*
X28556D3*
Y-10691D3*
Y-9691D3*
Y-8691D3*
Y-7691D3*
Y-6691D3*
Y-5691D3*
Y-4691D3*
Y-3691D3*
Y-2691D3*
Y-1691D3*
Y-691D3*
Y309D3*
Y1309D3*
D23*
X-15069Y6059D3*
D24*
Y7059D3*
Y8059D3*
Y9059D3*
Y10059D3*
Y11059D3*
Y12059D3*
Y13059D3*
X-18069D3*
Y12059D3*
Y11059D3*
Y10059D3*
Y9059D3*
Y8059D3*
Y7059D3*
Y6059D3*
D23*
X-10569Y-18816D3*
D24*
Y-17816D3*
X-9569Y-18816D3*
Y-17816D3*
X-8569Y-18816D3*
Y-17816D3*
X-7569Y-18816D3*
Y-17816D3*
X-6569Y-18816D3*
Y-17816D3*
X-5569Y-18816D3*
Y-17816D3*
X-4569Y-18816D3*
Y-17816D3*
X-3569Y-18816D3*
Y-17816D3*
X-2569Y-18816D3*
Y-17816D3*
X-1569Y-18816D3*
Y-17816D3*
X-569Y-18816D3*
Y-17816D3*
X431Y-18816D3*
Y-17816D3*
X1431Y-18816D3*
Y-17816D3*
X2431Y-18816D3*
Y-17816D3*
X3431Y-18816D3*
Y-17816D3*
X4431Y-18816D3*
Y-17816D3*
X5431Y-18816D3*
Y-17816D3*
X6431Y-18816D3*
Y-17816D3*
X7431Y-18816D3*
Y-17816D3*
X8431Y-18816D3*
Y-17816D3*
X9431Y-18816D3*
Y-17816D3*
X10431Y-18816D3*
Y-17816D3*
X11431Y-18816D3*
Y-17816D3*
X12431Y-18816D3*
Y-17816D3*
X13431Y-18816D3*
Y-17816D3*
D20*
X-26069Y-14816D3*
D25*
Y-15603D3*
D26*
X-11750Y15625D3*
D27*
X-10659D3*
X-9569D3*
X-8478D3*
X-7388D3*
X-11205Y16743D3*
X-10114D3*
X-9024D3*
X-7933D3*
D28*
X-14488Y16184D3*
X-4650D3*
D29*
X-17225Y-6191D3*
X-19194D3*
D30*
X-17319Y559D3*
D31*
X-13319D3*
D30*
X-22069Y-8941D3*
D31*
Y-12941D3*
D30*
X9556Y-4441D3*
D31*
X5556D3*
D30*
Y-3316D3*
D31*
Y684D3*
D30*
X-22069Y-14441D3*
D31*
X-18069D3*
D32*
X-17194Y-18816D3*
D33*
Y-17044D3*
X-19753D3*
Y-18816D3*
D24*
X-27319Y-5056D3*
Y-6316D3*
Y-7576D3*
G36*
X-23516Y-18361D2*
X-23417Y-18460D1*
X-23220D1*
X-23122Y-18361D1*
Y-17771D1*
X-23220Y-17672D1*
X-23417D1*
X-23516Y-17771D1*
Y-18361D1*
G37*
D34*
X-22819Y-18066D3*
X-22319D3*
D23*
X20306Y-12316D3*
D24*
X19306D3*
X18306D3*
X17306D3*
X16306D3*
X15306D3*
X14306D3*
X13306D3*
Y-15316D3*
X14306D3*
X15306D3*
X16306D3*
X17306D3*
X18306D3*
X19306D3*
X20306D3*
D23*
X19681Y-4816D3*
D24*
Y-3816D3*
Y-2816D3*
Y-1816D3*
Y-816D3*
Y184D3*
Y1184D3*
X16681D3*
Y184D3*
Y-816D3*
Y-1816D3*
Y-2816D3*
Y-3816D3*
Y-4816D3*
D23*
X-19819Y-8941D3*
D24*
Y-9941D3*
Y-10941D3*
Y-11941D3*
X-16819D3*
Y-10941D3*
Y-9941D3*
Y-8941D3*
D23*
X14181Y-4816D3*
D24*
Y-3816D3*
Y-2816D3*
Y-1816D3*
Y-816D3*
Y184D3*
Y1184D3*
X11181D3*
Y184D3*
Y-816D3*
Y-1816D3*
Y-2816D3*
Y-3816D3*
Y-4816D3*
D23*
X-22819Y6309D3*
D24*
Y12309D3*
X-25819D3*
Y6309D3*
D23*
Y-1316D3*
D24*
X-19819D3*
Y1684D3*
X-25819D3*
M02*
