G04 DipTrace 2.4.0.2*
%INTopSilk.gbr*%
%MOIN*%
%ADD10C,0.0098*%
%ADD12C,0.003*%
%ADD59C,0.0077*%
%ADD60C,0.0093*%
%ADD61C,0.0293*%
%ADD62C,0.0154*%
%ADD63C,0.0108*%
%FSLAX44Y44*%
G04*
G70*
G90*
G75*
G01*
%LNTopSilk*%
%LPD*%
X-27250Y-12631D2*
D10*
X-27000D1*
X-27125Y-12756D2*
Y-12506D1*
Y-10444D2*
Y-10069D1*
X-24544Y-8742D2*
Y-10140D1*
X-23344Y-8742D2*
Y-10140D1*
X-24544D2*
G03X-23344Y-10140I600J-1D01*
G01*
Y-8742D2*
G03X-24544Y-8742I-600J1D01*
G01*
X11656Y-11617D2*
Y-14015D1*
X10456Y-11617D2*
Y-14015D1*
G03X11656Y-14015I600J-1D01*
G01*
Y-11617D2*
G03X10456Y-11617I-600J1D01*
G01*
X-15169Y-10742D2*
Y-12140D1*
X-13969Y-10742D2*
Y-12140D1*
X-15169D2*
G03X-13969Y-12140I600J-1D01*
G01*
Y-10742D2*
G03X-15169Y-10742I-600J1D01*
G01*
X14505Y16084D2*
X12107D1*
X14505Y17284D2*
X12107D1*
G03X12107Y16084I-1J-600D01*
G01*
X14505D2*
G03X14505Y17284I1J600D01*
G01*
X-4044Y-4640D2*
Y-2242D1*
X-2844Y-4640D2*
Y-2242D1*
G03X-4044Y-2242I-600J1D01*
G01*
Y-4640D2*
G03X-2844Y-4640I600J-1D01*
G01*
X-16893Y-13841D2*
X-14495D1*
X-16893Y-15041D2*
X-14495D1*
G03X-14495Y-13841I1J600D01*
G01*
X-16893D2*
G03X-16893Y-15041I-1J-600D01*
G01*
X5144Y2485D2*
Y4883D1*
X6344Y2485D2*
Y4883D1*
G03X5144Y4883I-600J1D01*
G01*
Y2485D2*
G03X6344Y2485I600J-1D01*
G01*
X-13919Y4735D2*
Y7133D1*
X-12719Y4735D2*
Y7133D1*
G03X-13919Y7133I-600J1D01*
G01*
Y4735D2*
G03X-12719Y4735I600J-1D01*
G01*
X-20544Y5360D2*
Y7758D1*
X-19344Y5360D2*
Y7758D1*
G03X-20544Y7758I-600J1D01*
G01*
Y5360D2*
G03X-19344Y5360I600J-1D01*
G01*
X10982Y-6591D2*
X13380D1*
X10982Y-7791D2*
X13380D1*
G03X13380Y-6591I1J600D01*
G01*
X10982D2*
G03X10982Y-7791I-1J-600D01*
G01*
X27900Y3301D2*
Y5699D1*
X29100Y3301D2*
Y5699D1*
G03X27900Y5699I-600J1D01*
G01*
Y3301D2*
G03X29100Y3301I600J-1D01*
G01*
X-13912Y8864D2*
Y11261D1*
X-12712Y8864D2*
Y11261D1*
G03X-13912Y11261I-600J1D01*
G01*
Y8864D2*
G03X-12712Y8864I600J-1D01*
G01*
X-16620Y3084D2*
X-19018D1*
X-16620Y4284D2*
X-19018D1*
G03X-19018Y3084I-1J-600D01*
G01*
X-16620D2*
G03X-16620Y4284I1J600D01*
G01*
X-11725Y10801D2*
Y13199D1*
X-10525Y10801D2*
Y13199D1*
G03X-11725Y13199I-600J1D01*
G01*
Y10801D2*
G03X-10525Y10801I600J-1D01*
G01*
X16482Y-6591D2*
X18880D1*
X16482Y-7791D2*
X18880D1*
G03X18880Y-6591I1J600D01*
G01*
X16482D2*
G03X16482Y-7791I-1J-600D01*
G01*
X21831Y-16202D2*
Y-13805D1*
X23031Y-16202D2*
Y-13805D1*
G03X21831Y-13805I-600J1D01*
G01*
Y-16202D2*
G03X23031Y-16202I600J-1D01*
G01*
X-14048Y-2140D2*
Y-3242D1*
X-14068D2*
X-15920D1*
X-14347Y-2140D2*
Y-3242D1*
X-15920Y-2140D2*
Y-3242D1*
X-14068Y-2140D2*
X-15920D1*
X-22926Y-4479D2*
X-21824D1*
Y-4499D2*
Y-6351D1*
X-22926Y-4778D2*
X-21824D1*
X-22926Y-6351D2*
X-21824D1*
X-22926Y-4499D2*
Y-6351D1*
X-10607Y-13211D2*
X9470D1*
Y-8171D1*
X-10607D2*
X9470D1*
X-10648Y-13211D2*
Y-11006D1*
Y-8171D2*
Y-10376D1*
Y-11006D2*
G03X-10648Y-10376I-1J315D01*
G01*
X-5557Y9882D2*
Y-4764D1*
X-10596D2*
X-5557D1*
X-10596Y9882D2*
Y-4764D1*
Y9882D2*
X-8392D1*
X-5557D2*
X-7762D1*
X-8392D2*
G03X-7762Y9882I315J0D01*
G01*
X13508Y13796D2*
X28154D1*
Y8757D2*
Y13796D1*
X13508Y8757D2*
X28154D1*
X13508D2*
Y10961D1*
Y13796D2*
Y11591D1*
Y10961D2*
G03X13508Y11591I0J315D01*
G01*
X3451Y-4854D2*
Y15223D1*
X-1588D1*
Y-4854D2*
Y15223D1*
X3451Y-4895D2*
X1246D1*
X-1588D2*
X616D1*
X1246D2*
G03X616Y-4895I-315J-1D01*
G01*
X28068Y2132D2*
Y-12514D1*
X23029D2*
X28068D1*
X23029Y2132D2*
Y-12514D1*
Y2132D2*
X25233D1*
X28068D2*
X25863D1*
X25233D2*
G03X25863Y2132I315J0D01*
G01*
X-17593Y5543D2*
Y13575D1*
X-15545D2*
X-17593D1*
X-15545Y5543D2*
Y13575D1*
Y5543D2*
X-16333D1*
X-17593D2*
X-16805D1*
X-16333D2*
G03X-16805Y5543I-236J0D01*
G01*
X-11069Y-19316D2*
X13931D1*
X-11069Y-17316D2*
X13931D1*
X-11069Y-19316D2*
Y-17316D1*
X13931Y-19316D2*
Y-17316D1*
X-25400Y-14048D2*
X-27171D1*
Y-16371D1*
X-25400D1*
Y-14048D1*
X-4646Y22033D2*
G03X-5652Y22033I-503J-523D01*
G01*
X-3651D2*
G03X-4646Y22033I-497J-508D01*
G01*
Y20200D2*
G03X-3651Y20200I497J483D01*
G01*
X-5652D2*
G03X-4646Y20200I503J498D01*
G01*
X-14492Y22033D2*
G03X-15486Y22033I-497J-508D01*
G01*
X-13486D2*
G03X-14492Y22033I-503J-523D01*
G01*
Y20200D2*
G03X-13486Y20200I503J498D01*
G01*
X-15486D2*
G03X-14492Y20200I497J483D01*
G01*
X-6077Y22011D2*
G03X-6356Y22287I-281J-6D01*
G01*
X-6077Y20200D2*
G03X-5810Y19925I261J-14D01*
G01*
X-12782Y22287D2*
G03X-13061Y22011I2J-281D01*
G01*
X-13328Y19925D2*
G03X-13061Y20200I6J261D01*
G01*
X-5652D2*
X-5398Y19947D1*
X-5652Y20200D2*
Y22033D1*
X-5398Y22287D1*
X-3894D1*
X-3651Y22033D1*
Y21533D2*
Y21613D1*
Y20200D2*
Y22033D1*
X-3894Y19947D2*
X-3651Y20200D1*
X-4646D2*
Y22033D1*
X-15486Y20200D2*
X-15244Y19947D1*
X-15486Y20200D2*
Y22033D1*
X-15244Y22287D1*
X-13740D1*
X-13486Y22033D1*
Y21533D2*
Y21613D1*
Y20200D2*
Y22033D1*
X-13740Y19947D2*
X-13486Y20200D1*
X-14492D2*
Y22033D1*
X-6077Y20200D2*
Y22011D1*
X-13061Y20200D2*
Y22011D1*
X-12321Y15042D2*
Y18744D1*
X-15632Y19925D2*
X-3506D1*
X-6816Y15042D2*
Y18744D1*
X-15632Y15042D2*
X-3506D1*
X-12782Y22287D2*
X-6356D1*
X-15632Y15042D2*
Y19925D1*
X-3506Y15042D2*
Y19925D1*
X-15632Y18744D2*
X-3506D1*
X-19844Y-6191D2*
G02X-19844Y-6191I1634J0D01*
G01*
X-14321Y59D2*
X-16317D1*
Y1059D2*
Y59D1*
X-14321Y1059D2*
X-16317D1*
X-14321D2*
Y59D1*
X-22569Y-11939D2*
Y-9943D1*
X-21569D2*
X-22569D1*
X-21569Y-11939D2*
Y-9943D1*
Y-11939D2*
X-22569D1*
X6558Y-3941D2*
X8554D1*
Y-4941D2*
Y-3941D1*
X6558Y-4941D2*
X8554D1*
X6558D2*
Y-3941D1*
X6056Y-318D2*
Y-2314D1*
X5056D2*
X6056D1*
X5056Y-318D2*
Y-2314D1*
Y-318D2*
X6056D1*
X-19071Y-14941D2*
X-21067D1*
Y-13941D2*
Y-14941D1*
X-19071Y-13941D2*
X-21067D1*
X-19071D2*
Y-14941D1*
X-19182Y-17930D2*
G02X-19182Y-17930I709J0D01*
G01*
X-17568Y-16749D2*
X-19379D1*
X-19655Y-17536D2*
Y-18324D1*
X-19379Y-19111D2*
X-17725D1*
X-17292Y-18324D2*
Y-17536D1*
X-19064Y-17930D2*
G02X-19064Y-17930I590J0D01*
G01*
X-26098Y-3560D2*
X-28539D1*
Y-9072D1*
X-26098D1*
Y-3560D1*
X-28539Y-5726D2*
X-30508D1*
X-28539Y-6906D2*
X-30508D1*
Y-5726D2*
Y-6906D1*
X-23575Y-18597D2*
G02X-22063Y-18597I756J666D01*
G01*
X-23575D1*
X20822Y-14840D2*
X12790D1*
Y-12792D2*
Y-14840D1*
X20822Y-12792D2*
X12790D1*
X20822D2*
Y-13580D1*
Y-14840D2*
Y-14052D1*
Y-13580D2*
G03X20822Y-14052I0J-236D01*
G01*
X17157Y-5674D2*
Y2042D1*
X19205D2*
X17157D1*
X19205Y-5674D2*
Y2042D1*
Y-5674D2*
X18417D1*
X17157D2*
X17945D1*
X18417D2*
G03X17945Y-5674I-236J0D01*
G01*
X-17295Y-8472D2*
Y-12409D1*
X-19343D2*
X-17295D1*
X-19343Y-8472D2*
Y-12409D1*
Y-8472D2*
X-18555D1*
X-17295D2*
X-18083D1*
X-18555D2*
G03X-18083Y-8472I236J0D01*
G01*
X11657Y-5674D2*
Y2042D1*
X13705D2*
X11657D1*
X13705Y-5674D2*
Y2042D1*
Y-5674D2*
X12917D1*
X11657D2*
X12445D1*
X12917D2*
G03X12445Y-5674I-236J0D01*
G01*
X-21819Y5309D2*
Y12809D1*
X-22319Y13309D2*
X-26319D1*
X-26819Y12809D2*
Y5809D1*
X-21819Y5309D2*
X-26319D1*
X-22069Y5809D2*
Y12809D1*
X-22319Y13059D2*
X-26319D1*
X-26569Y12809D2*
Y5809D1*
X-26319Y5559D2*
X-22319D1*
X-21819Y12809D2*
G03X-22319Y13309I-500J0D01*
G01*
X-22069Y12809D2*
G03X-22319Y13059I-250J0D01*
G01*
X-26569Y12809D2*
G02X-26319Y13059I250J0D01*
G01*
X-26819Y12809D2*
G02X-26319Y13309I500J0D01*
G01*
Y5559D2*
G02X-26569Y5809I0J250D01*
G01*
X-26319Y5309D2*
G02X-26819Y5809I0J500D01*
G01*
X-22319Y5559D2*
G03X-22069Y5809I0J250D01*
G01*
X-26319Y9179D2*
X-25319D1*
Y9429D1*
X-26319D1*
Y9179D1*
Y9679D2*
X-25819D1*
X-26319Y8939D2*
X-25819D1*
Y9679D2*
Y10309D1*
Y9679D2*
X-25319D1*
X-25819Y8939D2*
Y8309D1*
Y8939D2*
X-25319D1*
X-26819Y-2316D2*
X-19319D1*
X-18819Y-1816D2*
Y2184D1*
X-19319Y2684D2*
X-26319D1*
X-26819Y-2316D2*
Y2184D1*
X-26319Y-2066D2*
X-19319D1*
X-19068Y-1816D2*
Y2184D1*
X-19319Y2434D2*
X-26319D1*
X-26569Y2184D2*
Y-1816D1*
X-19319Y-2316D2*
G03X-18819Y-1816I0J500D01*
G01*
X-19319Y-2066D2*
G03X-19068Y-1816I0J250D01*
G01*
X-19319Y2434D2*
G02X-19068Y2184I0J-250D01*
G01*
X-19319Y2684D2*
G02X-18819Y2184I0J-500D01*
G01*
X-26569D2*
G02X-26319Y2434I250J0D01*
G01*
X-26819Y2184D2*
G02X-26319Y2684I500J0D01*
G01*
X-26569Y-1816D2*
G03X-26319Y-2066I250J0D01*
G01*
X-22948Y2184D2*
Y1184D1*
X-22699D1*
Y2184D1*
X-22948D1*
X-22449D2*
Y1684D1*
X-23188Y2184D2*
Y1684D1*
X-22449D2*
X-21819D1*
X-22449D2*
Y1184D1*
X-23188Y1684D2*
X-23819D1*
X-23188D2*
Y1184D1*
X8493Y9853D2*
D12*
X8853D1*
X8394Y9823D2*
X8956D1*
X8305Y9793D2*
X9054D1*
X8227Y9763D2*
X9143D1*
X8161Y9733D2*
X9223D1*
X8105Y9703D2*
X9292D1*
X8059Y9673D2*
X9353D1*
X8020Y9643D2*
X8570D1*
X8780D2*
X9404D1*
X7985Y9613D2*
X8458D1*
X8901D2*
X9449D1*
X7954Y9583D2*
X8368D1*
X9001D2*
X9491D1*
X7923Y9553D2*
X8294D1*
X9084D2*
X9531D1*
X7893Y9523D2*
X8233D1*
X9154D2*
X9567D1*
X7863Y9493D2*
X8182D1*
X9214D2*
X9601D1*
X7833Y9463D2*
X8141D1*
X9269D2*
X9635D1*
X7803Y9433D2*
X8106D1*
X9321D2*
X9669D1*
X7774Y9403D2*
X8073D1*
X9371D2*
X9700D1*
X7748Y9373D2*
X8166D1*
X9416D2*
X9728D1*
X7725Y9343D2*
X8243D1*
X9454D2*
X9754D1*
X7704Y9313D2*
X8304D1*
X9485D2*
X9779D1*
X7683Y9283D2*
X8349D1*
X9514D2*
X9800D1*
X7664Y9253D2*
X8382D1*
X9543D2*
X9818D1*
X7647Y9223D2*
X8408D1*
X9572D2*
X9834D1*
X7631Y9193D2*
X8431D1*
X9598D2*
X9849D1*
X7615Y9163D2*
X8451D1*
X9620D2*
X9861D1*
X7599Y9133D2*
X7863D1*
X8182D2*
X8468D1*
X9641D2*
X9872D1*
X7581Y9103D2*
X7834D1*
X8222D2*
X8484D1*
X9662D2*
X9882D1*
X7563Y9073D2*
X7808D1*
X8253D2*
X8499D1*
X9681D2*
X9893D1*
X7547Y9043D2*
X7785D1*
X8279D2*
X8511D1*
X9697D2*
X9902D1*
X7535Y9013D2*
X7764D1*
X8300D2*
X8522D1*
X9710D2*
X9912D1*
X7522Y8983D2*
X7743D1*
X8317D2*
X8532D1*
X9721D2*
X9921D1*
X7509Y8953D2*
X7724D1*
X8330D2*
X8541D1*
X9732D2*
X9927D1*
X7494Y8923D2*
X7708D1*
X8341D2*
X8547D1*
X8853D2*
X9063D1*
X9741D2*
X9930D1*
X7480Y8893D2*
X7695D1*
X8352D2*
X8552D1*
X8764D2*
X9131D1*
X9747D2*
X9933D1*
X7465Y8863D2*
X7684D1*
X8361D2*
X8558D1*
X8682D2*
X9190D1*
X9750D2*
X9938D1*
X7450Y8833D2*
X7672D1*
X8367D2*
X8568D1*
X8602D2*
X9238D1*
X9752D2*
X9949D1*
X7436Y8803D2*
X7659D1*
X8370D2*
X9276D1*
X9752D2*
X9963D1*
X7424Y8773D2*
X7646D1*
X8370D2*
X9306D1*
X9752D2*
X9933D1*
X7413Y8743D2*
X7635D1*
X7743D2*
X7923D1*
X8367D2*
X9333D1*
X9752D2*
X9945D1*
X6273Y8713D2*
X6933D1*
X7403D2*
X7628D1*
X7718D2*
X7938D1*
X8360D2*
X9358D1*
X9752D2*
X9944D1*
X6161Y8683D2*
X7059D1*
X7391D2*
X7625D1*
X7701D2*
X7951D1*
X8351D2*
X8794D1*
X9085D2*
X9379D1*
X9753D2*
X9940D1*
X6066Y8653D2*
X7188D1*
X7376D2*
X7625D1*
X7690D2*
X7966D1*
X8341D2*
X8738D1*
X9129D2*
X9397D1*
X9752D2*
X9936D1*
X5987Y8623D2*
X7326D1*
X7352D2*
X7629D1*
X7680D2*
X7983D1*
X8327D2*
X8686D1*
X9161D2*
X9409D1*
X9751D2*
X9934D1*
X5919Y8593D2*
X7639D1*
X7668D2*
X7967D1*
X8310D2*
X8640D1*
X9184D2*
X9417D1*
X9748D2*
X9933D1*
X5856Y8563D2*
X7953D1*
X8292D2*
X8601D1*
X9203D2*
X9425D1*
X9740D2*
X9933D1*
X5799Y8533D2*
X7938D1*
X8271D2*
X8572D1*
X9218D2*
X9434D1*
X9733D2*
X9931D1*
X5750Y8503D2*
X6374D1*
X6453D2*
X6721D1*
X6764D2*
X7899D1*
X8246D2*
X8550D1*
X9230D2*
X9442D1*
X9726D2*
X9928D1*
X5706Y8473D2*
X6250D1*
X6483D2*
X6748D1*
X6931D2*
X7842D1*
X8212D2*
X8532D1*
X9237D2*
X9447D1*
X9720D2*
X9920D1*
X5663Y8443D2*
X6145D1*
X6512D2*
X6770D1*
X7069D2*
X7773D1*
X8162D2*
X8516D1*
X9240D2*
X9450D1*
X9711D2*
X9911D1*
X5619Y8413D2*
X6058D1*
X6541D2*
X6791D1*
X7181D2*
X7857D1*
X8082D2*
X8500D1*
X9242D2*
X9452D1*
X9702D2*
X9902D1*
X5576Y8383D2*
X5984D1*
X6568D2*
X6812D1*
X7274D2*
X7970D1*
X7967D2*
X8486D1*
X9242D2*
X9452D1*
X9692D2*
X9892D1*
X5535Y8353D2*
X5918D1*
X6590D2*
X6831D1*
X7349D2*
X7503D1*
X7563D2*
X8475D1*
X9242D2*
X9452D1*
X9681D2*
X9882D1*
X5499Y8323D2*
X5860D1*
X6611D2*
X6848D1*
X7413D2*
X7503D1*
X7593D2*
X8467D1*
X9242D2*
X9452D1*
X9668D2*
X9873D1*
X5470Y8293D2*
X5812D1*
X6632D2*
X6864D1*
X7473D2*
X7503D1*
X7624D2*
X8460D1*
X9242D2*
X9451D1*
X9654D2*
X9862D1*
X5446Y8263D2*
X5771D1*
X6651D2*
X6880D1*
X7659D2*
X8451D1*
X8583D2*
X8733D1*
X9241D2*
X9448D1*
X9640D2*
X9852D1*
X5423Y8233D2*
X5735D1*
X6667D2*
X6895D1*
X7705D2*
X8443D1*
X8558D2*
X8758D1*
X9238D2*
X9440D1*
X9626D2*
X9843D1*
X5399Y8203D2*
X5699D1*
X6680D2*
X6909D1*
X7768D2*
X8170D1*
X8253D2*
X8438D1*
X8541D2*
X8779D1*
X9230D2*
X9433D1*
X9614D2*
X9832D1*
X5375Y8173D2*
X5662D1*
X6692D2*
X6920D1*
X7854D2*
X8068D1*
X8253D2*
X8436D1*
X8531D2*
X8795D1*
X9221D2*
X9426D1*
X9603D2*
X9822D1*
X5354Y8143D2*
X5628D1*
X6703D2*
X6928D1*
X7953D2*
D3*
X8253D2*
X8438D1*
X8526D2*
X8807D1*
X9212D2*
X9420D1*
X9592D2*
X9813D1*
X5332Y8113D2*
X5600D1*
X6716D2*
X6935D1*
X8253D2*
X8445D1*
X8525D2*
X8804D1*
X9201D2*
X9411D1*
X9577D2*
X9801D1*
X5309Y8083D2*
X5575D1*
X6730D2*
X6944D1*
X8253D2*
X8454D1*
X8527D2*
X8793D1*
X9187D2*
X9402D1*
X9560D2*
X9788D1*
X5285Y8053D2*
X5548D1*
X6741D2*
X6952D1*
X8254D2*
X8463D1*
X8542D2*
X8776D1*
X9169D2*
X9392D1*
X9542D2*
X9774D1*
X5265Y8023D2*
X5521D1*
X6752D2*
X6959D1*
X8258D2*
X8474D1*
X8575D2*
X8741D1*
X9146D2*
X9381D1*
X9523D2*
X9760D1*
X5247Y7993D2*
X5493D1*
X6762D2*
X6965D1*
X8265D2*
X8488D1*
X8613D2*
X8703D1*
X9120D2*
X9368D1*
X9506D2*
X9745D1*
X5231Y7963D2*
X5468D1*
X6771D2*
X6974D1*
X8274D2*
X8505D1*
X9091D2*
X9354D1*
X9491D2*
X9729D1*
X5216Y7933D2*
X5450D1*
X6777D2*
X6982D1*
X8283D2*
X8525D1*
X9061D2*
X9339D1*
X9475D2*
X9711D1*
X5204Y7903D2*
X5436D1*
X6780D2*
X6987D1*
X8294D2*
X8549D1*
X9025D2*
X9320D1*
X9459D2*
X9692D1*
X5193Y7873D2*
X5423D1*
X6782D2*
X6990D1*
X8308D2*
X8577D1*
X8975D2*
X9297D1*
X9441D2*
X9673D1*
X5183Y7843D2*
X5409D1*
X6783D2*
X6992D1*
X7983D2*
D3*
X8326D2*
X8647D1*
X8893D2*
X9270D1*
X9422D2*
X9656D1*
X5172Y7813D2*
X5396D1*
X6787D2*
X6992D1*
X7957D2*
X8043D1*
X8348D2*
X8753D1*
X8766D2*
X9242D1*
X9402D2*
X9640D1*
X5163Y7783D2*
X5384D1*
X6795D2*
X6992D1*
X7935D2*
X8080D1*
X8371D2*
X9212D1*
X9381D2*
X9621D1*
X5153Y7753D2*
X5373D1*
X6802D2*
X6992D1*
X7912D2*
X8111D1*
X8396D2*
X9181D1*
X9357D2*
X9602D1*
X5144Y7723D2*
X5363D1*
X6807D2*
X6992D1*
X7887D2*
X8120D1*
X8426D2*
X9146D1*
X9331D2*
X9582D1*
X5138Y7693D2*
X5353D1*
X6809D2*
X6993D1*
X7859D2*
X8112D1*
X8463D2*
X9104D1*
X9307D2*
X9562D1*
X5135Y7663D2*
X5347D1*
X6807D2*
X6993D1*
X7824D2*
X8098D1*
X8504D2*
X9053D1*
X9284D2*
X9538D1*
X5133Y7633D2*
X5340D1*
X6800D2*
X6993D1*
X7774D2*
X8081D1*
X8553D2*
X8993D1*
X9262D2*
X9515D1*
X5133Y7603D2*
X5331D1*
X6793D2*
X6993D1*
X7696D2*
X8061D1*
X8610D2*
X8925D1*
X9239D2*
X9495D1*
X5133Y7573D2*
X5323D1*
X6787D2*
X6993D1*
X7565D2*
X8037D1*
X8673D2*
X8853D1*
X9215D2*
X9477D1*
X5133Y7543D2*
X5318D1*
X6782D2*
X6993D1*
X7354D2*
X8010D1*
X9194D2*
X9460D1*
X5133Y7513D2*
X5315D1*
X6774D2*
X6993D1*
X7060D2*
X7981D1*
X9172D2*
X9440D1*
X5133Y7483D2*
X5313D1*
X6743D2*
X7951D1*
X9147D2*
X9417D1*
X5133Y7453D2*
X5313D1*
X6672D2*
X7915D1*
X9120D2*
X9391D1*
X10203D2*
X10833D1*
X5133Y7423D2*
X5313D1*
X6582D2*
X7865D1*
X9092D2*
X9367D1*
X9938D2*
X11040D1*
X5133Y7393D2*
X5314D1*
X6486D2*
X7788D1*
X9062D2*
X9348D1*
X9676D2*
X11222D1*
X5133Y7363D2*
X5318D1*
X6396D2*
X7667D1*
X9034D2*
X9333D1*
X9404D2*
X11371D1*
X5133Y7333D2*
X5325D1*
X6319D2*
X7496D1*
X9007D2*
X11490D1*
X5133Y7303D2*
X5332D1*
X6254D2*
X7303D1*
X8984D2*
X11583D1*
X5134Y7273D2*
X5338D1*
X6198D2*
X7138D1*
X8957D2*
X11660D1*
X5138Y7243D2*
X5342D1*
X6150D2*
X7031D1*
X8925D2*
X10317D1*
X10680D2*
X11728D1*
X5145Y7213D2*
X5347D1*
X6106D2*
X6633D1*
X6721D2*
X6963D1*
X8889D2*
X10043D1*
X10937D2*
X11791D1*
X5152Y7183D2*
X5354D1*
X6068D2*
X6545D1*
X6718D2*
X6942D1*
X8850D2*
X9811D1*
X11138D2*
X11851D1*
X5159Y7153D2*
X5363D1*
X6030D2*
X6464D1*
X6710D2*
X6926D1*
X8807D2*
X9614D1*
X11290D2*
X11907D1*
X5165Y7123D2*
X5373D1*
X5991D2*
X6393D1*
X6701D2*
X6915D1*
X8760D2*
X9447D1*
X11409D2*
X11959D1*
X5174Y7093D2*
X5384D1*
X5953D2*
X6331D1*
X6692D2*
X6907D1*
X8712D2*
X9302D1*
X11509D2*
X12007D1*
X5183Y7063D2*
X5397D1*
X5918D2*
X6271D1*
X6682D2*
X6900D1*
X8662D2*
X9171D1*
X11595D2*
X12054D1*
X5192Y7033D2*
X5410D1*
X5885D2*
X6213D1*
X6672D2*
X6890D1*
X7803D2*
X7893D1*
X8612D2*
X9045D1*
X11670D2*
X12098D1*
X12753D2*
X13503D1*
X5203Y7003D2*
X5421D1*
X5855D2*
X6259D1*
X6663D2*
X6878D1*
X7711D2*
X7903D1*
X8564D2*
X8919D1*
X11736D2*
X12140D1*
X12669D2*
X13575D1*
X5213Y6973D2*
X5432D1*
X5828D2*
X6312D1*
X6651D2*
X6865D1*
X7616D2*
X7913D1*
X8518D2*
X8796D1*
X11795D2*
X12177D1*
X12592D2*
X13639D1*
X5222Y6943D2*
X5443D1*
X5805D2*
X6374D1*
X6635D2*
X6854D1*
X7511D2*
X7922D1*
X8476D2*
X8674D1*
X11850D2*
X12210D1*
X12527D2*
X13692D1*
X5234Y6913D2*
X5457D1*
X5784D2*
X6454D1*
X6613D2*
X6843D1*
X7389D2*
X7931D1*
X8438D2*
X8553D1*
X11900D2*
X12244D1*
X12472D2*
X13738D1*
X5247Y6883D2*
X5471D1*
X5763D2*
X6553D1*
X6566D2*
X6834D1*
X7238D2*
X7938D1*
X8403D2*
X8433D1*
X11947D2*
X12284D1*
X12420D2*
X13780D1*
X5261Y6853D2*
X5485D1*
X5744D2*
X6826D1*
X7052D2*
X7929D1*
X11989D2*
X12335D1*
X12364D2*
X13816D1*
X5275Y6823D2*
X5500D1*
X5727D2*
X6003D1*
X6093D2*
X6833D1*
X6834D2*
X7900D1*
X12026D2*
X12887D1*
X13360D2*
X13845D1*
X5290Y6793D2*
X5516D1*
X5711D2*
X5974D1*
X6154D2*
X7864D1*
X12060D2*
X12770D1*
X13464D2*
X13870D1*
X5305Y6763D2*
X5534D1*
X5695D2*
X5948D1*
X6219D2*
X7824D1*
X12092D2*
X12680D1*
X13543D2*
X13896D1*
X5320Y6733D2*
X5553D1*
X5678D2*
X5925D1*
X6291D2*
X7784D1*
X12122D2*
X12610D1*
X13604D2*
X13924D1*
X5336Y6703D2*
X5573D1*
X5654D2*
X5904D1*
X6373D2*
X7748D1*
X12152D2*
X12556D1*
X13654D2*
X13952D1*
X5354Y6673D2*
X5592D1*
X5621D2*
X5883D1*
X6468D2*
X7317D1*
X7474D2*
X7716D1*
X12182D2*
X12514D1*
X13698D2*
X13978D1*
X5373Y6643D2*
X5864D1*
X6576D2*
X7156D1*
X7448D2*
X7689D1*
X12211D2*
X12499D1*
X13735D2*
X14000D1*
X5392Y6613D2*
X5848D1*
X6693D2*
X6993D1*
X7426D2*
X7666D1*
X12237D2*
X12501D1*
X13765D2*
X14021D1*
X5409Y6583D2*
X5835D1*
X7407D2*
X7648D1*
X12259D2*
X12510D1*
X13789D2*
X14042D1*
X5425Y6553D2*
X5824D1*
X7391D2*
X7631D1*
X12278D2*
X12522D1*
X13812D2*
X14061D1*
X5444Y6523D2*
X5813D1*
X7376D2*
X7615D1*
X12295D2*
X12537D1*
X13837D2*
X14078D1*
X5463Y6493D2*
X5804D1*
X7364D2*
X7600D1*
X12314D2*
X12554D1*
X13863D2*
X14094D1*
X5483Y6463D2*
X5798D1*
X7353D2*
X7585D1*
X12333D2*
X12572D1*
X13744D2*
X14110D1*
X5504Y6433D2*
X5794D1*
X7342D2*
X7570D1*
X12352D2*
X12588D1*
X13640D2*
X14125D1*
X5528Y6403D2*
X5788D1*
X7329D2*
X7555D1*
X12368D2*
X12600D1*
X13554D2*
X14139D1*
X5555Y6373D2*
X5781D1*
X7316D2*
X7540D1*
X12384D2*
X12612D1*
X13483D2*
X14150D1*
X5583Y6343D2*
X5773D1*
X7305D2*
X7526D1*
X12400D2*
X12622D1*
X13422D2*
X14158D1*
X5613Y6313D2*
X5767D1*
X7298D2*
X7514D1*
X12415D2*
X12632D1*
X13372D2*
X14165D1*
X5643Y6283D2*
X5765D1*
X7294D2*
X7503D1*
X12430D2*
X12643D1*
X13331D2*
X14174D1*
X5673Y6253D2*
X5763D1*
X7288D2*
X7493D1*
X12445D2*
X12653D1*
X13296D2*
X13890D1*
X13911D2*
X14182D1*
X5703Y6223D2*
X5763D1*
X7281D2*
X7483D1*
X12459D2*
X12662D1*
X13264D2*
X13743D1*
X14005D2*
X14187D1*
X5733Y6193D2*
X5763D1*
X7273D2*
X7477D1*
X12471D2*
X12673D1*
X13234D2*
X13641D1*
X14080D2*
X14190D1*
X5763Y6163D2*
D3*
X7267D2*
X7470D1*
X12482D2*
X12683D1*
X13208D2*
X13563D1*
X14140D2*
X14192D1*
X7265Y6133D2*
X7461D1*
X12492D2*
X12692D1*
X13185D2*
X13617D1*
X14193D2*
D3*
X7262Y6103D2*
X7453D1*
X12502D2*
X12702D1*
X13162D2*
X13664D1*
X7258Y6073D2*
X7448D1*
X12508D2*
X12712D1*
X13138D2*
X13704D1*
X7250Y6043D2*
X7445D1*
X10953D2*
X10983D1*
X12515D2*
X12718D1*
X13112D2*
X13739D1*
X7243Y6013D2*
X7442D1*
X8913D2*
X8973D1*
X10912D2*
X11013D1*
X12524D2*
X12725D1*
X13087D2*
X13770D1*
X7237Y5983D2*
X7438D1*
X8883D2*
X8991D1*
X10873D2*
X11043D1*
X12532D2*
X12734D1*
X13065D2*
X13797D1*
X7235Y5953D2*
X7430D1*
X8853D2*
X9008D1*
X10837D2*
X11073D1*
X12539D2*
X12742D1*
X13044D2*
X13233D1*
X13533D2*
X13819D1*
X7233Y5923D2*
X7423D1*
X8823D2*
X9025D1*
X10803D2*
X11103D1*
X12545D2*
X12747D1*
X13023D2*
X13113D1*
X13563D2*
X13837D1*
X7233Y5893D2*
X7417D1*
X8793D2*
X9043D1*
X10833D2*
X11133D1*
X12554D2*
X12750D1*
X13522D2*
X13854D1*
X7233Y5863D2*
X7415D1*
X8763D2*
X9063D1*
X10863D2*
X11163D1*
X12562D2*
X12753D1*
X13483D2*
X13869D1*
X7233Y5833D2*
X7413D1*
X8733D2*
X9031D1*
X10893D2*
X11193D1*
X12567D2*
X12757D1*
X13449D2*
X13881D1*
X7233Y5803D2*
X7413D1*
X8704D2*
X8998D1*
X10923D2*
X11223D1*
X12570D2*
X12765D1*
X13420D2*
X13892D1*
X7233Y5773D2*
X7413D1*
X8678D2*
X8960D1*
X10953D2*
X11254D1*
X12572D2*
X12772D1*
X13396D2*
X13902D1*
X7233Y5743D2*
X7413D1*
X8656D2*
X8924D1*
X10983D2*
X11288D1*
X12573D2*
X12778D1*
X13374D2*
X13913D1*
X7233Y5713D2*
X7413D1*
X8637D2*
X8892D1*
X11013D2*
X11326D1*
X12577D2*
X12780D1*
X13353D2*
X13922D1*
X7233Y5683D2*
X7413D1*
X8621D2*
X8867D1*
X11043D2*
X11367D1*
X12585D2*
X12782D1*
X13334D2*
X13593D1*
X13768D2*
X13933D1*
X7233Y5653D2*
X7413D1*
X8605D2*
X8844D1*
X11073D2*
X11411D1*
X12592D2*
X12782D1*
X13317D2*
X13564D1*
X13819D2*
X13943D1*
X7233Y5623D2*
X7413D1*
X8590D2*
X8823D1*
X11103D2*
X11457D1*
X12598D2*
X12782D1*
X13301D2*
X13538D1*
X13867D2*
X13953D1*
X7233Y5593D2*
X7413D1*
X8576D2*
X8804D1*
X11134D2*
X11505D1*
X12600D2*
X12782D1*
X13285D2*
X13516D1*
X13911D2*
X13967D1*
X7233Y5563D2*
X7414D1*
X8565D2*
X8787D1*
X11168D2*
X11560D1*
X12602D2*
X12782D1*
X13270D2*
X13497D1*
X13953D2*
X13983D1*
X7233Y5533D2*
X7418D1*
X8557D2*
X8771D1*
X11206D2*
X11621D1*
X12602D2*
X12783D1*
X13256D2*
X13481D1*
X7233Y5503D2*
X7425D1*
X8550D2*
X8756D1*
X11247D2*
X11691D1*
X12602D2*
X12783D1*
X13244D2*
X13466D1*
X7233Y5473D2*
X7432D1*
X8541D2*
X8744D1*
X11291D2*
X11764D1*
X12602D2*
X12783D1*
X13233D2*
X13454D1*
X7234Y5443D2*
X7438D1*
X8533D2*
X8733D1*
X11336D2*
X11830D1*
X12602D2*
X12783D1*
X13222D2*
X13443D1*
X7238Y5413D2*
X7440D1*
X8528D2*
X8723D1*
X11384D2*
X11881D1*
X12603D2*
X12783D1*
X13207D2*
X13432D1*
X7245Y5383D2*
X7442D1*
X8525D2*
X8714D1*
X11432D2*
X11916D1*
X12603D2*
X12783D1*
X13188D2*
X13418D1*
X7252Y5353D2*
X7442D1*
X8523D2*
X8708D1*
X11479D2*
X11943D1*
X12603D2*
X12783D1*
X13161D2*
X13404D1*
X7258Y5323D2*
X7444D1*
X8523D2*
X8705D1*
X11523D2*
X11894D1*
X12603D2*
X12783D1*
X13128D2*
X13389D1*
X7261Y5293D2*
X7447D1*
X8523D2*
X8703D1*
X11488D2*
X11848D1*
X12603D2*
X12783D1*
X13092D2*
X13370D1*
X7263Y5263D2*
X7455D1*
X8523D2*
X8703D1*
X11450D2*
X11805D1*
X12603D2*
X12783D1*
X13056D2*
X13347D1*
X7267Y5233D2*
X7462D1*
X8523D2*
X8703D1*
X11413D2*
X11764D1*
X12602D2*
X12783D1*
X13018D2*
X13320D1*
X7275Y5203D2*
X7468D1*
X8523D2*
X8703D1*
X11377D2*
X11723D1*
X12601D2*
X12785D1*
X12972D2*
X13293D1*
X7282Y5173D2*
X7472D1*
X8523D2*
X8703D1*
X11343D2*
X11684D1*
X12598D2*
X12790D1*
X12913D2*
X13266D1*
X7288Y5143D2*
X7477D1*
X8523D2*
X8703D1*
X11308D2*
X11647D1*
X12590D2*
X12814D1*
X12837D2*
X13240D1*
X7290Y5113D2*
X7484D1*
X8523D2*
X8703D1*
X11271D2*
X11610D1*
X12583D2*
X13210D1*
X7292Y5083D2*
X7492D1*
X8523D2*
X8704D1*
X11232D2*
X11571D1*
X12577D2*
X13176D1*
X7293Y5053D2*
X7499D1*
X8523D2*
X8708D1*
X11192D2*
X11532D1*
X12575D2*
X13139D1*
X7297Y5023D2*
X7505D1*
X8524D2*
X8716D1*
X11152D2*
X11493D1*
X12572D2*
X13094D1*
X7305Y4993D2*
X7514D1*
X8528D2*
X8727D1*
X11112D2*
X11452D1*
X12568D2*
X13036D1*
X7312Y4963D2*
X7522D1*
X8535D2*
X8740D1*
X11073D2*
X11413D1*
X12560D2*
X12964D1*
X7319Y4933D2*
X7529D1*
X8542D2*
X8751D1*
X11033D2*
X11377D1*
X12552D2*
X12882D1*
X7325Y4903D2*
X7535D1*
X8549D2*
X8762D1*
X10993D2*
X11340D1*
X12542D2*
X12812D1*
X7334Y4873D2*
X7544D1*
X8556D2*
X8774D1*
X10957D2*
X11301D1*
X12532D2*
X12758D1*
X7342Y4843D2*
X7553D1*
X8565D2*
X8788D1*
X10920D2*
X11262D1*
X12522D2*
X12738D1*
X7349Y4813D2*
X7562D1*
X8577D2*
X8805D1*
X10880D2*
X11223D1*
X12513D2*
X12725D1*
X7355Y4783D2*
X7573D1*
X8591D2*
X8824D1*
X10838D2*
X11182D1*
X12502D2*
X12713D1*
X7364Y4753D2*
X7583D1*
X8605D2*
X8844D1*
X10793D2*
X11143D1*
X12492D2*
X12702D1*
X7373Y4723D2*
X7592D1*
X8620D2*
X8869D1*
X10744D2*
X11107D1*
X12483D2*
X12693D1*
X7383Y4693D2*
X7603D1*
X8636D2*
X8900D1*
X10688D2*
X11070D1*
X12471D2*
X12681D1*
X7394Y4663D2*
X7613D1*
X8655D2*
X8936D1*
X10627D2*
X11030D1*
X12458D2*
X12669D1*
X7407Y4633D2*
X7622D1*
X8678D2*
X8975D1*
X10565D2*
X10988D1*
X12444D2*
X12655D1*
X7421Y4603D2*
X7634D1*
X8705D2*
X9019D1*
X10502D2*
X10944D1*
X12430D2*
X12644D1*
X7435Y4573D2*
X7647D1*
X8733D2*
X9070D1*
X10437D2*
X10899D1*
X12415D2*
X12633D1*
X7449Y4543D2*
X7661D1*
X8763D2*
X9127D1*
X10363D2*
X10851D1*
X12399D2*
X12622D1*
X7461Y4513D2*
X7676D1*
X8793D2*
X9193D1*
X10277D2*
X10802D1*
X12381D2*
X12608D1*
X7472Y4483D2*
X7694D1*
X8824D2*
X9274D1*
X10174D2*
X10752D1*
X12362D2*
X12594D1*
X7483Y4453D2*
X7713D1*
X8858D2*
X9378D1*
X10055D2*
X10700D1*
X12343D2*
X12580D1*
X7497Y4423D2*
X7733D1*
X8896D2*
X9501D1*
X9921D2*
X10642D1*
X12326D2*
X12565D1*
X7511Y4393D2*
X7752D1*
X8940D2*
X10576D1*
X12309D2*
X12549D1*
X7526Y4363D2*
X7773D1*
X8991D2*
X10500D1*
X12290D2*
X12531D1*
X7545Y4333D2*
X7793D1*
X9053D2*
X10416D1*
X12268D2*
X12512D1*
X7567Y4303D2*
X7813D1*
X9128D2*
X10324D1*
X12245D2*
X12492D1*
X7589Y4273D2*
X7837D1*
X9215D2*
X10223D1*
X12224D2*
X12473D1*
X7606Y4243D2*
X7860D1*
X9316D2*
X10111D1*
X12202D2*
X12452D1*
X7621Y4213D2*
X7881D1*
X9423D2*
X9993D1*
X12177D2*
X12432D1*
X7638Y4183D2*
X7903D1*
X12150D2*
X12411D1*
X7658Y4153D2*
X7928D1*
X12122D2*
X12387D1*
X7680Y4123D2*
X7955D1*
X12092D2*
X12361D1*
X7701Y4093D2*
X7983D1*
X12062D2*
X12337D1*
X7723Y4063D2*
X8013D1*
X12031D2*
X12314D1*
X7748Y4033D2*
X8043D1*
X11997D2*
X12292D1*
X7775Y4003D2*
X8073D1*
X11960D2*
X12268D1*
X7803Y3973D2*
X8104D1*
X11921D2*
X12240D1*
X7833Y3943D2*
X8138D1*
X11882D2*
X12210D1*
X7863Y3913D2*
X8175D1*
X11841D2*
X12177D1*
X7893Y3883D2*
X8212D1*
X11798D2*
X12140D1*
X7923Y3853D2*
X8249D1*
X11754D2*
X12103D1*
X7953Y3823D2*
X8287D1*
X11710D2*
X12067D1*
X7984Y3793D2*
X8329D1*
X11665D2*
X12033D1*
X8018Y3763D2*
X8376D1*
X11619D2*
X11998D1*
X8055Y3733D2*
X8424D1*
X11569D2*
X11961D1*
X8094Y3703D2*
X8474D1*
X11512D2*
X11921D1*
X8133Y3673D2*
X8529D1*
X11448D2*
X11881D1*
X8174Y3643D2*
X8590D1*
X11380D2*
X11836D1*
X8218Y3613D2*
X8656D1*
X11312D2*
X11786D1*
X8265Y3583D2*
X8724D1*
X11241D2*
X11734D1*
X8314Y3553D2*
X8795D1*
X11166D2*
X11683D1*
X8363Y3523D2*
X8874D1*
X11083D2*
X11632D1*
X8412Y3493D2*
X8964D1*
X10988D2*
X11577D1*
X8460Y3463D2*
X9065D1*
X10879D2*
X11519D1*
X8500Y3433D2*
X9182D1*
X10752D2*
X11457D1*
X8531Y3403D2*
X9329D1*
X10595D2*
X11389D1*
X8542Y3373D2*
X9509D1*
X10400D2*
X11315D1*
X8548Y3343D2*
X9715D1*
X10173D2*
X11234D1*
X8551Y3313D2*
X8733D1*
X8788D2*
X11143D1*
X8552Y3283D2*
X8733D1*
X8901D2*
X11044D1*
X8551Y3253D2*
X8733D1*
X9014D2*
X10935D1*
X8547Y3223D2*
X8733D1*
X9136D2*
X10813D1*
X8540Y3193D2*
X8733D1*
X9275D2*
X10673D1*
X8533Y3163D2*
X8733D1*
X9433D2*
X10516D1*
X8527Y3133D2*
X8732D1*
X9603D2*
X10353D1*
X8525Y3103D2*
X8731D1*
X10143D2*
X10353D1*
X8523Y3073D2*
X8728D1*
X10143D2*
X10353D1*
X8523Y3043D2*
X8720D1*
X10144D2*
X10353D1*
X8523Y3013D2*
X8713D1*
X10148D2*
X10353D1*
X8523Y2983D2*
X8707D1*
X10155D2*
X10353D1*
X8523Y2953D2*
X8705D1*
X10162D2*
X10354D1*
X8523Y2923D2*
X8703D1*
X10168D2*
X10358D1*
X8523Y2893D2*
X8703D1*
X10170D2*
X10365D1*
X8522Y2863D2*
X8703D1*
X10172D2*
X10372D1*
X8521Y2833D2*
X8703D1*
X10172D2*
X10378D1*
X8518Y2803D2*
X8703D1*
X10172D2*
X10380D1*
X8510Y2773D2*
X8703D1*
X10172D2*
X10382D1*
X8500Y2743D2*
X8703D1*
X10172D2*
X10382D1*
X8486Y2713D2*
X8705D1*
X10173D2*
X10382D1*
X8463Y2683D2*
X8710D1*
X10174D2*
X10382D1*
X8430Y2653D2*
X8732D1*
X10178D2*
X10383D1*
X8392Y2623D2*
X8760D1*
X10185D2*
X10384D1*
X8353Y2593D2*
X8791D1*
X10192D2*
X10395D1*
X8317Y2563D2*
X8822D1*
X10198D2*
X10442D1*
X8280Y2533D2*
X8852D1*
X10200D2*
X10515D1*
X8241Y2503D2*
X8882D1*
X10200D2*
X10610D1*
X8203Y2473D2*
X8912D1*
X10196D2*
X10715D1*
X8166Y2443D2*
X8942D1*
X10184D2*
X10820D1*
X8130Y2413D2*
X8973D1*
X10165D2*
X10918D1*
X8091Y2383D2*
X8428D1*
X8488D2*
X9004D1*
X10144D2*
X10998D1*
X8053Y2353D2*
X8389D1*
X8480D2*
X8673D1*
X8733D2*
X9038D1*
X10123D2*
X11060D1*
X8017Y2323D2*
X8348D1*
X8473D2*
X8673D1*
X8763D2*
X9075D1*
X10102D2*
X11090D1*
X7983Y2293D2*
X8305D1*
X8467D2*
X8672D1*
X8793D2*
X9111D1*
X10078D2*
X11086D1*
X8002Y2263D2*
X8265D1*
X8465D2*
X8671D1*
X8823D2*
X9141D1*
X10052D2*
X10477D1*
X10653D2*
X11081D1*
X8023Y2233D2*
X8228D1*
X8463D2*
X8668D1*
X8854D2*
X9165D1*
X10027D2*
X10485D1*
X10773D2*
X11077D1*
X8048Y2203D2*
X8195D1*
X8463D2*
X8660D1*
X8888D2*
X9172D1*
X10006D2*
X10494D1*
X10893D2*
X11074D1*
X8075Y2173D2*
X8163D1*
X8463D2*
X8653D1*
X8925D2*
X9164D1*
X9990D2*
X10227D1*
X10287D2*
X10503D1*
X11013D2*
X11073D1*
X8103Y2143D2*
X8133D1*
X8463D2*
X8647D1*
X8962D2*
X9144D1*
X9979D2*
X10214D1*
X10305D2*
X10513D1*
X8463Y2113D2*
X8645D1*
X8998D2*
X9119D1*
X9987D2*
X10194D1*
X10319D2*
X10523D1*
X8463Y2083D2*
X8643D1*
X9031D2*
X9091D1*
X10014D2*
X10169D1*
X10331D2*
X10532D1*
X8463Y2053D2*
X8643D1*
X9063D2*
D3*
X10048D2*
X10141D1*
X10342D2*
X10542D1*
X8463Y2023D2*
X8643D1*
X10083D2*
X10113D1*
X10352D2*
X10551D1*
X10362Y1993D2*
X10557D1*
X10372Y1963D2*
X10549D1*
X10378Y1933D2*
X10515D1*
X10383Y1903D2*
X10473D1*
X8493Y9853D2*
X8394Y9823D1*
X8305Y9793D1*
X8227Y9763D1*
X8161Y9733D1*
X8105Y9703D1*
X8059Y9673D1*
X8020Y9643D1*
X7985Y9613D1*
X7954Y9583D1*
X7923Y9553D1*
X7893Y9523D1*
X7863Y9493D1*
X7833Y9463D1*
X7803Y9433D1*
X7774Y9403D1*
X7748Y9373D1*
X7725Y9343D1*
X7704Y9313D1*
X7683Y9283D1*
X7664Y9253D1*
X7647Y9223D1*
X7631Y9193D1*
X7615Y9163D1*
X7599Y9133D1*
X7581Y9103D1*
X7563Y9073D1*
X7547Y9043D1*
X7535Y9013D1*
X7522Y8983D1*
X7509Y8953D1*
X7494Y8923D1*
X7480Y8893D1*
X7465Y8863D1*
X7450Y8833D1*
X7436Y8803D1*
X7424Y8773D1*
X7413Y8743D1*
X7403Y8713D1*
X7391Y8683D1*
X7376Y8653D1*
X7352Y8623D1*
X7323Y8593D1*
X8853Y9853D2*
X8956Y9823D1*
X9054Y9793D1*
X9143Y9763D1*
X9223Y9733D1*
X9292Y9703D1*
X9353Y9673D1*
X9404Y9643D1*
X9449Y9613D1*
X9491Y9583D1*
X9531Y9553D1*
X9567Y9523D1*
X9601Y9493D1*
X9635Y9463D1*
X9669Y9433D1*
X9700Y9403D1*
X9728Y9373D1*
X9754Y9343D1*
X9779Y9313D1*
X9800Y9283D1*
X9818Y9253D1*
X9834Y9223D1*
X9849Y9193D1*
X9861Y9163D1*
X9872Y9133D1*
X9882Y9103D1*
X9893Y9073D1*
X9902Y9043D1*
X9912Y9013D1*
X9921Y8983D1*
X9927Y8953D1*
X9930Y8923D1*
X9933Y8893D1*
X9938Y8863D1*
X9949Y8833D1*
X9963Y8803D1*
X9933Y8773D1*
X9945Y8743D1*
X9944Y8713D1*
X9940Y8683D1*
X9936Y8653D1*
X9934Y8623D1*
X9933Y8593D1*
Y8563D1*
X9931Y8533D1*
X9928Y8503D1*
X9920Y8473D1*
X9911Y8443D1*
X9902Y8413D1*
X9892Y8383D1*
X9882Y8353D1*
X9873Y8323D1*
X9862Y8293D1*
X9852Y8263D1*
X9843Y8233D1*
X9832Y8203D1*
X9822Y8173D1*
X9813Y8143D1*
X9801Y8113D1*
X9788Y8083D1*
X9774Y8053D1*
X9760Y8023D1*
X9745Y7993D1*
X9729Y7963D1*
X9711Y7933D1*
X9692Y7903D1*
X9673Y7873D1*
X9656Y7843D1*
X9640Y7813D1*
X9621Y7783D1*
X9602Y7753D1*
X9582Y7723D1*
X9562Y7693D1*
X9538Y7663D1*
X9515Y7633D1*
X9495Y7603D1*
X9477Y7573D1*
X9460Y7543D1*
X9440Y7513D1*
X9417Y7483D1*
X9391Y7453D1*
X9367Y7423D1*
X9348Y7393D1*
X9333Y7363D1*
X9423Y7333D1*
X8703Y9673D2*
X8570Y9643D1*
X8458Y9613D1*
X8368Y9583D1*
X8294Y9553D1*
X8233Y9523D1*
X8182Y9493D1*
X8141Y9463D1*
X8106Y9433D1*
X8073Y9403D1*
X8166Y9373D1*
X8243Y9343D1*
X8304Y9313D1*
X8349Y9283D1*
X8382Y9253D1*
X8408Y9223D1*
X8431Y9193D1*
X8451Y9163D1*
X8468Y9133D1*
X8484Y9103D1*
X8499Y9073D1*
X8511Y9043D1*
X8522Y9013D1*
X8532Y8983D1*
X8541Y8953D1*
X8547Y8923D1*
X8552Y8893D1*
X8558Y8863D1*
X8568Y8833D1*
X8583Y8803D1*
X8643Y9673D2*
X8780Y9643D1*
X8901Y9613D1*
X9001Y9583D1*
X9084Y9553D1*
X9154Y9523D1*
X9214Y9493D1*
X9269Y9463D1*
X9321Y9433D1*
X9371Y9403D1*
X9416Y9373D1*
X9454Y9343D1*
X9485Y9313D1*
X9514Y9283D1*
X9543Y9253D1*
X9572Y9223D1*
X9598Y9193D1*
X9620Y9163D1*
X9641Y9133D1*
X9662Y9103D1*
X9681Y9073D1*
X9697Y9043D1*
X9710Y9013D1*
X9721Y8983D1*
X9732Y8953D1*
X9741Y8923D1*
X9747Y8893D1*
X9750Y8863D1*
X9752Y8833D1*
Y8803D1*
Y8773D1*
Y8743D1*
Y8713D1*
X9753Y8683D1*
X9752Y8653D1*
X9751Y8623D1*
X9748Y8593D1*
X9740Y8563D1*
X9733Y8533D1*
X9726Y8503D1*
X9720Y8473D1*
X9711Y8443D1*
X9702Y8413D1*
X9692Y8383D1*
X9681Y8353D1*
X9668Y8323D1*
X9654Y8293D1*
X9640Y8263D1*
X9626Y8233D1*
X9614Y8203D1*
X9603Y8173D1*
X9592Y8143D1*
X9577Y8113D1*
X9560Y8083D1*
X9542Y8053D1*
X9523Y8023D1*
X9506Y7993D1*
X9491Y7963D1*
X9475Y7933D1*
X9459Y7903D1*
X9441Y7873D1*
X9422Y7843D1*
X9402Y7813D1*
X9381Y7783D1*
X9357Y7753D1*
X9331Y7723D1*
X9307Y7693D1*
X9284Y7663D1*
X9262Y7633D1*
X9239Y7603D1*
X9215Y7573D1*
X9194Y7543D1*
X9172Y7513D1*
X9147Y7483D1*
X9120Y7453D1*
X9092Y7423D1*
X9062Y7393D1*
X9034Y7363D1*
X9007Y7333D1*
X8984Y7303D1*
X8957Y7273D1*
X8925Y7243D1*
X8889Y7213D1*
X8850Y7183D1*
X8807Y7153D1*
X8760Y7123D1*
X8712Y7093D1*
X8662Y7063D1*
X8612Y7033D1*
X8564Y7003D1*
X8518Y6973D1*
X8476Y6943D1*
X8438Y6913D1*
X8403Y6883D1*
X7893Y9163D2*
X7863Y9133D1*
X7834Y9103D1*
X7808Y9073D1*
X7785Y9043D1*
X7764Y9013D1*
X7743Y8983D1*
X7724Y8953D1*
X7708Y8923D1*
X7695Y8893D1*
X7684Y8863D1*
X7672Y8833D1*
X7659Y8803D1*
X7646Y8773D1*
X7635Y8743D1*
X7628Y8713D1*
X7625Y8683D1*
Y8653D1*
X7629Y8623D1*
X7639Y8593D1*
X7653Y8563D1*
X8133Y9163D2*
X8182Y9133D1*
X8222Y9103D1*
X8253Y9073D1*
X8279Y9043D1*
X8300Y9013D1*
X8317Y8983D1*
X8330Y8953D1*
X8341Y8923D1*
X8352Y8893D1*
X8361Y8863D1*
X8367Y8833D1*
X8370Y8803D1*
Y8773D1*
X8367Y8743D1*
X8360Y8713D1*
X8351Y8683D1*
X8341Y8653D1*
X8327Y8623D1*
X8310Y8593D1*
X8292Y8563D1*
X8271Y8533D1*
X8246Y8503D1*
X8212Y8473D1*
X8162Y8443D1*
X8082Y8413D1*
X7967Y8383D1*
X7833Y8353D1*
X8853Y8923D2*
X8764Y8893D1*
X8682Y8863D1*
X8602Y8833D1*
X8523Y8803D1*
X9063Y8923D2*
X9131Y8893D1*
X9190Y8863D1*
X9238Y8833D1*
X9276Y8803D1*
X9306Y8773D1*
X9333Y8743D1*
X9358Y8713D1*
X9379Y8683D1*
X9397Y8653D1*
X9409Y8623D1*
X9417Y8593D1*
X9425Y8563D1*
X9434Y8533D1*
X9442Y8503D1*
X9447Y8473D1*
X9450Y8443D1*
X9452Y8413D1*
Y8383D1*
Y8353D1*
Y8323D1*
X9451Y8293D1*
X9448Y8263D1*
X9440Y8233D1*
X9433Y8203D1*
X9426Y8173D1*
X9420Y8143D1*
X9411Y8113D1*
X9402Y8083D1*
X9392Y8053D1*
X9381Y8023D1*
X9368Y7993D1*
X9354Y7963D1*
X9339Y7933D1*
X9320Y7903D1*
X9297Y7873D1*
X9270Y7843D1*
X9242Y7813D1*
X9212Y7783D1*
X9181Y7753D1*
X9146Y7723D1*
X9104Y7693D1*
X9053Y7663D1*
X8993Y7633D1*
X8925Y7603D1*
X8853Y7573D1*
X7743Y8743D2*
X7718Y8713D1*
X7701Y8683D1*
X7690Y8653D1*
X7680Y8623D1*
X7668Y8593D1*
X7653Y8563D1*
X7923Y8743D2*
X7938Y8713D1*
X7951Y8683D1*
X7966Y8653D1*
X7983Y8623D1*
X7967Y8593D1*
X7953Y8563D1*
X7938Y8533D1*
X7899Y8503D1*
X7842Y8473D1*
X7773Y8443D1*
X7857Y8413D1*
X7970Y8383D1*
X8103Y8353D1*
X6273Y8713D2*
X6161Y8683D1*
X6066Y8653D1*
X5987Y8623D1*
X5919Y8593D1*
X5856Y8563D1*
X5799Y8533D1*
X5750Y8503D1*
X5706Y8473D1*
X5663Y8443D1*
X5619Y8413D1*
X5576Y8383D1*
X5535Y8353D1*
X5499Y8323D1*
X5470Y8293D1*
X5446Y8263D1*
X5423Y8233D1*
X5399Y8203D1*
X5375Y8173D1*
X5354Y8143D1*
X5332Y8113D1*
X5309Y8083D1*
X5285Y8053D1*
X5265Y8023D1*
X5247Y7993D1*
X5231Y7963D1*
X5216Y7933D1*
X5204Y7903D1*
X5193Y7873D1*
X5183Y7843D1*
X5172Y7813D1*
X5163Y7783D1*
X5153Y7753D1*
X5144Y7723D1*
X5138Y7693D1*
X5135Y7663D1*
X5133Y7633D1*
Y7603D1*
Y7573D1*
Y7543D1*
Y7513D1*
Y7483D1*
Y7453D1*
Y7423D1*
Y7393D1*
Y7363D1*
Y7333D1*
Y7303D1*
X5134Y7273D1*
X5138Y7243D1*
X5145Y7213D1*
X5152Y7183D1*
X5159Y7153D1*
X5165Y7123D1*
X5174Y7093D1*
X5183Y7063D1*
X5192Y7033D1*
X5203Y7003D1*
X5213Y6973D1*
X5222Y6943D1*
X5234Y6913D1*
X5247Y6883D1*
X5261Y6853D1*
X5275Y6823D1*
X5290Y6793D1*
X5305Y6763D1*
X5320Y6733D1*
X5336Y6703D1*
X5354Y6673D1*
X5373Y6643D1*
X5392Y6613D1*
X5409Y6583D1*
X5425Y6553D1*
X5444Y6523D1*
X5463Y6493D1*
X5483Y6463D1*
X5504Y6433D1*
X5528Y6403D1*
X5555Y6373D1*
X5583Y6343D1*
X5613Y6313D1*
X5643Y6283D1*
X5673Y6253D1*
X5703Y6223D1*
X5733Y6193D1*
X5763Y6163D1*
X6933Y8713D2*
X7059Y8683D1*
X7188Y8653D1*
X7326Y8623D1*
X7473Y8593D1*
X8853Y8713D2*
X8794Y8683D1*
X8738Y8653D1*
X8686Y8623D1*
X8640Y8593D1*
X8601Y8563D1*
X8572Y8533D1*
X8550Y8503D1*
X8532Y8473D1*
X8516Y8443D1*
X8500Y8413D1*
X8486Y8383D1*
X8475Y8353D1*
X8467Y8323D1*
X8460Y8293D1*
X8451Y8263D1*
X8443Y8233D1*
X8438Y8203D1*
X8436Y8173D1*
X8438Y8143D1*
X8445Y8113D1*
X8454Y8083D1*
X8463Y8053D1*
X8474Y8023D1*
X8488Y7993D1*
X8505Y7963D1*
X8525Y7933D1*
X8549Y7903D1*
X8577Y7873D1*
X8647Y7843D1*
X8753Y7813D1*
X8883Y7783D1*
X9033Y8713D2*
X9085Y8683D1*
X9129Y8653D1*
X9161Y8623D1*
X9184Y8593D1*
X9203Y8563D1*
X9218Y8533D1*
X9230Y8503D1*
X9237Y8473D1*
X9240Y8443D1*
X9242Y8413D1*
Y8383D1*
Y8353D1*
Y8323D1*
Y8293D1*
X9241Y8263D1*
X9238Y8233D1*
X9230Y8203D1*
X9221Y8173D1*
X9212Y8143D1*
X9201Y8113D1*
X9187Y8083D1*
X9169Y8053D1*
X9146Y8023D1*
X9120Y7993D1*
X9091Y7963D1*
X9061Y7933D1*
X9025Y7903D1*
X8975Y7873D1*
X8893Y7843D1*
X8766Y7813D1*
X8613Y7783D1*
X6513Y8533D2*
X6374Y8503D1*
X6250Y8473D1*
X6145Y8443D1*
X6058Y8413D1*
X5984Y8383D1*
X5918Y8353D1*
X5860Y8323D1*
X5812Y8293D1*
X5771Y8263D1*
X5735Y8233D1*
X5699Y8203D1*
X5662Y8173D1*
X5628Y8143D1*
X5600Y8113D1*
X5575Y8083D1*
X5548Y8053D1*
X5521Y8023D1*
X5493Y7993D1*
X5468Y7963D1*
X5450Y7933D1*
X5436Y7903D1*
X5423Y7873D1*
X5409Y7843D1*
X5396Y7813D1*
X5384Y7783D1*
X5373Y7753D1*
X5363Y7723D1*
X5353Y7693D1*
X5347Y7663D1*
X5340Y7633D1*
X5331Y7603D1*
X5323Y7573D1*
X5318Y7543D1*
X5315Y7513D1*
X5313Y7483D1*
Y7453D1*
Y7423D1*
X5314Y7393D1*
X5318Y7363D1*
X5325Y7333D1*
X5332Y7303D1*
X5338Y7273D1*
X5342Y7243D1*
X5347Y7213D1*
X5354Y7183D1*
X5363Y7153D1*
X5373Y7123D1*
X5384Y7093D1*
X5397Y7063D1*
X5410Y7033D1*
X5421Y7003D1*
X5432Y6973D1*
X5443Y6943D1*
X5457Y6913D1*
X5471Y6883D1*
X5485Y6853D1*
X5500Y6823D1*
X5516Y6793D1*
X5534Y6763D1*
X5553Y6733D1*
X5573Y6703D1*
X5592Y6673D1*
X5613Y6643D1*
X6423Y8533D2*
X6453Y8503D1*
X6483Y8473D1*
X6512Y8443D1*
X6541Y8413D1*
X6568Y8383D1*
X6590Y8353D1*
X6611Y8323D1*
X6632Y8293D1*
X6651Y8263D1*
X6667Y8233D1*
X6680Y8203D1*
X6692Y8173D1*
X6703Y8143D1*
X6716Y8113D1*
X6730Y8083D1*
X6741Y8053D1*
X6752Y8023D1*
X6762Y7993D1*
X6771Y7963D1*
X6777Y7933D1*
X6780Y7903D1*
X6782Y7873D1*
X6783Y7843D1*
X6787Y7813D1*
X6795Y7783D1*
X6802Y7753D1*
X6807Y7723D1*
X6809Y7693D1*
X6807Y7663D1*
X6800Y7633D1*
X6793Y7603D1*
X6787Y7573D1*
X6782Y7543D1*
X6774Y7513D1*
X6743Y7483D1*
X6672Y7453D1*
X6582Y7423D1*
X6486Y7393D1*
X6396Y7363D1*
X6319Y7333D1*
X6254Y7303D1*
X6198Y7273D1*
X6150Y7243D1*
X6106Y7213D1*
X6068Y7183D1*
X6030Y7153D1*
X5991Y7123D1*
X5953Y7093D1*
X5918Y7063D1*
X5885Y7033D1*
X5855Y7003D1*
X5828Y6973D1*
X5805Y6943D1*
X5784Y6913D1*
X5763Y6883D1*
X5744Y6853D1*
X5727Y6823D1*
X5711Y6793D1*
X5695Y6763D1*
X5678Y6733D1*
X5654Y6703D1*
X5621Y6673D1*
X5583Y6643D1*
X6693Y8533D2*
X6721Y8503D1*
X6748Y8473D1*
X6770Y8443D1*
X6791Y8413D1*
X6812Y8383D1*
X6831Y8353D1*
X6848Y8323D1*
X6864Y8293D1*
X6880Y8263D1*
X6895Y8233D1*
X6909Y8203D1*
X6920Y8173D1*
X6928Y8143D1*
X6935Y8113D1*
X6944Y8083D1*
X6952Y8053D1*
X6959Y8023D1*
X6965Y7993D1*
X6974Y7963D1*
X6982Y7933D1*
X6987Y7903D1*
X6990Y7873D1*
X6992Y7843D1*
Y7813D1*
Y7783D1*
Y7753D1*
Y7723D1*
X6993Y7693D1*
Y7663D1*
Y7633D1*
Y7603D1*
Y7573D1*
Y7543D1*
Y7513D1*
X7173Y7483D1*
X6573Y8533D2*
X6764Y8503D1*
X6931Y8473D1*
X7069Y8443D1*
X7181Y8413D1*
X7274Y8383D1*
X7349Y8353D1*
X7413Y8323D1*
X7473Y8293D1*
X7503Y8383D2*
Y8353D1*
Y8323D1*
Y8293D1*
X7533Y8383D2*
X7563Y8353D1*
X7593Y8323D1*
X7624Y8293D1*
X7659Y8263D1*
X7705Y8233D1*
X7768Y8203D1*
X7854Y8173D1*
X7953Y8143D1*
X8583Y8263D2*
X8558Y8233D1*
X8541Y8203D1*
X8531Y8173D1*
X8526Y8143D1*
X8525Y8113D1*
X8527Y8083D1*
X8542Y8053D1*
X8575Y8023D1*
X8613Y7993D1*
X8733Y8263D2*
X8758Y8233D1*
X8779Y8203D1*
X8795Y8173D1*
X8807Y8143D1*
X8804Y8113D1*
X8793Y8083D1*
X8776Y8053D1*
X8741Y8023D1*
X8703Y7993D1*
X8253Y8233D2*
X8170Y8203D1*
X8068Y8173D1*
X7953Y8143D1*
X8253Y8233D2*
Y8203D1*
Y8173D1*
Y8143D1*
Y8113D1*
Y8083D1*
X8254Y8053D1*
X8258Y8023D1*
X8265Y7993D1*
X8274Y7963D1*
X8283Y7933D1*
X8294Y7903D1*
X8308Y7873D1*
X8326Y7843D1*
X8348Y7813D1*
X8371Y7783D1*
X8396Y7753D1*
X8426Y7723D1*
X8463Y7693D1*
X8504Y7663D1*
X8553Y7633D1*
X8610Y7603D1*
X8673Y7573D1*
X7983Y7843D2*
X7957Y7813D1*
X7935Y7783D1*
X7912Y7753D1*
X7887Y7723D1*
X7859Y7693D1*
X7824Y7663D1*
X7774Y7633D1*
X7696Y7603D1*
X7565Y7573D1*
X7354Y7543D1*
X7060Y7513D1*
X6723Y7483D1*
X8043Y7813D2*
X8080Y7783D1*
X8111Y7753D1*
X8120Y7723D1*
X8112Y7693D1*
X8098Y7663D1*
X8081Y7633D1*
X8061Y7603D1*
X8037Y7573D1*
X8010Y7543D1*
X7981Y7513D1*
X7951Y7483D1*
X7915Y7453D1*
X7865Y7423D1*
X7788Y7393D1*
X7667Y7363D1*
X7496Y7333D1*
X7303Y7303D1*
X7138Y7273D1*
X7031Y7243D1*
X6963Y7213D1*
X6942Y7183D1*
X6926Y7153D1*
X6915Y7123D1*
X6907Y7093D1*
X6900Y7063D1*
X6890Y7033D1*
X6878Y7003D1*
X6865Y6973D1*
X6854Y6943D1*
X6843Y6913D1*
X6834Y6883D1*
X6826Y6853D1*
X6833Y6823D1*
X6843Y6793D1*
X10203Y7453D2*
X9938Y7423D1*
X9676Y7393D1*
X9404Y7363D1*
X9123Y7333D1*
X10833Y7453D2*
X11040Y7423D1*
X11222Y7393D1*
X11371Y7363D1*
X11490Y7333D1*
X11583Y7303D1*
X11660Y7273D1*
X11728Y7243D1*
X11791Y7213D1*
X11851Y7183D1*
X11907Y7153D1*
X11959Y7123D1*
X12007Y7093D1*
X12054Y7063D1*
X12098Y7033D1*
X12140Y7003D1*
X12177Y6973D1*
X12210Y6943D1*
X12244Y6913D1*
X12284Y6883D1*
X12335Y6853D1*
X12393Y6823D1*
X10623Y7273D2*
X10317Y7243D1*
X10043Y7213D1*
X9811Y7183D1*
X9614Y7153D1*
X9447Y7123D1*
X9302Y7093D1*
X9171Y7063D1*
X9045Y7033D1*
X8919Y7003D1*
X8796Y6973D1*
X8674Y6943D1*
X8553Y6913D1*
X8433Y6883D1*
X10383Y7273D2*
X10680Y7243D1*
X10937Y7213D1*
X11138Y7183D1*
X11290Y7153D1*
X11409Y7123D1*
X11509Y7093D1*
X11595Y7063D1*
X11670Y7033D1*
X11736Y7003D1*
X11795Y6973D1*
X11850Y6943D1*
X11900Y6913D1*
X11947Y6883D1*
X11989Y6853D1*
X12026Y6823D1*
X12060Y6793D1*
X12092Y6763D1*
X12122Y6733D1*
X12152Y6703D1*
X12182Y6673D1*
X12211Y6643D1*
X12237Y6613D1*
X12259Y6583D1*
X12278Y6553D1*
X12295Y6523D1*
X12314Y6493D1*
X12333Y6463D1*
X12352Y6433D1*
X12368Y6403D1*
X12384Y6373D1*
X12400Y6343D1*
X12415Y6313D1*
X12430Y6283D1*
X12445Y6253D1*
X12459Y6223D1*
X12471Y6193D1*
X12482Y6163D1*
X12492Y6133D1*
X12502Y6103D1*
X12508Y6073D1*
X12515Y6043D1*
X12524Y6013D1*
X12532Y5983D1*
X12539Y5953D1*
X12545Y5923D1*
X12554Y5893D1*
X12562Y5863D1*
X12567Y5833D1*
X12570Y5803D1*
X12572Y5773D1*
X12573Y5743D1*
X12577Y5713D1*
X12585Y5683D1*
X12592Y5653D1*
X12598Y5623D1*
X12600Y5593D1*
X12602Y5563D1*
Y5533D1*
Y5503D1*
Y5473D1*
Y5443D1*
X12603Y5413D1*
Y5383D1*
Y5353D1*
Y5323D1*
Y5293D1*
Y5263D1*
X12602Y5233D1*
X12601Y5203D1*
X12598Y5173D1*
X12590Y5143D1*
X12583Y5113D1*
X12577Y5083D1*
X12575Y5053D1*
X12572Y5023D1*
X12568Y4993D1*
X12560Y4963D1*
X12552Y4933D1*
X12542Y4903D1*
X12532Y4873D1*
X12522Y4843D1*
X12513Y4813D1*
X12502Y4783D1*
X12492Y4753D1*
X12483Y4723D1*
X12471Y4693D1*
X12458Y4663D1*
X12444Y4633D1*
X12430Y4603D1*
X12415Y4573D1*
X12399Y4543D1*
X12381Y4513D1*
X12362Y4483D1*
X12343Y4453D1*
X12326Y4423D1*
X12309Y4393D1*
X12290Y4363D1*
X12268Y4333D1*
X12245Y4303D1*
X12224Y4273D1*
X12202Y4243D1*
X12177Y4213D1*
X12150Y4183D1*
X12122Y4153D1*
X12092Y4123D1*
X12062Y4093D1*
X12031Y4063D1*
X11997Y4033D1*
X11960Y4003D1*
X11921Y3973D1*
X11882Y3943D1*
X11841Y3913D1*
X11798Y3883D1*
X11754Y3853D1*
X11710Y3823D1*
X11665Y3793D1*
X11619Y3763D1*
X11569Y3733D1*
X11512Y3703D1*
X11448Y3673D1*
X11380Y3643D1*
X11312Y3613D1*
X11241Y3583D1*
X11166Y3553D1*
X11083Y3523D1*
X10988Y3493D1*
X10879Y3463D1*
X10752Y3433D1*
X10595Y3403D1*
X10400Y3373D1*
X10173Y3343D1*
X9933Y3313D1*
X6723Y7243D2*
X6633Y7213D1*
X6545Y7183D1*
X6464Y7153D1*
X6393Y7123D1*
X6331Y7093D1*
X6271Y7063D1*
X6213Y7033D1*
X6259Y7003D1*
X6312Y6973D1*
X6374Y6943D1*
X6454Y6913D1*
X6553Y6883D1*
X6663Y6853D1*
X6723Y7243D2*
X6721Y7213D1*
X6718Y7183D1*
X6710Y7153D1*
X6701Y7123D1*
X6692Y7093D1*
X6682Y7063D1*
X6672Y7033D1*
X6663Y7003D1*
X6651Y6973D1*
X6635Y6943D1*
X6613Y6913D1*
X6566Y6883D1*
X6513Y6853D1*
X7803Y7033D2*
X7711Y7003D1*
X7616Y6973D1*
X7511Y6943D1*
X7389Y6913D1*
X7238Y6883D1*
X7052Y6853D1*
X6834Y6823D1*
X6603Y6793D1*
X7893Y7033D2*
X7903Y7003D1*
X7913Y6973D1*
X7922Y6943D1*
X7931Y6913D1*
X7938Y6883D1*
X7929Y6853D1*
X7900Y6823D1*
X7864Y6793D1*
X7824Y6763D1*
X7784Y6733D1*
X7748Y6703D1*
X7716Y6673D1*
X7689Y6643D1*
X7666Y6613D1*
X7648Y6583D1*
X7631Y6553D1*
X7615Y6523D1*
X7600Y6493D1*
X7585Y6463D1*
X7570Y6433D1*
X7555Y6403D1*
X7540Y6373D1*
X7526Y6343D1*
X7514Y6313D1*
X7503Y6283D1*
X7493Y6253D1*
X7483Y6223D1*
X7477Y6193D1*
X7470Y6163D1*
X7461Y6133D1*
X7453Y6103D1*
X7448Y6073D1*
X7445Y6043D1*
X7442Y6013D1*
X7438Y5983D1*
X7430Y5953D1*
X7423Y5923D1*
X7417Y5893D1*
X7415Y5863D1*
X7413Y5833D1*
Y5803D1*
Y5773D1*
Y5743D1*
Y5713D1*
Y5683D1*
Y5653D1*
Y5623D1*
Y5593D1*
X7414Y5563D1*
X7418Y5533D1*
X7425Y5503D1*
X7432Y5473D1*
X7438Y5443D1*
X7440Y5413D1*
X7442Y5383D1*
Y5353D1*
X7444Y5323D1*
X7447Y5293D1*
X7455Y5263D1*
X7462Y5233D1*
X7468Y5203D1*
X7472Y5173D1*
X7477Y5143D1*
X7484Y5113D1*
X7492Y5083D1*
X7499Y5053D1*
X7505Y5023D1*
X7514Y4993D1*
X7522Y4963D1*
X7529Y4933D1*
X7535Y4903D1*
X7544Y4873D1*
X7553Y4843D1*
X7562Y4813D1*
X7573Y4783D1*
X7583Y4753D1*
X7592Y4723D1*
X7603Y4693D1*
X7613Y4663D1*
X7622Y4633D1*
X7634Y4603D1*
X7647Y4573D1*
X7661Y4543D1*
X7676Y4513D1*
X7694Y4483D1*
X7713Y4453D1*
X7733Y4423D1*
X7752Y4393D1*
X7773Y4363D1*
X7793Y4333D1*
X7813Y4303D1*
X7837Y4273D1*
X7860Y4243D1*
X7881Y4213D1*
X7903Y4183D1*
X7928Y4153D1*
X7955Y4123D1*
X7983Y4093D1*
X8013Y4063D1*
X8043Y4033D1*
X8073Y4003D1*
X8104Y3973D1*
X8138Y3943D1*
X8175Y3913D1*
X8212Y3883D1*
X8249Y3853D1*
X8287Y3823D1*
X8329Y3793D1*
X8376Y3763D1*
X8424Y3733D1*
X8474Y3703D1*
X8529Y3673D1*
X8590Y3643D1*
X8656Y3613D1*
X8724Y3583D1*
X8795Y3553D1*
X8874Y3523D1*
X8964Y3493D1*
X9065Y3463D1*
X9182Y3433D1*
X9329Y3403D1*
X9509Y3373D1*
X9715Y3343D1*
X9933Y3313D1*
X12753Y7033D2*
X12669Y7003D1*
X12592Y6973D1*
X12527Y6943D1*
X12472Y6913D1*
X12420Y6883D1*
X12364Y6853D1*
X12303Y6823D1*
X13503Y7033D2*
X13575Y7003D1*
X13639Y6973D1*
X13692Y6943D1*
X13738Y6913D1*
X13780Y6883D1*
X13816Y6853D1*
X13845Y6823D1*
X13870Y6793D1*
X13896Y6763D1*
X13924Y6733D1*
X13952Y6703D1*
X13978Y6673D1*
X14000Y6643D1*
X14021Y6613D1*
X14042Y6583D1*
X14061Y6553D1*
X14078Y6523D1*
X14094Y6493D1*
X14110Y6463D1*
X14125Y6433D1*
X14139Y6403D1*
X14150Y6373D1*
X14158Y6343D1*
X14165Y6313D1*
X14174Y6283D1*
X14182Y6253D1*
X14187Y6223D1*
X14190Y6193D1*
X14192Y6163D1*
X14193Y6133D1*
X6033Y6853D2*
X6003Y6823D1*
X5974Y6793D1*
X5948Y6763D1*
X5925Y6733D1*
X5904Y6703D1*
X5883Y6673D1*
X5864Y6643D1*
X5848Y6613D1*
X5835Y6583D1*
X5824Y6553D1*
X5813Y6523D1*
X5804Y6493D1*
X5798Y6463D1*
X5794Y6433D1*
X5788Y6403D1*
X5781Y6373D1*
X5773Y6343D1*
X5767Y6313D1*
X5765Y6283D1*
X5763Y6253D1*
Y6223D1*
Y6193D1*
Y6163D1*
X6033Y6853D2*
X6093Y6823D1*
X6154Y6793D1*
X6219Y6763D1*
X6291Y6733D1*
X6373Y6703D1*
X6468Y6673D1*
X6576Y6643D1*
X6693Y6613D1*
X13023Y6853D2*
X12887Y6823D1*
X12770Y6793D1*
X12680Y6763D1*
X12610Y6733D1*
X12556Y6703D1*
X12514Y6673D1*
X12499Y6643D1*
X12501Y6613D1*
X12510Y6583D1*
X12522Y6553D1*
X12537Y6523D1*
X12554Y6493D1*
X12572Y6463D1*
X12588Y6433D1*
X12600Y6403D1*
X12612Y6373D1*
X12622Y6343D1*
X12632Y6313D1*
X12643Y6283D1*
X12653Y6253D1*
X12662Y6223D1*
X12673Y6193D1*
X12683Y6163D1*
X12692Y6133D1*
X12702Y6103D1*
X12712Y6073D1*
X12718Y6043D1*
X12725Y6013D1*
X12734Y5983D1*
X12742Y5953D1*
X12747Y5923D1*
X12750Y5893D1*
X12753Y5863D1*
X12757Y5833D1*
X12765Y5803D1*
X12772Y5773D1*
X12778Y5743D1*
X12780Y5713D1*
X12782Y5683D1*
Y5653D1*
Y5623D1*
Y5593D1*
Y5563D1*
X12783Y5533D1*
Y5503D1*
Y5473D1*
Y5443D1*
Y5413D1*
Y5383D1*
Y5353D1*
Y5323D1*
Y5293D1*
Y5263D1*
Y5233D1*
X12785Y5203D1*
X12790Y5173D1*
X12814Y5143D1*
X12843Y5113D1*
X13233Y6853D2*
X13360Y6823D1*
X13464Y6793D1*
X13543Y6763D1*
X13604Y6733D1*
X13654Y6703D1*
X13698Y6673D1*
X13735Y6643D1*
X13765Y6613D1*
X13789Y6583D1*
X13812Y6553D1*
X13837Y6523D1*
X13863Y6493D1*
X13744Y6463D1*
X13640Y6433D1*
X13554Y6403D1*
X13483Y6373D1*
X13422Y6343D1*
X13372Y6313D1*
X13331Y6283D1*
X13296Y6253D1*
X13264Y6223D1*
X13234Y6193D1*
X13208Y6163D1*
X13185Y6133D1*
X13162Y6103D1*
X13138Y6073D1*
X13112Y6043D1*
X13087Y6013D1*
X13065Y5983D1*
X13044Y5953D1*
X13023Y5923D1*
X7473Y6703D2*
X7317Y6673D1*
X7156Y6643D1*
X6993Y6613D1*
X7503Y6703D2*
X7474Y6673D1*
X7448Y6643D1*
X7426Y6613D1*
X7407Y6583D1*
X7391Y6553D1*
X7376Y6523D1*
X7364Y6493D1*
X7353Y6463D1*
X7342Y6433D1*
X7329Y6403D1*
X7316Y6373D1*
X7305Y6343D1*
X7298Y6313D1*
X7294Y6283D1*
X7288Y6253D1*
X7281Y6223D1*
X7273Y6193D1*
X7267Y6163D1*
X7265Y6133D1*
X7262Y6103D1*
X7258Y6073D1*
X7250Y6043D1*
X7243Y6013D1*
X7237Y5983D1*
X7235Y5953D1*
X7233Y5923D1*
Y5893D1*
Y5863D1*
Y5833D1*
Y5803D1*
Y5773D1*
Y5743D1*
Y5713D1*
Y5683D1*
Y5653D1*
Y5623D1*
Y5593D1*
Y5563D1*
Y5533D1*
Y5503D1*
Y5473D1*
X7234Y5443D1*
X7238Y5413D1*
X7245Y5383D1*
X7252Y5353D1*
X7258Y5323D1*
X7261Y5293D1*
X7263Y5263D1*
X7267Y5233D1*
X7275Y5203D1*
X7282Y5173D1*
X7288Y5143D1*
X7290Y5113D1*
X7292Y5083D1*
X7293Y5053D1*
X7297Y5023D1*
X7305Y4993D1*
X7312Y4963D1*
X7319Y4933D1*
X7325Y4903D1*
X7334Y4873D1*
X7342Y4843D1*
X7349Y4813D1*
X7355Y4783D1*
X7364Y4753D1*
X7373Y4723D1*
X7383Y4693D1*
X7394Y4663D1*
X7407Y4633D1*
X7421Y4603D1*
X7435Y4573D1*
X7449Y4543D1*
X7461Y4513D1*
X7472Y4483D1*
X7483Y4453D1*
X7497Y4423D1*
X7511Y4393D1*
X7526Y4363D1*
X7545Y4333D1*
X7567Y4303D1*
X7589Y4273D1*
X7606Y4243D1*
X7621Y4213D1*
X7638Y4183D1*
X7658Y4153D1*
X7680Y4123D1*
X7701Y4093D1*
X7723Y4063D1*
X7748Y4033D1*
X7775Y4003D1*
X7803Y3973D1*
X7833Y3943D1*
X7863Y3913D1*
X7893Y3883D1*
X7923Y3853D1*
X7953Y3823D1*
X7984Y3793D1*
X8018Y3763D1*
X8055Y3733D1*
X8094Y3703D1*
X8133Y3673D1*
X8174Y3643D1*
X8218Y3613D1*
X8265Y3583D1*
X8314Y3553D1*
X8363Y3523D1*
X8412Y3493D1*
X8460Y3463D1*
X8500Y3433D1*
X8531Y3403D1*
X8542Y3373D1*
X8548Y3343D1*
X8551Y3313D1*
X8552Y3283D1*
X8551Y3253D1*
X8547Y3223D1*
X8540Y3193D1*
X8533Y3163D1*
X8527Y3133D1*
X8525Y3103D1*
X8523Y3073D1*
Y3043D1*
Y3013D1*
Y2983D1*
Y2953D1*
Y2923D1*
Y2893D1*
X8522Y2863D1*
X8521Y2833D1*
X8518Y2803D1*
X8510Y2773D1*
X8500Y2743D1*
X8486Y2713D1*
X8463Y2683D1*
X8430Y2653D1*
X8392Y2623D1*
X8353Y2593D1*
X8317Y2563D1*
X8280Y2533D1*
X8241Y2503D1*
X8203Y2473D1*
X8166Y2443D1*
X8130Y2413D1*
X8091Y2383D1*
X8053Y2353D1*
X8017Y2323D1*
X7983Y2293D1*
X8002Y2263D1*
X8023Y2233D1*
X8048Y2203D1*
X8075Y2173D1*
X8103Y2143D1*
X14073Y6283D2*
X13890Y6253D1*
X13743Y6223D1*
X13641Y6193D1*
X13563Y6163D1*
X13617Y6133D1*
X13664Y6103D1*
X13704Y6073D1*
X13739Y6043D1*
X13770Y6013D1*
X13797Y5983D1*
X13819Y5953D1*
X13837Y5923D1*
X13854Y5893D1*
X13869Y5863D1*
X13881Y5833D1*
X13892Y5803D1*
X13902Y5773D1*
X13913Y5743D1*
X13922Y5713D1*
X13933Y5683D1*
X13943Y5653D1*
X13953Y5623D1*
X13967Y5593D1*
X13983Y5563D1*
X13803Y6283D2*
X13911Y6253D1*
X14005Y6223D1*
X14080Y6193D1*
X14140Y6163D1*
X14193Y6133D1*
X10953Y6043D2*
X10912Y6013D1*
X10873Y5983D1*
X10837Y5953D1*
X10803Y5923D1*
X10833Y5893D1*
X10863Y5863D1*
X10893Y5833D1*
X10923Y5803D1*
X10953Y5773D1*
X10983Y5743D1*
X11013Y5713D1*
X11043Y5683D1*
X11073Y5653D1*
X11103Y5623D1*
X11134Y5593D1*
X11168Y5563D1*
X11206Y5533D1*
X11247Y5503D1*
X11291Y5473D1*
X11336Y5443D1*
X11384Y5413D1*
X11432Y5383D1*
X11479Y5353D1*
X11523Y5323D1*
X11488Y5293D1*
X11450Y5263D1*
X11413Y5233D1*
X11377Y5203D1*
X11343Y5173D1*
X11308Y5143D1*
X11271Y5113D1*
X11232Y5083D1*
X11192Y5053D1*
X11152Y5023D1*
X11112Y4993D1*
X11073Y4963D1*
X11033Y4933D1*
X10993Y4903D1*
X10957Y4873D1*
X10920Y4843D1*
X10880Y4813D1*
X10838Y4783D1*
X10793Y4753D1*
X10744Y4723D1*
X10688Y4693D1*
X10627Y4663D1*
X10565Y4633D1*
X10502Y4603D1*
X10437Y4573D1*
X10363Y4543D1*
X10277Y4513D1*
X10174Y4483D1*
X10055Y4453D1*
X9921Y4423D1*
X9783Y4393D1*
X10983Y6043D2*
X11013Y6013D1*
X11043Y5983D1*
X11073Y5953D1*
X11103Y5923D1*
X11133Y5893D1*
X11163Y5863D1*
X11193Y5833D1*
X11223Y5803D1*
X11254Y5773D1*
X11288Y5743D1*
X11326Y5713D1*
X11367Y5683D1*
X11411Y5653D1*
X11457Y5623D1*
X11505Y5593D1*
X11560Y5563D1*
X11621Y5533D1*
X11691Y5503D1*
X11764Y5473D1*
X11830Y5443D1*
X11881Y5413D1*
X11916Y5383D1*
X11943Y5353D1*
X11894Y5323D1*
X11848Y5293D1*
X11805Y5263D1*
X11764Y5233D1*
X11723Y5203D1*
X11684Y5173D1*
X11647Y5143D1*
X11610Y5113D1*
X11571Y5083D1*
X11532Y5053D1*
X11493Y5023D1*
X11452Y4993D1*
X11413Y4963D1*
X11377Y4933D1*
X11340Y4903D1*
X11301Y4873D1*
X11262Y4843D1*
X11223Y4813D1*
X11182Y4783D1*
X11143Y4753D1*
X11107Y4723D1*
X11070Y4693D1*
X11030Y4663D1*
X10988Y4633D1*
X10944Y4603D1*
X10899Y4573D1*
X10851Y4543D1*
X10802Y4513D1*
X10752Y4483D1*
X10700Y4453D1*
X10642Y4423D1*
X10576Y4393D1*
X10500Y4363D1*
X10416Y4333D1*
X10324Y4303D1*
X10223Y4273D1*
X10111Y4243D1*
X9993Y4213D1*
X8913Y6013D2*
X8883Y5983D1*
X8853Y5953D1*
X8823Y5923D1*
X8793Y5893D1*
X8763Y5863D1*
X8733Y5833D1*
X8704Y5803D1*
X8678Y5773D1*
X8656Y5743D1*
X8637Y5713D1*
X8621Y5683D1*
X8605Y5653D1*
X8590Y5623D1*
X8576Y5593D1*
X8565Y5563D1*
X8557Y5533D1*
X8550Y5503D1*
X8541Y5473D1*
X8533Y5443D1*
X8528Y5413D1*
X8525Y5383D1*
X8523Y5353D1*
Y5323D1*
Y5293D1*
Y5263D1*
Y5233D1*
Y5203D1*
Y5173D1*
Y5143D1*
Y5113D1*
Y5083D1*
Y5053D1*
X8524Y5023D1*
X8528Y4993D1*
X8535Y4963D1*
X8542Y4933D1*
X8549Y4903D1*
X8556Y4873D1*
X8565Y4843D1*
X8577Y4813D1*
X8591Y4783D1*
X8605Y4753D1*
X8620Y4723D1*
X8636Y4693D1*
X8655Y4663D1*
X8678Y4633D1*
X8705Y4603D1*
X8733Y4573D1*
X8763Y4543D1*
X8793Y4513D1*
X8824Y4483D1*
X8858Y4453D1*
X8896Y4423D1*
X8940Y4393D1*
X8991Y4363D1*
X9053Y4333D1*
X9128Y4303D1*
X9215Y4273D1*
X9316Y4243D1*
X9423Y4213D1*
X8973Y6013D2*
X8991Y5983D1*
X9008Y5953D1*
X9025Y5923D1*
X9043Y5893D1*
X9063Y5863D1*
X9031Y5833D1*
X8998Y5803D1*
X8960Y5773D1*
X8924Y5743D1*
X8892Y5713D1*
X8867Y5683D1*
X8844Y5653D1*
X8823Y5623D1*
X8804Y5593D1*
X8787Y5563D1*
X8771Y5533D1*
X8756Y5503D1*
X8744Y5473D1*
X8733Y5443D1*
X8723Y5413D1*
X8714Y5383D1*
X8708Y5353D1*
X8705Y5323D1*
X8703Y5293D1*
Y5263D1*
Y5233D1*
Y5203D1*
Y5173D1*
Y5143D1*
Y5113D1*
X8704Y5083D1*
X8708Y5053D1*
X8716Y5023D1*
X8727Y4993D1*
X8740Y4963D1*
X8751Y4933D1*
X8762Y4903D1*
X8774Y4873D1*
X8788Y4843D1*
X8805Y4813D1*
X8824Y4783D1*
X8844Y4753D1*
X8869Y4723D1*
X8900Y4693D1*
X8936Y4663D1*
X8975Y4633D1*
X9019Y4603D1*
X9070Y4573D1*
X9127Y4543D1*
X9193Y4513D1*
X9274Y4483D1*
X9378Y4453D1*
X9501Y4423D1*
X9633Y4393D1*
X13353Y5983D2*
X13233Y5953D1*
X13113Y5923D1*
X13503Y5983D2*
X13533Y5953D1*
X13563Y5923D1*
X13522Y5893D1*
X13483Y5863D1*
X13449Y5833D1*
X13420Y5803D1*
X13396Y5773D1*
X13374Y5743D1*
X13353Y5713D1*
X13334Y5683D1*
X13317Y5653D1*
X13301Y5623D1*
X13285Y5593D1*
X13270Y5563D1*
X13256Y5533D1*
X13244Y5503D1*
X13233Y5473D1*
X13222Y5443D1*
X13207Y5413D1*
X13188Y5383D1*
X13161Y5353D1*
X13128Y5323D1*
X13092Y5293D1*
X13056Y5263D1*
X13018Y5233D1*
X12972Y5203D1*
X12913Y5173D1*
X12837Y5143D1*
X12753Y5113D1*
X13623Y5713D2*
X13593Y5683D1*
X13564Y5653D1*
X13538Y5623D1*
X13516Y5593D1*
X13497Y5563D1*
X13481Y5533D1*
X13466Y5503D1*
X13454Y5473D1*
X13443Y5443D1*
X13432Y5413D1*
X13418Y5383D1*
X13404Y5353D1*
X13389Y5323D1*
X13370Y5293D1*
X13347Y5263D1*
X13320Y5233D1*
X13293Y5203D1*
X13266Y5173D1*
X13240Y5143D1*
X13210Y5113D1*
X13176Y5083D1*
X13139Y5053D1*
X13094Y5023D1*
X13036Y4993D1*
X12964Y4963D1*
X12882Y4933D1*
X12812Y4903D1*
X12758Y4873D1*
X12738Y4843D1*
X12725Y4813D1*
X12713Y4783D1*
X12702Y4753D1*
X12693Y4723D1*
X12681Y4693D1*
X12669Y4663D1*
X12655Y4633D1*
X12644Y4603D1*
X12633Y4573D1*
X12622Y4543D1*
X12608Y4513D1*
X12594Y4483D1*
X12580Y4453D1*
X12565Y4423D1*
X12549Y4393D1*
X12531Y4363D1*
X12512Y4333D1*
X12492Y4303D1*
X12473Y4273D1*
X12452Y4243D1*
X12432Y4213D1*
X12411Y4183D1*
X12387Y4153D1*
X12361Y4123D1*
X12337Y4093D1*
X12314Y4063D1*
X12292Y4033D1*
X12268Y4003D1*
X12240Y3973D1*
X12210Y3943D1*
X12177Y3913D1*
X12140Y3883D1*
X12103Y3853D1*
X12067Y3823D1*
X12033Y3793D1*
X11998Y3763D1*
X11961Y3733D1*
X11921Y3703D1*
X11881Y3673D1*
X11836Y3643D1*
X11786Y3613D1*
X11734Y3583D1*
X11683Y3553D1*
X11632Y3523D1*
X11577Y3493D1*
X11519Y3463D1*
X11457Y3433D1*
X11389Y3403D1*
X11315Y3373D1*
X11234Y3343D1*
X11143Y3313D1*
X11044Y3283D1*
X10935Y3253D1*
X10813Y3223D1*
X10673Y3193D1*
X10516Y3163D1*
X10353Y3133D1*
Y3103D1*
Y3073D1*
Y3043D1*
Y3013D1*
Y2983D1*
X10354Y2953D1*
X10358Y2923D1*
X10365Y2893D1*
X10372Y2863D1*
X10378Y2833D1*
X10380Y2803D1*
X10382Y2773D1*
Y2743D1*
Y2713D1*
Y2683D1*
X10383Y2653D1*
X10384Y2623D1*
X10395Y2593D1*
X10442Y2563D1*
X10515Y2533D1*
X10610Y2503D1*
X10715Y2473D1*
X10820Y2443D1*
X10918Y2413D1*
X10998Y2383D1*
X11060Y2353D1*
X11090Y2323D1*
X11086Y2293D1*
X11081Y2263D1*
X11077Y2233D1*
X11074Y2203D1*
X11073Y2173D1*
X13713Y5713D2*
X13768Y5683D1*
X13819Y5653D1*
X13867Y5623D1*
X13911Y5593D1*
X13953Y5563D1*
X8733Y3343D2*
Y3313D1*
Y3283D1*
Y3253D1*
Y3223D1*
Y3193D1*
Y3163D1*
X8732Y3133D1*
X8731Y3103D1*
X8728Y3073D1*
X8720Y3043D1*
X8713Y3013D1*
X8707Y2983D1*
X8705Y2953D1*
X8703Y2923D1*
Y2893D1*
Y2863D1*
Y2833D1*
Y2803D1*
Y2773D1*
Y2743D1*
X8705Y2713D1*
X8710Y2683D1*
X8732Y2653D1*
X8760Y2623D1*
X8791Y2593D1*
X8822Y2563D1*
X8852Y2533D1*
X8882Y2503D1*
X8912Y2473D1*
X8942Y2443D1*
X8973Y2413D1*
X9004Y2383D1*
X9038Y2353D1*
X9075Y2323D1*
X9111Y2293D1*
X9141Y2263D1*
X9165Y2233D1*
X9172Y2203D1*
X9164Y2173D1*
X9144Y2143D1*
X9119Y2113D1*
X9091Y2083D1*
X9063Y2053D1*
X8673Y3343D2*
X8788Y3313D1*
X8901Y3283D1*
X9014Y3253D1*
X9136Y3223D1*
X9275Y3193D1*
X9433Y3163D1*
X9603Y3133D1*
X10143D2*
Y3103D1*
Y3073D1*
X10144Y3043D1*
X10148Y3013D1*
X10155Y2983D1*
X10162Y2953D1*
X10168Y2923D1*
X10170Y2893D1*
X10172Y2863D1*
Y2833D1*
Y2803D1*
Y2773D1*
Y2743D1*
X10173Y2713D1*
X10174Y2683D1*
X10178Y2653D1*
X10185Y2623D1*
X10192Y2593D1*
X10198Y2563D1*
X10200Y2533D1*
Y2503D1*
X10196Y2473D1*
X10184Y2443D1*
X10165Y2413D1*
X10144Y2383D1*
X10123Y2353D1*
X10102Y2323D1*
X10078Y2293D1*
X10052Y2263D1*
X10027Y2233D1*
X10006Y2203D1*
X9990Y2173D1*
X9979Y2143D1*
X9987Y2113D1*
X10014Y2083D1*
X10048Y2053D1*
X10083Y2023D1*
X8463Y2413D2*
X8428Y2383D1*
X8389Y2353D1*
X8348Y2323D1*
X8305Y2293D1*
X8265Y2263D1*
X8228Y2233D1*
X8195Y2203D1*
X8163Y2173D1*
X8133Y2143D1*
X8493Y2413D2*
X8488Y2383D1*
X8480Y2353D1*
X8473Y2323D1*
X8467Y2293D1*
X8465Y2263D1*
X8463Y2233D1*
Y2203D1*
Y2173D1*
Y2143D1*
Y2113D1*
Y2083D1*
Y2053D1*
Y2023D1*
X8673Y2383D2*
Y2353D1*
Y2323D1*
X8672Y2293D1*
X8671Y2263D1*
X8668Y2233D1*
X8660Y2203D1*
X8653Y2173D1*
X8647Y2143D1*
X8645Y2113D1*
X8643Y2083D1*
Y2053D1*
Y2023D1*
X8703Y2383D2*
X8733Y2353D1*
X8763Y2323D1*
X8793Y2293D1*
X8823Y2263D1*
X8854Y2233D1*
X8888Y2203D1*
X8925Y2173D1*
X8962Y2143D1*
X8998Y2113D1*
X9031Y2083D1*
X9063Y2053D1*
X10473Y2293D2*
X10477Y2263D1*
X10485Y2233D1*
X10494Y2203D1*
X10503Y2173D1*
X10513Y2143D1*
X10523Y2113D1*
X10532Y2083D1*
X10542Y2053D1*
X10551Y2023D1*
X10557Y1993D1*
X10549Y1963D1*
X10515Y1933D1*
X10473Y1903D1*
X10533Y2293D2*
X10653Y2263D1*
X10773Y2233D1*
X10893Y2203D1*
X11013Y2173D1*
X10233Y2203D2*
X10227Y2173D1*
X10214Y2143D1*
X10194Y2113D1*
X10169Y2083D1*
X10141Y2053D1*
X10113Y2023D1*
X10263Y2203D2*
X10287Y2173D1*
X10305Y2143D1*
X10319Y2113D1*
X10331Y2083D1*
X10342Y2053D1*
X10352Y2023D1*
X10362Y1993D1*
X10372Y1963D1*
X10378Y1933D1*
X10383Y1903D1*
X-25180Y-10432D2*
D59*
X-25204Y-10384D1*
X-25276Y-10312D1*
X-24774D1*
X-25276Y-10014D2*
X-25252Y-10086D1*
X-25180Y-10134D1*
X-25061Y-10157D1*
X-24989D1*
X-24869Y-10134D1*
X-24797Y-10086D1*
X-24774Y-10014D1*
Y-9966D1*
X-24797Y-9894D1*
X-24869Y-9847D1*
X-24989Y-9822D1*
X-25061D1*
X-25180Y-9847D1*
X-25252Y-9894D1*
X-25276Y-9966D1*
Y-10014D1*
X-25180Y-9847D2*
X-24869Y-10134D1*
X-25276Y-9524D2*
X-25252Y-9596D1*
X-25180Y-9644D1*
X-25061Y-9668D1*
X-24989D1*
X-24869Y-9644D1*
X-24797Y-9596D1*
X-24774Y-9524D1*
Y-9477D1*
X-24797Y-9405D1*
X-24869Y-9357D1*
X-24989Y-9333D1*
X-25061D1*
X-25180Y-9357D1*
X-25252Y-9405D1*
X-25276Y-9477D1*
Y-9524D1*
X-25180Y-9357D2*
X-24869Y-9644D1*
X-25109Y-9179D2*
X-24869D1*
X-24798Y-9155D1*
X-24774Y-9107D1*
Y-9035D1*
X-24798Y-8988D1*
X-24869Y-8916D1*
X-25109D2*
X-24774D1*
X-25276Y-8450D2*
Y-8761D1*
X-24774D1*
X-25037D2*
Y-8570D1*
X9724Y-13764D2*
X9748Y-13836D1*
X9820Y-13884D1*
X9939Y-13908D1*
X10011D1*
X10131Y-13884D1*
X10203Y-13836D1*
X10226Y-13764D1*
Y-13717D1*
X10203Y-13645D1*
X10131Y-13597D1*
X10011Y-13573D1*
X9939D1*
X9820Y-13597D1*
X9748Y-13645D1*
X9724Y-13717D1*
Y-13764D1*
X9820Y-13597D2*
X10131Y-13884D1*
X10178Y-13395D2*
X10203Y-13419D1*
X10226Y-13395D1*
X10203Y-13371D1*
X10178Y-13395D1*
X9724Y-13072D2*
X9748Y-13144D1*
X9820Y-13192D1*
X9939Y-13216D1*
X10011D1*
X10131Y-13192D1*
X10203Y-13144D1*
X10226Y-13072D1*
Y-13025D1*
X10203Y-12953D1*
X10131Y-12906D1*
X10011Y-12881D1*
X9939D1*
X9820Y-12906D1*
X9748Y-12953D1*
X9724Y-13025D1*
Y-13072D1*
X9820Y-12906D2*
X10131Y-13192D1*
X9820Y-12727D2*
X9796Y-12679D1*
X9724Y-12607D1*
X10226D1*
X9891Y-12453D2*
X10131D1*
X10202Y-12429D1*
X10226Y-12381D1*
Y-12309D1*
X10202Y-12261D1*
X10131Y-12189D1*
X9891D2*
X10226D1*
X9724Y-11724D2*
Y-12035D1*
X10226D1*
X9963D2*
Y-11844D1*
X-15805Y-12432D2*
X-15829Y-12384D1*
X-15901Y-12312D1*
X-15399D1*
X-15901Y-12014D2*
X-15877Y-12086D1*
X-15805Y-12134D1*
X-15686Y-12157D1*
X-15614D1*
X-15494Y-12134D1*
X-15422Y-12086D1*
X-15399Y-12014D1*
Y-11966D1*
X-15422Y-11894D1*
X-15494Y-11847D1*
X-15614Y-11822D1*
X-15686D1*
X-15805Y-11847D1*
X-15877Y-11894D1*
X-15901Y-11966D1*
Y-12014D1*
X-15805Y-11847D2*
X-15494Y-12134D1*
X-15901Y-11524D2*
X-15877Y-11596D1*
X-15805Y-11644D1*
X-15686Y-11668D1*
X-15614D1*
X-15494Y-11644D1*
X-15422Y-11596D1*
X-15399Y-11524D1*
Y-11477D1*
X-15422Y-11405D1*
X-15494Y-11357D1*
X-15614Y-11333D1*
X-15686D1*
X-15805Y-11357D1*
X-15877Y-11405D1*
X-15901Y-11477D1*
Y-11524D1*
X-15805Y-11357D2*
X-15494Y-11644D1*
X-15734Y-11179D2*
X-15494D1*
X-15423Y-11155D1*
X-15399Y-11107D1*
Y-11035D1*
X-15423Y-10988D1*
X-15494Y-10916D1*
X-15734D2*
X-15399D1*
X-15901Y-10450D2*
Y-10761D1*
X-15399D1*
X-15662D2*
Y-10570D1*
X12358Y18016D2*
X12286Y17992D1*
X12238Y17920D1*
X12214Y17801D1*
Y17729D1*
X12238Y17610D1*
X12286Y17538D1*
X12358Y17514D1*
X12405D1*
X12477Y17538D1*
X12525Y17610D1*
X12549Y17729D1*
Y17801D1*
X12525Y17920D1*
X12477Y17992D1*
X12405Y18016D1*
X12358D1*
X12525Y17920D2*
X12238Y17610D1*
X12727Y17562D2*
X12703Y17538D1*
X12727Y17514D1*
X12751Y17538D1*
X12727Y17562D1*
X13050Y18016D2*
X12978Y17992D1*
X12930Y17920D1*
X12906Y17801D1*
Y17729D1*
X12930Y17610D1*
X12978Y17538D1*
X13050Y17514D1*
X13097D1*
X13169Y17538D1*
X13216Y17610D1*
X13241Y17729D1*
Y17801D1*
X13216Y17920D1*
X13169Y17992D1*
X13097Y18016D1*
X13050D1*
X13216Y17920D2*
X12930Y17610D1*
X13395Y17920D2*
X13443Y17944D1*
X13515Y18016D1*
Y17514D1*
X13670Y17849D2*
Y17610D1*
X13693Y17538D1*
X13741Y17514D1*
X13813D1*
X13861Y17538D1*
X13933Y17610D1*
Y17849D2*
Y17514D1*
X14398Y18016D2*
X14087D1*
Y17514D1*
Y17777D2*
X14278D1*
X-4776Y-4389D2*
X-4752Y-4461D1*
X-4680Y-4509D1*
X-4561Y-4533D1*
X-4489D1*
X-4369Y-4509D1*
X-4297Y-4461D1*
X-4274Y-4389D1*
Y-4342D1*
X-4297Y-4270D1*
X-4369Y-4222D1*
X-4489Y-4198D1*
X-4561D1*
X-4680Y-4222D1*
X-4752Y-4270D1*
X-4776Y-4342D1*
Y-4389D1*
X-4680Y-4222D2*
X-4369Y-4509D1*
X-4322Y-4020D2*
X-4297Y-4044D1*
X-4274Y-4020D1*
X-4297Y-3996D1*
X-4322Y-4020D1*
X-4776Y-3697D2*
X-4752Y-3769D1*
X-4680Y-3817D1*
X-4561Y-3841D1*
X-4489D1*
X-4369Y-3817D1*
X-4297Y-3769D1*
X-4274Y-3697D1*
Y-3650D1*
X-4297Y-3578D1*
X-4369Y-3531D1*
X-4489Y-3506D1*
X-4561D1*
X-4680Y-3531D1*
X-4752Y-3578D1*
X-4776Y-3650D1*
Y-3697D1*
X-4680Y-3531D2*
X-4369Y-3817D1*
X-4680Y-3352D2*
X-4704Y-3304D1*
X-4776Y-3232D1*
X-4274D1*
X-4609Y-3078D2*
X-4369D1*
X-4298Y-3054D1*
X-4274Y-3006D1*
Y-2934D1*
X-4298Y-2886D1*
X-4369Y-2814D1*
X-4609D2*
X-4274D1*
X-4776Y-2349D2*
Y-2660D1*
X-4274D1*
X-4537D2*
Y-2469D1*
X-16398Y-13109D2*
X-16469Y-13133D1*
X-16518Y-13205D1*
X-16541Y-13324D1*
Y-13396D1*
X-16518Y-13515D1*
X-16469Y-13587D1*
X-16398Y-13611D1*
X-16350D1*
X-16278Y-13587D1*
X-16231Y-13515D1*
X-16206Y-13396D1*
Y-13324D1*
X-16231Y-13205D1*
X-16278Y-13133D1*
X-16350Y-13109D1*
X-16398D1*
X-16231Y-13205D2*
X-16518Y-13515D1*
X-16028Y-13563D2*
X-16052Y-13587D1*
X-16028Y-13611D1*
X-16004Y-13587D1*
X-16028Y-13563D1*
X-15849Y-13205D2*
X-15801Y-13181D1*
X-15730Y-13109D1*
Y-13611D1*
X-15575Y-13276D2*
Y-13515D1*
X-15551Y-13587D1*
X-15503Y-13611D1*
X-15431D1*
X-15384Y-13587D1*
X-15312Y-13515D1*
Y-13276D2*
Y-13611D1*
X-14847Y-13109D2*
X-15158D1*
Y-13611D1*
Y-13348D2*
X-14966D1*
X4412Y2736D2*
X4436Y2664D1*
X4508Y2616D1*
X4627Y2592D1*
X4699D1*
X4818Y2616D1*
X4890Y2664D1*
X4914Y2736D1*
Y2783D1*
X4890Y2855D1*
X4818Y2903D1*
X4699Y2927D1*
X4627D1*
X4508Y2903D1*
X4436Y2855D1*
X4412Y2783D1*
Y2736D1*
X4508Y2903D2*
X4818Y2616D1*
X4866Y3105D2*
X4890Y3081D1*
X4914Y3105D1*
X4890Y3129D1*
X4866Y3105D1*
X4412Y3428D2*
X4436Y3356D1*
X4508Y3308D1*
X4627Y3284D1*
X4699D1*
X4818Y3308D1*
X4890Y3356D1*
X4914Y3428D1*
Y3475D1*
X4890Y3547D1*
X4818Y3594D1*
X4699Y3619D1*
X4627D1*
X4508Y3594D1*
X4436Y3547D1*
X4412Y3475D1*
Y3428D1*
X4508Y3594D2*
X4818Y3308D1*
X4508Y3773D2*
X4483Y3821D1*
X4412Y3893D1*
X4914D1*
X4579Y4047D2*
X4818D1*
X4889Y4071D1*
X4914Y4119D1*
Y4191D1*
X4889Y4239D1*
X4818Y4311D1*
X4579D2*
X4914D1*
X4411Y4776D2*
Y4465D1*
X4914D1*
X4651D2*
Y4656D1*
X-14651Y5230D2*
X-14627Y5159D1*
X-14555Y5110D1*
X-14436Y5087D1*
X-14364D1*
X-14244Y5110D1*
X-14172Y5159D1*
X-14149Y5230D1*
Y5278D1*
X-14172Y5350D1*
X-14244Y5397D1*
X-14364Y5422D1*
X-14436D1*
X-14555Y5397D1*
X-14627Y5350D1*
X-14651Y5278D1*
Y5230D1*
X-14555Y5397D2*
X-14244Y5110D1*
X-14197Y5600D2*
X-14172Y5576D1*
X-14149Y5600D1*
X-14172Y5624D1*
X-14197Y5600D1*
X-14555Y5778D2*
X-14579Y5827D1*
X-14651Y5898D1*
X-14149D1*
X-14484Y6053D2*
X-14244D1*
X-14173Y6077D1*
X-14149Y6125D1*
Y6196D1*
X-14173Y6244D1*
X-14244Y6316D1*
X-14484D2*
X-14149D1*
X-14651Y6781D2*
Y6470D1*
X-14149D1*
X-14412D2*
Y6662D1*
X-21276Y5855D2*
X-21252Y5784D1*
X-21180Y5735D1*
X-21061Y5712D1*
X-20989D1*
X-20869Y5735D1*
X-20797Y5784D1*
X-20774Y5855D1*
Y5903D1*
X-20797Y5975D1*
X-20869Y6022D1*
X-20989Y6047D1*
X-21061D1*
X-21180Y6022D1*
X-21252Y5975D1*
X-21276Y5903D1*
Y5855D1*
X-21180Y6022D2*
X-20869Y5735D1*
X-20822Y6225D2*
X-20797Y6201D1*
X-20774Y6225D1*
X-20797Y6249D1*
X-20822Y6225D1*
X-21180Y6403D2*
X-21204Y6452D1*
X-21276Y6523D1*
X-20774D1*
X-21109Y6678D2*
X-20869D1*
X-20798Y6702D1*
X-20774Y6750D1*
Y6821D1*
X-20798Y6869D1*
X-20869Y6941D1*
X-21109D2*
X-20774D1*
X-21276Y7406D2*
Y7095D1*
X-20774D1*
X-21037D2*
Y7287D1*
X11233Y-5859D2*
X11161Y-5883D1*
X11113Y-5955D1*
X11089Y-6074D1*
Y-6146D1*
X11113Y-6265D1*
X11161Y-6337D1*
X11233Y-6361D1*
X11280D1*
X11352Y-6337D1*
X11400Y-6265D1*
X11424Y-6146D1*
Y-6074D1*
X11400Y-5955D1*
X11352Y-5883D1*
X11280Y-5859D1*
X11233D1*
X11400Y-5955D2*
X11113Y-6265D1*
X11602Y-6313D2*
X11578Y-6337D1*
X11602Y-6361D1*
X11626Y-6337D1*
X11602Y-6313D1*
X11925Y-5859D2*
X11853Y-5883D1*
X11805Y-5955D1*
X11781Y-6074D1*
Y-6146D1*
X11805Y-6265D1*
X11853Y-6337D1*
X11925Y-6361D1*
X11972D1*
X12044Y-6337D1*
X12091Y-6265D1*
X12116Y-6146D1*
Y-6074D1*
X12091Y-5955D1*
X12044Y-5883D1*
X11972Y-5859D1*
X11925D1*
X12091Y-5955D2*
X11805Y-6265D1*
X12270Y-5955D2*
X12318Y-5931D1*
X12390Y-5859D1*
Y-6361D1*
X12545Y-6026D2*
Y-6265D1*
X12568Y-6337D1*
X12616Y-6361D1*
X12688D1*
X12736Y-6337D1*
X12808Y-6265D1*
Y-6026D2*
Y-6361D1*
X13273Y-5859D2*
X12962D1*
Y-6361D1*
Y-6098D2*
X13153D1*
X27168Y3552D2*
X27192Y3480D1*
X27264Y3432D1*
X27383Y3408D1*
X27455D1*
X27575Y3432D1*
X27646Y3480D1*
X27670Y3552D1*
Y3599D1*
X27646Y3671D1*
X27575Y3719D1*
X27455Y3743D1*
X27383D1*
X27264Y3719D1*
X27192Y3671D1*
X27168Y3599D1*
Y3552D1*
X27264Y3719D2*
X27575Y3432D1*
X27622Y3921D2*
X27646Y3897D1*
X27670Y3921D1*
X27646Y3945D1*
X27622Y3921D1*
X27168Y4243D2*
X27192Y4172D1*
X27264Y4124D1*
X27383Y4100D1*
X27455D1*
X27575Y4124D1*
X27646Y4172D1*
X27670Y4243D1*
Y4291D1*
X27646Y4363D1*
X27575Y4410D1*
X27455Y4435D1*
X27383D1*
X27264Y4410D1*
X27192Y4363D1*
X27168Y4291D1*
Y4243D1*
X27264Y4410D2*
X27575Y4124D1*
X27264Y4589D2*
X27240Y4637D1*
X27168Y4709D1*
X27670D1*
X27335Y4863D2*
X27575D1*
X27646Y4887D1*
X27670Y4935D1*
Y5007D1*
X27646Y5055D1*
X27575Y5126D1*
X27335D2*
X27670D1*
X27168Y5592D2*
Y5281D1*
X27670D1*
X27407D2*
Y5472D1*
X-14644Y9359D2*
X-14620Y9287D1*
X-14549Y9239D1*
X-14429Y9215D1*
X-14357D1*
X-14238Y9239D1*
X-14166Y9287D1*
X-14142Y9359D1*
Y9406D1*
X-14166Y9478D1*
X-14238Y9526D1*
X-14357Y9550D1*
X-14429D1*
X-14549Y9526D1*
X-14620Y9478D1*
X-14644Y9406D1*
Y9359D1*
X-14549Y9526D2*
X-14238Y9239D1*
X-14190Y9728D2*
X-14166Y9704D1*
X-14142Y9728D1*
X-14166Y9753D1*
X-14190Y9728D1*
X-14549Y9907D2*
X-14573Y9955D1*
X-14644Y10027D1*
X-14142D1*
X-14477Y10181D2*
X-14238D1*
X-14167Y10205D1*
X-14142Y10253D1*
Y10325D1*
X-14167Y10372D1*
X-14238Y10444D1*
X-14477D2*
X-14142D1*
X-14645Y10910D2*
Y10599D1*
X-14142D1*
X-14405D2*
Y10790D1*
X-18523Y5016D2*
X-18594Y4992D1*
X-18643Y4920D1*
X-18666Y4801D1*
Y4729D1*
X-18643Y4610D1*
X-18594Y4538D1*
X-18523Y4514D1*
X-18475D1*
X-18403Y4538D1*
X-18356Y4610D1*
X-18331Y4729D1*
Y4801D1*
X-18356Y4920D1*
X-18403Y4992D1*
X-18475Y5016D1*
X-18523D1*
X-18356Y4920D2*
X-18643Y4610D1*
X-18153Y4562D2*
X-18177Y4538D1*
X-18153Y4514D1*
X-18129Y4538D1*
X-18153Y4562D1*
X-17974Y4920D2*
X-17926Y4944D1*
X-17855Y5016D1*
Y4514D1*
X-17700Y4849D2*
Y4610D1*
X-17676Y4538D1*
X-17628Y4514D1*
X-17556D1*
X-17509Y4538D1*
X-17437Y4610D1*
Y4849D2*
Y4514D1*
X-16972Y5016D2*
X-17283D1*
Y4514D1*
Y4777D2*
X-17091D1*
X-12457Y11296D2*
X-12433Y11224D1*
X-12361Y11176D1*
X-12242Y11153D1*
X-12170D1*
X-12050Y11176D1*
X-11979Y11224D1*
X-11955Y11296D1*
Y11344D1*
X-11979Y11416D1*
X-12050Y11463D1*
X-12170Y11488D1*
X-12242D1*
X-12361Y11463D1*
X-12433Y11416D1*
X-12457Y11344D1*
Y11296D1*
X-12361Y11463D2*
X-12050Y11176D1*
X-12003Y11666D2*
X-11979Y11642D1*
X-11955Y11666D1*
X-11979Y11690D1*
X-12003Y11666D1*
X-12361Y11844D2*
X-12385Y11893D1*
X-12457Y11964D1*
X-11955D1*
X-12290Y12119D2*
X-12050D1*
X-11979Y12143D1*
X-11955Y12191D1*
Y12262D1*
X-11979Y12310D1*
X-12050Y12382D1*
X-12290D2*
X-11955D1*
X-12457Y12847D2*
Y12536D1*
X-11955D1*
X-12218D2*
Y12727D1*
X16733Y-5859D2*
X16661Y-5883D1*
X16613Y-5955D1*
X16589Y-6074D1*
Y-6146D1*
X16613Y-6265D1*
X16661Y-6337D1*
X16733Y-6361D1*
X16780D1*
X16852Y-6337D1*
X16900Y-6265D1*
X16924Y-6146D1*
Y-6074D1*
X16900Y-5955D1*
X16852Y-5883D1*
X16780Y-5859D1*
X16733D1*
X16900Y-5955D2*
X16613Y-6265D1*
X17102Y-6313D2*
X17078Y-6337D1*
X17102Y-6361D1*
X17126Y-6337D1*
X17102Y-6313D1*
X17425Y-5859D2*
X17353Y-5883D1*
X17305Y-5955D1*
X17281Y-6074D1*
Y-6146D1*
X17305Y-6265D1*
X17353Y-6337D1*
X17425Y-6361D1*
X17472D1*
X17544Y-6337D1*
X17591Y-6265D1*
X17616Y-6146D1*
Y-6074D1*
X17591Y-5955D1*
X17544Y-5883D1*
X17472Y-5859D1*
X17425D1*
X17591Y-5955D2*
X17305Y-6265D1*
X17770Y-5955D2*
X17818Y-5931D1*
X17890Y-5859D1*
Y-6361D1*
X18045Y-6026D2*
Y-6265D1*
X18068Y-6337D1*
X18116Y-6361D1*
X18188D1*
X18236Y-6337D1*
X18308Y-6265D1*
Y-6026D2*
Y-6361D1*
X18773Y-5859D2*
X18462D1*
Y-6361D1*
Y-6098D2*
X18653D1*
X21099Y-15952D2*
X21123Y-16024D1*
X21195Y-16072D1*
X21314Y-16095D1*
X21386D1*
X21506Y-16072D1*
X21578Y-16024D1*
X21601Y-15952D1*
Y-15904D1*
X21578Y-15832D1*
X21506Y-15785D1*
X21386Y-15761D1*
X21314D1*
X21195Y-15785D1*
X21123Y-15832D1*
X21099Y-15904D1*
Y-15952D1*
X21195Y-15785D2*
X21506Y-16072D1*
X21553Y-15582D2*
X21578Y-15606D1*
X21601Y-15582D1*
X21578Y-15558D1*
X21553Y-15582D1*
X21099Y-15260D2*
X21123Y-15332D1*
X21195Y-15380D1*
X21314Y-15404D1*
X21386D1*
X21506Y-15380D1*
X21578Y-15332D1*
X21601Y-15260D1*
Y-15212D1*
X21578Y-15141D1*
X21506Y-15093D1*
X21386Y-15069D1*
X21314D1*
X21195Y-15093D1*
X21123Y-15141D1*
X21099Y-15212D1*
Y-15260D1*
X21195Y-15093D2*
X21506Y-15380D1*
X21195Y-14914D2*
X21171Y-14866D1*
X21099Y-14794D1*
X21601D1*
X21266Y-14640D2*
X21506D1*
X21577Y-14616D1*
X21601Y-14568D1*
Y-14496D1*
X21577Y-14449D1*
X21506Y-14377D1*
X21266D2*
X21601D1*
X21099Y-13911D2*
Y-14223D1*
X21601D1*
X21338D2*
Y-14031D1*
X-16170Y-1504D2*
X-16122Y-1479D1*
X-16050Y-1408D1*
Y-1910D1*
X-15560Y-1408D2*
Y-1910D1*
X-15895Y-1408D1*
Y-1910D1*
X-15119Y-1408D2*
X-15358D1*
X-15382Y-1623D1*
X-15358Y-1599D1*
X-15286Y-1575D1*
X-15215D1*
X-15143Y-1599D1*
X-15095Y-1647D1*
X-15071Y-1719D1*
Y-1766D1*
X-15095Y-1838D1*
X-15143Y-1886D1*
X-15215Y-1910D1*
X-15286D1*
X-15358Y-1886D1*
X-15382Y-1862D1*
X-15406Y-1814D1*
X-14797Y-1408D2*
X-14869Y-1432D1*
X-14893Y-1479D1*
Y-1527D1*
X-14869Y-1575D1*
X-14821Y-1599D1*
X-14725Y-1623D1*
X-14654Y-1647D1*
X-14606Y-1695D1*
X-14582Y-1742D1*
Y-1814D1*
X-14606Y-1862D1*
X-14630Y-1886D1*
X-14702Y-1910D1*
X-14797D1*
X-14869Y-1886D1*
X-14893Y-1862D1*
X-14917Y-1814D1*
Y-1742D1*
X-14893Y-1695D1*
X-14845Y-1647D1*
X-14773Y-1623D1*
X-14678Y-1599D1*
X-14630Y-1575D1*
X-14606Y-1527D1*
Y-1479D1*
X-14630Y-1432D1*
X-14702Y-1408D1*
X-14797D1*
X-14428Y-1504D2*
X-14380Y-1479D1*
X-14308Y-1408D1*
Y-1910D1*
X-14058D2*
X-13819Y-1408D1*
X-14154D1*
X-23562Y-6601D2*
X-23587Y-6553D1*
X-23658Y-6481D1*
X-23156D1*
X-23658Y-5991D2*
X-23156D1*
X-23658Y-6326D1*
X-23156D1*
X-23658Y-5550D2*
Y-5789D1*
X-23443Y-5813D1*
X-23467Y-5789D1*
X-23491Y-5717D1*
Y-5646D1*
X-23467Y-5574D1*
X-23419Y-5526D1*
X-23347Y-5502D1*
X-23300D1*
X-23228Y-5526D1*
X-23180Y-5574D1*
X-23156Y-5646D1*
Y-5717D1*
X-23180Y-5789D1*
X-23204Y-5813D1*
X-23252Y-5837D1*
X-23658Y-5228D2*
X-23634Y-5300D1*
X-23587Y-5324D1*
X-23538D1*
X-23491Y-5300D1*
X-23467Y-5252D1*
X-23443Y-5156D1*
X-23419Y-5085D1*
X-23371Y-5037D1*
X-23323Y-5013D1*
X-23252D1*
X-23204Y-5037D1*
X-23180Y-5061D1*
X-23156Y-5133D1*
Y-5228D1*
X-23180Y-5300D1*
X-23204Y-5324D1*
X-23252Y-5348D1*
X-23323D1*
X-23371Y-5324D1*
X-23419Y-5276D1*
X-23443Y-5205D1*
X-23467Y-5109D1*
X-23491Y-5061D1*
X-23538Y-5037D1*
X-23587D1*
X-23634Y-5061D1*
X-23658Y-5133D1*
Y-5228D1*
X-23562Y-4859D2*
X-23587Y-4811D1*
X-23658Y-4739D1*
X-23156D1*
Y-4489D2*
X-23658Y-4250D1*
Y-4585D1*
X-3883Y-6663D2*
X-3763Y-7166D1*
X-3644Y-6663D1*
X-3524Y-7166D1*
X-3404Y-6663D1*
X-2963Y-6735D2*
X-2987Y-6688D1*
X-3059Y-6664D1*
X-3106D1*
X-3178Y-6688D1*
X-3226Y-6760D1*
X-3250Y-6879D1*
Y-6998D1*
X-3226Y-7094D1*
X-3178Y-7142D1*
X-3106Y-7166D1*
X-3083D1*
X-3011Y-7142D1*
X-2963Y-7094D1*
X-2939Y-7022D1*
Y-6998D1*
X-2963Y-6927D1*
X-3011Y-6879D1*
X-3083Y-6855D1*
X-3106D1*
X-3178Y-6879D1*
X-3226Y-6927D1*
X-3250Y-6998D1*
X-2498Y-6664D2*
X-2737D1*
X-2761Y-6879D1*
X-2737Y-6855D1*
X-2665Y-6831D1*
X-2594D1*
X-2522Y-6855D1*
X-2474Y-6903D1*
X-2450Y-6975D1*
Y-7022D1*
X-2474Y-7094D1*
X-2522Y-7142D1*
X-2594Y-7166D1*
X-2665D1*
X-2737Y-7142D1*
X-2761Y-7118D1*
X-2785Y-7070D1*
X-1937Y-6783D2*
X-1961Y-6735D1*
X-2009Y-6687D1*
X-2056Y-6663D1*
X-2152D1*
X-2200Y-6687D1*
X-2248Y-6735D1*
X-2272Y-6783D1*
X-2296Y-6855D1*
Y-6975D1*
X-2272Y-7046D1*
X-2248Y-7094D1*
X-2200Y-7142D1*
X-2152Y-7166D1*
X-2056D1*
X-2009Y-7142D1*
X-1961Y-7094D1*
X-1937Y-7046D1*
X-1758Y-6783D2*
Y-6760D1*
X-1735Y-6712D1*
X-1711Y-6688D1*
X-1663Y-6664D1*
X-1567D1*
X-1520Y-6688D1*
X-1496Y-6712D1*
X-1471Y-6760D1*
Y-6807D1*
X-1496Y-6855D1*
X-1543Y-6927D1*
X-1783Y-7166D1*
X-1448D1*
X-1269Y-6783D2*
Y-6760D1*
X-1245Y-6712D1*
X-1221Y-6688D1*
X-1173Y-6664D1*
X-1078D1*
X-1030Y-6688D1*
X-1006Y-6712D1*
X-982Y-6760D1*
Y-6807D1*
X-1006Y-6855D1*
X-1054Y-6927D1*
X-1293Y-7166D1*
X-958D1*
X-469Y-6735D2*
X-517Y-6687D1*
X-588Y-6663D1*
X-684D1*
X-756Y-6687D1*
X-804Y-6735D1*
Y-6783D1*
X-780Y-6831D1*
X-756Y-6855D1*
X-708Y-6878D1*
X-565Y-6927D1*
X-517Y-6950D1*
X-493Y-6975D1*
X-469Y-7022D1*
Y-7094D1*
X-517Y-7142D1*
X-588Y-7166D1*
X-684D1*
X-756Y-7142D1*
X-804Y-7094D1*
X-28Y-6735D2*
X-52Y-6688D1*
X-123Y-6664D1*
X-171D1*
X-243Y-6688D1*
X-291Y-6760D1*
X-315Y-6879D1*
Y-6998D1*
X-291Y-7094D1*
X-243Y-7142D1*
X-171Y-7166D1*
X-147D1*
X-76Y-7142D1*
X-28Y-7094D1*
X-4Y-7022D1*
Y-6998D1*
X-28Y-6927D1*
X-76Y-6879D1*
X-147Y-6855D1*
X-171D1*
X-243Y-6879D1*
X-291Y-6927D1*
X-315Y-6998D1*
X318Y-6663D2*
Y-7166D1*
X150Y-6663D2*
X485D1*
X640Y-6927D2*
X855D1*
X927Y-6903D1*
X951Y-6878D1*
X975Y-6831D1*
Y-6759D1*
X951Y-6712D1*
X927Y-6687D1*
X855Y-6663D1*
X640D1*
Y-7166D1*
X1488Y-6783D2*
X1464Y-6735D1*
X1416Y-6687D1*
X1368Y-6663D1*
X1273D1*
X1225Y-6687D1*
X1177Y-6735D1*
X1153Y-6783D1*
X1129Y-6855D1*
Y-6975D1*
X1153Y-7046D1*
X1177Y-7094D1*
X1225Y-7142D1*
X1273Y-7166D1*
X1368D1*
X1416Y-7142D1*
X1464Y-7094D1*
X1488Y-7046D1*
Y-6975D1*
X1368D1*
X1642Y-6915D2*
X1918D1*
X2073Y-6760D2*
X2121Y-6735D1*
X2193Y-6664D1*
Y-7166D1*
X2587D2*
Y-6664D1*
X2347Y-6998D1*
X2706D1*
X-12096Y-628D2*
X-11594Y-508D1*
X-12096Y-389D1*
X-11594Y-269D1*
X-12096Y-149D1*
X-12025Y292D2*
X-12072Y268D1*
X-12096Y196D1*
Y149D1*
X-12072Y77D1*
X-12000Y29D1*
X-11881Y5D1*
X-11761D1*
X-11666Y29D1*
X-11618Y77D1*
X-11594Y149D1*
Y173D1*
X-11618Y244D1*
X-11666Y292D1*
X-11738Y316D1*
X-11761D1*
X-11833Y292D1*
X-11881Y244D1*
X-11905Y173D1*
Y149D1*
X-11881Y77D1*
X-11833Y29D1*
X-11761Y5D1*
X-12096Y757D2*
Y518D1*
X-11881Y494D1*
X-11905Y518D1*
X-11929Y590D1*
Y661D1*
X-11905Y733D1*
X-11857Y781D1*
X-11785Y805D1*
X-11738D1*
X-11666Y781D1*
X-11618Y733D1*
X-11594Y661D1*
Y590D1*
X-11618Y518D1*
X-11642Y494D1*
X-11690Y470D1*
X-11977Y1318D2*
X-12025Y1294D1*
X-12073Y1246D1*
X-12096Y1199D1*
Y1103D1*
X-12073Y1055D1*
X-12025Y1008D1*
X-11977Y983D1*
X-11905Y959D1*
X-11785D1*
X-11714Y983D1*
X-11666Y1008D1*
X-11618Y1055D1*
X-11594Y1103D1*
Y1199D1*
X-11618Y1246D1*
X-11666Y1294D1*
X-11714Y1318D1*
X-12096Y1759D2*
Y1521D1*
X-11881Y1497D1*
X-11905Y1521D1*
X-11929Y1592D1*
Y1664D1*
X-11905Y1736D1*
X-11857Y1784D1*
X-11785Y1807D1*
X-11738D1*
X-11666Y1784D1*
X-11618Y1736D1*
X-11594Y1664D1*
Y1592D1*
X-11618Y1521D1*
X-11642Y1497D1*
X-11690Y1473D1*
X-12000Y1962D2*
X-12025Y2010D1*
X-12096Y2082D1*
X-11594D1*
X-12096Y2571D2*
X-11594D1*
X-12096Y2236D1*
X-11594D1*
X-12025Y3012D2*
X-12072Y2989D1*
X-12096Y2917D1*
Y2869D1*
X-12072Y2797D1*
X-12000Y2749D1*
X-11881Y2726D1*
X-11761D1*
X-11666Y2749D1*
X-11618Y2797D1*
X-11594Y2869D1*
Y2893D1*
X-11618Y2964D1*
X-11666Y3012D1*
X-11738Y3036D1*
X-11761D1*
X-11833Y3012D1*
X-11881Y2964D1*
X-11905Y2893D1*
Y2869D1*
X-11881Y2797D1*
X-11833Y2749D1*
X-11761Y2726D1*
X-12096Y3358D2*
X-11594D1*
X-12096Y3191D2*
Y3525D1*
X-11833Y3680D2*
Y3895D1*
X-11857Y3967D1*
X-11881Y3991D1*
X-11929Y4015D1*
X-12001D1*
X-12048Y3991D1*
X-12073Y3967D1*
X-12096Y3895D1*
Y3680D1*
X-11594D1*
X-11977Y4528D2*
X-12025Y4504D1*
X-12073Y4456D1*
X-12096Y4408D1*
Y4313D1*
X-12073Y4265D1*
X-12025Y4217D1*
X-11977Y4193D1*
X-11905Y4169D1*
X-11785D1*
X-11714Y4193D1*
X-11666Y4217D1*
X-11618Y4265D1*
X-11594Y4313D1*
Y4408D1*
X-11618Y4456D1*
X-11666Y4504D1*
X-11714Y4528D1*
X-11785D1*
Y4408D1*
X-11845Y4682D2*
Y4959D1*
X-12000Y5113D2*
X-12025Y5161D1*
X-12096Y5233D1*
X-11594D1*
Y5627D2*
X-12096D1*
X-11761Y5387D1*
Y5746D1*
X18224Y14809D2*
X18032Y15312D1*
X17841Y14809D1*
X17913Y14977D2*
X18152D1*
X18546Y15312D2*
Y14809D1*
X18378Y15312D2*
X18713D1*
X18892Y15192D2*
Y15215D1*
X18916Y15263D1*
X18940Y15287D1*
X18988Y15311D1*
X19083D1*
X19131Y15287D1*
X19155Y15263D1*
X19179Y15215D1*
Y15168D1*
X19155Y15120D1*
X19107Y15048D1*
X18868Y14809D1*
X19203D1*
X19476Y15311D2*
X19405Y15287D1*
X19381Y15240D1*
Y15192D1*
X19405Y15144D1*
X19453Y15120D1*
X19548Y15096D1*
X19620Y15072D1*
X19668Y15024D1*
X19691Y14977D1*
Y14905D1*
X19668Y14857D1*
X19644Y14833D1*
X19572Y14809D1*
X19476D1*
X19405Y14833D1*
X19381Y14857D1*
X19357Y14905D1*
Y14977D1*
X19381Y15024D1*
X19429Y15072D1*
X19500Y15096D1*
X19596Y15120D1*
X19644Y15144D1*
X19668Y15192D1*
Y15240D1*
X19644Y15287D1*
X19572Y15311D1*
X19476D1*
X20205Y15192D2*
X20181Y15240D1*
X20133Y15288D1*
X20085Y15312D1*
X19990D1*
X19941Y15288D1*
X19894Y15240D1*
X19870Y15192D1*
X19846Y15120D1*
Y15000D1*
X19870Y14929D1*
X19894Y14881D1*
X19941Y14833D1*
X19990Y14809D1*
X20085D1*
X20133Y14833D1*
X20181Y14881D1*
X20205Y14929D1*
X20383Y15192D2*
Y15215D1*
X20407Y15263D1*
X20431Y15287D1*
X20479Y15311D1*
X20574D1*
X20622Y15287D1*
X20646Y15263D1*
X20670Y15215D1*
Y15168D1*
X20646Y15120D1*
X20598Y15048D1*
X20359Y14809D1*
X20694D1*
X21135Y15311D2*
X20896D1*
X20873Y15096D1*
X20896Y15120D1*
X20968Y15144D1*
X21039D1*
X21111Y15120D1*
X21159Y15072D1*
X21183Y15000D1*
Y14953D1*
X21159Y14881D1*
X21111Y14833D1*
X21039Y14809D1*
X20968D1*
X20896Y14833D1*
X20873Y14857D1*
X20848Y14905D1*
X21624Y15240D2*
X21601Y15287D1*
X21529Y15311D1*
X21481D1*
X21409Y15287D1*
X21361Y15215D1*
X21338Y15096D1*
Y14977D1*
X21361Y14881D1*
X21409Y14833D1*
X21481Y14809D1*
X21505D1*
X21576Y14833D1*
X21624Y14881D1*
X21648Y14953D1*
Y14977D1*
X21624Y15048D1*
X21576Y15096D1*
X21505Y15120D1*
X21481D1*
X21409Y15096D1*
X21361Y15048D1*
X21338Y14977D1*
X21803Y15060D2*
X22079D1*
X22233Y15215D2*
X22281Y15240D1*
X22353Y15311D1*
Y14809D1*
X22794Y15311D2*
X22556D1*
X22532Y15096D1*
X22556Y15120D1*
X22628Y15144D1*
X22699D1*
X22771Y15120D1*
X22819Y15072D1*
X22843Y15000D1*
Y14953D1*
X22819Y14881D1*
X22771Y14833D1*
X22699Y14809D1*
X22628D1*
X22556Y14833D1*
X22532Y14857D1*
X22508Y14905D1*
X22997Y15048D2*
X23213D1*
X23284Y15072D1*
X23308Y15097D1*
X23332Y15144D1*
Y15216D1*
X23308Y15263D1*
X23284Y15288D1*
X23213Y15312D1*
X22997D1*
Y14809D1*
X23486Y15312D2*
Y14953D1*
X23510Y14881D1*
X23558Y14833D1*
X23630Y14809D1*
X23678D1*
X23749Y14833D1*
X23797Y14881D1*
X23821Y14953D1*
Y15312D1*
X-3096Y1870D2*
X-2594Y1990D1*
X-3096Y2109D1*
X-2594Y2229D1*
X-3096Y2349D1*
X-3025Y2790D2*
X-3072Y2766D1*
X-3096Y2694D1*
Y2647D1*
X-3072Y2575D1*
X-3000Y2527D1*
X-2881Y2503D1*
X-2761D1*
X-2666Y2527D1*
X-2618Y2575D1*
X-2594Y2647D1*
Y2670D1*
X-2618Y2742D1*
X-2666Y2790D1*
X-2738Y2814D1*
X-2761D1*
X-2833Y2790D1*
X-2881Y2742D1*
X-2905Y2670D1*
Y2647D1*
X-2881Y2575D1*
X-2833Y2527D1*
X-2761Y2503D1*
X-3096Y3255D2*
Y3016D1*
X-2881Y2992D1*
X-2905Y3016D1*
X-2929Y3088D1*
Y3159D1*
X-2905Y3231D1*
X-2857Y3279D1*
X-2785Y3303D1*
X-2738D1*
X-2666Y3279D1*
X-2618Y3231D1*
X-2594Y3159D1*
Y3088D1*
X-2618Y3016D1*
X-2642Y2992D1*
X-2690Y2968D1*
X-2977Y3816D2*
X-3025Y3792D1*
X-3073Y3744D1*
X-3096Y3697D1*
Y3601D1*
X-3073Y3553D1*
X-3025Y3505D1*
X-2977Y3481D1*
X-2905Y3457D1*
X-2785D1*
X-2714Y3481D1*
X-2666Y3505D1*
X-2618Y3553D1*
X-2594Y3601D1*
Y3697D1*
X-2618Y3744D1*
X-2666Y3792D1*
X-2714Y3816D1*
X-3096Y4114D2*
X-3072Y4042D1*
X-3000Y3994D1*
X-2881Y3970D1*
X-2809D1*
X-2690Y3994D1*
X-2618Y4042D1*
X-2594Y4114D1*
Y4162D1*
X-2618Y4233D1*
X-2690Y4281D1*
X-2809Y4305D1*
X-2881D1*
X-3000Y4281D1*
X-3072Y4233D1*
X-3096Y4162D1*
Y4114D1*
X-3000Y4281D2*
X-2690Y3994D1*
X-2976Y4484D2*
X-3000D1*
X-3048Y4508D1*
X-3072Y4532D1*
X-3096Y4580D1*
Y4675D1*
X-3072Y4723D1*
X-3048Y4747D1*
X-3000Y4771D1*
X-2953D1*
X-2905Y4747D1*
X-2833Y4699D1*
X-2594Y4460D1*
Y4795D1*
X-3025Y5284D2*
X-3073Y5236D1*
X-3096Y5165D1*
Y5069D1*
X-3073Y4997D1*
X-3025Y4949D1*
X-2977D1*
X-2929Y4973D1*
X-2905Y4997D1*
X-2881Y5045D1*
X-2833Y5188D1*
X-2810Y5236D1*
X-2785Y5260D1*
X-2738Y5284D1*
X-2666D1*
X-2618Y5236D1*
X-2594Y5165D1*
Y5069D1*
X-2618Y4997D1*
X-2666Y4949D1*
X-3025Y5725D2*
X-3072Y5701D1*
X-3096Y5630D1*
Y5582D1*
X-3072Y5510D1*
X-3000Y5462D1*
X-2881Y5438D1*
X-2761D1*
X-2666Y5462D1*
X-2618Y5510D1*
X-2594Y5582D1*
Y5606D1*
X-2618Y5677D1*
X-2666Y5725D1*
X-2738Y5749D1*
X-2761D1*
X-2833Y5725D1*
X-2881Y5677D1*
X-2905Y5606D1*
Y5582D1*
X-2881Y5510D1*
X-2833Y5462D1*
X-2761Y5438D1*
X-3096Y6071D2*
X-2594D1*
X-3096Y5903D2*
Y6238D1*
X-2833Y6393D2*
Y6608D1*
X-2857Y6680D1*
X-2881Y6704D1*
X-2929Y6728D1*
X-3001D1*
X-3048Y6704D1*
X-3073Y6680D1*
X-3096Y6608D1*
Y6393D1*
X-2594D1*
X-2977Y7241D2*
X-3025Y7217D1*
X-3073Y7169D1*
X-3096Y7121D1*
Y7026D1*
X-3073Y6978D1*
X-3025Y6930D1*
X-2977Y6906D1*
X-2905Y6882D1*
X-2785D1*
X-2714Y6906D1*
X-2666Y6930D1*
X-2618Y6978D1*
X-2594Y7026D1*
Y7121D1*
X-2618Y7169D1*
X-2666Y7217D1*
X-2714Y7241D1*
X-2785D1*
Y7121D1*
X-2845Y7395D2*
Y7671D1*
X-3000Y7826D2*
X-3025Y7874D1*
X-3096Y7946D1*
X-2594D1*
Y8339D2*
X-3096D1*
X-2761Y8100D1*
Y8459D1*
X23546Y2362D2*
X23354Y2864D1*
X23163Y2362D1*
X23235Y2529D2*
X23474D1*
X24036Y2792D2*
X23988Y2840D1*
X23916Y2864D1*
X23821D1*
X23749Y2840D1*
X23701Y2792D1*
Y2745D1*
X23725Y2697D1*
X23749Y2673D1*
X23796Y2649D1*
X23940Y2601D1*
X23988Y2577D1*
X24012Y2553D1*
X24036Y2505D1*
Y2434D1*
X23988Y2386D1*
X23916Y2362D1*
X23821D1*
X23749Y2386D1*
X23701Y2434D1*
X24477Y2792D2*
X24453Y2840D1*
X24381Y2864D1*
X24334D1*
X24262Y2840D1*
X24214Y2768D1*
X24190Y2649D1*
Y2529D1*
X24214Y2434D1*
X24262Y2385D1*
X24334Y2362D1*
X24357D1*
X24429Y2385D1*
X24477Y2434D1*
X24501Y2505D1*
Y2529D1*
X24477Y2601D1*
X24429Y2649D1*
X24357Y2672D1*
X24334D1*
X24262Y2649D1*
X24214Y2601D1*
X24190Y2529D1*
X25014Y2745D2*
X24990Y2792D1*
X24942Y2840D1*
X24894Y2864D1*
X24799D1*
X24751Y2840D1*
X24703Y2792D1*
X24679Y2745D1*
X24655Y2673D1*
Y2553D1*
X24679Y2482D1*
X24703Y2434D1*
X24751Y2386D1*
X24799Y2362D1*
X24894D1*
X24942Y2386D1*
X24990Y2434D1*
X25014Y2482D1*
X25455Y2792D2*
X25431Y2840D1*
X25359Y2864D1*
X25312D1*
X25240Y2840D1*
X25192Y2768D1*
X25168Y2649D1*
Y2529D1*
X25192Y2434D1*
X25240Y2385D1*
X25312Y2362D1*
X25335D1*
X25407Y2385D1*
X25455Y2434D1*
X25479Y2505D1*
Y2529D1*
X25455Y2601D1*
X25407Y2649D1*
X25335Y2672D1*
X25312D1*
X25240Y2649D1*
X25192Y2601D1*
X25168Y2529D1*
X25657Y2744D2*
Y2768D1*
X25681Y2816D1*
X25705Y2840D1*
X25753Y2864D1*
X25849D1*
X25896Y2840D1*
X25920Y2816D1*
X25944Y2768D1*
Y2720D1*
X25920Y2672D1*
X25872Y2601D1*
X25633Y2362D1*
X25968D1*
X26147Y2744D2*
Y2768D1*
X26170Y2816D1*
X26194Y2840D1*
X26242Y2864D1*
X26338D1*
X26385Y2840D1*
X26409Y2816D1*
X26434Y2768D1*
Y2720D1*
X26409Y2672D1*
X26362Y2601D1*
X26122Y2362D1*
X26457D1*
X26899Y2864D2*
X26660D1*
X26636Y2649D1*
X26660Y2672D1*
X26732Y2697D1*
X26803D1*
X26875Y2672D1*
X26923Y2625D1*
X26947Y2553D1*
Y2505D1*
X26923Y2434D1*
X26875Y2385D1*
X26803Y2362D1*
X26732D1*
X26660Y2385D1*
X26636Y2410D1*
X26612Y2457D1*
X27388Y2792D2*
X27364Y2840D1*
X27292Y2864D1*
X27245D1*
X27173Y2840D1*
X27125Y2768D1*
X27101Y2649D1*
Y2529D1*
X27125Y2434D1*
X27173Y2385D1*
X27245Y2362D1*
X27268D1*
X27340Y2385D1*
X27388Y2434D1*
X27412Y2505D1*
Y2529D1*
X27388Y2601D1*
X27340Y2649D1*
X27268Y2672D1*
X27245D1*
X27173Y2649D1*
X27125Y2601D1*
X27101Y2529D1*
X27949Y2362D2*
X27757Y2864D1*
X27566Y2362D1*
X27638Y2529D2*
X27877D1*
X-18594Y7769D2*
X-19096D1*
X-18594Y7578D1*
X-19096Y7387D1*
X-18594D1*
Y8307D2*
X-19096Y8115D1*
X-18594Y7924D1*
X-18761Y7995D2*
Y8235D1*
X-19096Y8461D2*
X-18594Y8796D1*
X-19096D2*
X-18594Y8461D1*
X-18976Y8975D2*
X-19000D1*
X-19048Y8998D1*
X-19072Y9022D1*
X-19096Y9070D1*
Y9166D1*
X-19072Y9213D1*
X-19048Y9237D1*
X-19000Y9262D1*
X-18953D1*
X-18905Y9237D1*
X-18833Y9190D1*
X-18594Y8950D1*
Y9285D1*
X-19096Y9583D2*
X-19072Y9512D1*
X-19000Y9463D1*
X-18881Y9440D1*
X-18809D1*
X-18690Y9463D1*
X-18618Y9512D1*
X-18594Y9583D1*
Y9631D1*
X-18618Y9703D1*
X-18690Y9750D1*
X-18809Y9775D1*
X-18881D1*
X-19000Y9750D1*
X-19072Y9703D1*
X-19096Y9631D1*
Y9583D1*
X-19000Y9750D2*
X-18690Y9463D1*
X-18976Y9953D2*
X-19000D1*
X-19048Y9977D1*
X-19072Y10001D1*
X-19096Y10049D1*
Y10145D1*
X-19072Y10192D1*
X-19048Y10216D1*
X-19000Y10240D1*
X-18953D1*
X-18905Y10216D1*
X-18833Y10168D1*
X-18594Y9929D1*
Y10264D1*
X-18977Y10777D2*
X-19025Y10753D1*
X-19073Y10705D1*
X-19096Y10658D1*
Y10562D1*
X-19073Y10514D1*
X-19025Y10466D1*
X-18977Y10442D1*
X-18905Y10418D1*
X-18785D1*
X-18714Y10442D1*
X-18666Y10466D1*
X-18618Y10514D1*
X-18594Y10562D1*
Y10658D1*
X-18618Y10705D1*
X-18666Y10753D1*
X-18714Y10777D1*
X-18833Y10931D2*
Y11147D1*
X-18857Y11218D1*
X-18881Y11243D1*
X-18929Y11266D1*
X-19001D1*
X-19048Y11243D1*
X-19073Y11218D1*
X-19096Y11147D1*
Y10931D1*
X-18594D1*
X-19096Y11731D2*
Y11421D1*
X-18594D1*
Y11731D1*
X-18857Y11421D2*
Y11612D1*
X-384Y-16584D2*
Y-17086D1*
X-49Y-16584D2*
Y-17086D1*
X-384Y-16823D2*
X-49D1*
X106Y-16584D2*
Y-17086D1*
X273D1*
X345Y-17062D1*
X393Y-17014D1*
X417Y-16966D1*
X440Y-16895D1*
Y-16775D1*
X417Y-16703D1*
X393Y-16656D1*
X345Y-16607D1*
X273Y-16584D1*
X106D1*
X595Y-16823D2*
X810D1*
X882Y-16799D1*
X906Y-16775D1*
X930Y-16727D1*
Y-16679D1*
X906Y-16632D1*
X882Y-16607D1*
X810Y-16584D1*
X595D1*
Y-17086D1*
X762Y-16823D2*
X930Y-17086D1*
X1084Y-16835D2*
X1361D1*
X1539Y-16704D2*
Y-16680D1*
X1563Y-16632D1*
X1587Y-16608D1*
X1635Y-16584D1*
X1730D1*
X1778Y-16608D1*
X1802Y-16632D1*
X1826Y-16680D1*
Y-16727D1*
X1802Y-16775D1*
X1754Y-16847D1*
X1515Y-17086D1*
X1850D1*
X2004Y-16751D2*
X2267Y-17086D1*
Y-16751D2*
X2004Y-17086D1*
X2446Y-16704D2*
Y-16680D1*
X2470Y-16632D1*
X2494Y-16608D1*
X2542Y-16584D1*
X2637D1*
X2685Y-16608D1*
X2709Y-16632D1*
X2733Y-16680D1*
Y-16727D1*
X2709Y-16775D1*
X2661Y-16847D1*
X2422Y-17086D1*
X2757D1*
X3198Y-16584D2*
X2959D1*
X2935Y-16799D1*
X2959Y-16775D1*
X3031Y-16751D1*
X3102D1*
X3174Y-16775D1*
X3222Y-16823D1*
X3246Y-16895D1*
Y-16942D1*
X3222Y-17014D1*
X3174Y-17062D1*
X3102Y-17086D1*
X3031D1*
X2959Y-17062D1*
X2935Y-17038D1*
X2911Y-16990D1*
X-26434Y-13317D2*
X-26673D1*
X-26697Y-13532D1*
X-26673Y-13508D1*
X-26601Y-13483D1*
X-26530D1*
X-26458Y-13508D1*
X-26410Y-13555D1*
X-26386Y-13627D1*
Y-13675D1*
X-26410Y-13747D1*
X-26458Y-13795D1*
X-26530Y-13818D1*
X-26601D1*
X-26673Y-13795D1*
X-26697Y-13770D1*
X-26721Y-13723D1*
X-26232Y-13316D2*
X-26041Y-13818D1*
X-25850Y-13316D1*
X-21295Y-4064D2*
X-21080D1*
X-21009Y-4040D1*
X-20984Y-4016D1*
X-20960Y-3969D1*
Y-3920D1*
X-20984Y-3873D1*
X-21009Y-3849D1*
X-21080Y-3825D1*
X-21295D1*
Y-4327D1*
X-21128Y-4064D2*
X-20960Y-4327D1*
X-20447Y-3944D2*
X-20471Y-3897D1*
X-20519Y-3849D1*
X-20567Y-3825D1*
X-20662D1*
X-20710Y-3849D1*
X-20758Y-3897D1*
X-20782Y-3944D1*
X-20806Y-4016D1*
Y-4136D1*
X-20782Y-4207D1*
X-20758Y-4255D1*
X-20710Y-4303D1*
X-20662Y-4327D1*
X-20567D1*
X-20519Y-4303D1*
X-20471Y-4255D1*
X-20447Y-4207D1*
X-20293Y-3825D2*
Y-4327D1*
X-19958Y-3825D2*
Y-4327D1*
X-20293Y-4064D2*
X-19958D1*
X-19684Y-3825D2*
X-19756Y-3849D1*
X-19780Y-3897D1*
Y-3945D1*
X-19756Y-3992D1*
X-19708Y-4017D1*
X-19612Y-4040D1*
X-19541Y-4064D1*
X-19493Y-4112D1*
X-19469Y-4160D1*
Y-4232D1*
X-19493Y-4279D1*
X-19517Y-4303D1*
X-19589Y-4327D1*
X-19684D1*
X-19756Y-4303D1*
X-19780Y-4279D1*
X-19804Y-4232D1*
Y-4160D1*
X-19780Y-4112D1*
X-19732Y-4064D1*
X-19660Y-4040D1*
X-19565Y-4017D1*
X-19517Y-3992D1*
X-19493Y-3945D1*
Y-3897D1*
X-19517Y-3849D1*
X-19589Y-3825D1*
X-19684D1*
X-19219Y-4327D2*
X-18980Y-3825D1*
X-19315D1*
X-18539D2*
X-18777D1*
X-18801Y-4040D1*
X-18777Y-4017D1*
X-18706Y-3992D1*
X-18634D1*
X-18562Y-4017D1*
X-18514Y-4064D1*
X-18491Y-4136D1*
Y-4184D1*
X-18514Y-4255D1*
X-18562Y-4303D1*
X-18634Y-4327D1*
X-18706D1*
X-18777Y-4303D1*
X-18801Y-4279D1*
X-18826Y-4232D1*
X-18001Y-3825D2*
Y-4327D1*
X-18336Y-3825D1*
Y-4327D1*
X-17847Y-4088D2*
X-17631D1*
X-17560Y-4064D1*
X-17536Y-4040D1*
X-17512Y-3992D1*
Y-3920D1*
X-17536Y-3873D1*
X-17560Y-3849D1*
X-17631Y-3825D1*
X-17847D1*
Y-4327D1*
X-17358Y-4076D2*
X-17081D1*
X-16903Y-3945D2*
Y-3921D1*
X-16879Y-3873D1*
X-16855Y-3849D1*
X-16807Y-3825D1*
X-16711D1*
X-16664Y-3849D1*
X-16640Y-3873D1*
X-16616Y-3921D1*
Y-3969D1*
X-16640Y-4017D1*
X-16688Y-4088D1*
X-16927Y-4327D1*
X-16592D1*
X-16413Y-3945D2*
Y-3921D1*
X-16389Y-3873D1*
X-16366Y-3849D1*
X-16318Y-3825D1*
X-16222D1*
X-16174Y-3849D1*
X-16151Y-3873D1*
X-16126Y-3921D1*
Y-3969D1*
X-16151Y-4017D1*
X-16198Y-4088D1*
X-16437Y-4327D1*
X-16103D1*
X-15804Y-3825D2*
X-15876Y-3849D1*
X-15924Y-3921D1*
X-15948Y-4040D1*
Y-4112D1*
X-15924Y-4232D1*
X-15876Y-4303D1*
X-15804Y-4327D1*
X-15757D1*
X-15685Y-4303D1*
X-15638Y-4232D1*
X-15613Y-4112D1*
Y-4040D1*
X-15638Y-3921D1*
X-15685Y-3849D1*
X-15757Y-3825D1*
X-15804D1*
X-15638Y-3921D2*
X-15924Y-4232D1*
X-15459Y-3825D2*
Y-4327D1*
X-15124Y-3825D2*
X-15459Y-4160D1*
X-15339Y-4040D2*
X-15124Y-4327D1*
X-15993Y1791D2*
X-15730D1*
X-15874Y1600D1*
X-15802D1*
X-15754Y1576D1*
X-15730Y1552D1*
X-15706Y1480D1*
Y1433D1*
X-15730Y1361D1*
X-15778Y1313D1*
X-15850Y1289D1*
X-15922D1*
X-15993Y1313D1*
X-16017Y1337D1*
X-16041Y1385D1*
X-15528Y1337D2*
X-15552Y1313D1*
X-15528Y1289D1*
X-15504Y1313D1*
X-15528Y1337D1*
X-15301Y1791D2*
X-15039D1*
X-15182Y1600D1*
X-15110D1*
X-15062Y1576D1*
X-15039Y1552D1*
X-15014Y1480D1*
Y1433D1*
X-15039Y1361D1*
X-15086Y1313D1*
X-15158Y1289D1*
X-15230D1*
X-15301Y1313D1*
X-15325Y1337D1*
X-15349Y1385D1*
X-14860Y1791D2*
Y1289D1*
X-14621Y1624D2*
X-14860Y1385D1*
X-14764Y1480D2*
X-14597Y1289D1*
X-22799Y-11334D2*
X-23301D1*
X-22966Y-11574D1*
Y-11215D1*
X-23301Y-11013D2*
Y-10750D1*
X-23109Y-10893D1*
Y-10821D1*
X-23086Y-10774D1*
X-23062Y-10750D1*
X-22990Y-10726D1*
X-22942D1*
X-22871Y-10750D1*
X-22822Y-10798D1*
X-22799Y-10869D1*
Y-10941D1*
X-22822Y-11013D1*
X-22847Y-11036D1*
X-22894Y-11061D1*
X-23301Y-10571D2*
X-22799D1*
X-23134Y-10332D2*
X-22894Y-10571D1*
X-22990Y-10476D2*
X-22799Y-10308D1*
X6882Y-3209D2*
X7145D1*
X7001Y-3400D1*
X7073D1*
X7121Y-3424D1*
X7145Y-3448D1*
X7169Y-3520D1*
Y-3567D1*
X7145Y-3639D1*
X7097Y-3687D1*
X7025Y-3711D1*
X6953D1*
X6882Y-3687D1*
X6858Y-3663D1*
X6834Y-3615D1*
X7347Y-3663D2*
X7323Y-3687D1*
X7347Y-3711D1*
X7371Y-3687D1*
X7347Y-3663D1*
X7574Y-3209D2*
X7836D1*
X7693Y-3400D1*
X7765D1*
X7813Y-3424D1*
X7836Y-3448D1*
X7861Y-3520D1*
Y-3567D1*
X7836Y-3639D1*
X7789Y-3687D1*
X7717Y-3711D1*
X7645D1*
X7574Y-3687D1*
X7550Y-3663D1*
X7526Y-3615D1*
X8015Y-3209D2*
Y-3711D1*
X8254Y-3376D2*
X8015Y-3615D1*
X8111Y-3520D2*
X8278Y-3711D1*
X4324Y-1990D2*
Y-1727D1*
X4516Y-1871D1*
Y-1799D1*
X4539Y-1751D1*
X4563Y-1727D1*
X4635Y-1703D1*
X4683D1*
X4754Y-1727D1*
X4803Y-1775D1*
X4826Y-1847D1*
Y-1919D1*
X4803Y-1990D1*
X4778Y-2014D1*
X4731Y-2038D1*
X4778Y-1525D2*
X4803Y-1549D1*
X4826Y-1525D1*
X4803Y-1501D1*
X4778Y-1525D1*
X4324Y-1298D2*
Y-1036D1*
X4516Y-1179D1*
Y-1107D1*
X4539Y-1059D1*
X4563Y-1036D1*
X4635Y-1011D1*
X4683D1*
X4754Y-1036D1*
X4803Y-1083D1*
X4826Y-1155D1*
Y-1227D1*
X4803Y-1298D1*
X4778Y-1322D1*
X4731Y-1346D1*
X4324Y-857D2*
X4826D1*
X4491Y-618D2*
X4731Y-857D1*
X4635Y-761D2*
X4826Y-594D1*
X-20827Y-13305D2*
X-20779Y-13281D1*
X-20707Y-13209D1*
Y-13711D1*
X-20409Y-13209D2*
X-20481Y-13233D1*
X-20529Y-13305D1*
X-20553Y-13424D1*
Y-13496D1*
X-20529Y-13615D1*
X-20481Y-13687D1*
X-20409Y-13711D1*
X-20361D1*
X-20290Y-13687D1*
X-20242Y-13615D1*
X-20218Y-13496D1*
Y-13424D1*
X-20242Y-13305D1*
X-20290Y-13233D1*
X-20361Y-13209D1*
X-20409D1*
X-20242Y-13305D2*
X-20529Y-13615D1*
X-19920Y-13209D2*
X-19991Y-13233D1*
X-20040Y-13305D1*
X-20063Y-13424D1*
Y-13496D1*
X-20040Y-13615D1*
X-19991Y-13687D1*
X-19920Y-13711D1*
X-19872D1*
X-19800Y-13687D1*
X-19753Y-13615D1*
X-19728Y-13496D1*
Y-13424D1*
X-19753Y-13305D1*
X-19800Y-13233D1*
X-19872Y-13209D1*
X-19920D1*
X-19753Y-13305D2*
X-20040Y-13615D1*
X-19574Y-13209D2*
Y-13711D1*
X-19335Y-13376D2*
X-19574Y-13615D1*
X-19478Y-13520D2*
X-19311Y-13711D1*
X-19595Y-16217D2*
X-19380D1*
X-19308Y-16192D1*
X-19284Y-16169D1*
X-19260Y-16121D1*
Y-16073D1*
X-19284Y-16025D1*
X-19308Y-16001D1*
X-19380Y-15977D1*
X-19595D1*
Y-16480D1*
X-19428Y-16217D2*
X-19260Y-16480D1*
X-18795Y-15977D2*
X-19106D1*
Y-16480D1*
X-18795D1*
X-19106Y-16217D2*
X-18915D1*
X-18306Y-16049D2*
X-18353Y-16001D1*
X-18425Y-15977D1*
X-18521D1*
X-18593Y-16001D1*
X-18641Y-16049D1*
Y-16097D1*
X-18617Y-16145D1*
X-18593Y-16169D1*
X-18545Y-16192D1*
X-18402Y-16240D1*
X-18353Y-16264D1*
X-18330Y-16289D1*
X-18306Y-16336D1*
Y-16408D1*
X-18353Y-16455D1*
X-18425Y-16480D1*
X-18521D1*
X-18593Y-16455D1*
X-18641Y-16408D1*
X-17841Y-15977D2*
X-18152D1*
Y-16480D1*
X-17841D1*
X-18152Y-16217D2*
X-17960D1*
X-17519Y-15977D2*
Y-16480D1*
X-17687Y-15977D2*
X-17352D1*
X-31168Y-7866D2*
X-31216Y-7914D1*
X-31240Y-7986D1*
Y-8081D1*
X-31216Y-8153D1*
X-31168Y-8201D1*
X-31121D1*
X-31073Y-8177D1*
X-31049Y-8153D1*
X-31025Y-8106D1*
X-30977Y-7962D1*
X-30953Y-7914D1*
X-30929Y-7890D1*
X-30881Y-7866D1*
X-30810D1*
X-30762Y-7914D1*
X-30738Y-7986D1*
Y-8081D1*
X-30762Y-8153D1*
X-30810Y-8201D1*
X-31240Y-7712D2*
X-30738D1*
Y-7425D1*
X-31240Y-7271D2*
X-30738D1*
Y-7055D1*
X-30762Y-6983D1*
X-30786Y-6960D1*
X-30833Y-6936D1*
X-30905D1*
X-30953Y-6960D1*
X-30977Y-6983D1*
X-31001Y-7055D1*
X-31025Y-6983D1*
X-31049Y-6960D1*
X-31096Y-6936D1*
X-31144D1*
X-31192Y-6960D1*
X-31216Y-6983D1*
X-31240Y-7055D1*
Y-7271D1*
X-31001D2*
Y-7055D1*
X-31144Y-6782D2*
X-31168Y-6733D1*
X-31240Y-6662D1*
X-30738D1*
X-31120Y-6483D2*
X-31144D1*
X-31192Y-6459D1*
X-31216Y-6435D1*
X-31240Y-6387D1*
Y-6292D1*
X-31216Y-6244D1*
X-31192Y-6220D1*
X-31144Y-6196D1*
X-31096D1*
X-31048Y-6220D1*
X-30977Y-6268D1*
X-30738Y-6507D1*
Y-6172D1*
X-31240Y-5898D2*
X-31216Y-5970D1*
X-31168Y-5994D1*
X-31120D1*
X-31073Y-5970D1*
X-31048Y-5922D1*
X-31025Y-5827D1*
X-31001Y-5755D1*
X-30953Y-5707D1*
X-30905Y-5683D1*
X-30833D1*
X-30786Y-5707D1*
X-30761Y-5731D1*
X-30738Y-5803D1*
Y-5898D1*
X-30761Y-5970D1*
X-30786Y-5994D1*
X-30833Y-6018D1*
X-30905D1*
X-30953Y-5994D1*
X-31001Y-5946D1*
X-31025Y-5875D1*
X-31048Y-5779D1*
X-31073Y-5731D1*
X-31120Y-5707D1*
X-31168D1*
X-31216Y-5731D1*
X-31240Y-5803D1*
Y-5898D1*
X-31144Y-5529D2*
X-31168Y-5481D1*
X-31240Y-5409D1*
X-30738D1*
X-31001Y-5255D2*
Y-5040D1*
X-31025Y-4968D1*
X-31049Y-4944D1*
X-31096Y-4920D1*
X-31144D1*
X-31192Y-4944D1*
X-31216Y-4968D1*
X-31240Y-5040D1*
Y-5255D1*
X-30738D1*
X-31001Y-5087D2*
X-30738Y-4920D1*
X-31240Y-4479D2*
Y-4717D1*
X-31025Y-4741D1*
X-31048Y-4717D1*
X-31073Y-4645D1*
Y-4574D1*
X-31048Y-4502D1*
X-31001Y-4454D1*
X-30929Y-4430D1*
X-30881D1*
X-30810Y-4454D1*
X-30761Y-4502D1*
X-30738Y-4574D1*
Y-4645D1*
X-30761Y-4717D1*
X-30786Y-4741D1*
X-30833Y-4765D1*
X-24592Y-16192D2*
Y-16694D1*
X-24424D1*
X-24352Y-16670D1*
X-24304Y-16623D1*
X-24280Y-16574D1*
X-24257Y-16503D1*
Y-16383D1*
X-24280Y-16311D1*
X-24304Y-16264D1*
X-24352Y-16216D1*
X-24424Y-16192D1*
X-24592D1*
X-23767Y-16264D2*
X-23815Y-16216D1*
X-23887Y-16192D1*
X-23982D1*
X-24054Y-16216D1*
X-24102Y-16264D1*
Y-16311D1*
X-24078Y-16359D1*
X-24054Y-16383D1*
X-24007Y-16407D1*
X-23863Y-16455D1*
X-23815Y-16479D1*
X-23791Y-16503D1*
X-23767Y-16551D1*
Y-16623D1*
X-23815Y-16670D1*
X-23887Y-16694D1*
X-23982D1*
X-24054Y-16670D1*
X-24102Y-16623D1*
X-23613Y-16288D2*
X-23565Y-16264D1*
X-23493Y-16193D1*
Y-16694D1*
X-23219Y-16193D2*
X-23291Y-16216D1*
X-23315Y-16264D1*
Y-16312D1*
X-23291Y-16359D1*
X-23243Y-16384D1*
X-23147Y-16408D1*
X-23076Y-16431D1*
X-23028Y-16479D1*
X-23004Y-16527D1*
Y-16599D1*
X-23028Y-16646D1*
X-23052Y-16671D1*
X-23124Y-16694D1*
X-23219D1*
X-23291Y-16671D1*
X-23315Y-16646D1*
X-23339Y-16599D1*
Y-16527D1*
X-23315Y-16479D1*
X-23267Y-16431D1*
X-23195Y-16408D1*
X-23100Y-16384D1*
X-23052Y-16359D1*
X-23028Y-16312D1*
Y-16264D1*
X-23052Y-16216D1*
X-23124Y-16193D1*
X-23219D1*
X-22850Y-16288D2*
X-22802Y-16264D1*
X-22730Y-16193D1*
Y-16694D1*
X-22527Y-16193D2*
X-22265D1*
X-22408Y-16384D1*
X-22336D1*
X-22289Y-16408D1*
X-22265Y-16431D1*
X-22241Y-16503D1*
Y-16551D1*
X-22265Y-16623D1*
X-22312Y-16671D1*
X-22384Y-16694D1*
X-22456D1*
X-22527Y-16671D1*
X-22551Y-16646D1*
X-22576Y-16599D1*
X-22086Y-16443D2*
X-21810D1*
X-21655Y-16288D2*
X-21607Y-16264D1*
X-21536Y-16193D1*
Y-16694D1*
X-21094Y-16193D2*
X-21333D1*
X-21357Y-16408D1*
X-21333Y-16384D1*
X-21261Y-16359D1*
X-21190D1*
X-21118Y-16384D1*
X-21070Y-16431D1*
X-21046Y-16503D1*
Y-16551D1*
X-21070Y-16623D1*
X-21118Y-16671D1*
X-21190Y-16694D1*
X-21261D1*
X-21333Y-16671D1*
X-21357Y-16646D1*
X-21381Y-16599D1*
X14856Y-11360D2*
X14808Y-11312D1*
X14736Y-11288D1*
X14641D1*
X14569Y-11312D1*
X14521Y-11360D1*
Y-11408D1*
X14545Y-11456D1*
X14569Y-11480D1*
X14616Y-11503D1*
X14760Y-11552D1*
X14808Y-11575D1*
X14832Y-11600D1*
X14856Y-11647D1*
Y-11719D1*
X14808Y-11767D1*
X14736Y-11791D1*
X14641D1*
X14569Y-11767D1*
X14521Y-11719D1*
X15345Y-11288D2*
Y-11791D1*
X15010Y-11288D1*
Y-11791D1*
X15595D2*
X15834Y-11289D1*
X15499D1*
X16228Y-11791D2*
Y-11289D1*
X15989Y-11623D1*
X16347D1*
X16502Y-11288D2*
Y-11791D1*
X16837Y-11288D2*
Y-11791D1*
X16502Y-11528D2*
X16837D1*
X17350Y-11408D2*
X17326Y-11360D1*
X17278Y-11312D1*
X17230Y-11288D1*
X17135D1*
X17087Y-11312D1*
X17039Y-11360D1*
X17015Y-11408D1*
X16991Y-11480D1*
Y-11600D1*
X17015Y-11671D1*
X17039Y-11719D1*
X17087Y-11767D1*
X17135Y-11791D1*
X17230D1*
X17278Y-11767D1*
X17326Y-11719D1*
X17350Y-11671D1*
X17504Y-11385D2*
X17552Y-11360D1*
X17624Y-11289D1*
Y-11791D1*
X17827Y-11289D2*
X18089D1*
X17946Y-11480D1*
X18018D1*
X18065Y-11504D1*
X18089Y-11528D1*
X18113Y-11600D1*
Y-11647D1*
X18089Y-11719D1*
X18042Y-11767D1*
X17970Y-11791D1*
X17898D1*
X17827Y-11767D1*
X17803Y-11743D1*
X17778Y-11695D1*
X18387Y-11289D2*
X18316Y-11313D1*
X18292Y-11360D1*
Y-11408D1*
X18316Y-11456D1*
X18363Y-11480D1*
X18459Y-11504D1*
X18531Y-11528D1*
X18578Y-11576D1*
X18602Y-11623D1*
Y-11695D1*
X18578Y-11743D1*
X18555Y-11767D1*
X18483Y-11791D1*
X18387D1*
X18316Y-11767D1*
X18292Y-11743D1*
X18268Y-11695D1*
Y-11623D1*
X18292Y-11576D1*
X18340Y-11528D1*
X18411Y-11504D1*
X18507Y-11480D1*
X18555Y-11456D1*
X18578Y-11408D1*
Y-11360D1*
X18555Y-11313D1*
X18483Y-11289D1*
X18387D1*
X19092Y-11288D2*
Y-11791D1*
X18757Y-11288D1*
Y-11791D1*
X15725Y-3630D2*
X15677Y-3677D1*
X15654Y-3749D1*
Y-3845D1*
X15677Y-3916D1*
X15725Y-3964D1*
X15773D1*
X15821Y-3940D1*
X15845Y-3916D1*
X15869Y-3869D1*
X15917Y-3725D1*
X15940Y-3677D1*
X15965Y-3653D1*
X16012Y-3630D1*
X16084D1*
X16132Y-3677D1*
X16156Y-3749D1*
Y-3845D1*
X16132Y-3916D1*
X16084Y-3964D1*
X15654Y-3140D2*
X16156D1*
X15654Y-3475D1*
X16156D1*
Y-2890D2*
X15654Y-2651D1*
Y-2986D1*
X16156Y-2257D2*
X15654D1*
X15989Y-2497D1*
Y-2138D1*
X15654Y-1983D2*
X16156D1*
X15654Y-1648D2*
X16156D1*
X15893Y-1983D2*
Y-1648D1*
X15773Y-1135D2*
X15725Y-1159D1*
X15677Y-1207D1*
X15654Y-1255D1*
Y-1350D1*
X15677Y-1398D1*
X15725Y-1446D1*
X15773Y-1470D1*
X15845Y-1494D1*
X15965D1*
X16036Y-1470D1*
X16084Y-1446D1*
X16132Y-1398D1*
X16156Y-1350D1*
Y-1255D1*
X16132Y-1207D1*
X16084Y-1159D1*
X16036Y-1135D1*
X15654Y-933D2*
Y-670D1*
X15845Y-814D1*
Y-742D1*
X15869Y-694D1*
X15893Y-670D1*
X15965Y-646D1*
X16012D1*
X16084Y-670D1*
X16132Y-718D1*
X16156Y-790D1*
Y-862D1*
X16132Y-933D1*
X16108Y-957D1*
X16060Y-981D1*
X15654Y-348D2*
X15678Y-420D1*
X15750Y-468D1*
X15869Y-492D1*
X15941D1*
X16060Y-468D1*
X16132Y-420D1*
X16156Y-348D1*
Y-300D1*
X16132Y-229D1*
X16060Y-181D1*
X15941Y-157D1*
X15869D1*
X15750Y-181D1*
X15678Y-229D1*
X15654Y-300D1*
Y-348D1*
X15750Y-181D2*
X16060Y-468D1*
X15654Y333D2*
X16156D1*
X15654Y-2D1*
X16156D1*
X-20344Y-12255D2*
X-20846D1*
X-20344Y-12446D1*
X-20846Y-12637D1*
X-20344D1*
Y-11717D2*
X-20846Y-11909D1*
X-20344Y-12100D1*
X-20511Y-12029D2*
Y-11789D1*
X-20846Y-11563D2*
X-20344Y-11228D1*
X-20846D2*
X-20344Y-11563D1*
Y-10978D2*
X-20846Y-10739D1*
Y-11074D1*
Y-10298D2*
Y-10536D1*
X-20631Y-10560D1*
X-20655Y-10536D1*
X-20679Y-10464D1*
Y-10393D1*
X-20655Y-10321D1*
X-20607Y-10273D1*
X-20535Y-10249D1*
X-20488D1*
X-20416Y-10273D1*
X-20368Y-10321D1*
X-20344Y-10393D1*
Y-10464D1*
X-20368Y-10536D1*
X-20392Y-10560D1*
X-20440Y-10584D1*
X-20775Y-9808D2*
X-20822Y-9832D1*
X-20846Y-9904D1*
Y-9951D1*
X-20822Y-10023D1*
X-20750Y-10071D1*
X-20631Y-10095D1*
X-20511D1*
X-20416Y-10071D1*
X-20368Y-10023D1*
X-20344Y-9951D1*
Y-9928D1*
X-20368Y-9856D1*
X-20416Y-9808D1*
X-20488Y-9784D1*
X-20511D1*
X-20583Y-9808D1*
X-20631Y-9856D1*
X-20655Y-9928D1*
Y-9951D1*
X-20631Y-10023D1*
X-20583Y-10071D1*
X-20511Y-10095D1*
X-20727Y-9271D2*
X-20775Y-9295D1*
X-20823Y-9343D1*
X-20846Y-9391D1*
Y-9486D1*
X-20823Y-9534D1*
X-20775Y-9582D1*
X-20727Y-9606D1*
X-20655Y-9630D1*
X-20535D1*
X-20464Y-9606D1*
X-20416Y-9582D1*
X-20368Y-9534D1*
X-20344Y-9486D1*
Y-9391D1*
X-20368Y-9343D1*
X-20416Y-9295D1*
X-20464Y-9271D1*
X-20583Y-9117D2*
Y-8901D1*
X-20607Y-8830D1*
X-20631Y-8806D1*
X-20679Y-8782D1*
X-20751D1*
X-20798Y-8806D1*
X-20823Y-8830D1*
X-20846Y-8901D1*
Y-9117D1*
X-20344D1*
Y-8245D2*
X-20846Y-8436D1*
X-20344Y-8628D1*
X-20511Y-8556D2*
Y-8316D1*
X10225Y-3630D2*
X10177Y-3677D1*
X10154Y-3749D1*
Y-3845D1*
X10177Y-3916D1*
X10225Y-3964D1*
X10273D1*
X10321Y-3940D1*
X10345Y-3916D1*
X10369Y-3869D1*
X10417Y-3725D1*
X10440Y-3677D1*
X10465Y-3653D1*
X10512Y-3630D1*
X10584D1*
X10632Y-3677D1*
X10656Y-3749D1*
Y-3845D1*
X10632Y-3916D1*
X10584Y-3964D1*
X10154Y-3140D2*
X10656D1*
X10154Y-3475D1*
X10656D1*
Y-2890D2*
X10154Y-2651D1*
Y-2986D1*
X10656Y-2257D2*
X10154D1*
X10489Y-2497D1*
Y-2138D1*
X10154Y-1983D2*
X10656D1*
X10154Y-1648D2*
X10656D1*
X10393Y-1983D2*
Y-1648D1*
X10273Y-1135D2*
X10225Y-1159D1*
X10177Y-1207D1*
X10154Y-1255D1*
Y-1350D1*
X10177Y-1398D1*
X10225Y-1446D1*
X10273Y-1470D1*
X10345Y-1494D1*
X10465D1*
X10536Y-1470D1*
X10584Y-1446D1*
X10632Y-1398D1*
X10656Y-1350D1*
Y-1255D1*
X10632Y-1207D1*
X10584Y-1159D1*
X10536Y-1135D1*
X10154Y-837D2*
X10178Y-909D1*
X10250Y-957D1*
X10369Y-981D1*
X10441D1*
X10560Y-957D1*
X10632Y-909D1*
X10656Y-837D1*
Y-790D1*
X10632Y-718D1*
X10560Y-670D1*
X10441Y-646D1*
X10369D1*
X10250Y-670D1*
X10178Y-718D1*
X10154Y-790D1*
Y-837D1*
X10250Y-670D2*
X10560Y-957D1*
X10154Y-348D2*
X10178Y-420D1*
X10250Y-468D1*
X10369Y-492D1*
X10441D1*
X10560Y-468D1*
X10632Y-420D1*
X10656Y-348D1*
Y-300D1*
X10632Y-229D1*
X10560Y-181D1*
X10441Y-157D1*
X10369D1*
X10250Y-181D1*
X10178Y-229D1*
X10154Y-300D1*
Y-348D1*
X10250Y-181D2*
X10560Y-468D1*
X10154Y333D2*
X10656D1*
X10154Y-2D1*
X10656D1*
X-26228Y13945D2*
X-26180Y13969D1*
X-26108Y14041D1*
Y13539D1*
X-25930Y13587D2*
X-25954Y13563D1*
X-25930Y13539D1*
X-25906Y13563D1*
X-25930Y13587D1*
X-25632Y14041D2*
X-25704Y14017D1*
X-25728Y13969D1*
Y13921D1*
X-25704Y13874D1*
X-25656Y13850D1*
X-25560Y13826D1*
X-25489Y13802D1*
X-25441Y13754D1*
X-25417Y13706D1*
Y13635D1*
X-25441Y13587D1*
X-25465Y13563D1*
X-25537Y13539D1*
X-25632D1*
X-25704Y13563D1*
X-25728Y13587D1*
X-25752Y13635D1*
Y13706D1*
X-25728Y13754D1*
X-25680Y13802D1*
X-25608Y13826D1*
X-25513Y13850D1*
X-25465Y13874D1*
X-25441Y13921D1*
Y13969D1*
X-25465Y14017D1*
X-25537Y14041D1*
X-25632D1*
X-25023Y13539D2*
Y14041D1*
X-25263Y13706D1*
X-24904D1*
X-24702Y14041D2*
X-24439D1*
X-24582Y13850D1*
X-24510D1*
X-24463Y13826D1*
X-24439Y13802D1*
X-24415Y13730D1*
Y13683D1*
X-24439Y13611D1*
X-24487Y13563D1*
X-24558Y13539D1*
X-24630D1*
X-24702Y13563D1*
X-24725Y13587D1*
X-24750Y13635D1*
X-24236Y13921D2*
Y13945D1*
X-24212Y13993D1*
X-24189Y14017D1*
X-24140Y14041D1*
X-24045D1*
X-23997Y14017D1*
X-23974Y13993D1*
X-23949Y13945D1*
Y13898D1*
X-23974Y13850D1*
X-24021Y13778D1*
X-24260Y13539D1*
X-23925D1*
X-23771Y13874D2*
Y13539D1*
Y13778D2*
X-23699Y13850D1*
X-23651Y13874D1*
X-23580D1*
X-23532Y13850D1*
X-23508Y13778D1*
Y13539D1*
Y13778D2*
X-23436Y13850D1*
X-23388Y13874D1*
X-23317D1*
X-23269Y13850D1*
X-23244Y13778D1*
Y13539D1*
X-23090Y14041D2*
Y13539D1*
Y13778D2*
X-23018Y13850D1*
X-22970Y13874D1*
X-22898D1*
X-22851Y13850D1*
X-22827Y13778D1*
Y13539D1*
X-22672Y13874D2*
X-22409D1*
X-22672Y13539D1*
X-22409D1*
X-24472Y3320D2*
X-24424Y3344D1*
X-24352Y3416D1*
Y2914D1*
X-24174Y2962D2*
X-24198Y2938D1*
X-24174Y2914D1*
X-24150Y2938D1*
X-24174Y2962D1*
X-23852Y3416D2*
X-23923Y3392D1*
X-23972Y3320D1*
X-23995Y3201D1*
Y3129D1*
X-23972Y3010D1*
X-23923Y2938D1*
X-23852Y2914D1*
X-23804D1*
X-23732Y2938D1*
X-23685Y3010D1*
X-23660Y3129D1*
Y3201D1*
X-23685Y3320D1*
X-23732Y3392D1*
X-23804Y3416D1*
X-23852D1*
X-23685Y3320D2*
X-23972Y3010D1*
X-23362Y3416D2*
X-23434Y3392D1*
X-23482Y3320D1*
X-23506Y3201D1*
Y3129D1*
X-23482Y3010D1*
X-23434Y2938D1*
X-23362Y2914D1*
X-23315D1*
X-23243Y2938D1*
X-23195Y3010D1*
X-23171Y3129D1*
Y3201D1*
X-23195Y3320D1*
X-23243Y3392D1*
X-23315Y3416D1*
X-23362D1*
X-23195Y3320D2*
X-23482Y3010D1*
X-22873Y3416D2*
X-22945Y3392D1*
X-22993Y3320D1*
X-23017Y3201D1*
Y3129D1*
X-22993Y3010D1*
X-22945Y2938D1*
X-22873Y2914D1*
X-22825D1*
X-22754Y2938D1*
X-22706Y3010D1*
X-22682Y3129D1*
Y3201D1*
X-22706Y3320D1*
X-22754Y3392D1*
X-22825Y3416D1*
X-22873D1*
X-22706Y3320D2*
X-22993Y3010D1*
X-22527Y3249D2*
Y2914D1*
Y3153D2*
X-22455Y3225D1*
X-22407Y3249D1*
X-22336D1*
X-22288Y3225D1*
X-22264Y3153D1*
Y2914D1*
Y3153D2*
X-22192Y3225D1*
X-22144Y3249D1*
X-22073D1*
X-22025Y3225D1*
X-22001Y3153D1*
Y2914D1*
X-21846Y3416D2*
Y2914D1*
Y3153D2*
X-21774Y3225D1*
X-21726Y3249D1*
X-21654D1*
X-21607Y3225D1*
X-21583Y3153D1*
Y2914D1*
X-21429Y3249D2*
X-21166D1*
X-21429Y2914D1*
X-21166D1*
X-7169Y-20292D2*
D60*
Y-19689D1*
X-7398Y-20292D1*
X-7628Y-19689D1*
Y-20292D1*
X-6639Y-19890D2*
Y-20292D1*
Y-19977D2*
X-6696Y-19919D1*
X-6754Y-19890D1*
X-6839D1*
X-6897Y-19919D1*
X-6954Y-19977D1*
X-6983Y-20063D1*
Y-20120D1*
X-6954Y-20206D1*
X-6897Y-20263D1*
X-6839Y-20292D1*
X-6754D1*
X-6696Y-20263D1*
X-6639Y-20206D1*
X-6454Y-19689D2*
X-6425Y-19718D1*
X-6396Y-19689D1*
X-6425Y-19660D1*
X-6454Y-19689D1*
X-6425Y-19890D2*
Y-20292D1*
X-6211Y-19890D2*
Y-20292D1*
Y-20005D2*
X-6125Y-19919D1*
X-6067Y-19890D1*
X-5981D1*
X-5924Y-19919D1*
X-5895Y-20005D1*
Y-20292D1*
X-5127Y-19689D2*
Y-20292D1*
X-4868D1*
X-4782Y-20263D1*
X-4753Y-20235D1*
X-4725Y-20178D1*
Y-20091D1*
X-4753Y-20034D1*
X-4782Y-20005D1*
X-4868Y-19977D1*
X-4782Y-19947D1*
X-4753Y-19919D1*
X-4725Y-19862D1*
Y-19804D1*
X-4753Y-19747D1*
X-4782Y-19718D1*
X-4868Y-19689D1*
X-5127D1*
Y-19977D2*
X-4868D1*
X-4396Y-19890D2*
X-4453Y-19919D1*
X-4511Y-19977D1*
X-4540Y-20063D1*
Y-20120D1*
X-4511Y-20206D1*
X-4453Y-20263D1*
X-4396Y-20292D1*
X-4310D1*
X-4252Y-20263D1*
X-4195Y-20206D1*
X-4166Y-20120D1*
Y-20063D1*
X-4195Y-19977D1*
X-4252Y-19919D1*
X-4310Y-19890D1*
X-4396D1*
X-3637D2*
Y-20292D1*
Y-19977D2*
X-3694Y-19919D1*
X-3751Y-19890D1*
X-3837D1*
X-3895Y-19919D1*
X-3952Y-19977D1*
X-3981Y-20063D1*
Y-20120D1*
X-3952Y-20206D1*
X-3895Y-20263D1*
X-3837Y-20292D1*
X-3751D1*
X-3694Y-20263D1*
X-3637Y-20206D1*
X-3451Y-19890D2*
Y-20292D1*
Y-20063D2*
X-3422Y-19977D1*
X-3365Y-19919D1*
X-3307Y-19890D1*
X-3221D1*
X-2692Y-19689D2*
Y-20292D1*
Y-19977D2*
X-2749Y-19919D1*
X-2806Y-19890D1*
X-2893D1*
X-2950Y-19919D1*
X-3007Y-19977D1*
X-3036Y-20063D1*
Y-20120D1*
X-3007Y-20206D1*
X-2950Y-20263D1*
X-2893Y-20292D1*
X-2806D1*
X-2749Y-20263D1*
X-2692Y-20206D1*
X-1923Y-19890D2*
X-1751Y-20292D1*
X-1579Y-19890D1*
X-1394Y-19805D2*
X-1336Y-19776D1*
X-1250Y-19690D1*
Y-20292D1*
X-1036Y-20235D2*
X-1065Y-20264D1*
X-1036Y-20292D1*
X-1007Y-20264D1*
X-1036Y-20235D1*
X-792Y-19833D2*
Y-19805D1*
X-764Y-19747D1*
X-735Y-19719D1*
X-678Y-19690D1*
X-563D1*
X-506Y-19719D1*
X-477Y-19747D1*
X-448Y-19805D1*
Y-19862D1*
X-477Y-19920D1*
X-534Y-20005D1*
X-822Y-20292D1*
X-420D1*
X550Y-19532D2*
X492Y-19589D1*
X435Y-19676D1*
X377Y-19790D1*
X349Y-19934D1*
Y-20049D1*
X377Y-20192D1*
X435Y-20307D1*
X492Y-20393D1*
X550Y-20450D1*
X1080Y-19977D2*
X1022Y-19919D1*
X965Y-19890D1*
X879D1*
X821Y-19919D1*
X764Y-19977D1*
X735Y-20063D1*
Y-20120D1*
X764Y-20206D1*
X821Y-20263D1*
X879Y-20292D1*
X965D1*
X1022Y-20263D1*
X1080Y-20206D1*
X1265Y-19532D2*
X1323Y-19589D1*
X1380Y-19676D1*
X1438Y-19790D1*
X1466Y-19934D1*
Y-20049D1*
X1438Y-20192D1*
X1380Y-20307D1*
X1323Y-20393D1*
X1265Y-20450D1*
X2264Y-19833D2*
Y-19805D1*
X2292Y-19747D1*
X2321Y-19719D1*
X2379Y-19690D1*
X2493D1*
X2550Y-19719D1*
X2579Y-19747D1*
X2608Y-19805D1*
Y-19862D1*
X2579Y-19920D1*
X2522Y-20005D1*
X2235Y-20292D1*
X2637D1*
X2994Y-19690D2*
X2908Y-19719D1*
X2850Y-19805D1*
X2822Y-19948D1*
Y-20034D1*
X2850Y-20178D1*
X2908Y-20264D1*
X2994Y-20292D1*
X3051D1*
X3138Y-20264D1*
X3195Y-20178D1*
X3224Y-20034D1*
Y-19948D1*
X3195Y-19805D1*
X3138Y-19719D1*
X3051Y-19690D1*
X2994D1*
X3195Y-19805D2*
X2850Y-20178D1*
X3409Y-19805D2*
X3467Y-19776D1*
X3553Y-19690D1*
Y-20292D1*
X4082Y-19776D2*
X4054Y-19719D1*
X3968Y-19690D1*
X3911D1*
X3824Y-19719D1*
X3767Y-19805D1*
X3738Y-19948D1*
Y-20091D1*
X3767Y-20206D1*
X3824Y-20264D1*
X3911Y-20292D1*
X3939D1*
X4025Y-20264D1*
X4082Y-20206D1*
X4111Y-20120D1*
Y-20091D1*
X4082Y-20005D1*
X4025Y-19948D1*
X3939Y-19920D1*
X3911D1*
X3824Y-19948D1*
X3767Y-20005D1*
X3738Y-20091D1*
X4879Y-20005D2*
X5138D1*
X5224Y-19977D1*
X5253Y-19947D1*
X5281Y-19890D1*
Y-19804D1*
X5253Y-19747D1*
X5224Y-19718D1*
X5138Y-19689D1*
X4879D1*
Y-20292D1*
X5467Y-20063D2*
X5811D1*
Y-20005D1*
X5782Y-19947D1*
X5754Y-19919D1*
X5696Y-19890D1*
X5610D1*
X5553Y-19919D1*
X5495Y-19977D1*
X5467Y-20063D1*
Y-20120D1*
X5495Y-20206D1*
X5553Y-20263D1*
X5610Y-20292D1*
X5696D1*
X5754Y-20263D1*
X5811Y-20206D1*
X6082Y-19689D2*
Y-20178D1*
X6111Y-20263D1*
X6169Y-20292D1*
X6226D1*
X5996Y-19890D2*
X6197D1*
X6411Y-20063D2*
X6755D1*
Y-20005D1*
X6727Y-19947D1*
X6698Y-19919D1*
X6640Y-19890D1*
X6554D1*
X6497Y-19919D1*
X6439Y-19977D1*
X6411Y-20063D1*
Y-20120D1*
X6439Y-20206D1*
X6497Y-20263D1*
X6554Y-20292D1*
X6640D1*
X6698Y-20263D1*
X6755Y-20206D1*
X6940Y-19890D2*
Y-20292D1*
Y-20063D2*
X6970Y-19977D1*
X7027Y-19919D1*
X7084Y-19890D1*
X7171D1*
X8341Y-19689D2*
Y-20292D1*
X7939Y-19689D1*
Y-20292D1*
X8669Y-19890D2*
X8612Y-19919D1*
X8555Y-19977D1*
X8526Y-20063D1*
Y-20120D1*
X8555Y-20206D1*
X8612Y-20263D1*
X8669Y-20292D1*
X8756D1*
X8813Y-20263D1*
X8870Y-20206D1*
X8900Y-20120D1*
Y-20063D1*
X8870Y-19977D1*
X8813Y-19919D1*
X8756Y-19890D1*
X8669D1*
X9114D2*
X9286Y-20292D1*
X9229Y-20407D1*
X9171Y-20465D1*
X9114Y-20493D1*
X9085D1*
X9458Y-19890D2*
X9286Y-20292D1*
X9644Y-20063D2*
X9988D1*
Y-20005D1*
X9959Y-19947D1*
X9931Y-19919D1*
X9873Y-19890D1*
X9787D1*
X9730Y-19919D1*
X9672Y-19977D1*
X9644Y-20063D1*
Y-20120D1*
X9672Y-20206D1*
X9730Y-20263D1*
X9787Y-20292D1*
X9873D1*
X9931Y-20263D1*
X9988Y-20206D1*
X10489Y-19977D2*
X10460Y-19919D1*
X10374Y-19890D1*
X10288D1*
X10202Y-19919D1*
X10173Y-19977D1*
X10202Y-20034D1*
X10259Y-20063D1*
X10402Y-20091D1*
X10460Y-20120D1*
X10489Y-20178D1*
Y-20206D1*
X10460Y-20263D1*
X10374Y-20292D1*
X10288D1*
X10202Y-20263D1*
X10173Y-20206D1*
X15207Y6543D2*
D61*
Y4634D1*
X15844D1*
X16117Y4726D1*
X16299Y4907D1*
X16390Y5090D1*
X16480Y5361D1*
Y5816D1*
X16390Y6089D1*
X16299Y6270D1*
X16117Y6453D1*
X15844Y6543D1*
X15207D1*
X17520Y5907D2*
X17340Y5816D1*
X17157Y5634D1*
X17067Y5361D1*
Y5180D1*
X17157Y4907D1*
X17340Y4726D1*
X17520Y4634D1*
X17793D1*
X17976Y4726D1*
X18157Y4907D1*
X18249Y5180D1*
Y5361D1*
X18157Y5634D1*
X17976Y5816D1*
X17793Y5907D1*
X17520D1*
X19926Y6543D2*
Y4634D1*
Y5634D2*
X19745Y5816D1*
X19563Y5907D1*
X19290D1*
X19109Y5816D1*
X18926Y5634D1*
X18836Y5361D1*
Y5180D1*
X18926Y4907D1*
X19109Y4726D1*
X19290Y4634D1*
X19563D1*
X19745Y4726D1*
X19926Y4907D1*
X20966Y5907D2*
X20786Y5816D1*
X20603Y5634D1*
X20513Y5361D1*
Y5180D1*
X20603Y4907D1*
X20786Y4726D1*
X20966Y4634D1*
X21239D1*
X21422Y4726D1*
X21603Y4907D1*
X21695Y5180D1*
Y5361D1*
X21603Y5634D1*
X21422Y5816D1*
X21239Y5907D1*
X20966D1*
X15949Y-17887D2*
D62*
Y-18892D1*
Y-18366D2*
X15854Y-18269D1*
X15757Y-18222D1*
X15614D1*
X15519Y-18269D1*
X15423Y-18366D1*
X15375Y-18509D1*
Y-18604D1*
X15423Y-18748D1*
X15519Y-18843D1*
X15614Y-18892D1*
X15757D1*
X15854Y-18843D1*
X15949Y-18748D1*
X16496Y-18222D2*
X16401Y-18269D1*
X16305Y-18366D1*
X16257Y-18509D1*
Y-18604D1*
X16305Y-18748D1*
X16401Y-18843D1*
X16496Y-18892D1*
X16640D1*
X16736Y-18843D1*
X16831Y-18748D1*
X16880Y-18604D1*
Y-18509D1*
X16831Y-18366D1*
X16736Y-18269D1*
X16640Y-18222D1*
X16496D1*
X17762Y-17887D2*
Y-18892D1*
Y-18366D2*
X17667Y-18269D1*
X17571Y-18222D1*
X17427D1*
X17332Y-18269D1*
X17236Y-18366D1*
X17189Y-18509D1*
Y-18604D1*
X17236Y-18748D1*
X17332Y-18843D1*
X17427Y-18892D1*
X17571D1*
X17667Y-18843D1*
X17762Y-18748D1*
X18310Y-18222D2*
X18215Y-18269D1*
X18119Y-18366D1*
X18071Y-18509D1*
Y-18604D1*
X18119Y-18748D1*
X18215Y-18843D1*
X18310Y-18892D1*
X18454D1*
X18550Y-18843D1*
X18645Y-18748D1*
X18693Y-18604D1*
Y-18509D1*
X18645Y-18366D1*
X18550Y-18269D1*
X18454Y-18222D1*
X18310D1*
X19002Y-17887D2*
Y-18892D1*
X19885Y-18222D2*
Y-18892D1*
Y-18366D2*
X19790Y-18269D1*
X19693Y-18222D1*
X19551D1*
X19455Y-18269D1*
X19360Y-18366D1*
X19311Y-18509D1*
Y-18604D1*
X19360Y-18748D1*
X19455Y-18843D1*
X19551Y-18892D1*
X19693D1*
X19790Y-18843D1*
X19885Y-18748D1*
X20193Y-17887D2*
Y-18892D1*
Y-18366D2*
X20290Y-18269D1*
X20385Y-18222D1*
X20528D1*
X20623Y-18269D1*
X20720Y-18366D1*
X20767Y-18509D1*
Y-18604D1*
X20720Y-18748D1*
X20623Y-18843D1*
X20528Y-18892D1*
X20385D1*
X20290Y-18843D1*
X20193Y-18748D1*
X21602Y-18366D2*
X21555Y-18269D1*
X21411Y-18222D1*
X21267D1*
X21123Y-18269D1*
X21076Y-18366D1*
X21123Y-18461D1*
X21220Y-18509D1*
X21458Y-18557D1*
X21555Y-18604D1*
X21602Y-18701D1*
Y-18748D1*
X21555Y-18843D1*
X21411Y-18892D1*
X21267D1*
X21123Y-18843D1*
X21076Y-18748D1*
X21958Y-18796D2*
X21911Y-18844D1*
X21958Y-18892D1*
X22007Y-18844D1*
X21958Y-18796D1*
X22316Y-17887D2*
X22363Y-17935D1*
X22412Y-17887D1*
X22363Y-17838D1*
X22316Y-17887D1*
X22363Y-18222D2*
Y-18892D1*
X22960Y-18222D2*
X22865Y-18269D1*
X22768Y-18366D1*
X22721Y-18509D1*
Y-18604D1*
X22768Y-18748D1*
X22865Y-18843D1*
X22960Y-18892D1*
X23103D1*
X23199Y-18843D1*
X23295Y-18748D1*
X23343Y-18604D1*
Y-18509D1*
X23295Y-18366D1*
X23199Y-18269D1*
X23103Y-18222D1*
X22960D1*
X15503Y3989D2*
D63*
X15470Y4056D1*
X15370Y4089D1*
X15303D1*
X15202Y4056D1*
X15135Y3955D1*
X15102Y3788D1*
Y3621D1*
X15135Y3487D1*
X15202Y3420D1*
X15303Y3386D1*
X15336D1*
X15436Y3420D1*
X15503Y3487D1*
X15537Y3588D1*
Y3621D1*
X15503Y3721D1*
X15436Y3788D1*
X15336Y3821D1*
X15303D1*
X15202Y3788D1*
X15135Y3721D1*
X15102Y3621D1*
X16154Y4089D2*
X15820D1*
X15787Y3788D1*
X15820Y3821D1*
X15921Y3855D1*
X16021D1*
X16121Y3821D1*
X16188Y3755D1*
X16222Y3654D1*
Y3588D1*
X16188Y3487D1*
X16121Y3420D1*
X16021Y3386D1*
X15921D1*
X15820Y3420D1*
X15787Y3454D1*
X15753Y3520D1*
X16639Y4089D2*
X16539Y4056D1*
X16471Y3955D1*
X16438Y3788D1*
Y3687D1*
X16471Y3520D1*
X16539Y3420D1*
X16639Y3386D1*
X16706D1*
X16806Y3420D1*
X16873Y3520D1*
X16907Y3687D1*
Y3788D1*
X16873Y3955D1*
X16806Y4056D1*
X16706Y4089D1*
X16639D1*
X16873Y3955D2*
X16471Y3520D1*
X17157Y3922D2*
Y3955D1*
X17190Y4022D1*
X17224Y4056D1*
X17291Y4089D1*
X17425D1*
X17491Y4056D1*
X17525Y4022D1*
X17559Y3955D1*
Y3889D1*
X17525Y3821D1*
X17458Y3721D1*
X17123Y3386D1*
X17592D1*
X18991Y3923D2*
X18957Y3989D1*
X18890Y4056D1*
X18823Y4090D1*
X18690D1*
X18622Y4056D1*
X18556Y3989D1*
X18522Y3923D1*
X18488Y3822D1*
Y3654D1*
X18522Y3554D1*
X18556Y3487D1*
X18622Y3420D1*
X18690Y3386D1*
X18823D1*
X18890Y3420D1*
X18957Y3487D1*
X18991Y3554D1*
Y3654D1*
X18823D1*
X19608Y3855D2*
Y3386D1*
Y3755D2*
X19542Y3822D1*
X19474Y3855D1*
X19375D1*
X19307Y3822D1*
X19241Y3755D1*
X19207Y3654D1*
Y3588D1*
X19241Y3487D1*
X19307Y3420D1*
X19375Y3386D1*
X19474D1*
X19542Y3420D1*
X19608Y3487D1*
X19825Y3855D2*
Y3386D1*
Y3721D2*
X19925Y3822D1*
X19992Y3855D1*
X20092D1*
X20160Y3822D1*
X20193Y3721D1*
Y3386D1*
Y3721D2*
X20293Y3822D1*
X20361Y3855D1*
X20461D1*
X20528Y3822D1*
X20562Y3721D1*
Y3386D1*
X20778Y3654D2*
X21180D1*
Y3721D1*
X21146Y3789D1*
X21113Y3822D1*
X21046Y3855D1*
X20945D1*
X20879Y3822D1*
X20811Y3755D1*
X20778Y3654D1*
Y3588D1*
X20811Y3487D1*
X20879Y3420D1*
X20945Y3386D1*
X21046D1*
X21113Y3420D1*
X21180Y3487D1*
X22545Y3989D2*
X22479Y4056D1*
X22378Y4090D1*
X22244D1*
X22144Y4056D1*
X22076Y3989D1*
Y3923D1*
X22110Y3855D1*
X22144Y3822D1*
X22210Y3789D1*
X22411Y3721D1*
X22479Y3688D1*
X22512Y3654D1*
X22545Y3588D1*
Y3487D1*
X22479Y3420D1*
X22378Y3386D1*
X22244D1*
X22144Y3420D1*
X22076Y3487D1*
X22795Y3855D2*
X22996Y3386D1*
X22929Y3253D1*
X22862Y3185D1*
X22795Y3152D1*
X22761D1*
X23197Y3855D2*
X22996Y3386D1*
X23781Y3755D2*
X23748Y3822D1*
X23648Y3855D1*
X23547D1*
X23446Y3822D1*
X23413Y3755D1*
X23446Y3688D1*
X23514Y3654D1*
X23681Y3621D1*
X23748Y3588D1*
X23781Y3520D1*
Y3487D1*
X23748Y3420D1*
X23648Y3386D1*
X23547D1*
X23446Y3420D1*
X23413Y3487D1*
X24098Y4090D2*
Y3520D1*
X24131Y3420D1*
X24199Y3386D1*
X24265D1*
X23998Y3855D2*
X24232D1*
X24481Y3654D2*
X24883D1*
Y3721D1*
X24850Y3789D1*
X24816Y3822D1*
X24749Y3855D1*
X24649D1*
X24582Y3822D1*
X24515Y3755D1*
X24481Y3654D1*
Y3588D1*
X24515Y3487D1*
X24582Y3420D1*
X24649Y3386D1*
X24749D1*
X24816Y3420D1*
X24883Y3487D1*
X25099Y3855D2*
Y3386D1*
Y3721D2*
X25200Y3822D1*
X25267Y3855D1*
X25367D1*
X25434Y3822D1*
X25467Y3721D1*
Y3386D1*
Y3721D2*
X25568Y3822D1*
X25635Y3855D1*
X25735D1*
X25802Y3822D1*
X25837Y3721D1*
Y3386D1*
M02*
