G04 DipTrace 2.4.0.2*
%INBottomMask.gbr*%
%MOIN*%
%ADD16R,0.0709X0.0709*%
%ADD17C,0.0709*%
%ADD33C,0.0787*%
%ADD37C,0.125*%
%ADD47C,0.0828*%
%ADD49R,0.0828X0.0828*%
%ADD51C,0.0867*%
%ADD53O,0.1852X0.0867*%
%ADD55O,0.0867X0.1852*%
%ADD57O,0.0867X0.2049*%
%ADD59C,0.075*%
%ADD61O,0.0474X0.0867*%
%ADD63R,0.068X0.068*%
%ADD65R,0.058X0.058*%
%ADD67C,0.058*%
%ADD68C,0.0671*%
%ADD70R,0.0671X0.0671*%
%ADD72C,0.068*%
%ADD74C,0.068*%
%ADD77C,0.071*%
%ADD78R,0.0789X0.0789*%
%FSLAX44Y44*%
G04*
G70*
G90*
G75*
G01*
%LNBotMask*%
%LPD*%
D78*
X9000Y4750D3*
D33*
X11000D3*
Y7750D3*
X9000D3*
D78*
X5250Y8500D3*
D33*
X7250D3*
Y11500D3*
X5250D3*
D77*
X3625Y13000D3*
D16*
X1625D3*
D74*
X7750Y6750D3*
D72*
X3750D3*
D70*
X21750Y5750D3*
D68*
X22750D3*
X23750D3*
X24750D3*
X25750D3*
X26750D3*
X27750D3*
Y8750D3*
X26750D3*
X25750D3*
X24750D3*
X23750D3*
X22750D3*
X21750D3*
D77*
X3750Y5500D3*
D16*
X1750D3*
D74*
X11750Y2500D3*
D72*
X7750D3*
D74*
X3750Y1625D3*
D72*
X7750D3*
D70*
X3750Y3500D3*
D68*
X7726D3*
D74*
X1625Y11750D3*
D72*
Y7750D3*
D70*
X3750Y11750D3*
D68*
Y7774D3*
D78*
X12750Y8500D3*
D33*
X14750D3*
Y11500D3*
X12750D3*
D77*
X12625Y6250D3*
D16*
X14625D3*
D74*
X16750Y13875D3*
D72*
Y9875D3*
D74*
X15875Y6250D3*
D72*
X19875D3*
D70*
X15875Y8250D3*
D68*
X19851D3*
D78*
X41500Y8500D3*
D33*
X43500D3*
Y11500D3*
X41500D3*
D77*
X40000Y6875D3*
D16*
X38000D3*
D74*
X43750Y3250D3*
D72*
Y7250D3*
D74*
X38000Y3000D3*
D72*
X42000D3*
D70*
X38000Y4875D3*
D68*
X41976D3*
D78*
X9000Y12250D3*
D33*
X11000D3*
Y15250D3*
X9000D3*
D77*
X7125Y13625D3*
D16*
Y15625D3*
D74*
X18750Y11875D3*
D72*
Y15875D3*
D74*
X12750Y16875D3*
D72*
Y12875D3*
D70*
X14625Y16875D3*
D68*
Y12899D3*
D78*
X49000Y8500D3*
D33*
X51000D3*
Y11500D3*
X49000D3*
D77*
X47500Y6875D3*
D16*
X45500D3*
D74*
X51125Y3125D3*
D72*
Y7125D3*
D74*
X45500Y3000D3*
D72*
X49500D3*
D70*
X45500Y4875D3*
D68*
X49476D3*
D67*
X58000Y34500D3*
D65*
X57000D3*
D74*
X58000Y36500D3*
D72*
X54000D3*
D70*
X20500Y37000D3*
D68*
X21500D3*
X22500D3*
X23500D3*
X24500D3*
X25500D3*
X26500D3*
X27500D3*
X28500D3*
X29500D3*
X30500D3*
X31500D3*
X32500D3*
X33500D3*
X34500D3*
X35500D3*
X36500D3*
X37500D3*
X38500D3*
X39500D3*
D37*
X16870Y37276D3*
X43130D3*
X16870Y19244D3*
X43130D3*
D63*
X57500Y14100D3*
D74*
Y13100D3*
Y12100D3*
Y11100D3*
Y10100D3*
Y9100D3*
Y8100D3*
Y7100D3*
Y6100D3*
Y5100D3*
X56500D3*
Y6100D3*
Y7100D3*
Y8100D3*
Y9100D3*
Y10100D3*
Y11100D3*
Y12100D3*
Y13100D3*
Y14100D3*
D63*
X15000Y3500D3*
D74*
X16000D3*
X17000D3*
X18000D3*
X19000D3*
X20000D3*
X21000D3*
Y2500D3*
X20000D3*
X19000D3*
X18000D3*
X17000D3*
X16000D3*
X15000D3*
D63*
X28500Y3500D3*
D74*
X29500D3*
X30500D3*
X31500D3*
X32500D3*
X33500D3*
X34500D3*
Y2500D3*
X33500D3*
X32500D3*
X31500D3*
X30500D3*
X29500D3*
X28500D3*
G36*
X4987Y25062D2*
X4865Y25184D1*
X4635D1*
X4513Y25062D1*
Y24438D1*
X4635Y24316D1*
X4865D1*
X4987Y24438D1*
Y25062D1*
G37*
D61*
X4250Y24750D3*
X3750D3*
D74*
X1625Y22250D3*
D72*
Y26250D3*
D59*
X52500Y37240D3*
X51500D3*
X50500D3*
X49500D3*
X48500D3*
X47500D3*
X52500Y35740D3*
X51500D3*
X50500D3*
X49500D3*
X48500D3*
X47500D3*
D57*
X54499Y30669D3*
D55*
X56861D3*
D53*
X55680Y28740D3*
D16*
X3000Y35216D3*
D17*
Y36004D3*
D68*
X58625Y23750D3*
Y22490D3*
Y21230D3*
X5000Y19625D3*
Y18050D3*
Y16475D3*
D51*
X1063Y20019D3*
Y16082D3*
D49*
X6504Y30000D3*
D47*
X9496D3*
D37*
X1500Y38500D3*
Y1500D3*
X58500Y38500D3*
Y1500D3*
M02*
