G04 DipTrace 2.4.0.2*
%INBottom.gbr*%
%MOIN*%
%ADD13C,0.013*%
%ADD16R,0.0709X0.0709*%
%ADD17C,0.0709*%
%ADD18C,0.063*%
%ADD19R,0.063X0.063*%
%ADD20C,0.06*%
%ADD21C,0.06*%
%ADD22R,0.0591X0.0591*%
%ADD23C,0.0591*%
%ADD24C,0.05*%
%ADD25R,0.05X0.05*%
%ADD26R,0.06X0.06*%
%ADD27O,0.0394X0.0787*%
%ADD28C,0.067*%
%ADD29O,0.0787X0.1969*%
%ADD30O,0.0787X0.1772*%
%ADD31O,0.1772X0.0787*%
%ADD32C,0.063*%
%ADD33C,0.0787*%
%ADD35R,0.0748X0.0748*%
%ADD36C,0.0748*%
%FSLAX44Y44*%
G04*
G70*
G90*
G75*
G01*
%LNBottom*%
%LPD*%
X38000Y6875D2*
D13*
Y8875D1*
X37375Y9500D1*
X25000D1*
X24750Y9250D1*
Y8750D1*
X45500Y6875D2*
Y13000D1*
X44750Y13750D1*
X23750D1*
X22750Y12750D1*
Y8750D1*
X33500Y2500D2*
Y1625D1*
X32500Y625D1*
X3375D1*
X2875Y1125D1*
Y2250D1*
X750Y4375D1*
Y14000D1*
X3250Y16500D1*
X4975D1*
X5000Y16475D1*
X57500Y9100D2*
Y9125D1*
X57000Y9625D1*
X55875D1*
X53625Y11875D1*
Y20000D1*
X37000Y36625D1*
Y37250D1*
X36750Y37500D1*
X35000D1*
X34500Y37000D1*
X27500D2*
Y37625D1*
X29125Y39250D1*
X39500D1*
X41000Y37750D1*
Y35250D1*
X55375Y20875D1*
Y13625D1*
X55900Y13100D1*
X56500D1*
X28500Y37000D2*
Y37625D1*
X29875Y39000D1*
X39375D1*
X40750Y37625D1*
Y35125D1*
X55125Y20750D1*
Y13375D1*
X55875Y12625D1*
X56975D1*
X57500Y12100D1*
X29500Y37000D2*
Y37625D1*
X30625Y38750D1*
X39250D1*
X40500Y37500D1*
Y35000D1*
X54875Y20625D1*
Y13125D1*
X55875Y12125D1*
X56475D1*
X56500Y12100D1*
X57500Y11100D2*
Y11000D1*
X56875Y11625D1*
X55875D1*
X54625Y12875D1*
Y20500D1*
X40250Y34875D1*
Y37375D1*
X39125Y38500D1*
X31375D1*
X30500Y37625D1*
Y37000D1*
X56500Y11100D2*
X55900D1*
X54375Y12625D1*
Y20375D1*
X40000Y34750D1*
Y37250D1*
X39000Y38250D1*
X32125D1*
X31500Y37625D1*
Y37000D1*
X57500Y10100D2*
X57400D1*
X56875Y10625D1*
X55875D1*
X54125Y12375D1*
Y20250D1*
X39000Y35375D1*
Y37250D1*
X38250Y38000D1*
X32875D1*
X32500Y37625D1*
Y37000D1*
X56500Y10100D2*
X55900D1*
X53875Y12125D1*
Y20125D1*
X38000Y36000D1*
Y37250D1*
X37500Y37750D1*
X33625D1*
X33500Y37625D1*
Y37000D1*
X23500D2*
Y36375D1*
X24500Y35375D1*
X37125D1*
X52875Y19625D1*
Y11125D1*
X55875Y8125D1*
X56475D1*
X56500Y8100D1*
X26500Y37000D2*
Y37625D1*
X28375Y39500D1*
X39625D1*
X41250Y37875D1*
Y35375D1*
X55625Y21000D1*
Y13875D1*
X55875Y13625D1*
X56875D1*
X57400Y13100D1*
X57500D1*
X25500Y37000D2*
Y36375D1*
X26250Y35625D1*
X37250D1*
X53125Y19750D1*
Y11375D1*
X55875Y8625D1*
X56975D1*
X57500Y8100D1*
X56500Y9100D2*
X55900D1*
X53375Y11625D1*
Y19875D1*
X37375Y35875D1*
X26500D1*
X26000Y36375D1*
Y37375D1*
X25750Y37625D1*
X24750D1*
X24500Y37375D1*
Y37000D1*
X3750Y1625D2*
X4250Y1125D1*
X23375D1*
X23750Y1500D1*
Y5750D1*
X12625Y6250D2*
X12500D1*
X12750Y6500D1*
Y8500D1*
X12375D1*
X11875Y9000D1*
Y13250D1*
X11500Y13625D1*
X9375D1*
X9000Y13250D1*
Y12250D1*
X3625Y13000D2*
X4250D1*
X4500Y13250D1*
Y10375D1*
X5250Y9625D1*
Y8500D1*
X21000Y3500D2*
Y2500D1*
X34500D2*
Y3500D1*
X21000Y2500D2*
Y2375D1*
X20500Y1875D1*
X14750D1*
X13168Y3457D1*
Y3375D1*
X9690D1*
X8500D1*
X6500Y5375D1*
X3750D1*
Y5500D1*
X9000Y4750D2*
Y5875D1*
X9375Y6250D1*
X12625D1*
X21000Y3500D2*
Y6250D1*
X21375Y6625D1*
X27500D1*
X27750Y6375D1*
Y5750D1*
X34500Y3500D2*
Y3375D1*
X35000Y3875D1*
X38625D1*
X40000Y5250D1*
Y6875D1*
Y7000D1*
X41500Y8500D1*
X47500Y6875D2*
Y7000D1*
X49000Y8500D1*
X47500Y6875D2*
Y4375D1*
X47000Y3875D1*
X45875D1*
X38625D1*
X27500Y6625D2*
X34125D1*
X34500Y6250D1*
Y3500D1*
X48500Y37240D2*
X49365Y36375D1*
X49750D1*
X50000Y36125D1*
Y35375D1*
X50250Y35125D1*
X50885D1*
X51500Y35740D1*
X57000Y34500D2*
Y33500D1*
X57750Y32750D1*
Y20625D1*
X58750Y19625D1*
Y4250D1*
X55875Y1375D1*
X48375D1*
X45875Y3875D1*
X5000Y19625D2*
X6250Y18375D1*
Y14000D1*
X6625Y13625D1*
X7125D1*
X5000Y19625D2*
Y21625D1*
X9500Y26125D1*
Y29996D1*
X9496Y30000D1*
X9000Y4750D2*
Y4065D1*
X9690Y3375D1*
X5250Y8500D2*
Y6625D1*
X6500Y5375D1*
X7125Y13625D2*
X9375D1*
X56500Y5100D2*
X55650D1*
X52625Y8125D1*
Y19500D1*
X37000Y35125D1*
X21750D1*
X20500Y36375D1*
Y37000D1*
X19000Y3500D2*
Y6125D1*
X17500Y7625D1*
X14125D1*
X13875Y7875D1*
Y8875D1*
X14125Y9125D1*
X20500D1*
X22125Y10750D1*
Y13000D1*
X23500Y14375D1*
X51125D1*
X51875Y13625D1*
Y4750D1*
X54000Y2625D1*
X56625D1*
X58375Y4375D1*
Y19375D1*
X53500Y24250D1*
Y36000D1*
X54000Y36500D1*
X25750Y5750D2*
Y1500D1*
X25125Y875D1*
X3500D1*
X3125Y1250D1*
Y2375D1*
X1000Y4500D1*
Y11250D1*
X1500Y11750D1*
X1625D1*
X15875Y8250D2*
X18625D1*
X19500Y7375D1*
X26125D1*
X26750Y8000D1*
Y8750D1*
X47500Y35740D2*
X46885D1*
X46375Y36250D1*
Y37750D1*
X47000Y38375D1*
X51365D1*
X52500Y37240D1*
X50500D2*
X49865Y37875D1*
X47250D1*
X46875Y37500D1*
Y36750D1*
X47000Y36625D1*
X48615D1*
X49500Y35740D1*
X51500Y37240D2*
Y37375D1*
X50750Y38125D1*
X47125D1*
X46625Y37625D1*
Y36625D1*
X47000Y36250D1*
X47990D1*
X48500Y35740D1*
X49500Y37240D2*
X50500Y36240D1*
Y35740D1*
D16*
X9000Y4750D3*
D17*
X11000D3*
Y7750D3*
X9000D3*
D16*
X5250Y8500D3*
D17*
X7250D3*
Y11500D3*
X5250D3*
D18*
X3625Y13000D3*
D19*
X1625D3*
D20*
X7750Y6750D3*
D21*
X3750D3*
D22*
X21750Y5750D3*
D23*
X22750D3*
X23750D3*
X24750D3*
X25750D3*
X26750D3*
X27750D3*
Y8750D3*
X26750D3*
X25750D3*
X24750D3*
X23750D3*
X22750D3*
X21750D3*
D18*
X3750Y5500D3*
D19*
X1750D3*
D20*
X11750Y2500D3*
D21*
X7750D3*
D20*
X3750Y1625D3*
D21*
X7750D3*
D22*
X3750Y3500D3*
D23*
X7726D3*
D20*
X1625Y11750D3*
D21*
Y7750D3*
D22*
X3750Y11750D3*
D23*
Y7774D3*
D16*
X12750Y8500D3*
D17*
X14750D3*
Y11500D3*
X12750D3*
D18*
X12625Y6250D3*
D19*
X14625D3*
D20*
X16750Y13875D3*
D21*
Y9875D3*
D20*
X15875Y6250D3*
D21*
X19875D3*
D22*
X15875Y8250D3*
D23*
X19851D3*
D16*
X41500Y8500D3*
D17*
X43500D3*
Y11500D3*
X41500D3*
D18*
X40000Y6875D3*
D19*
X38000D3*
D20*
X43750Y3250D3*
D21*
Y7250D3*
D20*
X38000Y3000D3*
D21*
X42000D3*
D22*
X38000Y4875D3*
D23*
X41976D3*
D16*
X9000Y12250D3*
D17*
X11000D3*
Y15250D3*
X9000D3*
D18*
X7125Y13625D3*
D19*
Y15625D3*
D20*
X18750Y11875D3*
D21*
Y15875D3*
D20*
X12750Y16875D3*
D21*
Y12875D3*
D22*
X14625Y16875D3*
D23*
Y12899D3*
D16*
X49000Y8500D3*
D17*
X51000D3*
Y11500D3*
X49000D3*
D18*
X47500Y6875D3*
D19*
X45500D3*
D20*
X51125Y3125D3*
D21*
Y7125D3*
D20*
X45500Y3000D3*
D21*
X49500D3*
D22*
X45500Y4875D3*
D23*
X49476D3*
D24*
X58000Y34500D3*
D25*
X57000D3*
D20*
X58000Y36500D3*
D21*
X54000D3*
D22*
X20500Y37000D3*
D23*
X21500D3*
X22500D3*
X23500D3*
X24500D3*
X25500D3*
X26500D3*
X27500D3*
X28500D3*
X29500D3*
X30500D3*
X31500D3*
X32500D3*
X33500D3*
X34500D3*
X35500D3*
X36500D3*
X37500D3*
X38500D3*
X39500D3*
D26*
X57500Y14100D3*
D20*
Y13100D3*
Y12100D3*
Y11100D3*
Y10100D3*
Y9100D3*
Y8100D3*
Y7100D3*
Y6100D3*
Y5100D3*
X56500D3*
Y6100D3*
Y7100D3*
Y8100D3*
Y9100D3*
Y10100D3*
Y11100D3*
Y12100D3*
Y13100D3*
Y14100D3*
D26*
X15000Y3500D3*
D20*
X16000D3*
X17000D3*
X18000D3*
X19000D3*
X20000D3*
X21000D3*
Y2500D3*
X20000D3*
X19000D3*
X18000D3*
X17000D3*
X16000D3*
X15000D3*
D26*
X28500Y3500D3*
D20*
X29500D3*
X30500D3*
X31500D3*
X32500D3*
X33500D3*
X34500D3*
Y2500D3*
X33500D3*
X32500D3*
X31500D3*
X30500D3*
X29500D3*
X28500D3*
G36*
X4947Y25045D2*
X4848Y25144D1*
X4652D1*
X4553Y25045D1*
Y24455D1*
X4652Y24356D1*
X4848D1*
X4947Y24455D1*
Y25045D1*
G37*
D27*
X4250Y24750D3*
X3750D3*
D20*
X1625Y22250D3*
D21*
Y26250D3*
D28*
X52500Y37240D3*
X51500D3*
X50500D3*
X49500D3*
X48500D3*
X47500D3*
X52500Y35740D3*
X51500D3*
X50500D3*
X49500D3*
X48500D3*
X47500D3*
D29*
X54499Y30669D3*
D30*
X56861D3*
D31*
X55680Y28740D3*
D19*
X3000Y35216D3*
D32*
Y36004D3*
D23*
X58625Y23750D3*
Y22490D3*
Y21230D3*
X5000Y19625D3*
Y18050D3*
Y16475D3*
D33*
X1063Y20019D3*
Y16082D3*
D35*
X6504Y30000D3*
D36*
X9496D3*
M02*
