M48
INCH
T01C0.0276
T02C0.028
T03C0.0354
T04C0.038
T05C0.0394
T06C0.042
T07C0.0433
T08C0.0551
T09C0.125
%
T01
X+004750Y+024750
X+004250Y+024750
X+003750Y+024750
T02
X+058000Y+034500
X+057000Y+034500
T03
X+003625Y+013000
X+003750Y+011750
X+001625Y+013000
X+007125Y+013625
X+007125Y+015625
X+014625Y+016875
X+014625Y+012899
X+015875Y+008250
X+014625Y+006250
X+012625Y+006250
X+007726Y+003500
X+003750Y+003500
X+003750Y+005500
X+001750Y+005500
X+003750Y+007774
X+019851Y+008250
X+021750Y+008750
X+022750Y+008750
X+023750Y+008750
X+024750Y+008750
X+025750Y+008750
X+026750Y+008750
X+027750Y+008750
X+027750Y+005750
X+026750Y+005750
X+025750Y+005750
X+024750Y+005750
X+023750Y+005750
X+022750Y+005750
X+021750Y+005750
X+038000Y+004875
X+038000Y+006875
X+040000Y+006875
X+041976Y+004875
X+045500Y+004875
X+045500Y+006875
X+047500Y+006875
X+049476Y+004875
X+058625Y+021230
X+058625Y+022490
X+058625Y+023750
X+039500Y+037000
X+038500Y+037000
X+037500Y+037000
X+036500Y+037000
X+035500Y+037000
X+034500Y+037000
X+033500Y+037000
X+032500Y+037000
X+031500Y+037000
X+030500Y+037000
X+029500Y+037000
X+028500Y+037000
X+027500Y+037000
X+026500Y+037000
X+025500Y+037000
X+024500Y+037000
X+023500Y+037000
X+022500Y+037000
X+021500Y+037000
X+020500Y+037000
T04
X+007750Y+006750
X+003750Y+006750
X+001625Y+007750
X+001625Y+011750
X+003750Y+001625
X+007750Y+001625
X+007750Y+002500
X+011750Y+002500
X+015000Y+002500
X+016000Y+002500
X+016000Y+003500
X+015000Y+003500
X+017000Y+003500
X+018000Y+003500
X+019000Y+003500
X+020000Y+003500
X+021000Y+003500
X+021000Y+002500
X+020000Y+002500
X+019000Y+002500
X+018000Y+002500
X+017000Y+002500
X+015875Y+006250
X+016750Y+009875
X+018750Y+011875
X+016750Y+013875
X+018750Y+015875
X+012750Y+016875
X+012750Y+012875
X+019875Y+006250
X+028500Y+003500
X+029500Y+003500
X+030500Y+003500
X+031500Y+003500
X+032500Y+003500
X+033500Y+003500
X+034500Y+003500
X+034500Y+002500
X+033500Y+002500
X+032500Y+002500
X+031500Y+002500
X+030500Y+002500
X+029500Y+002500
X+028500Y+002500
X+038000Y+003000
X+042000Y+003000
X+043750Y+003250
X+045500Y+003000
X+049500Y+003000
X+051125Y+003125
X+051125Y+007125
X+056500Y+007100
X+056500Y+008100
X+056500Y+009100
X+057500Y+009100
X+057500Y+008100
X+057500Y+007100
X+057500Y+006100
X+057500Y+005100
X+056500Y+005100
X+056500Y+006100
X+056500Y+010100
X+056500Y+011100
X+056500Y+012100
X+056500Y+013100
X+056500Y+014100
X+057500Y+014100
X+057500Y+013100
X+057500Y+012100
X+057500Y+011100
X+057500Y+010100
X+043750Y+007250
X+054000Y+036500
X+058000Y+036500
X+001625Y+026250
X+001625Y+022250
T05
X+009000Y+004750
X+011000Y+004750
X+011000Y+007750
X+012750Y+008500
X+014750Y+008500
X+014750Y+011500
X+012750Y+011500
X+011000Y+012250
X+009000Y+012250
X+007250Y+011500
X+005250Y+011500
X+005250Y+008500
X+007250Y+008500
X+009000Y+007750
X+009000Y+015250
X+011000Y+015250
X+005000Y+016475
X+005000Y+018050
X+005000Y+019625
X+003000Y+035216
X+003000Y+036004
X+041500Y+011500
X+043500Y+011500
X+043500Y+008500
X+041500Y+008500
X+049000Y+008500
X+051000Y+008500
X+051000Y+011500
X+049000Y+011500
X+056172Y+028740G85X+055188Y+028740
X+054499Y+030079G85X+054499Y+031260
X+056861Y+030177G85X+056861Y+031161
T06
X+052500Y+037240
X+051500Y+037240
X+050500Y+037240
X+049500Y+037240
X+048500Y+037240
X+047500Y+037240
X+047500Y+035740
X+048500Y+035740
X+049500Y+035740
X+050500Y+035740
X+051500Y+035740
X+052500Y+035740
T07
X+006504Y+030000
X+009496Y+030000
T08
X+001063Y+020019
X+001063Y+016082
T09
X+016870Y+037276
X+001500Y+038500
X+016870Y+019244
X+001500Y+001500
X+043130Y+019244
X+043130Y+037276
X+058500Y+038500
X+058500Y+001625
T00
M30
