G04 DipTrace 2.4.0.2*
%INTop.gbr*%
%MOIN*%
%ADD13C,0.013*%
%ADD14C,0.02*%
%ADD16R,0.0709X0.0709*%
%ADD17C,0.0709*%
%ADD18C,0.063*%
%ADD19R,0.063X0.063*%
%ADD20C,0.06*%
%ADD21C,0.06*%
%ADD22R,0.0591X0.0591*%
%ADD23C,0.0591*%
%ADD24C,0.05*%
%ADD25R,0.05X0.05*%
%ADD26R,0.06X0.06*%
%ADD27O,0.0394X0.0787*%
%ADD28C,0.067*%
%ADD29O,0.0787X0.1969*%
%ADD30O,0.0787X0.1772*%
%ADD31O,0.1772X0.0787*%
%ADD32C,0.063*%
%ADD33C,0.0787*%
%ADD35R,0.0748X0.0748*%
%ADD36C,0.0748*%
%FSLAX44Y44*%
G04*
G70*
G90*
G75*
G01*
%LNTop*%
%LPD*%
X15000Y3500D2*
D13*
Y2500D1*
Y2000D1*
X13750Y750D1*
X11349D1*
X6875D1*
X6250Y1375D1*
Y5250D1*
X7750Y6750D1*
X28500Y2500D2*
Y3500D1*
X21750Y8750D2*
X20625D1*
X18750Y10625D1*
Y11875D1*
X18000D1*
X17750Y12125D1*
Y12875D1*
X16750Y13875D1*
X18750Y11875D2*
D3*
X28500Y2500D2*
Y1375D1*
X29125Y750D1*
X35875D1*
X42000D1*
X43750Y2500D1*
Y3250D1*
X51125Y3125D2*
Y2500D1*
X49375Y750D1*
X42000D1*
X13750D2*
X29125D1*
X4750Y24750D2*
Y22375D1*
X5750Y21375D1*
Y15000D1*
X6375Y14375D1*
X13750D1*
X16500Y17125D1*
X19000D1*
X19625Y16500D1*
Y12125D1*
X19375Y11875D1*
X18750D1*
X52500Y35740D2*
Y35250D1*
X51875Y34625D1*
X49125D1*
X48500Y34000D1*
Y24875D1*
X45125Y21500D1*
X35000D1*
X32750Y19250D1*
Y6375D1*
X35250Y3875D1*
Y1375D1*
X35875Y750D1*
X47500Y37240D2*
X47990Y36750D1*
X51490D1*
X52500Y35740D1*
X11750Y2500D2*
Y1151D1*
X11349Y750D1*
X7750Y6750D2*
Y8000D1*
X10375Y10625D1*
X18750D1*
X18000Y3500D2*
X18500Y3000D1*
X26625D1*
X29250Y5625D1*
Y8625D1*
X28625Y9250D1*
X26250D1*
X25750Y8750D1*
X38000Y3000D2*
Y4875D1*
Y6875D1*
X43750Y7250D2*
Y8500D1*
X43500D1*
X42000Y3000D2*
Y4851D1*
X41976Y4875D1*
Y5476D1*
X43750Y7250D1*
X1625Y22250D2*
X2875D1*
X3750Y23125D1*
Y24750D1*
X4250D2*
Y18750D1*
X4975Y18025D1*
X5000Y18050D1*
X18000Y2500D2*
Y2375D1*
X18375Y2000D1*
X26000D1*
X29500Y5500D1*
Y8750D1*
X28750Y9500D1*
X24500D1*
X23750Y8750D1*
X45500Y6875D2*
Y4875D1*
Y3000D1*
X49476Y4875D2*
Y3024D1*
X49500Y3000D1*
X49476Y4875D2*
Y5476D1*
X51125Y7125D1*
Y8500D1*
X51000D1*
X35500Y37000D2*
Y37875D1*
X36000Y38375D1*
X52375D1*
X53125Y37625D1*
Y8750D1*
X54250Y7625D1*
X56975D1*
X57500Y7100D1*
X16000Y2500D2*
X16500Y3000D1*
Y4000D1*
X17000Y4500D1*
X23500D1*
X24750Y5750D1*
X1750Y5500D2*
Y4250D1*
X2500Y3500D1*
X3750D1*
Y1625D1*
X7750D2*
Y3476D1*
X7726Y3500D1*
X7750Y1625D2*
Y2500D1*
X7726Y3500D2*
X9750D1*
X11000Y4750D1*
X12625Y6250D2*
Y8500D1*
X12750D1*
X51500Y35740D2*
Y35250D1*
X51101Y34851D1*
X48976D1*
X48250Y34125D1*
Y25000D1*
X45000Y21750D1*
X34875D1*
X32500Y19375D1*
Y6250D1*
X34500Y4250D1*
Y3500D1*
X56500Y5100D2*
X57500D1*
X20500Y37000D2*
Y36375D1*
X21000Y35875D1*
X39000D1*
X39500Y36375D1*
Y37000D1*
X55680Y28740D2*
D14*
Y29488D1*
X56861Y30669D1*
X55680Y29488D2*
Y36820D1*
X53500Y39000D1*
X5125D1*
X3000Y36875D1*
Y36004D1*
X58000Y34500D2*
D13*
Y36500D1*
X17000Y3500D2*
Y3750D1*
X17500Y4250D1*
X25250D1*
X26750Y5750D1*
X1625Y11750D2*
X3750D1*
X1625D2*
Y13000D1*
Y7750D2*
X3726D1*
X3750Y7774D1*
Y6750D1*
X5500D1*
X7250Y8500D1*
X56500Y14100D2*
X57500D1*
X21500Y37000D2*
Y37875D1*
X22250Y38625D1*
X52500D1*
X53375Y37750D1*
Y15000D1*
X54250Y14125D1*
X56475D1*
X56500Y14100D1*
X58625Y21230D2*
D14*
Y22490D1*
X54499Y30669D2*
Y24376D1*
X56375Y22500D1*
X58615D1*
X58625Y22490D1*
Y23750D2*
X57750Y24625D1*
Y31750D1*
X56125Y33375D1*
Y36875D1*
X53625Y39375D1*
X4875D1*
X2125Y36625D1*
Y35625D1*
X2534Y35216D1*
X3000D1*
X17000Y2500D2*
D13*
X17500Y3000D1*
Y3750D1*
X17750Y4000D1*
X27250D1*
X29000Y5750D1*
Y8500D1*
X28750Y8750D1*
X27750D1*
X14625Y6250D2*
X15875D1*
Y8250D1*
X19875Y6250D2*
Y8226D1*
X19851Y8250D1*
X14750Y8500D2*
X14625D1*
X16000Y9875D1*
X16750D1*
X18226D1*
X19851Y8250D1*
X1625Y26250D2*
Y27375D1*
X4250Y30000D1*
X6504D1*
X47500Y35740D2*
Y25375D1*
X44625Y22500D1*
X34500D1*
X31750Y19750D1*
Y6000D1*
X30000Y4250D1*
Y3000D1*
X29500Y2500D1*
X49500Y35740D2*
X48990Y36250D1*
X48250D1*
X48000Y36000D1*
Y34625D1*
X47750Y34375D1*
Y25250D1*
X44750Y22250D1*
X34625D1*
X32000Y19625D1*
Y3000D1*
X31500Y2500D1*
X32500Y3500D2*
Y5875D1*
X32250Y6125D1*
Y19500D1*
X34750Y22000D1*
X44875D1*
X48000Y25125D1*
Y34250D1*
X48500Y34750D1*
Y35740D1*
X50500D2*
X49740Y36500D1*
X47375D1*
X47000Y36125D1*
Y34625D1*
X47250Y34375D1*
Y25500D1*
X44500Y22750D1*
X34375D1*
X31500Y19875D1*
Y6125D1*
X29500Y4125D1*
Y3500D1*
X16000D2*
Y4000D1*
X16750Y4750D1*
X21750D1*
X22750Y5750D1*
X12750Y16875D2*
X14625D1*
X15250Y17500D1*
X21625D1*
X22250Y16875D1*
Y7250D1*
X21750Y6750D1*
Y5750D1*
X7125Y15625D2*
Y16250D1*
X7750Y16875D1*
X12750D1*
X11000Y12250D2*
X12125D1*
X12750Y12875D1*
X14601D1*
X14625Y12899D1*
Y14375D1*
X16125Y15875D1*
X18750D1*
D16*
X9000Y4750D3*
D17*
X11000D3*
Y7750D3*
X9000D3*
D16*
X5250Y8500D3*
D17*
X7250D3*
Y11500D3*
X5250D3*
D18*
X3625Y13000D3*
D19*
X1625D3*
D20*
X7750Y6750D3*
D21*
X3750D3*
D22*
X21750Y5750D3*
D23*
X22750D3*
X23750D3*
X24750D3*
X25750D3*
X26750D3*
X27750D3*
Y8750D3*
X26750D3*
X25750D3*
X24750D3*
X23750D3*
X22750D3*
X21750D3*
D18*
X3750Y5500D3*
D19*
X1750D3*
D20*
X11750Y2500D3*
D21*
X7750D3*
D20*
X3750Y1625D3*
D21*
X7750D3*
D22*
X3750Y3500D3*
D23*
X7726D3*
D20*
X1625Y11750D3*
D21*
Y7750D3*
D22*
X3750Y11750D3*
D23*
Y7774D3*
D16*
X12750Y8500D3*
D17*
X14750D3*
Y11500D3*
X12750D3*
D18*
X12625Y6250D3*
D19*
X14625D3*
D20*
X16750Y13875D3*
D21*
Y9875D3*
D20*
X15875Y6250D3*
D21*
X19875D3*
D22*
X15875Y8250D3*
D23*
X19851D3*
D16*
X41500Y8500D3*
D17*
X43500D3*
Y11500D3*
X41500D3*
D18*
X40000Y6875D3*
D19*
X38000D3*
D20*
X43750Y3250D3*
D21*
Y7250D3*
D20*
X38000Y3000D3*
D21*
X42000D3*
D22*
X38000Y4875D3*
D23*
X41976D3*
D16*
X9000Y12250D3*
D17*
X11000D3*
Y15250D3*
X9000D3*
D18*
X7125Y13625D3*
D19*
Y15625D3*
D20*
X18750Y11875D3*
D21*
Y15875D3*
D20*
X12750Y16875D3*
D21*
Y12875D3*
D22*
X14625Y16875D3*
D23*
Y12899D3*
D16*
X49000Y8500D3*
D17*
X51000D3*
Y11500D3*
X49000D3*
D18*
X47500Y6875D3*
D19*
X45500D3*
D20*
X51125Y3125D3*
D21*
Y7125D3*
D20*
X45500Y3000D3*
D21*
X49500D3*
D22*
X45500Y4875D3*
D23*
X49476D3*
D24*
X58000Y34500D3*
D25*
X57000D3*
D20*
X58000Y36500D3*
D21*
X54000D3*
D22*
X20500Y37000D3*
D23*
X21500D3*
X22500D3*
X23500D3*
X24500D3*
X25500D3*
X26500D3*
X27500D3*
X28500D3*
X29500D3*
X30500D3*
X31500D3*
X32500D3*
X33500D3*
X34500D3*
X35500D3*
X36500D3*
X37500D3*
X38500D3*
X39500D3*
D26*
X57500Y14100D3*
D20*
Y13100D3*
Y12100D3*
Y11100D3*
Y10100D3*
Y9100D3*
Y8100D3*
Y7100D3*
Y6100D3*
Y5100D3*
X56500D3*
Y6100D3*
Y7100D3*
Y8100D3*
Y9100D3*
Y10100D3*
Y11100D3*
Y12100D3*
Y13100D3*
Y14100D3*
D26*
X15000Y3500D3*
D20*
X16000D3*
X17000D3*
X18000D3*
X19000D3*
X20000D3*
X21000D3*
Y2500D3*
X20000D3*
X19000D3*
X18000D3*
X17000D3*
X16000D3*
X15000D3*
D26*
X28500Y3500D3*
D20*
X29500D3*
X30500D3*
X31500D3*
X32500D3*
X33500D3*
X34500D3*
Y2500D3*
X33500D3*
X32500D3*
X31500D3*
X30500D3*
X29500D3*
X28500D3*
G36*
X4947Y25045D2*
X4848Y25144D1*
X4652D1*
X4553Y25045D1*
Y24455D1*
X4652Y24356D1*
X4848D1*
X4947Y24455D1*
Y25045D1*
G37*
D27*
X4250Y24750D3*
X3750D3*
D20*
X1625Y22250D3*
D21*
Y26250D3*
D28*
X52500Y37240D3*
X51500D3*
X50500D3*
X49500D3*
X48500D3*
X47500D3*
X52500Y35740D3*
X51500D3*
X50500D3*
X49500D3*
X48500D3*
X47500D3*
D29*
X54499Y30669D3*
D30*
X56861D3*
D31*
X55680Y28740D3*
D19*
X3000Y35216D3*
D32*
Y36004D3*
D23*
X58625Y23750D3*
Y22490D3*
Y21230D3*
X5000Y19625D3*
Y18050D3*
Y16475D3*
D33*
X1063Y20019D3*
Y16082D3*
D35*
X6504Y30000D3*
D36*
X9496D3*
M02*
