G04 DipTrace 2.4.0.2*
%INTopSilk.gbr*%
%MOIN*%
%ADD10C,0.0098*%
%ADD12C,0.003*%
%ADD34C,0.0161*%
%ADD79C,0.0077*%
%ADD80C,0.0093*%
%ADD81C,0.0293*%
%ADD82C,0.0154*%
%FSLAX44Y44*%
G04*
G70*
G90*
G75*
G01*
%LNTopSilk*%
%LPD*%
X9500Y6250D2*
D10*
G02X9500Y6250I500J0D01*
G01*
X11221Y5148D2*
Y7352D1*
X10573Y7471D2*
X9410D1*
X8779Y7352D2*
Y5266D1*
X9528Y5029D2*
X10590D1*
X5750Y10000D2*
G02X5750Y10000I500J0D01*
G01*
X7471Y8898D2*
Y11102D1*
X6823Y11221D2*
X5660D1*
X5029Y11102D2*
Y9016D1*
X5778Y8779D2*
X6840D1*
X1426Y13600D2*
X3824D1*
X1426Y12400D2*
X3824D1*
G03X3824Y13600I1J600D01*
G01*
X1426D2*
G03X1426Y12400I-1J-600D01*
G01*
X4752Y7250D2*
X6748D1*
Y6250D2*
Y7250D1*
X4752Y6250D2*
X6748D1*
X4752D2*
Y7250D1*
X20892Y8274D2*
X28608D1*
Y6226D2*
Y8274D1*
X20892Y6226D2*
X28608D1*
X20892D2*
Y7014D1*
Y8274D2*
Y7486D1*
Y7014D2*
G03X20892Y7486I0J236D01*
G01*
X1551Y6100D2*
X3949D1*
X1551Y4900D2*
X3949D1*
G03X3949Y6100I1J600D01*
G01*
X1551D2*
G03X1551Y4900I-1J-600D01*
G01*
X8752Y3000D2*
X10748D1*
Y2000D2*
Y3000D1*
X8752Y2000D2*
X10748D1*
X8752D2*
Y3000D1*
X6748Y1125D2*
X4752D1*
Y2125D2*
Y1125D1*
X6748Y2125D2*
X4752D1*
X6748D2*
Y1125D1*
X4733Y3047D2*
Y3953D1*
X6743D1*
X5067Y3047D2*
Y3953D1*
X6743Y3047D2*
Y3953D1*
X4733Y3047D2*
X6743D1*
X1125Y8752D2*
Y10748D1*
X2125D2*
X1125D1*
X2125Y8752D2*
Y10748D1*
Y8752D2*
X1125D1*
X3297Y10767D2*
X4203D1*
Y8757D1*
X3297Y10433D2*
X4203D1*
X3297Y8757D2*
X4203D1*
X3297Y10767D2*
Y8757D1*
X13250Y10000D2*
G02X13250Y10000I500J0D01*
G01*
X14971Y8898D2*
Y11102D1*
X14323Y11221D2*
X13160D1*
X12529Y11102D2*
Y9016D1*
X13278Y8779D2*
X14340D1*
X14824Y5650D2*
X12426D1*
X14824Y6850D2*
X12426D1*
G03X12426Y5650I-1J-600D01*
G01*
X14824D2*
G03X14824Y6850I1J600D01*
G01*
X16250Y10877D2*
Y12873D1*
X17250D2*
X16250D1*
X17250Y10877D2*
Y12873D1*
Y10877D2*
X16250D1*
X18873Y5750D2*
X16877D1*
Y6750D2*
Y5750D1*
X18873Y6750D2*
X16877D1*
X18873D2*
Y5750D1*
X16858Y7797D2*
Y8703D1*
X18868D1*
X17192Y7797D2*
Y8703D1*
X18868Y7797D2*
Y8703D1*
X16858Y7797D2*
X18868D1*
X42000Y10000D2*
G02X42000Y10000I500J0D01*
G01*
X43721Y8898D2*
Y11102D1*
X43073Y11221D2*
X41910D1*
X41279Y11102D2*
Y9016D1*
X42028Y8779D2*
X43090D1*
X37801Y7475D2*
X40199D1*
X37801Y6275D2*
X40199D1*
G03X40199Y7475I1J600D01*
G01*
X37801D2*
G03X37801Y6275I-1J-600D01*
G01*
X44250Y6248D2*
Y4252D1*
X43250D2*
X44250D1*
X43250Y6248D2*
Y4252D1*
Y6248D2*
X44250D1*
X40998Y2500D2*
X39002D1*
Y3500D2*
Y2500D1*
X40998Y3500D2*
X39002D1*
X40998D2*
Y2500D1*
X38983Y4422D2*
Y5328D1*
X40993D1*
X39317Y4422D2*
Y5328D1*
X40993Y4422D2*
Y5328D1*
X38983Y4422D2*
X40993D1*
X9500Y13750D2*
G02X9500Y13750I500J0D01*
G01*
X11221Y12648D2*
Y14852D1*
X10573Y14971D2*
X9410D1*
X8779Y14852D2*
Y12766D1*
X9528Y12529D2*
X10590D1*
X7725Y15824D2*
Y13426D1*
X6525Y15824D2*
Y13426D1*
G03X7725Y13426I600J-1D01*
G01*
Y15824D2*
G03X6525Y15824I-600J1D01*
G01*
X19250Y14873D2*
Y12877D1*
X18250D2*
X19250D1*
X18250Y14873D2*
Y12877D1*
Y14873D2*
X19250D1*
X12250Y13877D2*
Y15873D1*
X13250D2*
X12250D1*
X13250Y13877D2*
Y15873D1*
Y13877D2*
X12250D1*
X14172Y15892D2*
X15078D1*
Y13882D1*
X14172Y15558D2*
X15078D1*
X14172Y13882D2*
X15078D1*
X14172Y15892D2*
Y13882D1*
X49500Y10000D2*
G02X49500Y10000I500J0D01*
G01*
X51221Y8898D2*
Y11102D1*
X50573Y11221D2*
X49410D1*
X48779Y11102D2*
Y9016D1*
X49528Y8779D2*
X50590D1*
X45301Y7475D2*
X47699D1*
X45301Y6275D2*
X47699D1*
G03X47699Y7475I1J600D01*
G01*
X45301D2*
G03X45301Y6275I-1J-600D01*
G01*
X51625Y6123D2*
Y4127D1*
X50625D2*
X51625D1*
X50625Y6123D2*
Y4127D1*
Y6123D2*
X51625D1*
X48498Y2500D2*
X46502D1*
Y3500D2*
Y2500D1*
X48498Y3500D2*
X46502D1*
X48498D2*
Y2500D1*
X46483Y4422D2*
Y5328D1*
X48493D1*
X46817Y4422D2*
Y5328D1*
X48493Y4422D2*
Y5328D1*
X46483Y4422D2*
X48493D1*
X56500Y33751D2*
Y35249D1*
X56502Y33748D2*
G03X56502Y35252I998J752D01*
G01*
X55002Y37000D2*
X56998D1*
Y36000D2*
Y37000D1*
X55002Y36000D2*
X56998D1*
X55002D2*
Y37000D1*
X16122Y38024D2*
X43878D1*
X16122Y18496D2*
X43878D1*
X16122Y38024D2*
Y18496D1*
X43878Y38024D2*
Y18496D1*
X5006Y25281D2*
G02X3494Y25281I-756J-666D01*
G01*
X5006D1*
X2125Y25248D2*
Y23252D1*
X1125D2*
X2125D1*
X1125Y25248D2*
Y23252D1*
Y25248D2*
X2125D1*
X4654Y30000D2*
G02X4654Y30000I3346J0D01*
G01*
D34*
X8000Y26960D3*
X23840Y17865D2*
D12*
X24230D1*
X23746Y17835D2*
X24343D1*
X23663Y17805D2*
X24442D1*
X23590Y17775D2*
X24528D1*
X23526Y17745D2*
X24604D1*
X23472Y17715D2*
X24672D1*
X23425Y17685D2*
X24732D1*
X23383Y17655D2*
X23937D1*
X24128D2*
X24785D1*
X23347Y17625D2*
X23835D1*
X24252D2*
X24833D1*
X23318Y17595D2*
X23748D1*
X24357D2*
X24876D1*
X23292Y17565D2*
X23677D1*
X24445D2*
X24915D1*
X23266Y17535D2*
X23618D1*
X24519D2*
X24952D1*
X23238Y17505D2*
X23568D1*
X24584D2*
X24991D1*
X23209Y17475D2*
X23524D1*
X24643D2*
X25029D1*
X23180Y17445D2*
X23486D1*
X24696D2*
X25064D1*
X23151Y17415D2*
X23450D1*
X24744D2*
X25093D1*
X23125Y17385D2*
X23550D1*
X24786D2*
X25117D1*
X23102Y17355D2*
X23631D1*
X24824D2*
X25139D1*
X23081Y17325D2*
X23692D1*
X24857D2*
X25160D1*
X23060Y17295D2*
X23737D1*
X24889D2*
X25179D1*
X23041Y17265D2*
X23770D1*
X24920D2*
X25196D1*
X23024Y17235D2*
X23795D1*
X24949D2*
X25212D1*
X23008Y17205D2*
X23814D1*
X24975D2*
X25227D1*
X22993Y17175D2*
X23832D1*
X24997D2*
X25242D1*
X22977Y17145D2*
X23240D1*
X23570D2*
X23851D1*
X25015D2*
X25256D1*
X22959Y17115D2*
X23211D1*
X23599D2*
X23870D1*
X25032D2*
X25269D1*
X22939Y17085D2*
X23185D1*
X23625D2*
X23885D1*
X25047D2*
X25279D1*
X22921Y17055D2*
X23163D1*
X23647D2*
X23898D1*
X25062D2*
X25290D1*
X22904Y17025D2*
X23145D1*
X23665D2*
X23909D1*
X25076D2*
X25299D1*
X22888Y16995D2*
X23128D1*
X23681D2*
X23919D1*
X25089D2*
X25305D1*
X22873Y16965D2*
X23113D1*
X23696D2*
X23925D1*
X25099D2*
X25309D1*
X22858Y16935D2*
X23098D1*
X23708D2*
X23928D1*
X24200D2*
X24440D1*
X25110D2*
X25314D1*
X22844Y16905D2*
X23083D1*
X23719D2*
X23930D1*
X24121D2*
X24516D1*
X25119D2*
X25322D1*
X22831Y16875D2*
X23068D1*
X23730D2*
X23936D1*
X24051D2*
X24579D1*
X25125D2*
X25330D1*
X22821Y16845D2*
X23053D1*
X23739D2*
X23946D1*
X23989D2*
X24630D1*
X25128D2*
X25335D1*
X22809Y16815D2*
X23038D1*
X23744D2*
X24670D1*
X25129D2*
X25338D1*
X22796Y16785D2*
X23024D1*
X23210D2*
D3*
X23743D2*
X24701D1*
X25130D2*
X25339D1*
X22783Y16755D2*
X23013D1*
X23154D2*
X23300D1*
X23737D2*
X24725D1*
X25130D2*
X25340D1*
X21620Y16725D2*
X22340D1*
X22771D2*
X23006D1*
X23111D2*
X23318D1*
X23729D2*
X24745D1*
X25130D2*
X25339D1*
X21517Y16695D2*
X22455D1*
X22758D2*
X23004D1*
X23080D2*
X23334D1*
X23720D2*
X24171D1*
X24463D2*
X24761D1*
X25130D2*
X25335D1*
X21424Y16665D2*
X22568D1*
X22742D2*
X23007D1*
X23064D2*
X23345D1*
X23709D2*
X24116D1*
X24507D2*
X24776D1*
X25129D2*
X25328D1*
X21342Y16635D2*
X22679D1*
X22708D2*
X23016D1*
X23048D2*
X23352D1*
X23695D2*
X24068D1*
X24538D2*
X24788D1*
X25125D2*
X25320D1*
X21271Y16605D2*
X23345D1*
X23678D2*
X24028D1*
X24561D2*
X24799D1*
X25118D2*
X25315D1*
X21210Y16575D2*
X23333D1*
X23659D2*
X23994D1*
X24576D2*
X24810D1*
X25110D2*
X25312D1*
X21159Y16545D2*
X23317D1*
X23640D2*
X23962D1*
X24588D2*
X24819D1*
X25104D2*
X25310D1*
X21114Y16515D2*
X21778D1*
X21830D2*
X23277D1*
X23617D2*
X23936D1*
X24599D2*
X24825D1*
X25097D2*
X25305D1*
X21070Y16485D2*
X21651D1*
X21860D2*
X22129D1*
X22334D2*
X23219D1*
X23586D2*
X23914D1*
X24609D2*
X24828D1*
X25089D2*
X25298D1*
X21027Y16455D2*
X21544D1*
X21890D2*
X22155D1*
X22442D2*
X23150D1*
X23533D2*
X23895D1*
X24615D2*
X24829D1*
X25079D2*
X25290D1*
X20983Y16425D2*
X21455D1*
X21919D2*
X22177D1*
X22540D2*
X23229D1*
X23446D2*
X23879D1*
X24618D2*
X24830D1*
X25070D2*
X25284D1*
X20942Y16395D2*
X21377D1*
X21945D2*
X22195D1*
X22630D2*
X23332D1*
X23323D2*
X23864D1*
X24619D2*
X24830D1*
X25060D2*
X25277D1*
X20906Y16365D2*
X21308D1*
X21968D2*
X22212D1*
X22710D2*
X22880D1*
X22940D2*
X23853D1*
X24620D2*
X24830D1*
X25050D2*
X25269D1*
X20874Y16335D2*
X21250D1*
X21989D2*
X22227D1*
X22782D2*
X22880D1*
X22970D2*
X23846D1*
X24620D2*
X24830D1*
X25040D2*
X25259D1*
X20846Y16305D2*
X21199D1*
X22010D2*
X22242D1*
X22850D2*
X22880D1*
X23001D2*
X23841D1*
X24020D2*
X24050D1*
X24619D2*
X24830D1*
X25029D2*
X25250D1*
X20823Y16275D2*
X21155D1*
X22029D2*
X22257D1*
X23037D2*
X23836D1*
X23974D2*
X24103D1*
X24615D2*
X24829D1*
X25016D2*
X25239D1*
X20800Y16245D2*
X21117D1*
X22045D2*
X22272D1*
X23081D2*
X23828D1*
X23941D2*
X24142D1*
X24608D2*
X24825D1*
X25002D2*
X25226D1*
X20775Y16215D2*
X21083D1*
X22058D2*
X22286D1*
X23140D2*
X23821D1*
X23916D2*
X24168D1*
X24599D2*
X24818D1*
X24987D2*
X25213D1*
X20749Y16185D2*
X21051D1*
X22069D2*
X22299D1*
X23215D2*
X23510D1*
X23630D2*
X23820D1*
X23908D2*
X24187D1*
X24590D2*
X24810D1*
X24972D2*
X25201D1*
X20724Y16155D2*
X21020D1*
X22080D2*
X22309D1*
X23300D2*
X23390D1*
X23630D2*
X23824D1*
X23903D2*
X24192D1*
X24580D2*
X24804D1*
X24957D2*
X25191D1*
X20702Y16125D2*
X20990D1*
X22090D2*
X22320D1*
X23630D2*
X23831D1*
X23903D2*
X24194D1*
X24570D2*
X24797D1*
X24942D2*
X25179D1*
X20681Y16095D2*
X20960D1*
X22100D2*
X22329D1*
X23630D2*
X23837D1*
X23907D2*
X24181D1*
X24559D2*
X24787D1*
X24926D2*
X25166D1*
X20660Y16065D2*
X20930D1*
X22110D2*
X22336D1*
X23630D2*
X23843D1*
X23919D2*
X24161D1*
X24544D2*
X24775D1*
X24909D2*
X25152D1*
X20641Y16035D2*
X20901D1*
X22120D2*
X22343D1*
X23631D2*
X23853D1*
X23938D2*
X24137D1*
X24523D2*
X24762D1*
X24890D2*
X25137D1*
X20624Y16005D2*
X20875D1*
X22130D2*
X22351D1*
X23635D2*
X23866D1*
X23960D2*
X24110D1*
X24497D2*
X24747D1*
X24875D2*
X25122D1*
X20608Y15975D2*
X20853D1*
X22140D2*
X22360D1*
X23643D2*
X23883D1*
X24468D2*
X24732D1*
X24861D2*
X25107D1*
X20593Y15945D2*
X20835D1*
X22149D2*
X22365D1*
X23655D2*
X23906D1*
X24434D2*
X24716D1*
X24846D2*
X25093D1*
X20578Y15915D2*
X20818D1*
X22155D2*
X22368D1*
X23668D2*
X23935D1*
X24396D2*
X24697D1*
X24828D2*
X25077D1*
X20564Y15885D2*
X20803D1*
X22158D2*
X22369D1*
X23683D2*
X23975D1*
X24346D2*
X24674D1*
X24809D2*
X25062D1*
X20552Y15855D2*
X20788D1*
X22159D2*
X22370D1*
X23330D2*
X23360D1*
X23698D2*
X24044D1*
X24271D2*
X24648D1*
X24790D2*
X25046D1*
X20545Y15825D2*
X20774D1*
X22160D2*
X22370D1*
X23318D2*
X23417D1*
X23714D2*
X24155D1*
X24157D2*
X24620D1*
X24770D2*
X25029D1*
X20537Y15795D2*
X20761D1*
X22160D2*
X22370D1*
X23305D2*
X23466D1*
X23733D2*
X24593D1*
X24750D2*
X25009D1*
X20529Y15765D2*
X20751D1*
X22160D2*
X22370D1*
X23287D2*
X23505D1*
X23757D2*
X24566D1*
X24729D2*
X24990D1*
X20520Y15735D2*
X20740D1*
X22160D2*
X22370D1*
X23264D2*
X23520D1*
X23788D2*
X24532D1*
X24705D2*
X24969D1*
X20515Y15705D2*
X20731D1*
X22160D2*
X22370D1*
X23236D2*
X23504D1*
X23825D2*
X24490D1*
X24679D2*
X24946D1*
X20512Y15675D2*
X20725D1*
X22160D2*
X22370D1*
X23201D2*
X23487D1*
X23868D2*
X24440D1*
X24654D2*
X24923D1*
X20511Y15645D2*
X20721D1*
X22160D2*
X22370D1*
X23151D2*
X23468D1*
X23920D2*
X24379D1*
X24632D2*
X24902D1*
X20510Y15615D2*
X20716D1*
X22160D2*
X22370D1*
X23068D2*
X23444D1*
X23982D2*
X24307D1*
X24611D2*
X24885D1*
X20510Y15585D2*
X20708D1*
X22160D2*
X22370D1*
X22931D2*
X23418D1*
X24050D2*
X24230D1*
X24590D2*
X24867D1*
X20510Y15555D2*
X20700D1*
X22157D2*
X22370D1*
X22717D2*
X23389D1*
X24570D2*
X24848D1*
X20510Y15525D2*
X20695D1*
X22150D2*
X22370D1*
X22428D2*
X23360D1*
X24549D2*
X24825D1*
X20510Y15495D2*
X20692D1*
X22117D2*
X23328D1*
X24525D2*
X24803D1*
X20510Y15465D2*
X20691D1*
X22038D2*
X23292D1*
X24498D2*
X24781D1*
X25490D2*
X26270D1*
X20510Y15435D2*
X20691D1*
X21945D2*
X23242D1*
X24469D2*
X24760D1*
X25259D2*
X26459D1*
X20510Y15405D2*
X20695D1*
X21850D2*
X23166D1*
X24440D2*
X24736D1*
X25027D2*
X26625D1*
X20510Y15375D2*
X20702D1*
X21765D2*
X23050D1*
X24410D2*
X24710D1*
X24783D2*
X26762D1*
X20510Y15345D2*
X20710D1*
X21691D2*
X22886D1*
X24380D2*
X26874D1*
X20510Y15315D2*
X20715D1*
X21626D2*
X22699D1*
X24350D2*
X26968D1*
X20510Y15285D2*
X20719D1*
X21568D2*
X22535D1*
X24320D2*
X27051D1*
X20511Y15255D2*
X20724D1*
X21518D2*
X22424D1*
X24289D2*
X25820D1*
X26000D2*
X27125D1*
X20515Y15225D2*
X20732D1*
X21474D2*
X22047D1*
X22095D2*
X22349D1*
X24255D2*
X25377D1*
X26378D2*
X27192D1*
X20522Y15195D2*
X20741D1*
X21431D2*
X21945D1*
X22088D2*
X22327D1*
X24217D2*
X25185D1*
X26532D2*
X27251D1*
X20530Y15165D2*
X20750D1*
X21391D2*
X21857D1*
X22080D2*
X22313D1*
X24175D2*
X25008D1*
X26666D2*
X27302D1*
X20536Y15135D2*
X20760D1*
X21355D2*
X21783D1*
X22074D2*
X22301D1*
X24130D2*
X24848D1*
X26780D2*
X27347D1*
X20543Y15105D2*
X20770D1*
X21322D2*
X21722D1*
X22067D2*
X22290D1*
X24082D2*
X24702D1*
X26876D2*
X27394D1*
X20551Y15075D2*
X20780D1*
X21291D2*
X21676D1*
X22057D2*
X22280D1*
X24031D2*
X24566D1*
X26959D2*
X27441D1*
X20561Y15045D2*
X20790D1*
X21260D2*
X21644D1*
X22045D2*
X22270D1*
X23180D2*
X23270D1*
X23982D2*
X24437D1*
X27035D2*
X27484D1*
X28100D2*
X28910D1*
X20570Y15015D2*
X20800D1*
X21230D2*
X21620D1*
X22033D2*
X22260D1*
X23084D2*
X23280D1*
X23936D2*
X24314D1*
X27102D2*
X27523D1*
X28026D2*
X28969D1*
X20581Y14985D2*
X20810D1*
X21201D2*
X21681D1*
X22021D2*
X22250D1*
X22982D2*
X23290D1*
X23891D2*
X24195D1*
X27162D2*
X27557D1*
X27959D2*
X29025D1*
X20594Y14955D2*
X20821D1*
X21175D2*
X21749D1*
X22007D2*
X22239D1*
X22869D2*
X23300D1*
X23846D2*
X24077D1*
X27215D2*
X27589D1*
X27898D2*
X29077D1*
X20608Y14925D2*
X20834D1*
X21153D2*
X21830D1*
X21988D2*
X22225D1*
X22739D2*
X23309D1*
X23799D2*
X23959D1*
X27263D2*
X27621D1*
X27842D2*
X29124D1*
X20623Y14895D2*
X20848D1*
X21135D2*
X21930D1*
X21943D2*
X22209D1*
X22567D2*
X23316D1*
X23750D2*
X23840D1*
X27306D2*
X27656D1*
X27785D2*
X29166D1*
X20637Y14865D2*
X20864D1*
X21118D2*
X22190D1*
X22337D2*
X23307D1*
X27345D2*
X27696D1*
X27720D2*
X29203D1*
X20649Y14835D2*
X20882D1*
X21103D2*
X21381D1*
X21470D2*
X23279D1*
X27382D2*
X28293D1*
X28712D2*
X29232D1*
X20660Y14805D2*
X20901D1*
X21087D2*
X21355D1*
X21530D2*
X23246D1*
X27421D2*
X28173D1*
X28824D2*
X29257D1*
X20675Y14775D2*
X20923D1*
X21071D2*
X21332D1*
X21591D2*
X23212D1*
X27459D2*
X28076D1*
X28909D2*
X29280D1*
X20692Y14745D2*
X20953D1*
X21051D2*
X21311D1*
X21658D2*
X23178D1*
X27495D2*
X28002D1*
X28971D2*
X29305D1*
X20710Y14715D2*
X20997D1*
X21023D2*
X21290D1*
X21736D2*
X23143D1*
X27528D2*
X27946D1*
X29018D2*
X29332D1*
X20726Y14685D2*
X21271D1*
X21833D2*
X22724D1*
X22815D2*
X23113D1*
X27558D2*
X27902D1*
X29055D2*
X29360D1*
X20743Y14655D2*
X21254D1*
X21947D2*
X22564D1*
X22807D2*
X23085D1*
X27585D2*
X27882D1*
X29088D2*
X29385D1*
X20761Y14625D2*
X21238D1*
X22070D2*
X22400D1*
X22795D2*
X23058D1*
X27608D2*
X27882D1*
X29119D2*
X29408D1*
X20781Y14595D2*
X21224D1*
X22782D2*
X23034D1*
X27629D2*
X27896D1*
X29150D2*
X29429D1*
X20799Y14565D2*
X21212D1*
X22767D2*
X23013D1*
X27650D2*
X27911D1*
X29180D2*
X29450D1*
X20816Y14535D2*
X21201D1*
X22752D2*
X22995D1*
X27669D2*
X27927D1*
X29210D2*
X29469D1*
X20833Y14505D2*
X21190D1*
X22738D2*
X22978D1*
X27686D2*
X27942D1*
X29240D2*
X29486D1*
X20852Y14475D2*
X21181D1*
X22724D2*
X22963D1*
X27703D2*
X27956D1*
X29117D2*
X29502D1*
X20875Y14445D2*
X21175D1*
X22711D2*
X22948D1*
X27721D2*
X27969D1*
X29009D2*
X29516D1*
X20899Y14415D2*
X21172D1*
X22701D2*
X22934D1*
X27741D2*
X27979D1*
X28919D2*
X29527D1*
X20924Y14385D2*
X21171D1*
X22690D2*
X22921D1*
X27759D2*
X27991D1*
X28844D2*
X29534D1*
X20953Y14355D2*
X21170D1*
X22681D2*
X22911D1*
X27776D2*
X28004D1*
X28785D2*
X29539D1*
X20985Y14325D2*
X21170D1*
X22675D2*
X22900D1*
X27792D2*
X28017D1*
X28737D2*
X29544D1*
X21017Y14295D2*
X21170D1*
X22671D2*
X22890D1*
X27806D2*
X28029D1*
X28694D2*
X29552D1*
X21048Y14265D2*
X21170D1*
X22666D2*
X22880D1*
X27818D2*
X28039D1*
X28657D2*
X29560D1*
X21074Y14235D2*
X21170D1*
X22658D2*
X22870D1*
X27829D2*
X28050D1*
X28628D2*
X29071D1*
X29415D2*
X29566D1*
X21097Y14205D2*
X21170D1*
X22650D2*
X22861D1*
X27840D2*
X28060D1*
X28602D2*
X29002D1*
X29468D2*
X29574D1*
X21119Y14175D2*
X21170D1*
X22645D2*
X22854D1*
X27850D2*
X28070D1*
X28577D2*
X28940D1*
X29519D2*
X29585D1*
X21140Y14145D2*
X21170D1*
X22641D2*
X22847D1*
X27860D2*
X28080D1*
X28553D2*
X28998D1*
X29570D2*
X29600D1*
X22636Y14115D2*
X22839D1*
X27870D2*
X28089D1*
X28531D2*
X29046D1*
X22628Y14085D2*
X22830D1*
X27880D2*
X28096D1*
X28510D2*
X29087D1*
X22620Y14055D2*
X22825D1*
X26330D2*
X26360D1*
X27890D2*
X28103D1*
X28485D2*
X29125D1*
X22615Y14025D2*
X22822D1*
X24290D2*
X24350D1*
X26286D2*
X26390D1*
X27900D2*
X28111D1*
X28459D2*
X29157D1*
X22612Y13995D2*
X22821D1*
X24246D2*
X24369D1*
X26248D2*
X26420D1*
X27909D2*
X28120D1*
X28435D2*
X29184D1*
X22611Y13965D2*
X22819D1*
X24208D2*
X24386D1*
X26213D2*
X26450D1*
X27915D2*
X28125D1*
X28418D2*
X28640D1*
X28880D2*
X29207D1*
X22610Y13935D2*
X22815D1*
X24173D2*
X24401D1*
X26180D2*
X26480D1*
X27919D2*
X28128D1*
X28407D2*
X28520D1*
X28940D2*
X29224D1*
X22610Y13905D2*
X22808D1*
X24142D2*
X24414D1*
X26210D2*
X26510D1*
X27924D2*
X28130D1*
X28400D2*
D3*
X28896D2*
X29237D1*
X22610Y13875D2*
X22800D1*
X24115D2*
X24421D1*
X26240D2*
X26540D1*
X27932D2*
X28135D1*
X28858D2*
X29249D1*
X22610Y13845D2*
X22795D1*
X24092D2*
X24408D1*
X26270D2*
X26570D1*
X27940D2*
X28142D1*
X28823D2*
X29260D1*
X22610Y13815D2*
X22792D1*
X24071D2*
X24380D1*
X26300D2*
X26600D1*
X27945D2*
X28150D1*
X28792D2*
X29270D1*
X22610Y13785D2*
X22791D1*
X24050D2*
X24351D1*
X26330D2*
X26631D1*
X27948D2*
X28155D1*
X28765D2*
X29281D1*
X22610Y13755D2*
X22790D1*
X24030D2*
X24321D1*
X26360D2*
X26665D1*
X27949D2*
X28158D1*
X28742D2*
X29294D1*
X22610Y13725D2*
X22790D1*
X24010D2*
X24290D1*
X26390D2*
X26703D1*
X27951D2*
X28159D1*
X28721D2*
X29307D1*
X22610Y13695D2*
X22790D1*
X23990D2*
X24261D1*
X26420D2*
X26746D1*
X27955D2*
X28160D1*
X28700D2*
X28971D1*
X29144D2*
X29319D1*
X22610Y13665D2*
X22790D1*
X23971D2*
X24235D1*
X26450D2*
X26794D1*
X27962D2*
X28160D1*
X28681D2*
X28945D1*
X29193D2*
X29329D1*
X22610Y13635D2*
X22791D1*
X23955D2*
X24213D1*
X26480D2*
X26846D1*
X27970D2*
X28160D1*
X28665D2*
X28923D1*
X29238D2*
X29340D1*
X22610Y13605D2*
X22795D1*
X23943D2*
X24195D1*
X26510D2*
X26903D1*
X27975D2*
X28160D1*
X28652D2*
X28905D1*
X29283D2*
X29350D1*
X22610Y13575D2*
X22802D1*
X23935D2*
X24178D1*
X26541D2*
X26961D1*
X27978D2*
X28160D1*
X28641D2*
X28888D1*
X29330D2*
X29360D1*
X22610Y13545D2*
X22810D1*
X23928D2*
X24163D1*
X26575D2*
X27022D1*
X27979D2*
X28160D1*
X28630D2*
X28873D1*
X22610Y13515D2*
X22815D1*
X23919D2*
X24148D1*
X26613D2*
X27085D1*
X27980D2*
X28160D1*
X28620D2*
X28858D1*
X22610Y13485D2*
X22818D1*
X23910D2*
X24134D1*
X26655D2*
X27152D1*
X27980D2*
X28160D1*
X28609D2*
X28844D1*
X22610Y13455D2*
X22819D1*
X23905D2*
X24121D1*
X26699D2*
X27220D1*
X27980D2*
X28160D1*
X28594D2*
X28831D1*
X22611Y13425D2*
X22820D1*
X23902D2*
X24111D1*
X26744D2*
X27286D1*
X27980D2*
X28160D1*
X28573D2*
X28820D1*
X22615Y13395D2*
X22821D1*
X23900D2*
X24100D1*
X26793D2*
X27350D1*
X27980D2*
X28160D1*
X28547D2*
X28805D1*
X22622Y13365D2*
X22825D1*
X23895D2*
X24091D1*
X26845D2*
X27310D1*
X27980D2*
X28160D1*
X28519D2*
X28788D1*
X22630Y13335D2*
X22832D1*
X23888D2*
X24085D1*
X26900D2*
X27270D1*
X27980D2*
X28160D1*
X28489D2*
X28769D1*
X22635Y13305D2*
X22840D1*
X23880D2*
X24082D1*
X26860D2*
X27230D1*
X27980D2*
X28160D1*
X28459D2*
X28750D1*
X22638Y13275D2*
X22845D1*
X23875D2*
X24081D1*
X26821D2*
X27190D1*
X27980D2*
X28160D1*
X28425D2*
X28730D1*
X22640Y13245D2*
X22848D1*
X23872D2*
X24080D1*
X26785D2*
X27151D1*
X27979D2*
X28160D1*
X28385D2*
X28710D1*
X22645Y13215D2*
X22850D1*
X23871D2*
X24080D1*
X26751D2*
X27114D1*
X27975D2*
X28161D1*
X28336D2*
X28689D1*
X22652Y13185D2*
X22855D1*
X23871D2*
X24080D1*
X26716D2*
X27077D1*
X27968D2*
X28166D1*
X28272D2*
X28665D1*
X22660Y13155D2*
X22862D1*
X23875D2*
X24080D1*
X26678D2*
X27039D1*
X27960D2*
X28176D1*
X28191D2*
X28637D1*
X22665Y13125D2*
X22870D1*
X23882D2*
X24081D1*
X26639D2*
X27000D1*
X27955D2*
X28604D1*
X22668Y13095D2*
X22875D1*
X23890D2*
X24085D1*
X26600D2*
X26964D1*
X27952D2*
X28567D1*
X22669Y13065D2*
X22879D1*
X23895D2*
X24092D1*
X26559D2*
X26927D1*
X27950D2*
X28528D1*
X22671Y13035D2*
X22884D1*
X23898D2*
X24101D1*
X26516D2*
X26888D1*
X27945D2*
X28483D1*
X22675Y13005D2*
X22892D1*
X23900D2*
X24110D1*
X26473D2*
X26845D1*
X27938D2*
X28426D1*
X22682Y12975D2*
X22901D1*
X23905D2*
X24121D1*
X26432D2*
X26803D1*
X27930D2*
X28349D1*
X22690Y12945D2*
X22910D1*
X23912D2*
X24134D1*
X26396D2*
X26762D1*
X27924D2*
X28247D1*
X22696Y12915D2*
X22920D1*
X23920D2*
X24148D1*
X26361D2*
X26725D1*
X27917D2*
X28130D1*
X22703Y12885D2*
X22929D1*
X23926D2*
X24163D1*
X26326D2*
X26687D1*
X27909D2*
X28120D1*
X22711Y12855D2*
X22936D1*
X23933D2*
X24178D1*
X26287D2*
X26649D1*
X27899D2*
X28111D1*
X22721Y12825D2*
X22943D1*
X23943D2*
X24194D1*
X26245D2*
X26609D1*
X27890D2*
X28104D1*
X22730Y12795D2*
X22952D1*
X23955D2*
X24213D1*
X26201D2*
X26570D1*
X27880D2*
X28097D1*
X22740Y12765D2*
X22965D1*
X23968D2*
X24236D1*
X26156D2*
X26530D1*
X27870D2*
X28089D1*
X22750Y12735D2*
X22977D1*
X23984D2*
X24263D1*
X26107D2*
X26491D1*
X27859D2*
X28079D1*
X22760Y12705D2*
X22989D1*
X24003D2*
X24292D1*
X26054D2*
X26454D1*
X27845D2*
X28070D1*
X22770Y12675D2*
X22999D1*
X24026D2*
X24325D1*
X25997D2*
X26417D1*
X27829D2*
X28059D1*
X22780Y12645D2*
X23011D1*
X24052D2*
X24364D1*
X25938D2*
X26378D1*
X27814D2*
X28046D1*
X22790Y12615D2*
X23024D1*
X24081D2*
X24406D1*
X25873D2*
X26335D1*
X27801D2*
X28032D1*
X22801Y12585D2*
X23038D1*
X24110D2*
X24455D1*
X25801D2*
X26292D1*
X27786D2*
X28017D1*
X22814Y12555D2*
X23053D1*
X24140D2*
X24513D1*
X25721D2*
X26246D1*
X27768D2*
X28003D1*
X22828Y12525D2*
X23068D1*
X24170D2*
X24584D1*
X25633D2*
X26197D1*
X27750D2*
X27991D1*
X22843Y12495D2*
X23083D1*
X24200D2*
X24672D1*
X25530D2*
X26144D1*
X27734D2*
X27981D1*
X22858Y12465D2*
X23098D1*
X24231D2*
X24781D1*
X25404D2*
X26087D1*
X27718D2*
X27969D1*
X22873Y12435D2*
X23114D1*
X24266D2*
X24906D1*
X25257D2*
X26028D1*
X27703D2*
X27955D1*
X22888Y12405D2*
X23132D1*
X24310D2*
X25963D1*
X27686D2*
X27938D1*
X22904Y12375D2*
X23155D1*
X24363D2*
X25891D1*
X27667D2*
X27919D1*
X22921Y12345D2*
X23177D1*
X24427D2*
X25810D1*
X27644D2*
X27900D1*
X22941Y12315D2*
X23199D1*
X24499D2*
X25720D1*
X27618D2*
X27880D1*
X22959Y12285D2*
X23220D1*
X24588D2*
X25614D1*
X27590D2*
X27860D1*
X22976Y12255D2*
X23244D1*
X24710D2*
X25482D1*
X27565D2*
X27840D1*
X22993Y12225D2*
X23267D1*
X24877D2*
X25316D1*
X27542D2*
X27819D1*
X23011Y12195D2*
X23289D1*
X25070D2*
X25130D1*
X27520D2*
X27796D1*
X23031Y12165D2*
X23310D1*
X27495D2*
X27773D1*
X23050Y12135D2*
X23335D1*
X27468D2*
X27751D1*
X23071Y12105D2*
X23362D1*
X27438D2*
X27730D1*
X23095Y12075D2*
X23391D1*
X27405D2*
X27705D1*
X23122Y12045D2*
X23421D1*
X27368D2*
X27678D1*
X23151Y12015D2*
X23455D1*
X27329D2*
X27649D1*
X23180Y11985D2*
X23492D1*
X27290D2*
X27620D1*
X23210Y11955D2*
X23530D1*
X27250D2*
X27590D1*
X23240Y11925D2*
X23565D1*
X27210D2*
X27560D1*
X23270Y11895D2*
X23599D1*
X27170D2*
X27529D1*
X23300Y11865D2*
X23634D1*
X27129D2*
X27495D1*
X23330Y11835D2*
X23673D1*
X27085D2*
X27458D1*
X23360Y11805D2*
X23716D1*
X27038D2*
X27420D1*
X23391Y11775D2*
X23762D1*
X26989D2*
X27384D1*
X23425Y11745D2*
X23812D1*
X26938D2*
X27347D1*
X23463Y11715D2*
X23865D1*
X26884D2*
X27307D1*
X23505Y11685D2*
X23923D1*
X26821D2*
X27264D1*
X23548Y11655D2*
X23986D1*
X26753D2*
X27217D1*
X23593Y11625D2*
X24052D1*
X26681D2*
X27165D1*
X23638Y11595D2*
X24122D1*
X26606D2*
X27112D1*
X23684Y11565D2*
X24196D1*
X26527D2*
X27061D1*
X23732Y11535D2*
X24275D1*
X26443D2*
X27010D1*
X23784Y11505D2*
X24363D1*
X26350D2*
X26955D1*
X23835Y11475D2*
X24464D1*
X26243D2*
X26898D1*
X23876Y11445D2*
X24588D1*
X26110D2*
X26838D1*
X23908Y11415D2*
X24760D1*
X25931D2*
X26774D1*
X23920Y11385D2*
X25016D1*
X25669D2*
X26705D1*
X23925Y11355D2*
X25375D1*
X25307D2*
X26629D1*
X23927Y11325D2*
X24110D1*
X24171D2*
X26543D1*
X23924Y11295D2*
X24110D1*
X24266D2*
X26447D1*
X23918Y11265D2*
X24110D1*
X24370D2*
X26341D1*
X23910Y11235D2*
X24110D1*
X24487D2*
X26219D1*
X23905Y11205D2*
X24110D1*
X24624D2*
X26074D1*
X23902Y11175D2*
X24110D1*
X24781D2*
X25908D1*
X23901Y11145D2*
X24110D1*
X24950D2*
X25730D1*
X23900Y11115D2*
X24110D1*
X25520D2*
X25730D1*
X23900Y11085D2*
X24110D1*
X25520D2*
X25730D1*
X23900Y11055D2*
X24109D1*
X25520D2*
X25730D1*
X23900Y11025D2*
X24105D1*
X25521D2*
X25731D1*
X23900Y10995D2*
X24098D1*
X25525D2*
X25735D1*
X23900Y10965D2*
X24090D1*
X25532D2*
X25742D1*
X23900Y10935D2*
X24085D1*
X25540D2*
X25750D1*
X23899Y10905D2*
X24082D1*
X25545D2*
X25755D1*
X23895Y10875D2*
X24081D1*
X25548D2*
X25758D1*
X23888Y10845D2*
X24080D1*
X25549D2*
X25759D1*
X23880Y10815D2*
X24080D1*
X25550D2*
X25760D1*
X23874Y10785D2*
X24080D1*
X25550D2*
X25760D1*
X23866Y10755D2*
X24080D1*
X25550D2*
X25760D1*
X23854Y10725D2*
X24082D1*
X25550D2*
X25760D1*
X23828Y10695D2*
X24088D1*
X25550D2*
X25760D1*
X23795Y10665D2*
X24110D1*
X25550D2*
X25760D1*
X23758Y10635D2*
X24138D1*
X25551D2*
X25762D1*
X23719Y10605D2*
X24168D1*
X25555D2*
X25776D1*
X23680Y10575D2*
X24199D1*
X25562D2*
X25832D1*
X23641Y10545D2*
X24230D1*
X25569D2*
X25912D1*
X23604Y10515D2*
X24260D1*
X25570D2*
X26009D1*
X23567Y10485D2*
X24290D1*
X25564D2*
X26113D1*
X23529Y10455D2*
X24320D1*
X25553D2*
X26218D1*
X23490Y10425D2*
X24351D1*
X25537D2*
X26315D1*
X23455Y10395D2*
X24385D1*
X25519D2*
X26391D1*
X23424Y10365D2*
X23775D1*
X23840D2*
X24050D1*
X24110D2*
X24422D1*
X25500D2*
X26446D1*
X23398Y10335D2*
X23738D1*
X23840D2*
X24050D1*
X24140D2*
X24460D1*
X25479D2*
X26466D1*
X23380Y10305D2*
X23700D1*
X23840D2*
X24050D1*
X24170D2*
X24494D1*
X25455D2*
X26472D1*
X23382Y10275D2*
X23664D1*
X23840D2*
X24050D1*
X24200D2*
X24521D1*
X25428D2*
X25844D1*
X26036D2*
X26466D1*
X23401Y10245D2*
X23627D1*
X23840D2*
X24050D1*
X24230D2*
X24543D1*
X25400D2*
X25863D1*
X26138D2*
X26459D1*
X23424Y10215D2*
X23588D1*
X23840D2*
X24049D1*
X24260D2*
X24549D1*
X25376D2*
X25877D1*
X26248D2*
X26454D1*
X23452Y10185D2*
X23549D1*
X23840D2*
X24045D1*
X24290D2*
X24542D1*
X25356D2*
X25889D1*
X26360D2*
X26450D1*
X23480Y10155D2*
X23510D1*
X23840D2*
X24038D1*
X24321D2*
X24521D1*
X25350D2*
X25610D1*
X25664D2*
X25900D1*
X23840Y10125D2*
X24030D1*
X24356D2*
X24496D1*
X25358D2*
X25581D1*
X25683D2*
X25910D1*
X23840Y10095D2*
X24025D1*
X24396D2*
X24469D1*
X25384D2*
X25555D1*
X25697D2*
X25920D1*
X23840Y10065D2*
X24022D1*
X24440D2*
D3*
X25416D2*
X25532D1*
X25709D2*
X25930D1*
X23840Y10035D2*
X24020D1*
X25453D2*
X25511D1*
X25720D2*
X25941D1*
X25490Y10005D2*
D3*
X25730D2*
X25954D1*
X25740Y9975D2*
X25970D1*
X25749Y9945D2*
X25913D1*
X25755Y9915D2*
X25853D1*
X25760Y9885D2*
X25790D1*
X23840Y17865D2*
X23746Y17835D1*
X23663Y17805D1*
X23590Y17775D1*
X23526Y17745D1*
X23472Y17715D1*
X23425Y17685D1*
X23383Y17655D1*
X23347Y17625D1*
X23318Y17595D1*
X23292Y17565D1*
X23266Y17535D1*
X23238Y17505D1*
X23209Y17475D1*
X23180Y17445D1*
X23151Y17415D1*
X23125Y17385D1*
X23102Y17355D1*
X23081Y17325D1*
X23060Y17295D1*
X23041Y17265D1*
X23024Y17235D1*
X23008Y17205D1*
X22993Y17175D1*
X22977Y17145D1*
X22959Y17115D1*
X22939Y17085D1*
X22921Y17055D1*
X22904Y17025D1*
X22888Y16995D1*
X22873Y16965D1*
X22858Y16935D1*
X22844Y16905D1*
X22831Y16875D1*
X22821Y16845D1*
X22809Y16815D1*
X22796Y16785D1*
X22783Y16755D1*
X22771Y16725D1*
X22758Y16695D1*
X22742Y16665D1*
X22708Y16635D1*
X22670Y16605D1*
X24230Y17865D2*
X24343Y17835D1*
X24442Y17805D1*
X24528Y17775D1*
X24604Y17745D1*
X24672Y17715D1*
X24732Y17685D1*
X24785Y17655D1*
X24833Y17625D1*
X24876Y17595D1*
X24915Y17565D1*
X24952Y17535D1*
X24991Y17505D1*
X25029Y17475D1*
X25064Y17445D1*
X25093Y17415D1*
X25117Y17385D1*
X25139Y17355D1*
X25160Y17325D1*
X25179Y17295D1*
X25196Y17265D1*
X25212Y17235D1*
X25227Y17205D1*
X25242Y17175D1*
X25256Y17145D1*
X25269Y17115D1*
X25279Y17085D1*
X25290Y17055D1*
X25299Y17025D1*
X25305Y16995D1*
X25309Y16965D1*
X25314Y16935D1*
X25322Y16905D1*
X25330Y16875D1*
X25335Y16845D1*
X25338Y16815D1*
X25339Y16785D1*
X25340Y16755D1*
X25339Y16725D1*
X25335Y16695D1*
X25328Y16665D1*
X25320Y16635D1*
X25315Y16605D1*
X25312Y16575D1*
X25310Y16545D1*
X25305Y16515D1*
X25298Y16485D1*
X25290Y16455D1*
X25284Y16425D1*
X25277Y16395D1*
X25269Y16365D1*
X25259Y16335D1*
X25250Y16305D1*
X25239Y16275D1*
X25226Y16245D1*
X25213Y16215D1*
X25201Y16185D1*
X25191Y16155D1*
X25179Y16125D1*
X25166Y16095D1*
X25152Y16065D1*
X25137Y16035D1*
X25122Y16005D1*
X25107Y15975D1*
X25093Y15945D1*
X25077Y15915D1*
X25062Y15885D1*
X25046Y15855D1*
X25029Y15825D1*
X25009Y15795D1*
X24990Y15765D1*
X24969Y15735D1*
X24946Y15705D1*
X24923Y15675D1*
X24902Y15645D1*
X24885Y15615D1*
X24867Y15585D1*
X24848Y15555D1*
X24825Y15525D1*
X24803Y15495D1*
X24781Y15465D1*
X24760Y15435D1*
X24736Y15405D1*
X24710Y15375D1*
X24770Y15345D1*
X24050Y17685D2*
X23937Y17655D1*
X23835Y17625D1*
X23748Y17595D1*
X23677Y17565D1*
X23618Y17535D1*
X23568Y17505D1*
X23524Y17475D1*
X23486Y17445D1*
X23450Y17415D1*
X23550Y17385D1*
X23631Y17355D1*
X23692Y17325D1*
X23737Y17295D1*
X23770Y17265D1*
X23795Y17235D1*
X23814Y17205D1*
X23832Y17175D1*
X23851Y17145D1*
X23870Y17115D1*
X23885Y17085D1*
X23898Y17055D1*
X23909Y17025D1*
X23919Y16995D1*
X23925Y16965D1*
X23928Y16935D1*
X23930Y16905D1*
X23936Y16875D1*
X23946Y16845D1*
X23960Y16815D1*
X23990Y17685D2*
X24128Y17655D1*
X24252Y17625D1*
X24357Y17595D1*
X24445Y17565D1*
X24519Y17535D1*
X24584Y17505D1*
X24643Y17475D1*
X24696Y17445D1*
X24744Y17415D1*
X24786Y17385D1*
X24824Y17355D1*
X24857Y17325D1*
X24889Y17295D1*
X24920Y17265D1*
X24949Y17235D1*
X24975Y17205D1*
X24997Y17175D1*
X25015Y17145D1*
X25032Y17115D1*
X25047Y17085D1*
X25062Y17055D1*
X25076Y17025D1*
X25089Y16995D1*
X25099Y16965D1*
X25110Y16935D1*
X25119Y16905D1*
X25125Y16875D1*
X25128Y16845D1*
X25129Y16815D1*
X25130Y16785D1*
Y16755D1*
Y16725D1*
Y16695D1*
X25129Y16665D1*
X25125Y16635D1*
X25118Y16605D1*
X25110Y16575D1*
X25104Y16545D1*
X25097Y16515D1*
X25089Y16485D1*
X25079Y16455D1*
X25070Y16425D1*
X25060Y16395D1*
X25050Y16365D1*
X25040Y16335D1*
X25029Y16305D1*
X25016Y16275D1*
X25002Y16245D1*
X24987Y16215D1*
X24972Y16185D1*
X24957Y16155D1*
X24942Y16125D1*
X24926Y16095D1*
X24909Y16065D1*
X24890Y16035D1*
X24875Y16005D1*
X24861Y15975D1*
X24846Y15945D1*
X24828Y15915D1*
X24809Y15885D1*
X24790Y15855D1*
X24770Y15825D1*
X24750Y15795D1*
X24729Y15765D1*
X24705Y15735D1*
X24679Y15705D1*
X24654Y15675D1*
X24632Y15645D1*
X24611Y15615D1*
X24590Y15585D1*
X24570Y15555D1*
X24549Y15525D1*
X24525Y15495D1*
X24498Y15465D1*
X24469Y15435D1*
X24440Y15405D1*
X24410Y15375D1*
X24380Y15345D1*
X24350Y15315D1*
X24320Y15285D1*
X24289Y15255D1*
X24255Y15225D1*
X24217Y15195D1*
X24175Y15165D1*
X24130Y15135D1*
X24082Y15105D1*
X24031Y15075D1*
X23982Y15045D1*
X23936Y15015D1*
X23891Y14985D1*
X23846Y14955D1*
X23799Y14925D1*
X23750Y14895D1*
X23270Y17175D2*
X23240Y17145D1*
X23211Y17115D1*
X23185Y17085D1*
X23163Y17055D1*
X23145Y17025D1*
X23128Y16995D1*
X23113Y16965D1*
X23098Y16935D1*
X23083Y16905D1*
X23068Y16875D1*
X23053Y16845D1*
X23038Y16815D1*
X23024Y16785D1*
X23013Y16755D1*
X23006Y16725D1*
X23004Y16695D1*
X23007Y16665D1*
X23016Y16635D1*
X23030Y16605D1*
X23540Y17175D2*
X23570Y17145D1*
X23599Y17115D1*
X23625Y17085D1*
X23647Y17055D1*
X23665Y17025D1*
X23681Y16995D1*
X23696Y16965D1*
X23708Y16935D1*
X23719Y16905D1*
X23730Y16875D1*
X23739Y16845D1*
X23744Y16815D1*
X23743Y16785D1*
X23737Y16755D1*
X23729Y16725D1*
X23720Y16695D1*
X23709Y16665D1*
X23695Y16635D1*
X23678Y16605D1*
X23659Y16575D1*
X23640Y16545D1*
X23617Y16515D1*
X23586Y16485D1*
X23533Y16455D1*
X23446Y16425D1*
X23323Y16395D1*
X23180Y16365D1*
X24200Y16935D2*
X24121Y16905D1*
X24051Y16875D1*
X23989Y16845D1*
X23930Y16815D1*
X24440Y16935D2*
X24516Y16905D1*
X24579Y16875D1*
X24630Y16845D1*
X24670Y16815D1*
X24701Y16785D1*
X24725Y16755D1*
X24745Y16725D1*
X24761Y16695D1*
X24776Y16665D1*
X24788Y16635D1*
X24799Y16605D1*
X24810Y16575D1*
X24819Y16545D1*
X24825Y16515D1*
X24828Y16485D1*
X24829Y16455D1*
X24830Y16425D1*
Y16395D1*
Y16365D1*
Y16335D1*
Y16305D1*
X24829Y16275D1*
X24825Y16245D1*
X24818Y16215D1*
X24810Y16185D1*
X24804Y16155D1*
X24797Y16125D1*
X24787Y16095D1*
X24775Y16065D1*
X24762Y16035D1*
X24747Y16005D1*
X24732Y15975D1*
X24716Y15945D1*
X24697Y15915D1*
X24674Y15885D1*
X24648Y15855D1*
X24620Y15825D1*
X24593Y15795D1*
X24566Y15765D1*
X24532Y15735D1*
X24490Y15705D1*
X24440Y15675D1*
X24379Y15645D1*
X24307Y15615D1*
X24230Y15585D1*
X23210Y16785D2*
X23154Y16755D1*
X23111Y16725D1*
X23080Y16695D1*
X23064Y16665D1*
X23048Y16635D1*
X23030Y16605D1*
X23300Y16755D2*
X23318Y16725D1*
X23334Y16695D1*
X23345Y16665D1*
X23352Y16635D1*
X23345Y16605D1*
X23333Y16575D1*
X23317Y16545D1*
X23277Y16515D1*
X23219Y16485D1*
X23150Y16455D1*
X23229Y16425D1*
X23332Y16395D1*
X23450Y16365D1*
X21620Y16725D2*
X21517Y16695D1*
X21424Y16665D1*
X21342Y16635D1*
X21271Y16605D1*
X21210Y16575D1*
X21159Y16545D1*
X21114Y16515D1*
X21070Y16485D1*
X21027Y16455D1*
X20983Y16425D1*
X20942Y16395D1*
X20906Y16365D1*
X20874Y16335D1*
X20846Y16305D1*
X20823Y16275D1*
X20800Y16245D1*
X20775Y16215D1*
X20749Y16185D1*
X20724Y16155D1*
X20702Y16125D1*
X20681Y16095D1*
X20660Y16065D1*
X20641Y16035D1*
X20624Y16005D1*
X20608Y15975D1*
X20593Y15945D1*
X20578Y15915D1*
X20564Y15885D1*
X20552Y15855D1*
X20545Y15825D1*
X20537Y15795D1*
X20529Y15765D1*
X20520Y15735D1*
X20515Y15705D1*
X20512Y15675D1*
X20511Y15645D1*
X20510Y15615D1*
Y15585D1*
Y15555D1*
Y15525D1*
Y15495D1*
Y15465D1*
Y15435D1*
Y15405D1*
Y15375D1*
Y15345D1*
Y15315D1*
Y15285D1*
X20511Y15255D1*
X20515Y15225D1*
X20522Y15195D1*
X20530Y15165D1*
X20536Y15135D1*
X20543Y15105D1*
X20551Y15075D1*
X20561Y15045D1*
X20570Y15015D1*
X20581Y14985D1*
X20594Y14955D1*
X20608Y14925D1*
X20623Y14895D1*
X20637Y14865D1*
X20649Y14835D1*
X20660Y14805D1*
X20675Y14775D1*
X20692Y14745D1*
X20710Y14715D1*
X20726Y14685D1*
X20743Y14655D1*
X20761Y14625D1*
X20781Y14595D1*
X20799Y14565D1*
X20816Y14535D1*
X20833Y14505D1*
X20852Y14475D1*
X20875Y14445D1*
X20899Y14415D1*
X20924Y14385D1*
X20953Y14355D1*
X20985Y14325D1*
X21017Y14295D1*
X21048Y14265D1*
X21074Y14235D1*
X21097Y14205D1*
X21119Y14175D1*
X21140Y14145D1*
X22340Y16725D2*
X22455Y16695D1*
X22568Y16665D1*
X22679Y16635D1*
X22790Y16605D1*
X24230Y16725D2*
X24171Y16695D1*
X24116Y16665D1*
X24068Y16635D1*
X24028Y16605D1*
X23994Y16575D1*
X23962Y16545D1*
X23936Y16515D1*
X23914Y16485D1*
X23895Y16455D1*
X23879Y16425D1*
X23864Y16395D1*
X23853Y16365D1*
X23846Y16335D1*
X23841Y16305D1*
X23836Y16275D1*
X23828Y16245D1*
X23821Y16215D1*
X23820Y16185D1*
X23824Y16155D1*
X23831Y16125D1*
X23837Y16095D1*
X23843Y16065D1*
X23853Y16035D1*
X23866Y16005D1*
X23883Y15975D1*
X23906Y15945D1*
X23935Y15915D1*
X23975Y15885D1*
X24044Y15855D1*
X24155Y15825D1*
X24290Y15795D1*
X24410Y16725D2*
X24463Y16695D1*
X24507Y16665D1*
X24538Y16635D1*
X24561Y16605D1*
X24576Y16575D1*
X24588Y16545D1*
X24599Y16515D1*
X24609Y16485D1*
X24615Y16455D1*
X24618Y16425D1*
X24619Y16395D1*
X24620Y16365D1*
Y16335D1*
X24619Y16305D1*
X24615Y16275D1*
X24608Y16245D1*
X24599Y16215D1*
X24590Y16185D1*
X24580Y16155D1*
X24570Y16125D1*
X24559Y16095D1*
X24544Y16065D1*
X24523Y16035D1*
X24497Y16005D1*
X24468Y15975D1*
X24434Y15945D1*
X24396Y15915D1*
X24346Y15885D1*
X24271Y15855D1*
X24157Y15825D1*
X24020Y15795D1*
X21920Y16545D2*
X21778Y16515D1*
X21651Y16485D1*
X21544Y16455D1*
X21455Y16425D1*
X21377Y16395D1*
X21308Y16365D1*
X21250Y16335D1*
X21199Y16305D1*
X21155Y16275D1*
X21117Y16245D1*
X21083Y16215D1*
X21051Y16185D1*
X21020Y16155D1*
X20990Y16125D1*
X20960Y16095D1*
X20930Y16065D1*
X20901Y16035D1*
X20875Y16005D1*
X20853Y15975D1*
X20835Y15945D1*
X20818Y15915D1*
X20803Y15885D1*
X20788Y15855D1*
X20774Y15825D1*
X20761Y15795D1*
X20751Y15765D1*
X20740Y15735D1*
X20731Y15705D1*
X20725Y15675D1*
X20721Y15645D1*
X20716Y15615D1*
X20708Y15585D1*
X20700Y15555D1*
X20695Y15525D1*
X20692Y15495D1*
X20691Y15465D1*
Y15435D1*
X20695Y15405D1*
X20702Y15375D1*
X20710Y15345D1*
X20715Y15315D1*
X20719Y15285D1*
X20724Y15255D1*
X20732Y15225D1*
X20741Y15195D1*
X20750Y15165D1*
X20760Y15135D1*
X20770Y15105D1*
X20780Y15075D1*
X20790Y15045D1*
X20800Y15015D1*
X20810Y14985D1*
X20821Y14955D1*
X20834Y14925D1*
X20848Y14895D1*
X20864Y14865D1*
X20882Y14835D1*
X20901Y14805D1*
X20923Y14775D1*
X20953Y14745D1*
X20997Y14715D1*
X21050Y14685D1*
X21800Y16545D2*
X21830Y16515D1*
X21860Y16485D1*
X21890Y16455D1*
X21919Y16425D1*
X21945Y16395D1*
X21968Y16365D1*
X21989Y16335D1*
X22010Y16305D1*
X22029Y16275D1*
X22045Y16245D1*
X22058Y16215D1*
X22069Y16185D1*
X22080Y16155D1*
X22090Y16125D1*
X22100Y16095D1*
X22110Y16065D1*
X22120Y16035D1*
X22130Y16005D1*
X22140Y15975D1*
X22149Y15945D1*
X22155Y15915D1*
X22158Y15885D1*
X22159Y15855D1*
X22160Y15825D1*
Y15795D1*
Y15765D1*
Y15735D1*
Y15705D1*
Y15675D1*
Y15645D1*
Y15615D1*
Y15585D1*
X22157Y15555D1*
X22150Y15525D1*
X22117Y15495D1*
X22038Y15465D1*
X21945Y15435D1*
X21850Y15405D1*
X21765Y15375D1*
X21691Y15345D1*
X21626Y15315D1*
X21568Y15285D1*
X21518Y15255D1*
X21474Y15225D1*
X21431Y15195D1*
X21391Y15165D1*
X21355Y15135D1*
X21322Y15105D1*
X21291Y15075D1*
X21260Y15045D1*
X21230Y15015D1*
X21201Y14985D1*
X21175Y14955D1*
X21153Y14925D1*
X21135Y14895D1*
X21118Y14865D1*
X21103Y14835D1*
X21087Y14805D1*
X21071Y14775D1*
X21051Y14745D1*
X21023Y14715D1*
X20990Y14685D1*
X22100Y16515D2*
X22129Y16485D1*
X22155Y16455D1*
X22177Y16425D1*
X22195Y16395D1*
X22212Y16365D1*
X22227Y16335D1*
X22242Y16305D1*
X22257Y16275D1*
X22272Y16245D1*
X22286Y16215D1*
X22299Y16185D1*
X22309Y16155D1*
X22320Y16125D1*
X22329Y16095D1*
X22336Y16065D1*
X22343Y16035D1*
X22351Y16005D1*
X22360Y15975D1*
X22365Y15945D1*
X22368Y15915D1*
X22369Y15885D1*
X22370Y15855D1*
Y15825D1*
Y15795D1*
Y15765D1*
Y15735D1*
Y15705D1*
Y15675D1*
Y15645D1*
Y15615D1*
Y15585D1*
Y15555D1*
Y15525D1*
X22520Y15495D1*
X22220Y16515D2*
X22334Y16485D1*
X22442Y16455D1*
X22540Y16425D1*
X22630Y16395D1*
X22710Y16365D1*
X22782Y16335D1*
X22850Y16305D1*
X22880Y16395D2*
Y16365D1*
Y16335D1*
Y16305D1*
X22910Y16395D2*
X22940Y16365D1*
X22970Y16335D1*
X23001Y16305D1*
X23037Y16275D1*
X23081Y16245D1*
X23140Y16215D1*
X23215Y16185D1*
X23300Y16155D1*
X24020Y16305D2*
X23974Y16275D1*
X23941Y16245D1*
X23916Y16215D1*
X23908Y16185D1*
X23903Y16155D1*
Y16125D1*
X23907Y16095D1*
X23919Y16065D1*
X23938Y16035D1*
X23960Y16005D1*
X24050Y16305D2*
X24103Y16275D1*
X24142Y16245D1*
X24168Y16215D1*
X24187Y16185D1*
X24192Y16155D1*
X24194Y16125D1*
X24181Y16095D1*
X24161Y16065D1*
X24137Y16035D1*
X24110Y16005D1*
X23630Y16215D2*
X23510Y16185D1*
X23390Y16155D1*
X23630Y16215D2*
Y16185D1*
Y16155D1*
Y16125D1*
Y16095D1*
Y16065D1*
X23631Y16035D1*
X23635Y16005D1*
X23643Y15975D1*
X23655Y15945D1*
X23668Y15915D1*
X23683Y15885D1*
X23698Y15855D1*
X23714Y15825D1*
X23733Y15795D1*
X23757Y15765D1*
X23788Y15735D1*
X23825Y15705D1*
X23868Y15675D1*
X23920Y15645D1*
X23982Y15615D1*
X24050Y15585D1*
X23330Y15855D2*
X23318Y15825D1*
X23305Y15795D1*
X23287Y15765D1*
X23264Y15735D1*
X23236Y15705D1*
X23201Y15675D1*
X23151Y15645D1*
X23068Y15615D1*
X22931Y15585D1*
X22717Y15555D1*
X22428Y15525D1*
X22100Y15495D1*
X23360Y15855D2*
X23417Y15825D1*
X23466Y15795D1*
X23505Y15765D1*
X23520Y15735D1*
X23504Y15705D1*
X23487Y15675D1*
X23468Y15645D1*
X23444Y15615D1*
X23418Y15585D1*
X23389Y15555D1*
X23360Y15525D1*
X23328Y15495D1*
X23292Y15465D1*
X23242Y15435D1*
X23166Y15405D1*
X23050Y15375D1*
X22886Y15345D1*
X22699Y15315D1*
X22535Y15285D1*
X22424Y15255D1*
X22349Y15225D1*
X22327Y15195D1*
X22313Y15165D1*
X22301Y15135D1*
X22290Y15105D1*
X22280Y15075D1*
X22270Y15045D1*
X22260Y15015D1*
X22250Y14985D1*
X22239Y14955D1*
X22225Y14925D1*
X22209Y14895D1*
X22190Y14865D1*
X22430Y14835D1*
X25490Y15465D2*
X25259Y15435D1*
X25027Y15405D1*
X24783Y15375D1*
X24530Y15345D1*
X26270Y15465D2*
X26459Y15435D1*
X26625Y15405D1*
X26762Y15375D1*
X26874Y15345D1*
X26968Y15315D1*
X27051Y15285D1*
X27125Y15255D1*
X27192Y15225D1*
X27251Y15195D1*
X27302Y15165D1*
X27347Y15135D1*
X27394Y15105D1*
X27441Y15075D1*
X27484Y15045D1*
X27523Y15015D1*
X27557Y14985D1*
X27589Y14955D1*
X27621Y14925D1*
X27656Y14895D1*
X27696Y14865D1*
X27740Y14835D1*
X25850Y15285D2*
X25820Y15255D1*
X25970Y15285D2*
X26000Y15255D1*
X22160D2*
X22047Y15225D1*
X21945Y15195D1*
X21857Y15165D1*
X21783Y15135D1*
X21722Y15105D1*
X21676Y15075D1*
X21644Y15045D1*
X21620Y15015D1*
X21681Y14985D1*
X21749Y14955D1*
X21830Y14925D1*
X21930Y14895D1*
X22040Y14865D1*
X22100Y15255D2*
X22095Y15225D1*
X22088Y15195D1*
X22080Y15165D1*
X22074Y15135D1*
X22067Y15105D1*
X22057Y15075D1*
X22045Y15045D1*
X22033Y15015D1*
X22021Y14985D1*
X22007Y14955D1*
X21988Y14925D1*
X21943Y14895D1*
X21890Y14865D1*
X25580Y15255D2*
X25377Y15225D1*
X25185Y15195D1*
X25008Y15165D1*
X24848Y15135D1*
X24702Y15105D1*
X24566Y15075D1*
X24437Y15045D1*
X24314Y15015D1*
X24195Y14985D1*
X24077Y14955D1*
X23959Y14925D1*
X23840Y14895D1*
X26210Y15255D2*
X26378Y15225D1*
X26532Y15195D1*
X26666Y15165D1*
X26780Y15135D1*
X26876Y15105D1*
X26959Y15075D1*
X27035Y15045D1*
X27102Y15015D1*
X27162Y14985D1*
X27215Y14955D1*
X27263Y14925D1*
X27306Y14895D1*
X27345Y14865D1*
X27382Y14835D1*
X27421Y14805D1*
X27459Y14775D1*
X27495Y14745D1*
X27528Y14715D1*
X27558Y14685D1*
X27585Y14655D1*
X27608Y14625D1*
X27629Y14595D1*
X27650Y14565D1*
X27669Y14535D1*
X27686Y14505D1*
X27703Y14475D1*
X27721Y14445D1*
X27741Y14415D1*
X27759Y14385D1*
X27776Y14355D1*
X27792Y14325D1*
X27806Y14295D1*
X27818Y14265D1*
X27829Y14235D1*
X27840Y14205D1*
X27850Y14175D1*
X27860Y14145D1*
X27870Y14115D1*
X27880Y14085D1*
X27890Y14055D1*
X27900Y14025D1*
X27909Y13995D1*
X27915Y13965D1*
X27919Y13935D1*
X27924Y13905D1*
X27932Y13875D1*
X27940Y13845D1*
X27945Y13815D1*
X27948Y13785D1*
X27949Y13755D1*
X27951Y13725D1*
X27955Y13695D1*
X27962Y13665D1*
X27970Y13635D1*
X27975Y13605D1*
X27978Y13575D1*
X27979Y13545D1*
X27980Y13515D1*
Y13485D1*
Y13455D1*
Y13425D1*
Y13395D1*
Y13365D1*
Y13335D1*
Y13305D1*
Y13275D1*
X27979Y13245D1*
X27975Y13215D1*
X27968Y13185D1*
X27960Y13155D1*
X27955Y13125D1*
X27952Y13095D1*
X27950Y13065D1*
X27945Y13035D1*
X27938Y13005D1*
X27930Y12975D1*
X27924Y12945D1*
X27917Y12915D1*
X27909Y12885D1*
X27899Y12855D1*
X27890Y12825D1*
X27880Y12795D1*
X27870Y12765D1*
X27859Y12735D1*
X27845Y12705D1*
X27829Y12675D1*
X27814Y12645D1*
X27801Y12615D1*
X27786Y12585D1*
X27768Y12555D1*
X27750Y12525D1*
X27734Y12495D1*
X27718Y12465D1*
X27703Y12435D1*
X27686Y12405D1*
X27667Y12375D1*
X27644Y12345D1*
X27618Y12315D1*
X27590Y12285D1*
X27565Y12255D1*
X27542Y12225D1*
X27520Y12195D1*
X27495Y12165D1*
X27468Y12135D1*
X27438Y12105D1*
X27405Y12075D1*
X27368Y12045D1*
X27329Y12015D1*
X27290Y11985D1*
X27250Y11955D1*
X27210Y11925D1*
X27170Y11895D1*
X27129Y11865D1*
X27085Y11835D1*
X27038Y11805D1*
X26989Y11775D1*
X26938Y11745D1*
X26884Y11715D1*
X26821Y11685D1*
X26753Y11655D1*
X26681Y11625D1*
X26606Y11595D1*
X26527Y11565D1*
X26443Y11535D1*
X26350Y11505D1*
X26243Y11475D1*
X26110Y11445D1*
X25931Y11415D1*
X25669Y11385D1*
X25307Y11355D1*
X24890Y11325D1*
X23180Y15045D2*
X23084Y15015D1*
X22982Y14985D1*
X22869Y14955D1*
X22739Y14925D1*
X22567Y14895D1*
X22337Y14865D1*
X22070Y14835D1*
X23270Y15045D2*
X23280Y15015D1*
X23290Y14985D1*
X23300Y14955D1*
X23309Y14925D1*
X23316Y14895D1*
X23307Y14865D1*
X23279Y14835D1*
X23246Y14805D1*
X23212Y14775D1*
X23178Y14745D1*
X23143Y14715D1*
X23113Y14685D1*
X23085Y14655D1*
X23058Y14625D1*
X23034Y14595D1*
X23013Y14565D1*
X22995Y14535D1*
X22978Y14505D1*
X22963Y14475D1*
X22948Y14445D1*
X22934Y14415D1*
X22921Y14385D1*
X22911Y14355D1*
X22900Y14325D1*
X22890Y14295D1*
X22880Y14265D1*
X22870Y14235D1*
X22861Y14205D1*
X22854Y14175D1*
X22847Y14145D1*
X22839Y14115D1*
X22830Y14085D1*
X22825Y14055D1*
X22822Y14025D1*
X22821Y13995D1*
X22819Y13965D1*
X22815Y13935D1*
X22808Y13905D1*
X22800Y13875D1*
X22795Y13845D1*
X22792Y13815D1*
X22791Y13785D1*
X22790Y13755D1*
Y13725D1*
Y13695D1*
Y13665D1*
X22791Y13635D1*
X22795Y13605D1*
X22802Y13575D1*
X22810Y13545D1*
X22815Y13515D1*
X22818Y13485D1*
X22819Y13455D1*
X22820Y13425D1*
X22821Y13395D1*
X22825Y13365D1*
X22832Y13335D1*
X22840Y13305D1*
X22845Y13275D1*
X22848Y13245D1*
X22850Y13215D1*
X22855Y13185D1*
X22862Y13155D1*
X22870Y13125D1*
X22875Y13095D1*
X22879Y13065D1*
X22884Y13035D1*
X22892Y13005D1*
X22901Y12975D1*
X22910Y12945D1*
X22920Y12915D1*
X22929Y12885D1*
X22936Y12855D1*
X22943Y12825D1*
X22952Y12795D1*
X22965Y12765D1*
X22977Y12735D1*
X22989Y12705D1*
X22999Y12675D1*
X23011Y12645D1*
X23024Y12615D1*
X23038Y12585D1*
X23053Y12555D1*
X23068Y12525D1*
X23083Y12495D1*
X23098Y12465D1*
X23114Y12435D1*
X23132Y12405D1*
X23155Y12375D1*
X23177Y12345D1*
X23199Y12315D1*
X23220Y12285D1*
X23244Y12255D1*
X23267Y12225D1*
X23289Y12195D1*
X23310Y12165D1*
X23335Y12135D1*
X23362Y12105D1*
X23391Y12075D1*
X23421Y12045D1*
X23455Y12015D1*
X23492Y11985D1*
X23530Y11955D1*
X23565Y11925D1*
X23599Y11895D1*
X23634Y11865D1*
X23673Y11835D1*
X23716Y11805D1*
X23762Y11775D1*
X23812Y11745D1*
X23865Y11715D1*
X23923Y11685D1*
X23986Y11655D1*
X24052Y11625D1*
X24122Y11595D1*
X24196Y11565D1*
X24275Y11535D1*
X24363Y11505D1*
X24464Y11475D1*
X24588Y11445D1*
X24760Y11415D1*
X25016Y11385D1*
X25375Y11355D1*
X25790Y11325D1*
X28100Y15045D2*
X28026Y15015D1*
X27959Y14985D1*
X27898Y14955D1*
X27842Y14925D1*
X27785Y14895D1*
X27720Y14865D1*
X27650Y14835D1*
X28910Y15045D2*
X28969Y15015D1*
X29025Y14985D1*
X29077Y14955D1*
X29124Y14925D1*
X29166Y14895D1*
X29203Y14865D1*
X29232Y14835D1*
X29257Y14805D1*
X29280Y14775D1*
X29305Y14745D1*
X29332Y14715D1*
X29360Y14685D1*
X29385Y14655D1*
X29408Y14625D1*
X29429Y14595D1*
X29450Y14565D1*
X29469Y14535D1*
X29486Y14505D1*
X29502Y14475D1*
X29516Y14445D1*
X29527Y14415D1*
X29534Y14385D1*
X29539Y14355D1*
X29544Y14325D1*
X29552Y14295D1*
X29560Y14265D1*
X29566Y14235D1*
X29574Y14205D1*
X29585Y14175D1*
X29600Y14145D1*
X21410Y14865D2*
X21381Y14835D1*
X21355Y14805D1*
X21332Y14775D1*
X21311Y14745D1*
X21290Y14715D1*
X21271Y14685D1*
X21254Y14655D1*
X21238Y14625D1*
X21224Y14595D1*
X21212Y14565D1*
X21201Y14535D1*
X21190Y14505D1*
X21181Y14475D1*
X21175Y14445D1*
X21172Y14415D1*
X21171Y14385D1*
X21170Y14355D1*
Y14325D1*
Y14295D1*
Y14265D1*
Y14235D1*
Y14205D1*
Y14175D1*
Y14145D1*
X21410Y14865D2*
X21470Y14835D1*
X21530Y14805D1*
X21591Y14775D1*
X21658Y14745D1*
X21736Y14715D1*
X21833Y14685D1*
X21947Y14655D1*
X22070Y14625D1*
X28430Y14865D2*
X28293Y14835D1*
X28173Y14805D1*
X28076Y14775D1*
X28002Y14745D1*
X27946Y14715D1*
X27902Y14685D1*
X27882Y14655D1*
Y14625D1*
X27896Y14595D1*
X27911Y14565D1*
X27927Y14535D1*
X27942Y14505D1*
X27956Y14475D1*
X27969Y14445D1*
X27979Y14415D1*
X27991Y14385D1*
X28004Y14355D1*
X28017Y14325D1*
X28029Y14295D1*
X28039Y14265D1*
X28050Y14235D1*
X28060Y14205D1*
X28070Y14175D1*
X28080Y14145D1*
X28089Y14115D1*
X28096Y14085D1*
X28103Y14055D1*
X28111Y14025D1*
X28120Y13995D1*
X28125Y13965D1*
X28128Y13935D1*
X28130Y13905D1*
X28135Y13875D1*
X28142Y13845D1*
X28150Y13815D1*
X28155Y13785D1*
X28158Y13755D1*
X28159Y13725D1*
X28160Y13695D1*
Y13665D1*
Y13635D1*
Y13605D1*
Y13575D1*
Y13545D1*
Y13515D1*
Y13485D1*
Y13455D1*
Y13425D1*
Y13395D1*
Y13365D1*
Y13335D1*
Y13305D1*
Y13275D1*
Y13245D1*
X28161Y13215D1*
X28166Y13185D1*
X28176Y13155D1*
X28190Y13125D1*
X28580Y14865D2*
X28712Y14835D1*
X28824Y14805D1*
X28909Y14775D1*
X28971Y14745D1*
X29018Y14715D1*
X29055Y14685D1*
X29088Y14655D1*
X29119Y14625D1*
X29150Y14595D1*
X29180Y14565D1*
X29210Y14535D1*
X29240Y14505D1*
X29117Y14475D1*
X29009Y14445D1*
X28919Y14415D1*
X28844Y14385D1*
X28785Y14355D1*
X28737Y14325D1*
X28694Y14295D1*
X28657Y14265D1*
X28628Y14235D1*
X28602Y14205D1*
X28577Y14175D1*
X28553Y14145D1*
X28531Y14115D1*
X28510Y14085D1*
X28485Y14055D1*
X28459Y14025D1*
X28435Y13995D1*
X28418Y13965D1*
X28407Y13935D1*
X28400Y13905D1*
X22880Y14715D2*
X22724Y14685D1*
X22564Y14655D1*
X22400Y14625D1*
X22820Y14715D2*
X22815Y14685D1*
X22807Y14655D1*
X22795Y14625D1*
X22782Y14595D1*
X22767Y14565D1*
X22752Y14535D1*
X22738Y14505D1*
X22724Y14475D1*
X22711Y14445D1*
X22701Y14415D1*
X22690Y14385D1*
X22681Y14355D1*
X22675Y14325D1*
X22671Y14295D1*
X22666Y14265D1*
X22658Y14235D1*
X22650Y14205D1*
X22645Y14175D1*
X22641Y14145D1*
X22636Y14115D1*
X22628Y14085D1*
X22620Y14055D1*
X22615Y14025D1*
X22612Y13995D1*
X22611Y13965D1*
X22610Y13935D1*
Y13905D1*
Y13875D1*
Y13845D1*
Y13815D1*
Y13785D1*
Y13755D1*
Y13725D1*
Y13695D1*
Y13665D1*
Y13635D1*
Y13605D1*
Y13575D1*
Y13545D1*
Y13515D1*
Y13485D1*
Y13455D1*
X22611Y13425D1*
X22615Y13395D1*
X22622Y13365D1*
X22630Y13335D1*
X22635Y13305D1*
X22638Y13275D1*
X22640Y13245D1*
X22645Y13215D1*
X22652Y13185D1*
X22660Y13155D1*
X22665Y13125D1*
X22668Y13095D1*
X22669Y13065D1*
X22671Y13035D1*
X22675Y13005D1*
X22682Y12975D1*
X22690Y12945D1*
X22696Y12915D1*
X22703Y12885D1*
X22711Y12855D1*
X22721Y12825D1*
X22730Y12795D1*
X22740Y12765D1*
X22750Y12735D1*
X22760Y12705D1*
X22770Y12675D1*
X22780Y12645D1*
X22790Y12615D1*
X22801Y12585D1*
X22814Y12555D1*
X22828Y12525D1*
X22843Y12495D1*
X22858Y12465D1*
X22873Y12435D1*
X22888Y12405D1*
X22904Y12375D1*
X22921Y12345D1*
X22941Y12315D1*
X22959Y12285D1*
X22976Y12255D1*
X22993Y12225D1*
X23011Y12195D1*
X23031Y12165D1*
X23050Y12135D1*
X23071Y12105D1*
X23095Y12075D1*
X23122Y12045D1*
X23151Y12015D1*
X23180Y11985D1*
X23210Y11955D1*
X23240Y11925D1*
X23270Y11895D1*
X23300Y11865D1*
X23330Y11835D1*
X23360Y11805D1*
X23391Y11775D1*
X23425Y11745D1*
X23463Y11715D1*
X23505Y11685D1*
X23548Y11655D1*
X23593Y11625D1*
X23638Y11595D1*
X23684Y11565D1*
X23732Y11535D1*
X23784Y11505D1*
X23835Y11475D1*
X23876Y11445D1*
X23908Y11415D1*
X23920Y11385D1*
X23925Y11355D1*
X23927Y11325D1*
X23924Y11295D1*
X23918Y11265D1*
X23910Y11235D1*
X23905Y11205D1*
X23902Y11175D1*
X23901Y11145D1*
X23900Y11115D1*
Y11085D1*
Y11055D1*
Y11025D1*
Y10995D1*
Y10965D1*
Y10935D1*
X23899Y10905D1*
X23895Y10875D1*
X23888Y10845D1*
X23880Y10815D1*
X23874Y10785D1*
X23866Y10755D1*
X23854Y10725D1*
X23828Y10695D1*
X23795Y10665D1*
X23758Y10635D1*
X23719Y10605D1*
X23680Y10575D1*
X23641Y10545D1*
X23604Y10515D1*
X23567Y10485D1*
X23529Y10455D1*
X23490Y10425D1*
X23455Y10395D1*
X23424Y10365D1*
X23398Y10335D1*
X23380Y10305D1*
X23382Y10275D1*
X23401Y10245D1*
X23424Y10215D1*
X23452Y10185D1*
X23480Y10155D1*
X29150Y14265D2*
X29071Y14235D1*
X29002Y14205D1*
X28940Y14175D1*
X28998Y14145D1*
X29046Y14115D1*
X29087Y14085D1*
X29125Y14055D1*
X29157Y14025D1*
X29184Y13995D1*
X29207Y13965D1*
X29224Y13935D1*
X29237Y13905D1*
X29249Y13875D1*
X29260Y13845D1*
X29270Y13815D1*
X29281Y13785D1*
X29294Y13755D1*
X29307Y13725D1*
X29319Y13695D1*
X29329Y13665D1*
X29340Y13635D1*
X29350Y13605D1*
X29360Y13575D1*
Y14265D2*
X29415Y14235D1*
X29468Y14205D1*
X29519Y14175D1*
X29570Y14145D1*
X26330Y14055D2*
X26286Y14025D1*
X26248Y13995D1*
X26213Y13965D1*
X26180Y13935D1*
X26210Y13905D1*
X26240Y13875D1*
X26270Y13845D1*
X26300Y13815D1*
X26330Y13785D1*
X26360Y13755D1*
X26390Y13725D1*
X26420Y13695D1*
X26450Y13665D1*
X26480Y13635D1*
X26510Y13605D1*
X26541Y13575D1*
X26575Y13545D1*
X26613Y13515D1*
X26655Y13485D1*
X26699Y13455D1*
X26744Y13425D1*
X26793Y13395D1*
X26845Y13365D1*
X26900Y13335D1*
X26860Y13305D1*
X26821Y13275D1*
X26785Y13245D1*
X26751Y13215D1*
X26716Y13185D1*
X26678Y13155D1*
X26639Y13125D1*
X26600Y13095D1*
X26559Y13065D1*
X26516Y13035D1*
X26473Y13005D1*
X26432Y12975D1*
X26396Y12945D1*
X26361Y12915D1*
X26326Y12885D1*
X26287Y12855D1*
X26245Y12825D1*
X26201Y12795D1*
X26156Y12765D1*
X26107Y12735D1*
X26054Y12705D1*
X25997Y12675D1*
X25938Y12645D1*
X25873Y12615D1*
X25801Y12585D1*
X25721Y12555D1*
X25633Y12525D1*
X25530Y12495D1*
X25404Y12465D1*
X25257Y12435D1*
X25100Y12405D1*
X26360Y14055D2*
X26390Y14025D1*
X26420Y13995D1*
X26450Y13965D1*
X26480Y13935D1*
X26510Y13905D1*
X26540Y13875D1*
X26570Y13845D1*
X26600Y13815D1*
X26631Y13785D1*
X26665Y13755D1*
X26703Y13725D1*
X26746Y13695D1*
X26794Y13665D1*
X26846Y13635D1*
X26903Y13605D1*
X26961Y13575D1*
X27022Y13545D1*
X27085Y13515D1*
X27152Y13485D1*
X27220Y13455D1*
X27286Y13425D1*
X27350Y13395D1*
X27310Y13365D1*
X27270Y13335D1*
X27230Y13305D1*
X27190Y13275D1*
X27151Y13245D1*
X27114Y13215D1*
X27077Y13185D1*
X27039Y13155D1*
X27000Y13125D1*
X26964Y13095D1*
X26927Y13065D1*
X26888Y13035D1*
X26845Y13005D1*
X26803Y12975D1*
X26762Y12945D1*
X26725Y12915D1*
X26687Y12885D1*
X26649Y12855D1*
X26609Y12825D1*
X26570Y12795D1*
X26530Y12765D1*
X26491Y12735D1*
X26454Y12705D1*
X26417Y12675D1*
X26378Y12645D1*
X26335Y12615D1*
X26292Y12585D1*
X26246Y12555D1*
X26197Y12525D1*
X26144Y12495D1*
X26087Y12465D1*
X26028Y12435D1*
X25963Y12405D1*
X25891Y12375D1*
X25810Y12345D1*
X25720Y12315D1*
X25614Y12285D1*
X25482Y12255D1*
X25316Y12225D1*
X25130Y12195D1*
X24290Y14025D2*
X24246Y13995D1*
X24208Y13965D1*
X24173Y13935D1*
X24142Y13905D1*
X24115Y13875D1*
X24092Y13845D1*
X24071Y13815D1*
X24050Y13785D1*
X24030Y13755D1*
X24010Y13725D1*
X23990Y13695D1*
X23971Y13665D1*
X23955Y13635D1*
X23943Y13605D1*
X23935Y13575D1*
X23928Y13545D1*
X23919Y13515D1*
X23910Y13485D1*
X23905Y13455D1*
X23902Y13425D1*
X23900Y13395D1*
X23895Y13365D1*
X23888Y13335D1*
X23880Y13305D1*
X23875Y13275D1*
X23872Y13245D1*
X23871Y13215D1*
Y13185D1*
X23875Y13155D1*
X23882Y13125D1*
X23890Y13095D1*
X23895Y13065D1*
X23898Y13035D1*
X23900Y13005D1*
X23905Y12975D1*
X23912Y12945D1*
X23920Y12915D1*
X23926Y12885D1*
X23933Y12855D1*
X23943Y12825D1*
X23955Y12795D1*
X23968Y12765D1*
X23984Y12735D1*
X24003Y12705D1*
X24026Y12675D1*
X24052Y12645D1*
X24081Y12615D1*
X24110Y12585D1*
X24140Y12555D1*
X24170Y12525D1*
X24200Y12495D1*
X24231Y12465D1*
X24266Y12435D1*
X24310Y12405D1*
X24363Y12375D1*
X24427Y12345D1*
X24499Y12315D1*
X24588Y12285D1*
X24710Y12255D1*
X24877Y12225D1*
X25070Y12195D1*
X24350Y14025D2*
X24369Y13995D1*
X24386Y13965D1*
X24401Y13935D1*
X24414Y13905D1*
X24421Y13875D1*
X24408Y13845D1*
X24380Y13815D1*
X24351Y13785D1*
X24321Y13755D1*
X24290Y13725D1*
X24261Y13695D1*
X24235Y13665D1*
X24213Y13635D1*
X24195Y13605D1*
X24178Y13575D1*
X24163Y13545D1*
X24148Y13515D1*
X24134Y13485D1*
X24121Y13455D1*
X24111Y13425D1*
X24100Y13395D1*
X24091Y13365D1*
X24085Y13335D1*
X24082Y13305D1*
X24081Y13275D1*
X24080Y13245D1*
Y13215D1*
Y13185D1*
Y13155D1*
X24081Y13125D1*
X24085Y13095D1*
X24092Y13065D1*
X24101Y13035D1*
X24110Y13005D1*
X24121Y12975D1*
X24134Y12945D1*
X24148Y12915D1*
X24163Y12885D1*
X24178Y12855D1*
X24194Y12825D1*
X24213Y12795D1*
X24236Y12765D1*
X24263Y12735D1*
X24292Y12705D1*
X24325Y12675D1*
X24364Y12645D1*
X24406Y12615D1*
X24455Y12585D1*
X24513Y12555D1*
X24584Y12525D1*
X24672Y12495D1*
X24781Y12465D1*
X24906Y12435D1*
X25040Y12405D1*
X28760Y13995D2*
X28640Y13965D1*
X28520Y13935D1*
X28400Y13905D1*
X28820Y13995D2*
X28880Y13965D1*
X28940Y13935D1*
X28896Y13905D1*
X28858Y13875D1*
X28823Y13845D1*
X28792Y13815D1*
X28765Y13785D1*
X28742Y13755D1*
X28721Y13725D1*
X28700Y13695D1*
X28681Y13665D1*
X28665Y13635D1*
X28652Y13605D1*
X28641Y13575D1*
X28630Y13545D1*
X28620Y13515D1*
X28609Y13485D1*
X28594Y13455D1*
X28573Y13425D1*
X28547Y13395D1*
X28519Y13365D1*
X28489Y13335D1*
X28459Y13305D1*
X28425Y13275D1*
X28385Y13245D1*
X28336Y13215D1*
X28272Y13185D1*
X28191Y13155D1*
X28100Y13125D1*
X29000Y13725D2*
X28971Y13695D1*
X28945Y13665D1*
X28923Y13635D1*
X28905Y13605D1*
X28888Y13575D1*
X28873Y13545D1*
X28858Y13515D1*
X28844Y13485D1*
X28831Y13455D1*
X28820Y13425D1*
X28805Y13395D1*
X28788Y13365D1*
X28769Y13335D1*
X28750Y13305D1*
X28730Y13275D1*
X28710Y13245D1*
X28689Y13215D1*
X28665Y13185D1*
X28637Y13155D1*
X28604Y13125D1*
X28567Y13095D1*
X28528Y13065D1*
X28483Y13035D1*
X28426Y13005D1*
X28349Y12975D1*
X28247Y12945D1*
X28130Y12915D1*
X28120Y12885D1*
X28111Y12855D1*
X28104Y12825D1*
X28097Y12795D1*
X28089Y12765D1*
X28079Y12735D1*
X28070Y12705D1*
X28059Y12675D1*
X28046Y12645D1*
X28032Y12615D1*
X28017Y12585D1*
X28003Y12555D1*
X27991Y12525D1*
X27981Y12495D1*
X27969Y12465D1*
X27955Y12435D1*
X27938Y12405D1*
X27919Y12375D1*
X27900Y12345D1*
X27880Y12315D1*
X27860Y12285D1*
X27840Y12255D1*
X27819Y12225D1*
X27796Y12195D1*
X27773Y12165D1*
X27751Y12135D1*
X27730Y12105D1*
X27705Y12075D1*
X27678Y12045D1*
X27649Y12015D1*
X27620Y11985D1*
X27590Y11955D1*
X27560Y11925D1*
X27529Y11895D1*
X27495Y11865D1*
X27458Y11835D1*
X27420Y11805D1*
X27384Y11775D1*
X27347Y11745D1*
X27307Y11715D1*
X27264Y11685D1*
X27217Y11655D1*
X27165Y11625D1*
X27112Y11595D1*
X27061Y11565D1*
X27010Y11535D1*
X26955Y11505D1*
X26898Y11475D1*
X26838Y11445D1*
X26774Y11415D1*
X26705Y11385D1*
X26629Y11355D1*
X26543Y11325D1*
X26447Y11295D1*
X26341Y11265D1*
X26219Y11235D1*
X26074Y11205D1*
X25908Y11175D1*
X25730Y11145D1*
Y11115D1*
Y11085D1*
Y11055D1*
X25731Y11025D1*
X25735Y10995D1*
X25742Y10965D1*
X25750Y10935D1*
X25755Y10905D1*
X25758Y10875D1*
X25759Y10845D1*
X25760Y10815D1*
Y10785D1*
Y10755D1*
Y10725D1*
Y10695D1*
Y10665D1*
X25762Y10635D1*
X25776Y10605D1*
X25832Y10575D1*
X25912Y10545D1*
X26009Y10515D1*
X26113Y10485D1*
X26218Y10455D1*
X26315Y10425D1*
X26391Y10395D1*
X26446Y10365D1*
X26466Y10335D1*
X26472Y10305D1*
X26466Y10275D1*
X26459Y10245D1*
X26454Y10215D1*
X26450Y10185D1*
X29090Y13725D2*
X29144Y13695D1*
X29193Y13665D1*
X29238Y13635D1*
X29283Y13605D1*
X29330Y13575D1*
X24110Y11355D2*
Y11325D1*
Y11295D1*
Y11265D1*
Y11235D1*
Y11205D1*
Y11175D1*
Y11145D1*
Y11115D1*
Y11085D1*
X24109Y11055D1*
X24105Y11025D1*
X24098Y10995D1*
X24090Y10965D1*
X24085Y10935D1*
X24082Y10905D1*
X24081Y10875D1*
X24080Y10845D1*
Y10815D1*
Y10785D1*
Y10755D1*
X24082Y10725D1*
X24088Y10695D1*
X24110Y10665D1*
X24138Y10635D1*
X24168Y10605D1*
X24199Y10575D1*
X24230Y10545D1*
X24260Y10515D1*
X24290Y10485D1*
X24320Y10455D1*
X24351Y10425D1*
X24385Y10395D1*
X24422Y10365D1*
X24460Y10335D1*
X24494Y10305D1*
X24521Y10275D1*
X24543Y10245D1*
X24549Y10215D1*
X24542Y10185D1*
X24521Y10155D1*
X24496Y10125D1*
X24469Y10095D1*
X24440Y10065D1*
X24080Y11355D2*
X24171Y11325D1*
X24266Y11295D1*
X24370Y11265D1*
X24487Y11235D1*
X24624Y11205D1*
X24781Y11175D1*
X24950Y11145D1*
X25520D2*
Y11115D1*
Y11085D1*
Y11055D1*
X25521Y11025D1*
X25525Y10995D1*
X25532Y10965D1*
X25540Y10935D1*
X25545Y10905D1*
X25548Y10875D1*
X25549Y10845D1*
X25550Y10815D1*
Y10785D1*
Y10755D1*
Y10725D1*
Y10695D1*
Y10665D1*
X25551Y10635D1*
X25555Y10605D1*
X25562Y10575D1*
X25569Y10545D1*
X25570Y10515D1*
X25564Y10485D1*
X25553Y10455D1*
X25537Y10425D1*
X25519Y10395D1*
X25500Y10365D1*
X25479Y10335D1*
X25455Y10305D1*
X25428Y10275D1*
X25400Y10245D1*
X25376Y10215D1*
X25356Y10185D1*
X25350Y10155D1*
X25358Y10125D1*
X25384Y10095D1*
X25416Y10065D1*
X25453Y10035D1*
X25490Y10005D1*
X23810Y10395D2*
X23775Y10365D1*
X23738Y10335D1*
X23700Y10305D1*
X23664Y10275D1*
X23627Y10245D1*
X23588Y10215D1*
X23549Y10185D1*
X23510Y10155D1*
X23840Y10395D2*
Y10365D1*
Y10335D1*
Y10305D1*
Y10275D1*
Y10245D1*
Y10215D1*
Y10185D1*
Y10155D1*
Y10125D1*
Y10095D1*
Y10065D1*
Y10035D1*
X24050Y10395D2*
Y10365D1*
Y10335D1*
Y10305D1*
Y10275D1*
Y10245D1*
X24049Y10215D1*
X24045Y10185D1*
X24038Y10155D1*
X24030Y10125D1*
X24025Y10095D1*
X24022Y10065D1*
X24020Y10035D1*
X24080Y10395D2*
X24110Y10365D1*
X24140Y10335D1*
X24170Y10305D1*
X24200Y10275D1*
X24230Y10245D1*
X24260Y10215D1*
X24290Y10185D1*
X24321Y10155D1*
X24356Y10125D1*
X24396Y10095D1*
X24440Y10065D1*
X25820Y10305D2*
X25844Y10275D1*
X25863Y10245D1*
X25877Y10215D1*
X25889Y10185D1*
X25900Y10155D1*
X25910Y10125D1*
X25920Y10095D1*
X25930Y10065D1*
X25941Y10035D1*
X25954Y10005D1*
X25970Y9975D1*
X25913Y9945D1*
X25853Y9915D1*
X25790Y9885D1*
X25940Y10305D2*
X26036Y10275D1*
X26138Y10245D1*
X26248Y10215D1*
X26360Y10185D1*
X25640D2*
X25610Y10155D1*
X25581Y10125D1*
X25555Y10095D1*
X25532Y10065D1*
X25511Y10035D1*
X25490Y10005D1*
X25640Y10185D2*
X25664Y10155D1*
X25683Y10125D1*
X25697Y10095D1*
X25709Y10065D1*
X25720Y10035D1*
X25730Y10005D1*
X25740Y9975D1*
X25749Y9945D1*
X25755Y9915D1*
X25760Y9885D1*
X9833Y8837D2*
D79*
Y8334D1*
X10000D1*
X10072Y8358D1*
X10120Y8406D1*
X10144Y8454D1*
X10167Y8525D1*
Y8645D1*
X10144Y8717D1*
X10120Y8765D1*
X10072Y8813D1*
X10000Y8837D1*
X9833D1*
X6107Y12587D2*
Y12084D1*
X6393D1*
X2124Y14236D2*
X2172Y14260D1*
X2243Y14332D1*
Y13830D1*
X2398Y14165D2*
Y13925D1*
X2422Y13854D1*
X2470Y13830D1*
X2542D1*
X2589Y13854D1*
X2661Y13925D1*
Y14165D2*
Y13830D1*
X3126Y14332D2*
X2815D1*
Y13830D1*
Y14093D2*
X3007D1*
X5249Y7982D2*
X5177Y7958D1*
X5153Y7910D1*
Y7862D1*
X5177Y7815D1*
X5225Y7790D1*
X5321Y7767D1*
X5392Y7743D1*
X5440Y7695D1*
X5464Y7647D1*
Y7575D1*
X5440Y7528D1*
X5416Y7504D1*
X5344Y7480D1*
X5249D1*
X5177Y7504D1*
X5153Y7528D1*
X5129Y7575D1*
Y7647D1*
X5153Y7695D1*
X5201Y7743D1*
X5273Y7767D1*
X5368Y7790D1*
X5416Y7815D1*
X5440Y7862D1*
Y7910D1*
X5416Y7958D1*
X5344Y7982D1*
X5249D1*
X5643Y7862D2*
Y7886D1*
X5666Y7934D1*
X5690Y7958D1*
X5738Y7982D1*
X5834D1*
X5881Y7958D1*
X5905Y7934D1*
X5929Y7886D1*
Y7839D1*
X5905Y7790D1*
X5857Y7719D1*
X5618Y7480D1*
X5953D1*
X6108Y7982D2*
Y7480D1*
X6347Y7815D2*
X6108Y7575D1*
X6203Y7671D2*
X6371Y7480D1*
X23032Y9706D2*
X22984Y9754D1*
X22913Y9778D1*
X22817D1*
X22745Y9754D1*
X22697Y9706D1*
Y9658D1*
X22721Y9610D1*
X22745Y9586D1*
X22793Y9563D1*
X22936Y9514D1*
X22984Y9491D1*
X23008Y9466D1*
X23032Y9419D1*
Y9347D1*
X22984Y9299D1*
X22913Y9275D1*
X22817D1*
X22745Y9299D1*
X22697Y9347D1*
X23521Y9778D2*
Y9275D1*
X23186Y9778D1*
Y9275D1*
X23771D2*
X24011Y9777D1*
X23676D1*
X24404Y9275D2*
Y9777D1*
X24165Y9443D1*
X24524D1*
X24678Y9778D2*
Y9275D1*
X25013Y9778D2*
Y9275D1*
X24678Y9538D2*
X25013D1*
X25526Y9658D2*
X25502Y9706D1*
X25454Y9754D1*
X25407Y9778D1*
X25311D1*
X25263Y9754D1*
X25216Y9706D1*
X25191Y9658D1*
X25167Y9586D1*
Y9466D1*
X25191Y9395D1*
X25216Y9347D1*
X25263Y9299D1*
X25311Y9275D1*
X25407D1*
X25454Y9299D1*
X25502Y9347D1*
X25526Y9395D1*
X25681Y9681D2*
X25729Y9706D1*
X25801Y9777D1*
Y9275D1*
X26194D2*
Y9777D1*
X25955Y9443D1*
X26314D1*
X26803Y9778D2*
Y9275D1*
X26468Y9778D1*
Y9275D1*
X2249Y6736D2*
X2297Y6760D1*
X2368Y6832D1*
Y6330D1*
X2523Y6665D2*
Y6425D1*
X2547Y6354D1*
X2595Y6330D1*
X2667D1*
X2714Y6354D1*
X2786Y6425D1*
Y6665D2*
Y6330D1*
X3251Y6832D2*
X2940D1*
Y6330D1*
Y6593D2*
X3132D1*
X9249Y3732D2*
X9177Y3708D1*
X9153Y3660D1*
Y3612D1*
X9177Y3565D1*
X9225Y3540D1*
X9321Y3517D1*
X9392Y3493D1*
X9440Y3445D1*
X9464Y3397D1*
Y3325D1*
X9440Y3278D1*
X9416Y3254D1*
X9344Y3230D1*
X9249D1*
X9177Y3254D1*
X9153Y3278D1*
X9129Y3325D1*
Y3397D1*
X9153Y3445D1*
X9201Y3493D1*
X9273Y3517D1*
X9368Y3540D1*
X9416Y3565D1*
X9440Y3612D1*
Y3660D1*
X9416Y3708D1*
X9344Y3732D1*
X9249D1*
X9643Y3612D2*
Y3636D1*
X9666Y3684D1*
X9690Y3708D1*
X9738Y3732D1*
X9834D1*
X9881Y3708D1*
X9905Y3684D1*
X9929Y3636D1*
Y3589D1*
X9905Y3540D1*
X9857Y3469D1*
X9618Y3230D1*
X9953D1*
X10108Y3732D2*
Y3230D1*
X10347Y3565D2*
X10108Y3325D1*
X10203Y3421D2*
X10371Y3230D1*
X5237Y2761D2*
X5285Y2785D1*
X5357Y2857D1*
Y2355D1*
X5631Y2857D2*
X5559Y2833D1*
X5535Y2785D1*
Y2737D1*
X5559Y2690D1*
X5607Y2665D1*
X5702Y2642D1*
X5774Y2618D1*
X5822Y2570D1*
X5846Y2522D1*
Y2450D1*
X5822Y2403D1*
X5798Y2379D1*
X5726Y2355D1*
X5631D1*
X5559Y2379D1*
X5535Y2403D1*
X5511Y2450D1*
Y2522D1*
X5535Y2570D1*
X5583Y2618D1*
X5654Y2642D1*
X5750Y2665D1*
X5798Y2690D1*
X5822Y2737D1*
Y2785D1*
X5798Y2833D1*
X5726Y2857D1*
X5631D1*
X6000D2*
Y2355D1*
X6239Y2690D2*
X6000Y2450D1*
X6096Y2546D2*
X6263Y2355D1*
X4539Y4589D2*
X4587Y4613D1*
X4659Y4684D1*
Y4183D1*
X5148Y4685D2*
Y4183D1*
X4813Y4685D1*
Y4183D1*
X5542D2*
Y4684D1*
X5303Y4350D1*
X5661D1*
X5816Y4589D2*
X5864Y4613D1*
X5936Y4684D1*
Y4183D1*
X6329D2*
Y4684D1*
X6090Y4350D1*
X6449D1*
X6722Y4684D2*
X6651Y4661D1*
X6627Y4613D1*
Y4565D1*
X6651Y4518D1*
X6699Y4493D1*
X6794Y4469D1*
X6866Y4446D1*
X6914Y4398D1*
X6937Y4350D1*
Y4278D1*
X6914Y4231D1*
X6890Y4206D1*
X6818Y4183D1*
X6722D1*
X6651Y4206D1*
X6627Y4231D1*
X6603Y4278D1*
Y4350D1*
X6627Y4398D1*
X6675Y4446D1*
X6746Y4469D1*
X6842Y4493D1*
X6890Y4518D1*
X6914Y4565D1*
Y4613D1*
X6890Y4661D1*
X6818Y4684D1*
X6722D1*
X489Y9237D2*
X465Y9285D1*
X393Y9357D1*
X895D1*
X393Y9631D2*
X417Y9559D1*
X465Y9535D1*
X513D1*
X560Y9559D1*
X585Y9607D1*
X608Y9702D1*
X632Y9774D1*
X680Y9822D1*
X728Y9846D1*
X800D1*
X847Y9822D1*
X871Y9798D1*
X895Y9726D1*
Y9631D1*
X871Y9559D1*
X847Y9535D1*
X800Y9511D1*
X728D1*
X680Y9535D1*
X632Y9583D1*
X608Y9654D1*
X585Y9750D1*
X560Y9798D1*
X513Y9822D1*
X465D1*
X417Y9798D1*
X393Y9726D1*
Y9631D1*
Y10000D2*
X895D1*
X560Y10239D2*
X800Y10000D1*
X704Y10096D2*
X895Y10263D1*
X2661Y8563D2*
X2637Y8611D1*
X2566Y8682D1*
X3067D1*
X2565Y9172D2*
X3067D1*
X2565Y8837D1*
X3067D1*
Y9566D2*
X2566D1*
X2900Y9326D1*
Y9685D1*
X2661Y9839D2*
X2637Y9887D1*
X2566Y9959D1*
X3067D1*
Y10353D2*
X2566D1*
X2900Y10114D1*
Y10472D1*
X2566Y10746D2*
X2589Y10675D1*
X2637Y10650D1*
X2685D1*
X2732Y10675D1*
X2757Y10722D1*
X2781Y10818D1*
X2804Y10890D1*
X2852Y10937D1*
X2900Y10961D1*
X2972D1*
X3019Y10937D1*
X3044Y10914D1*
X3067Y10842D1*
Y10746D1*
X3044Y10675D1*
X3019Y10650D1*
X2972Y10627D1*
X2900D1*
X2852Y10650D1*
X2804Y10699D1*
X2781Y10770D1*
X2757Y10865D1*
X2732Y10914D1*
X2685Y10937D1*
X2637D1*
X2589Y10914D1*
X2566Y10842D1*
Y10746D1*
X13583Y12347D2*
X13798D1*
X13869Y12372D1*
X13894Y12395D1*
X13917Y12443D1*
Y12491D1*
X13894Y12538D1*
X13869Y12563D1*
X13798Y12587D1*
X13583D1*
Y12084D1*
X13750Y12347D2*
X13917Y12084D1*
X13124Y7486D2*
X13172Y7510D1*
X13243Y7582D1*
Y7080D1*
X13398Y7415D2*
Y7175D1*
X13422Y7104D1*
X13470Y7080D1*
X13542D1*
X13589Y7104D1*
X13661Y7175D1*
Y7415D2*
Y7080D1*
X14126Y7582D2*
X13815D1*
Y7080D1*
Y7343D2*
X14007D1*
X15518Y11374D2*
X15542Y11302D1*
X15590Y11278D1*
X15638D1*
X15685Y11302D1*
X15710Y11350D1*
X15733Y11446D1*
X15757Y11517D1*
X15805Y11565D1*
X15853Y11589D1*
X15925D1*
X15972Y11565D1*
X15996Y11541D1*
X16020Y11469D1*
Y11374D1*
X15996Y11302D1*
X15972Y11278D1*
X15925Y11254D1*
X15853D1*
X15805Y11278D1*
X15757Y11326D1*
X15733Y11398D1*
X15710Y11493D1*
X15685Y11541D1*
X15638Y11565D1*
X15590D1*
X15542Y11541D1*
X15518Y11469D1*
Y11374D1*
X15638Y11768D2*
X15614D1*
X15566Y11791D1*
X15542Y11815D1*
X15518Y11863D1*
Y11959D1*
X15542Y12006D1*
X15566Y12030D1*
X15614Y12054D1*
X15661D1*
X15710Y12030D1*
X15781Y11982D1*
X16020Y11743D1*
Y12078D1*
X15518Y12233D2*
X16020D1*
X15685Y12472D2*
X15925Y12233D1*
X15829Y12328D2*
X16020Y12496D1*
X17362Y7386D2*
X17410Y7410D1*
X17482Y7482D1*
Y6980D1*
X17756Y7482D2*
X17684Y7458D1*
X17660Y7410D1*
Y7362D1*
X17684Y7315D1*
X17732Y7290D1*
X17827Y7267D1*
X17899Y7243D1*
X17947Y7195D1*
X17971Y7147D1*
Y7075D1*
X17947Y7028D1*
X17923Y7004D1*
X17851Y6980D1*
X17756D1*
X17684Y7004D1*
X17660Y7028D1*
X17636Y7075D1*
Y7147D1*
X17660Y7195D1*
X17708Y7243D1*
X17779Y7267D1*
X17875Y7290D1*
X17923Y7315D1*
X17947Y7362D1*
Y7410D1*
X17923Y7458D1*
X17851Y7482D1*
X17756D1*
X18125D2*
Y6980D1*
X18364Y7315D2*
X18125Y7075D1*
X18221Y7171D2*
X18388Y6980D1*
X16664Y9339D2*
X16712Y9363D1*
X16784Y9434D1*
Y8933D1*
X17273Y9435D2*
Y8933D1*
X16938Y9435D1*
Y8933D1*
X17667D2*
Y9434D1*
X17428Y9100D1*
X17786D1*
X17941Y9339D2*
X17989Y9363D1*
X18061Y9434D1*
Y8933D1*
X18454D2*
Y9434D1*
X18215Y9100D1*
X18574D1*
X18847Y9434D2*
X18776Y9411D1*
X18752Y9363D1*
Y9315D1*
X18776Y9268D1*
X18824Y9243D1*
X18919Y9219D1*
X18991Y9196D1*
X19039Y9148D1*
X19062Y9100D1*
Y9028D1*
X19039Y8981D1*
X19015Y8956D1*
X18943Y8933D1*
X18847D1*
X18776Y8956D1*
X18752Y8981D1*
X18728Y9028D1*
Y9100D1*
X18752Y9148D1*
X18800Y9196D1*
X18871Y9219D1*
X18967Y9243D1*
X19015Y9268D1*
X19039Y9315D1*
Y9363D1*
X19015Y9411D1*
X18943Y9434D1*
X18847D1*
X42692Y12084D2*
X42500Y12587D1*
X42308Y12084D1*
X42380Y12252D2*
X42620D1*
X38499Y8111D2*
X38547Y8135D1*
X38618Y8207D1*
Y7705D1*
X38773Y8040D2*
Y7800D1*
X38797Y7729D1*
X38845Y7705D1*
X38917D1*
X38964Y7729D1*
X39036Y7800D1*
Y8040D2*
Y7705D1*
X39501Y8207D2*
X39190D1*
Y7705D1*
Y7968D2*
X39382D1*
X42518Y4749D2*
X42542Y4677D1*
X42590Y4653D1*
X42638D1*
X42685Y4677D1*
X42710Y4725D1*
X42733Y4821D1*
X42757Y4892D1*
X42805Y4940D1*
X42853Y4964D1*
X42925D1*
X42972Y4940D1*
X42996Y4916D1*
X43020Y4844D1*
Y4749D1*
X42996Y4677D1*
X42972Y4653D1*
X42925Y4629D1*
X42853D1*
X42805Y4653D1*
X42757Y4701D1*
X42733Y4773D1*
X42710Y4868D1*
X42685Y4916D1*
X42638Y4940D1*
X42590D1*
X42542Y4916D1*
X42518Y4844D1*
Y4749D1*
X42638Y5143D2*
X42614D1*
X42566Y5166D1*
X42542Y5190D1*
X42518Y5238D1*
Y5334D1*
X42542Y5381D1*
X42566Y5405D1*
X42614Y5429D1*
X42661D1*
X42710Y5405D1*
X42781Y5357D1*
X43020Y5118D1*
Y5453D1*
X42518Y5608D2*
X43020D1*
X42685Y5847D2*
X42925Y5608D1*
X42829Y5703D2*
X43020Y5871D1*
X39487Y4136D2*
X39535Y4160D1*
X39607Y4232D1*
Y3730D1*
X39881Y4232D2*
X39809Y4208D1*
X39785Y4160D1*
Y4112D1*
X39809Y4065D1*
X39857Y4040D1*
X39952Y4017D1*
X40024Y3993D1*
X40072Y3945D1*
X40096Y3897D1*
Y3825D1*
X40072Y3778D1*
X40048Y3754D1*
X39976Y3730D1*
X39881D1*
X39809Y3754D1*
X39785Y3778D1*
X39761Y3825D1*
Y3897D1*
X39785Y3945D1*
X39833Y3993D1*
X39904Y4017D1*
X40000Y4040D1*
X40048Y4065D1*
X40072Y4112D1*
Y4160D1*
X40048Y4208D1*
X39976Y4232D1*
X39881D1*
X40250D2*
Y3730D1*
X40489Y4065D2*
X40250Y3825D1*
X40346Y3921D2*
X40513Y3730D1*
X38789Y5964D2*
X38837Y5988D1*
X38909Y6059D1*
Y5558D1*
X39398Y6060D2*
Y5558D1*
X39063Y6060D1*
Y5558D1*
X39792D2*
Y6059D1*
X39553Y5725D1*
X39911D1*
X40066Y5964D2*
X40114Y5988D1*
X40186Y6059D1*
Y5558D1*
X40579D2*
Y6059D1*
X40340Y5725D1*
X40699D1*
X40972Y6059D2*
X40901Y6036D1*
X40877Y5988D1*
Y5940D1*
X40901Y5893D1*
X40949Y5868D1*
X41044Y5844D1*
X41116Y5821D1*
X41164Y5773D1*
X41187Y5725D1*
Y5653D1*
X41164Y5606D1*
X41140Y5581D1*
X41068Y5558D1*
X40972D1*
X40901Y5581D1*
X40877Y5606D1*
X40853Y5653D1*
Y5725D1*
X40877Y5773D1*
X40925Y5821D1*
X40996Y5844D1*
X41092Y5868D1*
X41140Y5893D1*
X41164Y5940D1*
Y5988D1*
X41140Y6036D1*
X41068Y6059D1*
X40972D1*
X9833Y16337D2*
Y15978D1*
X9856Y15906D1*
X9904Y15858D1*
X9976Y15834D1*
X10024D1*
X10096Y15858D1*
X10144Y15906D1*
X10167Y15978D1*
Y16337D1*
X5889Y14124D2*
X5865Y14172D1*
X5793Y14243D1*
X6295D1*
X5960Y14398D2*
X6200D1*
X6271Y14422D1*
X6295Y14470D1*
Y14542D1*
X6271Y14589D1*
X6200Y14661D1*
X5960D2*
X6295D1*
X5793Y15126D2*
Y14815D1*
X6295D1*
X6032D2*
Y15007D1*
X17518Y13374D2*
X17542Y13302D1*
X17590Y13278D1*
X17638D1*
X17685Y13302D1*
X17710Y13350D1*
X17733Y13446D1*
X17757Y13517D1*
X17805Y13565D1*
X17853Y13589D1*
X17925D1*
X17972Y13565D1*
X17996Y13541D1*
X18020Y13469D1*
Y13374D1*
X17996Y13302D1*
X17972Y13278D1*
X17925Y13254D1*
X17853D1*
X17805Y13278D1*
X17757Y13326D1*
X17733Y13398D1*
X17710Y13493D1*
X17685Y13541D1*
X17638Y13565D1*
X17590D1*
X17542Y13541D1*
X17518Y13469D1*
Y13374D1*
X17638Y13768D2*
X17614D1*
X17566Y13791D1*
X17542Y13815D1*
X17518Y13863D1*
Y13959D1*
X17542Y14006D1*
X17566Y14030D1*
X17614Y14054D1*
X17661D1*
X17710Y14030D1*
X17781Y13982D1*
X18020Y13743D1*
Y14078D1*
X17518Y14233D2*
X18020D1*
X17685Y14472D2*
X17925Y14233D1*
X17829Y14328D2*
X18020Y14496D1*
X11614Y14362D2*
X11590Y14410D1*
X11518Y14482D1*
X12020D1*
X11518Y14756D2*
X11542Y14684D1*
X11590Y14660D1*
X11638D1*
X11685Y14684D1*
X11710Y14732D1*
X11733Y14827D1*
X11757Y14899D1*
X11805Y14947D1*
X11853Y14971D1*
X11925D1*
X11972Y14947D1*
X11996Y14923D1*
X12020Y14851D1*
Y14756D1*
X11996Y14684D1*
X11972Y14660D1*
X11925Y14636D1*
X11853D1*
X11805Y14660D1*
X11757Y14708D1*
X11733Y14779D1*
X11710Y14875D1*
X11685Y14923D1*
X11638Y14947D1*
X11590D1*
X11542Y14923D1*
X11518Y14851D1*
Y14756D1*
Y15125D2*
X12020D1*
X11685Y15364D2*
X11925Y15125D1*
X11829Y15221D2*
X12020Y15388D1*
X13536Y13688D2*
X13512Y13736D1*
X13441Y13807D1*
X13942D1*
X13440Y14297D2*
X13942D1*
X13440Y13962D1*
X13942D1*
Y14691D2*
X13441D1*
X13775Y14451D1*
Y14810D1*
X13536Y14964D2*
X13512Y15012D1*
X13441Y15084D1*
X13942D1*
Y15478D2*
X13441D1*
X13775Y15239D1*
Y15597D1*
X13441Y15871D2*
X13464Y15800D1*
X13512Y15775D1*
X13560D1*
X13607Y15800D1*
X13632Y15847D1*
X13656Y15943D1*
X13679Y16015D1*
X13727Y16062D1*
X13775Y16086D1*
X13847D1*
X13894Y16062D1*
X13919Y16039D1*
X13942Y15967D1*
Y15871D1*
X13919Y15800D1*
X13894Y15775D1*
X13847Y15752D1*
X13775D1*
X13727Y15775D1*
X13679Y15824D1*
X13656Y15895D1*
X13632Y15990D1*
X13607Y16039D1*
X13560Y16062D1*
X13512D1*
X13464Y16039D1*
X13441Y15967D1*
Y15871D1*
X49833Y12587D2*
Y12084D1*
X50048D1*
X50120Y12108D1*
X50144Y12132D1*
X50167Y12180D1*
Y12252D1*
X50144Y12300D1*
X50120Y12323D1*
X50048Y12347D1*
X50120Y12372D1*
X50144Y12395D1*
X50167Y12443D1*
Y12491D1*
X50144Y12538D1*
X50120Y12563D1*
X50048Y12587D1*
X49833D1*
Y12347D2*
X50048D1*
X45999Y8111D2*
X46047Y8135D1*
X46118Y8207D1*
Y7705D1*
X46273Y8040D2*
Y7800D1*
X46297Y7729D1*
X46345Y7705D1*
X46417D1*
X46464Y7729D1*
X46536Y7800D1*
Y8040D2*
Y7705D1*
X47001Y8207D2*
X46690D1*
Y7705D1*
Y7968D2*
X46882D1*
X49893Y4624D2*
X49917Y4552D1*
X49965Y4528D1*
X50013D1*
X50060Y4552D1*
X50085Y4600D1*
X50108Y4696D1*
X50132Y4767D1*
X50180Y4815D1*
X50228Y4839D1*
X50300D1*
X50347Y4815D1*
X50371Y4791D1*
X50395Y4719D1*
Y4624D1*
X50371Y4552D1*
X50347Y4528D1*
X50300Y4504D1*
X50228D1*
X50180Y4528D1*
X50132Y4576D1*
X50108Y4648D1*
X50085Y4743D1*
X50060Y4791D1*
X50013Y4815D1*
X49965D1*
X49917Y4791D1*
X49893Y4719D1*
Y4624D1*
X50013Y5018D2*
X49989D1*
X49941Y5041D1*
X49917Y5065D1*
X49893Y5113D1*
Y5209D1*
X49917Y5256D1*
X49941Y5280D1*
X49989Y5304D1*
X50036D1*
X50085Y5280D1*
X50156Y5232D1*
X50395Y4993D1*
Y5328D1*
X49893Y5483D2*
X50395D1*
X50060Y5722D2*
X50300Y5483D1*
X50204Y5578D2*
X50395Y5746D1*
X46987Y4136D2*
X47035Y4160D1*
X47107Y4232D1*
Y3730D1*
X47381Y4232D2*
X47309Y4208D1*
X47285Y4160D1*
Y4112D1*
X47309Y4065D1*
X47357Y4040D1*
X47452Y4017D1*
X47524Y3993D1*
X47572Y3945D1*
X47596Y3897D1*
Y3825D1*
X47572Y3778D1*
X47548Y3754D1*
X47476Y3730D1*
X47381D1*
X47309Y3754D1*
X47285Y3778D1*
X47261Y3825D1*
Y3897D1*
X47285Y3945D1*
X47333Y3993D1*
X47404Y4017D1*
X47500Y4040D1*
X47548Y4065D1*
X47572Y4112D1*
Y4160D1*
X47548Y4208D1*
X47476Y4232D1*
X47381D1*
X47750D2*
Y3730D1*
X47989Y4065D2*
X47750Y3825D1*
X47846Y3921D2*
X48013Y3730D1*
X46289Y5964D2*
X46337Y5988D1*
X46409Y6059D1*
Y5558D1*
X46898Y6060D2*
Y5558D1*
X46563Y6060D1*
Y5558D1*
X47292D2*
Y6059D1*
X47053Y5725D1*
X47411D1*
X47566Y5964D2*
X47614Y5988D1*
X47686Y6059D1*
Y5558D1*
X48079D2*
Y6059D1*
X47840Y5725D1*
X48199D1*
X48472Y6059D2*
X48401Y6036D1*
X48377Y5988D1*
Y5940D1*
X48401Y5893D1*
X48449Y5868D1*
X48544Y5844D1*
X48616Y5821D1*
X48664Y5773D1*
X48687Y5725D1*
Y5653D1*
X48664Y5606D1*
X48640Y5581D1*
X48568Y5558D1*
X48472D1*
X48401Y5581D1*
X48377Y5606D1*
X48353Y5653D1*
Y5725D1*
X48377Y5773D1*
X48425Y5821D1*
X48496Y5844D1*
X48592Y5868D1*
X48640Y5893D1*
X48664Y5940D1*
Y5988D1*
X48640Y6036D1*
X48568Y6059D1*
X48472D1*
X55391Y37732D2*
X55654D1*
X55511Y37540D1*
X55583D1*
X55630Y37517D1*
X55654Y37493D1*
X55678Y37421D1*
Y37374D1*
X55654Y37302D1*
X55606Y37254D1*
X55534Y37230D1*
X55463D1*
X55391Y37254D1*
X55368Y37278D1*
X55343Y37325D1*
X55881Y37732D2*
X56143D1*
X56000Y37540D1*
X56072D1*
X56119Y37517D1*
X56143Y37493D1*
X56167Y37421D1*
Y37374D1*
X56143Y37302D1*
X56096Y37254D1*
X56024Y37230D1*
X55952D1*
X55881Y37254D1*
X55857Y37278D1*
X55833Y37325D1*
X56466Y37732D2*
X56394Y37708D1*
X56346Y37636D1*
X56322Y37517D1*
Y37445D1*
X56346Y37325D1*
X56394Y37254D1*
X56466Y37230D1*
X56513D1*
X56585Y37254D1*
X56632Y37325D1*
X56657Y37445D1*
Y37517D1*
X56632Y37636D1*
X56585Y37708D1*
X56513Y37732D1*
X56466D1*
X56632Y37636D2*
X56346Y37325D1*
X27544Y38660D2*
X27592Y38684D1*
X27664Y38755D1*
Y38253D1*
X27843Y38636D2*
Y38660D1*
X27866Y38708D1*
X27890Y38732D1*
X27938Y38755D1*
X28034D1*
X28081Y38732D1*
X28105Y38708D1*
X28129Y38660D1*
Y38612D1*
X28105Y38564D1*
X28058Y38493D1*
X27818Y38253D1*
X28153D1*
X28427Y38755D2*
X28356Y38732D1*
X28331Y38684D1*
Y38636D1*
X28356Y38588D1*
X28403Y38564D1*
X28499Y38540D1*
X28571Y38517D1*
X28618Y38468D1*
X28642Y38421D1*
Y38349D1*
X28618Y38302D1*
X28594Y38277D1*
X28523Y38253D1*
X28427D1*
X28356Y38277D1*
X28331Y38302D1*
X28308Y38349D1*
Y38421D1*
X28331Y38468D1*
X28379Y38517D1*
X28451Y38540D1*
X28546Y38564D1*
X28594Y38588D1*
X28618Y38636D1*
Y38684D1*
X28594Y38732D1*
X28523Y38755D1*
X28427D1*
X28796Y38588D2*
X29059Y38253D1*
Y38588D2*
X28796Y38253D1*
X29501Y38684D2*
X29477Y38732D1*
X29405Y38755D1*
X29358D1*
X29286Y38732D1*
X29238Y38660D1*
X29214Y38540D1*
Y38421D1*
X29238Y38325D1*
X29286Y38277D1*
X29358Y38253D1*
X29381D1*
X29453Y38277D1*
X29501Y38325D1*
X29524Y38397D1*
Y38421D1*
X29501Y38493D1*
X29453Y38540D1*
X29381Y38564D1*
X29358D1*
X29286Y38540D1*
X29238Y38493D1*
X29214Y38421D1*
X29918Y38253D2*
Y38755D1*
X29679Y38421D1*
X30038D1*
X30822Y38756D2*
X30774Y38732D1*
X30726Y38684D1*
X30702Y38636D1*
X30678Y38565D1*
Y38445D1*
X30702Y38373D1*
X30726Y38325D1*
X30774Y38278D1*
X30822Y38253D1*
X30917D1*
X30965Y38278D1*
X31013Y38325D1*
X31037Y38373D1*
X31060Y38445D1*
Y38565D1*
X31037Y38636D1*
X31013Y38684D1*
X30965Y38732D1*
X30917Y38756D1*
X30822D1*
X31215D2*
Y38253D1*
X31502D1*
X31967Y38756D2*
X31656D1*
Y38253D1*
X31967D1*
X31656Y38517D2*
X31847D1*
X32121Y38756D2*
Y38253D1*
X32289D1*
X32360Y38278D1*
X32408Y38325D1*
X32432Y38373D1*
X32456Y38445D1*
Y38565D1*
X32432Y38636D1*
X32408Y38684D1*
X32360Y38732D1*
X32289Y38756D1*
X32121D1*
X2346Y25751D2*
X2561D1*
X2633Y25774D1*
X2657Y25799D1*
X2681Y25846D1*
Y25918D1*
X2657Y25966D1*
X2633Y25990D1*
X2561Y26014D1*
X2346D1*
Y25511D1*
X2859Y25894D2*
Y25917D1*
X2883Y25966D1*
X2907Y25989D1*
X2955Y26013D1*
X3051D1*
X3098Y25989D1*
X3122Y25966D1*
X3146Y25917D1*
Y25870D1*
X3122Y25822D1*
X3074Y25751D1*
X2835Y25511D1*
X3170D1*
X3659Y26014D2*
Y25511D1*
X3325Y26014D1*
Y25511D1*
X3838Y25894D2*
Y25917D1*
X3862Y25966D1*
X3886Y25989D1*
X3934Y26013D1*
X4029D1*
X4077Y25989D1*
X4101Y25966D1*
X4125Y25917D1*
Y25870D1*
X4101Y25822D1*
X4053Y25751D1*
X3814Y25511D1*
X4149D1*
X4327Y25894D2*
Y25917D1*
X4351Y25966D1*
X4375Y25989D1*
X4423Y26013D1*
X4519D1*
X4566Y25989D1*
X4590Y25966D1*
X4614Y25917D1*
Y25870D1*
X4590Y25822D1*
X4542Y25751D1*
X4303Y25511D1*
X4638D1*
X4817Y25894D2*
Y25917D1*
X4841Y25966D1*
X4864Y25989D1*
X4912Y26013D1*
X5008D1*
X5056Y25989D1*
X5079Y25966D1*
X5104Y25917D1*
Y25870D1*
X5079Y25822D1*
X5032Y25751D1*
X4792Y25511D1*
X5127D1*
X5306Y25894D2*
Y25917D1*
X5330Y25966D1*
X5354Y25989D1*
X5402Y26013D1*
X5497D1*
X5545Y25989D1*
X5569Y25966D1*
X5593Y25917D1*
Y25870D1*
X5569Y25822D1*
X5521Y25751D1*
X5282Y25511D1*
X5617D1*
X6154D2*
X5962Y26014D1*
X5771Y25511D1*
X5843Y25679D2*
X6082D1*
X513Y23618D2*
X489D1*
X441Y23641D1*
X417Y23665D1*
X393Y23713D1*
Y23809D1*
X417Y23856D1*
X441Y23880D1*
X489Y23904D1*
X536D1*
X585Y23880D1*
X656Y23833D1*
X895Y23593D1*
Y23928D1*
X513Y24107D2*
X489D1*
X441Y24131D1*
X417Y24154D1*
X393Y24202D1*
Y24298D1*
X417Y24346D1*
X441Y24369D1*
X489Y24394D1*
X536D1*
X585Y24369D1*
X656Y24322D1*
X895Y24083D1*
Y24417D1*
X393Y24716D2*
X417Y24644D1*
X489Y24596D1*
X608Y24572D1*
X680D1*
X800Y24596D1*
X871Y24644D1*
X895Y24716D1*
Y24763D1*
X871Y24835D1*
X800Y24882D1*
X680Y24907D1*
X608D1*
X489Y24882D1*
X417Y24835D1*
X393Y24763D1*
Y24716D1*
X489Y24882D2*
X800Y24596D1*
X7475Y34079D2*
Y33576D1*
X7762D1*
X8251Y34007D2*
X8203Y34055D1*
X8132Y34079D1*
X8036D1*
X7964Y34055D1*
X7916Y34007D1*
Y33959D1*
X7940Y33911D1*
X7964Y33887D1*
X8012Y33864D1*
X8155Y33816D1*
X8203Y33792D1*
X8227Y33768D1*
X8251Y33720D1*
Y33648D1*
X8203Y33601D1*
X8132Y33576D1*
X8036D1*
X7964Y33601D1*
X7916Y33648D1*
X8405Y33983D2*
X8453Y34007D1*
X8525Y34078D1*
Y33576D1*
X37844Y1874D2*
D80*
Y1271D1*
X38029D2*
X38431Y1873D1*
X38789Y1874D2*
X38731Y1845D1*
X38674Y1787D1*
X38645Y1730D1*
X38617Y1644D1*
Y1500D1*
X38645Y1415D1*
X38674Y1357D1*
X38731Y1300D1*
X38789Y1271D1*
X38904D1*
X38961Y1300D1*
X39019Y1357D1*
X39047Y1415D1*
X39076Y1500D1*
Y1644D1*
X39047Y1730D1*
X39019Y1787D1*
X38961Y1845D1*
X38904Y1874D1*
X38789D1*
X39844D2*
Y1271D1*
X40103D1*
X40189Y1300D1*
X40217Y1329D1*
X40246Y1386D1*
Y1472D1*
X40217Y1529D1*
X40189Y1558D1*
X40103Y1587D1*
X40189Y1616D1*
X40217Y1644D1*
X40246Y1701D1*
Y1759D1*
X40217Y1816D1*
X40189Y1845D1*
X40103Y1874D1*
X39844D1*
Y1587D2*
X40103D1*
X40574Y1673D2*
X40517Y1644D1*
X40460Y1587D1*
X40431Y1500D1*
Y1443D1*
X40460Y1357D1*
X40517Y1300D1*
X40574Y1271D1*
X40661D1*
X40718Y1300D1*
X40775Y1357D1*
X40805Y1443D1*
Y1500D1*
X40775Y1587D1*
X40718Y1644D1*
X40661Y1673D1*
X40574D1*
X41334D2*
Y1271D1*
Y1587D2*
X41277Y1644D1*
X41219Y1673D1*
X41134D1*
X41076Y1644D1*
X41019Y1587D1*
X40990Y1500D1*
Y1443D1*
X41019Y1357D1*
X41076Y1300D1*
X41134Y1271D1*
X41219D1*
X41277Y1300D1*
X41334Y1357D1*
X41519Y1673D2*
Y1271D1*
Y1500D2*
X41549Y1587D1*
X41606Y1644D1*
X41663Y1673D1*
X41750D1*
X42279Y1874D2*
Y1271D1*
Y1587D2*
X42222Y1644D1*
X42164Y1673D1*
X42078D1*
X42021Y1644D1*
X41963Y1587D1*
X41935Y1500D1*
Y1443D1*
X41963Y1357D1*
X42021Y1300D1*
X42078Y1271D1*
X42164D1*
X42222Y1300D1*
X42279Y1357D1*
X43047Y1673D2*
X43220Y1271D1*
X43392Y1673D1*
X43577Y1758D2*
X43635Y1787D1*
X43721Y1873D1*
Y1271D1*
X46440Y2031D2*
X46382Y1974D1*
X46325Y1888D1*
X46268Y1773D1*
X46239Y1629D1*
Y1514D1*
X46268Y1371D1*
X46325Y1256D1*
X46382Y1170D1*
X46440Y1113D1*
X46970Y1587D2*
X46912Y1644D1*
X46855Y1673D1*
X46769D1*
X46711Y1644D1*
X46654Y1587D1*
X46625Y1500D1*
Y1443D1*
X46654Y1357D1*
X46711Y1300D1*
X46769Y1271D1*
X46855D1*
X46912Y1300D1*
X46970Y1357D1*
X47155Y2031D2*
X47213Y1974D1*
X47270Y1888D1*
X47328Y1773D1*
X47356Y1629D1*
Y1514D1*
X47328Y1371D1*
X47270Y1256D1*
X47213Y1170D1*
X47155Y1113D1*
X48154Y1730D2*
Y1758D1*
X48183Y1816D1*
X48211Y1845D1*
X48269Y1873D1*
X48384D1*
X48441Y1845D1*
X48469Y1816D1*
X48498Y1758D1*
Y1701D1*
X48469Y1644D1*
X48412Y1558D1*
X48125Y1271D1*
X48527D1*
X48884Y1873D2*
X48798Y1845D1*
X48741Y1758D1*
X48712Y1615D1*
Y1529D1*
X48741Y1386D1*
X48798Y1299D1*
X48884Y1271D1*
X48942D1*
X49028Y1299D1*
X49085Y1386D1*
X49114Y1529D1*
Y1615D1*
X49085Y1758D1*
X49028Y1845D1*
X48942Y1873D1*
X48884D1*
X49085Y1758D2*
X48741Y1386D1*
X49299Y1758D2*
X49357Y1787D1*
X49443Y1873D1*
Y1271D1*
X49973Y1787D2*
X49944Y1845D1*
X49858Y1873D1*
X49801D1*
X49715Y1845D1*
X49657Y1758D1*
X49628Y1615D1*
Y1472D1*
X49657Y1357D1*
X49715Y1299D1*
X49801Y1271D1*
X49829D1*
X49915Y1299D1*
X49973Y1357D1*
X50001Y1443D1*
Y1472D1*
X49973Y1558D1*
X49915Y1615D1*
X49829Y1644D1*
X49801D1*
X49715Y1615D1*
X49657Y1558D1*
X49628Y1472D1*
X50770Y1558D2*
X51028D1*
X51114Y1587D1*
X51143Y1616D1*
X51172Y1673D1*
Y1759D1*
X51143Y1816D1*
X51114Y1845D1*
X51028Y1874D1*
X50770D1*
Y1271D1*
X51357Y1500D2*
X51701D1*
Y1558D1*
X51673Y1616D1*
X51644Y1644D1*
X51586Y1673D1*
X51500D1*
X51443Y1644D1*
X51385Y1587D1*
X51357Y1500D1*
Y1443D1*
X51385Y1357D1*
X51443Y1300D1*
X51500Y1271D1*
X51586D1*
X51644Y1300D1*
X51701Y1357D1*
X51973Y1874D2*
Y1386D1*
X52001Y1300D1*
X52059Y1271D1*
X52116D1*
X51886Y1673D2*
X52087D1*
X52301Y1500D2*
X52645D1*
Y1558D1*
X52617Y1616D1*
X52588Y1644D1*
X52531Y1673D1*
X52444D1*
X52387Y1644D1*
X52330Y1587D1*
X52301Y1500D1*
Y1443D1*
X52330Y1357D1*
X52387Y1300D1*
X52444Y1271D1*
X52531D1*
X52588Y1300D1*
X52645Y1357D1*
X52831Y1673D2*
Y1271D1*
Y1500D2*
X52860Y1587D1*
X52917Y1644D1*
X52974Y1673D1*
X53061D1*
X54231Y1874D2*
Y1271D1*
X53829Y1874D1*
Y1271D1*
X54560Y1673D2*
X54503Y1644D1*
X54445Y1587D1*
X54416Y1500D1*
Y1443D1*
X54445Y1357D1*
X54503Y1300D1*
X54560Y1271D1*
X54646D1*
X54704Y1300D1*
X54761Y1357D1*
X54790Y1443D1*
Y1500D1*
X54761Y1587D1*
X54704Y1644D1*
X54646Y1673D1*
X54560D1*
X55004D2*
X55176Y1271D1*
X55119Y1156D1*
X55061Y1098D1*
X55004Y1070D1*
X54975D1*
X55348Y1673D2*
X55176Y1271D1*
X55534Y1500D2*
X55878D1*
Y1558D1*
X55849Y1616D1*
X55821Y1644D1*
X55763Y1673D1*
X55677D1*
X55620Y1644D1*
X55562Y1587D1*
X55534Y1500D1*
Y1443D1*
X55562Y1357D1*
X55620Y1300D1*
X55677Y1271D1*
X55763D1*
X55821Y1300D1*
X55878Y1357D1*
X56379Y1587D2*
X56350Y1644D1*
X56264Y1673D1*
X56178D1*
X56092Y1644D1*
X56063Y1587D1*
X56092Y1529D1*
X56149Y1500D1*
X56293Y1472D1*
X56350Y1443D1*
X56379Y1386D1*
Y1357D1*
X56350Y1300D1*
X56264Y1271D1*
X56178D1*
X56092Y1300D1*
X56063Y1357D1*
X33397Y14731D2*
D81*
Y12821D1*
X34033D1*
X34306Y12914D1*
X34489Y13094D1*
X34579Y13277D1*
X34669Y13548D1*
Y14004D1*
X34579Y14277D1*
X34489Y14458D1*
X34306Y14640D1*
X34033Y14731D1*
X33397D1*
X35710Y14094D2*
X35529Y14004D1*
X35346Y13821D1*
X35256Y13548D1*
Y13368D1*
X35346Y13094D1*
X35529Y12914D1*
X35710Y12821D1*
X35983D1*
X36166Y12914D1*
X36346Y13094D1*
X36439Y13368D1*
Y13548D1*
X36346Y13821D1*
X36166Y14004D1*
X35983Y14094D1*
X35710D1*
X38115Y14731D2*
Y12821D1*
Y13821D2*
X37935Y14004D1*
X37752Y14094D1*
X37479D1*
X37298Y14004D1*
X37116Y13821D1*
X37025Y13548D1*
Y13368D1*
X37116Y13094D1*
X37298Y12914D1*
X37479Y12821D1*
X37752D1*
X37935Y12914D1*
X38115Y13094D1*
X39156Y14094D2*
X38975Y14004D1*
X38792Y13821D1*
X38702Y13548D1*
Y13368D1*
X38792Y13094D1*
X38975Y12914D1*
X39156Y12821D1*
X39429D1*
X39611Y12914D1*
X39792Y13094D1*
X39884Y13368D1*
Y13548D1*
X39792Y13821D1*
X39611Y14004D1*
X39429Y14094D1*
X39156D1*
X33949Y17469D2*
D82*
X33901Y17564D1*
X33757Y17612D1*
X33662D1*
X33519Y17564D1*
X33423Y17421D1*
X33375Y17182D1*
Y16943D1*
X33423Y16752D1*
X33519Y16656D1*
X33662Y16608D1*
X33710D1*
X33853Y16656D1*
X33949Y16752D1*
X33996Y16896D1*
Y16943D1*
X33949Y17087D1*
X33853Y17182D1*
X33710Y17229D1*
X33662D1*
X33519Y17182D1*
X33423Y17087D1*
X33375Y16943D1*
X34879Y17612D2*
X34401D1*
X34354Y17182D1*
X34401Y17229D1*
X34545Y17278D1*
X34687D1*
X34831Y17229D1*
X34927Y17134D1*
X34975Y16991D1*
Y16896D1*
X34927Y16752D1*
X34831Y16656D1*
X34687Y16608D1*
X34545D1*
X34401Y16656D1*
X34354Y16704D1*
X34305Y16799D1*
X35571Y17612D2*
X35427Y17564D1*
X35331Y17421D1*
X35284Y17182D1*
Y17038D1*
X35331Y16799D1*
X35427Y16656D1*
X35571Y16608D1*
X35666D1*
X35810Y16656D1*
X35905Y16799D1*
X35954Y17038D1*
Y17182D1*
X35905Y17421D1*
X35810Y17564D1*
X35666Y17612D1*
X35571D1*
X35905Y17421D2*
X35331Y16799D1*
X36311Y17373D2*
Y17421D1*
X36358Y17517D1*
X36406Y17564D1*
X36502Y17612D1*
X36693D1*
X36788Y17564D1*
X36836Y17517D1*
X36885Y17421D1*
Y17326D1*
X36836Y17229D1*
X36741Y17087D1*
X36262Y16608D1*
X36932D1*
X38930Y17374D2*
X38883Y17469D1*
X38787Y17565D1*
X38692Y17613D1*
X38500D1*
X38404Y17565D1*
X38309Y17469D1*
X38261Y17374D1*
X38213Y17231D1*
Y16991D1*
X38261Y16848D1*
X38309Y16752D1*
X38404Y16657D1*
X38500Y16608D1*
X38692D1*
X38787Y16657D1*
X38883Y16752D1*
X38930Y16848D1*
Y16991D1*
X38692D1*
X39813Y17278D2*
Y16608D1*
Y17134D2*
X39718Y17231D1*
X39622Y17278D1*
X39479D1*
X39383Y17231D1*
X39288Y17134D1*
X39239Y16991D1*
Y16896D1*
X39288Y16752D1*
X39383Y16657D1*
X39479Y16608D1*
X39622D1*
X39718Y16657D1*
X39813Y16752D1*
X40122Y17278D2*
Y16608D1*
Y17087D2*
X40265Y17231D1*
X40362Y17278D1*
X40504D1*
X40600Y17231D1*
X40648Y17087D1*
Y16608D1*
Y17087D2*
X40792Y17231D1*
X40888Y17278D1*
X41030D1*
X41126Y17231D1*
X41175Y17087D1*
Y16608D1*
X41484Y16991D2*
X42058D1*
Y17087D1*
X42010Y17183D1*
X41963Y17231D1*
X41866Y17278D1*
X41723D1*
X41628Y17231D1*
X41531Y17134D1*
X41484Y16991D1*
Y16896D1*
X41531Y16752D1*
X41628Y16657D1*
X41723Y16608D1*
X41866D1*
X41963Y16657D1*
X42058Y16752D1*
X44008Y17469D2*
X43913Y17565D1*
X43769Y17613D1*
X43578D1*
X43435Y17565D1*
X43338Y17469D1*
Y17374D1*
X43387Y17278D1*
X43435Y17231D1*
X43530Y17183D1*
X43817Y17087D1*
X43913Y17039D1*
X43961Y16991D1*
X44008Y16896D1*
Y16752D1*
X43913Y16657D1*
X43769Y16608D1*
X43578D1*
X43435Y16657D1*
X43338Y16752D1*
X44366Y17278D2*
X44652Y16608D1*
X44557Y16417D1*
X44461Y16321D1*
X44366Y16273D1*
X44317D1*
X44939Y17278D2*
X44652Y16608D1*
X45774Y17134D2*
X45727Y17231D1*
X45583Y17278D1*
X45439D1*
X45296Y17231D1*
X45248Y17134D1*
X45296Y17039D1*
X45392Y16991D1*
X45631Y16943D1*
X45727Y16896D1*
X45774Y16799D1*
Y16752D1*
X45727Y16657D1*
X45583Y16608D1*
X45439D1*
X45296Y16657D1*
X45248Y16752D1*
X46227Y17613D2*
Y16799D1*
X46274Y16657D1*
X46371Y16608D1*
X46466D1*
X46083Y17278D2*
X46418D1*
X46774Y16991D2*
X47348D1*
Y17087D1*
X47301Y17183D1*
X47253Y17231D1*
X47157Y17278D1*
X47013D1*
X46918Y17231D1*
X46822Y17134D1*
X46774Y16991D1*
Y16896D1*
X46822Y16752D1*
X46918Y16657D1*
X47013Y16608D1*
X47157D1*
X47253Y16657D1*
X47348Y16752D1*
X47657Y17278D2*
Y16608D1*
Y17087D2*
X47801Y17231D1*
X47897Y17278D1*
X48039D1*
X48135Y17231D1*
X48183Y17087D1*
Y16608D1*
Y17087D2*
X48327Y17231D1*
X48423Y17278D1*
X48565D1*
X48662Y17231D1*
X48710Y17087D1*
Y16608D1*
M02*
