G04 DipTrace 2.4.0.2*
%INBottom.gbr*%
%MOIN*%
%ADD13C,0.02*%
%ADD14C,0.013*%
%ADD15C,0.025*%
%ADD18C,0.063*%
%ADD19R,0.063X0.063*%
%ADD20R,0.0591X0.0591*%
%ADD21C,0.0591*%
%ADD22C,0.05*%
%ADD23R,0.05X0.05*%
%ADD25R,0.0748X0.0748*%
%ADD26C,0.0748*%
%ADD27O,0.0394X0.0787*%
%ADD28C,0.06*%
%ADD29C,0.06*%
%ADD30C,0.0787*%
%ADD31R,0.0787X0.0787*%
%ADD32R,0.0669X0.0669*%
%ADD33C,0.0669*%
%ADD34C,0.067*%
%ADD35C,0.04*%
%FSLAX44Y44*%
G04*
G70*
G90*
G75*
G01*
%LNBottom*%
%LPD*%
X30000Y8375D2*
D14*
Y8250D1*
X30500Y7750D1*
X35625D1*
X28000Y8375D2*
X29375Y7000D1*
X40000D1*
X42875Y4125D1*
X45250D1*
X45375Y4250D1*
X39000Y2500D2*
Y2625D1*
X38500Y3125D1*
Y3875D1*
X37750Y4625D1*
X31750D1*
X31500Y4875D1*
Y5500D1*
X31000Y6000D1*
X27875D1*
X27500Y5625D1*
Y5000D1*
X27250Y4750D1*
X15875D1*
X13500Y2375D1*
X6000D1*
X4125Y4250D1*
X3000D1*
X2625Y4625D1*
Y8125D1*
X2375Y8375D1*
Y10875D1*
X2625Y11125D1*
Y14625D1*
X4000Y16000D1*
Y17375D1*
X5500Y18875D1*
Y27875D1*
X5000Y28375D1*
X4950D1*
X5000Y28425D1*
X36125Y16000D2*
Y17375D1*
X37375Y18625D1*
X39250D1*
X41625Y21000D1*
Y32750D1*
X40250Y34125D1*
X35125D1*
X35000Y34000D1*
X34500D1*
X39125Y16000D2*
Y17375D1*
X42375Y20625D1*
Y33125D1*
X40625Y34875D1*
X26375D1*
X26000Y35250D1*
Y36000D1*
X25750Y36250D1*
X24000D1*
X23500Y35750D1*
X38125Y16000D2*
Y17375D1*
X38810Y18060D1*
X39435D1*
X42125Y20750D1*
Y33000D1*
X40500Y34625D1*
X26125D1*
X25500Y35250D1*
Y35750D1*
X40125Y16000D2*
Y18000D1*
X42625Y20500D1*
Y33250D1*
X40750Y35125D1*
X36125D1*
X35500Y35750D1*
X37125Y16000D2*
Y17375D1*
X38125Y18375D1*
X39375D1*
X41875Y20875D1*
Y32875D1*
X40375Y34375D1*
X25375D1*
X24500Y35250D1*
Y35750D1*
X35125Y13000D2*
Y14250D1*
X32875Y16500D1*
X22875D1*
X22375Y16000D1*
X29000Y5375D2*
X28125Y4500D1*
X16000D1*
X13625Y2125D1*
X5250D1*
X4125Y3250D1*
X4000D1*
X28000Y2500D2*
Y1875D1*
X28625Y1250D1*
X3500Y16625D2*
Y15875D1*
X2375Y14750D1*
Y11250D1*
X2125Y11000D1*
Y8250D1*
X2375Y8000D1*
Y3750D1*
X3625Y2500D1*
X4500D1*
X5125Y1875D1*
X13750D1*
X16125Y4250D1*
X29875D1*
X31000Y5375D1*
X35875Y12125D2*
X39625D1*
X39875Y12375D1*
X54375D1*
X55875Y13875D1*
X34000Y3500D2*
X33875D1*
X33500Y3125D1*
Y1250D1*
X33125Y875D1*
X3875D1*
X3375Y1375D1*
Y2375D1*
X2125Y3625D1*
Y7875D1*
X1875Y8125D1*
Y11125D1*
X2125Y11375D1*
Y14875D1*
X3000Y15750D1*
Y27250D1*
X4750Y29000D1*
X6250D1*
X6625Y28625D1*
X8750D1*
X9500Y29375D1*
Y32375D1*
X7500Y34375D1*
Y35740D1*
X9500Y37240D2*
X8885Y36625D1*
X5385D1*
X4500Y35740D1*
X35000Y2500D2*
Y2000D1*
X33375Y375D1*
X3625D1*
X2875Y1125D1*
Y2125D1*
X625Y4375D1*
Y14500D1*
X2250Y16125D1*
Y29750D1*
X3000Y30500D1*
X5875D1*
X7000Y29375D1*
X8375D1*
X8750Y29750D1*
Y32000D1*
X6375Y34375D1*
X5125D1*
X4500Y35000D1*
Y35740D1*
X38000Y2500D2*
X37500Y3000D1*
X34750D1*
X34500Y2750D1*
Y1875D1*
X33250Y625D1*
X3750D1*
X3125Y1250D1*
Y2250D1*
X875Y4500D1*
Y14375D1*
X2500Y16000D1*
Y27500D1*
X4500Y29500D1*
X6500D1*
X6875Y29125D1*
X8500D1*
X9000Y29625D1*
Y32125D1*
X6500Y34625D1*
Y35740D1*
X5500D2*
X6135Y36375D1*
X7328D1*
X9500D1*
X10125Y37000D1*
Y37500D1*
X9875Y37750D1*
X9010D1*
X8500Y37240D1*
X37500Y2000D2*
Y875D1*
X1750Y4750D2*
X1125Y5375D1*
Y14250D1*
X2750Y15875D1*
Y27375D1*
X4625Y29250D1*
X6375D1*
X6750Y28875D1*
X8625D1*
X9250Y29500D1*
Y32250D1*
X7000Y34500D1*
Y36047D1*
X7328Y36375D1*
X21375Y16000D2*
D13*
Y18000D1*
X22375Y19000D1*
X39000D1*
X41250Y21250D1*
Y32625D1*
X40375Y33500D1*
X23250D1*
X21500Y35250D1*
Y35750D1*
X51375Y14875D2*
D14*
X55375D1*
X56250Y15750D1*
X32000Y8375D2*
X31875D1*
X31125Y9125D1*
X22750D1*
X22250Y8625D1*
X27000Y5375D2*
X26375D1*
X26000Y5000D1*
X15750D1*
X13500Y2750D1*
X12000D1*
X10000D2*
X6000D1*
X4250Y4500D1*
X3125D1*
X2875Y4750D1*
Y8250D1*
X2625Y8500D1*
Y10750D1*
X2875Y11000D1*
Y14500D1*
X4250Y15875D1*
Y17250D1*
X4750Y17750D1*
X10125D1*
X12000Y19625D1*
Y20875D1*
D35*
X34500Y34000D3*
X28625Y1250D3*
X35875Y12125D3*
X55875Y13875D3*
X37500Y2000D3*
Y875D3*
X1750Y4750D3*
X51375Y14875D3*
X56250Y15750D3*
X12000Y2750D3*
X10000D3*
X2254Y39126D2*
D15*
X57746D1*
X2406Y38878D2*
X57594D1*
X2476Y38629D2*
X52996D1*
X54386D2*
X55942D1*
X56558D2*
X57524D1*
X2476Y38380D2*
X52996D1*
X54386D2*
X55661D1*
X56839D2*
X57524D1*
X2410Y38132D2*
X8864D1*
X10019D2*
X52996D1*
X54386D2*
X55563D1*
X56937D2*
X57590D1*
X2261Y37883D2*
X4286D1*
X4714D2*
X5286D1*
X5714D2*
X6286D1*
X6714D2*
X7286D1*
X7714D2*
X8286D1*
X10332D2*
X52996D1*
X54386D2*
X55571D1*
X56929D2*
X57739D1*
X650Y37634D2*
X1059D1*
X1941D2*
X3934D1*
X10527D2*
X52996D1*
X54386D2*
X55680D1*
X56820D2*
X58059D1*
X58941D2*
X59352D1*
X650Y37385D2*
X3821D1*
X10550D2*
X45508D1*
X47429D2*
X48223D1*
X49027D2*
X52223D1*
X54386D2*
X56016D1*
X56484D2*
X59352D1*
X650Y37137D2*
X3813D1*
X10550D2*
X45508D1*
X47668D2*
X48020D1*
X49230D2*
X52020D1*
X53230D2*
X59352D1*
X650Y36888D2*
X3907D1*
X10535D2*
X16422D1*
X17316D2*
X42684D1*
X43578D2*
X45508D1*
X47730D2*
X47965D1*
X49285D2*
X51965D1*
X53285D2*
X53464D1*
X53918D2*
X56024D1*
X56476D2*
X59352D1*
X650Y36639D2*
X4180D1*
X10355D2*
X16106D1*
X17632D2*
X23883D1*
X25867D2*
X42368D1*
X43894D2*
X45508D1*
X47679D2*
X48012D1*
X49238D2*
X52012D1*
X54261D2*
X55680D1*
X56820D2*
X59352D1*
X650Y36391D2*
X4317D1*
X10105D2*
X15957D1*
X17781D2*
X23551D1*
X26199D2*
X42219D1*
X44043D2*
X45508D1*
X47472D2*
X48188D1*
X49062D2*
X52188D1*
X54371D2*
X55571D1*
X56929D2*
X59352D1*
X650Y36142D2*
X3938D1*
X10062D2*
X15891D1*
X17847D2*
X19844D1*
X40019D2*
X42153D1*
X44109D2*
X53004D1*
X54379D2*
X55563D1*
X56937D2*
X59352D1*
X650Y35893D2*
X3825D1*
X10175D2*
X15895D1*
X17847D2*
X19844D1*
X40140D2*
X42153D1*
X44105D2*
X53098D1*
X54281D2*
X55657D1*
X56843D2*
X59352D1*
X650Y35645D2*
X3813D1*
X10187D2*
X15965D1*
X17777D2*
X19844D1*
X40148D2*
X42223D1*
X44035D2*
X53379D1*
X54004D2*
X55938D1*
X56562D2*
X59352D1*
X650Y35396D2*
X3899D1*
X10101D2*
X16121D1*
X17621D2*
X19844D1*
X41070D2*
X42379D1*
X43879D2*
X59352D1*
X650Y35147D2*
X4075D1*
X7925D2*
X8164D1*
X8836D2*
X9164D1*
X9836D2*
X16457D1*
X17281D2*
X19844D1*
X41320D2*
X42719D1*
X43543D2*
X59352D1*
X650Y34899D2*
X4086D1*
X7925D2*
X21211D1*
X41566D2*
X59352D1*
X650Y34650D2*
X4258D1*
X7925D2*
X21461D1*
X41816D2*
X59352D1*
X650Y34401D2*
X4508D1*
X8066D2*
X21707D1*
X42066D2*
X59352D1*
X650Y34153D2*
X4758D1*
X8312D2*
X21957D1*
X42312D2*
X59352D1*
X650Y33904D2*
X6254D1*
X8562D2*
X22207D1*
X42562D2*
X45516D1*
X47398D2*
X48250D1*
X49000D2*
X52250D1*
X53000D2*
X59352D1*
X650Y33655D2*
X6504D1*
X8812D2*
X22454D1*
X42812D2*
X45516D1*
X47664D2*
X48032D1*
X49218D2*
X52032D1*
X53218D2*
X59352D1*
X650Y33406D2*
X6754D1*
X9058D2*
X22704D1*
X43019D2*
X45516D1*
X47734D2*
X47965D1*
X49285D2*
X51965D1*
X53285D2*
X59352D1*
X650Y33158D2*
X7000D1*
X9308D2*
X19856D1*
X43050D2*
X45516D1*
X47695D2*
X48004D1*
X49246D2*
X52004D1*
X53246D2*
X59352D1*
X650Y32909D2*
X7250D1*
X9558D2*
X19582D1*
X43050D2*
X45516D1*
X47504D2*
X48168D1*
X49082D2*
X52168D1*
X53082D2*
X59352D1*
X650Y32660D2*
X809D1*
X1316D2*
X7500D1*
X9804D2*
X19551D1*
X43050D2*
X59352D1*
X1668Y32412D2*
X7746D1*
X9921D2*
X19551D1*
X43050D2*
X59352D1*
X1789Y32163D2*
X4750D1*
X5250D2*
X7996D1*
X9925D2*
X19551D1*
X43050D2*
X59352D1*
X1816Y31914D2*
X4446D1*
X5554D2*
X8246D1*
X9925D2*
X19551D1*
X43050D2*
X59352D1*
X1750Y31666D2*
X4352D1*
X5648D2*
X8325D1*
X9925D2*
X19551D1*
X43050D2*
X59352D1*
X1566Y31417D2*
X4364D1*
X5636D2*
X8325D1*
X9925D2*
X19551D1*
X43050D2*
X59352D1*
X650Y31168D2*
X4493D1*
X5507D2*
X8325D1*
X9925D2*
X19551D1*
X43050D2*
X59352D1*
X650Y30920D2*
X8325D1*
X9925D2*
X19551D1*
X43050D2*
X59352D1*
X650Y30671D2*
X2579D1*
X6296D2*
X6770D1*
X9925D2*
X10243D1*
X10750D2*
X19551D1*
X43050D2*
X59352D1*
X650Y30422D2*
X2332D1*
X6543D2*
X6770D1*
X11089D2*
X19551D1*
X43050D2*
X59352D1*
X650Y30174D2*
X2082D1*
X11207D2*
X19551D1*
X43050D2*
X59352D1*
X650Y29925D2*
X1864D1*
X11226D2*
X19551D1*
X43050D2*
X59352D1*
X650Y29676D2*
X1825D1*
X11152D2*
X19551D1*
X43050D2*
X59352D1*
X650Y29427D2*
X1825D1*
X9925D2*
X10054D1*
X10941D2*
X19551D1*
X43050D2*
X59352D1*
X650Y29179D2*
X1825D1*
X9875D2*
X19551D1*
X43050D2*
X59352D1*
X650Y28930D2*
X1825D1*
X9644D2*
X19551D1*
X43050D2*
X59352D1*
X1418Y28681D2*
X1825D1*
X9398D2*
X19551D1*
X43050D2*
X59352D1*
X1695Y28433D2*
X1828D1*
X5656D2*
X6227D1*
X9148D2*
X19551D1*
X43050D2*
X59352D1*
X5781Y28184D2*
X19551D1*
X43050D2*
X59352D1*
X5921Y27935D2*
X19551D1*
X43050D2*
X59352D1*
X5925Y27687D2*
X19551D1*
X43050D2*
X59352D1*
X1511Y27438D2*
X1825D1*
X5925D2*
X19551D1*
X43050D2*
X59352D1*
X650Y27189D2*
X1825D1*
X5925D2*
X19551D1*
X43050D2*
X59352D1*
X650Y26941D2*
X1825D1*
X5925D2*
X19551D1*
X43050D2*
X59352D1*
X650Y26692D2*
X1825D1*
X5925D2*
X19551D1*
X43050D2*
X59352D1*
X650Y26443D2*
X1825D1*
X5925D2*
X19551D1*
X43050D2*
X59352D1*
X650Y26195D2*
X1825D1*
X5925D2*
X19551D1*
X43050D2*
X59352D1*
X650Y25946D2*
X1825D1*
X5925D2*
X19551D1*
X43050D2*
X59352D1*
X650Y25697D2*
X1825D1*
X5925D2*
X19551D1*
X43050D2*
X59352D1*
X650Y25448D2*
X1825D1*
X5925D2*
X19551D1*
X43050D2*
X59352D1*
X650Y25200D2*
X1825D1*
X5925D2*
X19551D1*
X43050D2*
X59352D1*
X650Y24951D2*
X1825D1*
X5925D2*
X19551D1*
X43050D2*
X59352D1*
X650Y24702D2*
X1825D1*
X5925D2*
X19551D1*
X43050D2*
X59352D1*
X650Y24454D2*
X1825D1*
X5925D2*
X19551D1*
X43050D2*
X59352D1*
X650Y24205D2*
X1282D1*
X5925D2*
X19551D1*
X43050D2*
X59352D1*
X650Y23956D2*
X1125D1*
X5925D2*
X19551D1*
X43050D2*
X59352D1*
X650Y23708D2*
X1090D1*
X5925D2*
X19551D1*
X43050D2*
X59352D1*
X650Y23459D2*
X1161D1*
X5925D2*
X19551D1*
X43050D2*
X59352D1*
X650Y23210D2*
X1391D1*
X5925D2*
X19551D1*
X43050D2*
X59352D1*
X650Y22962D2*
X1825D1*
X5925D2*
X19551D1*
X43050D2*
X59352D1*
X650Y22713D2*
X1825D1*
X5925D2*
X19551D1*
X43050D2*
X59352D1*
X650Y22464D2*
X1825D1*
X5925D2*
X19551D1*
X43050D2*
X59352D1*
X650Y22216D2*
X1825D1*
X5925D2*
X19551D1*
X43050D2*
X59352D1*
X650Y21967D2*
X1825D1*
X5925D2*
X19551D1*
X43050D2*
X59352D1*
X650Y21718D2*
X1825D1*
X5925D2*
X19551D1*
X43050D2*
X59352D1*
X650Y21469D2*
X1825D1*
X5925D2*
X7711D1*
X8289D2*
X9325D1*
X10675D2*
X11344D1*
X12656D2*
X13625D1*
X14125D2*
X19551D1*
X43050D2*
X59352D1*
X650Y21221D2*
X1825D1*
X5925D2*
X7426D1*
X8574D2*
X9325D1*
X10675D2*
X11344D1*
X12656D2*
X13317D1*
X14433D2*
X19551D1*
X43050D2*
X59352D1*
X650Y20972D2*
X1825D1*
X5925D2*
X7332D1*
X8668D2*
X9325D1*
X10675D2*
X11344D1*
X12656D2*
X13223D1*
X14527D2*
X19551D1*
X43050D2*
X59352D1*
X650Y20723D2*
X1825D1*
X5925D2*
X7344D1*
X8656D2*
X9325D1*
X10675D2*
X11344D1*
X12656D2*
X13235D1*
X14515D2*
X19551D1*
X43050D2*
X59352D1*
X650Y20475D2*
X1825D1*
X5925D2*
X7461D1*
X8539D2*
X9325D1*
X10675D2*
X11344D1*
X12656D2*
X13356D1*
X14394D2*
X19653D1*
X43050D2*
X59352D1*
X650Y20226D2*
X1305D1*
X5925D2*
X7942D1*
X8059D2*
X9325D1*
X10675D2*
X11575D1*
X12425D2*
X39586D1*
X42941D2*
X59352D1*
X650Y19977D2*
X1133D1*
X5925D2*
X11575D1*
X12425D2*
X39336D1*
X42691D2*
X59352D1*
X650Y19729D2*
X1090D1*
X5925D2*
X11512D1*
X12425D2*
X39090D1*
X42445D2*
X59352D1*
X650Y19480D2*
X1149D1*
X5925D2*
X11266D1*
X12398D2*
X38840D1*
X42195D2*
X59352D1*
X650Y19231D2*
X1360D1*
X5925D2*
X11016D1*
X12195D2*
X21965D1*
X41945D2*
X59352D1*
X650Y18983D2*
X1825D1*
X5925D2*
X10766D1*
X11949D2*
X21719D1*
X41699D2*
X59352D1*
X650Y18734D2*
X1825D1*
X5898D2*
X10520D1*
X11699D2*
X16235D1*
X17507D2*
X21469D1*
X41449D2*
X42493D1*
X43765D2*
X59352D1*
X650Y18485D2*
X1825D1*
X5699D2*
X10270D1*
X11449D2*
X16020D1*
X17718D2*
X21219D1*
X41199D2*
X42282D1*
X43980D2*
X59352D1*
X650Y18237D2*
X1825D1*
X5453D2*
X10020D1*
X11203D2*
X15914D1*
X17824D2*
X20985D1*
X40953D2*
X42176D1*
X44086D2*
X59352D1*
X650Y17988D2*
X1825D1*
X10953D2*
X14817D1*
X15683D2*
X15887D1*
X17855D2*
X20914D1*
X40703D2*
X42145D1*
X44113D2*
X59352D1*
X650Y17739D2*
X1825D1*
X10703D2*
X14637D1*
X17820D2*
X20914D1*
X40550D2*
X42180D1*
X44082D2*
X59352D1*
X650Y17490D2*
X1825D1*
X10457D2*
X11758D1*
X12242D2*
X13696D1*
X14054D2*
X14590D1*
X17711D2*
X20914D1*
X40550D2*
X42289D1*
X43972D2*
X59352D1*
X650Y17242D2*
X969D1*
X5925D2*
X7020D1*
X7480D2*
X10547D1*
X12554D2*
X13332D1*
X14418D2*
X14645D1*
X15855D2*
X16250D1*
X17492D2*
X20914D1*
X40550D2*
X42508D1*
X43750D2*
X59352D1*
X650Y16993D2*
X969D1*
X5925D2*
X6688D1*
X7812D2*
X10360D1*
X12648D2*
X13227D1*
X14523D2*
X14844D1*
X15656D2*
X20914D1*
X40550D2*
X59352D1*
X650Y16744D2*
X969D1*
X5925D2*
X6586D1*
X7914D2*
X10293D1*
X12636D2*
X13227D1*
X14523D2*
X20914D1*
X40550D2*
X59352D1*
X650Y16496D2*
X969D1*
X5925D2*
X6586D1*
X7914D2*
X10317D1*
X12511D2*
X13340D1*
X14410D2*
X17184D1*
X18074D2*
X18954D1*
X20304D2*
X20914D1*
X40550D2*
X40714D1*
X41539D2*
X41714D1*
X42539D2*
X42714D1*
X43539D2*
X59352D1*
X650Y16247D2*
X969D1*
X5925D2*
X6696D1*
X7804D2*
X10438D1*
X11652D2*
X13758D1*
X13995D2*
X17004D1*
X18257D2*
X18954D1*
X20304D2*
X20770D1*
X43730D2*
X45430D1*
X47550D2*
X49012D1*
X50964D2*
X51575D1*
X52925D2*
X53805D1*
X54695D2*
X56028D1*
X56472D2*
X59352D1*
X650Y15998D2*
X969D1*
X5925D2*
X7051D1*
X7449D2*
X8243D1*
X9250D2*
X10778D1*
X11308D2*
X12086D1*
X12789D2*
X16954D1*
X18304D2*
X18954D1*
X20304D2*
X20719D1*
X31031D2*
X31825D1*
X43781D2*
X45250D1*
X47550D2*
X48942D1*
X51054D2*
X51575D1*
X52925D2*
X53625D1*
X54875D2*
X55750D1*
X56750D2*
X59352D1*
X650Y15750D2*
X1286D1*
X4656D2*
X8079D1*
X9418D2*
X11836D1*
X13035D2*
X17004D1*
X18254D2*
X18954D1*
X20304D2*
X20770D1*
X30980D2*
X31825D1*
X43730D2*
X45200D1*
X47550D2*
X48942D1*
X51058D2*
X51575D1*
X52925D2*
X53575D1*
X54925D2*
X55661D1*
X56808D2*
X59352D1*
X650Y15501D2*
X1036D1*
X4468D2*
X8032D1*
X9461D2*
X11590D1*
X13281D2*
X17188D1*
X18070D2*
X18954D1*
X20304D2*
X20965D1*
X21785D2*
X21964D1*
X22785D2*
X22964D1*
X23785D2*
X23964D1*
X24785D2*
X24964D1*
X25785D2*
X25964D1*
X26785D2*
X26964D1*
X27785D2*
X27964D1*
X28785D2*
X28964D1*
X29785D2*
X29964D1*
X30785D2*
X31825D1*
X34535D2*
X34714D1*
X35535D2*
X35714D1*
X36535D2*
X36714D1*
X37535D2*
X37714D1*
X38535D2*
X38714D1*
X39535D2*
X39714D1*
X40535D2*
X40714D1*
X41535D2*
X41714D1*
X42535D2*
X42714D1*
X43535D2*
X45250D1*
X47550D2*
X48942D1*
X51054D2*
X51575D1*
X52925D2*
X53625D1*
X54875D2*
X55411D1*
X56750D2*
X59352D1*
X650Y15252D2*
X786D1*
X4218D2*
X8079D1*
X9414D2*
X11520D1*
X13351D2*
X33532D1*
X34714D2*
X45434D1*
X47550D2*
X49012D1*
X56472D2*
X59352D1*
X3968Y15004D2*
X8246D1*
X9246D2*
X11672D1*
X13203D2*
X33782D1*
X34961D2*
X50832D1*
X56093D2*
X59352D1*
X3722Y14755D2*
X11918D1*
X12953D2*
X34028D1*
X35211D2*
X50829D1*
X55847D2*
X59352D1*
X3472Y14506D2*
X12168D1*
X12703D2*
X32067D1*
X32933D2*
X34278D1*
X35457D2*
X50961D1*
X55554D2*
X59352D1*
X3300Y14258D2*
X31879D1*
X33121D2*
X34528D1*
X35550D2*
X55477D1*
X56273D2*
X59352D1*
X3300Y14009D2*
X14844D1*
X15656D2*
X31825D1*
X33175D2*
X34700D1*
X35550D2*
X55332D1*
X56418D2*
X59352D1*
X3300Y13760D2*
X7067D1*
X8062D2*
X14645D1*
X15855D2*
X31871D1*
X33129D2*
X34700D1*
X35550D2*
X55168D1*
X56421D2*
X59352D1*
X3300Y13511D2*
X6879D1*
X8250D2*
X10770D1*
X11738D2*
X14590D1*
X15910D2*
X20719D1*
X22769D2*
X22981D1*
X23769D2*
X23981D1*
X24769D2*
X24981D1*
X25769D2*
X25981D1*
X26769D2*
X26981D1*
X27769D2*
X27981D1*
X28769D2*
X28981D1*
X29769D2*
X29981D1*
X30769D2*
X32047D1*
X32953D2*
X33469D1*
X35550D2*
X35731D1*
X36519D2*
X36731D1*
X37519D2*
X37731D1*
X38519D2*
X38731D1*
X39519D2*
X39731D1*
X40519D2*
X40731D1*
X41519D2*
X41731D1*
X42519D2*
X42731D1*
X43519D2*
X54922D1*
X56293D2*
X59352D1*
X3300Y13263D2*
X6813D1*
X8316D2*
X10590D1*
X11914D2*
X14637D1*
X15863D2*
X20719D1*
X30972D2*
X33469D1*
X43722D2*
X54672D1*
X55855D2*
X59352D1*
X4027Y13014D2*
X6325D1*
X8293D2*
X10539D1*
X11968D2*
X14817D1*
X15761D2*
X16082D1*
X16668D2*
X20082D1*
X31031D2*
X33469D1*
X43781D2*
X54422D1*
X55605D2*
X59352D1*
X4144Y12765D2*
X6118D1*
X8168D2*
X10579D1*
X11925D2*
X14618D1*
X16945D2*
X19805D1*
X30984D2*
X33469D1*
X55355D2*
X59352D1*
X4152Y12517D2*
X6043D1*
X7824D2*
X8739D1*
X9175D2*
X10735D1*
X11773D2*
X14543D1*
X17031D2*
X19719D1*
X22804D2*
X22944D1*
X23804D2*
X23944D1*
X24804D2*
X24944D1*
X25804D2*
X25944D1*
X26804D2*
X26944D1*
X27804D2*
X27944D1*
X28804D2*
X28944D1*
X29804D2*
X29944D1*
X30804D2*
X33469D1*
X55109D2*
X59352D1*
X4050Y12268D2*
X6059D1*
X7527D2*
X8360D1*
X9550D2*
X14559D1*
X17011D2*
X19739D1*
X21011D2*
X35336D1*
X54859D2*
X59352D1*
X3714Y12019D2*
X6172D1*
X7418D2*
X8231D1*
X9679D2*
X14672D1*
X16879D2*
X19871D1*
X20879D2*
X35325D1*
X54582D2*
X59352D1*
X3300Y11771D2*
X4016D1*
X4976D2*
X6473D1*
X7117D2*
X7856D1*
X9707D2*
X12516D1*
X13476D2*
X14973D1*
X15617D2*
X16356D1*
X17015D2*
X35450D1*
X39836D2*
X41786D1*
X43214D2*
X49286D1*
X50714D2*
X59352D1*
X3300Y11522D2*
X3836D1*
X5156D2*
X7610D1*
X9648D2*
X12336D1*
X13656D2*
X16110D1*
X17261D2*
X39524D1*
X40554D2*
X41832D1*
X43168D2*
X44446D1*
X45476D2*
X47024D1*
X48054D2*
X49332D1*
X50668D2*
X51946D1*
X52976D2*
X59352D1*
X3300Y11273D2*
X3782D1*
X5211D2*
X7360D1*
X9468D2*
X12282D1*
X13711D2*
X15860D1*
X17511D2*
X39344D1*
X40734D2*
X42000D1*
X43000D2*
X44266D1*
X45656D2*
X46844D1*
X48234D2*
X49500D1*
X50500D2*
X51766D1*
X53156D2*
X59352D1*
X3300Y11025D2*
X3821D1*
X5171D2*
X7270D1*
X9101D2*
X12321D1*
X13671D2*
X15770D1*
X17601D2*
X17899D1*
X18648D2*
X21594D1*
X22906D2*
X39286D1*
X40793D2*
X44207D1*
X45714D2*
X46786D1*
X48293D2*
X51707D1*
X53214D2*
X59352D1*
X3230Y10776D2*
X3973D1*
X5019D2*
X7399D1*
X8972D2*
X12473D1*
X13519D2*
X15899D1*
X17472D2*
X17684D1*
X18867D2*
X21594D1*
X22906D2*
X39317D1*
X40761D2*
X44239D1*
X45683D2*
X46817D1*
X48261D2*
X51739D1*
X53183D2*
X59352D1*
X3050Y10527D2*
X7649D1*
X8726D2*
X16149D1*
X17226D2*
X17618D1*
X18929D2*
X21594D1*
X22906D2*
X39446D1*
X40632D2*
X44368D1*
X45554D2*
X46946D1*
X48132D2*
X51868D1*
X53054D2*
X59352D1*
X3050Y10279D2*
X7895D1*
X8476D2*
X16395D1*
X16976D2*
X17661D1*
X18890D2*
X21594D1*
X22906D2*
X34950D1*
X36300D2*
X37223D1*
X38027D2*
X39832D1*
X40246D2*
X44754D1*
X45168D2*
X47332D1*
X47746D2*
X52254D1*
X52668D2*
X59352D1*
X3050Y10030D2*
X17829D1*
X18718D2*
X21594D1*
X22906D2*
X34950D1*
X36300D2*
X37012D1*
X38238D2*
X59352D1*
X3050Y9781D2*
X34950D1*
X36300D2*
X36950D1*
X38300D2*
X59352D1*
X3785Y9532D2*
X11344D1*
X12285D2*
X34950D1*
X36300D2*
X36989D1*
X38261D2*
X39500D1*
X40578D2*
X44207D1*
X45714D2*
X47000D1*
X48078D2*
X51707D1*
X53214D2*
X59352D1*
X3988Y9284D2*
X6543D1*
X7461D2*
X11137D1*
X12488D2*
X15043D1*
X15961D2*
X22317D1*
X31558D2*
X34950D1*
X36300D2*
X37149D1*
X38101D2*
X39336D1*
X40742D2*
X44207D1*
X45714D2*
X46836D1*
X48242D2*
X51707D1*
X53214D2*
X59352D1*
X4062Y9035D2*
X6352D1*
X7656D2*
X11063D1*
X12562D2*
X14852D1*
X16156D2*
X17739D1*
X18761D2*
X21739D1*
X31804D2*
X39286D1*
X40793D2*
X44207D1*
X45714D2*
X46786D1*
X48293D2*
X51707D1*
X53214D2*
X59352D1*
X4046Y8786D2*
X6289D1*
X7714D2*
X10606D1*
X12546D2*
X14789D1*
X16214D2*
X17610D1*
X18890D2*
X21610D1*
X33504D2*
X39325D1*
X40757D2*
X42071D1*
X42929D2*
X44207D1*
X45714D2*
X46825D1*
X48257D2*
X49571D1*
X50429D2*
X51707D1*
X53214D2*
X59352D1*
X3937Y8538D2*
X6321D1*
X7683D2*
X10379D1*
X12437D2*
X14821D1*
X16183D2*
X17598D1*
X18902D2*
X21598D1*
X22902D2*
X26368D1*
X33632D2*
X39465D1*
X40613D2*
X41860D1*
X43140D2*
X44207D1*
X45714D2*
X46965D1*
X48113D2*
X49360D1*
X50640D2*
X51707D1*
X53214D2*
X59352D1*
X3632Y8289D2*
X4610D1*
X4806D2*
X6461D1*
X7543D2*
X10297D1*
X12132D2*
X13110D1*
X13306D2*
X14961D1*
X16043D2*
X17688D1*
X18812D2*
X21688D1*
X22812D2*
X26352D1*
X33648D2*
X34969D1*
X36281D2*
X39250D1*
X40117D2*
X41789D1*
X43211D2*
X44207D1*
X45714D2*
X47461D1*
X47617D2*
X49289D1*
X50711D2*
X51707D1*
X53214D2*
X59352D1*
X3300Y8040D2*
X4129D1*
X5281D2*
X10305D1*
X11785D2*
X12629D1*
X13781D2*
X17977D1*
X18523D2*
X21977D1*
X22523D2*
X26442D1*
X36281D2*
X39016D1*
X40187D2*
X41813D1*
X43187D2*
X49313D1*
X50687D2*
X59352D1*
X3300Y7792D2*
X3989D1*
X5421D2*
X10407D1*
X11683D2*
X12489D1*
X13921D2*
X26735D1*
X27265D2*
X27735D1*
X36281D2*
X38946D1*
X40254D2*
X41942D1*
X43058D2*
X49442D1*
X50558D2*
X59352D1*
X3300Y7543D2*
X3954D1*
X5461D2*
X8293D1*
X9199D2*
X10676D1*
X11410D2*
X12129D1*
X13961D2*
X28243D1*
X36281D2*
X38981D1*
X40222D2*
X42403D1*
X42598D2*
X49903D1*
X50098D2*
X59352D1*
X3300Y7294D2*
X4004D1*
X5406D2*
X8098D1*
X9398D2*
X11879D1*
X13906D2*
X28489D1*
X40296D2*
X59352D1*
X3300Y7046D2*
X4168D1*
X5242D2*
X8036D1*
X9461D2*
X11633D1*
X13742D2*
X19731D1*
X20769D2*
X21575D1*
X22925D2*
X28739D1*
X40546D2*
X43399D1*
X44101D2*
X59352D1*
X3300Y6797D2*
X8063D1*
X9429D2*
X11520D1*
X13351D2*
X19598D1*
X20902D2*
X21575D1*
X22925D2*
X28989D1*
X40793D2*
X43164D1*
X44336D2*
X44700D1*
X46050D2*
X47000D1*
X47750D2*
X50500D1*
X51500D2*
X59352D1*
X3300Y6548D2*
X8204D1*
X9289D2*
X11625D1*
X13246D2*
X19579D1*
X20921D2*
X21575D1*
X22925D2*
X39860D1*
X41043D2*
X43090D1*
X44410D2*
X44700D1*
X46050D2*
X46774D1*
X47976D2*
X50364D1*
X51636D2*
X59352D1*
X3300Y6300D2*
X11875D1*
X12996D2*
X19664D1*
X20836D2*
X21575D1*
X22925D2*
X27586D1*
X31289D2*
X35129D1*
X36121D2*
X39129D1*
X41293D2*
X43121D1*
X44379D2*
X44700D1*
X46050D2*
X46704D1*
X48046D2*
X50344D1*
X51656D2*
X59352D1*
X3300Y6051D2*
X12125D1*
X12750D2*
X19922D1*
X20578D2*
X21575D1*
X22925D2*
X27336D1*
X31539D2*
X34989D1*
X36261D2*
X38989D1*
X41539D2*
X43278D1*
X44222D2*
X44700D1*
X46050D2*
X46731D1*
X48019D2*
X50430D1*
X51570D2*
X59352D1*
X4175Y5802D2*
X4985D1*
X6015D2*
X26344D1*
X33488D2*
X34969D1*
X36281D2*
X38969D1*
X40281D2*
X40606D1*
X41789D2*
X44700D1*
X46050D2*
X46879D1*
X47871D2*
X50700D1*
X51300D2*
X59352D1*
X4175Y5553D2*
X4852D1*
X6148D2*
X25961D1*
X33629D2*
X35051D1*
X36199D2*
X39051D1*
X40199D2*
X40856D1*
X42039D2*
X59352D1*
X4175Y5305D2*
X4829D1*
X6171D2*
X7125D1*
X8004D2*
X15465D1*
X33652D2*
X35321D1*
X35929D2*
X39321D1*
X39929D2*
X41106D1*
X42285D2*
X59352D1*
X4175Y5056D2*
X4911D1*
X6089D2*
X6899D1*
X8226D2*
X10825D1*
X11679D2*
X15215D1*
X33570D2*
X41352D1*
X42535D2*
X59352D1*
X4531Y4807D2*
X5157D1*
X5843D2*
X6817D1*
X8312D2*
X10614D1*
X11894D2*
X14965D1*
X38160D2*
X41602D1*
X42785D2*
X44719D1*
X46031D2*
X49032D1*
X49671D2*
X59352D1*
X4781Y4559D2*
X6825D1*
X8304D2*
X10539D1*
X11964D2*
X14719D1*
X38406D2*
X41852D1*
X43031D2*
X44719D1*
X46031D2*
X48778D1*
X49925D2*
X59352D1*
X5031Y4310D2*
X6926D1*
X8199D2*
X10563D1*
X11941D2*
X14469D1*
X38656D2*
X42098D1*
X46031D2*
X48700D1*
X50004D2*
X59352D1*
X5281Y4061D2*
X7200D1*
X7929D2*
X10696D1*
X11812D2*
X14219D1*
X39312D2*
X39688D1*
X40312D2*
X40688D1*
X41312D2*
X41688D1*
X46031D2*
X48727D1*
X49976D2*
X59352D1*
X5527Y3813D2*
X7668D1*
X9511D2*
X11149D1*
X11359D2*
X13973D1*
X46031D2*
X48871D1*
X49832D2*
X59352D1*
X5777Y3564D2*
X7407D1*
X9664D2*
X13723D1*
X42652D2*
X59352D1*
X6027Y3315D2*
X7325D1*
X9711D2*
X13473D1*
X42629D2*
X59352D1*
X10457Y3067D2*
X11543D1*
X42484D2*
X43438D1*
X44062D2*
X59352D1*
X10554Y2818D2*
X11446D1*
X42570D2*
X43176D1*
X44324D2*
X44895D1*
X45855D2*
X48895D1*
X49855D2*
X50520D1*
X51480D2*
X59352D1*
X42652Y2569D2*
X43094D1*
X44406D2*
X44746D1*
X46004D2*
X48746D1*
X50004D2*
X50371D1*
X51629D2*
X59352D1*
X42629Y2321D2*
X43118D1*
X44382D2*
X44719D1*
X46031D2*
X48719D1*
X50031D2*
X50344D1*
X51656D2*
X57977D1*
X59023D2*
X59352D1*
X42488Y2072D2*
X43254D1*
X44246D2*
X44793D1*
X45957D2*
X48793D1*
X49957D2*
X50418D1*
X51582D2*
X57704D1*
X38031Y1823D2*
X45036D1*
X45714D2*
X49036D1*
X49714D2*
X50661D1*
X51339D2*
X57571D1*
X37925Y1574D2*
X57520D1*
X37925Y1326D2*
X57532D1*
X38019Y1077D2*
X57614D1*
X38058Y828D2*
X57789D1*
X8649Y20850D2*
X8633Y20726D1*
X8593Y20608D1*
X8531Y20500D1*
X8449Y20405D1*
X8351Y20328D1*
X8240Y20271D1*
X8120Y20236D1*
X7996Y20225D1*
X7872Y20238D1*
X7752Y20274D1*
X7642Y20332D1*
X7545Y20411D1*
X7465Y20506D1*
X7404Y20616D1*
X7365Y20734D1*
X7350Y20858D1*
X7359Y20983D1*
X7391Y21103D1*
X7446Y21215D1*
X7521Y21315D1*
X7614Y21398D1*
X7721Y21462D1*
X7839Y21505D1*
X7962Y21524D1*
X8087Y21519D1*
X8208Y21491D1*
X8322Y21439D1*
X8424Y21367D1*
X8510Y21277D1*
X8578Y21172D1*
X8624Y21056D1*
X8647Y20934D1*
X8649Y20850D1*
X9475Y21525D2*
X10650D1*
Y20225D1*
X9350D1*
Y21525D1*
X9475D1*
X6149Y5350D2*
X6133Y5226D1*
X6093Y5108D1*
X6031Y5000D1*
X5949Y4905D1*
X5851Y4828D1*
X5740Y4771D1*
X5620Y4736D1*
X5496Y4725D1*
X5372Y4738D1*
X5252Y4774D1*
X5142Y4832D1*
X5045Y4911D1*
X4965Y5006D1*
X4904Y5116D1*
X4865Y5234D1*
X4850Y5358D1*
X4859Y5483D1*
X4891Y5603D1*
X4946Y5715D1*
X5021Y5815D1*
X5114Y5898D1*
X5221Y5962D1*
X5339Y6005D1*
X5462Y6024D1*
X5587Y6019D1*
X5708Y5991D1*
X5822Y5939D1*
X5924Y5867D1*
X6010Y5777D1*
X6078Y5672D1*
X6124Y5556D1*
X6147Y5434D1*
X6149Y5350D1*
X3276Y6025D2*
X4150D1*
Y4896D1*
X4250Y4900D1*
X4373Y4881D1*
X4487Y4822D1*
X4710Y4606D1*
X6165Y3150D1*
X7355D1*
X7346Y3270D1*
X7363Y3394D1*
X7403Y3512D1*
X7466Y3620D1*
X7549Y3713D1*
X7648Y3788D1*
X7761Y3842D1*
X7882Y3873D1*
X8006Y3880D1*
X8130Y3861D1*
X8247Y3819D1*
X8368Y3745D1*
X8450Y3839D1*
X8547Y3917D1*
X8656Y3978D1*
X8774Y4020D1*
X8897Y4040D1*
X9022D1*
X9145Y4018D1*
X9262Y3975D1*
X9371Y3913D1*
X9467Y3834D1*
X9548Y3739D1*
X9612Y3632D1*
X9656Y3515D1*
X9681Y3393D1*
X9685Y3314D1*
X9669Y3171D1*
X9740Y3218D1*
X9856Y3265D1*
X9979Y3285D1*
X10103Y3275D1*
X10222Y3237D1*
X10329Y3172D1*
X10417Y3085D1*
X10484Y2979D1*
X10523Y2861D1*
X10532Y2774D1*
X11465Y2775D1*
X11500Y2940D1*
X11557Y3051D1*
X11639Y3145D1*
X11740Y3218D1*
X11856Y3265D1*
X11979Y3285D1*
X12103Y3275D1*
X12222Y3237D1*
X12329Y3172D1*
X12354Y3148D1*
X13332Y3150D1*
X15467Y5283D1*
X15568Y5356D1*
X15690Y5395D1*
X16000Y5400D1*
X25832D1*
X26092Y5658D1*
X26193Y5731D1*
X26315Y5770D1*
X26370Y5775D1*
Y6005D1*
X27311D1*
X27592Y6283D1*
X27693Y6356D1*
X27815Y6395D1*
X28125Y6400D1*
X31000D1*
X31123Y6381D1*
X31237Y6322D1*
X31460Y6106D1*
X31661Y5904D1*
X31784Y5967D1*
X31905Y5998D1*
X32030Y6005D1*
X32153Y5986D1*
X32271Y5944D1*
X32378Y5880D1*
X32470Y5795D1*
X32500Y5754D1*
X32554Y5821D1*
X32651Y5900D1*
X32761Y5958D1*
X32881Y5994D1*
X33005Y6005D1*
X33129Y5992D1*
X33248Y5954D1*
X33357Y5894D1*
X33453Y5814D1*
X33530Y5716D1*
X33587Y5605D1*
X33621Y5485D1*
X33630Y5350D1*
X33613Y5226D1*
X33571Y5109D1*
X33524Y5025D1*
X37750D1*
X37873Y5006D1*
X37987Y4947D1*
X38210Y4731D1*
X38822Y4111D1*
X39030Y4130D1*
X39153Y4111D1*
X39271Y4069D1*
X39378Y4005D1*
X39470Y3920D1*
X39500Y3879D1*
X39572Y3963D1*
X39672Y4038D1*
X39784Y4092D1*
X39905Y4123D1*
X40030Y4130D1*
X40153Y4111D1*
X40271Y4069D1*
X40378Y4005D1*
X40470Y3920D1*
X40500Y3879D1*
X40572Y3963D1*
X40672Y4038D1*
X40784Y4092D1*
X40905Y4123D1*
X41030Y4130D1*
X41153Y4111D1*
X41271Y4069D1*
X41378Y4005D1*
X41470Y3920D1*
X41500Y3879D1*
X41554Y3946D1*
X41651Y4025D1*
X41761Y4083D1*
X41881Y4119D1*
X42005Y4130D1*
X42129Y4117D1*
X42248Y4079D1*
X42357Y4019D1*
X42453Y3939D1*
X42530Y3841D1*
X42587Y3730D1*
X42621Y3610D1*
X42630Y3475D1*
X42613Y3351D1*
X42571Y3234D1*
X42508Y3126D1*
X42424Y3034D1*
X42384Y3000D1*
X42470Y2920D1*
X42543Y2820D1*
X42596Y2706D1*
X42625Y2585D1*
X42630Y2500D1*
X42618Y2376D1*
X42581Y2257D1*
X42522Y2147D1*
X42442Y2051D1*
X42345Y1973D1*
X42234Y1915D1*
X42114Y1880D1*
X41990Y1870D1*
X41866Y1884D1*
X41747Y1923D1*
X41639Y1984D1*
X41544Y2065D1*
X41503Y2117D1*
X41442Y2051D1*
X41345Y1973D1*
X41234Y1915D1*
X41114Y1880D1*
X40990Y1870D1*
X40866Y1884D1*
X40747Y1923D1*
X40639Y1984D1*
X40544Y2065D1*
X40503Y2117D1*
X40442Y2051D1*
X40345Y1973D1*
X40234Y1915D1*
X40114Y1880D1*
X39990Y1870D1*
X39866Y1884D1*
X39747Y1923D1*
X39639Y1984D1*
X39544Y2065D1*
X39503Y2117D1*
X39442Y2051D1*
X39345Y1973D1*
X39234Y1915D1*
X39114Y1880D1*
X38990Y1870D1*
X38866Y1884D1*
X38747Y1923D1*
X38639Y1984D1*
X38544Y2065D1*
X38503Y2117D1*
X38442Y2051D1*
X38345Y1973D1*
X38234Y1915D1*
X38114Y1880D1*
X38017Y1872D1*
X37978Y1759D1*
X37900Y1647D1*
Y1230D1*
X37984Y1104D1*
X38023Y986D1*
X38035Y875D1*
X38020Y751D1*
X37971Y624D1*
X58105Y625D1*
X57925Y732D1*
X57830Y813D1*
X57746Y906D1*
X57675Y1009D1*
X57619Y1120D1*
X57577Y1237D1*
X57550Y1360D1*
X57540Y1484D1*
X57546Y1609D1*
X57568Y1732D1*
X57606Y1851D1*
X57659Y1964D1*
X57727Y2069D1*
X57807Y2165D1*
X57899Y2249D1*
X58002Y2321D1*
X58112Y2378D1*
X58230Y2421D1*
X58352Y2448D1*
X58476Y2460D1*
X58601Y2455D1*
X58724Y2433D1*
X58843Y2397D1*
X58957Y2344D1*
X59063Y2278D1*
X59159Y2198D1*
X59244Y2107D1*
X59316Y2005D1*
X59376Y1891D1*
X59375Y15250D1*
Y38105D1*
X59264Y37918D1*
X59182Y37824D1*
X59088Y37741D1*
X58985Y37671D1*
X58873Y37615D1*
X58755Y37574D1*
X58633Y37549D1*
X58508Y37540D1*
X58383Y37547D1*
X58261Y37570D1*
X58142Y37609D1*
X58029Y37663D1*
X57925Y37732D1*
X57830Y37813D1*
X57746Y37906D1*
X57675Y38009D1*
X57619Y38120D1*
X57577Y38237D1*
X57550Y38360D1*
X57540Y38484D1*
X57546Y38609D1*
X57568Y38732D1*
X57606Y38851D1*
X57659Y38964D1*
X57727Y39069D1*
X57807Y39165D1*
X57899Y39249D1*
X58002Y39321D1*
X58109Y39377D1*
X47125Y39375D1*
X1895D1*
X2063Y39278D1*
X2159Y39198D1*
X2244Y39107D1*
X2316Y39005D1*
X2375Y38895D1*
X2419Y38778D1*
X2447Y38656D1*
X2460Y38500D1*
X2452Y38375D1*
X2428Y38253D1*
X2388Y38134D1*
X2333Y38022D1*
X2264Y37918D1*
X2182Y37824D1*
X2088Y37741D1*
X1985Y37671D1*
X1873Y37615D1*
X1755Y37574D1*
X1633Y37549D1*
X1508Y37540D1*
X1383Y37547D1*
X1261Y37570D1*
X1142Y37609D1*
X1029Y37663D1*
X925Y37732D1*
X830Y37813D1*
X746Y37906D1*
X675Y38009D1*
X624Y38109D1*
X625Y32551D1*
X763Y32633D1*
X881Y32674D1*
X1004Y32695D1*
X1129Y32694D1*
X1252Y32672D1*
X1369Y32630D1*
X1478Y32568D1*
X1574Y32488D1*
X1655Y32393D1*
X1719Y32286D1*
X1763Y32169D1*
X1787Y32047D1*
X1792Y31969D1*
X1781Y31844D1*
X1749Y31723D1*
X1697Y31610D1*
X1627Y31507D1*
X1540Y31417D1*
X1439Y31344D1*
X1327Y31289D1*
X1207Y31254D1*
X1083Y31240D1*
X958Y31247D1*
X836Y31276D1*
X722Y31325D1*
X627Y31386D1*
X625Y28613D1*
X763Y28696D1*
X881Y28737D1*
X1004Y28758D1*
X1129Y28757D1*
X1252Y28735D1*
X1369Y28693D1*
X1478Y28631D1*
X1574Y28551D1*
X1655Y28456D1*
X1719Y28349D1*
X1763Y28232D1*
X1787Y28110D1*
X1792Y28031D1*
X1781Y27907D1*
X1749Y27786D1*
X1697Y27673D1*
X1627Y27570D1*
X1540Y27480D1*
X1439Y27407D1*
X1327Y27352D1*
X1207Y27317D1*
X1083Y27303D1*
X958Y27310D1*
X836Y27339D1*
X722Y27388D1*
X627Y27449D1*
X625Y18625D1*
Y15066D1*
X1555Y15995D1*
X995D1*
Y17255D1*
X1850D1*
Y19121D1*
X1747Y19115D1*
X1623Y19128D1*
X1504Y19165D1*
X1394Y19224D1*
X1298Y19304D1*
X1220Y19401D1*
X1162Y19511D1*
X1126Y19631D1*
X1115Y19755D1*
X1128Y19879D1*
X1166Y19998D1*
X1225Y20108D1*
X1306Y20203D1*
X1403Y20282D1*
X1513Y20339D1*
X1633Y20374D1*
X1758Y20385D1*
X1847Y20375D1*
X1850Y21625D1*
Y23121D1*
X1747Y23115D1*
X1623Y23128D1*
X1504Y23165D1*
X1394Y23224D1*
X1298Y23304D1*
X1220Y23401D1*
X1162Y23511D1*
X1126Y23631D1*
X1115Y23755D1*
X1128Y23879D1*
X1166Y23998D1*
X1225Y24108D1*
X1306Y24203D1*
X1403Y24282D1*
X1513Y24339D1*
X1633Y24374D1*
X1758Y24385D1*
X1847Y24375D1*
X1850Y25625D1*
Y29750D1*
X1869Y29873D1*
X1928Y29987D1*
X2144Y30210D1*
X2717Y30783D1*
X2818Y30856D1*
X2940Y30895D1*
X3250Y30900D1*
X5875D1*
X5998Y30881D1*
X6112Y30822D1*
X6335Y30606D1*
X6796Y30145D1*
X6795Y30709D1*
X8213D1*
Y29775D1*
X8349Y29915D1*
X8350Y31832D1*
X6210Y33974D1*
X5125Y33975D1*
X5002Y33994D1*
X4888Y34053D1*
X4665Y34269D1*
X4217Y34717D1*
X4144Y34818D1*
X4105Y34940D1*
X4100Y35199D1*
X3995Y35300D1*
X3922Y35401D1*
X3869Y35515D1*
X3838Y35636D1*
X3830Y35760D1*
X3846Y35884D1*
X3884Y36003D1*
X3943Y36113D1*
X4022Y36209D1*
X4117Y36290D1*
X4226Y36351D1*
X4344Y36392D1*
X4468Y36409D1*
X4596Y36403D1*
X4888Y36694D1*
X4792Y36637D1*
X4675Y36593D1*
X4552Y36572D1*
X4428Y36574D1*
X4305Y36599D1*
X4190Y36646D1*
X4085Y36714D1*
X3995Y36800D1*
X3922Y36901D1*
X3869Y37015D1*
X3838Y37136D1*
X3830Y37260D1*
X3846Y37384D1*
X3884Y37503D1*
X3943Y37613D1*
X4022Y37709D1*
X4117Y37790D1*
X4226Y37851D1*
X4344Y37892D1*
X4468Y37909D1*
X4592Y37904D1*
X4714Y37875D1*
X4828Y37824D1*
X4931Y37753D1*
X4999Y37684D1*
X5077Y37760D1*
X5181Y37829D1*
X5296Y37878D1*
X5418Y37905D1*
X5543Y37909D1*
X5666Y37889D1*
X5783Y37847D1*
X5891Y37784D1*
X5985Y37702D1*
X6000Y37686D1*
X6117Y37790D1*
X6226Y37851D1*
X6344Y37892D1*
X6468Y37909D1*
X6592Y37904D1*
X6714Y37875D1*
X6828Y37824D1*
X6931Y37753D1*
X6999Y37684D1*
X7117Y37790D1*
X7226Y37851D1*
X7344Y37892D1*
X7468Y37909D1*
X7592Y37904D1*
X7714Y37875D1*
X7828Y37824D1*
X7931Y37753D1*
X7999Y37684D1*
X8117Y37790D1*
X8226Y37851D1*
X8344Y37892D1*
X8468Y37909D1*
X8596Y37903D1*
X8727Y38033D1*
X8828Y38106D1*
X8950Y38145D1*
X9260Y38150D1*
X9875D1*
X9998Y38131D1*
X10112Y38072D1*
X10335Y37856D1*
X10408Y37783D1*
X10481Y37682D1*
X10520Y37560D1*
X10525Y37250D1*
Y37000D1*
X10506Y36877D1*
X10447Y36763D1*
X10231Y36540D1*
X9936Y36245D1*
X10018Y36165D1*
X10088Y36061D1*
X10137Y35946D1*
X10165Y35825D1*
X10170Y35740D1*
X10158Y35616D1*
X10124Y35496D1*
X10068Y35384D1*
X9992Y35285D1*
X9899Y35202D1*
X9792Y35137D1*
X9675Y35093D1*
X9552Y35072D1*
X9428Y35074D1*
X9305Y35099D1*
X9190Y35146D1*
X9085Y35214D1*
X9003Y35292D1*
X8899Y35202D1*
X8792Y35137D1*
X8675Y35093D1*
X8552Y35072D1*
X8428Y35074D1*
X8305Y35099D1*
X8190Y35146D1*
X8085Y35214D1*
X8000Y35294D1*
X7902Y35204D1*
X7900Y34541D1*
X9783Y32658D1*
X9856Y32557D1*
X9895Y32435D1*
X9900Y32125D1*
Y30387D1*
X9988Y30495D1*
X10083Y30576D1*
X10190Y30640D1*
X10307Y30683D1*
X10430Y30706D1*
X10555Y30707D1*
X10678Y30685D1*
X10795Y30643D1*
X10903Y30580D1*
X10999Y30500D1*
X11079Y30404D1*
X11141Y30296D1*
X11182Y30178D1*
X11203Y30055D1*
X11201Y29925D1*
X11177Y29803D1*
X11132Y29686D1*
X11067Y29580D1*
X10984Y29486D1*
X10887Y29408D1*
X10777Y29349D1*
X10658Y29310D1*
X10535Y29292D1*
X10410Y29296D1*
X10288Y29322D1*
X10172Y29369D1*
X10067Y29436D1*
X9974Y29520D1*
X9900Y29617D1*
Y29375D1*
X9881Y29252D1*
X9822Y29138D1*
X9606Y28915D1*
X9033Y28342D1*
X8932Y28269D1*
X8810Y28230D1*
X8500Y28225D1*
X6625D1*
X6502Y28244D1*
X6388Y28303D1*
X6165Y28519D1*
X6085Y28599D1*
X5605Y28600D1*
X5630Y28425D1*
X5620Y28320D1*
X5783Y28158D1*
X5856Y28057D1*
X5895Y27935D1*
X5900Y27625D1*
Y18875D1*
X5881Y18752D1*
X5822Y18638D1*
X5606Y18415D1*
X5338Y18147D1*
X6375Y18150D1*
X9957D1*
X11602Y19792D1*
X11600Y20246D1*
X11370Y20245D1*
Y21505D1*
X12630D1*
Y20245D1*
X12400D1*
Y19625D1*
X12381Y19502D1*
X12322Y19388D1*
X12106Y19165D1*
X10408Y17467D1*
X10307Y17394D1*
X10185Y17355D1*
X9875Y17350D1*
X4918D1*
X4842Y17277D1*
X5900Y17275D1*
Y15975D1*
X4648D1*
X4650Y15875D1*
X4631Y15752D1*
X4572Y15638D1*
X4356Y15415D1*
X3276Y14335D1*
X3275Y13215D1*
X3383Y13249D1*
X3508Y13260D1*
X3632Y13246D1*
X3751Y13208D1*
X3860Y13148D1*
X3955Y13068D1*
X4033Y12970D1*
X4090Y12859D1*
X4125Y12739D1*
X4135Y12625D1*
X4123Y12501D1*
X4086Y12381D1*
X4027Y12271D1*
X3948Y12175D1*
X3851Y12096D1*
X3741Y12038D1*
X3622Y12002D1*
X3497Y11990D1*
X3373Y12003D1*
X3273Y12034D1*
X3275Y11000D1*
X3256Y10877D1*
X3197Y10763D1*
X3022Y10582D1*
X3025Y9621D1*
X3132Y9662D1*
X3255Y9682D1*
X3380D1*
X3503Y9660D1*
X3620Y9617D1*
X3729Y9555D1*
X3825Y9476D1*
X3906Y9381D1*
X3970Y9274D1*
X4015Y9157D1*
X4039Y9034D1*
X4043Y8956D1*
X4032Y8832D1*
X4000Y8711D1*
X3948Y8597D1*
X3878Y8494D1*
X3791Y8405D1*
X3690Y8332D1*
X3578Y8277D1*
X3458Y8242D1*
X3334Y8228D1*
X3275Y8231D1*
Y6027D1*
X7899Y16600D2*
X7883Y16476D1*
X7843Y16358D1*
X7781Y16250D1*
X7699Y16155D1*
X7601Y16078D1*
X7490Y16021D1*
X7370Y15986D1*
X7246Y15975D1*
X7122Y15988D1*
X7002Y16024D1*
X6892Y16082D1*
X6795Y16161D1*
X6715Y16256D1*
X6654Y16366D1*
X6615Y16484D1*
X6600Y16608D1*
X6609Y16733D1*
X6641Y16853D1*
X6696Y16965D1*
X6771Y17065D1*
X6864Y17148D1*
X6971Y17212D1*
X7089Y17255D1*
X7212Y17274D1*
X7337Y17269D1*
X7458Y17241D1*
X7572Y17189D1*
X7674Y17117D1*
X7760Y17027D1*
X7828Y16922D1*
X7874Y16806D1*
X7897Y16684D1*
X7899Y16600D1*
X20899Y6600D2*
X20883Y6476D1*
X20843Y6358D1*
X20781Y6250D1*
X20699Y6155D1*
X20601Y6078D1*
X20490Y6021D1*
X20370Y5986D1*
X20246Y5975D1*
X20122Y5988D1*
X20002Y6024D1*
X19892Y6082D1*
X19795Y6161D1*
X19715Y6256D1*
X19654Y6366D1*
X19615Y6484D1*
X19600Y6608D1*
X19609Y6733D1*
X19641Y6853D1*
X19696Y6965D1*
X19771Y7065D1*
X19864Y7148D1*
X19971Y7212D1*
X20089Y7255D1*
X20212Y7274D1*
X20337Y7269D1*
X20458Y7241D1*
X20572Y7189D1*
X20674Y7117D1*
X20760Y7027D1*
X20828Y6922D1*
X20874Y6806D1*
X20897Y6684D1*
X20899Y6600D1*
X21725Y7275D2*
X22900D1*
Y5975D1*
X21600D1*
Y7275D1*
X21725D1*
X38274Y9725D2*
X38258Y9601D1*
X38218Y9483D1*
X38156Y9375D1*
X38074Y9280D1*
X37976Y9203D1*
X37865Y9146D1*
X37745Y9111D1*
X37621Y9100D1*
X37497Y9113D1*
X37377Y9149D1*
X37267Y9207D1*
X37170Y9286D1*
X37090Y9381D1*
X37029Y9491D1*
X36990Y9609D1*
X36975Y9733D1*
X36984Y9858D1*
X37016Y9978D1*
X37071Y10090D1*
X37146Y10190D1*
X37239Y10273D1*
X37346Y10337D1*
X37464Y10380D1*
X37587Y10399D1*
X37712Y10394D1*
X37833Y10366D1*
X37947Y10314D1*
X38049Y10242D1*
X38135Y10152D1*
X38203Y10047D1*
X38249Y9931D1*
X38272Y9809D1*
X38274Y9725D1*
X35100Y10400D2*
X36275D1*
Y9100D1*
X34975D1*
Y10400D1*
X35100D1*
X48024Y6225D2*
X48008Y6101D1*
X47968Y5983D1*
X47906Y5875D1*
X47824Y5780D1*
X47726Y5703D1*
X47615Y5646D1*
X47495Y5611D1*
X47371Y5600D1*
X47247Y5613D1*
X47127Y5649D1*
X47017Y5707D1*
X46920Y5786D1*
X46840Y5881D1*
X46779Y5991D1*
X46740Y6109D1*
X46725Y6233D1*
X46734Y6358D1*
X46766Y6478D1*
X46821Y6590D1*
X46896Y6690D1*
X46989Y6773D1*
X47096Y6837D1*
X47214Y6880D1*
X47337Y6899D1*
X47462Y6894D1*
X47583Y6866D1*
X47697Y6814D1*
X47799Y6742D1*
X47885Y6652D1*
X47953Y6547D1*
X47999Y6431D1*
X48022Y6309D1*
X48024Y6225D1*
X44850Y6900D2*
X46025D1*
Y5600D1*
X44725D1*
Y6900D1*
X44850D1*
X46225Y15203D2*
X46115Y15146D1*
X45995Y15111D1*
X45871Y15100D1*
X45747Y15113D1*
X45627Y15149D1*
X45517Y15207D1*
X45420Y15286D1*
X45340Y15381D1*
X45279Y15491D1*
X45240Y15609D1*
X45225Y15733D1*
X45234Y15858D1*
X45266Y15978D1*
X45321Y16090D1*
X45396Y16190D1*
X45489Y16273D1*
X45596Y16337D1*
X45714Y16380D1*
X45837Y16399D1*
X45962Y16394D1*
X46083Y16366D1*
X46197Y16314D1*
X46225Y16298D1*
Y16400D1*
X47525D1*
Y15100D1*
X46225D1*
Y15206D1*
X54899Y15725D2*
X54883Y15601D1*
X54843Y15483D1*
X54781Y15375D1*
X54693Y15274D1*
X55207Y15275D1*
X55714Y15779D1*
X55750Y15940D1*
X55807Y16051D1*
X55889Y16145D1*
X55990Y16218D1*
X56106Y16265D1*
X56229Y16285D1*
X56353Y16275D1*
X56472Y16237D1*
X56579Y16172D1*
X56667Y16085D1*
X56734Y15979D1*
X56773Y15861D1*
X56785Y15750D1*
X56770Y15626D1*
X56728Y15509D1*
X56659Y15405D1*
X56568Y15320D1*
X56460Y15258D1*
X56340Y15223D1*
X56282Y15220D1*
X55658Y14592D1*
X55557Y14519D1*
X55435Y14480D1*
X55125Y14475D1*
X51730D1*
X51585Y14383D1*
X51465Y14348D1*
X51340Y14341D1*
X51218Y14364D1*
X51104Y14414D1*
X51004Y14489D1*
X50925Y14586D1*
X50870Y14698D1*
X50843Y14819D1*
X50844Y14944D1*
X50875Y15065D1*
X50932Y15176D1*
X51014Y15270D1*
X51115Y15343D1*
X51231Y15390D1*
X51354Y15410D1*
X51478Y15400D1*
X51600Y15360D1*
Y16400D1*
X52900D1*
Y15271D1*
X53625Y15275D1*
X53809D1*
X53745Y15341D1*
X53676Y15445D1*
X53628Y15561D1*
X53603Y15683D1*
Y15808D1*
X53626Y15931D1*
X53672Y16047D1*
X53739Y16152D1*
X53825Y16242D1*
X53927Y16314D1*
X54041Y16365D1*
X54162Y16394D1*
X54287Y16399D1*
X54410Y16380D1*
X54528Y16338D1*
X54635Y16274D1*
X54728Y16190D1*
X54803Y16091D1*
X54858Y15979D1*
X54891Y15858D1*
X54899Y15725D1*
X18279Y15975D2*
X18263Y15851D1*
X18223Y15733D1*
X18161Y15625D1*
X18079Y15530D1*
X17981Y15453D1*
X17870Y15396D1*
X17750Y15361D1*
X17626Y15350D1*
X17502Y15363D1*
X17382Y15399D1*
X17272Y15457D1*
X17175Y15536D1*
X17095Y15631D1*
X17034Y15741D1*
X16995Y15859D1*
X16980Y15983D1*
X16989Y16108D1*
X17021Y16228D1*
X17076Y16340D1*
X17151Y16440D1*
X17244Y16523D1*
X17351Y16587D1*
X17469Y16630D1*
X17592Y16649D1*
X17717Y16644D1*
X17838Y16616D1*
X17952Y16564D1*
X18054Y16492D1*
X18140Y16402D1*
X18208Y16297D1*
X18254Y16181D1*
X18277Y16059D1*
X18279Y15975D1*
X19105Y16650D2*
X20280D1*
Y15350D1*
X18980D1*
Y16650D1*
X19105D1*
X33149Y13975D2*
X33133Y13851D1*
X33093Y13733D1*
X33031Y13625D1*
X32949Y13530D1*
X32851Y13453D1*
X32740Y13396D1*
X32620Y13361D1*
X32496Y13350D1*
X32372Y13363D1*
X32252Y13399D1*
X32142Y13457D1*
X32045Y13536D1*
X31965Y13631D1*
X31904Y13741D1*
X31865Y13859D1*
X31850Y13983D1*
X31859Y14108D1*
X31891Y14228D1*
X31946Y14340D1*
X32021Y14440D1*
X32114Y14523D1*
X32221Y14587D1*
X32339Y14630D1*
X32462Y14649D1*
X32587Y14644D1*
X32708Y14616D1*
X32822Y14564D1*
X32924Y14492D1*
X33010Y14402D1*
X33078Y14297D1*
X33124Y14181D1*
X33147Y14059D1*
X33149Y13975D1*
X33150Y15662D2*
Y15350D1*
X31850D1*
Y16104D1*
X31125Y16100D1*
X30996D1*
X31005Y16000D1*
X30993Y15876D1*
X30956Y15757D1*
X30897Y15647D1*
X30817Y15551D1*
X30720Y15473D1*
X30609Y15415D1*
X30489Y15380D1*
X30365Y15370D1*
X30241Y15384D1*
X30122Y15423D1*
X30014Y15484D1*
X29919Y15565D1*
X29878Y15617D1*
X29817Y15551D1*
X29720Y15473D1*
X29609Y15415D1*
X29489Y15380D1*
X29365Y15370D1*
X29241Y15384D1*
X29122Y15423D1*
X29014Y15484D1*
X28919Y15565D1*
X28878Y15617D1*
X28817Y15551D1*
X28720Y15473D1*
X28609Y15415D1*
X28489Y15380D1*
X28365Y15370D1*
X28241Y15384D1*
X28122Y15423D1*
X28014Y15484D1*
X27919Y15565D1*
X27878Y15617D1*
X27817Y15551D1*
X27720Y15473D1*
X27609Y15415D1*
X27489Y15380D1*
X27365Y15370D1*
X27241Y15384D1*
X27122Y15423D1*
X27014Y15484D1*
X26919Y15565D1*
X26878Y15617D1*
X26817Y15551D1*
X26720Y15473D1*
X26609Y15415D1*
X26489Y15380D1*
X26365Y15370D1*
X26241Y15384D1*
X26122Y15423D1*
X26014Y15484D1*
X25919Y15565D1*
X25878Y15617D1*
X25817Y15551D1*
X25720Y15473D1*
X25609Y15415D1*
X25489Y15380D1*
X25365Y15370D1*
X25241Y15384D1*
X25122Y15423D1*
X25014Y15484D1*
X24919Y15565D1*
X24878Y15617D1*
X24817Y15551D1*
X24720Y15473D1*
X24609Y15415D1*
X24489Y15380D1*
X24365Y15370D1*
X24241Y15384D1*
X24122Y15423D1*
X24014Y15484D1*
X23919Y15565D1*
X23878Y15617D1*
X23817Y15551D1*
X23720Y15473D1*
X23609Y15415D1*
X23489Y15380D1*
X23365Y15370D1*
X23241Y15384D1*
X23122Y15423D1*
X23014Y15484D1*
X22919Y15565D1*
X22878Y15617D1*
X22817Y15551D1*
X22720Y15473D1*
X22609Y15415D1*
X22489Y15380D1*
X22365Y15370D1*
X22241Y15384D1*
X22122Y15423D1*
X22014Y15484D1*
X21919Y15565D1*
X21878Y15617D1*
X21817Y15551D1*
X21720Y15473D1*
X21609Y15415D1*
X21489Y15380D1*
X21365Y15370D1*
X21241Y15384D1*
X21122Y15423D1*
X21014Y15484D1*
X20919Y15565D1*
X20842Y15663D1*
X20786Y15775D1*
X20753Y15895D1*
X20745Y16020D1*
X20761Y16144D1*
X20802Y16262D1*
X20864Y16370D1*
X20940Y16454D1*
Y18000D1*
X20958Y18123D1*
X20997Y18215D1*
X21067Y18308D1*
X22067Y19308D1*
X22167Y19382D1*
X22260Y19419D1*
X22375Y19435D1*
X38816D1*
X39712Y20327D1*
X35125Y20325D1*
X20000D1*
X19877Y20343D1*
X19764Y20396D1*
X19672Y20480D1*
X19608Y20587D1*
X19577Y20711D1*
X19575Y22125D1*
Y32750D1*
X19593Y32873D1*
X19646Y32986D1*
X19730Y33078D1*
X19837Y33142D1*
X19961Y33173D1*
X21375Y33175D1*
X22965D1*
X22677Y33458D1*
X21192Y34942D1*
X21130Y35021D1*
X21080Y35120D1*
X19870D1*
Y36380D1*
X21130D1*
Y36261D1*
X21284Y36342D1*
X21405Y36373D1*
X21530Y36380D1*
X21653Y36361D1*
X21771Y36319D1*
X21878Y36255D1*
X21970Y36170D1*
X22000Y36129D1*
X22072Y36213D1*
X22172Y36288D1*
X22284Y36342D1*
X22405Y36373D1*
X22530Y36380D1*
X22653Y36361D1*
X22771Y36319D1*
X22878Y36255D1*
X22970Y36170D1*
X23000Y36129D1*
X23072Y36213D1*
X23172Y36288D1*
X23284Y36342D1*
X23405Y36373D1*
X23557Y36376D1*
X23717Y36533D1*
X23818Y36606D1*
X23940Y36645D1*
X24250Y36650D1*
X25750D1*
X25873Y36631D1*
X25987Y36572D1*
X26210Y36356D1*
X26239Y36326D1*
X26405Y36373D1*
X26530Y36380D1*
X26653Y36361D1*
X26771Y36319D1*
X26878Y36255D1*
X26970Y36170D1*
X27000Y36129D1*
X27072Y36213D1*
X27172Y36288D1*
X27284Y36342D1*
X27405Y36373D1*
X27530Y36380D1*
X27653Y36361D1*
X27771Y36319D1*
X27878Y36255D1*
X27970Y36170D1*
X28000Y36129D1*
X28072Y36213D1*
X28172Y36288D1*
X28284Y36342D1*
X28405Y36373D1*
X28530Y36380D1*
X28653Y36361D1*
X28771Y36319D1*
X28878Y36255D1*
X28970Y36170D1*
X29000Y36129D1*
X29072Y36213D1*
X29172Y36288D1*
X29284Y36342D1*
X29405Y36373D1*
X29530Y36380D1*
X29653Y36361D1*
X29771Y36319D1*
X29878Y36255D1*
X29970Y36170D1*
X30000Y36129D1*
X30072Y36213D1*
X30172Y36288D1*
X30284Y36342D1*
X30405Y36373D1*
X30530Y36380D1*
X30653Y36361D1*
X30771Y36319D1*
X30878Y36255D1*
X30970Y36170D1*
X31000Y36129D1*
X31072Y36213D1*
X31172Y36288D1*
X31284Y36342D1*
X31405Y36373D1*
X31530Y36380D1*
X31653Y36361D1*
X31771Y36319D1*
X31878Y36255D1*
X31970Y36170D1*
X32000Y36129D1*
X32072Y36213D1*
X32172Y36288D1*
X32284Y36342D1*
X32405Y36373D1*
X32530Y36380D1*
X32653Y36361D1*
X32771Y36319D1*
X32878Y36255D1*
X32970Y36170D1*
X33000Y36129D1*
X33072Y36213D1*
X33172Y36288D1*
X33284Y36342D1*
X33405Y36373D1*
X33530Y36380D1*
X33653Y36361D1*
X33771Y36319D1*
X33878Y36255D1*
X33970Y36170D1*
X34000Y36129D1*
X34072Y36213D1*
X34172Y36288D1*
X34284Y36342D1*
X34405Y36373D1*
X34530Y36380D1*
X34653Y36361D1*
X34771Y36319D1*
X34878Y36255D1*
X34970Y36170D1*
X35000Y36129D1*
X35072Y36213D1*
X35172Y36288D1*
X35284Y36342D1*
X35405Y36373D1*
X35530Y36380D1*
X35653Y36361D1*
X35771Y36319D1*
X35878Y36255D1*
X35970Y36170D1*
X36000Y36129D1*
X36072Y36213D1*
X36172Y36288D1*
X36284Y36342D1*
X36405Y36373D1*
X36530Y36380D1*
X36653Y36361D1*
X36771Y36319D1*
X36878Y36255D1*
X36970Y36170D1*
X37000Y36129D1*
X37072Y36213D1*
X37172Y36288D1*
X37284Y36342D1*
X37405Y36373D1*
X37530Y36380D1*
X37653Y36361D1*
X37771Y36319D1*
X37878Y36255D1*
X37970Y36170D1*
X38000Y36129D1*
X38072Y36213D1*
X38172Y36288D1*
X38284Y36342D1*
X38405Y36373D1*
X38530Y36380D1*
X38653Y36361D1*
X38771Y36319D1*
X38878Y36255D1*
X38970Y36170D1*
X39000Y36129D1*
X39054Y36196D1*
X39151Y36275D1*
X39261Y36333D1*
X39381Y36369D1*
X39505Y36380D1*
X39629Y36367D1*
X39748Y36329D1*
X39857Y36269D1*
X39953Y36189D1*
X40030Y36091D1*
X40087Y35980D1*
X40121Y35860D1*
X40130Y35725D1*
X40113Y35601D1*
X40089Y35525D1*
X40750D1*
X40873Y35506D1*
X40987Y35447D1*
X41210Y35231D1*
X42908Y33533D1*
X42981Y33432D1*
X43020Y33310D1*
X43025Y33000D1*
Y20500D1*
X43006Y20377D1*
X42947Y20263D1*
X42731Y20040D1*
X40524Y17833D1*
X40525Y16488D1*
X40625Y16379D1*
X40697Y16463D1*
X40797Y16538D1*
X40909Y16592D1*
X41030Y16623D1*
X41155Y16630D1*
X41278Y16611D1*
X41396Y16569D1*
X41503Y16505D1*
X41595Y16420D1*
X41625Y16379D1*
X41697Y16463D1*
X41797Y16538D1*
X41909Y16592D1*
X42030Y16623D1*
X42155Y16630D1*
X42278Y16611D1*
X42396Y16569D1*
X42503Y16505D1*
X42595Y16420D1*
X42625Y16379D1*
X42697Y16463D1*
X42797Y16538D1*
X42909Y16592D1*
X43030Y16623D1*
X43155Y16630D1*
X43278Y16611D1*
X43396Y16569D1*
X43503Y16505D1*
X43595Y16420D1*
X43668Y16320D1*
X43721Y16206D1*
X43750Y16085D1*
X43755Y16000D1*
X43743Y15876D1*
X43706Y15757D1*
X43647Y15647D1*
X43567Y15551D1*
X43470Y15473D1*
X43359Y15415D1*
X43239Y15380D1*
X43115Y15370D1*
X42991Y15384D1*
X42872Y15423D1*
X42764Y15484D1*
X42669Y15565D1*
X42628Y15617D1*
X42567Y15551D1*
X42470Y15473D1*
X42359Y15415D1*
X42239Y15380D1*
X42115Y15370D1*
X41991Y15384D1*
X41872Y15423D1*
X41764Y15484D1*
X41669Y15565D1*
X41628Y15617D1*
X41567Y15551D1*
X41470Y15473D1*
X41359Y15415D1*
X41239Y15380D1*
X41115Y15370D1*
X40991Y15384D1*
X40872Y15423D1*
X40764Y15484D1*
X40669Y15565D1*
X40628Y15617D1*
X40567Y15551D1*
X40470Y15473D1*
X40359Y15415D1*
X40239Y15380D1*
X40115Y15370D1*
X39991Y15384D1*
X39872Y15423D1*
X39764Y15484D1*
X39669Y15565D1*
X39628Y15617D1*
X39567Y15551D1*
X39470Y15473D1*
X39359Y15415D1*
X39239Y15380D1*
X39115Y15370D1*
X38991Y15384D1*
X38872Y15423D1*
X38764Y15484D1*
X38669Y15565D1*
X38628Y15617D1*
X38567Y15551D1*
X38470Y15473D1*
X38359Y15415D1*
X38239Y15380D1*
X38115Y15370D1*
X37991Y15384D1*
X37872Y15423D1*
X37764Y15484D1*
X37669Y15565D1*
X37628Y15617D1*
X37567Y15551D1*
X37470Y15473D1*
X37359Y15415D1*
X37239Y15380D1*
X37115Y15370D1*
X36991Y15384D1*
X36872Y15423D1*
X36764Y15484D1*
X36669Y15565D1*
X36628Y15617D1*
X36567Y15551D1*
X36470Y15473D1*
X36359Y15415D1*
X36239Y15380D1*
X36115Y15370D1*
X35991Y15384D1*
X35872Y15423D1*
X35764Y15484D1*
X35669Y15565D1*
X35628Y15617D1*
X35530Y15517D1*
X35427Y15447D1*
X35312Y15398D1*
X35190Y15373D1*
X35065D1*
X34943Y15397D1*
X34827Y15444D1*
X34724Y15514D1*
X34636Y15603D1*
X34625Y15617D1*
X34567Y15551D1*
X34467Y15471D1*
X35191Y14750D1*
X35408Y14533D1*
X35481Y14432D1*
X35520Y14310D1*
X35525Y14000D1*
Y13488D1*
X35625Y13379D1*
X35697Y13463D1*
X35797Y13538D1*
X35909Y13592D1*
X36030Y13623D1*
X36155Y13630D1*
X36278Y13611D1*
X36396Y13569D1*
X36503Y13505D1*
X36595Y13420D1*
X36625Y13379D1*
X36697Y13463D1*
X36797Y13538D1*
X36909Y13592D1*
X37030Y13623D1*
X37155Y13630D1*
X37278Y13611D1*
X37396Y13569D1*
X37503Y13505D1*
X37595Y13420D1*
X37625Y13379D1*
X37697Y13463D1*
X37797Y13538D1*
X37909Y13592D1*
X38030Y13623D1*
X38155Y13630D1*
X38278Y13611D1*
X38396Y13569D1*
X38503Y13505D1*
X38595Y13420D1*
X38625Y13379D1*
X38697Y13463D1*
X38797Y13538D1*
X38909Y13592D1*
X39030Y13623D1*
X39155Y13630D1*
X39278Y13611D1*
X39396Y13569D1*
X39503Y13505D1*
X39595Y13420D1*
X39625Y13379D1*
X39679Y13446D1*
X39776Y13525D1*
X39886Y13583D1*
X40006Y13619D1*
X40130Y13630D1*
X40254Y13617D1*
X40373Y13579D1*
X40482Y13519D1*
X40578Y13439D1*
X40625Y13384D1*
X40716Y13480D1*
X40818Y13551D1*
X40933Y13600D1*
X41055Y13626D1*
X41180Y13628D1*
X41302Y13605D1*
X41418Y13558D1*
X41522Y13489D1*
X41611Y13401D1*
X41625Y13384D1*
X41716Y13480D1*
X41818Y13551D1*
X41933Y13600D1*
X42055Y13626D1*
X42180Y13628D1*
X42302Y13605D1*
X42418Y13558D1*
X42522Y13489D1*
X42611Y13401D1*
X42625Y13384D1*
X42716Y13480D1*
X42818Y13551D1*
X42933Y13600D1*
X43055Y13626D1*
X43180Y13628D1*
X43302Y13605D1*
X43418Y13558D1*
X43522Y13489D1*
X43611Y13401D1*
X43680Y13298D1*
X43728Y13182D1*
X43752Y13060D1*
X43751Y12925D1*
X43724Y12803D1*
X43714Y12775D1*
X54207D1*
X55343Y13909D1*
X55375Y14065D1*
X55432Y14176D1*
X55514Y14270D1*
X55615Y14343D1*
X55731Y14390D1*
X55854Y14410D1*
X55978Y14400D1*
X56097Y14362D1*
X56204Y14297D1*
X56292Y14210D1*
X56359Y14104D1*
X56398Y13986D1*
X56410Y13875D1*
X56395Y13751D1*
X56353Y13634D1*
X56284Y13530D1*
X56193Y13445D1*
X56085Y13383D1*
X55965Y13348D1*
X55907Y13345D1*
X55274Y12708D1*
X54658Y12092D1*
X54557Y12019D1*
X54435Y11980D1*
X54125Y11975D1*
X50659D1*
X50685Y11853D1*
X50689Y11772D1*
X50678Y11647D1*
X50644Y11527D1*
X50590Y11415D1*
X50516Y11314D1*
X50425Y11229D1*
X50320Y11161D1*
X50205Y11113D1*
X50083Y11087D1*
X49958Y11084D1*
X49834Y11103D1*
X49716Y11143D1*
X49608Y11205D1*
X49512Y11285D1*
X49432Y11381D1*
X49371Y11490D1*
X49330Y11608D1*
X49312Y11731D1*
X49316Y11856D1*
X49341Y11974D1*
X43159Y11975D1*
X43185Y11853D1*
X43189Y11772D1*
X43178Y11647D1*
X43144Y11527D1*
X43090Y11415D1*
X43016Y11314D1*
X42925Y11229D1*
X42820Y11161D1*
X42705Y11113D1*
X42583Y11087D1*
X42458Y11084D1*
X42334Y11103D1*
X42216Y11143D1*
X42108Y11205D1*
X42012Y11285D1*
X41932Y11381D1*
X41871Y11490D1*
X41830Y11608D1*
X41812Y11731D1*
X41816Y11856D1*
X41841Y11974D1*
X40043Y11975D1*
X39908Y11842D1*
X39807Y11769D1*
X39685Y11730D1*
X39375Y11725D1*
X36230D1*
X36085Y11633D1*
X35965Y11598D1*
X35840Y11591D1*
X35718Y11614D1*
X35604Y11664D1*
X35504Y11739D1*
X35425Y11836D1*
X35370Y11948D1*
X35343Y12069D1*
X35344Y12194D1*
X35375Y12315D1*
X35432Y12426D1*
X35476Y12476D1*
X35359Y12415D1*
X35239Y12380D1*
X35115Y12370D1*
X34991Y12384D1*
X34872Y12423D1*
X34755Y12491D1*
Y12370D1*
X33495D1*
Y13630D1*
X34725D1*
Y14082D1*
X33149Y15660D1*
X12618Y16774D2*
X12581Y16655D1*
X12522Y16545D1*
X12442Y16449D1*
X12345Y16371D1*
X12234Y16314D1*
X12114Y16279D1*
X11990Y16268D1*
X11866Y16283D1*
X11747Y16321D1*
X11690Y16354D1*
X11608Y16224D1*
X11521Y16135D1*
X11420Y16061D1*
X11307Y16007D1*
X11188Y15972D1*
X11064Y15957D1*
X10939Y15965D1*
X10817Y15993D1*
X10703Y16042D1*
X10598Y16110D1*
X10506Y16195D1*
X10430Y16294D1*
X10372Y16404D1*
X10334Y16523D1*
X10316Y16647D1*
X10320Y16771D1*
X10346Y16894D1*
X10391Y17010D1*
X10456Y17117D1*
X10538Y17211D1*
X10635Y17289D1*
X10744Y17350D1*
X10862Y17392D1*
X10985Y17412D1*
X11110D1*
X11233Y17390D1*
X11350Y17347D1*
X11486Y17263D1*
X11572Y17362D1*
X11672Y17437D1*
X11784Y17491D1*
X11905Y17522D1*
X12030Y17528D1*
X12153Y17510D1*
X12271Y17468D1*
X12378Y17403D1*
X12470Y17319D1*
X12543Y17218D1*
X12596Y17105D1*
X12625Y16984D1*
X12630Y16899D1*
X12618Y16774D1*
X21745Y11130D2*
X22880D1*
Y9870D1*
X21620D1*
Y11130D1*
X21745D1*
X18892Y10376D2*
X18855Y10257D1*
X18796Y10147D1*
X18716Y10051D1*
X18619Y9973D1*
X18508Y9915D1*
X18388Y9880D1*
X18264Y9870D1*
X18140Y9884D1*
X18021Y9923D1*
X17912Y9984D1*
X17818Y10065D1*
X17741Y10163D1*
X17685Y10275D1*
X17652Y10395D1*
X17644Y10520D1*
X17660Y10644D1*
X17700Y10762D1*
X17763Y10870D1*
X17846Y10963D1*
X17946Y11038D1*
X18058Y11092D1*
X18179Y11123D1*
X18304Y11130D1*
X18427Y11111D1*
X18544Y11069D1*
X18651Y11005D1*
X18743Y10920D1*
X18817Y10820D1*
X18869Y10706D1*
X18898Y10585D1*
X18904Y10500D1*
X18892Y10376D1*
X35120Y8380D2*
X36255D1*
Y7400D1*
X39074D1*
X39013Y7525D1*
X38980Y7645D1*
X38971Y7770D1*
X38988Y7894D1*
X39028Y8012D1*
X39091Y8120D1*
X39174Y8213D1*
X39273Y8288D1*
X39386Y8342D1*
X39507Y8373D1*
X39631Y8380D1*
X39705Y8369D1*
X39593Y8440D1*
X39501Y8524D1*
X39425Y8623D1*
X39367Y8734D1*
X39329Y8853D1*
X39312Y8976D1*
X39316Y9101D1*
X39341Y9224D1*
X39387Y9340D1*
X39452Y9446D1*
X39534Y9540D1*
X39631Y9619D1*
X39740Y9680D1*
X39857Y9721D1*
X39981Y9742D1*
X40105Y9741D1*
X40228Y9720D1*
X40346Y9677D1*
X40454Y9615D1*
X40550Y9535D1*
X40631Y9441D1*
X40695Y9333D1*
X40740Y9217D1*
X40764Y9094D1*
X40768Y9016D1*
X40757Y8891D1*
X40726Y8771D1*
X40674Y8657D1*
X40603Y8554D1*
X40516Y8465D1*
X40415Y8391D1*
X40303Y8336D1*
X40183Y8301D1*
X40059Y8287D1*
X39908Y8301D1*
X39979Y8255D1*
X40071Y8170D1*
X40145Y8070D1*
X40197Y7956D1*
X40226Y7835D1*
X40232Y7750D1*
X40219Y7626D1*
X40183Y7507D1*
X40111Y7382D1*
X40237Y7322D1*
X40460Y7106D1*
X43042Y4523D1*
X44746Y4525D1*
X44745Y4880D1*
X46005D1*
Y3620D1*
X44745D1*
Y3725D1*
X42875D1*
X42752Y3744D1*
X42638Y3803D1*
X42415Y4019D1*
X39833Y6602D1*
X31125Y6600D1*
X29375D1*
X29252Y6619D1*
X29138Y6678D1*
X28915Y6894D1*
X28062Y7747D1*
X27990Y7745D1*
X27866Y7759D1*
X27747Y7798D1*
X27639Y7859D1*
X27544Y7940D1*
X27503Y7992D1*
X27442Y7926D1*
X27345Y7848D1*
X27234Y7790D1*
X27114Y7755D1*
X26990Y7745D1*
X26866Y7759D1*
X26747Y7798D1*
X26639Y7859D1*
X26544Y7940D1*
X26467Y8038D1*
X26411Y8150D1*
X26378Y8270D1*
X26370Y8395D1*
X26386Y8519D1*
X26427Y8637D1*
X26480Y8728D1*
X24875Y8725D1*
X22918D1*
X22885Y8625D1*
X22873Y8501D1*
X22836Y8381D1*
X22777Y8271D1*
X22698Y8175D1*
X22601Y8096D1*
X22491Y8038D1*
X22372Y8002D1*
X22247Y7990D1*
X22123Y8003D1*
X22004Y8040D1*
X21894Y8099D1*
X21798Y8179D1*
X21720Y8276D1*
X21662Y8386D1*
X21626Y8506D1*
X21615Y8630D1*
X21628Y8754D1*
X21666Y8873D1*
X21725Y8983D1*
X21806Y9078D1*
X21903Y9157D1*
X22013Y9214D1*
X22133Y9249D1*
X22258Y9260D1*
X22316Y9254D1*
X22467Y9408D1*
X22568Y9481D1*
X22690Y9520D1*
X23000Y9525D1*
X31125D1*
X31248Y9506D1*
X31362Y9447D1*
X31585Y9231D1*
X31830Y8985D1*
X32030Y9005D1*
X32153Y8986D1*
X32271Y8944D1*
X32378Y8880D1*
X32470Y8795D1*
X32500Y8754D1*
X32572Y8838D1*
X32672Y8913D1*
X32784Y8967D1*
X32905Y8998D1*
X33030Y9005D1*
X33153Y8986D1*
X33271Y8944D1*
X33378Y8880D1*
X33470Y8795D1*
X33543Y8695D1*
X33596Y8581D1*
X33625Y8460D1*
X33630Y8375D1*
X33618Y8251D1*
X33587Y8150D1*
X34996D1*
X34995Y8380D1*
X35120D1*
X49969Y4126D2*
X49933Y4007D1*
X49873Y3897D1*
X49794Y3801D1*
X49696Y3723D1*
X49586Y3665D1*
X49466Y3630D1*
X49341Y3620D1*
X49217Y3634D1*
X49099Y3673D1*
X48990Y3734D1*
X48895Y3815D1*
X48819Y3913D1*
X48763Y4025D1*
X48730Y4145D1*
X48721Y4270D1*
X48738Y4394D1*
X48778Y4512D1*
X48841Y4620D1*
X48924Y4713D1*
X49023Y4788D1*
X49136Y4842D1*
X49257Y4873D1*
X49381Y4880D1*
X49505Y4861D1*
X49622Y4819D1*
X49729Y4755D1*
X49821Y4670D1*
X49895Y4570D1*
X49947Y4456D1*
X49976Y4335D1*
X49982Y4250D1*
X49969Y4126D1*
X47692Y36751D2*
X47652Y36633D1*
X47589Y36525D1*
X47504Y36434D1*
X47402Y36362D1*
X47287Y36314D1*
X47164Y36292D1*
X47039Y36296D1*
X46918Y36326D1*
X46806Y36381D1*
X46705Y36460D1*
Y36290D1*
X45535D1*
Y37460D1*
X46705D1*
Y37287D1*
X46765Y37340D1*
X46871Y37405D1*
X46989Y37445D1*
X47113Y37460D1*
X47237Y37448D1*
X47356Y37410D1*
X47464Y37348D1*
X47557Y37264D1*
X47629Y37163D1*
X47679Y37048D1*
X47705Y36875D1*
X47692Y36751D1*
X47697Y33251D2*
X47657Y33133D1*
X47594Y33025D1*
X47509Y32934D1*
X47407Y32862D1*
X47292Y32814D1*
X47169Y32792D1*
X47044Y32796D1*
X46923Y32826D1*
X46811Y32881D1*
X46710Y32960D1*
Y32790D1*
X45540D1*
Y33960D1*
X46710D1*
Y33784D1*
X46770Y33840D1*
X46876Y33905D1*
X46994Y33945D1*
X47118Y33960D1*
X47242Y33948D1*
X47361Y33910D1*
X47469Y33848D1*
X47562Y33764D1*
X47634Y33663D1*
X47684Y33548D1*
X47710Y33375D1*
X47697Y33251D1*
X17822Y35901D2*
X17798Y35778D1*
X17758Y35660D1*
X17703Y35548D1*
X17634Y35444D1*
X17552Y35350D1*
X17458Y35267D1*
X17355Y35197D1*
X17243Y35141D1*
X17125Y35100D1*
X17003Y35075D1*
X16878Y35066D1*
X16753Y35073D1*
X16631Y35096D1*
X16512Y35135D1*
X16399Y35189D1*
X16295Y35257D1*
X16200Y35338D1*
X16116Y35431D1*
X16045Y35534D1*
X15989Y35645D1*
X15947Y35763D1*
X15920Y35885D1*
X15910Y36010D1*
X15916Y36134D1*
X15938Y36257D1*
X15976Y36376D1*
X16030Y36489D1*
X16097Y36595D1*
X16177Y36690D1*
X16269Y36775D1*
X16372Y36846D1*
X16483Y36904D1*
X16600Y36947D1*
X16722Y36974D1*
X16846Y36985D1*
X16971Y36980D1*
X17094Y36959D1*
X17213Y36922D1*
X17327Y36870D1*
X17433Y36803D1*
X17529Y36724D1*
X17614Y36632D1*
X17686Y36531D1*
X17745Y36420D1*
X17789Y36303D1*
X17817Y36182D1*
X17830Y36026D1*
X17822Y35901D1*
X44082D2*
X44058Y35778D1*
X44018Y35660D1*
X43963Y35548D1*
X43894Y35444D1*
X43812Y35350D1*
X43718Y35267D1*
X43615Y35197D1*
X43503Y35141D1*
X43385Y35100D1*
X43262Y35075D1*
X43138Y35066D1*
X43013Y35073D1*
X42890Y35096D1*
X42772Y35135D1*
X42659Y35189D1*
X42555Y35257D1*
X42460Y35338D1*
X42376Y35431D1*
X42305Y35534D1*
X42248Y35645D1*
X42207Y35763D1*
X42180Y35885D1*
X42170Y36010D1*
X42176Y36134D1*
X42198Y36257D1*
X42236Y36376D1*
X42289Y36489D1*
X42357Y36595D1*
X42437Y36690D1*
X42529Y36775D1*
X42632Y36846D1*
X42742Y36904D1*
X42860Y36947D1*
X42982Y36974D1*
X43106Y36985D1*
X43231Y36980D1*
X43354Y36959D1*
X43473Y36922D1*
X43587Y36870D1*
X43693Y36803D1*
X43789Y36724D1*
X43874Y36632D1*
X43946Y36531D1*
X44005Y36420D1*
X44049Y36303D1*
X44077Y36182D1*
X44090Y36026D1*
X44082Y35901D1*
X17822Y17869D2*
X17798Y17747D1*
X17758Y17629D1*
X17703Y17516D1*
X17634Y17412D1*
X17552Y17318D1*
X17458Y17235D1*
X17355Y17165D1*
X17243Y17109D1*
X17125Y17069D1*
X17003Y17043D1*
X16878Y17034D1*
X16753Y17041D1*
X16631Y17064D1*
X16512Y17103D1*
X16399Y17157D1*
X16295Y17226D1*
X16200Y17307D1*
X16116Y17400D1*
X16045Y17503D1*
X15989Y17614D1*
X15947Y17732D1*
X15920Y17854D1*
X15910Y17978D1*
X15916Y18103D1*
X15938Y18226D1*
X15976Y18345D1*
X16030Y18458D1*
X16097Y18563D1*
X16177Y18659D1*
X16269Y18743D1*
X16372Y18815D1*
X16483Y18872D1*
X16600Y18915D1*
X16722Y18943D1*
X16846Y18954D1*
X16971Y18949D1*
X17094Y18928D1*
X17213Y18891D1*
X17327Y18838D1*
X17433Y18772D1*
X17529Y18692D1*
X17614Y18601D1*
X17686Y18499D1*
X17745Y18389D1*
X17789Y18272D1*
X17817Y18150D1*
X17830Y17994D1*
X17822Y17869D1*
X44082D2*
X44058Y17747D1*
X44018Y17629D1*
X43963Y17516D1*
X43894Y17412D1*
X43812Y17318D1*
X43718Y17235D1*
X43615Y17165D1*
X43503Y17109D1*
X43385Y17069D1*
X43262Y17043D1*
X43138Y17034D1*
X43013Y17041D1*
X42890Y17064D1*
X42772Y17103D1*
X42659Y17157D1*
X42555Y17226D1*
X42460Y17307D1*
X42376Y17400D1*
X42305Y17503D1*
X42248Y17614D1*
X42207Y17732D1*
X42180Y17854D1*
X42170Y17978D1*
X42176Y18103D1*
X42198Y18226D1*
X42236Y18345D1*
X42289Y18458D1*
X42357Y18563D1*
X42437Y18659D1*
X42529Y18743D1*
X42632Y18815D1*
X42742Y18872D1*
X42860Y18915D1*
X42982Y18943D1*
X43106Y18954D1*
X43231Y18949D1*
X43354Y18928D1*
X43473Y18891D1*
X43587Y18838D1*
X43693Y18772D1*
X43789Y18692D1*
X43874Y18601D1*
X43946Y18499D1*
X44005Y18389D1*
X44049Y18272D1*
X44077Y18150D1*
X44090Y17994D1*
X44082Y17869D1*
X15873Y13376D2*
X15836Y13256D1*
X15777Y13146D1*
X15695Y13048D1*
X15805Y12956D1*
X15892Y12851D1*
X16028Y12969D1*
X16138Y13027D1*
X16258Y13062D1*
X16383Y13072D1*
X16507Y13059D1*
X16626Y13021D1*
X16735Y12961D1*
X16830Y12880D1*
X16908Y12783D1*
X16965Y12672D1*
X17000Y12552D1*
X17010Y12437D1*
X16998Y12313D1*
X16961Y12194D1*
X16902Y12084D1*
X16823Y11988D1*
X16754Y11931D1*
X16840Y11898D1*
X16923Y11838D1*
X17512Y11243D1*
X17559Y11155D1*
X17577Y11057D1*
X17566Y10958D1*
X17527Y10867D1*
X17462Y10789D1*
X16885Y10218D1*
X16797Y10171D1*
X16699Y10152D1*
X16600Y10163D1*
X16509Y10203D1*
X16431Y10268D1*
X15860Y10845D1*
X15813Y10933D1*
X15794Y11031D1*
X15805Y11130D1*
X15845Y11221D1*
X15910Y11299D1*
X16415Y11804D1*
X16248Y11815D1*
X16129Y11852D1*
X16019Y11911D1*
X15923Y11991D1*
X15896Y12025D1*
X15771Y11885D1*
X15670Y11811D1*
X15557Y11757D1*
X15438Y11722D1*
X15314Y11707D1*
X15189Y11715D1*
X15067Y11743D1*
X14953Y11792D1*
X14848Y11860D1*
X14756Y11945D1*
X14680Y12044D1*
X14622Y12154D1*
X14584Y12273D1*
X14566Y12397D1*
X14570Y12521D1*
X14596Y12644D1*
X14641Y12760D1*
X14706Y12867D1*
X14788Y12961D1*
X14846Y13007D1*
X14720Y13151D1*
X14662Y13261D1*
X14626Y13381D1*
X14615Y13505D1*
X14628Y13629D1*
X14666Y13748D1*
X14725Y13858D1*
X14806Y13953D1*
X14903Y14032D1*
X15013Y14089D1*
X15133Y14124D1*
X15258Y14135D1*
X15382Y14121D1*
X15501Y14083D1*
X15610Y14023D1*
X15705Y13943D1*
X15783Y13845D1*
X15840Y13734D1*
X15875Y13614D1*
X15885Y13500D1*
X15873Y13376D1*
Y17376D2*
X15836Y17256D1*
X15777Y17146D1*
X15698Y17050D1*
X15601Y16971D1*
X15491Y16913D1*
X15372Y16877D1*
X15247Y16865D1*
X15123Y16878D1*
X15004Y16915D1*
X14894Y16974D1*
X14798Y17054D1*
X14720Y17151D1*
X14662Y17261D1*
X14626Y17381D1*
X14615Y17505D1*
X14628Y17629D1*
X14666Y17748D1*
X14725Y17858D1*
X14806Y17953D1*
X14903Y18032D1*
X15013Y18089D1*
X15133Y18124D1*
X15258Y18135D1*
X15382Y18121D1*
X15501Y18083D1*
X15610Y18023D1*
X15705Y17943D1*
X15783Y17845D1*
X15840Y17734D1*
X15875Y17614D1*
X15885Y17500D1*
X15873Y17376D1*
X14498Y20751D2*
X14461Y20631D1*
X14402Y20521D1*
X14323Y20425D1*
X14226Y20346D1*
X14116Y20288D1*
X13997Y20252D1*
X13872Y20240D1*
X13748Y20253D1*
X13629Y20290D1*
X13519Y20349D1*
X13423Y20429D1*
X13345Y20526D1*
X13287Y20636D1*
X13251Y20756D1*
X13240Y20880D1*
X13253Y21004D1*
X13291Y21123D1*
X13350Y21233D1*
X13431Y21328D1*
X13528Y21407D1*
X13638Y21464D1*
X13758Y21499D1*
X13883Y21510D1*
X14007Y21496D1*
X14126Y21458D1*
X14235Y21398D1*
X14330Y21318D1*
X14408Y21220D1*
X14465Y21109D1*
X14500Y20989D1*
X14510Y20875D1*
X14498Y20751D1*
Y16751D2*
X14461Y16631D1*
X14402Y16521D1*
X14323Y16425D1*
X14226Y16346D1*
X14116Y16288D1*
X13997Y16252D1*
X13872Y16240D1*
X13748Y16253D1*
X13629Y16290D1*
X13519Y16349D1*
X13423Y16429D1*
X13345Y16526D1*
X13287Y16636D1*
X13251Y16756D1*
X13240Y16880D1*
X13253Y17004D1*
X13291Y17123D1*
X13350Y17233D1*
X13431Y17328D1*
X13528Y17407D1*
X13638Y17464D1*
X13758Y17499D1*
X13883Y17510D1*
X14007Y17496D1*
X14126Y17458D1*
X14235Y17398D1*
X14330Y17318D1*
X14408Y17220D1*
X14465Y17109D1*
X14500Y16989D1*
X14510Y16875D1*
X14498Y16751D1*
X21003Y12372D2*
X20998Y12313D1*
X20961Y12194D1*
X20902Y12084D1*
X20823Y11988D1*
X20726Y11909D1*
X20616Y11850D1*
X20497Y11814D1*
X20372Y11802D1*
X20248Y11815D1*
X20129Y11852D1*
X20019Y11911D1*
X19923Y11991D1*
X19845Y12088D1*
X19787Y12199D1*
X19751Y12318D1*
X19740Y12443D1*
X19753Y12567D1*
X19791Y12686D1*
X19850Y12795D1*
X19931Y12891D1*
X20028Y12969D1*
X20138Y13027D1*
X20258Y13062D1*
X20383Y13072D1*
X20507Y13059D1*
X20626Y13021D1*
X20744Y12953D1*
X20745Y13630D1*
X22005D1*
Y13509D1*
X22159Y13592D1*
X22280Y13623D1*
X22405Y13630D1*
X22528Y13611D1*
X22646Y13569D1*
X22753Y13505D1*
X22845Y13420D1*
X22875Y13379D1*
X22947Y13463D1*
X23047Y13538D1*
X23159Y13592D1*
X23280Y13623D1*
X23405Y13630D1*
X23528Y13611D1*
X23646Y13569D1*
X23753Y13505D1*
X23845Y13420D1*
X23875Y13379D1*
X23947Y13463D1*
X24047Y13538D1*
X24159Y13592D1*
X24280Y13623D1*
X24405Y13630D1*
X24528Y13611D1*
X24646Y13569D1*
X24753Y13505D1*
X24845Y13420D1*
X24875Y13379D1*
X24947Y13463D1*
X25047Y13538D1*
X25159Y13592D1*
X25280Y13623D1*
X25405Y13630D1*
X25528Y13611D1*
X25646Y13569D1*
X25753Y13505D1*
X25845Y13420D1*
X25875Y13379D1*
X25947Y13463D1*
X26047Y13538D1*
X26159Y13592D1*
X26280Y13623D1*
X26405Y13630D1*
X26528Y13611D1*
X26646Y13569D1*
X26753Y13505D1*
X26845Y13420D1*
X26875Y13379D1*
X26947Y13463D1*
X27047Y13538D1*
X27159Y13592D1*
X27280Y13623D1*
X27405Y13630D1*
X27528Y13611D1*
X27646Y13569D1*
X27753Y13505D1*
X27845Y13420D1*
X27875Y13379D1*
X27947Y13463D1*
X28047Y13538D1*
X28159Y13592D1*
X28280Y13623D1*
X28405Y13630D1*
X28528Y13611D1*
X28646Y13569D1*
X28753Y13505D1*
X28845Y13420D1*
X28875Y13379D1*
X28947Y13463D1*
X29047Y13538D1*
X29159Y13592D1*
X29280Y13623D1*
X29405Y13630D1*
X29528Y13611D1*
X29646Y13569D1*
X29753Y13505D1*
X29845Y13420D1*
X29875Y13379D1*
X29929Y13446D1*
X30026Y13525D1*
X30136Y13583D1*
X30256Y13619D1*
X30380Y13630D1*
X30504Y13617D1*
X30623Y13579D1*
X30732Y13519D1*
X30828Y13439D1*
X30905Y13341D1*
X30962Y13230D1*
X30996Y13110D1*
X31005Y12975D1*
X30988Y12851D1*
X30946Y12734D1*
X30883Y12626D1*
X30799Y12534D1*
X30699Y12459D1*
X30586Y12406D1*
X30465Y12376D1*
X30340Y12371D1*
X30217Y12390D1*
X30100Y12433D1*
X29993Y12498D1*
X29902Y12583D1*
X29875Y12617D1*
X29817Y12551D1*
X29720Y12473D1*
X29609Y12415D1*
X29489Y12380D1*
X29365Y12370D1*
X29241Y12384D1*
X29122Y12423D1*
X29014Y12484D1*
X28919Y12565D1*
X28878Y12617D1*
X28817Y12551D1*
X28720Y12473D1*
X28609Y12415D1*
X28489Y12380D1*
X28365Y12370D1*
X28241Y12384D1*
X28122Y12423D1*
X28014Y12484D1*
X27919Y12565D1*
X27878Y12617D1*
X27817Y12551D1*
X27720Y12473D1*
X27609Y12415D1*
X27489Y12380D1*
X27365Y12370D1*
X27241Y12384D1*
X27122Y12423D1*
X27014Y12484D1*
X26919Y12565D1*
X26878Y12617D1*
X26817Y12551D1*
X26720Y12473D1*
X26609Y12415D1*
X26489Y12380D1*
X26365Y12370D1*
X26241Y12384D1*
X26122Y12423D1*
X26014Y12484D1*
X25919Y12565D1*
X25878Y12617D1*
X25817Y12551D1*
X25720Y12473D1*
X25609Y12415D1*
X25489Y12380D1*
X25365Y12370D1*
X25241Y12384D1*
X25122Y12423D1*
X25014Y12484D1*
X24919Y12565D1*
X24878Y12617D1*
X24817Y12551D1*
X24720Y12473D1*
X24609Y12415D1*
X24489Y12380D1*
X24365Y12370D1*
X24241Y12384D1*
X24122Y12423D1*
X24014Y12484D1*
X23919Y12565D1*
X23878Y12617D1*
X23817Y12551D1*
X23720Y12473D1*
X23609Y12415D1*
X23489Y12380D1*
X23365Y12370D1*
X23241Y12384D1*
X23122Y12423D1*
X23014Y12484D1*
X22919Y12565D1*
X22878Y12617D1*
X22817Y12551D1*
X22720Y12473D1*
X22609Y12415D1*
X22489Y12380D1*
X22365Y12370D1*
X22241Y12384D1*
X22122Y12423D1*
X22005Y12491D1*
Y12370D1*
X21009D1*
X18873Y8501D2*
X18836Y8381D1*
X18777Y8271D1*
X18698Y8175D1*
X18601Y8096D1*
X18491Y8038D1*
X18372Y8002D1*
X18247Y7990D1*
X18123Y8003D1*
X18004Y8040D1*
X17894Y8099D1*
X17798Y8179D1*
X17720Y8276D1*
X17662Y8386D1*
X17626Y8506D1*
X17615Y8630D1*
X17628Y8754D1*
X17666Y8873D1*
X17725Y8983D1*
X17806Y9078D1*
X17903Y9157D1*
X18013Y9214D1*
X18133Y9249D1*
X18258Y9260D1*
X18382Y9246D1*
X18501Y9208D1*
X18610Y9148D1*
X18705Y9068D1*
X18783Y8970D1*
X18840Y8859D1*
X18875Y8739D1*
X18885Y8625D1*
X18873Y8501D1*
X44373Y2376D2*
X44336Y2256D1*
X44277Y2146D1*
X44198Y2050D1*
X44101Y1971D1*
X43991Y1913D1*
X43872Y1877D1*
X43747Y1865D1*
X43623Y1878D1*
X43504Y1915D1*
X43394Y1974D1*
X43298Y2054D1*
X43220Y2151D1*
X43162Y2261D1*
X43126Y2381D1*
X43115Y2505D1*
X43128Y2629D1*
X43166Y2748D1*
X43225Y2858D1*
X43306Y2953D1*
X43403Y3032D1*
X43513Y3089D1*
X43633Y3124D1*
X43758Y3135D1*
X43882Y3121D1*
X44001Y3083D1*
X44110Y3023D1*
X44205Y2943D1*
X44283Y2845D1*
X44340Y2734D1*
X44375Y2614D1*
X44385Y2500D1*
X44373Y2376D1*
Y6376D2*
X44336Y6256D1*
X44277Y6146D1*
X44198Y6050D1*
X44101Y5971D1*
X43991Y5913D1*
X43872Y5877D1*
X43747Y5865D1*
X43623Y5878D1*
X43504Y5915D1*
X43394Y5974D1*
X43298Y6054D1*
X43220Y6151D1*
X43162Y6261D1*
X43126Y6381D1*
X43115Y6505D1*
X43128Y6629D1*
X43166Y6748D1*
X43225Y6858D1*
X43306Y6953D1*
X43403Y7032D1*
X43513Y7089D1*
X43633Y7124D1*
X43758Y7135D1*
X43882Y7121D1*
X44001Y7083D1*
X44110Y7023D1*
X44205Y6943D1*
X44283Y6845D1*
X44340Y6734D1*
X44375Y6614D1*
X44385Y6500D1*
X44373Y6376D1*
X36248Y5751D2*
X36211Y5631D1*
X36152Y5521D1*
X36073Y5425D1*
X35976Y5346D1*
X35866Y5288D1*
X35747Y5252D1*
X35622Y5240D1*
X35498Y5253D1*
X35379Y5290D1*
X35269Y5349D1*
X35173Y5429D1*
X35095Y5526D1*
X35037Y5636D1*
X35001Y5756D1*
X34990Y5880D1*
X35003Y6004D1*
X35041Y6123D1*
X35100Y6233D1*
X35181Y6328D1*
X35278Y6407D1*
X35388Y6464D1*
X35508Y6499D1*
X35633Y6510D1*
X35757Y6496D1*
X35876Y6458D1*
X35985Y6398D1*
X36080Y6318D1*
X36158Y6220D1*
X36215Y6109D1*
X36250Y5989D1*
X36260Y5875D1*
X36248Y5751D1*
X40248D2*
X40211Y5631D1*
X40152Y5521D1*
X40073Y5425D1*
X39976Y5346D1*
X39866Y5288D1*
X39747Y5252D1*
X39622Y5240D1*
X39498Y5253D1*
X39379Y5290D1*
X39269Y5349D1*
X39173Y5429D1*
X39095Y5526D1*
X39037Y5636D1*
X39001Y5756D1*
X38990Y5880D1*
X39003Y6004D1*
X39041Y6123D1*
X39100Y6233D1*
X39181Y6328D1*
X39278Y6407D1*
X39388Y6464D1*
X39508Y6499D1*
X39633Y6510D1*
X39757Y6496D1*
X39876Y6458D1*
X39985Y6398D1*
X40080Y6318D1*
X40158Y6220D1*
X40215Y6109D1*
X40250Y5989D1*
X40260Y5875D1*
X40248Y5751D1*
X51623Y2251D2*
X51586Y2131D1*
X51527Y2021D1*
X51448Y1925D1*
X51351Y1846D1*
X51241Y1788D1*
X51122Y1752D1*
X50997Y1740D1*
X50873Y1753D1*
X50754Y1790D1*
X50644Y1849D1*
X50548Y1929D1*
X50470Y2026D1*
X50412Y2136D1*
X50376Y2256D1*
X50365Y2380D1*
X50378Y2504D1*
X50416Y2623D1*
X50475Y2733D1*
X50556Y2828D1*
X50653Y2907D1*
X50763Y2964D1*
X50883Y2999D1*
X51008Y3010D1*
X51132Y2996D1*
X51251Y2958D1*
X51360Y2898D1*
X51455Y2818D1*
X51533Y2720D1*
X51590Y2609D1*
X51625Y2489D1*
X51635Y2375D1*
X51623Y2251D1*
Y6251D2*
X51586Y6131D1*
X51527Y6021D1*
X51448Y5925D1*
X51351Y5846D1*
X51241Y5788D1*
X51122Y5752D1*
X50997Y5740D1*
X50873Y5753D1*
X50754Y5790D1*
X50644Y5849D1*
X50548Y5929D1*
X50470Y6026D1*
X50412Y6136D1*
X50376Y6256D1*
X50365Y6380D1*
X50378Y6504D1*
X50416Y6623D1*
X50475Y6733D1*
X50556Y6828D1*
X50653Y6907D1*
X50763Y6964D1*
X50883Y6999D1*
X51008Y7010D1*
X51132Y6996D1*
X51251Y6958D1*
X51360Y6898D1*
X51455Y6818D1*
X51533Y6720D1*
X51590Y6609D1*
X51625Y6489D1*
X51635Y6375D1*
X51623Y6251D1*
X45998Y2251D2*
X45961Y2131D1*
X45902Y2021D1*
X45823Y1925D1*
X45726Y1846D1*
X45616Y1788D1*
X45497Y1752D1*
X45372Y1740D1*
X45248Y1753D1*
X45129Y1790D1*
X45019Y1849D1*
X44923Y1929D1*
X44845Y2026D1*
X44787Y2136D1*
X44751Y2256D1*
X44740Y2380D1*
X44753Y2504D1*
X44791Y2623D1*
X44850Y2733D1*
X44931Y2828D1*
X45028Y2907D1*
X45138Y2964D1*
X45258Y2999D1*
X45383Y3010D1*
X45507Y2996D1*
X45626Y2958D1*
X45735Y2898D1*
X45830Y2818D1*
X45908Y2720D1*
X45965Y2609D1*
X46000Y2489D1*
X46010Y2375D1*
X45998Y2251D1*
X49998D2*
X49961Y2131D1*
X49902Y2021D1*
X49823Y1925D1*
X49726Y1846D1*
X49616Y1788D1*
X49497Y1752D1*
X49372Y1740D1*
X49248Y1753D1*
X49129Y1790D1*
X49019Y1849D1*
X48923Y1929D1*
X48845Y2026D1*
X48787Y2136D1*
X48751Y2256D1*
X48740Y2380D1*
X48753Y2504D1*
X48791Y2623D1*
X48850Y2733D1*
X48931Y2828D1*
X49028Y2907D1*
X49138Y2964D1*
X49258Y2999D1*
X49383Y3010D1*
X49507Y2996D1*
X49626Y2958D1*
X49735Y2898D1*
X49830Y2818D1*
X49908Y2720D1*
X49965Y2609D1*
X50000Y2489D1*
X50010Y2375D1*
X49998Y2251D1*
X49248Y33251D2*
X49211Y33131D1*
X49152Y33021D1*
X49073Y32925D1*
X48976Y32846D1*
X48866Y32788D1*
X48747Y32752D1*
X48622Y32740D1*
X48498Y32753D1*
X48379Y32790D1*
X48269Y32849D1*
X48173Y32929D1*
X48095Y33026D1*
X48037Y33136D1*
X48001Y33256D1*
X47990Y33380D1*
X48003Y33504D1*
X48041Y33623D1*
X48100Y33733D1*
X48181Y33828D1*
X48278Y33907D1*
X48388Y33964D1*
X48508Y33999D1*
X48633Y34010D1*
X48757Y33996D1*
X48876Y33958D1*
X48985Y33898D1*
X49080Y33818D1*
X49158Y33720D1*
X49215Y33609D1*
X49250Y33489D1*
X49260Y33375D1*
X49248Y33251D1*
X53248D2*
X53211Y33131D1*
X53152Y33021D1*
X53073Y32925D1*
X52976Y32846D1*
X52866Y32788D1*
X52747Y32752D1*
X52622Y32740D1*
X52498Y32753D1*
X52379Y32790D1*
X52269Y32849D1*
X52173Y32929D1*
X52095Y33026D1*
X52037Y33136D1*
X52001Y33256D1*
X51990Y33380D1*
X52003Y33504D1*
X52041Y33623D1*
X52100Y33733D1*
X52181Y33828D1*
X52278Y33907D1*
X52388Y33964D1*
X52508Y33999D1*
X52633Y34010D1*
X52757Y33996D1*
X52876Y33958D1*
X52985Y33898D1*
X53080Y33818D1*
X53158Y33720D1*
X53215Y33609D1*
X53250Y33489D1*
X53260Y33375D1*
X53248Y33251D1*
X49248Y36751D2*
X49211Y36631D1*
X49152Y36521D1*
X49073Y36425D1*
X48976Y36346D1*
X48866Y36288D1*
X48747Y36252D1*
X48622Y36240D1*
X48498Y36253D1*
X48379Y36290D1*
X48269Y36349D1*
X48173Y36429D1*
X48095Y36526D1*
X48037Y36636D1*
X48001Y36756D1*
X47990Y36880D1*
X48003Y37004D1*
X48041Y37123D1*
X48100Y37233D1*
X48181Y37328D1*
X48278Y37407D1*
X48388Y37464D1*
X48508Y37499D1*
X48633Y37510D1*
X48757Y37496D1*
X48876Y37458D1*
X48985Y37398D1*
X49080Y37318D1*
X49158Y37220D1*
X49215Y37109D1*
X49250Y36989D1*
X49260Y36875D1*
X49248Y36751D1*
X53040Y36398D2*
X52976Y36346D1*
X52866Y36288D1*
X52747Y36252D1*
X52622Y36240D1*
X52498Y36253D1*
X52379Y36290D1*
X52269Y36349D1*
X52173Y36429D1*
X52095Y36526D1*
X52037Y36636D1*
X52001Y36756D1*
X51990Y36880D1*
X52003Y37004D1*
X52041Y37123D1*
X52100Y37233D1*
X52181Y37328D1*
X52278Y37407D1*
X52388Y37464D1*
X52508Y37499D1*
X52633Y37510D1*
X52757Y37496D1*
X52876Y37458D1*
X52985Y37398D1*
X53080Y37318D1*
X53158Y37220D1*
X53215Y37109D1*
X53250Y36989D1*
X53260Y36875D1*
X53248Y36755D1*
X53418Y36862D1*
X53537Y36902D1*
X53660Y36919D1*
X53785Y36913D1*
X53906Y36884D1*
X54020Y36833D1*
X54123Y36762D1*
X54210Y36673D1*
X54280Y36569D1*
X54329Y36454D1*
X54356Y36332D1*
X54361Y36250D1*
X54349Y36126D1*
X54314Y36006D1*
X54258Y35894D1*
X54182Y35795D1*
X54089Y35712D1*
X53983Y35647D1*
X53866Y35604D1*
X53743Y35582D1*
X53618Y35584D1*
X53496Y35609D1*
X53380Y35657D1*
X53276Y35725D1*
X53185Y35811D1*
X53113Y35912D1*
X53060Y36026D1*
X53029Y36147D1*
X53022Y36271D1*
X53037Y36391D1*
X5630Y31550D2*
X5613Y31426D1*
X5571Y31308D1*
X5508Y31201D1*
X5424Y31108D1*
X5324Y31034D1*
X5211Y30981D1*
X5090Y30951D1*
X4965Y30945D1*
X4842Y30965D1*
X4725Y31008D1*
X4618Y31073D1*
X4527Y31158D1*
X4454Y31260D1*
X4403Y31373D1*
X4375Y31495D1*
X4371Y31620D1*
X4392Y31743D1*
X4437Y31859D1*
X4505Y31964D1*
X4591Y32054D1*
X4693Y32126D1*
X4808Y32175D1*
X4930Y32201D1*
X5055Y32203D1*
X5177Y32180D1*
X5293Y32133D1*
X5397Y32064D1*
X5486Y31976D1*
X5555Y31873D1*
X5603Y31757D1*
X5627Y31635D1*
X5630Y31550D1*
X13212Y15039D2*
X12635Y14468D1*
X12547Y14421D1*
X12449Y14402D1*
X12350Y14413D1*
X12259Y14453D1*
X12181Y14518D1*
X11610Y15095D1*
X11563Y15183D1*
X11544Y15281D1*
X11555Y15380D1*
X11595Y15471D1*
X11660Y15549D1*
X12237Y16120D1*
X12325Y16167D1*
X12423Y16185D1*
X12522Y16175D1*
X12613Y16135D1*
X12690Y16070D1*
X13262Y15493D1*
X13309Y15405D1*
X13327Y15307D1*
X13316Y15208D1*
X13277Y15117D1*
X13212Y15039D1*
X9674Y11690D2*
X9642Y11569D1*
X9590Y11455D1*
X9520Y11352D1*
X9433Y11263D1*
X9332Y11190D1*
X9220Y11135D1*
X9073Y11097D1*
X9076Y11008D1*
X9051Y10912D1*
X8998Y10827D1*
X8404Y10233D1*
X8320Y10180D1*
X8224Y10154D1*
X8124Y10158D1*
X8030Y10191D1*
X7950Y10249D1*
X7360Y10845D1*
X7313Y10933D1*
X7294Y11031D1*
X7305Y11130D1*
X7345Y11221D1*
X7410Y11299D1*
X7987Y11870D1*
X8075Y11917D1*
X8173Y11935D1*
X8225Y11933D1*
X8303Y12138D1*
X8368Y12245D1*
X8450Y12339D1*
X8547Y12417D1*
X8656Y12478D1*
X8774Y12520D1*
X8897Y12540D1*
X9022D1*
X9145Y12518D1*
X9262Y12475D1*
X9371Y12413D1*
X9467Y12334D1*
X9548Y12239D1*
X9612Y12132D1*
X9656Y12015D1*
X9681Y11893D1*
X9685Y11814D1*
X9674Y11690D1*
X8282Y13082D2*
X8250Y12961D1*
X8198Y12847D1*
X8128Y12744D1*
X8041Y12655D1*
X7940Y12582D1*
X7828Y12527D1*
X7708Y12492D1*
X7584Y12478D1*
X7518Y12481D1*
X7523Y12436D1*
X7512Y12312D1*
X7480Y12191D1*
X7428Y12077D1*
X7358Y11974D1*
X7271Y11885D1*
X7170Y11811D1*
X7057Y11757D1*
X6938Y11722D1*
X6814Y11707D1*
X6689Y11715D1*
X6567Y11743D1*
X6453Y11792D1*
X6348Y11860D1*
X6256Y11945D1*
X6180Y12044D1*
X6122Y12154D1*
X6084Y12273D1*
X6066Y12397D1*
X6070Y12521D1*
X6096Y12644D1*
X6141Y12760D1*
X6206Y12867D1*
X6288Y12961D1*
X6385Y13039D1*
X6494Y13100D1*
X6612Y13142D1*
X6735Y13162D1*
X6836Y13167D1*
X6840Y13292D1*
X6866Y13414D1*
X6911Y13530D1*
X6976Y13637D1*
X7058Y13731D1*
X7155Y13809D1*
X7264Y13870D1*
X7382Y13912D1*
X7505Y13932D1*
X7630D1*
X7753Y13910D1*
X7870Y13867D1*
X7979Y13805D1*
X8075Y13726D1*
X8156Y13631D1*
X8220Y13524D1*
X8265Y13407D1*
X8289Y13284D1*
X8293Y13206D1*
X8282Y13082D1*
X11931Y12873D2*
X11897Y12753D1*
X11843Y12640D1*
X11769Y12540D1*
X11678Y12454D1*
X11573Y12387D1*
X11457Y12339D1*
X11335Y12313D1*
X11211Y12309D1*
X11087Y12328D1*
X10969Y12369D1*
X10861Y12430D1*
X10765Y12510D1*
X10685Y12606D1*
X10624Y12715D1*
X10583Y12833D1*
X10565Y12957D1*
X10569Y13081D1*
X10595Y13203D1*
X10643Y13319D1*
X10711Y13423D1*
X10797Y13514D1*
X10897Y13588D1*
X11010Y13642D1*
X11130Y13676D1*
X11254Y13687D1*
X11379Y13675D1*
X11499Y13641D1*
X11611Y13586D1*
X11711Y13512D1*
X11797Y13421D1*
X11864Y13316D1*
X11911Y13200D1*
X11937Y13078D1*
X11942Y12997D1*
X11931Y12873D1*
X9425Y15378D2*
X9392Y15258D1*
X9337Y15146D1*
X9263Y15045D1*
X9172Y14960D1*
X9067Y14892D1*
X8952Y14845D1*
X8830Y14818D1*
X8705Y14815D1*
X8582Y14834D1*
X8464Y14874D1*
X8355Y14936D1*
X8259Y15016D1*
X8179Y15112D1*
X8118Y15221D1*
X8078Y15339D1*
X8059Y15462D1*
X8063Y15587D1*
X8089Y15709D1*
X8137Y15824D1*
X8205Y15929D1*
X8291Y16020D1*
X8392Y16093D1*
X8504Y16148D1*
X8625Y16181D1*
X8749Y16192D1*
X8873Y16180D1*
X8993Y16147D1*
X9105Y16092D1*
X9206Y16017D1*
X9291Y15926D1*
X9359Y15821D1*
X9406Y15706D1*
X9432Y15584D1*
X9437Y15503D1*
X9425Y15378D1*
X13212Y6539D2*
X12635Y5968D1*
X12547Y5921D1*
X12449Y5902D1*
X12350Y5913D1*
X12259Y5953D1*
X12181Y6018D1*
X11610Y6595D1*
X11563Y6683D1*
X11544Y6781D1*
X11555Y6880D1*
X11595Y6971D1*
X11660Y7049D1*
X12237Y7620D1*
X12325Y7667D1*
X12423Y7685D1*
X12475Y7683D1*
X12553Y7888D1*
X12618Y7995D1*
X12700Y8089D1*
X12797Y8167D1*
X12906Y8228D1*
X13024Y8270D1*
X13147Y8290D1*
X13272D1*
X13395Y8268D1*
X13512Y8225D1*
X13621Y8163D1*
X13717Y8084D1*
X13798Y7989D1*
X13862Y7882D1*
X13906Y7765D1*
X13931Y7643D1*
X13935Y7564D1*
X13924Y7440D1*
X13892Y7319D1*
X13840Y7205D1*
X13770Y7102D1*
X13683Y7013D1*
X13582Y6940D1*
X13470Y6885D1*
X13323Y6847D1*
X13326Y6758D1*
X13301Y6662D1*
X13248Y6577D1*
X13212Y6539D1*
X11762Y8062D2*
X11730Y7941D1*
X11678Y7827D1*
X11608Y7724D1*
X11521Y7635D1*
X11420Y7561D1*
X11307Y7507D1*
X11188Y7472D1*
X11064Y7457D1*
X10939Y7465D1*
X10817Y7493D1*
X10703Y7542D1*
X10598Y7610D1*
X10506Y7695D1*
X10430Y7794D1*
X10372Y7904D1*
X10334Y8023D1*
X10316Y8147D1*
X10320Y8271D1*
X10346Y8394D1*
X10391Y8510D1*
X10456Y8617D1*
X10538Y8711D1*
X10635Y8789D1*
X10744Y8850D1*
X10862Y8892D1*
X10985Y8912D1*
X11086Y8917D1*
X11090Y9042D1*
X11116Y9164D1*
X11161Y9280D1*
X11226Y9387D1*
X11308Y9481D1*
X11405Y9559D1*
X11514Y9620D1*
X11632Y9662D1*
X11755Y9682D1*
X11880D1*
X12003Y9660D1*
X12120Y9617D1*
X12229Y9555D1*
X12325Y9476D1*
X12406Y9381D1*
X12470Y9274D1*
X12515Y9157D1*
X12539Y9034D1*
X12543Y8956D1*
X12532Y8832D1*
X12500Y8711D1*
X12448Y8597D1*
X12378Y8494D1*
X12291Y8405D1*
X12190Y8332D1*
X12078Y8277D1*
X11958Y8242D1*
X11834Y8228D1*
X11768Y8231D1*
X11773Y8186D1*
X11762Y8062D1*
X8282Y4582D2*
X8250Y4461D1*
X8198Y4347D1*
X8128Y4244D1*
X8041Y4155D1*
X7940Y4082D1*
X7828Y4027D1*
X7708Y3992D1*
X7584Y3978D1*
X7459Y3985D1*
X7338Y4013D1*
X7223Y4062D1*
X7118Y4130D1*
X7026Y4215D1*
X6950Y4314D1*
X6892Y4424D1*
X6854Y4543D1*
X6836Y4667D1*
X6840Y4792D1*
X6866Y4914D1*
X6911Y5030D1*
X6976Y5137D1*
X7058Y5231D1*
X7155Y5309D1*
X7264Y5370D1*
X7382Y5412D1*
X7505Y5432D1*
X7630D1*
X7753Y5410D1*
X7870Y5367D1*
X7979Y5305D1*
X8075Y5226D1*
X8156Y5131D1*
X8220Y5024D1*
X8265Y4907D1*
X8289Y4784D1*
X8293Y4706D1*
X8282Y4582D1*
X11931Y4373D2*
X11897Y4253D1*
X11843Y4140D1*
X11769Y4040D1*
X11678Y3954D1*
X11573Y3887D1*
X11457Y3839D1*
X11335Y3813D1*
X11211Y3809D1*
X11087Y3828D1*
X10969Y3869D1*
X10861Y3930D1*
X10765Y4010D1*
X10685Y4106D1*
X10624Y4215D1*
X10583Y4333D1*
X10565Y4457D1*
X10569Y4581D1*
X10595Y4703D1*
X10643Y4819D1*
X10711Y4923D1*
X10797Y5014D1*
X10897Y5088D1*
X11010Y5142D1*
X11130Y5176D1*
X11254Y5187D1*
X11379Y5175D1*
X11499Y5141D1*
X11611Y5086D1*
X11711Y5012D1*
X11797Y4921D1*
X11864Y4816D1*
X11911Y4700D1*
X11937Y4578D1*
X11942Y4497D1*
X11931Y4373D1*
X9425Y6878D2*
X9392Y6758D1*
X9337Y6646D1*
X9263Y6545D1*
X9172Y6460D1*
X9067Y6392D1*
X8952Y6345D1*
X8830Y6318D1*
X8705Y6315D1*
X8582Y6334D1*
X8464Y6374D1*
X8355Y6436D1*
X8259Y6516D1*
X8179Y6612D1*
X8118Y6721D1*
X8078Y6839D1*
X8059Y6962D1*
X8063Y7087D1*
X8089Y7209D1*
X8137Y7324D1*
X8205Y7429D1*
X8291Y7520D1*
X8392Y7593D1*
X8504Y7648D1*
X8625Y7681D1*
X8749Y7692D1*
X8873Y7680D1*
X8993Y7647D1*
X9105Y7592D1*
X9206Y7517D1*
X9291Y7426D1*
X9359Y7321D1*
X9406Y7206D1*
X9432Y7084D1*
X9437Y7003D1*
X9425Y6878D1*
X5424Y7440D2*
X5392Y7319D1*
X5340Y7205D1*
X5270Y7102D1*
X5183Y7013D1*
X5082Y6940D1*
X4970Y6885D1*
X4850Y6850D1*
X4726Y6836D1*
X4601Y6843D1*
X4480Y6871D1*
X4365Y6920D1*
X4260Y6988D1*
X4168Y7073D1*
X4092Y7172D1*
X4034Y7282D1*
X3996Y7401D1*
X3978Y7525D1*
X3982Y7650D1*
X4008Y7772D1*
X4053Y7888D1*
X4118Y7995D1*
X4200Y8089D1*
X4297Y8167D1*
X4406Y8228D1*
X4524Y8270D1*
X4647Y8290D1*
X4772D1*
X4895Y8268D1*
X5012Y8225D1*
X5121Y8163D1*
X5217Y8084D1*
X5298Y7989D1*
X5362Y7882D1*
X5406Y7765D1*
X5431Y7643D1*
X5435Y7564D1*
X5424Y7440D1*
X7681Y8623D2*
X7647Y8503D1*
X7593Y8390D1*
X7519Y8290D1*
X7428Y8204D1*
X7323Y8137D1*
X7207Y8089D1*
X7085Y8063D1*
X6961Y8059D1*
X6837Y8078D1*
X6719Y8119D1*
X6611Y8180D1*
X6515Y8260D1*
X6435Y8356D1*
X6374Y8465D1*
X6333Y8583D1*
X6315Y8707D1*
X6319Y8831D1*
X6345Y8953D1*
X6393Y9069D1*
X6461Y9173D1*
X6547Y9264D1*
X6647Y9338D1*
X6760Y9392D1*
X6880Y9426D1*
X7004Y9437D1*
X7129Y9425D1*
X7249Y9391D1*
X7361Y9336D1*
X7461Y9262D1*
X7547Y9171D1*
X7614Y9066D1*
X7661Y8950D1*
X7687Y8828D1*
X7692Y8747D1*
X7681Y8623D1*
X5175Y11128D2*
X5142Y11008D1*
X5087Y10896D1*
X5013Y10795D1*
X4922Y10710D1*
X4817Y10642D1*
X4702Y10595D1*
X4580Y10568D1*
X4455Y10565D1*
X4332Y10584D1*
X4214Y10624D1*
X4105Y10686D1*
X4009Y10766D1*
X3929Y10862D1*
X3868Y10971D1*
X3828Y11089D1*
X3809Y11212D1*
X3813Y11337D1*
X3839Y11459D1*
X3887Y11574D1*
X3955Y11679D1*
X4041Y11770D1*
X4142Y11843D1*
X4254Y11898D1*
X4375Y11931D1*
X4499Y11942D1*
X4623Y11930D1*
X4743Y11897D1*
X4855Y11842D1*
X4956Y11767D1*
X5041Y11676D1*
X5109Y11571D1*
X5156Y11456D1*
X5182Y11334D1*
X5187Y11253D1*
X5175Y11128D1*
X16181Y8623D2*
X16147Y8503D1*
X16093Y8390D1*
X16019Y8290D1*
X15928Y8204D1*
X15823Y8137D1*
X15707Y8089D1*
X15585Y8063D1*
X15461Y8059D1*
X15337Y8078D1*
X15219Y8119D1*
X15111Y8180D1*
X15015Y8260D1*
X14935Y8356D1*
X14874Y8465D1*
X14833Y8583D1*
X14815Y8707D1*
X14819Y8831D1*
X14845Y8953D1*
X14893Y9069D1*
X14961Y9173D1*
X15047Y9264D1*
X15147Y9338D1*
X15260Y9392D1*
X15380Y9426D1*
X15504Y9437D1*
X15629Y9425D1*
X15749Y9391D1*
X15861Y9336D1*
X15961Y9262D1*
X16047Y9171D1*
X16114Y9066D1*
X16161Y8950D1*
X16187Y8828D1*
X16192Y8747D1*
X16181Y8623D1*
X13675Y11128D2*
X13642Y11008D1*
X13587Y10896D1*
X13513Y10795D1*
X13422Y10710D1*
X13317Y10642D1*
X13202Y10595D1*
X13080Y10568D1*
X12955Y10565D1*
X12832Y10584D1*
X12714Y10624D1*
X12605Y10686D1*
X12509Y10766D1*
X12429Y10862D1*
X12368Y10971D1*
X12328Y11089D1*
X12309Y11212D1*
X12313Y11337D1*
X12339Y11459D1*
X12387Y11574D1*
X12455Y11679D1*
X12541Y11770D1*
X12642Y11843D1*
X12754Y11898D1*
X12875Y11931D1*
X12999Y11942D1*
X13123Y11930D1*
X13243Y11897D1*
X13355Y11842D1*
X13456Y11767D1*
X13541Y11676D1*
X13609Y11571D1*
X13656Y11456D1*
X13682Y11334D1*
X13687Y11253D1*
X13675Y11128D1*
X44257Y9744D2*
X45689D1*
Y8287D1*
X44232D1*
Y9744D1*
X44257D1*
X45679Y10860D2*
X45647Y10739D1*
X45595Y10626D1*
X45524Y10523D1*
X45437Y10433D1*
X45336Y10360D1*
X45224Y10305D1*
X45104Y10270D1*
X44980Y10256D1*
X44856Y10263D1*
X44734Y10292D1*
X44619Y10340D1*
X44514Y10408D1*
X44423Y10493D1*
X44347Y10592D1*
X44289Y10703D1*
X44250Y10821D1*
X44233Y10945D1*
X44237Y11070D1*
X44262Y11192D1*
X44308Y11308D1*
X44373Y11415D1*
X44455Y11509D1*
X44552Y11588D1*
X44661Y11648D1*
X44779Y11690D1*
X44902Y11711D1*
X45027Y11710D1*
X45150Y11688D1*
X45267Y11645D1*
X45375Y11583D1*
X45471Y11504D1*
X45553Y11409D1*
X45617Y11302D1*
X45661Y11185D1*
X45685Y11063D1*
X45689Y10984D1*
X45679Y10860D1*
X40757D2*
X40726Y10739D1*
X40674Y10626D1*
X40603Y10523D1*
X40516Y10433D1*
X40415Y10360D1*
X40303Y10305D1*
X40183Y10270D1*
X40059Y10256D1*
X39934Y10263D1*
X39813Y10292D1*
X39698Y10340D1*
X39593Y10408D1*
X39501Y10493D1*
X39425Y10592D1*
X39367Y10703D1*
X39329Y10821D1*
X39312Y10945D1*
X39316Y11070D1*
X39341Y11192D1*
X39387Y11308D1*
X39452Y11415D1*
X39534Y11509D1*
X39631Y11588D1*
X39740Y11648D1*
X39857Y11690D1*
X39981Y11711D1*
X40105Y11710D1*
X40228Y11688D1*
X40346Y11645D1*
X40454Y11583D1*
X40550Y11504D1*
X40631Y11409D1*
X40695Y11302D1*
X40740Y11185D1*
X40764Y11063D1*
X40768Y10984D1*
X40757Y10860D1*
X43178Y8104D2*
X43144Y7984D1*
X43090Y7872D1*
X43016Y7771D1*
X42925Y7686D1*
X42820Y7618D1*
X42705Y7570D1*
X42583Y7544D1*
X42458Y7540D1*
X42334Y7559D1*
X42216Y7600D1*
X42108Y7661D1*
X42012Y7741D1*
X41932Y7837D1*
X41871Y7946D1*
X41830Y8064D1*
X41812Y8188D1*
X41816Y8313D1*
X41842Y8435D1*
X41890Y8550D1*
X41958Y8654D1*
X42044Y8745D1*
X42145Y8819D1*
X42257Y8873D1*
X42377Y8907D1*
X42502Y8918D1*
X42626Y8906D1*
X42746Y8872D1*
X42858Y8817D1*
X42958Y8743D1*
X43044Y8652D1*
X43111Y8547D1*
X43159Y8431D1*
X43185Y8309D1*
X43189Y8228D1*
X43178Y8104D1*
X51757Y9744D2*
X53189D1*
Y8287D1*
X51732D1*
Y9744D1*
X51757D1*
X48257Y8891D2*
X48226Y8771D1*
X48174Y8657D1*
X48103Y8554D1*
X48016Y8465D1*
X47915Y8391D1*
X47803Y8336D1*
X47683Y8301D1*
X47559Y8287D1*
X47434Y8295D1*
X47313Y8323D1*
X47198Y8372D1*
X47093Y8440D1*
X47001Y8524D1*
X46925Y8623D1*
X46867Y8734D1*
X46829Y8853D1*
X46812Y8976D1*
X46816Y9101D1*
X46841Y9224D1*
X46887Y9340D1*
X46952Y9446D1*
X47034Y9540D1*
X47131Y9619D1*
X47240Y9680D1*
X47357Y9721D1*
X47481Y9742D1*
X47605Y9741D1*
X47728Y9720D1*
X47846Y9677D1*
X47954Y9615D1*
X48050Y9535D1*
X48131Y9441D1*
X48195Y9333D1*
X48240Y9217D1*
X48264Y9094D1*
X48268Y9016D1*
X48257Y8891D1*
X53179Y10860D2*
X53147Y10739D1*
X53095Y10626D1*
X53024Y10523D1*
X52937Y10433D1*
X52836Y10360D1*
X52724Y10305D1*
X52604Y10270D1*
X52480Y10256D1*
X52356Y10263D1*
X52234Y10292D1*
X52119Y10340D1*
X52014Y10408D1*
X51923Y10493D1*
X51847Y10592D1*
X51789Y10703D1*
X51750Y10821D1*
X51733Y10945D1*
X51737Y11070D1*
X51762Y11192D1*
X51808Y11308D1*
X51873Y11415D1*
X51955Y11509D1*
X52052Y11588D1*
X52161Y11648D1*
X52279Y11690D1*
X52402Y11711D1*
X52527Y11710D1*
X52650Y11688D1*
X52767Y11645D1*
X52875Y11583D1*
X52971Y11504D1*
X53053Y11409D1*
X53117Y11302D1*
X53161Y11185D1*
X53185Y11063D1*
X53189Y10984D1*
X53179Y10860D1*
X48257D2*
X48226Y10739D1*
X48174Y10626D1*
X48103Y10523D1*
X48016Y10433D1*
X47915Y10360D1*
X47803Y10305D1*
X47683Y10270D1*
X47559Y10256D1*
X47434Y10263D1*
X47313Y10292D1*
X47198Y10340D1*
X47093Y10408D1*
X47001Y10493D1*
X46925Y10592D1*
X46867Y10703D1*
X46829Y10821D1*
X46812Y10945D1*
X46816Y11070D1*
X46841Y11192D1*
X46887Y11308D1*
X46952Y11415D1*
X47034Y11509D1*
X47131Y11588D1*
X47240Y11648D1*
X47357Y11690D1*
X47481Y11711D1*
X47605Y11710D1*
X47728Y11688D1*
X47846Y11645D1*
X47954Y11583D1*
X48050Y11504D1*
X48131Y11409D1*
X48195Y11302D1*
X48240Y11185D1*
X48264Y11063D1*
X48268Y10984D1*
X48257Y10860D1*
X50678Y8104D2*
X50644Y7984D1*
X50590Y7872D1*
X50516Y7771D1*
X50425Y7686D1*
X50320Y7618D1*
X50205Y7570D1*
X50083Y7544D1*
X49958Y7540D1*
X49834Y7559D1*
X49716Y7600D1*
X49608Y7661D1*
X49512Y7741D1*
X49432Y7837D1*
X49371Y7946D1*
X49330Y8064D1*
X49312Y8188D1*
X49316Y8313D1*
X49342Y8435D1*
X49390Y8550D1*
X49458Y8654D1*
X49544Y8745D1*
X49645Y8819D1*
X49757Y8873D1*
X49877Y8907D1*
X50002Y8918D1*
X50126Y8906D1*
X50246Y8872D1*
X50358Y8817D1*
X50458Y8743D1*
X50544Y8652D1*
X50611Y8547D1*
X50659Y8431D1*
X50685Y8309D1*
X50689Y8228D1*
X50678Y8104D1*
X53046Y38691D2*
X54361D1*
Y37352D1*
X53044D1*
X53021Y37377D1*
Y38691D1*
X53046D1*
X56908Y36126D2*
X56874Y36006D1*
X56817Y35894D1*
X56741Y35795D1*
X56649Y35712D1*
X56542Y35647D1*
X56425Y35604D1*
X56302Y35582D1*
X56177Y35584D1*
X56055Y35609D1*
X55939Y35657D1*
X55835Y35725D1*
X55744Y35811D1*
X55672Y35912D1*
X55619Y36026D1*
X55588Y36147D1*
X55581Y36271D1*
X55596Y36395D1*
X55635Y36514D1*
X55694Y36624D1*
X55773Y36720D1*
X55869Y36800D1*
X55978Y36862D1*
X56096Y36902D1*
X56219Y36919D1*
X56344Y36913D1*
X56465Y36884D1*
X56579Y36833D1*
X56682Y36762D1*
X56769Y36673D1*
X56839Y36569D1*
X56888Y36454D1*
X56915Y36332D1*
X56920Y36250D1*
X56908Y36126D1*
Y37897D2*
X56874Y37777D1*
X56817Y37666D1*
X56741Y37567D1*
X56649Y37484D1*
X56542Y37419D1*
X56425Y37375D1*
X56302Y37354D1*
X56177Y37356D1*
X56055Y37381D1*
X55939Y37428D1*
X55835Y37496D1*
X55744Y37583D1*
X55672Y37684D1*
X55619Y37797D1*
X55588Y37918D1*
X55581Y38043D1*
X55596Y38167D1*
X55635Y38286D1*
X55694Y38395D1*
X55773Y38492D1*
X55869Y38572D1*
X55978Y38633D1*
X56096Y38673D1*
X56219Y38691D1*
X56344Y38685D1*
X56465Y38656D1*
X56579Y38605D1*
X56682Y38533D1*
X56769Y38444D1*
X56839Y38341D1*
X56888Y38226D1*
X56915Y38104D1*
X56920Y38022D1*
X56908Y37897D1*
X49099Y15185D2*
X49011Y15292D1*
X48972Y15403D1*
X48968Y15830D1*
Y16045D1*
X48991Y16167D1*
X49066Y16282D1*
X49165Y16381D1*
X49239Y16436D1*
X49349Y16475D1*
X49598Y16479D1*
X49736Y16449D1*
X49776Y16429D1*
X49894Y16468D1*
X50019Y16478D1*
X50142Y16459D1*
X50250Y16416D1*
X50370Y16463D1*
X50494Y16479D1*
X50618Y16466D1*
X50735Y16424D1*
X50840Y16356D1*
X50926Y16266D1*
X50988Y16158D1*
X51024Y16038D1*
X51032Y15822D1*
X51028Y15553D1*
X51017Y15429D1*
X50974Y15312D1*
X50905Y15208D1*
X50814Y15124D1*
X50705Y15062D1*
X50585Y15028D1*
X50460Y15023D1*
X50338Y15047D1*
X50249Y15087D1*
X50182Y15053D1*
X50060Y15025D1*
X49936D1*
X49814Y15055D1*
X49775Y15071D1*
X49651Y15025D1*
X49402Y15021D1*
X49279Y15044D1*
X49165Y15119D1*
X49099Y15185D1*
X8000Y21524D2*
D14*
Y20226D1*
X7351Y20875D2*
X8649D1*
X5500Y6024D2*
Y4726D1*
X4851Y5375D2*
X6149D1*
X7250Y17274D2*
Y15976D1*
X6601Y16625D2*
X7899D1*
X20250Y7274D2*
Y5976D1*
X19601Y6625D2*
X20899D1*
X37625Y10399D2*
Y9101D1*
X36976Y9750D2*
X38274D1*
X47375Y6899D2*
Y5601D1*
X46726Y6250D2*
X48024D1*
X45875Y16399D2*
Y15101D1*
X45226Y15750D2*
X45875D1*
X54250Y16399D2*
Y15750D1*
X53601D2*
X54899D1*
X17630Y16649D2*
Y15351D1*
X16981Y16000D2*
X18279D1*
X32500Y14649D2*
Y13351D1*
X31851Y14000D2*
X33149D1*
X46120Y37460D2*
Y36290D1*
X45535Y36875D2*
X46120D1*
X42000Y4130D2*
Y3500D1*
X42630D1*
X20500Y36380D2*
Y35120D1*
X19870Y35750D2*
X20500D1*
X39500Y36380D2*
Y35750D1*
X40130D1*
X10496Y30709D2*
Y29291D1*
Y30000D2*
X11205D1*
X5000Y32205D2*
Y30945D1*
X4370Y31575D2*
X5630D1*
X12436Y16185D2*
Y14403D1*
X11545Y15294D2*
X13327D1*
X12436Y7685D2*
Y5903D1*
X11545Y6794D2*
X13327D1*
X8186Y11935D2*
Y10153D1*
X7295Y11044D2*
X9077D1*
X16686Y11935D2*
Y10153D1*
X15795Y11044D2*
X17577D1*
X44961Y9744D2*
Y8288D1*
X44232Y9016D2*
X45689D1*
X52461Y9744D2*
Y8288D1*
X51732Y9016D2*
X53189D1*
X53691Y38691D2*
Y37352D1*
X53022Y38022D2*
X54360D1*
X33000Y6005D2*
Y5375D1*
X33630D1*
X5500Y37910D2*
Y37240D1*
X8500Y35740D2*
Y35070D1*
X30375Y13630D2*
Y12370D1*
Y13000D2*
X31005D1*
X40125Y13630D2*
Y13000D1*
X41125Y13630D2*
Y13000D1*
X42125Y13630D2*
Y13000D1*
X43125Y13630D2*
Y13000D1*
X43755D1*
X35125Y16000D2*
Y15370D1*
X50000Y16478D2*
Y15022D1*
D18*
X8000Y20875D3*
D19*
X10000D3*
D18*
X5500Y5375D3*
D19*
X3500D3*
D18*
X7250Y16625D3*
D19*
X5250D3*
D18*
X20250Y6625D3*
D19*
X22250D3*
D18*
X37625Y9750D3*
D19*
X35625D3*
D18*
X47375Y6250D3*
D19*
X45375D3*
D18*
X45875Y15750D3*
D19*
X46875D3*
D18*
X54250D3*
D19*
X52250D3*
D18*
X17630Y16000D3*
D19*
X19630D3*
D18*
X32500Y14000D3*
D19*
Y16000D3*
D20*
X12000Y20875D3*
D21*
Y16899D3*
D20*
X4000Y3250D3*
D21*
X7976D3*
D20*
X1625Y16625D3*
D21*
Y12649D3*
D20*
X22250Y10500D3*
D21*
X18274D3*
D20*
X35625Y7750D3*
D21*
X39601D3*
D20*
X45375Y4250D3*
D21*
X49351D3*
D22*
X47120Y36875D3*
D23*
X46120D3*
D22*
X47125Y33375D3*
D23*
X46125D3*
D20*
X18000Y3500D3*
D21*
Y2500D3*
X19000Y3500D3*
Y2500D3*
X20000Y3500D3*
Y2500D3*
X21000Y3500D3*
Y2500D3*
X22000Y3500D3*
Y2500D3*
X23000Y3500D3*
Y2500D3*
X24000Y3500D3*
Y2500D3*
X25000Y3500D3*
Y2500D3*
X26000Y3500D3*
Y2500D3*
X27000Y3500D3*
Y2500D3*
X28000Y3500D3*
Y2500D3*
X29000Y3500D3*
Y2500D3*
X30000Y3500D3*
Y2500D3*
X31000Y3500D3*
Y2500D3*
X32000Y3500D3*
Y2500D3*
X33000Y3500D3*
Y2500D3*
X34000Y3500D3*
Y2500D3*
X35000Y3500D3*
Y2500D3*
X36000Y3500D3*
Y2500D3*
X37000Y3500D3*
Y2500D3*
X38000Y3500D3*
Y2500D3*
X39000Y3500D3*
Y2500D3*
X40000Y3500D3*
Y2500D3*
X41000Y3500D3*
Y2500D3*
X42000Y3500D3*
Y2500D3*
D20*
X20500Y35750D3*
D21*
X21500D3*
X22500D3*
X23500D3*
X24500D3*
X25500D3*
X26500D3*
X27500D3*
X28500D3*
X29500D3*
X30500D3*
X31500D3*
X32500D3*
X33500D3*
X34500D3*
X35500D3*
X36500D3*
X37500D3*
X38500D3*
X39500D3*
D25*
X7504Y30000D3*
D26*
X10496D3*
G36*
X4947Y25920D2*
X4848Y26019D1*
X4652D1*
X4553Y25920D1*
Y25330D1*
X4652Y25231D1*
X4848D1*
X4947Y25330D1*
Y25920D1*
G37*
D27*
X4250Y25625D3*
X3750D3*
D28*
X15250Y13500D3*
D29*
Y17500D3*
D28*
X13875Y20875D3*
D29*
Y16875D3*
D28*
X15000Y1375D3*
D29*
X11000D3*
D28*
X4000D3*
D29*
X8000D3*
D28*
X1625Y7625D3*
D29*
Y11625D3*
D28*
X3500Y16625D3*
D29*
Y12625D3*
D28*
X20375Y12437D3*
D29*
X16375D3*
D28*
X22250Y8625D3*
D29*
X18250D3*
D28*
X43750Y2500D3*
D29*
Y6500D3*
D28*
X35625Y5875D3*
D29*
X39625D3*
D28*
X51000Y2375D3*
D29*
Y6375D3*
D28*
X45375Y2375D3*
D29*
X49375D3*
D28*
X48625Y33375D3*
D29*
X52625D3*
D28*
X48625Y36875D3*
D29*
X52625D3*
D28*
X1750Y19750D3*
D29*
Y23750D3*
D21*
X5000Y31575D3*
Y30000D3*
Y28425D3*
D30*
X1063Y31969D3*
Y28031D3*
G36*
X12993Y15294D2*
X12436Y14737D1*
X11879Y15294D1*
X12436Y15851D1*
X12993Y15294D1*
G37*
D30*
X8956Y11814D3*
X11044Y16686D3*
X7564Y13206D3*
G36*
X12993Y6794D2*
X12436Y6237D1*
X11879Y6794D1*
X12436Y7351D1*
X12993Y6794D1*
G37*
D30*
X8956Y3314D3*
X11044Y8186D3*
X7564Y4706D3*
G36*
X8743Y11044D2*
X8186Y10487D1*
X7629Y11044D1*
X8186Y11601D1*
X8743Y11044D1*
G37*
D30*
X4706Y7564D3*
X6794Y12436D3*
X3314Y8956D3*
G36*
X17243Y11044D2*
X16686Y10487D1*
X16129Y11044D1*
X16686Y11601D1*
X17243Y11044D1*
G37*
D30*
X13206Y7564D3*
X15294Y12436D3*
X11814Y8956D3*
D31*
X44961Y9016D3*
D30*
X40039D3*
X44961Y10984D3*
X40039D3*
D31*
X52461Y9016D3*
D30*
X47539D3*
X52461Y10984D3*
X47539D3*
D32*
X53691Y38022D3*
D33*
Y36250D3*
X56250D3*
Y38022D3*
D20*
X27000Y5375D3*
D21*
X28000D3*
X29000D3*
X30000D3*
X31000D3*
X32000D3*
X33000D3*
Y8375D3*
X32000D3*
X31000D3*
X30000D3*
X29000D3*
X28000D3*
X27000D3*
D34*
X9500Y37240D3*
X8500D3*
X7500D3*
X6500D3*
X5500D3*
X4500D3*
X9500Y35740D3*
X8500D3*
X7500D3*
X6500D3*
X5500D3*
X4500D3*
D20*
X21375Y13000D3*
D21*
X22375D3*
X23375D3*
X24375D3*
X25375D3*
X26375D3*
X27375D3*
X28375D3*
X29375D3*
X30375D3*
X21375Y16000D3*
X22375D3*
X23375D3*
X24375D3*
X25375D3*
X26375D3*
X27375D3*
X28375D3*
X29375D3*
X30375D3*
D20*
X34125Y13000D3*
D21*
X35125D3*
X36125D3*
X37125D3*
X38125D3*
X39125D3*
X40125D3*
X41125D3*
X42125D3*
X43125D3*
X34125Y16000D3*
X35125D3*
X36125D3*
X37125D3*
X38125D3*
X39125D3*
X40125D3*
X41125D3*
X42125D3*
X43125D3*
G36*
X49303Y15455D2*
X49402Y15356D1*
X49598D1*
X49697Y15455D1*
Y16045D1*
X49598Y16144D1*
X49402D1*
X49303Y16045D1*
Y15455D1*
G37*
D27*
X50000Y15750D3*
X50500D3*
M02*
