M48
INCH
T01C0.019
T02C0.0276
T03C0.028
T04C0.0354
T05C0.038
T06C0.0394
T07C0.042
T08C0.0433
T09C0.0472
T10C0.0551
T11C0.0709
T12C0.125
%
T01
X+034500Y+034000
X+035875Y+012125
X+037500Y+002000
X+037500Y+000875
X+028625Y+001250
X+012000Y+002750
X+010000Y+002750
X+001750Y+004750
X+051375Y+014875
X+055875Y+013875
X+056250Y+015750
T02
X+004750Y+025625
X+004250Y+025625
X+003750Y+025625
X+049500Y+015750
X+050000Y+015750
X+050500Y+015750
T03
X+047120Y+036875
X+046120Y+036875
X+046125Y+033375
X+047125Y+033375
T04
X+008000Y+020875
X+010000Y+020875
X+012000Y+020875
X+012000Y+016899
X+007250Y+016625
X+005250Y+016625
X+001625Y+016625
X+001625Y+012649
X+003500Y+005375
X+005500Y+005375
X+004000Y+003250
X+007976Y+003250
X+018000Y+003500
X+018000Y+002500
X+019000Y+002500
X+020000Y+002500
X+020000Y+003500
X+019000Y+003500
X+021000Y+003500
X+022000Y+003500
X+023000Y+003500
X+023000Y+002500
X+022000Y+002500
X+021000Y+002500
X+024000Y+002500
X+025000Y+002500
X+025000Y+003500
X+024000Y+003500
X+026000Y+003500
X+026000Y+002500
X+027000Y+002500
X+027000Y+003500
X+028000Y+003500
X+028000Y+002500
X+029000Y+002500
X+030000Y+002500
X+031000Y+002500
X+031000Y+003500
X+030000Y+003500
X+029000Y+003500
X+029000Y+005375
X+030000Y+005375
X+031000Y+005375
X+032000Y+005375
X+033000Y+005375
X+033000Y+003500
X+032000Y+003500
X+032000Y+002500
X+033000Y+002500
X+034000Y+002500
X+034000Y+003500
X+035000Y+003500
X+036000Y+003500
X+036000Y+002500
X+035000Y+002500
X+037000Y+002500
X+037000Y+003500
X+038000Y+003500
X+038000Y+002500
X+039000Y+002500
X+039000Y+003500
X+040000Y+003500
X+040000Y+002500
X+041000Y+002500
X+041000Y+003500
X+042000Y+003500
X+042000Y+002500
X+045375Y+004250
X+045375Y+006250
X+047375Y+006250
X+049351Y+004250
X+039601Y+007750
X+037625Y+009750
X+035625Y+009750
X+035625Y+007750
X+033000Y+008375
X+032000Y+008375
X+031000Y+008375
X+030000Y+008375
X+029000Y+008375
X+028000Y+008375
X+027000Y+008375
X+027000Y+005375
X+028000Y+005375
X+022250Y+006625
X+020250Y+006625
X+018274Y+010500
X+022250Y+010500
X+022375Y+013000
X+021375Y+013000
X+023375Y+013000
X+024375Y+013000
X+025375Y+013000
X+026375Y+013000
X+027375Y+013000
X+028375Y+013000
X+029375Y+013000
X+030375Y+013000
X+032500Y+014000
X+034125Y+013000
X+035125Y+013000
X+036125Y+013000
X+037125Y+013000
X+038125Y+013000
X+039125Y+013000
X+040125Y+013000
X+041125Y+013000
X+042125Y+013000
X+043125Y+013000
X+043125Y+016000
X+042125Y+016000
X+041125Y+016000
X+040125Y+016000
X+039125Y+016000
X+038125Y+016000
X+037125Y+016000
X+036125Y+016000
X+035125Y+016000
X+034125Y+016000
X+032500Y+016000
X+030375Y+016000
X+029375Y+016000
X+028375Y+016000
X+027375Y+016000
X+026375Y+016000
X+025375Y+016000
X+024375Y+016000
X+023375Y+016000
X+022375Y+016000
X+021375Y+016000
X+019630Y+016000
X+017630Y+016000
X+020500Y+035750
X+021500Y+035750
X+022500Y+035750
X+023500Y+035750
X+024500Y+035750
X+025500Y+035750
X+026500Y+035750
X+027500Y+035750
X+028500Y+035750
X+029500Y+035750
X+030500Y+035750
X+031500Y+035750
X+032500Y+035750
X+033500Y+035750
X+034500Y+035750
X+035500Y+035750
X+036500Y+035750
X+037500Y+035750
X+038500Y+035750
X+039500Y+035750
X+052250Y+015750
X+054250Y+015750
T05
X+015250Y+013500
X+016375Y+012437
X+020375Y+012437
X+022250Y+008625
X+018250Y+008625
X+015000Y+001375
X+011000Y+001375
X+008000Y+001375
X+004000Y+001375
X+001625Y+007625
X+001625Y+011625
X+003500Y+012625
X+003500Y+016625
X+001750Y+019750
X+001750Y+023750
X+013875Y+020875
X+015250Y+017500
X+013875Y+016875
X+035625Y+005875
X+039625Y+005875
X+043750Y+006500
X+043750Y+002500
X+045375Y+002375
X+049375Y+002375
X+051000Y+002375
X+051000Y+006375
X+052625Y+033375
X+052625Y+036875
X+048625Y+036875
X+048625Y+033375
T06
X+045875Y+015750
X+046875Y+015750
X+053691Y+036250
X+053691Y+038022
X+056250Y+038022
X+056250Y+036250
X+005000Y+031575
X+005000Y+030000
X+005000Y+028425
T07
X+009500Y+037240
X+008500Y+037240
X+007500Y+037240
X+006500Y+037240
X+005500Y+037240
X+004500Y+037240
X+004500Y+035740
X+005500Y+035740
X+006500Y+035740
X+007500Y+035740
X+008500Y+035740
X+009500Y+035740
T08
X+007504Y+030000
X+010496Y+030000
T09
X+012436Y+015294
X+011044Y+016686
X+007564Y+013206
X+006794Y+012436
X+008186Y+011044
X+008956Y+011814
X+011814Y+008956
X+011044Y+008186
X+012436Y+006794
X+013206Y+007564
X+016686Y+011044
X+015294Y+012436
X+007564Y+004706
X+008956Y+003314
X+004706Y+007564
X+003314Y+008956
X+040039Y+009016
X+040039Y+010984
X+044961Y+010984
X+044961Y+009016
X+047539Y+009016
X+047539Y+010984
X+052461Y+010984
X+052461Y+009016
T10
X+001063Y+031969
X+001063Y+028031
T11
X+011253Y+012997
X+012997Y+011253
X+015503Y+008747
X+011253Y+004497
X+008747Y+007003
X+007003Y+008747
X+004497Y+011253
X+008747Y+015503
X+042500Y+011772
X+042500Y+008228
X+050000Y+008228
X+050000Y+011772
T12
X+001500Y+038500
X+016870Y+036026
X+016870Y+017994
X+001500Y+001500
X+043130Y+017994
X+043130Y+036026
X+058500Y+038500
X+058500Y+001500
T00
M30
