G04 DipTrace 2.4.0.2*
%INTopCase.gbr*%
%MOIN*%
%ADD16C,0.0013*%
%ADD17C,0.0*%
%FSLAX44Y44*%
G04*
G70*
G90*
G75*
G01*
%LNTop Case*%
%LPD*%
X5375Y30000D2*
D16*
G02X5375Y30000I3625J0D01*
G01*
X10000Y17750D2*
D17*
X6500Y14250D1*
X10000Y10750D1*
X13500Y14250D1*
X10000Y17750D1*
X15990Y36910D2*
D16*
X44040D1*
Y17140D1*
X15990D1*
Y36910D1*
X870Y1502D2*
G02X870Y1502I633J0D01*
G01*
X57865Y1500D2*
X57867Y1544D1*
X57871Y1588D1*
X57879Y1631D1*
X57890Y1674D1*
X57903Y1715D1*
X57920Y1756D1*
X57939Y1796D1*
X57961Y1834D1*
X57986Y1870D1*
X58014Y1905D1*
X58043Y1938D1*
X58075Y1968D1*
X58109Y1996D1*
X58145Y2022D1*
X58182Y2046D1*
X58222Y2066D1*
X58262Y2084D1*
X58304Y2099D1*
X58346Y2111D1*
X58390Y2120D1*
X58434Y2127D1*
X58478Y2130D1*
X58522D1*
X58566Y2127D1*
X58610Y2120D1*
X58654Y2111D1*
X58696Y2099D1*
X58738Y2084D1*
X58778Y2066D1*
X58818Y2046D1*
X58855Y2022D1*
X58891Y1996D1*
X58925Y1968D1*
X58957Y1938D1*
X58986Y1905D1*
X59014Y1870D1*
X59039Y1834D1*
X59061Y1796D1*
X59080Y1756D1*
X59097Y1715D1*
X59110Y1674D1*
X59121Y1631D1*
X59129Y1588D1*
X59133Y1544D1*
X59135Y1500D1*
X59133Y1456D1*
X59129Y1412D1*
X59121Y1369D1*
X59110Y1326D1*
X59097Y1285D1*
X59080Y1244D1*
X59061Y1204D1*
X59039Y1166D1*
X59014Y1130D1*
X58986Y1095D1*
X58957Y1062D1*
X58925Y1032D1*
X58891Y1004D1*
X58855Y978D1*
X58818Y954D1*
X58778Y934D1*
X58738Y916D1*
X58696Y901D1*
X58654Y889D1*
X58610Y880D1*
X58566Y873D1*
X58522Y870D1*
X58478D1*
X58434Y873D1*
X58390Y880D1*
X58346Y889D1*
X58304Y901D1*
X58262Y916D1*
X58222Y934D1*
X58182Y954D1*
X58145Y978D1*
X58109Y1004D1*
X58075Y1032D1*
X58043Y1062D1*
X58014Y1095D1*
X57986Y1130D1*
X57961Y1166D1*
X57939Y1204D1*
X57920Y1244D1*
X57903Y1285D1*
X57890Y1326D1*
X57879Y1369D1*
X57871Y1412D1*
X57867Y1456D1*
X57865Y1500D1*
X57860Y38500D2*
X57862Y38544D1*
X57866Y38588D1*
X57874Y38632D1*
X57885Y38675D1*
X57899Y38717D1*
X57915Y38758D1*
X57935Y38798D1*
X57957Y38836D1*
X57982Y38873D1*
X58010Y38908D1*
X58040Y38941D1*
X58072Y38972D1*
X58106Y39000D1*
X58142Y39026D1*
X58180Y39050D1*
X58219Y39071D1*
X58260Y39089D1*
X58302Y39104D1*
X58345Y39116D1*
X58389Y39125D1*
X58433Y39132D1*
X58478Y39135D1*
X58522D1*
X58567Y39132D1*
X58611Y39125D1*
X58655Y39116D1*
X58698Y39104D1*
X58740Y39089D1*
X58781Y39071D1*
X58820Y39050D1*
X58858Y39026D1*
X58894Y39000D1*
X58928Y38972D1*
X58960Y38941D1*
X58990Y38908D1*
X59018Y38873D1*
X59043Y38836D1*
X59065Y38798D1*
X59085Y38758D1*
X59101Y38717D1*
X59115Y38675D1*
X59126Y38632D1*
X59134Y38588D1*
X59138Y38544D1*
X59140Y38500D1*
X59138Y38456D1*
X59134Y38412D1*
X59126Y38368D1*
X59115Y38325D1*
X59101Y38283D1*
X59085Y38242D1*
X59065Y38202D1*
X59043Y38164D1*
X59018Y38127D1*
X58990Y38092D1*
X58960Y38059D1*
X58928Y38028D1*
X58894Y38000D1*
X58858Y37974D1*
X58820Y37950D1*
X58781Y37929D1*
X58740Y37911D1*
X58698Y37896D1*
X58655Y37884D1*
X58611Y37875D1*
X58567Y37868D1*
X58522Y37865D1*
X58478D1*
X58433Y37868D1*
X58389Y37875D1*
X58345Y37884D1*
X58302Y37896D1*
X58260Y37911D1*
X58219Y37929D1*
X58180Y37950D1*
X58142Y37974D1*
X58106Y38000D1*
X58072Y38028D1*
X58040Y38059D1*
X58010Y38092D1*
X57982Y38127D1*
X57957Y38164D1*
X57935Y38202D1*
X57915Y38242D1*
X57899Y38283D1*
X57885Y38325D1*
X57874Y38368D1*
X57866Y38412D1*
X57862Y38456D1*
X57860Y38500D1*
X870D2*
X872Y38544D1*
X876Y38588D1*
X884Y38632D1*
X894Y38675D1*
X908Y38717D1*
X924Y38758D1*
X944Y38798D1*
X966Y38836D1*
X990Y38873D1*
X1017Y38908D1*
X1047Y38941D1*
X1078Y38972D1*
X1112Y39000D1*
X1148Y39026D1*
X1185Y39050D1*
X1224Y39071D1*
X1264Y39089D1*
X1305Y39104D1*
X1348Y39116D1*
X1391Y39125D1*
X1434Y39132D1*
X1478Y39135D1*
X1522D1*
X1566Y39132D1*
X1609Y39125D1*
X1652Y39116D1*
X1695Y39104D1*
X1736Y39089D1*
X1776Y39071D1*
X1815Y39050D1*
X1852Y39026D1*
X1888Y39000D1*
X1922Y38972D1*
X1953Y38941D1*
X1983Y38908D1*
X2010Y38873D1*
X2034Y38836D1*
X2056Y38798D1*
X2076Y38758D1*
X2092Y38717D1*
X2106Y38675D1*
X2116Y38632D1*
X2124Y38588D1*
X2128Y38544D1*
X2130Y38500D1*
X2128Y38456D1*
X2124Y38412D1*
X2116Y38368D1*
X2106Y38325D1*
X2092Y38283D1*
X2076Y38242D1*
X2056Y38202D1*
X2034Y38164D1*
X2010Y38127D1*
X1983Y38092D1*
X1953Y38059D1*
X1922Y38028D1*
X1888Y38000D1*
X1852Y37974D1*
X1815Y37950D1*
X1776Y37929D1*
X1736Y37911D1*
X1695Y37896D1*
X1652Y37884D1*
X1609Y37875D1*
X1566Y37868D1*
X1522Y37865D1*
X1478D1*
X1434Y37868D1*
X1391Y37875D1*
X1348Y37884D1*
X1305Y37896D1*
X1264Y37911D1*
X1224Y37929D1*
X1185Y37950D1*
X1148Y37974D1*
X1112Y38000D1*
X1078Y38028D1*
X1047Y38059D1*
X1017Y38092D1*
X990Y38127D1*
X966Y38164D1*
X944Y38202D1*
X924Y38242D1*
X908Y38283D1*
X894Y38325D1*
X884Y38368D1*
X876Y38412D1*
X872Y38456D1*
X870Y38500D1*
X45275Y36875D2*
G02X45275Y36875I1350J0D01*
G01*
X0Y40000D2*
X60000D1*
Y0D1*
X0D1*
Y40000D1*
X14250Y13500D2*
D17*
X10750Y10000D1*
X14250Y6500D1*
X17750Y10000D1*
X14250Y13500D1*
X10000Y9250D2*
X6500Y5750D1*
X10000Y2250D1*
X13500Y5750D1*
X10000Y9250D1*
X5750Y13500D2*
X2250Y10000D1*
X5750Y6500D1*
X9250Y10000D1*
X5750Y13500D1*
X40000Y12500D2*
D16*
X45000D1*
Y7500D1*
X40000D1*
Y12500D1*
X47500D2*
X52500D1*
Y7500D1*
X47500D1*
Y12500D1*
X45275Y33375D2*
G02X45275Y33375I1350J0D01*
G01*
X53250Y38500D2*
X56750D1*
Y35750D1*
X53250D1*
Y38500D1*
X44370Y15750D2*
G02X44370Y15750I2000J0D01*
G01*
M02*
