G04 DipTrace 2.4.0.2*
%INBottomMask.gbr*%
%MOIN*%
%ADD19R,0.063X0.063*%
%ADD30C,0.0787*%
%ADD31R,0.0787X0.0787*%
%ADD32R,0.0669X0.0669*%
%ADD34C,0.067*%
%ADD37C,0.125*%
%ADD38C,0.0709*%
%ADD50C,0.071*%
%ADD51C,0.0709*%
%ADD52R,0.0709X0.0709*%
%ADD53R,0.0827X0.0827*%
%ADD54C,0.0827*%
%ADD55C,0.064*%
%ADD56C,0.064*%
%ADD57O,0.0434X0.0827*%
%ADD58R,0.054X0.054*%
%ADD59C,0.054*%
%ADD60C,0.0631*%
%FSLAX44Y44*%
G04*
G70*
G90*
G75*
G01*
%LNBotMask*%
%LPD*%
D34*
X8000Y20875D3*
D32*
X10000D3*
D34*
X5500Y5375D3*
D32*
X3500D3*
D34*
X7250Y16625D3*
D32*
X5250D3*
D34*
X20250Y7125D3*
D32*
X22250D3*
D34*
X37625Y9750D3*
D32*
X35625D3*
D34*
X47375Y6250D3*
D32*
X45375D3*
D34*
X45875Y15750D3*
D32*
X46875D3*
D34*
X54250D3*
D32*
X52250D3*
D34*
X17875Y16875D3*
D32*
X19875D3*
D34*
X32500Y14875D3*
D32*
Y16875D3*
D19*
X12250Y20875D3*
D60*
Y16899D3*
D19*
X4125Y3250D3*
D60*
X8101D3*
D19*
X1625Y16625D3*
D60*
Y12649D3*
D19*
X22250Y11125D3*
D60*
X18274D3*
D19*
X35625Y7750D3*
D60*
X39601D3*
D19*
X45375Y4250D3*
D60*
X49351D3*
D59*
X47120Y36875D3*
D58*
X46120D3*
D59*
X47125Y33375D3*
D58*
X46125D3*
D37*
X1500Y38500D3*
Y1500D3*
X58500Y38500D3*
Y1500D3*
D19*
X18000Y3500D3*
D60*
Y2500D3*
X19000Y3500D3*
Y2500D3*
X20000Y3500D3*
Y2500D3*
X21000Y3500D3*
Y2500D3*
X22000Y3500D3*
Y2500D3*
X23000Y3500D3*
Y2500D3*
X24000Y3500D3*
Y2500D3*
X25000Y3500D3*
Y2500D3*
X26000Y3500D3*
Y2500D3*
X27000Y3500D3*
Y2500D3*
X28000Y3500D3*
Y2500D3*
X29000Y3500D3*
Y2500D3*
X30000Y3500D3*
Y2500D3*
X31000Y3500D3*
Y2500D3*
X32000Y3500D3*
Y2500D3*
X33000Y3500D3*
Y2500D3*
X34000Y3500D3*
Y2500D3*
X35000Y3500D3*
Y2500D3*
X36000Y3500D3*
Y2500D3*
X37000Y3500D3*
Y2500D3*
X38000Y3500D3*
Y2500D3*
X39000Y3500D3*
Y2500D3*
X40000Y3500D3*
Y2500D3*
X41000Y3500D3*
Y2500D3*
X42000Y3500D3*
Y2500D3*
D19*
X20500Y37000D3*
D60*
X21500D3*
X22500D3*
X23500D3*
X24500D3*
X25500D3*
X26500D3*
X27500D3*
X28500D3*
X29500D3*
X30500D3*
X31500D3*
X32500D3*
X33500D3*
X34500D3*
X35500D3*
X36500D3*
X37500D3*
X38500D3*
X39500D3*
D37*
X16870Y37276D3*
X43130D3*
X16870Y19244D3*
X43130D3*
D31*
X6504Y30000D3*
D30*
X9496D3*
G36*
X4967Y25554D2*
X4857Y25664D1*
X4643D1*
X4533Y25554D1*
Y24946D1*
X4643Y24836D1*
X4857D1*
X4967Y24946D1*
Y25554D1*
G37*
D57*
X4250Y25250D3*
X3750D3*
D56*
X19875Y14875D3*
D55*
X15875D3*
D56*
X14250Y20875D3*
D55*
Y16875D3*
D56*
X15000Y1375D3*
D55*
X11000D3*
D56*
X4125D3*
D55*
X8125D3*
D56*
X1625Y7625D3*
D55*
Y11625D3*
D56*
X3500Y16625D3*
D55*
Y12625D3*
D56*
X19875Y13000D3*
D55*
X15875D3*
D56*
X22250Y9125D3*
D55*
X18250D3*
D56*
X43750Y2500D3*
D55*
Y6500D3*
D56*
X35625Y5875D3*
D55*
X39625D3*
D56*
X51000Y2375D3*
D55*
Y6375D3*
D56*
X45375Y2375D3*
D55*
X49375D3*
D56*
X48625Y33375D3*
D55*
X52625D3*
D56*
X48625Y36875D3*
D55*
X52625D3*
D56*
X1625Y24500D3*
D55*
Y28500D3*
D60*
X5000Y23075D3*
Y21500D3*
Y19925D3*
D54*
X1063Y23469D3*
Y19531D3*
G36*
X11044Y11229D2*
X10459Y11814D1*
X11044Y12399D1*
X11629Y11814D1*
X11044Y11229D1*
G37*
D54*
X7564Y15294D3*
X12436Y13206D3*
X8956Y16686D3*
D38*
X8747Y12997D3*
X11253Y15503D3*
G36*
X11044Y2729D2*
X10459Y3314D1*
X11044Y3899D1*
X11629Y3314D1*
X11044Y2729D1*
G37*
D54*
X7564Y6794D3*
X12436Y4706D3*
X8956Y8186D3*
D38*
X8747Y4497D3*
X11253Y7003D3*
G36*
X6794Y6979D2*
X6209Y7564D1*
X6794Y8149D1*
X7379Y7564D1*
X6794Y6979D1*
G37*
D54*
X3314Y11044D3*
X8186Y8956D3*
X4706Y12436D3*
D38*
X4497Y8747D3*
X7003Y11253D3*
G36*
X15294Y6979D2*
X14709Y7564D1*
X15294Y8149D1*
X15879Y7564D1*
X15294Y6979D1*
G37*
D54*
X11814Y11044D3*
X16686Y8956D3*
X13206Y12436D3*
D38*
X12997Y8747D3*
X15503Y11253D3*
D53*
X41516Y7539D3*
D54*
Y12461D3*
X43484Y7539D3*
Y12461D3*
D38*
X40728Y10000D3*
X44272D3*
D53*
X49016Y7539D3*
D54*
Y12461D3*
X50984Y7539D3*
Y12461D3*
D38*
X48228Y10000D3*
X51772D3*
D52*
X53691Y38022D3*
D51*
Y36250D3*
X56250D3*
Y38022D3*
D19*
X27000Y5375D3*
D60*
X28000D3*
X29000D3*
X30000D3*
X31000D3*
X32000D3*
X33000D3*
Y8375D3*
X32000D3*
X31000D3*
X30000D3*
X29000D3*
X28000D3*
X27000D3*
D50*
X9500Y37240D3*
X8500D3*
X7500D3*
X6500D3*
X5500D3*
X4500D3*
X9500Y35740D3*
X8500D3*
X7500D3*
X6500D3*
X5500D3*
X4500D3*
D19*
X21375Y13875D3*
D60*
X22375D3*
X23375D3*
X24375D3*
X25375D3*
X26375D3*
X27375D3*
X28375D3*
X29375D3*
X30375D3*
X21375Y16875D3*
X22375D3*
X23375D3*
X24375D3*
X25375D3*
X26375D3*
X27375D3*
X28375D3*
X29375D3*
X30375D3*
D19*
X34125Y13875D3*
D60*
X35125D3*
X36125D3*
X37125D3*
X38125D3*
X39125D3*
X40125D3*
X41125D3*
X42125D3*
X43125D3*
X34125Y16875D3*
X35125D3*
X36125D3*
X37125D3*
X38125D3*
X39125D3*
X40125D3*
X41125D3*
X42125D3*
X43125D3*
G36*
X49283Y15446D2*
X49393Y15336D1*
X49607D1*
X49717Y15446D1*
Y16054D1*
X49607Y16164D1*
X49393D1*
X49283Y16054D1*
Y15446D1*
G37*
D57*
X50000Y15750D3*
X50500D3*
M02*
