G04 DipTrace 2.4.0.2*
%INBottom.gbr*%
%MOIN*%
%ADD13C,0.02*%
%ADD14C,0.013*%
%ADD15C,0.025*%
%ADD18C,0.063*%
%ADD19R,0.063X0.063*%
%ADD20R,0.0591X0.0591*%
%ADD21C,0.0591*%
%ADD22C,0.05*%
%ADD23R,0.05X0.05*%
%ADD25R,0.0748X0.0748*%
%ADD26C,0.0748*%
%ADD27O,0.0394X0.0787*%
%ADD28C,0.06*%
%ADD29C,0.06*%
%ADD30C,0.0787*%
%ADD31R,0.0787X0.0787*%
%ADD32R,0.0669X0.0669*%
%ADD33C,0.0669*%
%ADD34C,0.067*%
%ADD35C,0.04*%
%FSLAX44Y44*%
G04*
G70*
G90*
G75*
G01*
%LNBottom*%
%LPD*%
X30000Y8375D2*
D14*
Y8250D1*
X30500Y7750D1*
X35625D1*
X4250Y25250D2*
Y22250D1*
X5000Y21500D1*
X28000Y8375D2*
X29375Y7000D1*
X40000D1*
X42875Y4125D1*
X45250D1*
X45375Y4250D1*
X39000Y2500D2*
Y2625D1*
X38500Y3125D1*
Y3875D1*
X37750Y4625D1*
X31750D1*
X31500Y4875D1*
Y5500D1*
X31000Y6000D1*
X27875D1*
X27500Y5625D1*
Y5000D1*
X27250Y4750D1*
X15875D1*
X13500Y2375D1*
X6000D1*
X4125Y4250D1*
X3000D1*
X2625Y4625D1*
Y11250D1*
X3000Y11625D1*
Y15000D1*
X4000Y16000D1*
Y18925D1*
X5000Y19925D1*
X36125Y16875D2*
Y17625D1*
X37125Y18625D1*
X38875D1*
X41625Y21375D1*
Y33750D1*
X40000Y35375D1*
X35125D1*
X34875Y35125D1*
X34500D1*
X39125Y16875D2*
Y17750D1*
X42375Y21000D1*
Y34125D1*
X40375Y36125D1*
X26250D1*
X26000Y36375D1*
Y37250D1*
X25750Y37500D1*
X24000D1*
X23500Y37000D1*
X38125Y16875D2*
Y17625D1*
X38560Y18060D1*
X39060D1*
X42125Y21125D1*
Y34000D1*
X40250Y35875D1*
X25875D1*
X25500Y36250D1*
Y37000D1*
X40125Y16875D2*
Y18375D1*
X42625Y20875D1*
Y34250D1*
X40500Y36375D1*
X36125D1*
X35500Y37000D1*
X37125Y16875D2*
Y18000D1*
X37500Y18375D1*
X39000D1*
X41875Y21250D1*
Y33875D1*
X40125Y35625D1*
X25000D1*
X24500Y36125D1*
Y37000D1*
X35125Y13875D2*
Y14500D1*
X33375Y16250D1*
X23000D1*
X22375Y16875D1*
X29000Y5375D2*
X28125Y4500D1*
X16000D1*
X13625Y2125D1*
X5250D1*
X4125Y3250D1*
X28000Y2500D2*
Y1875D1*
X28625Y1250D1*
X3500Y16625D2*
Y15875D1*
X2750Y15125D1*
Y11750D1*
X2375Y11375D1*
Y3750D1*
X3625Y2500D1*
X4500D1*
X5125Y1875D1*
X13750D1*
X16125Y4250D1*
X29875D1*
X31000Y5375D1*
X35500Y12625D2*
X40125D1*
X40625Y13125D1*
X55125D1*
X55875Y13875D1*
X34000Y3500D2*
X33875D1*
X33500Y3125D1*
Y1250D1*
X33125Y875D1*
X3875D1*
X3375Y1375D1*
Y2375D1*
X2125Y3625D1*
Y11500D1*
X2500Y11875D1*
Y15250D1*
X3000Y15750D1*
Y26500D1*
X3875Y27375D1*
X6375D1*
X8250Y29250D1*
Y33625D1*
X7500Y34375D1*
Y35740D1*
X9500Y37240D2*
X8885Y36625D1*
X5385D1*
X4500Y35740D1*
X35000Y2500D2*
Y2000D1*
X33375Y375D1*
X3625D1*
X2875Y1125D1*
Y2125D1*
X625Y4375D1*
Y14500D1*
X2250Y16125D1*
Y26875D1*
X3500Y28125D1*
X6000D1*
X7500Y29625D1*
Y33250D1*
X6375Y34375D1*
X5125D1*
X4500Y35000D1*
Y35740D1*
X37000Y3500D2*
X37375D1*
X37875Y3000D1*
X38250D1*
X38500Y2750D1*
Y625D1*
X1375Y4875D2*
X1125Y5125D1*
Y14250D1*
X2750Y15875D1*
Y26625D1*
X3750Y27625D1*
X6250D1*
X8000Y29375D1*
Y33500D1*
X6500Y35000D1*
Y35740D1*
X5500D2*
X6135Y36375D1*
X9500D1*
X10125Y37000D1*
Y37500D1*
X9875Y37750D1*
X9010D1*
X8500Y37240D1*
X38000Y2500D2*
X37500Y3000D1*
X34750D1*
X34500Y2750D1*
Y1875D1*
X33250Y625D1*
X3750D1*
X3125Y1250D1*
Y2250D1*
X875Y4500D1*
Y14375D1*
X2500Y16000D1*
Y26750D1*
X3625Y27875D1*
X6125D1*
X7750Y29500D1*
Y33375D1*
X6477Y34648D1*
X5852D1*
X5500Y35000D1*
Y35740D1*
X21375Y16875D2*
D13*
Y18000D1*
X22375Y19000D1*
X38625D1*
X41250Y21625D1*
Y33500D1*
X40125Y34625D1*
X23000D1*
X21500Y36125D1*
Y37000D1*
X51375Y14875D2*
D14*
X55375D1*
X56250Y15750D1*
X32000Y8375D2*
X31875D1*
X31125Y9125D1*
X22250D1*
X1625Y28500D2*
X2000D1*
X3500Y30000D1*
X6504D1*
X27000Y5375D2*
X26375D1*
X26000Y5000D1*
X15750D1*
X13500Y2750D1*
X12000D1*
X10000D2*
X6000D1*
X4250Y4500D1*
X3125D1*
X2875Y4750D1*
Y9750D1*
X4000Y10875D1*
Y15625D1*
X4250Y15875D1*
Y17250D1*
X4750Y17750D1*
X10125D1*
X12250Y19875D1*
Y20875D1*
D35*
X34500Y35125D3*
X28625Y1250D3*
X35500Y12625D3*
X55875Y13875D3*
X38500Y625D3*
X1375Y4875D3*
X51375Y14875D3*
X56250Y15750D3*
X12000Y2750D3*
X10000D3*
X2254Y39126D2*
D15*
X57746D1*
X2406Y38878D2*
X57594D1*
X2476Y38629D2*
X52996D1*
X54386D2*
X55942D1*
X56558D2*
X57524D1*
X2476Y38380D2*
X52996D1*
X54386D2*
X55661D1*
X56839D2*
X57524D1*
X2410Y38132D2*
X8864D1*
X10019D2*
X16411D1*
X17328D2*
X42672D1*
X43589D2*
X52996D1*
X54386D2*
X55563D1*
X56937D2*
X57590D1*
X2261Y37883D2*
X4286D1*
X4714D2*
X5286D1*
X5714D2*
X6286D1*
X6714D2*
X7286D1*
X7714D2*
X8286D1*
X10332D2*
X16102D1*
X17640D2*
X23860D1*
X25890D2*
X42360D1*
X43898D2*
X52996D1*
X54386D2*
X55571D1*
X56929D2*
X57739D1*
X650Y37634D2*
X1059D1*
X1941D2*
X3934D1*
X10527D2*
X15954D1*
X17785D2*
X23543D1*
X26207D2*
X42215D1*
X44046D2*
X52996D1*
X54386D2*
X55680D1*
X56820D2*
X58059D1*
X58941D2*
X59352D1*
X650Y37385D2*
X3821D1*
X10550D2*
X15891D1*
X17847D2*
X19844D1*
X40023D2*
X42153D1*
X44109D2*
X45508D1*
X47429D2*
X48223D1*
X49027D2*
X52223D1*
X54386D2*
X56016D1*
X56484D2*
X59352D1*
X650Y37137D2*
X3813D1*
X10550D2*
X15895D1*
X17843D2*
X19844D1*
X40140D2*
X42157D1*
X44105D2*
X45508D1*
X47668D2*
X48020D1*
X49230D2*
X52020D1*
X53230D2*
X59352D1*
X650Y36888D2*
X3907D1*
X10535D2*
X15965D1*
X17773D2*
X19844D1*
X40144D2*
X42227D1*
X44035D2*
X45508D1*
X47730D2*
X47965D1*
X49285D2*
X51965D1*
X53285D2*
X53464D1*
X53918D2*
X56024D1*
X56476D2*
X59352D1*
X650Y36639D2*
X4180D1*
X10355D2*
X16125D1*
X17613D2*
X19844D1*
X40828D2*
X42387D1*
X43875D2*
X45508D1*
X47679D2*
X48012D1*
X49238D2*
X52012D1*
X54261D2*
X55680D1*
X56820D2*
X59352D1*
X650Y36391D2*
X4317D1*
X10105D2*
X16473D1*
X17265D2*
X19844D1*
X41074D2*
X42735D1*
X43527D2*
X45508D1*
X47472D2*
X48188D1*
X49062D2*
X52188D1*
X54371D2*
X55571D1*
X56929D2*
X59352D1*
X650Y36142D2*
X3938D1*
X10062D2*
X21039D1*
X41324D2*
X53004D1*
X54379D2*
X55563D1*
X56937D2*
X59352D1*
X650Y35893D2*
X3825D1*
X10175D2*
X21106D1*
X41574D2*
X53098D1*
X54281D2*
X55657D1*
X56843D2*
X59352D1*
X650Y35645D2*
X3813D1*
X10187D2*
X21340D1*
X41820D2*
X53379D1*
X54004D2*
X55938D1*
X56562D2*
X59352D1*
X650Y35396D2*
X3899D1*
X10101D2*
X21590D1*
X42070D2*
X59352D1*
X650Y35147D2*
X4075D1*
X7925D2*
X8164D1*
X8836D2*
X9164D1*
X9836D2*
X21836D1*
X42320D2*
X59352D1*
X650Y34899D2*
X4086D1*
X7925D2*
X22086D1*
X42566D2*
X59352D1*
X650Y34650D2*
X4258D1*
X7925D2*
X22336D1*
X42816D2*
X59352D1*
X650Y34401D2*
X4508D1*
X8066D2*
X19836D1*
X43019D2*
X59352D1*
X650Y34153D2*
X4758D1*
X8312D2*
X19579D1*
X43050D2*
X59352D1*
X650Y33904D2*
X6254D1*
X8562D2*
X19551D1*
X43050D2*
X45516D1*
X47398D2*
X48250D1*
X49000D2*
X52250D1*
X53000D2*
X59352D1*
X650Y33655D2*
X6504D1*
X8675D2*
X19551D1*
X43050D2*
X45516D1*
X47664D2*
X48032D1*
X49218D2*
X52032D1*
X53218D2*
X59352D1*
X650Y33406D2*
X6754D1*
X8675D2*
X19551D1*
X40449D2*
X40704D1*
X43050D2*
X45516D1*
X47734D2*
X47965D1*
X49285D2*
X51965D1*
X53285D2*
X59352D1*
X650Y33158D2*
X7000D1*
X8675D2*
X19551D1*
X40449D2*
X40789D1*
X43050D2*
X45516D1*
X47695D2*
X48004D1*
X49246D2*
X52004D1*
X53246D2*
X59352D1*
X650Y32909D2*
X7075D1*
X8675D2*
X19551D1*
X40449D2*
X40789D1*
X43050D2*
X45516D1*
X47504D2*
X48168D1*
X49082D2*
X52168D1*
X53082D2*
X59352D1*
X650Y32660D2*
X7075D1*
X8675D2*
X19551D1*
X40449D2*
X40789D1*
X43050D2*
X59352D1*
X650Y32412D2*
X7075D1*
X8675D2*
X19551D1*
X40449D2*
X40789D1*
X43050D2*
X59352D1*
X650Y32163D2*
X7075D1*
X8675D2*
X19551D1*
X40449D2*
X40789D1*
X43050D2*
X59352D1*
X650Y31914D2*
X7075D1*
X8675D2*
X19551D1*
X40449D2*
X40789D1*
X43050D2*
X59352D1*
X650Y31666D2*
X7075D1*
X8675D2*
X19551D1*
X40449D2*
X40789D1*
X43050D2*
X59352D1*
X650Y31417D2*
X7075D1*
X8675D2*
X19551D1*
X40449D2*
X40789D1*
X43050D2*
X59352D1*
X650Y31168D2*
X7075D1*
X8675D2*
X19551D1*
X40449D2*
X40789D1*
X43050D2*
X59352D1*
X650Y30920D2*
X7075D1*
X8675D2*
X19551D1*
X40449D2*
X40789D1*
X43050D2*
X59352D1*
X650Y30671D2*
X5770D1*
X8675D2*
X9243D1*
X9750D2*
X19551D1*
X40449D2*
X40789D1*
X43050D2*
X59352D1*
X650Y30422D2*
X5770D1*
X8675D2*
X8903D1*
X10089D2*
X19551D1*
X40449D2*
X40789D1*
X43050D2*
X59352D1*
X650Y30174D2*
X3082D1*
X10207D2*
X19551D1*
X40449D2*
X40789D1*
X43050D2*
X59352D1*
X650Y29925D2*
X2832D1*
X10226D2*
X19551D1*
X40449D2*
X40789D1*
X43050D2*
X59352D1*
X650Y29676D2*
X2586D1*
X8675D2*
X8839D1*
X10152D2*
X19551D1*
X40449D2*
X40789D1*
X43050D2*
X59352D1*
X650Y29427D2*
X2336D1*
X3519D2*
X5770D1*
X8675D2*
X9051D1*
X9941D2*
X19551D1*
X40449D2*
X40789D1*
X43050D2*
X59352D1*
X650Y29179D2*
X2090D1*
X3269D2*
X6465D1*
X8668D2*
X19551D1*
X40449D2*
X40789D1*
X43050D2*
X59352D1*
X650Y28930D2*
X1133D1*
X3019D2*
X6215D1*
X8519D2*
X19551D1*
X40449D2*
X40789D1*
X43050D2*
X59352D1*
X650Y28681D2*
X993D1*
X2773D2*
X5965D1*
X8273D2*
X19551D1*
X40449D2*
X40789D1*
X43050D2*
X59352D1*
X650Y28433D2*
X969D1*
X2523D2*
X3219D1*
X8023D2*
X19551D1*
X40449D2*
X40789D1*
X43050D2*
X59352D1*
X650Y28184D2*
X1051D1*
X2269D2*
X2969D1*
X7773D2*
X19551D1*
X40449D2*
X40789D1*
X43050D2*
X59352D1*
X650Y27935D2*
X1309D1*
X1941D2*
X2719D1*
X7527D2*
X19551D1*
X40449D2*
X40789D1*
X43050D2*
X59352D1*
X650Y27687D2*
X2473D1*
X7277D2*
X19551D1*
X40449D2*
X40789D1*
X43050D2*
X59352D1*
X650Y27438D2*
X2223D1*
X7027D2*
X19551D1*
X40449D2*
X40789D1*
X43050D2*
X59352D1*
X650Y27189D2*
X1973D1*
X6781D2*
X19551D1*
X40449D2*
X40789D1*
X43050D2*
X59352D1*
X650Y26941D2*
X1832D1*
X4031D2*
X19551D1*
X40449D2*
X40789D1*
X43050D2*
X59352D1*
X650Y26692D2*
X1825D1*
X3781D2*
X19551D1*
X40449D2*
X40789D1*
X43050D2*
X59352D1*
X650Y26443D2*
X1825D1*
X3535D2*
X19551D1*
X40449D2*
X40789D1*
X43050D2*
X59352D1*
X650Y26195D2*
X1825D1*
X3425D2*
X19551D1*
X40449D2*
X40789D1*
X43050D2*
X59352D1*
X650Y25946D2*
X1825D1*
X5019D2*
X19551D1*
X40449D2*
X40789D1*
X43050D2*
X59352D1*
X650Y25697D2*
X1825D1*
X5269D2*
X19551D1*
X40449D2*
X40789D1*
X43050D2*
X59352D1*
X650Y25448D2*
X1825D1*
X5308D2*
X19551D1*
X40449D2*
X40789D1*
X43050D2*
X59352D1*
X650Y25200D2*
X1825D1*
X5308D2*
X19551D1*
X40449D2*
X40789D1*
X43050D2*
X59352D1*
X650Y24951D2*
X1153D1*
X5308D2*
X19551D1*
X40449D2*
X40789D1*
X43050D2*
X59352D1*
X650Y24702D2*
X996D1*
X5195D2*
X19551D1*
X40449D2*
X40789D1*
X43050D2*
X59352D1*
X650Y24454D2*
X965D1*
X3425D2*
X3825D1*
X4675D2*
X19551D1*
X40449D2*
X40789D1*
X43050D2*
X59352D1*
X650Y24205D2*
X1039D1*
X3425D2*
X3825D1*
X4675D2*
X19551D1*
X40449D2*
X40789D1*
X43050D2*
X59352D1*
X3425Y23956D2*
X3825D1*
X4675D2*
X19551D1*
X40449D2*
X40789D1*
X43050D2*
X59352D1*
X3425Y23708D2*
X3825D1*
X4675D2*
X19551D1*
X40449D2*
X40789D1*
X43050D2*
X59352D1*
X3425Y23459D2*
X3825D1*
X5523D2*
X19551D1*
X40449D2*
X40789D1*
X43050D2*
X59352D1*
X3425Y23210D2*
X3825D1*
X5640D2*
X19551D1*
X40449D2*
X40789D1*
X43050D2*
X59352D1*
X3425Y22962D2*
X3825D1*
X5644D2*
X19551D1*
X40449D2*
X40789D1*
X43050D2*
X59352D1*
X3425Y22713D2*
X3825D1*
X5543D2*
X19551D1*
X40449D2*
X40789D1*
X43050D2*
X59352D1*
X3425Y22464D2*
X3825D1*
X4675D2*
X4818D1*
X5179D2*
X19551D1*
X40449D2*
X40789D1*
X43050D2*
X59352D1*
X3425Y22216D2*
X3829D1*
X4875D2*
X19551D1*
X40449D2*
X40789D1*
X43050D2*
X59352D1*
X3425Y21967D2*
X3942D1*
X5449D2*
X19551D1*
X40449D2*
X40789D1*
X43050D2*
X59352D1*
X3425Y21718D2*
X4192D1*
X5617D2*
X19657D1*
X40343D2*
X40704D1*
X43050D2*
X59352D1*
X3425Y21469D2*
X4344D1*
X5656D2*
X7711D1*
X8289D2*
X9325D1*
X10675D2*
X11594D1*
X12906D2*
X14000D1*
X14500D2*
X40454D1*
X43050D2*
X59352D1*
X3425Y21221D2*
X4411D1*
X5589D2*
X7426D1*
X8574D2*
X9325D1*
X10675D2*
X11594D1*
X12906D2*
X13692D1*
X14808D2*
X40207D1*
X43050D2*
X59352D1*
X3425Y20972D2*
X4629D1*
X5371D2*
X7332D1*
X8668D2*
X9325D1*
X10675D2*
X11594D1*
X12906D2*
X13598D1*
X14902D2*
X39957D1*
X43050D2*
X59352D1*
X3425Y20723D2*
X7344D1*
X8656D2*
X9325D1*
X10675D2*
X11594D1*
X12906D2*
X13610D1*
X14890D2*
X39707D1*
X43019D2*
X59352D1*
X3425Y20475D2*
X4668D1*
X5332D2*
X7461D1*
X8539D2*
X9325D1*
X10675D2*
X11594D1*
X12906D2*
X13731D1*
X14769D2*
X39461D1*
X42816D2*
X59352D1*
X3425Y20226D2*
X4422D1*
X5578D2*
X7942D1*
X8059D2*
X9325D1*
X10675D2*
X11825D1*
X12675D2*
X39211D1*
X42566D2*
X59352D1*
X3425Y19977D2*
X4348D1*
X5652D2*
X11762D1*
X12675D2*
X16227D1*
X17515D2*
X38961D1*
X42316D2*
X42485D1*
X43773D2*
X59352D1*
X3425Y19729D2*
X4211D1*
X5625D2*
X11512D1*
X12648D2*
X16016D1*
X17722D2*
X38715D1*
X42070D2*
X42278D1*
X43984D2*
X59352D1*
X3425Y19480D2*
X3965D1*
X5472D2*
X11266D1*
X12445D2*
X15914D1*
X17824D2*
X38465D1*
X41820D2*
X42176D1*
X44086D2*
X59352D1*
X3425Y19231D2*
X3715D1*
X4898D2*
X11016D1*
X12195D2*
X15887D1*
X17855D2*
X21965D1*
X41570D2*
X42145D1*
X44113D2*
X59352D1*
X3425Y18983D2*
X3582D1*
X4648D2*
X10766D1*
X11949D2*
X15922D1*
X17820D2*
X21719D1*
X41324D2*
X42180D1*
X44078D2*
X59352D1*
X3425Y18734D2*
X3575D1*
X4425D2*
X10520D1*
X11699D2*
X16032D1*
X17707D2*
X21469D1*
X41074D2*
X42293D1*
X43968D2*
X59352D1*
X3425Y18485D2*
X3575D1*
X4425D2*
X10270D1*
X11449D2*
X16258D1*
X17484D2*
X21219D1*
X40824D2*
X42516D1*
X43742D2*
X59352D1*
X3425Y18237D2*
X3575D1*
X4425D2*
X10020D1*
X11203D2*
X20985D1*
X40578D2*
X59352D1*
X3425Y17988D2*
X3575D1*
X10953D2*
X20914D1*
X40550D2*
X59352D1*
X3425Y17739D2*
X3575D1*
X10703D2*
X20914D1*
X40550D2*
X59352D1*
X3425Y17490D2*
X3575D1*
X10457D2*
X12008D1*
X12492D2*
X14071D1*
X14429D2*
X17641D1*
X18109D2*
X19200D1*
X20550D2*
X20914D1*
X40550D2*
X40965D1*
X41285D2*
X41965D1*
X42285D2*
X42965D1*
X43285D2*
X59352D1*
X5925Y17242D2*
X7020D1*
X7480D2*
X8461D1*
X9453D2*
X11696D1*
X12804D2*
X13707D1*
X14793D2*
X17313D1*
X18437D2*
X19200D1*
X20550D2*
X20836D1*
X43664D2*
X59352D1*
X5925Y16993D2*
X6688D1*
X7812D2*
X8270D1*
X9640D2*
X11602D1*
X12898D2*
X13602D1*
X14898D2*
X17211D1*
X18539D2*
X19200D1*
X20550D2*
X20731D1*
X43769D2*
X59352D1*
X5925Y16744D2*
X6586D1*
X7914D2*
X8204D1*
X9707D2*
X11614D1*
X12886D2*
X13602D1*
X14898D2*
X17215D1*
X18535D2*
X19200D1*
X20550D2*
X20735D1*
X43765D2*
X59352D1*
X5925Y16496D2*
X6586D1*
X7914D2*
X8227D1*
X9683D2*
X11739D1*
X12761D2*
X13715D1*
X14785D2*
X17321D1*
X18429D2*
X19200D1*
X20550D2*
X20848D1*
X43652D2*
X59352D1*
X5925Y16247D2*
X6696D1*
X7804D2*
X8348D1*
X9562D2*
X14133D1*
X14370D2*
X17684D1*
X18066D2*
X19200D1*
X20550D2*
X21297D1*
X21450D2*
X22297D1*
X34205D2*
X35047D1*
X35200D2*
X36047D1*
X36200D2*
X37047D1*
X37200D2*
X38047D1*
X38200D2*
X39047D1*
X39200D2*
X40047D1*
X40200D2*
X41047D1*
X41200D2*
X42047D1*
X42200D2*
X43047D1*
X43200D2*
X45430D1*
X47550D2*
X49012D1*
X50964D2*
X51575D1*
X52925D2*
X53805D1*
X54695D2*
X56028D1*
X56472D2*
X59352D1*
X5925Y15998D2*
X7051D1*
X7777D2*
X8692D1*
X9222D2*
X10750D1*
X11757D2*
X22661D1*
X34218D2*
X45250D1*
X47550D2*
X48942D1*
X51054D2*
X51575D1*
X52925D2*
X53625D1*
X54875D2*
X55750D1*
X56750D2*
X59352D1*
X4656Y15750D2*
X6969D1*
X8156D2*
X10582D1*
X11921D2*
X33286D1*
X34464D2*
X45200D1*
X47550D2*
X48942D1*
X51058D2*
X51575D1*
X52925D2*
X53575D1*
X54925D2*
X55661D1*
X56808D2*
X59352D1*
X4468Y15501D2*
X6840D1*
X8289D2*
X10539D1*
X11968D2*
X15743D1*
X16007D2*
X19743D1*
X20007D2*
X32301D1*
X32699D2*
X33532D1*
X34714D2*
X45250D1*
X47550D2*
X48942D1*
X51054D2*
X51575D1*
X52925D2*
X53625D1*
X54875D2*
X55411D1*
X56750D2*
X59352D1*
X4425Y15252D2*
X6813D1*
X8316D2*
X10586D1*
X11921D2*
X15340D1*
X16410D2*
X19340D1*
X20410D2*
X31946D1*
X33054D2*
X33782D1*
X34964D2*
X45434D1*
X47550D2*
X49012D1*
X56472D2*
X59352D1*
X4425Y15004D2*
X6871D1*
X8257D2*
X10754D1*
X11754D2*
X15227D1*
X16523D2*
X19227D1*
X20523D2*
X31836D1*
X33164D2*
X34032D1*
X35211D2*
X50832D1*
X56093D2*
X59352D1*
X4425Y14755D2*
X7047D1*
X8078D2*
X15227D1*
X16523D2*
X19227D1*
X20523D2*
X31836D1*
X33164D2*
X34278D1*
X35457D2*
X50829D1*
X55847D2*
X59352D1*
X4425Y14506D2*
X15332D1*
X16418D2*
X19332D1*
X20418D2*
X31942D1*
X33058D2*
X34528D1*
X35550D2*
X50961D1*
X55554D2*
X59352D1*
X4425Y14258D2*
X15704D1*
X16046D2*
X19704D1*
X20046D2*
X20719D1*
X30902D2*
X32274D1*
X32726D2*
X33469D1*
X43652D2*
X55477D1*
X56273D2*
X59352D1*
X4425Y14009D2*
X20719D1*
X31015D2*
X33469D1*
X43765D2*
X55332D1*
X56418D2*
X59352D1*
X4425Y13760D2*
X11938D1*
X12933D2*
X20719D1*
X31019D2*
X33469D1*
X43769D2*
X55168D1*
X56421D2*
X59352D1*
X4425Y13511D2*
X8262D1*
X9230D2*
X11750D1*
X13121D2*
X15473D1*
X16277D2*
X19473D1*
X20277D2*
X20719D1*
X30914D2*
X33469D1*
X56293D2*
X59352D1*
X4425Y13263D2*
X8086D1*
X9410D2*
X11684D1*
X13187D2*
X15274D1*
X16476D2*
X19274D1*
X20476D2*
X20719D1*
X22031D2*
X22198D1*
X22550D2*
X23200D1*
X23550D2*
X24200D1*
X24550D2*
X25200D1*
X25550D2*
X26200D1*
X26550D2*
X27200D1*
X27550D2*
X28200D1*
X28550D2*
X29200D1*
X29550D2*
X30200D1*
X30550D2*
X33469D1*
X34781D2*
X34948D1*
X35300D2*
X35950D1*
X36300D2*
X36950D1*
X37300D2*
X37950D1*
X38300D2*
X38950D1*
X39300D2*
X39950D1*
X55855D2*
X59352D1*
X5175Y13014D2*
X8032D1*
X9461D2*
X11707D1*
X13675D2*
X15215D1*
X16535D2*
X19215D1*
X20535D2*
X35110D1*
X55605D2*
X59352D1*
X5382Y12765D2*
X8075D1*
X9421D2*
X11832D1*
X13882D2*
X15258D1*
X16492D2*
X19258D1*
X20492D2*
X34957D1*
X55324D2*
X59352D1*
X5457Y12517D2*
X8227D1*
X9265D2*
X10692D1*
X11398D2*
X12176D1*
X13957D2*
X15438D1*
X16312D2*
X19438D1*
X20312D2*
X34950D1*
X40609D2*
X40766D1*
X42265D2*
X42735D1*
X44234D2*
X48266D1*
X49765D2*
X50235D1*
X51734D2*
X59352D1*
X5441Y12268D2*
X10442D1*
X11644D2*
X12473D1*
X13941D2*
X35079D1*
X40332D2*
X40789D1*
X42242D2*
X42758D1*
X44211D2*
X48289D1*
X49742D2*
X50258D1*
X51711D2*
X59352D1*
X5328Y12019D2*
X10196D1*
X11890D2*
X12582D1*
X13828D2*
X40911D1*
X42121D2*
X42879D1*
X44089D2*
X48411D1*
X49621D2*
X50379D1*
X51589D2*
X59352D1*
X5027Y11771D2*
X6524D1*
X7484D2*
X10129D1*
X11957D2*
X12883D1*
X13527D2*
X15024D1*
X15984D2*
X41258D1*
X41773D2*
X43227D1*
X43742D2*
X48758D1*
X49273D2*
X50727D1*
X51242D2*
X59352D1*
X4425Y11522D2*
X6344D1*
X7664D2*
X10282D1*
X12390D2*
X14844D1*
X16164D2*
X17758D1*
X18789D2*
X21594D1*
X22906D2*
X59352D1*
X4425Y11273D2*
X6289D1*
X7718D2*
X10528D1*
X12531D2*
X14789D1*
X16218D2*
X17637D1*
X18910D2*
X21594D1*
X22906D2*
X59352D1*
X4425Y11025D2*
X6329D1*
X7679D2*
X10778D1*
X12566D2*
X14829D1*
X16179D2*
X17625D1*
X18921D2*
X21594D1*
X22906D2*
X59352D1*
X4414Y10776D2*
X6481D1*
X7527D2*
X11110D1*
X12515D2*
X14981D1*
X16027D2*
X17723D1*
X18824D2*
X21594D1*
X22906D2*
X59352D1*
X4242Y10527D2*
X11274D1*
X12351D2*
X18051D1*
X18500D2*
X21594D1*
X22906D2*
X40258D1*
X41199D2*
X43801D1*
X44742D2*
X47758D1*
X48699D2*
X51301D1*
X52242D2*
X59352D1*
X3996Y10279D2*
X34950D1*
X36300D2*
X37223D1*
X38027D2*
X40075D1*
X41382D2*
X43618D1*
X44925D2*
X47575D1*
X48882D2*
X51118D1*
X52425D2*
X59352D1*
X3746Y10030D2*
X34950D1*
X36300D2*
X37012D1*
X38238D2*
X40016D1*
X41441D2*
X43559D1*
X44984D2*
X47516D1*
X48941D2*
X51059D1*
X52484D2*
X59352D1*
X3496Y9781D2*
X34950D1*
X36300D2*
X36950D1*
X38300D2*
X40051D1*
X41406D2*
X43594D1*
X44949D2*
X47551D1*
X48906D2*
X51094D1*
X52449D2*
X59352D1*
X3300Y9532D2*
X7715D1*
X8656D2*
X16215D1*
X17156D2*
X17739D1*
X18761D2*
X21739D1*
X22761D2*
X34950D1*
X36300D2*
X36989D1*
X38261D2*
X40196D1*
X41261D2*
X43739D1*
X44804D2*
X47696D1*
X48761D2*
X51239D1*
X52304D2*
X59352D1*
X3300Y9284D2*
X4039D1*
X4957D2*
X7512D1*
X8863D2*
X12539D1*
X13457D2*
X16012D1*
X17363D2*
X17610D1*
X18890D2*
X21610D1*
X31558D2*
X34950D1*
X36300D2*
X37149D1*
X38101D2*
X59352D1*
X3300Y9035D2*
X3844D1*
X5148D2*
X7438D1*
X8937D2*
X12344D1*
X13648D2*
X15938D1*
X17437D2*
X17597D1*
X18902D2*
X21598D1*
X31804D2*
X59352D1*
X3300Y8786D2*
X3786D1*
X5211D2*
X7454D1*
X9394D2*
X12286D1*
X13711D2*
X15954D1*
X17418D2*
X17688D1*
X18812D2*
X21688D1*
X33504D2*
X59352D1*
X3300Y8538D2*
X3817D1*
X5179D2*
X7563D1*
X9621D2*
X12317D1*
X13679D2*
X16063D1*
X17308D2*
X17985D1*
X18515D2*
X21985D1*
X22515D2*
X26368D1*
X33632D2*
X59352D1*
X3300Y8289D2*
X3957D1*
X5039D2*
X6465D1*
X7125D2*
X7868D1*
X9703D2*
X12457D1*
X13539D2*
X14965D1*
X15625D2*
X16368D1*
X17004D2*
X26352D1*
X33648D2*
X34969D1*
X36281D2*
X39250D1*
X39953D2*
X59352D1*
X3300Y8040D2*
X6215D1*
X7375D2*
X8215D1*
X9695D2*
X14715D1*
X15875D2*
X26442D1*
X36281D2*
X39016D1*
X40187D2*
X40762D1*
X42269D2*
X42930D1*
X44039D2*
X48262D1*
X49769D2*
X50430D1*
X51539D2*
X59352D1*
X3300Y7792D2*
X5965D1*
X7621D2*
X8317D1*
X9593D2*
X14465D1*
X16121D2*
X26735D1*
X27265D2*
X27735D1*
X36281D2*
X38946D1*
X40254D2*
X40762D1*
X42269D2*
X42774D1*
X44191D2*
X48262D1*
X49769D2*
X50274D1*
X51691D2*
X59352D1*
X3300Y7543D2*
X5879D1*
X7711D2*
X8590D1*
X9324D2*
X10801D1*
X11707D2*
X14379D1*
X16211D2*
X19727D1*
X20773D2*
X21575D1*
X22925D2*
X28243D1*
X36281D2*
X38981D1*
X40222D2*
X40762D1*
X42269D2*
X42731D1*
X44238D2*
X48262D1*
X49769D2*
X50231D1*
X51738D2*
X59352D1*
X3300Y7294D2*
X6008D1*
X8117D2*
X10602D1*
X11902D2*
X14508D1*
X16078D2*
X19598D1*
X20902D2*
X21575D1*
X22925D2*
X28489D1*
X40296D2*
X40762D1*
X42269D2*
X42774D1*
X44195D2*
X48262D1*
X49769D2*
X50274D1*
X51695D2*
X59352D1*
X3300Y7046D2*
X6258D1*
X8273D2*
X10539D1*
X11964D2*
X14758D1*
X15832D2*
X19579D1*
X20921D2*
X21575D1*
X22925D2*
X28739D1*
X40546D2*
X40762D1*
X42269D2*
X42922D1*
X44101D2*
X48262D1*
X49769D2*
X50422D1*
X51546D2*
X59352D1*
X3300Y6797D2*
X6504D1*
X8316D2*
X10571D1*
X11937D2*
X15004D1*
X15582D2*
X19664D1*
X20836D2*
X21575D1*
X22925D2*
X28989D1*
X40793D2*
X43164D1*
X44336D2*
X44700D1*
X46050D2*
X47000D1*
X47750D2*
X50500D1*
X51500D2*
X59352D1*
X3300Y6548D2*
X6852D1*
X8273D2*
X10711D1*
X11796D2*
X19926D1*
X20574D2*
X21575D1*
X22925D2*
X39860D1*
X41043D2*
X43090D1*
X44410D2*
X44700D1*
X46050D2*
X46774D1*
X47976D2*
X50364D1*
X51636D2*
X59352D1*
X3300Y6300D2*
X7004D1*
X8125D2*
X27586D1*
X31289D2*
X35129D1*
X36121D2*
X39129D1*
X41293D2*
X43121D1*
X44379D2*
X44700D1*
X46050D2*
X46704D1*
X48046D2*
X50344D1*
X51656D2*
X59352D1*
X3300Y6051D2*
X27336D1*
X31539D2*
X34989D1*
X36261D2*
X38989D1*
X41539D2*
X43278D1*
X44222D2*
X44700D1*
X46050D2*
X46731D1*
X48019D2*
X50430D1*
X51570D2*
X59352D1*
X4175Y5802D2*
X4985D1*
X6015D2*
X26344D1*
X33488D2*
X34969D1*
X36281D2*
X38969D1*
X40281D2*
X40606D1*
X41789D2*
X44700D1*
X46050D2*
X46879D1*
X47871D2*
X50700D1*
X51300D2*
X59352D1*
X4175Y5553D2*
X4852D1*
X6148D2*
X25961D1*
X33629D2*
X35051D1*
X36199D2*
X39051D1*
X40199D2*
X40856D1*
X42039D2*
X59352D1*
X4175Y5305D2*
X4829D1*
X6171D2*
X11996D1*
X12875D2*
X15465D1*
X33652D2*
X35321D1*
X35929D2*
X39321D1*
X39929D2*
X41106D1*
X42285D2*
X59352D1*
X4175Y5056D2*
X4911D1*
X6089D2*
X8321D1*
X9175D2*
X11774D1*
X13101D2*
X15215D1*
X33570D2*
X41352D1*
X42535D2*
X59352D1*
X4531Y4807D2*
X5157D1*
X5843D2*
X8106D1*
X9386D2*
X11688D1*
X13183D2*
X14965D1*
X38160D2*
X41602D1*
X42785D2*
X44719D1*
X46031D2*
X49032D1*
X49671D2*
X59352D1*
X4781Y4559D2*
X8036D1*
X9461D2*
X11696D1*
X13175D2*
X14719D1*
X38406D2*
X41852D1*
X43031D2*
X44719D1*
X46031D2*
X48778D1*
X49925D2*
X59352D1*
X5031Y4310D2*
X8059D1*
X9437D2*
X11801D1*
X13074D2*
X14469D1*
X38656D2*
X42098D1*
X46031D2*
X48700D1*
X50004D2*
X59352D1*
X5281Y4061D2*
X8188D1*
X9304D2*
X10735D1*
X11351D2*
X12071D1*
X12800D2*
X14219D1*
X39312D2*
X39688D1*
X40312D2*
X40688D1*
X41312D2*
X41688D1*
X46031D2*
X48727D1*
X49976D2*
X59352D1*
X5527Y3813D2*
X7793D1*
X8410D2*
X8641D1*
X8851D2*
X10489D1*
X11601D2*
X13973D1*
X46031D2*
X48871D1*
X49832D2*
X59352D1*
X5777Y3564D2*
X7532D1*
X8671D2*
X10239D1*
X11851D2*
X13723D1*
X42652D2*
X59352D1*
X6027Y3315D2*
X7450D1*
X8754D2*
X10125D1*
X11961D2*
X13473D1*
X42629D2*
X59352D1*
X42484Y3067D2*
X43438D1*
X44062D2*
X59352D1*
X42570Y2818D2*
X43176D1*
X44324D2*
X44895D1*
X45855D2*
X48895D1*
X49855D2*
X50520D1*
X51480D2*
X59352D1*
X42652Y2569D2*
X43094D1*
X44406D2*
X44746D1*
X46004D2*
X48746D1*
X50004D2*
X50371D1*
X51629D2*
X59352D1*
X42629Y2321D2*
X43118D1*
X44382D2*
X44719D1*
X46031D2*
X48719D1*
X50031D2*
X50344D1*
X51656D2*
X57977D1*
X59023D2*
X59352D1*
X42488Y2072D2*
X43254D1*
X44246D2*
X44793D1*
X45957D2*
X48793D1*
X49957D2*
X50418D1*
X51582D2*
X57704D1*
X38925Y1823D2*
X45036D1*
X45714D2*
X49036D1*
X49714D2*
X50661D1*
X51339D2*
X57571D1*
X38925Y1574D2*
X57520D1*
X38925Y1326D2*
X57532D1*
X38925Y1077D2*
X57614D1*
X39019Y828D2*
X57789D1*
X8649Y20850D2*
X8633Y20726D1*
X8593Y20608D1*
X8531Y20500D1*
X8449Y20405D1*
X8351Y20328D1*
X8240Y20271D1*
X8120Y20236D1*
X7996Y20225D1*
X7872Y20238D1*
X7752Y20274D1*
X7642Y20332D1*
X7545Y20411D1*
X7465Y20506D1*
X7404Y20616D1*
X7365Y20734D1*
X7350Y20858D1*
X7359Y20983D1*
X7391Y21103D1*
X7446Y21215D1*
X7521Y21315D1*
X7614Y21398D1*
X7721Y21462D1*
X7839Y21505D1*
X7962Y21524D1*
X8087Y21519D1*
X8208Y21491D1*
X8322Y21439D1*
X8424Y21367D1*
X8510Y21277D1*
X8578Y21172D1*
X8624Y21056D1*
X8647Y20934D1*
X8649Y20850D1*
X9475Y21525D2*
X10650D1*
Y20225D1*
X9350D1*
Y21525D1*
X9475D1*
X6149Y5350D2*
X6133Y5226D1*
X6093Y5108D1*
X6031Y5000D1*
X5949Y4905D1*
X5851Y4828D1*
X5740Y4771D1*
X5620Y4736D1*
X5496Y4725D1*
X5372Y4738D1*
X5252Y4774D1*
X5142Y4832D1*
X5045Y4911D1*
X4965Y5006D1*
X4904Y5116D1*
X4865Y5234D1*
X4850Y5358D1*
X4859Y5483D1*
X4891Y5603D1*
X4946Y5715D1*
X5021Y5815D1*
X5114Y5898D1*
X5221Y5962D1*
X5339Y6005D1*
X5462Y6024D1*
X5587Y6019D1*
X5708Y5991D1*
X5822Y5939D1*
X5924Y5867D1*
X6010Y5777D1*
X6078Y5672D1*
X6124Y5556D1*
X6147Y5434D1*
X6149Y5350D1*
X7899Y16600D2*
X7883Y16476D1*
X7843Y16358D1*
X7781Y16250D1*
X7699Y16155D1*
X7601Y16078D1*
X7482Y16018D1*
X7630Y16020D1*
X7753Y15998D1*
X7870Y15955D1*
X7979Y15893D1*
X8075Y15814D1*
X8156Y15719D1*
X8220Y15612D1*
X8265Y15495D1*
X8289Y15372D1*
X8293Y15294D1*
X8282Y15170D1*
X8250Y15049D1*
X8198Y14935D1*
X8128Y14832D1*
X8041Y14743D1*
X7940Y14670D1*
X7828Y14615D1*
X7708Y14580D1*
X7584Y14566D1*
X7459Y14573D1*
X7338Y14601D1*
X7223Y14650D1*
X7118Y14718D1*
X7026Y14803D1*
X6950Y14902D1*
X6892Y15012D1*
X6854Y15131D1*
X6836Y15255D1*
X6840Y15379D1*
X6866Y15502D1*
X6911Y15618D1*
X6976Y15725D1*
X7058Y15819D1*
X7155Y15897D1*
X7264Y15958D1*
X7327Y15980D1*
X7196Y15977D1*
X7073Y16000D1*
X6957Y16045D1*
X6851Y16112D1*
X6761Y16197D1*
X6688Y16299D1*
X6636Y16412D1*
X6607Y16533D1*
X6601Y16658D1*
X6619Y16782D1*
X6661Y16899D1*
X6724Y17007D1*
X6807Y17100D1*
X6906Y17176D1*
X7017Y17232D1*
X7138Y17265D1*
X7262Y17275D1*
X7386Y17261D1*
X7505Y17223D1*
X7615Y17163D1*
X7711Y17083D1*
X7790Y16987D1*
X7849Y16877D1*
X7886Y16758D1*
X7900Y16625D1*
X7899Y16600D1*
X20899Y7100D2*
X20883Y6976D1*
X20843Y6858D1*
X20781Y6750D1*
X20699Y6655D1*
X20601Y6578D1*
X20490Y6521D1*
X20370Y6486D1*
X20246Y6475D1*
X20122Y6488D1*
X20002Y6524D1*
X19892Y6582D1*
X19795Y6661D1*
X19715Y6756D1*
X19654Y6866D1*
X19615Y6984D1*
X19600Y7108D1*
X19609Y7233D1*
X19641Y7353D1*
X19696Y7465D1*
X19771Y7565D1*
X19864Y7648D1*
X19971Y7712D1*
X20089Y7755D1*
X20212Y7774D1*
X20337Y7769D1*
X20458Y7741D1*
X20572Y7689D1*
X20674Y7617D1*
X20760Y7527D1*
X20828Y7422D1*
X20874Y7306D1*
X20897Y7184D1*
X20899Y7100D1*
X21725Y7775D2*
X22900D1*
Y6475D1*
X21600D1*
Y7775D1*
X21725D1*
X38274Y9725D2*
X38258Y9601D1*
X38218Y9483D1*
X38156Y9375D1*
X38074Y9280D1*
X37976Y9203D1*
X37865Y9146D1*
X37745Y9111D1*
X37621Y9100D1*
X37497Y9113D1*
X37377Y9149D1*
X37267Y9207D1*
X37170Y9286D1*
X37090Y9381D1*
X37029Y9491D1*
X36990Y9609D1*
X36975Y9733D1*
X36984Y9858D1*
X37016Y9978D1*
X37071Y10090D1*
X37146Y10190D1*
X37239Y10273D1*
X37346Y10337D1*
X37464Y10380D1*
X37587Y10399D1*
X37712Y10394D1*
X37833Y10366D1*
X37947Y10314D1*
X38049Y10242D1*
X38135Y10152D1*
X38203Y10047D1*
X38249Y9931D1*
X38272Y9809D1*
X38274Y9725D1*
X35100Y10400D2*
X36275D1*
Y9100D1*
X34975D1*
Y10400D1*
X35100D1*
X48024Y6225D2*
X48008Y6101D1*
X47968Y5983D1*
X47906Y5875D1*
X47824Y5780D1*
X47726Y5703D1*
X47615Y5646D1*
X47495Y5611D1*
X47371Y5600D1*
X47247Y5613D1*
X47127Y5649D1*
X47017Y5707D1*
X46920Y5786D1*
X46840Y5881D1*
X46779Y5991D1*
X46740Y6109D1*
X46725Y6233D1*
X46734Y6358D1*
X46766Y6478D1*
X46821Y6590D1*
X46896Y6690D1*
X46989Y6773D1*
X47096Y6837D1*
X47214Y6880D1*
X47337Y6899D1*
X47462Y6894D1*
X47583Y6866D1*
X47697Y6814D1*
X47799Y6742D1*
X47885Y6652D1*
X47953Y6547D1*
X47999Y6431D1*
X48022Y6309D1*
X48024Y6225D1*
X44850Y6900D2*
X46025D1*
Y5600D1*
X44725D1*
Y6900D1*
X44850D1*
X46225Y15203D2*
X46115Y15146D1*
X45995Y15111D1*
X45871Y15100D1*
X45747Y15113D1*
X45627Y15149D1*
X45517Y15207D1*
X45420Y15286D1*
X45340Y15381D1*
X45279Y15491D1*
X45240Y15609D1*
X45225Y15733D1*
X45234Y15858D1*
X45266Y15978D1*
X45321Y16090D1*
X45396Y16190D1*
X45489Y16273D1*
X45596Y16337D1*
X45714Y16380D1*
X45837Y16399D1*
X45962Y16394D1*
X46083Y16366D1*
X46197Y16314D1*
X46225Y16298D1*
Y16400D1*
X47525D1*
Y15100D1*
X46225D1*
Y15206D1*
X54899Y15725D2*
X54883Y15601D1*
X54843Y15483D1*
X54781Y15375D1*
X54693Y15274D1*
X55207Y15275D1*
X55714Y15779D1*
X55750Y15940D1*
X55807Y16051D1*
X55889Y16145D1*
X55990Y16218D1*
X56106Y16265D1*
X56229Y16285D1*
X56353Y16275D1*
X56472Y16237D1*
X56579Y16172D1*
X56667Y16085D1*
X56734Y15979D1*
X56773Y15861D1*
X56785Y15750D1*
X56770Y15626D1*
X56728Y15509D1*
X56659Y15405D1*
X56568Y15320D1*
X56460Y15258D1*
X56340Y15223D1*
X56282Y15220D1*
X55658Y14592D1*
X55557Y14519D1*
X55435Y14480D1*
X55125Y14475D1*
X51730D1*
X51585Y14383D1*
X51465Y14348D1*
X51340Y14341D1*
X51218Y14364D1*
X51104Y14414D1*
X51004Y14489D1*
X50925Y14586D1*
X50870Y14698D1*
X50843Y14819D1*
X50844Y14944D1*
X50875Y15065D1*
X50932Y15176D1*
X51014Y15270D1*
X51115Y15343D1*
X51231Y15390D1*
X51354Y15410D1*
X51478Y15400D1*
X51600Y15360D1*
Y16400D1*
X52900D1*
Y15271D1*
X53625Y15275D1*
X53809D1*
X53745Y15341D1*
X53676Y15445D1*
X53628Y15561D1*
X53603Y15683D1*
Y15808D1*
X53626Y15931D1*
X53672Y16047D1*
X53739Y16152D1*
X53825Y16242D1*
X53927Y16314D1*
X54041Y16365D1*
X54162Y16394D1*
X54287Y16399D1*
X54410Y16380D1*
X54528Y16338D1*
X54635Y16274D1*
X54728Y16190D1*
X54803Y16091D1*
X54858Y15979D1*
X54891Y15858D1*
X54899Y15725D1*
X18524Y16850D2*
X18508Y16726D1*
X18468Y16608D1*
X18406Y16500D1*
X18324Y16405D1*
X18226Y16328D1*
X18115Y16271D1*
X17995Y16236D1*
X17871Y16225D1*
X17747Y16238D1*
X17627Y16274D1*
X17517Y16332D1*
X17420Y16411D1*
X17340Y16506D1*
X17279Y16616D1*
X17240Y16734D1*
X17225Y16858D1*
X17234Y16983D1*
X17266Y17103D1*
X17321Y17215D1*
X17396Y17315D1*
X17489Y17398D1*
X17596Y17462D1*
X17714Y17505D1*
X17837Y17524D1*
X17962Y17519D1*
X18083Y17491D1*
X18197Y17439D1*
X18299Y17367D1*
X18385Y17277D1*
X18453Y17172D1*
X18499Y17056D1*
X18522Y16934D1*
X18524Y16850D1*
X19350Y17525D2*
X20525D1*
Y16225D1*
X19225D1*
Y17525D1*
X19350D1*
X33149Y14850D2*
X33133Y14726D1*
X33093Y14608D1*
X33031Y14500D1*
X32949Y14405D1*
X32851Y14328D1*
X32740Y14271D1*
X32620Y14236D1*
X32496Y14225D1*
X32372Y14238D1*
X32252Y14274D1*
X32142Y14332D1*
X32045Y14411D1*
X31965Y14506D1*
X31904Y14616D1*
X31865Y14734D1*
X31850Y14858D1*
X31859Y14983D1*
X31891Y15103D1*
X31946Y15215D1*
X32021Y15315D1*
X32114Y15398D1*
X32221Y15462D1*
X32339Y15505D1*
X32462Y15524D1*
X32587Y15519D1*
X32708Y15491D1*
X32822Y15439D1*
X32924Y15367D1*
X33010Y15277D1*
X33078Y15172D1*
X33124Y15056D1*
X33147Y14934D1*
X33149Y14850D1*
X12868Y16774D2*
X12831Y16655D1*
X12772Y16545D1*
X12692Y16449D1*
X12595Y16371D1*
X12484Y16314D1*
X12364Y16279D1*
X12240Y16268D1*
X12116Y16283D1*
X11997Y16321D1*
X11889Y16382D1*
X11794Y16464D1*
X11717Y16562D1*
X11661Y16674D1*
X11628Y16794D1*
X11620Y16919D1*
X11636Y17042D1*
X11677Y17160D1*
X11739Y17268D1*
X11822Y17362D1*
X11922Y17437D1*
X12034Y17491D1*
X12155Y17522D1*
X12280Y17528D1*
X12403Y17510D1*
X12521Y17468D1*
X12628Y17403D1*
X12720Y17319D1*
X12793Y17218D1*
X12846Y17105D1*
X12875Y16984D1*
X12880Y16899D1*
X12868Y16774D1*
X21745Y11755D2*
X22880D1*
Y10495D1*
X21620D1*
Y11755D1*
X21745D1*
X18892Y11001D2*
X18855Y10882D1*
X18796Y10772D1*
X18716Y10676D1*
X18619Y10598D1*
X18508Y10540D1*
X18388Y10505D1*
X18264Y10495D1*
X18140Y10509D1*
X18021Y10548D1*
X17912Y10609D1*
X17818Y10690D1*
X17741Y10788D1*
X17685Y10900D1*
X17652Y11020D1*
X17644Y11145D1*
X17660Y11269D1*
X17700Y11387D1*
X17763Y11495D1*
X17846Y11588D1*
X17946Y11663D1*
X18058Y11717D1*
X18179Y11748D1*
X18304Y11755D1*
X18427Y11736D1*
X18544Y11694D1*
X18651Y11630D1*
X18743Y11545D1*
X18817Y11445D1*
X18869Y11331D1*
X18898Y11210D1*
X18904Y11125D1*
X18892Y11001D1*
X35120Y8380D2*
X36255D1*
Y7400D1*
X39074D1*
X39013Y7525D1*
X38980Y7645D1*
X38971Y7770D1*
X38988Y7894D1*
X39028Y8012D1*
X39091Y8120D1*
X39174Y8213D1*
X39273Y8288D1*
X39386Y8342D1*
X39507Y8373D1*
X39631Y8380D1*
X39755Y8361D1*
X39872Y8319D1*
X39979Y8255D1*
X40071Y8170D1*
X40145Y8070D1*
X40197Y7956D1*
X40226Y7835D1*
X40232Y7750D1*
X40219Y7626D1*
X40183Y7507D1*
X40111Y7382D1*
X40237Y7322D1*
X40460Y7106D1*
X43042Y4523D1*
X44746Y4525D1*
X44745Y4880D1*
X46005D1*
Y3620D1*
X44745D1*
Y3725D1*
X42875D1*
X42752Y3744D1*
X42638Y3803D1*
X42415Y4019D1*
X39833Y6602D1*
X31125Y6600D1*
X29375D1*
X29252Y6619D1*
X29138Y6678D1*
X28915Y6894D1*
X28062Y7747D1*
X27990Y7745D1*
X27866Y7759D1*
X27747Y7798D1*
X27639Y7859D1*
X27544Y7940D1*
X27503Y7992D1*
X27442Y7926D1*
X27345Y7848D1*
X27234Y7790D1*
X27114Y7755D1*
X26990Y7745D1*
X26866Y7759D1*
X26747Y7798D1*
X26639Y7859D1*
X26544Y7940D1*
X26467Y8038D1*
X26411Y8150D1*
X26378Y8270D1*
X26370Y8395D1*
X26386Y8519D1*
X26427Y8637D1*
X26480Y8728D1*
X24875Y8725D1*
X22746D1*
X22601Y8596D1*
X22491Y8538D1*
X22372Y8502D1*
X22247Y8490D1*
X22123Y8503D1*
X22004Y8540D1*
X21894Y8599D1*
X21798Y8679D1*
X21720Y8776D1*
X21662Y8886D1*
X21626Y9006D1*
X21615Y9130D1*
X21628Y9254D1*
X21666Y9373D1*
X21725Y9483D1*
X21806Y9578D1*
X21903Y9657D1*
X22013Y9714D1*
X22133Y9749D1*
X22258Y9760D1*
X22382Y9746D1*
X22501Y9708D1*
X22610Y9648D1*
X22705Y9568D1*
X22742Y9522D1*
X23250Y9525D1*
X31125D1*
X31248Y9506D1*
X31362Y9447D1*
X31585Y9231D1*
X31830Y8985D1*
X32030Y9005D1*
X32153Y8986D1*
X32271Y8944D1*
X32378Y8880D1*
X32470Y8795D1*
X32500Y8754D1*
X32572Y8838D1*
X32672Y8913D1*
X32784Y8967D1*
X32905Y8998D1*
X33030Y9005D1*
X33153Y8986D1*
X33271Y8944D1*
X33378Y8880D1*
X33470Y8795D1*
X33543Y8695D1*
X33596Y8581D1*
X33625Y8460D1*
X33630Y8375D1*
X33618Y8251D1*
X33587Y8150D1*
X34996D1*
X34995Y8380D1*
X35120D1*
X49969Y4126D2*
X49933Y4007D1*
X49873Y3897D1*
X49794Y3801D1*
X49696Y3723D1*
X49586Y3665D1*
X49466Y3630D1*
X49341Y3620D1*
X49217Y3634D1*
X49099Y3673D1*
X48990Y3734D1*
X48895Y3815D1*
X48819Y3913D1*
X48763Y4025D1*
X48730Y4145D1*
X48721Y4270D1*
X48738Y4394D1*
X48778Y4512D1*
X48841Y4620D1*
X48924Y4713D1*
X49023Y4788D1*
X49136Y4842D1*
X49257Y4873D1*
X49381Y4880D1*
X49505Y4861D1*
X49622Y4819D1*
X49729Y4755D1*
X49821Y4670D1*
X49895Y4570D1*
X49947Y4456D1*
X49976Y4335D1*
X49982Y4250D1*
X49969Y4126D1*
X47692Y36751D2*
X47652Y36633D1*
X47589Y36525D1*
X47504Y36434D1*
X47402Y36362D1*
X47287Y36314D1*
X47164Y36292D1*
X47039Y36296D1*
X46918Y36326D1*
X46806Y36381D1*
X46705Y36460D1*
Y36290D1*
X45535D1*
Y37460D1*
X46705D1*
Y37287D1*
X46765Y37340D1*
X46871Y37405D1*
X46989Y37445D1*
X47113Y37460D1*
X47237Y37448D1*
X47356Y37410D1*
X47464Y37348D1*
X47557Y37264D1*
X47629Y37163D1*
X47679Y37048D1*
X47705Y36875D1*
X47692Y36751D1*
X47697Y33251D2*
X47657Y33133D1*
X47594Y33025D1*
X47509Y32934D1*
X47407Y32862D1*
X47292Y32814D1*
X47169Y32792D1*
X47044Y32796D1*
X46923Y32826D1*
X46811Y32881D1*
X46710Y32960D1*
Y32790D1*
X45540D1*
Y33960D1*
X46710D1*
Y33784D1*
X46770Y33840D1*
X46876Y33905D1*
X46994Y33945D1*
X47118Y33960D1*
X47242Y33948D1*
X47361Y33910D1*
X47469Y33848D1*
X47562Y33764D1*
X47634Y33663D1*
X47684Y33548D1*
X47710Y33375D1*
X47697Y33251D1*
X19895Y37630D2*
X21130D1*
Y37511D1*
X21284Y37592D1*
X21405Y37623D1*
X21530Y37630D1*
X21653Y37611D1*
X21771Y37569D1*
X21878Y37505D1*
X21970Y37420D1*
X22000Y37379D1*
X22072Y37463D1*
X22172Y37538D1*
X22284Y37592D1*
X22405Y37623D1*
X22530Y37630D1*
X22653Y37611D1*
X22771Y37569D1*
X22878Y37505D1*
X22970Y37420D1*
X23000Y37379D1*
X23072Y37463D1*
X23172Y37538D1*
X23284Y37592D1*
X23405Y37623D1*
X23557Y37626D1*
X23717Y37783D1*
X23818Y37856D1*
X23940Y37895D1*
X24250Y37900D1*
X25750D1*
X25873Y37881D1*
X25987Y37822D1*
X26210Y37606D1*
X26239Y37576D1*
X26405Y37623D1*
X26530Y37630D1*
X26653Y37611D1*
X26771Y37569D1*
X26878Y37505D1*
X26970Y37420D1*
X27000Y37379D1*
X27072Y37463D1*
X27172Y37538D1*
X27284Y37592D1*
X27405Y37623D1*
X27530Y37630D1*
X27653Y37611D1*
X27771Y37569D1*
X27878Y37505D1*
X27970Y37420D1*
X28000Y37379D1*
X28072Y37463D1*
X28172Y37538D1*
X28284Y37592D1*
X28405Y37623D1*
X28530Y37630D1*
X28653Y37611D1*
X28771Y37569D1*
X28878Y37505D1*
X28970Y37420D1*
X29000Y37379D1*
X29072Y37463D1*
X29172Y37538D1*
X29284Y37592D1*
X29405Y37623D1*
X29530Y37630D1*
X29653Y37611D1*
X29771Y37569D1*
X29878Y37505D1*
X29970Y37420D1*
X30000Y37379D1*
X30072Y37463D1*
X30172Y37538D1*
X30284Y37592D1*
X30405Y37623D1*
X30530Y37630D1*
X30653Y37611D1*
X30771Y37569D1*
X30878Y37505D1*
X30970Y37420D1*
X31000Y37379D1*
X31072Y37463D1*
X31172Y37538D1*
X31284Y37592D1*
X31405Y37623D1*
X31530Y37630D1*
X31653Y37611D1*
X31771Y37569D1*
X31878Y37505D1*
X31970Y37420D1*
X32000Y37379D1*
X32072Y37463D1*
X32172Y37538D1*
X32284Y37592D1*
X32405Y37623D1*
X32530Y37630D1*
X32653Y37611D1*
X32771Y37569D1*
X32878Y37505D1*
X32970Y37420D1*
X33000Y37379D1*
X33072Y37463D1*
X33172Y37538D1*
X33284Y37592D1*
X33405Y37623D1*
X33530Y37630D1*
X33653Y37611D1*
X33771Y37569D1*
X33878Y37505D1*
X33970Y37420D1*
X34000Y37379D1*
X34072Y37463D1*
X34172Y37538D1*
X34284Y37592D1*
X34405Y37623D1*
X34530Y37630D1*
X34653Y37611D1*
X34771Y37569D1*
X34878Y37505D1*
X34970Y37420D1*
X35000Y37379D1*
X35072Y37463D1*
X35172Y37538D1*
X35284Y37592D1*
X35405Y37623D1*
X35530Y37630D1*
X35653Y37611D1*
X35771Y37569D1*
X35878Y37505D1*
X35970Y37420D1*
X36000Y37379D1*
X36072Y37463D1*
X36172Y37538D1*
X36284Y37592D1*
X36405Y37623D1*
X36530Y37630D1*
X36653Y37611D1*
X36771Y37569D1*
X36878Y37505D1*
X36970Y37420D1*
X37000Y37379D1*
X37072Y37463D1*
X37172Y37538D1*
X37284Y37592D1*
X37405Y37623D1*
X37530Y37630D1*
X37653Y37611D1*
X37771Y37569D1*
X37878Y37505D1*
X37970Y37420D1*
X38000Y37379D1*
X38072Y37463D1*
X38172Y37538D1*
X38284Y37592D1*
X38405Y37623D1*
X38530Y37630D1*
X38653Y37611D1*
X38771Y37569D1*
X38878Y37505D1*
X38970Y37420D1*
X39000Y37379D1*
X39054Y37446D1*
X39151Y37525D1*
X39261Y37583D1*
X39381Y37619D1*
X39505Y37630D1*
X39629Y37617D1*
X39748Y37579D1*
X39857Y37519D1*
X39953Y37439D1*
X40030Y37341D1*
X40087Y37230D1*
X40121Y37110D1*
X40130Y36975D1*
X40113Y36851D1*
X40089Y36775D1*
X40500D1*
X40623Y36756D1*
X40737Y36697D1*
X40960Y36481D1*
X42908Y34533D1*
X42981Y34432D1*
X43020Y34310D1*
X43025Y34000D1*
Y20875D1*
X43006Y20752D1*
X42947Y20638D1*
X42731Y20415D1*
X40524Y18208D1*
X40525Y17363D1*
X40625Y17254D1*
X40697Y17338D1*
X40797Y17413D1*
X40909Y17467D1*
X41030Y17498D1*
X41155Y17505D1*
X41278Y17486D1*
X41396Y17444D1*
X41503Y17380D1*
X41595Y17295D1*
X41625Y17254D1*
X41697Y17338D1*
X41797Y17413D1*
X41909Y17467D1*
X42030Y17498D1*
X42155Y17505D1*
X42278Y17486D1*
X42396Y17444D1*
X42503Y17380D1*
X42595Y17295D1*
X42625Y17254D1*
X42697Y17338D1*
X42797Y17413D1*
X42909Y17467D1*
X43030Y17498D1*
X43155Y17505D1*
X43278Y17486D1*
X43396Y17444D1*
X43503Y17380D1*
X43595Y17295D1*
X43668Y17195D1*
X43721Y17081D1*
X43750Y16960D1*
X43755Y16875D1*
X43743Y16751D1*
X43706Y16632D1*
X43647Y16522D1*
X43567Y16426D1*
X43470Y16348D1*
X43359Y16290D1*
X43239Y16255D1*
X43115Y16245D1*
X42991Y16259D1*
X42872Y16298D1*
X42764Y16359D1*
X42669Y16440D1*
X42628Y16492D1*
X42567Y16426D1*
X42470Y16348D1*
X42359Y16290D1*
X42239Y16255D1*
X42115Y16245D1*
X41991Y16259D1*
X41872Y16298D1*
X41764Y16359D1*
X41669Y16440D1*
X41628Y16492D1*
X41567Y16426D1*
X41470Y16348D1*
X41359Y16290D1*
X41239Y16255D1*
X41115Y16245D1*
X40991Y16259D1*
X40872Y16298D1*
X40764Y16359D1*
X40669Y16440D1*
X40628Y16492D1*
X40567Y16426D1*
X40470Y16348D1*
X40359Y16290D1*
X40239Y16255D1*
X40115Y16245D1*
X39991Y16259D1*
X39872Y16298D1*
X39764Y16359D1*
X39669Y16440D1*
X39628Y16492D1*
X39567Y16426D1*
X39470Y16348D1*
X39359Y16290D1*
X39239Y16255D1*
X39115Y16245D1*
X38991Y16259D1*
X38872Y16298D1*
X38764Y16359D1*
X38669Y16440D1*
X38628Y16492D1*
X38567Y16426D1*
X38470Y16348D1*
X38359Y16290D1*
X38239Y16255D1*
X38115Y16245D1*
X37991Y16259D1*
X37872Y16298D1*
X37764Y16359D1*
X37669Y16440D1*
X37628Y16492D1*
X37567Y16426D1*
X37470Y16348D1*
X37359Y16290D1*
X37239Y16255D1*
X37115Y16245D1*
X36991Y16259D1*
X36872Y16298D1*
X36764Y16359D1*
X36669Y16440D1*
X36628Y16492D1*
X36567Y16426D1*
X36470Y16348D1*
X36359Y16290D1*
X36239Y16255D1*
X36115Y16245D1*
X35991Y16259D1*
X35872Y16298D1*
X35764Y16359D1*
X35669Y16440D1*
X35628Y16492D1*
X35530Y16392D1*
X35427Y16322D1*
X35312Y16273D1*
X35190Y16248D1*
X35065D1*
X34943Y16272D1*
X34827Y16319D1*
X34724Y16389D1*
X34636Y16478D1*
X34625Y16492D1*
X34567Y16426D1*
X34470Y16348D1*
X34359Y16290D1*
X34239Y16255D1*
X34115Y16245D1*
X33991Y16259D1*
X33906Y16287D1*
X35408Y14783D1*
X35481Y14682D1*
X35520Y14560D1*
X35525Y14363D1*
X35625Y14254D1*
X35697Y14338D1*
X35797Y14413D1*
X35909Y14467D1*
X36030Y14498D1*
X36155Y14505D1*
X36278Y14486D1*
X36396Y14444D1*
X36503Y14380D1*
X36595Y14295D1*
X36625Y14254D1*
X36697Y14338D1*
X36797Y14413D1*
X36909Y14467D1*
X37030Y14498D1*
X37155Y14505D1*
X37278Y14486D1*
X37396Y14444D1*
X37503Y14380D1*
X37595Y14295D1*
X37625Y14254D1*
X37697Y14338D1*
X37797Y14413D1*
X37909Y14467D1*
X38030Y14498D1*
X38155Y14505D1*
X38278Y14486D1*
X38396Y14444D1*
X38503Y14380D1*
X38595Y14295D1*
X38625Y14254D1*
X38697Y14338D1*
X38797Y14413D1*
X38909Y14467D1*
X39030Y14498D1*
X39155Y14505D1*
X39278Y14486D1*
X39396Y14444D1*
X39503Y14380D1*
X39595Y14295D1*
X39625Y14254D1*
X39679Y14321D1*
X39776Y14400D1*
X39886Y14458D1*
X40006Y14494D1*
X40130Y14505D1*
X40254Y14492D1*
X40373Y14454D1*
X40482Y14394D1*
X40578Y14314D1*
X40625Y14259D1*
X40716Y14355D1*
X40818Y14426D1*
X40933Y14475D1*
X41055Y14501D1*
X41180Y14503D1*
X41302Y14480D1*
X41418Y14433D1*
X41522Y14364D1*
X41611Y14276D1*
X41625Y14259D1*
X41716Y14355D1*
X41818Y14426D1*
X41933Y14475D1*
X42055Y14501D1*
X42180Y14503D1*
X42302Y14480D1*
X42418Y14433D1*
X42522Y14364D1*
X42611Y14276D1*
X42625Y14259D1*
X42716Y14355D1*
X42818Y14426D1*
X42933Y14475D1*
X43055Y14501D1*
X43180Y14503D1*
X43302Y14480D1*
X43418Y14433D1*
X43522Y14364D1*
X43611Y14276D1*
X43680Y14173D1*
X43728Y14057D1*
X43752Y13935D1*
X43751Y13800D1*
X43724Y13678D1*
X43673Y13564D1*
X43649Y13525D1*
X54957D1*
X55342Y13908D1*
X55375Y14065D1*
X55432Y14176D1*
X55514Y14270D1*
X55615Y14343D1*
X55731Y14390D1*
X55854Y14410D1*
X55978Y14400D1*
X56097Y14362D1*
X56204Y14297D1*
X56292Y14210D1*
X56359Y14104D1*
X56398Y13986D1*
X56410Y13875D1*
X56395Y13751D1*
X56353Y13634D1*
X56284Y13530D1*
X56193Y13445D1*
X56085Y13383D1*
X55965Y13348D1*
X55907Y13345D1*
X55408Y12842D1*
X55307Y12769D1*
X55185Y12730D1*
X54875Y12725D1*
X51660D1*
X51685Y12662D1*
X51709Y12539D1*
X51713Y12461D1*
X51702Y12336D1*
X51670Y12216D1*
X51619Y12102D1*
X51548Y11999D1*
X51461Y11909D1*
X51360Y11836D1*
X51248Y11781D1*
X51128Y11746D1*
X51004Y11732D1*
X50879Y11740D1*
X50758Y11768D1*
X50643Y11817D1*
X50538Y11885D1*
X50446Y11969D1*
X50370Y12068D1*
X50312Y12179D1*
X50274Y12298D1*
X50257Y12421D1*
X50261Y12546D1*
X50286Y12668D1*
X50307Y12723D1*
X49691Y12725D1*
X49716Y12662D1*
X49740Y12539D1*
X49744Y12461D1*
X49734Y12336D1*
X49702Y12216D1*
X49650Y12102D1*
X49580Y11999D1*
X49492Y11909D1*
X49391Y11836D1*
X49279Y11781D1*
X49159Y11746D1*
X49035Y11732D1*
X48911Y11740D1*
X48789Y11768D1*
X48674Y11817D1*
X48569Y11885D1*
X48478Y11969D1*
X48402Y12068D1*
X48344Y12179D1*
X48305Y12298D1*
X48288Y12421D1*
X48292Y12546D1*
X48317Y12668D1*
X48339Y12723D1*
X45500Y12725D1*
X44160D1*
X44185Y12662D1*
X44209Y12539D1*
X44213Y12461D1*
X44202Y12336D1*
X44170Y12216D1*
X44119Y12102D1*
X44048Y11999D1*
X43961Y11909D1*
X43860Y11836D1*
X43748Y11781D1*
X43628Y11746D1*
X43504Y11732D1*
X43379Y11740D1*
X43258Y11768D1*
X43143Y11817D1*
X43038Y11885D1*
X42946Y11969D1*
X42870Y12068D1*
X42812Y12179D1*
X42774Y12298D1*
X42757Y12421D1*
X42761Y12546D1*
X42786Y12668D1*
X42807Y12723D1*
X42191Y12725D1*
X42216Y12662D1*
X42240Y12539D1*
X42244Y12461D1*
X42234Y12336D1*
X42202Y12216D1*
X42150Y12102D1*
X42080Y11999D1*
X41992Y11909D1*
X41891Y11836D1*
X41779Y11781D1*
X41659Y11746D1*
X41535Y11732D1*
X41411Y11740D1*
X41289Y11768D1*
X41174Y11817D1*
X41069Y11885D1*
X40978Y11969D1*
X40902Y12068D1*
X40844Y12179D1*
X40805Y12298D1*
X40788Y12421D1*
X40792Y12546D1*
X40817Y12668D1*
X40839Y12723D1*
X40731Y12665D1*
X40408Y12342D1*
X40307Y12269D1*
X40185Y12230D1*
X39875Y12225D1*
X35855D1*
X35710Y12133D1*
X35590Y12098D1*
X35465Y12091D1*
X35343Y12114D1*
X35229Y12164D1*
X35129Y12239D1*
X35050Y12336D1*
X34995Y12448D1*
X34968Y12569D1*
X34969Y12694D1*
X35000Y12815D1*
X35057Y12926D1*
X35139Y13020D1*
X35240Y13093D1*
X35356Y13140D1*
X35479Y13160D1*
X35603Y13150D1*
X35722Y13112D1*
X35829Y13047D1*
X35854Y13023D1*
X36875Y13025D1*
X39957D1*
X40182Y13248D1*
X40065D1*
X39943Y13272D1*
X39827Y13319D1*
X39724Y13389D1*
X39636Y13478D1*
X39625Y13492D1*
X39567Y13426D1*
X39470Y13348D1*
X39359Y13290D1*
X39239Y13255D1*
X39115Y13245D1*
X38991Y13259D1*
X38872Y13298D1*
X38764Y13359D1*
X38669Y13440D1*
X38628Y13492D1*
X38567Y13426D1*
X38470Y13348D1*
X38359Y13290D1*
X38239Y13255D1*
X38115Y13245D1*
X37991Y13259D1*
X37872Y13298D1*
X37764Y13359D1*
X37669Y13440D1*
X37628Y13492D1*
X37567Y13426D1*
X37470Y13348D1*
X37359Y13290D1*
X37239Y13255D1*
X37115Y13245D1*
X36991Y13259D1*
X36872Y13298D1*
X36764Y13359D1*
X36669Y13440D1*
X36628Y13492D1*
X36567Y13426D1*
X36470Y13348D1*
X36359Y13290D1*
X36239Y13255D1*
X36115Y13245D1*
X35991Y13259D1*
X35872Y13298D1*
X35764Y13359D1*
X35669Y13440D1*
X35628Y13492D1*
X35567Y13426D1*
X35470Y13348D1*
X35359Y13290D1*
X35239Y13255D1*
X35115Y13245D1*
X34991Y13259D1*
X34872Y13298D1*
X34755Y13366D1*
Y13245D1*
X33495D1*
Y14505D1*
X34553D1*
X33210Y15850D1*
X23000D1*
X22877Y15869D1*
X22763Y15928D1*
X22540Y16144D1*
X22438Y16246D1*
X22241Y16259D1*
X22122Y16298D1*
X22014Y16359D1*
X21919Y16440D1*
X21878Y16492D1*
X21817Y16426D1*
X21720Y16348D1*
X21609Y16290D1*
X21489Y16255D1*
X21365Y16245D1*
X21241Y16259D1*
X21122Y16298D1*
X21014Y16359D1*
X20919Y16440D1*
X20842Y16538D1*
X20786Y16650D1*
X20753Y16770D1*
X20745Y16895D1*
X20761Y17019D1*
X20802Y17137D1*
X20864Y17245D1*
X20940Y17329D1*
Y18000D1*
X20958Y18123D1*
X20997Y18215D1*
X21067Y18308D1*
X22067Y19308D1*
X22167Y19382D1*
X22260Y19419D1*
X22375Y19435D1*
X38441D1*
X39643Y20633D1*
X40817Y21807D1*
X40815Y24125D1*
Y33316D1*
X40426Y33709D1*
X40425Y22000D1*
X40407Y21877D1*
X40354Y21764D1*
X40270Y21672D1*
X40163Y21608D1*
X40039Y21577D1*
X38625Y21575D1*
X20000D1*
X19877Y21593D1*
X19764Y21646D1*
X19672Y21730D1*
X19608Y21837D1*
X19577Y21961D1*
X19575Y23375D1*
Y34000D1*
X19593Y34123D1*
X19646Y34236D1*
X19730Y34328D1*
X19837Y34392D1*
X19961Y34423D1*
X21375Y34425D1*
X22582D1*
X21192Y35817D1*
X21118Y35917D1*
X21081Y36010D1*
X21065Y36125D1*
Y36371D1*
X19870Y36370D1*
Y37630D1*
X19895D1*
X17822Y37151D2*
X17798Y37028D1*
X17758Y36910D1*
X17703Y36798D1*
X17634Y36694D1*
X17552Y36600D1*
X17458Y36517D1*
X17355Y36447D1*
X17243Y36391D1*
X17125Y36350D1*
X17003Y36325D1*
X16878Y36316D1*
X16753Y36323D1*
X16631Y36346D1*
X16512Y36385D1*
X16399Y36439D1*
X16295Y36507D1*
X16200Y36588D1*
X16116Y36681D1*
X16045Y36784D1*
X15989Y36895D1*
X15947Y37013D1*
X15920Y37135D1*
X15910Y37260D1*
X15916Y37384D1*
X15938Y37507D1*
X15976Y37626D1*
X16030Y37739D1*
X16097Y37845D1*
X16177Y37940D1*
X16269Y38025D1*
X16372Y38096D1*
X16483Y38154D1*
X16600Y38197D1*
X16722Y38224D1*
X16846Y38235D1*
X16971Y38230D1*
X17094Y38209D1*
X17213Y38172D1*
X17327Y38120D1*
X17433Y38053D1*
X17529Y37974D1*
X17614Y37882D1*
X17686Y37781D1*
X17745Y37670D1*
X17789Y37553D1*
X17817Y37432D1*
X17830Y37276D1*
X17822Y37151D1*
X44082D2*
X44058Y37028D1*
X44018Y36910D1*
X43963Y36798D1*
X43894Y36694D1*
X43812Y36600D1*
X43718Y36517D1*
X43615Y36447D1*
X43503Y36391D1*
X43385Y36350D1*
X43262Y36325D1*
X43138Y36316D1*
X43013Y36323D1*
X42890Y36346D1*
X42772Y36385D1*
X42659Y36439D1*
X42555Y36507D1*
X42460Y36588D1*
X42376Y36681D1*
X42305Y36784D1*
X42248Y36895D1*
X42207Y37013D1*
X42180Y37135D1*
X42170Y37260D1*
X42176Y37384D1*
X42198Y37507D1*
X42236Y37626D1*
X42289Y37739D1*
X42357Y37845D1*
X42437Y37940D1*
X42529Y38025D1*
X42632Y38096D1*
X42742Y38154D1*
X42860Y38197D1*
X42982Y38224D1*
X43106Y38235D1*
X43231Y38230D1*
X43354Y38209D1*
X43473Y38172D1*
X43587Y38120D1*
X43693Y38053D1*
X43789Y37974D1*
X43874Y37882D1*
X43946Y37781D1*
X44005Y37670D1*
X44049Y37553D1*
X44077Y37432D1*
X44090Y37276D1*
X44082Y37151D1*
X17822Y19119D2*
X17798Y18997D1*
X17758Y18879D1*
X17703Y18766D1*
X17634Y18662D1*
X17552Y18568D1*
X17458Y18485D1*
X17355Y18415D1*
X17243Y18359D1*
X17125Y18319D1*
X17003Y18293D1*
X16878Y18284D1*
X16753Y18291D1*
X16631Y18314D1*
X16512Y18353D1*
X16399Y18407D1*
X16295Y18476D1*
X16200Y18557D1*
X16116Y18650D1*
X16045Y18753D1*
X15989Y18864D1*
X15947Y18982D1*
X15920Y19104D1*
X15910Y19228D1*
X15916Y19353D1*
X15938Y19476D1*
X15976Y19595D1*
X16030Y19708D1*
X16097Y19813D1*
X16177Y19909D1*
X16269Y19993D1*
X16372Y20065D1*
X16483Y20122D1*
X16600Y20165D1*
X16722Y20193D1*
X16846Y20204D1*
X16971Y20199D1*
X17094Y20178D1*
X17213Y20141D1*
X17327Y20088D1*
X17433Y20022D1*
X17529Y19942D1*
X17614Y19851D1*
X17686Y19749D1*
X17745Y19639D1*
X17789Y19522D1*
X17817Y19400D1*
X17830Y19244D1*
X17822Y19119D1*
X44082D2*
X44058Y18997D1*
X44018Y18879D1*
X43963Y18766D1*
X43894Y18662D1*
X43812Y18568D1*
X43718Y18485D1*
X43615Y18415D1*
X43503Y18359D1*
X43385Y18319D1*
X43262Y18293D1*
X43138Y18284D1*
X43013Y18291D1*
X42890Y18314D1*
X42772Y18353D1*
X42659Y18407D1*
X42555Y18476D1*
X42460Y18557D1*
X42376Y18650D1*
X42305Y18753D1*
X42248Y18864D1*
X42207Y18982D1*
X42180Y19104D1*
X42170Y19228D1*
X42176Y19353D1*
X42198Y19476D1*
X42236Y19595D1*
X42289Y19708D1*
X42357Y19813D1*
X42437Y19909D1*
X42529Y19993D1*
X42632Y20065D1*
X42742Y20122D1*
X42860Y20165D1*
X42982Y20193D1*
X43106Y20204D1*
X43231Y20199D1*
X43354Y20178D1*
X43473Y20141D1*
X43587Y20088D1*
X43693Y20022D1*
X43789Y19942D1*
X43874Y19851D1*
X43946Y19749D1*
X44005Y19639D1*
X44049Y19522D1*
X44077Y19400D1*
X44090Y19244D1*
X44082Y19119D1*
X5795Y30396D2*
Y30709D1*
X7104D1*
X7100Y31250D1*
Y33082D1*
X6209Y33975D1*
X5125D1*
X5002Y33994D1*
X4888Y34053D1*
X4665Y34269D1*
X4217Y34717D1*
X4144Y34818D1*
X4105Y34940D1*
X4100Y35199D1*
X3995Y35300D1*
X3922Y35401D1*
X3869Y35515D1*
X3838Y35636D1*
X3830Y35760D1*
X3846Y35884D1*
X3884Y36003D1*
X3943Y36113D1*
X4022Y36209D1*
X4117Y36290D1*
X4226Y36351D1*
X4344Y36392D1*
X4468Y36409D1*
X4596Y36403D1*
X4888Y36694D1*
X4792Y36637D1*
X4675Y36593D1*
X4552Y36572D1*
X4428Y36574D1*
X4305Y36599D1*
X4190Y36646D1*
X4085Y36714D1*
X3995Y36800D1*
X3922Y36901D1*
X3869Y37015D1*
X3838Y37136D1*
X3830Y37260D1*
X3846Y37384D1*
X3884Y37503D1*
X3943Y37613D1*
X4022Y37709D1*
X4117Y37790D1*
X4226Y37851D1*
X4344Y37892D1*
X4468Y37909D1*
X4592Y37904D1*
X4714Y37875D1*
X4828Y37824D1*
X4931Y37753D1*
X4999Y37684D1*
X5077Y37760D1*
X5181Y37829D1*
X5296Y37878D1*
X5418Y37905D1*
X5543Y37909D1*
X5666Y37889D1*
X5783Y37847D1*
X5891Y37784D1*
X5985Y37702D1*
X6000Y37686D1*
X6117Y37790D1*
X6226Y37851D1*
X6344Y37892D1*
X6468Y37909D1*
X6592Y37904D1*
X6714Y37875D1*
X6828Y37824D1*
X6931Y37753D1*
X6999Y37684D1*
X7117Y37790D1*
X7226Y37851D1*
X7344Y37892D1*
X7468Y37909D1*
X7592Y37904D1*
X7714Y37875D1*
X7828Y37824D1*
X7931Y37753D1*
X7999Y37684D1*
X8117Y37790D1*
X8226Y37851D1*
X8344Y37892D1*
X8468Y37909D1*
X8596Y37903D1*
X8727Y38033D1*
X8828Y38106D1*
X8950Y38145D1*
X9260Y38150D1*
X9875D1*
X9998Y38131D1*
X10112Y38072D1*
X10335Y37856D1*
X10408Y37783D1*
X10481Y37682D1*
X10520Y37560D1*
X10525Y37250D1*
Y37000D1*
X10506Y36877D1*
X10447Y36763D1*
X10231Y36540D1*
X9936Y36245D1*
X10018Y36165D1*
X10088Y36061D1*
X10137Y35946D1*
X10165Y35825D1*
X10170Y35740D1*
X10158Y35616D1*
X10124Y35496D1*
X10068Y35384D1*
X9992Y35285D1*
X9899Y35202D1*
X9792Y35137D1*
X9675Y35093D1*
X9552Y35072D1*
X9428Y35074D1*
X9305Y35099D1*
X9190Y35146D1*
X9085Y35214D1*
X9003Y35292D1*
X8899Y35202D1*
X8792Y35137D1*
X8675Y35093D1*
X8552Y35072D1*
X8428Y35074D1*
X8305Y35099D1*
X8190Y35146D1*
X8085Y35214D1*
X8000Y35294D1*
X7902Y35204D1*
X7900Y34541D1*
X8533Y33908D1*
X8606Y33807D1*
X8645Y33685D1*
X8650Y33375D1*
Y29250D1*
X8631Y29127D1*
X8572Y29013D1*
X8356Y28790D1*
X6658Y27092D1*
X6557Y27019D1*
X6435Y26980D1*
X6125Y26975D1*
X4043D1*
X3398Y26333D1*
X3401Y25848D1*
X3504Y25918D1*
X3620Y25963D1*
X3744Y25979D1*
X3868Y25966D1*
X4002Y25913D1*
X4120Y25963D1*
X4244Y25979D1*
X4368Y25966D1*
X4474Y25928D1*
X4599Y25975D1*
X4848Y25979D1*
X4971Y25956D1*
X5085Y25881D1*
X5184Y25782D1*
X5239Y25708D1*
X5278Y25597D1*
X5282Y25170D1*
Y24955D1*
X5259Y24833D1*
X5184Y24718D1*
X5085Y24619D1*
X5011Y24564D1*
X4901Y24525D1*
X4648Y24522D1*
X4651Y23600D1*
X4761Y23658D1*
X4881Y23694D1*
X5005Y23705D1*
X5129Y23692D1*
X5248Y23654D1*
X5357Y23594D1*
X5453Y23513D1*
X5530Y23416D1*
X5587Y23305D1*
X5621Y23184D1*
X5630Y23050D1*
X5613Y22926D1*
X5571Y22808D1*
X5508Y22701D1*
X5424Y22608D1*
X5324Y22534D1*
X5211Y22481D1*
X5090Y22451D1*
X4965Y22445D1*
X4842Y22465D1*
X4725Y22508D1*
X4650Y22551D1*
Y22418D1*
X4939Y22127D1*
X5030Y22130D1*
X5153Y22111D1*
X5271Y22069D1*
X5378Y22005D1*
X5470Y21920D1*
X5543Y21820D1*
X5596Y21706D1*
X5625Y21585D1*
X5630Y21500D1*
X5618Y21376D1*
X5581Y21257D1*
X5522Y21147D1*
X5442Y21051D1*
X5345Y20973D1*
X5234Y20915D1*
X5114Y20880D1*
X4990Y20870D1*
X4866Y20884D1*
X4747Y20923D1*
X4639Y20984D1*
X4544Y21065D1*
X4467Y21163D1*
X4411Y21275D1*
X4378Y21395D1*
X4370Y21520D1*
X4376Y21562D1*
X3967Y21967D1*
X3894Y22068D1*
X3855Y22190D1*
X3850Y22500D1*
Y24527D1*
X3710Y24523D1*
X3588Y24547D1*
X3475Y24598D1*
X3398Y24658D1*
X3400Y23250D1*
Y17254D1*
X3508Y17260D1*
X3597Y17250D1*
X3600Y18500D1*
Y18925D1*
X3619Y19048D1*
X3678Y19162D1*
X3894Y19385D1*
X4372Y19863D1*
X4370Y19945D1*
X4386Y20069D1*
X4427Y20187D1*
X4489Y20295D1*
X4572Y20388D1*
X4672Y20463D1*
X4784Y20517D1*
X4905Y20548D1*
X5030Y20555D1*
X5153Y20537D1*
X5271Y20494D1*
X5378Y20430D1*
X5470Y20346D1*
X5543Y20245D1*
X5596Y20131D1*
X5625Y20010D1*
X5630Y19925D1*
X5618Y19801D1*
X5581Y19682D1*
X5522Y19572D1*
X5442Y19476D1*
X5345Y19398D1*
X5234Y19340D1*
X5114Y19305D1*
X4990Y19295D1*
X4940Y19301D1*
X4402Y18761D1*
X4400Y17968D1*
X4467Y18033D1*
X4568Y18106D1*
X4690Y18145D1*
X5000Y18150D1*
X9957D1*
X11850Y20041D1*
X11853Y20245D1*
X11620D1*
Y21505D1*
X12880D1*
Y20245D1*
X12650D1*
Y19875D1*
X12631Y19752D1*
X12572Y19638D1*
X12356Y19415D1*
X10408Y17467D1*
X10307Y17394D1*
X10185Y17355D1*
X9875Y17350D1*
X9262Y17347D1*
X9371Y17285D1*
X9467Y17206D1*
X9548Y17111D1*
X9612Y17003D1*
X9656Y16887D1*
X9681Y16764D1*
X9685Y16686D1*
X9674Y16562D1*
X9642Y16441D1*
X9590Y16327D1*
X9520Y16224D1*
X9433Y16135D1*
X9332Y16061D1*
X9220Y16007D1*
X9100Y15972D1*
X8976Y15957D1*
X8851Y15965D1*
X8730Y15993D1*
X8615Y16042D1*
X8510Y16110D1*
X8418Y16195D1*
X8342Y16294D1*
X8284Y16404D1*
X8246Y16523D1*
X8228Y16647D1*
X8232Y16771D1*
X8258Y16894D1*
X8303Y17010D1*
X8368Y17117D1*
X8450Y17211D1*
X8547Y17289D1*
X8660Y17351D1*
X4918Y17350D1*
X4838Y17275D1*
X5900D1*
Y15975D1*
X4648D1*
X4650Y15875D1*
X4631Y15752D1*
X4572Y15638D1*
X4397Y15457D1*
X4400Y13750D1*
Y13098D1*
X4524Y13142D1*
X4647Y13162D1*
X4772D1*
X4895Y13140D1*
X5012Y13097D1*
X5121Y13035D1*
X5217Y12956D1*
X5298Y12861D1*
X5362Y12753D1*
X5406Y12637D1*
X5431Y12514D1*
X5435Y12436D1*
X5424Y12312D1*
X5392Y12191D1*
X5340Y12077D1*
X5270Y11974D1*
X5183Y11885D1*
X5082Y11811D1*
X4970Y11757D1*
X4850Y11722D1*
X4726Y11707D1*
X4601Y11715D1*
X4480Y11743D1*
X4397Y11778D1*
X4400Y11125D1*
Y10875D1*
X4381Y10752D1*
X4322Y10638D1*
X4106Y10415D1*
X3275Y9584D1*
X3276Y6025D1*
X4150D1*
Y4896D1*
X4250Y4900D1*
X4373Y4881D1*
X4487Y4822D1*
X4710Y4606D1*
X6165Y3150D1*
X7480D1*
X7471Y3270D1*
X7488Y3394D1*
X7528Y3512D1*
X7591Y3620D1*
X7674Y3713D1*
X7773Y3788D1*
X7886Y3842D1*
X8007Y3873D1*
X8131Y3880D1*
X8255Y3861D1*
X8372Y3819D1*
X8479Y3755D1*
X8571Y3670D1*
X8645Y3570D1*
X8697Y3456D1*
X8726Y3335D1*
X8732Y3250D1*
X8722Y3153D1*
X9375Y3150D1*
X9645D1*
X9740Y3218D1*
X9856Y3265D1*
X9979Y3285D1*
X10103Y3275D1*
X10159Y3257D1*
X10152Y3325D1*
X10170Y3423D1*
X10216Y3511D1*
X10356Y3657D1*
X10845Y4140D1*
X10933Y4187D1*
X11031Y4206D1*
X11130Y4195D1*
X11221Y4155D1*
X11299Y4090D1*
X11870Y3513D1*
X11917Y3425D1*
X11935Y3327D1*
Y3300D1*
X11979Y3285D1*
X12103Y3275D1*
X12222Y3237D1*
X12329Y3172D1*
X12354Y3148D1*
X13332Y3150D1*
X15467Y5283D1*
X15568Y5356D1*
X15690Y5395D1*
X16000Y5400D1*
X25832D1*
X26092Y5658D1*
X26193Y5731D1*
X26315Y5770D1*
X26370Y5775D1*
Y6005D1*
X27311D1*
X27592Y6283D1*
X27693Y6356D1*
X27815Y6395D1*
X28125Y6400D1*
X31000D1*
X31123Y6381D1*
X31237Y6322D1*
X31460Y6106D1*
X31661Y5904D1*
X31784Y5967D1*
X31905Y5998D1*
X32030Y6005D1*
X32153Y5986D1*
X32271Y5944D1*
X32378Y5880D1*
X32470Y5795D1*
X32500Y5754D1*
X32554Y5821D1*
X32651Y5900D1*
X32761Y5958D1*
X32881Y5994D1*
X33005Y6005D1*
X33129Y5992D1*
X33248Y5954D1*
X33357Y5894D1*
X33453Y5814D1*
X33530Y5716D1*
X33587Y5605D1*
X33621Y5485D1*
X33630Y5350D1*
X33613Y5226D1*
X33571Y5109D1*
X33524Y5025D1*
X37750D1*
X37873Y5006D1*
X37987Y4947D1*
X38210Y4731D1*
X38822Y4111D1*
X39030Y4130D1*
X39153Y4111D1*
X39271Y4069D1*
X39378Y4005D1*
X39470Y3920D1*
X39500Y3879D1*
X39572Y3963D1*
X39672Y4038D1*
X39784Y4092D1*
X39905Y4123D1*
X40030Y4130D1*
X40153Y4111D1*
X40271Y4069D1*
X40378Y4005D1*
X40470Y3920D1*
X40500Y3879D1*
X40572Y3963D1*
X40672Y4038D1*
X40784Y4092D1*
X40905Y4123D1*
X41030Y4130D1*
X41153Y4111D1*
X41271Y4069D1*
X41378Y4005D1*
X41470Y3920D1*
X41500Y3879D1*
X41554Y3946D1*
X41651Y4025D1*
X41761Y4083D1*
X41881Y4119D1*
X42005Y4130D1*
X42129Y4117D1*
X42248Y4079D1*
X42357Y4019D1*
X42453Y3939D1*
X42530Y3841D1*
X42587Y3730D1*
X42621Y3610D1*
X42630Y3475D1*
X42613Y3351D1*
X42571Y3234D1*
X42508Y3126D1*
X42424Y3034D1*
X42384Y3000D1*
X42470Y2920D1*
X42543Y2820D1*
X42596Y2706D1*
X42625Y2585D1*
X42630Y2500D1*
X42618Y2376D1*
X42581Y2257D1*
X42522Y2147D1*
X42442Y2051D1*
X42345Y1973D1*
X42234Y1915D1*
X42114Y1880D1*
X41990Y1870D1*
X41866Y1884D1*
X41747Y1923D1*
X41639Y1984D1*
X41544Y2065D1*
X41503Y2117D1*
X41442Y2051D1*
X41345Y1973D1*
X41234Y1915D1*
X41114Y1880D1*
X40990Y1870D1*
X40866Y1884D1*
X40747Y1923D1*
X40639Y1984D1*
X40544Y2065D1*
X40503Y2117D1*
X40442Y2051D1*
X40345Y1973D1*
X40234Y1915D1*
X40114Y1880D1*
X39990Y1870D1*
X39866Y1884D1*
X39747Y1923D1*
X39639Y1984D1*
X39544Y2065D1*
X39503Y2117D1*
X39442Y2051D1*
X39345Y1973D1*
X39234Y1915D1*
X39114Y1880D1*
X38990Y1870D1*
X38900Y1875D1*
Y980D1*
X38984Y854D1*
X39023Y736D1*
X39035Y625D1*
X39030Y582D1*
X58113Y622D1*
X58029Y663D1*
X57925Y732D1*
X57830Y813D1*
X57746Y906D1*
X57675Y1009D1*
X57619Y1120D1*
X57577Y1237D1*
X57550Y1360D1*
X57540Y1484D1*
X57546Y1609D1*
X57568Y1732D1*
X57606Y1851D1*
X57659Y1964D1*
X57727Y2069D1*
X57807Y2165D1*
X57899Y2249D1*
X58002Y2321D1*
X58112Y2378D1*
X58230Y2421D1*
X58352Y2448D1*
X58476Y2460D1*
X58601Y2455D1*
X58724Y2433D1*
X58843Y2397D1*
X58957Y2344D1*
X59063Y2278D1*
X59159Y2198D1*
X59244Y2107D1*
X59316Y2005D1*
X59376Y1891D1*
X59375Y15250D1*
Y38105D1*
X59264Y37918D1*
X59182Y37824D1*
X59088Y37741D1*
X58985Y37671D1*
X58873Y37615D1*
X58755Y37574D1*
X58633Y37549D1*
X58508Y37540D1*
X58383Y37547D1*
X58261Y37570D1*
X58142Y37609D1*
X58029Y37663D1*
X57925Y37732D1*
X57830Y37813D1*
X57746Y37906D1*
X57675Y38009D1*
X57619Y38120D1*
X57577Y38237D1*
X57550Y38360D1*
X57540Y38484D1*
X57546Y38609D1*
X57568Y38732D1*
X57606Y38851D1*
X57659Y38964D1*
X57727Y39069D1*
X57807Y39165D1*
X57899Y39249D1*
X58002Y39321D1*
X58109Y39377D1*
X47125Y39375D1*
X1895D1*
X2063Y39278D1*
X2159Y39198D1*
X2244Y39107D1*
X2316Y39005D1*
X2375Y38895D1*
X2419Y38778D1*
X2447Y38656D1*
X2460Y38500D1*
X2452Y38375D1*
X2428Y38253D1*
X2388Y38134D1*
X2333Y38022D1*
X2264Y37918D1*
X2182Y37824D1*
X2088Y37741D1*
X1985Y37671D1*
X1873Y37615D1*
X1755Y37574D1*
X1633Y37549D1*
X1508Y37540D1*
X1383Y37547D1*
X1261Y37570D1*
X1142Y37609D1*
X1029Y37663D1*
X925Y37732D1*
X830Y37813D1*
X746Y37906D1*
X675Y38009D1*
X624Y38109D1*
X625Y24051D1*
X763Y24133D1*
X881Y24174D1*
X1004Y24195D1*
X1070D1*
X1037Y24261D1*
X1001Y24381D1*
X990Y24505D1*
X1003Y24629D1*
X1041Y24748D1*
X1100Y24858D1*
X1181Y24953D1*
X1278Y25032D1*
X1388Y25089D1*
X1508Y25124D1*
X1633Y25135D1*
X1757Y25121D1*
X1850Y25092D1*
Y26875D1*
X1869Y26998D1*
X1928Y27112D1*
X2144Y27335D1*
X3217Y28408D1*
X3318Y28481D1*
X3440Y28520D1*
X3750Y28525D1*
X5832D1*
X6598Y29289D1*
X5795Y29291D1*
Y29600D1*
X3664D1*
X2283Y28217D1*
X2178Y28143D1*
X2236Y28178D1*
X2135Y28125D1*
X2073Y28050D1*
X1976Y27971D1*
X1866Y27913D1*
X1747Y27877D1*
X1622Y27865D1*
X1498Y27878D1*
X1379Y27915D1*
X1269Y27974D1*
X1173Y28054D1*
X1095Y28151D1*
X1037Y28261D1*
X1001Y28381D1*
X990Y28505D1*
X1003Y28629D1*
X1041Y28748D1*
X1100Y28858D1*
X1181Y28953D1*
X1278Y29032D1*
X1388Y29089D1*
X1508Y29124D1*
X1633Y29135D1*
X1757Y29121D1*
X1876Y29083D1*
X1968Y29033D1*
X3217Y30283D1*
X3318Y30356D1*
X3440Y30395D1*
X3750Y30400D1*
X5793D1*
X10205Y29975D2*
X10189Y29851D1*
X10152Y29732D1*
X10095Y29621D1*
X10019Y29522D1*
X9927Y29437D1*
X9822Y29370D1*
X9707Y29323D1*
X9585Y29297D1*
X9460Y29292D1*
X9336Y29309D1*
X9217Y29348D1*
X9107Y29407D1*
X9009Y29484D1*
X8927Y29578D1*
X8861Y29684D1*
X8816Y29800D1*
X8791Y29923D1*
X8789Y30048D1*
X8808Y30171D1*
X8849Y30289D1*
X8909Y30398D1*
X8988Y30495D1*
X9083Y30576D1*
X9190Y30640D1*
X9307Y30683D1*
X9430Y30706D1*
X9555Y30707D1*
X9678Y30685D1*
X9795Y30643D1*
X9903Y30580D1*
X9999Y30500D1*
X10079Y30404D1*
X10141Y30296D1*
X10182Y30178D1*
X10203Y30055D1*
X10205Y29975D1*
X20498Y14751D2*
X20461Y14631D1*
X20402Y14521D1*
X20323Y14425D1*
X20226Y14346D1*
X20116Y14288D1*
X19997Y14252D1*
X19872Y14240D1*
X19748Y14253D1*
X19629Y14290D1*
X19519Y14349D1*
X19423Y14429D1*
X19345Y14526D1*
X19287Y14636D1*
X19251Y14756D1*
X19240Y14880D1*
X19253Y15004D1*
X19291Y15123D1*
X19350Y15233D1*
X19431Y15328D1*
X19528Y15407D1*
X19638Y15464D1*
X19758Y15499D1*
X19883Y15510D1*
X20007Y15496D1*
X20126Y15458D1*
X20235Y15398D1*
X20330Y15318D1*
X20408Y15220D1*
X20465Y15109D1*
X20500Y14989D1*
X20510Y14875D1*
X20498Y14751D1*
X16498D2*
X16461Y14631D1*
X16402Y14521D1*
X16323Y14425D1*
X16226Y14346D1*
X16116Y14288D1*
X15997Y14252D1*
X15872Y14240D1*
X15748Y14253D1*
X15629Y14290D1*
X15519Y14349D1*
X15423Y14429D1*
X15345Y14526D1*
X15287Y14636D1*
X15251Y14756D1*
X15240Y14880D1*
X15253Y15004D1*
X15291Y15123D1*
X15350Y15233D1*
X15431Y15328D1*
X15528Y15407D1*
X15638Y15464D1*
X15758Y15499D1*
X15883Y15510D1*
X16007Y15496D1*
X16126Y15458D1*
X16235Y15398D1*
X16330Y15318D1*
X16408Y15220D1*
X16465Y15109D1*
X16500Y14989D1*
X16510Y14875D1*
X16498Y14751D1*
X14873Y20751D2*
X14836Y20631D1*
X14777Y20521D1*
X14698Y20425D1*
X14601Y20346D1*
X14491Y20288D1*
X14372Y20252D1*
X14247Y20240D1*
X14123Y20253D1*
X14004Y20290D1*
X13894Y20349D1*
X13798Y20429D1*
X13720Y20526D1*
X13662Y20636D1*
X13626Y20756D1*
X13615Y20880D1*
X13628Y21004D1*
X13666Y21123D1*
X13725Y21233D1*
X13806Y21328D1*
X13903Y21407D1*
X14013Y21464D1*
X14133Y21499D1*
X14258Y21510D1*
X14382Y21496D1*
X14501Y21458D1*
X14610Y21398D1*
X14705Y21318D1*
X14783Y21220D1*
X14840Y21109D1*
X14875Y20989D1*
X14885Y20875D1*
X14873Y20751D1*
Y16751D2*
X14836Y16631D1*
X14777Y16521D1*
X14698Y16425D1*
X14601Y16346D1*
X14491Y16288D1*
X14372Y16252D1*
X14247Y16240D1*
X14123Y16253D1*
X14004Y16290D1*
X13894Y16349D1*
X13798Y16429D1*
X13720Y16526D1*
X13662Y16636D1*
X13626Y16756D1*
X13615Y16880D1*
X13628Y17004D1*
X13666Y17123D1*
X13725Y17233D1*
X13806Y17328D1*
X13903Y17407D1*
X14013Y17464D1*
X14133Y17499D1*
X14258Y17510D1*
X14382Y17496D1*
X14501Y17458D1*
X14610Y17398D1*
X14705Y17318D1*
X14783Y17220D1*
X14840Y17109D1*
X14875Y16989D1*
X14885Y16875D1*
X14873Y16751D1*
X20498Y12876D2*
X20461Y12756D1*
X20402Y12646D1*
X20323Y12550D1*
X20226Y12471D1*
X20116Y12413D1*
X19997Y12377D1*
X19872Y12365D1*
X19748Y12378D1*
X19629Y12415D1*
X19519Y12474D1*
X19423Y12554D1*
X19345Y12651D1*
X19287Y12761D1*
X19251Y12881D1*
X19240Y13005D1*
X19253Y13129D1*
X19291Y13248D1*
X19350Y13358D1*
X19431Y13453D1*
X19528Y13532D1*
X19638Y13589D1*
X19758Y13624D1*
X19883Y13635D1*
X20007Y13621D1*
X20126Y13583D1*
X20235Y13523D1*
X20330Y13443D1*
X20408Y13345D1*
X20465Y13234D1*
X20500Y13114D1*
X20510Y13000D1*
X20498Y12876D1*
X16498D2*
X16461Y12756D1*
X16402Y12646D1*
X16323Y12550D1*
X16226Y12471D1*
X16116Y12413D1*
X15997Y12377D1*
X15872Y12365D1*
X15748Y12378D1*
X15629Y12415D1*
X15519Y12474D1*
X15423Y12554D1*
X15345Y12651D1*
X15287Y12761D1*
X15251Y12881D1*
X15240Y13005D1*
X15253Y13129D1*
X15291Y13248D1*
X15350Y13358D1*
X15431Y13453D1*
X15528Y13532D1*
X15638Y13589D1*
X15758Y13624D1*
X15883Y13635D1*
X16007Y13621D1*
X16126Y13583D1*
X16235Y13523D1*
X16330Y13443D1*
X16408Y13345D1*
X16465Y13234D1*
X16500Y13114D1*
X16510Y13000D1*
X16498Y12876D1*
X18873Y9001D2*
X18836Y8881D1*
X18777Y8771D1*
X18698Y8675D1*
X18601Y8596D1*
X18491Y8538D1*
X18372Y8502D1*
X18247Y8490D1*
X18123Y8503D1*
X18004Y8540D1*
X17894Y8599D1*
X17798Y8679D1*
X17720Y8776D1*
X17662Y8886D1*
X17626Y9006D1*
X17615Y9130D1*
X17628Y9254D1*
X17666Y9373D1*
X17725Y9483D1*
X17806Y9578D1*
X17903Y9657D1*
X18013Y9714D1*
X18133Y9749D1*
X18258Y9760D1*
X18382Y9746D1*
X18501Y9708D1*
X18610Y9648D1*
X18705Y9568D1*
X18783Y9470D1*
X18840Y9359D1*
X18875Y9239D1*
X18885Y9125D1*
X18873Y9001D1*
X44373Y2376D2*
X44336Y2256D1*
X44277Y2146D1*
X44198Y2050D1*
X44101Y1971D1*
X43991Y1913D1*
X43872Y1877D1*
X43747Y1865D1*
X43623Y1878D1*
X43504Y1915D1*
X43394Y1974D1*
X43298Y2054D1*
X43220Y2151D1*
X43162Y2261D1*
X43126Y2381D1*
X43115Y2505D1*
X43128Y2629D1*
X43166Y2748D1*
X43225Y2858D1*
X43306Y2953D1*
X43403Y3032D1*
X43513Y3089D1*
X43633Y3124D1*
X43758Y3135D1*
X43882Y3121D1*
X44001Y3083D1*
X44110Y3023D1*
X44205Y2943D1*
X44283Y2845D1*
X44340Y2734D1*
X44375Y2614D1*
X44385Y2500D1*
X44373Y2376D1*
Y6376D2*
X44336Y6256D1*
X44277Y6146D1*
X44198Y6050D1*
X44101Y5971D1*
X43991Y5913D1*
X43872Y5877D1*
X43747Y5865D1*
X43623Y5878D1*
X43504Y5915D1*
X43394Y5974D1*
X43298Y6054D1*
X43220Y6151D1*
X43162Y6261D1*
X43126Y6381D1*
X43115Y6505D1*
X43128Y6629D1*
X43166Y6748D1*
X43228Y6861D1*
X43143Y6896D1*
X43038Y6963D1*
X42946Y7048D1*
X42870Y7147D1*
X42812Y7258D1*
X42774Y7376D1*
X42757Y7500D1*
X42761Y7625D1*
X42786Y7747D1*
X42832Y7863D1*
X42896Y7970D1*
X42979Y8064D1*
X43076Y8143D1*
X43185Y8204D1*
X43302Y8245D1*
X43425Y8266D1*
X43550Y8265D1*
X43673Y8243D1*
X43791Y8201D1*
X43899Y8139D1*
X43995Y8059D1*
X44076Y7964D1*
X44140Y7857D1*
X44185Y7740D1*
X44209Y7618D1*
X44213Y7539D1*
X44202Y7415D1*
X44170Y7294D1*
X44119Y7181D1*
X44034Y7064D1*
X44110Y7023D1*
X44205Y6943D1*
X44283Y6845D1*
X44340Y6734D1*
X44375Y6614D1*
X44385Y6500D1*
X44373Y6376D1*
X36248Y5751D2*
X36211Y5631D1*
X36152Y5521D1*
X36073Y5425D1*
X35976Y5346D1*
X35866Y5288D1*
X35747Y5252D1*
X35622Y5240D1*
X35498Y5253D1*
X35379Y5290D1*
X35269Y5349D1*
X35173Y5429D1*
X35095Y5526D1*
X35037Y5636D1*
X35001Y5756D1*
X34990Y5880D1*
X35003Y6004D1*
X35041Y6123D1*
X35100Y6233D1*
X35181Y6328D1*
X35278Y6407D1*
X35388Y6464D1*
X35508Y6499D1*
X35633Y6510D1*
X35757Y6496D1*
X35876Y6458D1*
X35985Y6398D1*
X36080Y6318D1*
X36158Y6220D1*
X36215Y6109D1*
X36250Y5989D1*
X36260Y5875D1*
X36248Y5751D1*
X40248D2*
X40211Y5631D1*
X40152Y5521D1*
X40073Y5425D1*
X39976Y5346D1*
X39866Y5288D1*
X39747Y5252D1*
X39622Y5240D1*
X39498Y5253D1*
X39379Y5290D1*
X39269Y5349D1*
X39173Y5429D1*
X39095Y5526D1*
X39037Y5636D1*
X39001Y5756D1*
X38990Y5880D1*
X39003Y6004D1*
X39041Y6123D1*
X39100Y6233D1*
X39181Y6328D1*
X39278Y6407D1*
X39388Y6464D1*
X39508Y6499D1*
X39633Y6510D1*
X39757Y6496D1*
X39876Y6458D1*
X39985Y6398D1*
X40080Y6318D1*
X40158Y6220D1*
X40215Y6109D1*
X40250Y5989D1*
X40260Y5875D1*
X40248Y5751D1*
X51623Y2251D2*
X51586Y2131D1*
X51527Y2021D1*
X51448Y1925D1*
X51351Y1846D1*
X51241Y1788D1*
X51122Y1752D1*
X50997Y1740D1*
X50873Y1753D1*
X50754Y1790D1*
X50644Y1849D1*
X50548Y1929D1*
X50470Y2026D1*
X50412Y2136D1*
X50376Y2256D1*
X50365Y2380D1*
X50378Y2504D1*
X50416Y2623D1*
X50475Y2733D1*
X50556Y2828D1*
X50653Y2907D1*
X50763Y2964D1*
X50883Y2999D1*
X51008Y3010D1*
X51132Y2996D1*
X51251Y2958D1*
X51360Y2898D1*
X51455Y2818D1*
X51533Y2720D1*
X51590Y2609D1*
X51625Y2489D1*
X51635Y2375D1*
X51623Y2251D1*
Y6251D2*
X51586Y6131D1*
X51527Y6021D1*
X51448Y5925D1*
X51351Y5846D1*
X51241Y5788D1*
X51122Y5752D1*
X50997Y5740D1*
X50873Y5753D1*
X50754Y5790D1*
X50644Y5849D1*
X50548Y5929D1*
X50470Y6026D1*
X50412Y6136D1*
X50376Y6256D1*
X50365Y6380D1*
X50378Y6504D1*
X50416Y6623D1*
X50475Y6733D1*
X50556Y6828D1*
X50644Y6899D1*
X50538Y6963D1*
X50446Y7048D1*
X50370Y7147D1*
X50312Y7258D1*
X50274Y7376D1*
X50257Y7500D1*
X50261Y7625D1*
X50286Y7747D1*
X50332Y7863D1*
X50396Y7970D1*
X50479Y8064D1*
X50576Y8143D1*
X50685Y8204D1*
X50802Y8245D1*
X50925Y8266D1*
X51050Y8265D1*
X51173Y8243D1*
X51291Y8201D1*
X51399Y8139D1*
X51495Y8059D1*
X51576Y7964D1*
X51640Y7857D1*
X51685Y7740D1*
X51709Y7618D1*
X51713Y7539D1*
X51702Y7415D1*
X51670Y7294D1*
X51619Y7181D1*
X51548Y7078D1*
X51461Y6988D1*
X51342Y6906D1*
X51455Y6818D1*
X51533Y6720D1*
X51590Y6609D1*
X51625Y6489D1*
X51635Y6375D1*
X51623Y6251D1*
X45998Y2251D2*
X45961Y2131D1*
X45902Y2021D1*
X45823Y1925D1*
X45726Y1846D1*
X45616Y1788D1*
X45497Y1752D1*
X45372Y1740D1*
X45248Y1753D1*
X45129Y1790D1*
X45019Y1849D1*
X44923Y1929D1*
X44845Y2026D1*
X44787Y2136D1*
X44751Y2256D1*
X44740Y2380D1*
X44753Y2504D1*
X44791Y2623D1*
X44850Y2733D1*
X44931Y2828D1*
X45028Y2907D1*
X45138Y2964D1*
X45258Y2999D1*
X45383Y3010D1*
X45507Y2996D1*
X45626Y2958D1*
X45735Y2898D1*
X45830Y2818D1*
X45908Y2720D1*
X45965Y2609D1*
X46000Y2489D1*
X46010Y2375D1*
X45998Y2251D1*
X49998D2*
X49961Y2131D1*
X49902Y2021D1*
X49823Y1925D1*
X49726Y1846D1*
X49616Y1788D1*
X49497Y1752D1*
X49372Y1740D1*
X49248Y1753D1*
X49129Y1790D1*
X49019Y1849D1*
X48923Y1929D1*
X48845Y2026D1*
X48787Y2136D1*
X48751Y2256D1*
X48740Y2380D1*
X48753Y2504D1*
X48791Y2623D1*
X48850Y2733D1*
X48931Y2828D1*
X49028Y2907D1*
X49138Y2964D1*
X49258Y2999D1*
X49383Y3010D1*
X49507Y2996D1*
X49626Y2958D1*
X49735Y2898D1*
X49830Y2818D1*
X49908Y2720D1*
X49965Y2609D1*
X50000Y2489D1*
X50010Y2375D1*
X49998Y2251D1*
X49248Y33251D2*
X49211Y33131D1*
X49152Y33021D1*
X49073Y32925D1*
X48976Y32846D1*
X48866Y32788D1*
X48747Y32752D1*
X48622Y32740D1*
X48498Y32753D1*
X48379Y32790D1*
X48269Y32849D1*
X48173Y32929D1*
X48095Y33026D1*
X48037Y33136D1*
X48001Y33256D1*
X47990Y33380D1*
X48003Y33504D1*
X48041Y33623D1*
X48100Y33733D1*
X48181Y33828D1*
X48278Y33907D1*
X48388Y33964D1*
X48508Y33999D1*
X48633Y34010D1*
X48757Y33996D1*
X48876Y33958D1*
X48985Y33898D1*
X49080Y33818D1*
X49158Y33720D1*
X49215Y33609D1*
X49250Y33489D1*
X49260Y33375D1*
X49248Y33251D1*
X53248D2*
X53211Y33131D1*
X53152Y33021D1*
X53073Y32925D1*
X52976Y32846D1*
X52866Y32788D1*
X52747Y32752D1*
X52622Y32740D1*
X52498Y32753D1*
X52379Y32790D1*
X52269Y32849D1*
X52173Y32929D1*
X52095Y33026D1*
X52037Y33136D1*
X52001Y33256D1*
X51990Y33380D1*
X52003Y33504D1*
X52041Y33623D1*
X52100Y33733D1*
X52181Y33828D1*
X52278Y33907D1*
X52388Y33964D1*
X52508Y33999D1*
X52633Y34010D1*
X52757Y33996D1*
X52876Y33958D1*
X52985Y33898D1*
X53080Y33818D1*
X53158Y33720D1*
X53215Y33609D1*
X53250Y33489D1*
X53260Y33375D1*
X53248Y33251D1*
X49248Y36751D2*
X49211Y36631D1*
X49152Y36521D1*
X49073Y36425D1*
X48976Y36346D1*
X48866Y36288D1*
X48747Y36252D1*
X48622Y36240D1*
X48498Y36253D1*
X48379Y36290D1*
X48269Y36349D1*
X48173Y36429D1*
X48095Y36526D1*
X48037Y36636D1*
X48001Y36756D1*
X47990Y36880D1*
X48003Y37004D1*
X48041Y37123D1*
X48100Y37233D1*
X48181Y37328D1*
X48278Y37407D1*
X48388Y37464D1*
X48508Y37499D1*
X48633Y37510D1*
X48757Y37496D1*
X48876Y37458D1*
X48985Y37398D1*
X49080Y37318D1*
X49158Y37220D1*
X49215Y37109D1*
X49250Y36989D1*
X49260Y36875D1*
X49248Y36751D1*
X53040Y36398D2*
X52976Y36346D1*
X52866Y36288D1*
X52747Y36252D1*
X52622Y36240D1*
X52498Y36253D1*
X52379Y36290D1*
X52269Y36349D1*
X52173Y36429D1*
X52095Y36526D1*
X52037Y36636D1*
X52001Y36756D1*
X51990Y36880D1*
X52003Y37004D1*
X52041Y37123D1*
X52100Y37233D1*
X52181Y37328D1*
X52278Y37407D1*
X52388Y37464D1*
X52508Y37499D1*
X52633Y37510D1*
X52757Y37496D1*
X52876Y37458D1*
X52985Y37398D1*
X53080Y37318D1*
X53158Y37220D1*
X53215Y37109D1*
X53250Y36989D1*
X53260Y36875D1*
X53248Y36755D1*
X53418Y36862D1*
X53537Y36902D1*
X53660Y36919D1*
X53785Y36913D1*
X53906Y36884D1*
X54020Y36833D1*
X54123Y36762D1*
X54210Y36673D1*
X54280Y36569D1*
X54329Y36454D1*
X54356Y36332D1*
X54361Y36250D1*
X54349Y36126D1*
X54314Y36006D1*
X54258Y35894D1*
X54182Y35795D1*
X54089Y35712D1*
X53983Y35647D1*
X53866Y35604D1*
X53743Y35582D1*
X53618Y35584D1*
X53496Y35609D1*
X53380Y35657D1*
X53276Y35725D1*
X53185Y35811D1*
X53113Y35912D1*
X53060Y36026D1*
X53029Y36147D1*
X53022Y36271D1*
X53037Y36391D1*
X10789Y11038D2*
X10218Y11615D1*
X10171Y11703D1*
X10152Y11801D1*
X10163Y11900D1*
X10203Y11991D1*
X10268Y12069D1*
X10845Y12640D1*
X10933Y12687D1*
X11031Y12706D1*
X11130Y12695D1*
X11221Y12655D1*
X11299Y12590D1*
X11870Y12013D1*
X11917Y11925D1*
X11935Y11827D1*
X11933Y11775D1*
X12120Y11705D1*
X12229Y11643D1*
X12325Y11564D1*
X12406Y11469D1*
X12470Y11362D1*
X12515Y11245D1*
X12539Y11122D1*
X12543Y11044D1*
X12532Y10920D1*
X12500Y10799D1*
X12448Y10685D1*
X12378Y10582D1*
X12291Y10493D1*
X12190Y10420D1*
X12078Y10365D1*
X11958Y10330D1*
X11834Y10316D1*
X11709Y10323D1*
X11588Y10351D1*
X11473Y10400D1*
X11368Y10468D1*
X11276Y10553D1*
X11200Y10652D1*
X11142Y10762D1*
X11098Y10924D1*
X10984Y10928D1*
X10889Y10960D1*
X10807Y11020D1*
X10789Y11038D1*
X12483Y12481D2*
X12331Y12485D1*
X12209Y12513D1*
X12094Y12562D1*
X11990Y12630D1*
X11898Y12715D1*
X11822Y12814D1*
X11764Y12924D1*
X11726Y13043D1*
X11708Y13167D1*
X11712Y13292D1*
X11737Y13414D1*
X11783Y13530D1*
X11848Y13637D1*
X11930Y13731D1*
X12027Y13809D1*
X12136Y13870D1*
X12254Y13912D1*
X12377Y13932D1*
X12502D1*
X12625Y13910D1*
X12742Y13867D1*
X12851Y13805D1*
X12947Y13726D1*
X13028Y13631D1*
X13092Y13524D1*
X13136Y13407D1*
X13160Y13284D1*
X13161Y13163D1*
X13272Y13162D1*
X13395Y13140D1*
X13512Y13097D1*
X13621Y13035D1*
X13717Y12956D1*
X13798Y12861D1*
X13862Y12753D1*
X13906Y12637D1*
X13931Y12514D1*
X13935Y12436D1*
X13924Y12312D1*
X13892Y12191D1*
X13840Y12077D1*
X13770Y11974D1*
X13683Y11885D1*
X13582Y11811D1*
X13470Y11757D1*
X13350Y11722D1*
X13226Y11707D1*
X13101Y11715D1*
X12980Y11743D1*
X12865Y11792D1*
X12760Y11860D1*
X12668Y11945D1*
X12592Y12044D1*
X12534Y12154D1*
X12496Y12273D1*
X12478Y12397D1*
X12481Y12479D1*
X9425Y12873D2*
X9392Y12753D1*
X9337Y12640D1*
X9263Y12540D1*
X9172Y12454D1*
X9067Y12387D1*
X8952Y12339D1*
X8830Y12313D1*
X8705Y12309D1*
X8582Y12328D1*
X8464Y12369D1*
X8355Y12430D1*
X8259Y12510D1*
X8179Y12606D1*
X8118Y12715D1*
X8078Y12833D1*
X8059Y12957D1*
X8063Y13081D1*
X8089Y13203D1*
X8137Y13319D1*
X8205Y13423D1*
X8291Y13514D1*
X8392Y13588D1*
X8504Y13642D1*
X8625Y13676D1*
X8749Y13687D1*
X8873Y13675D1*
X8993Y13641D1*
X9105Y13586D1*
X9206Y13512D1*
X9291Y13421D1*
X9359Y13316D1*
X9406Y13200D1*
X9432Y13078D1*
X9437Y12997D1*
X9425Y12873D1*
X11931Y15378D2*
X11897Y15258D1*
X11843Y15146D1*
X11769Y15045D1*
X11678Y14960D1*
X11573Y14892D1*
X11457Y14845D1*
X11335Y14818D1*
X11211Y14815D1*
X11087Y14834D1*
X10969Y14874D1*
X10861Y14936D1*
X10765Y15016D1*
X10685Y15112D1*
X10624Y15221D1*
X10583Y15339D1*
X10565Y15462D1*
X10569Y15587D1*
X10595Y15709D1*
X10643Y15824D1*
X10711Y15929D1*
X10797Y16020D1*
X10897Y16093D1*
X11010Y16148D1*
X11130Y16181D1*
X11254Y16192D1*
X11379Y16180D1*
X11499Y16147D1*
X11611Y16092D1*
X11711Y16017D1*
X11797Y15926D1*
X11864Y15821D1*
X11911Y15706D1*
X11937Y15584D1*
X11942Y15503D1*
X11931Y15378D1*
X8282Y6670D2*
X8250Y6549D1*
X8198Y6435D1*
X8128Y6332D1*
X8041Y6243D1*
X7940Y6170D1*
X7828Y6115D1*
X7708Y6080D1*
X7584Y6066D1*
X7459Y6073D1*
X7338Y6101D1*
X7223Y6150D1*
X7118Y6218D1*
X7026Y6303D1*
X6950Y6402D1*
X6892Y6512D1*
X6848Y6674D1*
X6734Y6678D1*
X6639Y6710D1*
X6557Y6770D1*
X5968Y7365D1*
X5921Y7453D1*
X5902Y7551D1*
X5913Y7650D1*
X5953Y7741D1*
X6018Y7819D1*
X6595Y8390D1*
X6683Y8437D1*
X6781Y8456D1*
X6880Y8445D1*
X6971Y8405D1*
X7049Y8340D1*
X7620Y7763D1*
X7667Y7675D1*
X7685Y7577D1*
X7683Y7525D1*
X7870Y7455D1*
X7979Y7393D1*
X8075Y7314D1*
X8156Y7219D1*
X8220Y7112D1*
X8265Y6995D1*
X8289Y6872D1*
X8293Y6794D1*
X8282Y6670D1*
X13154Y4582D2*
X13122Y4461D1*
X13070Y4347D1*
X13000Y4244D1*
X12913Y4155D1*
X12812Y4082D1*
X12699Y4027D1*
X12580Y3992D1*
X12456Y3978D1*
X12331Y3985D1*
X12209Y4013D1*
X12094Y4062D1*
X11990Y4130D1*
X11898Y4215D1*
X11822Y4314D1*
X11764Y4424D1*
X11726Y4543D1*
X11708Y4667D1*
X11712Y4792D1*
X11737Y4914D1*
X11783Y5030D1*
X11848Y5137D1*
X11930Y5231D1*
X12027Y5309D1*
X12136Y5370D1*
X12254Y5412D1*
X12377Y5432D1*
X12502D1*
X12625Y5410D1*
X12742Y5367D1*
X12851Y5305D1*
X12947Y5226D1*
X13028Y5131D1*
X13092Y5024D1*
X13136Y4907D1*
X13160Y4784D1*
X13165Y4706D1*
X13154Y4582D1*
X9674Y8062D2*
X9642Y7941D1*
X9590Y7827D1*
X9520Y7724D1*
X9433Y7635D1*
X9332Y7561D1*
X9220Y7507D1*
X9100Y7472D1*
X8976Y7457D1*
X8851Y7465D1*
X8730Y7493D1*
X8615Y7542D1*
X8510Y7610D1*
X8418Y7695D1*
X8342Y7794D1*
X8284Y7904D1*
X8246Y8023D1*
X8228Y8147D1*
X8231Y8229D1*
X8081Y8235D1*
X7959Y8263D1*
X7844Y8312D1*
X7740Y8380D1*
X7648Y8465D1*
X7572Y8564D1*
X7514Y8674D1*
X7476Y8793D1*
X7458Y8917D1*
X7462Y9042D1*
X7487Y9164D1*
X7533Y9280D1*
X7598Y9387D1*
X7680Y9481D1*
X7777Y9559D1*
X7886Y9620D1*
X8004Y9662D1*
X8127Y9682D1*
X8252D1*
X8375Y9660D1*
X8492Y9617D1*
X8601Y9555D1*
X8697Y9476D1*
X8778Y9381D1*
X8842Y9274D1*
X8886Y9157D1*
X8910Y9034D1*
X8911Y8913D1*
X9022Y8912D1*
X9145Y8890D1*
X9262Y8847D1*
X9371Y8785D1*
X9467Y8706D1*
X9548Y8611D1*
X9612Y8503D1*
X9656Y8387D1*
X9681Y8264D1*
X9685Y8186D1*
X9674Y8062D1*
X9425Y4373D2*
X9392Y4253D1*
X9337Y4140D1*
X9263Y4040D1*
X9172Y3954D1*
X9067Y3887D1*
X8952Y3839D1*
X8830Y3813D1*
X8705Y3809D1*
X8582Y3828D1*
X8464Y3869D1*
X8355Y3930D1*
X8259Y4010D1*
X8179Y4106D1*
X8118Y4215D1*
X8078Y4333D1*
X8059Y4457D1*
X8063Y4581D1*
X8089Y4703D1*
X8137Y4819D1*
X8205Y4923D1*
X8291Y5014D1*
X8392Y5088D1*
X8504Y5142D1*
X8625Y5176D1*
X8749Y5187D1*
X8873Y5175D1*
X8993Y5141D1*
X9105Y5086D1*
X9206Y5012D1*
X9291Y4921D1*
X9359Y4816D1*
X9406Y4700D1*
X9432Y4578D1*
X9437Y4497D1*
X9425Y4373D1*
X11931Y6878D2*
X11897Y6758D1*
X11843Y6646D1*
X11769Y6545D1*
X11678Y6460D1*
X11573Y6392D1*
X11457Y6345D1*
X11335Y6318D1*
X11211Y6315D1*
X11087Y6334D1*
X10969Y6374D1*
X10861Y6436D1*
X10765Y6516D1*
X10685Y6612D1*
X10624Y6721D1*
X10583Y6839D1*
X10565Y6962D1*
X10569Y7087D1*
X10595Y7209D1*
X10643Y7324D1*
X10711Y7429D1*
X10797Y7520D1*
X10897Y7593D1*
X11010Y7648D1*
X11130Y7681D1*
X11254Y7692D1*
X11379Y7680D1*
X11499Y7647D1*
X11611Y7592D1*
X11711Y7517D1*
X11797Y7426D1*
X11864Y7321D1*
X11911Y7206D1*
X11937Y7084D1*
X11942Y7003D1*
X11931Y6878D1*
X5175Y8623D2*
X5142Y8503D1*
X5087Y8390D1*
X5013Y8290D1*
X4922Y8204D1*
X4817Y8137D1*
X4702Y8089D1*
X4580Y8063D1*
X4455Y8059D1*
X4332Y8078D1*
X4214Y8119D1*
X4105Y8180D1*
X4009Y8260D1*
X3929Y8356D1*
X3868Y8465D1*
X3828Y8583D1*
X3809Y8707D1*
X3813Y8831D1*
X3839Y8953D1*
X3887Y9069D1*
X3955Y9173D1*
X4041Y9264D1*
X4142Y9338D1*
X4254Y9392D1*
X4375Y9426D1*
X4499Y9437D1*
X4623Y9425D1*
X4743Y9391D1*
X4855Y9336D1*
X4956Y9262D1*
X5041Y9171D1*
X5109Y9066D1*
X5156Y8950D1*
X5182Y8828D1*
X5187Y8747D1*
X5175Y8623D1*
X7681Y11128D2*
X7647Y11008D1*
X7593Y10896D1*
X7519Y10795D1*
X7428Y10710D1*
X7323Y10642D1*
X7207Y10595D1*
X7085Y10568D1*
X6961Y10565D1*
X6837Y10584D1*
X6719Y10624D1*
X6611Y10686D1*
X6515Y10766D1*
X6435Y10862D1*
X6374Y10971D1*
X6333Y11089D1*
X6315Y11212D1*
X6319Y11337D1*
X6345Y11459D1*
X6393Y11574D1*
X6461Y11679D1*
X6547Y11770D1*
X6647Y11843D1*
X6760Y11898D1*
X6880Y11931D1*
X7004Y11942D1*
X7129Y11930D1*
X7249Y11897D1*
X7361Y11842D1*
X7461Y11767D1*
X7547Y11676D1*
X7614Y11571D1*
X7661Y11456D1*
X7687Y11334D1*
X7692Y11253D1*
X7681Y11128D1*
X15039Y6788D2*
X14468Y7365D1*
X14421Y7453D1*
X14402Y7551D1*
X14413Y7650D1*
X14453Y7741D1*
X14518Y7819D1*
X15095Y8390D1*
X15183Y8437D1*
X15281Y8456D1*
X15380Y8445D1*
X15471Y8405D1*
X15549Y8340D1*
X16120Y7763D1*
X16167Y7675D1*
X16185Y7577D1*
X16175Y7478D1*
X16135Y7387D1*
X16070Y7310D1*
X15493Y6738D1*
X15405Y6691D1*
X15307Y6673D1*
X15208Y6684D1*
X15117Y6723D1*
X15039Y6788D1*
X17404Y8832D2*
X17372Y8711D1*
X17320Y8597D1*
X17250Y8494D1*
X17163Y8405D1*
X17062Y8332D1*
X16949Y8277D1*
X16830Y8242D1*
X16706Y8228D1*
X16581Y8235D1*
X16459Y8263D1*
X16344Y8312D1*
X16240Y8380D1*
X16148Y8465D1*
X16072Y8564D1*
X16014Y8674D1*
X15976Y8793D1*
X15958Y8917D1*
X15962Y9042D1*
X15987Y9164D1*
X16033Y9280D1*
X16098Y9387D1*
X16180Y9481D1*
X16277Y9559D1*
X16386Y9620D1*
X16504Y9662D1*
X16627Y9682D1*
X16752D1*
X16875Y9660D1*
X16992Y9617D1*
X17101Y9555D1*
X17197Y9476D1*
X17278Y9381D1*
X17342Y9274D1*
X17386Y9157D1*
X17410Y9034D1*
X17415Y8956D1*
X17404Y8832D1*
X13675Y8623D2*
X13642Y8503D1*
X13587Y8390D1*
X13513Y8290D1*
X13422Y8204D1*
X13317Y8137D1*
X13202Y8089D1*
X13080Y8063D1*
X12955Y8059D1*
X12832Y8078D1*
X12714Y8119D1*
X12605Y8180D1*
X12509Y8260D1*
X12429Y8356D1*
X12368Y8465D1*
X12328Y8583D1*
X12309Y8707D1*
X12313Y8831D1*
X12339Y8953D1*
X12387Y9069D1*
X12455Y9173D1*
X12541Y9264D1*
X12642Y9338D1*
X12754Y9392D1*
X12875Y9426D1*
X12999Y9437D1*
X13123Y9425D1*
X13243Y9391D1*
X13355Y9336D1*
X13456Y9262D1*
X13541Y9171D1*
X13609Y9066D1*
X13656Y8950D1*
X13682Y8828D1*
X13687Y8747D1*
X13675Y8623D1*
X16181Y11128D2*
X16147Y11008D1*
X16093Y10896D1*
X16019Y10795D1*
X15928Y10710D1*
X15823Y10642D1*
X15707Y10595D1*
X15585Y10568D1*
X15461Y10565D1*
X15337Y10584D1*
X15219Y10624D1*
X15111Y10686D1*
X15015Y10766D1*
X14935Y10862D1*
X14874Y10971D1*
X14833Y11089D1*
X14815Y11212D1*
X14819Y11337D1*
X14845Y11459D1*
X14893Y11574D1*
X14961Y11679D1*
X15047Y11770D1*
X15147Y11843D1*
X15260Y11898D1*
X15380Y11931D1*
X15504Y11942D1*
X15629Y11930D1*
X15749Y11897D1*
X15861Y11842D1*
X15961Y11767D1*
X16047Y11676D1*
X16114Y11571D1*
X16161Y11456D1*
X16187Y11334D1*
X16192Y11253D1*
X16181Y11128D1*
X40812Y8268D2*
X42244D1*
Y6811D1*
X40787D1*
Y8268D1*
X40812D1*
X41406Y9876D2*
X41373Y9755D1*
X41318Y9643D1*
X41244Y9543D1*
X41153Y9457D1*
X41048Y9389D1*
X40933Y9342D1*
X40811Y9316D1*
X40686Y9312D1*
X40563Y9331D1*
X40445Y9372D1*
X40336Y9433D1*
X40240Y9513D1*
X40161Y9609D1*
X40099Y9718D1*
X40059Y9836D1*
X40040Y9959D1*
X40044Y10084D1*
X40071Y10206D1*
X40119Y10321D1*
X40187Y10426D1*
X40272Y10517D1*
X40373Y10591D1*
X40485Y10645D1*
X40606Y10678D1*
X40730Y10689D1*
X40854Y10678D1*
X40974Y10644D1*
X41086Y10589D1*
X41187Y10515D1*
X41272Y10424D1*
X41340Y10319D1*
X41387Y10203D1*
X41413Y10081D1*
X41418Y10000D1*
X41406Y9876D1*
X44950D2*
X44916Y9755D1*
X44861Y9643D1*
X44787Y9543D1*
X44697Y9457D1*
X44592Y9389D1*
X44476Y9342D1*
X44354Y9316D1*
X44229Y9312D1*
X44106Y9331D1*
X43988Y9372D1*
X43879Y9433D1*
X43784Y9513D1*
X43704Y9609D1*
X43643Y9718D1*
X43602Y9836D1*
X43584Y9959D1*
X43587Y10084D1*
X43614Y10206D1*
X43662Y10321D1*
X43730Y10426D1*
X43816Y10517D1*
X43916Y10591D1*
X44029Y10645D1*
X44149Y10678D1*
X44273Y10689D1*
X44398Y10678D1*
X44518Y10644D1*
X44630Y10589D1*
X44730Y10515D1*
X44815Y10424D1*
X44883Y10319D1*
X44930Y10203D1*
X44956Y10081D1*
X44961Y10000D1*
X44950Y9876D1*
X48312Y8268D2*
X49744D1*
Y6811D1*
X48287D1*
Y8268D1*
X48312D1*
X48906Y9876D2*
X48873Y9755D1*
X48818Y9643D1*
X48744Y9543D1*
X48653Y9457D1*
X48548Y9389D1*
X48433Y9342D1*
X48311Y9316D1*
X48186Y9312D1*
X48063Y9331D1*
X47945Y9372D1*
X47836Y9433D1*
X47740Y9513D1*
X47661Y9609D1*
X47599Y9718D1*
X47559Y9836D1*
X47540Y9959D1*
X47544Y10084D1*
X47571Y10206D1*
X47619Y10321D1*
X47687Y10426D1*
X47772Y10517D1*
X47873Y10591D1*
X47985Y10645D1*
X48106Y10678D1*
X48230Y10689D1*
X48354Y10678D1*
X48474Y10644D1*
X48586Y10589D1*
X48687Y10515D1*
X48772Y10424D1*
X48840Y10319D1*
X48887Y10203D1*
X48913Y10081D1*
X48918Y10000D1*
X48906Y9876D1*
X52450D2*
X52416Y9755D1*
X52361Y9643D1*
X52287Y9543D1*
X52197Y9457D1*
X52092Y9389D1*
X51976Y9342D1*
X51854Y9316D1*
X51729Y9312D1*
X51606Y9331D1*
X51488Y9372D1*
X51379Y9433D1*
X51284Y9513D1*
X51204Y9609D1*
X51143Y9718D1*
X51102Y9836D1*
X51084Y9959D1*
X51087Y10084D1*
X51114Y10206D1*
X51162Y10321D1*
X51230Y10426D1*
X51316Y10517D1*
X51416Y10591D1*
X51529Y10645D1*
X51649Y10678D1*
X51773Y10689D1*
X51898Y10678D1*
X52018Y10644D1*
X52130Y10589D1*
X52230Y10515D1*
X52315Y10424D1*
X52383Y10319D1*
X52430Y10203D1*
X52456Y10081D1*
X52461Y10000D1*
X52450Y9876D1*
X53046Y38691D2*
X54361D1*
Y37352D1*
X53044D1*
X53021Y37377D1*
Y38691D1*
X53046D1*
X56908Y36126D2*
X56874Y36006D1*
X56817Y35894D1*
X56741Y35795D1*
X56649Y35712D1*
X56542Y35647D1*
X56425Y35604D1*
X56302Y35582D1*
X56177Y35584D1*
X56055Y35609D1*
X55939Y35657D1*
X55835Y35725D1*
X55744Y35811D1*
X55672Y35912D1*
X55619Y36026D1*
X55588Y36147D1*
X55581Y36271D1*
X55596Y36395D1*
X55635Y36514D1*
X55694Y36624D1*
X55773Y36720D1*
X55869Y36800D1*
X55978Y36862D1*
X56096Y36902D1*
X56219Y36919D1*
X56344Y36913D1*
X56465Y36884D1*
X56579Y36833D1*
X56682Y36762D1*
X56769Y36673D1*
X56839Y36569D1*
X56888Y36454D1*
X56915Y36332D1*
X56920Y36250D1*
X56908Y36126D1*
Y37897D2*
X56874Y37777D1*
X56817Y37666D1*
X56741Y37567D1*
X56649Y37484D1*
X56542Y37419D1*
X56425Y37375D1*
X56302Y37354D1*
X56177Y37356D1*
X56055Y37381D1*
X55939Y37428D1*
X55835Y37496D1*
X55744Y37583D1*
X55672Y37684D1*
X55619Y37797D1*
X55588Y37918D1*
X55581Y38043D1*
X55596Y38167D1*
X55635Y38286D1*
X55694Y38395D1*
X55773Y38492D1*
X55869Y38572D1*
X55978Y38633D1*
X56096Y38673D1*
X56219Y38691D1*
X56344Y38685D1*
X56465Y38656D1*
X56579Y38605D1*
X56682Y38533D1*
X56769Y38444D1*
X56839Y38341D1*
X56888Y38226D1*
X56915Y38104D1*
X56920Y38022D1*
X56908Y37897D1*
X20870Y14505D2*
X22005D1*
Y14384D1*
X22159Y14467D1*
X22280Y14498D1*
X22405Y14505D1*
X22528Y14486D1*
X22646Y14444D1*
X22753Y14380D1*
X22845Y14295D1*
X22875Y14254D1*
X22947Y14338D1*
X23047Y14413D1*
X23159Y14467D1*
X23280Y14498D1*
X23405Y14505D1*
X23528Y14486D1*
X23646Y14444D1*
X23753Y14380D1*
X23845Y14295D1*
X23875Y14254D1*
X23947Y14338D1*
X24047Y14413D1*
X24159Y14467D1*
X24280Y14498D1*
X24405Y14505D1*
X24528Y14486D1*
X24646Y14444D1*
X24753Y14380D1*
X24845Y14295D1*
X24875Y14254D1*
X24947Y14338D1*
X25047Y14413D1*
X25159Y14467D1*
X25280Y14498D1*
X25405Y14505D1*
X25528Y14486D1*
X25646Y14444D1*
X25753Y14380D1*
X25845Y14295D1*
X25875Y14254D1*
X25947Y14338D1*
X26047Y14413D1*
X26159Y14467D1*
X26280Y14498D1*
X26405Y14505D1*
X26528Y14486D1*
X26646Y14444D1*
X26753Y14380D1*
X26845Y14295D1*
X26875Y14254D1*
X26947Y14338D1*
X27047Y14413D1*
X27159Y14467D1*
X27280Y14498D1*
X27405Y14505D1*
X27528Y14486D1*
X27646Y14444D1*
X27753Y14380D1*
X27845Y14295D1*
X27875Y14254D1*
X27947Y14338D1*
X28047Y14413D1*
X28159Y14467D1*
X28280Y14498D1*
X28405Y14505D1*
X28528Y14486D1*
X28646Y14444D1*
X28753Y14380D1*
X28845Y14295D1*
X28875Y14254D1*
X28947Y14338D1*
X29047Y14413D1*
X29159Y14467D1*
X29280Y14498D1*
X29405Y14505D1*
X29528Y14486D1*
X29646Y14444D1*
X29753Y14380D1*
X29845Y14295D1*
X29875Y14254D1*
X29929Y14321D1*
X30026Y14400D1*
X30136Y14458D1*
X30256Y14494D1*
X30380Y14505D1*
X30504Y14492D1*
X30623Y14454D1*
X30732Y14394D1*
X30828Y14314D1*
X30905Y14216D1*
X30962Y14105D1*
X30996Y13985D1*
X31005Y13850D1*
X30988Y13726D1*
X30946Y13609D1*
X30883Y13501D1*
X30799Y13409D1*
X30699Y13334D1*
X30586Y13281D1*
X30465Y13251D1*
X30340Y13246D1*
X30217Y13265D1*
X30100Y13308D1*
X29993Y13373D1*
X29902Y13458D1*
X29875Y13492D1*
X29817Y13426D1*
X29720Y13348D1*
X29609Y13290D1*
X29489Y13255D1*
X29365Y13245D1*
X29241Y13259D1*
X29122Y13298D1*
X29014Y13359D1*
X28919Y13440D1*
X28878Y13492D1*
X28817Y13426D1*
X28720Y13348D1*
X28609Y13290D1*
X28489Y13255D1*
X28365Y13245D1*
X28241Y13259D1*
X28122Y13298D1*
X28014Y13359D1*
X27919Y13440D1*
X27878Y13492D1*
X27817Y13426D1*
X27720Y13348D1*
X27609Y13290D1*
X27489Y13255D1*
X27365Y13245D1*
X27241Y13259D1*
X27122Y13298D1*
X27014Y13359D1*
X26919Y13440D1*
X26878Y13492D1*
X26817Y13426D1*
X26720Y13348D1*
X26609Y13290D1*
X26489Y13255D1*
X26365Y13245D1*
X26241Y13259D1*
X26122Y13298D1*
X26014Y13359D1*
X25919Y13440D1*
X25878Y13492D1*
X25817Y13426D1*
X25720Y13348D1*
X25609Y13290D1*
X25489Y13255D1*
X25365Y13245D1*
X25241Y13259D1*
X25122Y13298D1*
X25014Y13359D1*
X24919Y13440D1*
X24878Y13492D1*
X24817Y13426D1*
X24720Y13348D1*
X24609Y13290D1*
X24489Y13255D1*
X24365Y13245D1*
X24241Y13259D1*
X24122Y13298D1*
X24014Y13359D1*
X23919Y13440D1*
X23878Y13492D1*
X23817Y13426D1*
X23720Y13348D1*
X23609Y13290D1*
X23489Y13255D1*
X23365Y13245D1*
X23241Y13259D1*
X23122Y13298D1*
X23014Y13359D1*
X22919Y13440D1*
X22878Y13492D1*
X22817Y13426D1*
X22720Y13348D1*
X22609Y13290D1*
X22489Y13255D1*
X22365Y13245D1*
X22241Y13259D1*
X22122Y13298D1*
X22005Y13366D1*
Y13245D1*
X20745D1*
Y14505D1*
X20870D1*
X49099Y15185D2*
X49011Y15292D1*
X48972Y15403D1*
X48968Y15830D1*
Y16045D1*
X48991Y16167D1*
X49066Y16282D1*
X49165Y16381D1*
X49239Y16436D1*
X49349Y16475D1*
X49598Y16479D1*
X49736Y16449D1*
X49776Y16429D1*
X49894Y16468D1*
X50019Y16478D1*
X50142Y16459D1*
X50250Y16416D1*
X50370Y16463D1*
X50494Y16479D1*
X50618Y16466D1*
X50735Y16424D1*
X50840Y16356D1*
X50926Y16266D1*
X50988Y16158D1*
X51024Y16038D1*
X51032Y15822D1*
X51028Y15553D1*
X51017Y15429D1*
X50974Y15312D1*
X50905Y15208D1*
X50814Y15124D1*
X50705Y15062D1*
X50585Y15028D1*
X50460Y15023D1*
X50338Y15047D1*
X50249Y15087D1*
X50182Y15053D1*
X50060Y15025D1*
X49936D1*
X49814Y15055D1*
X49775Y15071D1*
X49651Y15025D1*
X49402Y15021D1*
X49279Y15044D1*
X49165Y15119D1*
X49099Y15185D1*
X8000Y21524D2*
D14*
Y20226D1*
X7351Y20875D2*
X8649D1*
X5500Y6024D2*
Y4726D1*
X4851Y5375D2*
X6149D1*
X7250Y17274D2*
Y15976D1*
X6601Y16625D2*
X7899D1*
X20250Y7774D2*
Y6476D1*
X19601Y7125D2*
X20899D1*
X37625Y10399D2*
Y9101D1*
X36976Y9750D2*
X38274D1*
X47375Y6899D2*
Y5601D1*
X46726Y6250D2*
X48024D1*
X45875Y16399D2*
Y15101D1*
X45226Y15750D2*
X45875D1*
X54250Y16399D2*
Y15750D1*
X53601D2*
X54899D1*
X17875Y17524D2*
Y16226D1*
X17226Y16875D2*
X18524D1*
X32500Y15524D2*
Y14226D1*
X31851Y14875D2*
X33149D1*
X46120Y37460D2*
Y36290D1*
X45535Y36875D2*
X46120D1*
X42000Y4130D2*
Y3500D1*
X42630D1*
X20500Y37630D2*
Y36370D1*
X19870Y37000D2*
X20500D1*
X39500Y37630D2*
Y37000D1*
X40130D1*
X9496Y30709D2*
Y29291D1*
X8788Y30000D2*
X10205D1*
X5000Y23705D2*
Y22445D1*
Y23075D2*
X5630D1*
X11044Y12705D2*
Y10923D1*
X10153Y11814D2*
X11935D1*
X11044Y4205D2*
Y3314D1*
X10153D2*
X11935D1*
X6794Y8455D2*
Y6673D1*
X5903Y7564D2*
X7685D1*
X15294Y8455D2*
Y6673D1*
X14403Y7564D2*
X16185D1*
X41516Y8268D2*
Y6811D1*
X40788Y7539D2*
X42244D1*
X49016Y8268D2*
Y6811D1*
X48288Y7539D2*
X49744D1*
X53691Y38691D2*
Y37352D1*
X53022Y38022D2*
X54360D1*
X33000Y6005D2*
Y5375D1*
X33630D1*
X5500Y37910D2*
Y37240D1*
X8500Y35740D2*
Y35070D1*
X30375Y14505D2*
Y13245D1*
Y13875D2*
X31005D1*
X40125Y14505D2*
Y13245D1*
X41125Y14505D2*
Y13875D1*
X42125Y14505D2*
Y13875D1*
X43125Y14505D2*
Y13875D1*
X43755D1*
X35125Y16875D2*
Y16245D1*
X50000Y16478D2*
Y15022D1*
D18*
X8000Y20875D3*
D19*
X10000D3*
D18*
X5500Y5375D3*
D19*
X3500D3*
D18*
X7250Y16625D3*
D19*
X5250D3*
D18*
X20250Y7125D3*
D19*
X22250D3*
D18*
X37625Y9750D3*
D19*
X35625D3*
D18*
X47375Y6250D3*
D19*
X45375D3*
D18*
X45875Y15750D3*
D19*
X46875D3*
D18*
X54250D3*
D19*
X52250D3*
D18*
X17875Y16875D3*
D19*
X19875D3*
D18*
X32500Y14875D3*
D19*
Y16875D3*
D20*
X12250Y20875D3*
D21*
Y16899D3*
D20*
X4125Y3250D3*
D21*
X8101D3*
D20*
X1625Y16625D3*
D21*
Y12649D3*
D20*
X22250Y11125D3*
D21*
X18274D3*
D20*
X35625Y7750D3*
D21*
X39601D3*
D20*
X45375Y4250D3*
D21*
X49351D3*
D22*
X47120Y36875D3*
D23*
X46120D3*
D22*
X47125Y33375D3*
D23*
X46125D3*
D20*
X18000Y3500D3*
D21*
Y2500D3*
X19000Y3500D3*
Y2500D3*
X20000Y3500D3*
Y2500D3*
X21000Y3500D3*
Y2500D3*
X22000Y3500D3*
Y2500D3*
X23000Y3500D3*
Y2500D3*
X24000Y3500D3*
Y2500D3*
X25000Y3500D3*
Y2500D3*
X26000Y3500D3*
Y2500D3*
X27000Y3500D3*
Y2500D3*
X28000Y3500D3*
Y2500D3*
X29000Y3500D3*
Y2500D3*
X30000Y3500D3*
Y2500D3*
X31000Y3500D3*
Y2500D3*
X32000Y3500D3*
Y2500D3*
X33000Y3500D3*
Y2500D3*
X34000Y3500D3*
Y2500D3*
X35000Y3500D3*
Y2500D3*
X36000Y3500D3*
Y2500D3*
X37000Y3500D3*
Y2500D3*
X38000Y3500D3*
Y2500D3*
X39000Y3500D3*
Y2500D3*
X40000Y3500D3*
Y2500D3*
X41000Y3500D3*
Y2500D3*
X42000Y3500D3*
Y2500D3*
D20*
X20500Y37000D3*
D21*
X21500D3*
X22500D3*
X23500D3*
X24500D3*
X25500D3*
X26500D3*
X27500D3*
X28500D3*
X29500D3*
X30500D3*
X31500D3*
X32500D3*
X33500D3*
X34500D3*
X35500D3*
X36500D3*
X37500D3*
X38500D3*
X39500D3*
D25*
X6504Y30000D3*
D26*
X9496D3*
G36*
X4947Y25545D2*
X4848Y25644D1*
X4652D1*
X4553Y25545D1*
Y24955D1*
X4652Y24856D1*
X4848D1*
X4947Y24955D1*
Y25545D1*
G37*
D27*
X4250Y25250D3*
X3750D3*
D28*
X19875Y14875D3*
D29*
X15875D3*
D28*
X14250Y20875D3*
D29*
Y16875D3*
D28*
X15000Y1375D3*
D29*
X11000D3*
D28*
X4125D3*
D29*
X8125D3*
D28*
X1625Y7625D3*
D29*
Y11625D3*
D28*
X3500Y16625D3*
D29*
Y12625D3*
D28*
X19875Y13000D3*
D29*
X15875D3*
D28*
X22250Y9125D3*
D29*
X18250D3*
D28*
X43750Y2500D3*
D29*
Y6500D3*
D28*
X35625Y5875D3*
D29*
X39625D3*
D28*
X51000Y2375D3*
D29*
Y6375D3*
D28*
X45375Y2375D3*
D29*
X49375D3*
D28*
X48625Y33375D3*
D29*
X52625D3*
D28*
X48625Y36875D3*
D29*
X52625D3*
D28*
X1625Y24500D3*
D29*
Y28500D3*
D21*
X5000Y23075D3*
Y21500D3*
Y19925D3*
D30*
X1063Y23469D3*
Y19531D3*
G36*
X11044Y11257D2*
X10487Y11814D1*
X11044Y12371D1*
X11601Y11814D1*
X11044Y11257D1*
G37*
D30*
X7564Y15294D3*
X12436Y13206D3*
X8956Y16686D3*
G36*
X11044Y2757D2*
X10487Y3314D1*
X11044Y3871D1*
X11601Y3314D1*
X11044Y2757D1*
G37*
D30*
X7564Y6794D3*
X12436Y4706D3*
X8956Y8186D3*
G36*
X6794Y7007D2*
X6237Y7564D1*
X6794Y8121D1*
X7351Y7564D1*
X6794Y7007D1*
G37*
D30*
X3314Y11044D3*
X8186Y8956D3*
X4706Y12436D3*
G36*
X15294Y7007D2*
X14737Y7564D1*
X15294Y8121D1*
X15851Y7564D1*
X15294Y7007D1*
G37*
D30*
X11814Y11044D3*
X16686Y8956D3*
X13206Y12436D3*
D31*
X41516Y7539D3*
D30*
Y12461D3*
X43484Y7539D3*
Y12461D3*
D31*
X49016Y7539D3*
D30*
Y12461D3*
X50984Y7539D3*
Y12461D3*
D32*
X53691Y38022D3*
D33*
Y36250D3*
X56250D3*
Y38022D3*
D20*
X27000Y5375D3*
D21*
X28000D3*
X29000D3*
X30000D3*
X31000D3*
X32000D3*
X33000D3*
Y8375D3*
X32000D3*
X31000D3*
X30000D3*
X29000D3*
X28000D3*
X27000D3*
D34*
X9500Y37240D3*
X8500D3*
X7500D3*
X6500D3*
X5500D3*
X4500D3*
X9500Y35740D3*
X8500D3*
X7500D3*
X6500D3*
X5500D3*
X4500D3*
D20*
X21375Y13875D3*
D21*
X22375D3*
X23375D3*
X24375D3*
X25375D3*
X26375D3*
X27375D3*
X28375D3*
X29375D3*
X30375D3*
X21375Y16875D3*
X22375D3*
X23375D3*
X24375D3*
X25375D3*
X26375D3*
X27375D3*
X28375D3*
X29375D3*
X30375D3*
D20*
X34125Y13875D3*
D21*
X35125D3*
X36125D3*
X37125D3*
X38125D3*
X39125D3*
X40125D3*
X41125D3*
X42125D3*
X43125D3*
X34125Y16875D3*
X35125D3*
X36125D3*
X37125D3*
X38125D3*
X39125D3*
X40125D3*
X41125D3*
X42125D3*
X43125D3*
G36*
X49303Y15455D2*
X49402Y15356D1*
X49598D1*
X49697Y15455D1*
Y16045D1*
X49598Y16144D1*
X49402D1*
X49303Y16045D1*
Y15455D1*
G37*
D27*
X50000Y15750D3*
X50500D3*
M02*
