G04 DipTrace 2.4.0.2*
%INTop.gbr*%
%MOIN*%
%ADD13C,0.02*%
%ADD14C,0.013*%
%ADD18C,0.063*%
%ADD19R,0.063X0.063*%
%ADD20R,0.0591X0.0591*%
%ADD21C,0.0591*%
%ADD22C,0.05*%
%ADD23R,0.05X0.05*%
%ADD25R,0.0748X0.0748*%
%ADD26C,0.0748*%
%ADD27O,0.0394X0.0787*%
%ADD28C,0.06*%
%ADD29C,0.06*%
%ADD30C,0.0787*%
%ADD31R,0.0787X0.0787*%
%ADD32R,0.0669X0.0669*%
%ADD33C,0.0669*%
%ADD34C,0.067*%
%ADD35C,0.04*%
%FSLAX44Y44*%
G04*
G70*
G90*
G75*
G01*
%LNTop*%
%LPD*%
X15000Y1375D2*
D13*
X16875D1*
X18000Y2500D1*
X15000Y1375D2*
X14375Y750D1*
X3875D1*
X3250Y1375D1*
Y2375D1*
X2125Y3500D1*
Y7125D1*
X1625Y7625D1*
X1500D1*
X625Y8500D1*
Y16750D1*
X1125Y17250D1*
X2250D1*
X3750Y18750D1*
Y23375D1*
X4750Y24375D1*
Y25250D1*
Y26625D1*
X3250Y28125D1*
Y36500D1*
X4000Y37250D1*
X4510D1*
X4500Y37240D1*
X52250Y15750D2*
X50500D1*
X43750Y2500D2*
X42875Y1625D1*
X25000D1*
X18375D1*
X18000Y2000D1*
Y2500D1*
X42875Y1625D2*
X50250D1*
X51000Y2375D1*
X18000Y2500D2*
X17500D1*
X17000Y3000D1*
Y5750D1*
X19875Y8625D1*
Y13000D1*
Y14875D1*
X4500Y37240D2*
X5385Y38125D1*
X9625D1*
X10125Y37625D1*
Y36365D1*
X9500Y35740D1*
X50250Y1625D2*
X52500D1*
X53625Y2750D1*
Y14375D1*
X52250Y15750D1*
X27000Y8375D2*
Y10500D1*
X28000Y11500D1*
X32500D1*
X34125Y13125D1*
Y13875D1*
X25000Y1625D2*
X25500Y2125D1*
Y2750D1*
X25750Y3000D1*
X26250D1*
X26500Y3250D1*
Y4000D1*
X26125Y4375D1*
Y7500D1*
X27000Y8375D1*
X52250Y15750D2*
Y29375D1*
X51625Y30000D1*
X45625D1*
X45000Y30625D1*
Y34500D1*
X45625Y35125D1*
X52000D1*
X52625Y34500D1*
Y33375D1*
X22000Y3500D2*
D14*
Y3375D1*
X22375Y3000D1*
X24125D1*
X24500Y3375D1*
Y4500D1*
X25500Y5500D1*
Y11000D1*
X26875Y12375D1*
X32125D1*
X32625Y12875D1*
Y13875D1*
X33875Y15125D1*
X37500D1*
X38125Y14500D1*
Y13875D1*
X35625Y5875D2*
Y7750D1*
Y9750D2*
Y7750D1*
X39625Y5875D2*
Y7726D1*
X39601Y7750D1*
X39625Y5875D2*
X42000D1*
X42625Y6500D1*
X43750D1*
X44375D1*
X44875Y7000D1*
Y12000D1*
X44375Y12500D1*
X43445D1*
X43484Y12461D1*
X3750Y25250D2*
Y24750D1*
X3500Y24500D1*
X1625D1*
X45375Y6250D2*
Y4250D1*
Y2375D1*
X49375D2*
Y4226D1*
X49351Y4250D1*
X51000Y6375D2*
X51875D1*
X52375Y6875D1*
Y12000D1*
X51875Y12500D1*
X50945D1*
X50984Y12461D1*
X49351Y4250D2*
Y5726D1*
X50000Y6375D1*
X51000D1*
X22375Y13875D2*
Y13375D1*
X23500Y12250D1*
Y6500D1*
X22750Y5750D1*
X19750D1*
X18000Y4000D1*
Y3500D1*
X23375Y13875D2*
Y13375D1*
X23750Y13000D1*
Y6375D1*
X22875Y5500D1*
X20000D1*
X18500Y4000D1*
Y3000D1*
X19000Y2500D1*
X24375Y13875D2*
Y13375D1*
X24000Y13000D1*
Y6250D1*
X23000Y5250D1*
X20250D1*
X19000Y4000D1*
Y3500D1*
X20000Y2500D2*
X19500Y3000D1*
Y4000D1*
X20500Y5000D1*
X23125D1*
X24250Y6125D1*
Y12250D1*
X25375Y13375D1*
Y13875D1*
X20000Y3500D2*
Y4000D1*
X20750Y4750D1*
X23250D1*
X24500Y6000D1*
Y11500D1*
X26375Y13375D1*
Y13875D1*
X21000Y2500D2*
X20500Y3000D1*
Y4000D1*
X21000Y4500D1*
X23375D1*
X24750Y5875D1*
Y11375D1*
X26500Y13125D1*
X27125D1*
X27375Y13375D1*
Y13875D1*
X21000Y3500D2*
Y4000D1*
X21250Y4250D1*
X23500D1*
X25000Y5750D1*
Y11250D1*
X26625Y12875D1*
X27875D1*
X28375Y13375D1*
Y13875D1*
X22000Y2500D2*
X21500Y3000D1*
Y3625D1*
X21875Y4000D1*
X23625D1*
X25250Y5625D1*
Y11125D1*
X26750Y12625D1*
X28625D1*
X29375Y13375D1*
Y13875D1*
X34500Y35125D2*
Y37000D1*
X24375Y16875D2*
Y19125D1*
X23625Y19875D1*
X18875D1*
X17500Y21250D1*
Y34375D1*
X19000Y35875D1*
X27000D1*
X27500Y36375D1*
Y37000D1*
X25375Y16875D2*
Y19125D1*
X24375Y20125D1*
X19000D1*
X17750Y21375D1*
Y34250D1*
X19125Y35625D1*
X27750D1*
X28500Y36375D1*
Y37000D1*
X26375Y16875D2*
Y19125D1*
X25125Y20375D1*
X19125D1*
X18000Y21500D1*
Y34125D1*
X19250Y35375D1*
X28500D1*
X29500Y36375D1*
Y37000D1*
X27375Y16875D2*
Y19125D1*
X25875Y20625D1*
X19250D1*
X18250Y21625D1*
Y34000D1*
X19375Y35125D1*
X29250D1*
X30500Y36375D1*
Y37000D1*
X28375Y16875D2*
Y19125D1*
X26625Y20875D1*
X19375D1*
X18500Y21750D1*
Y33875D1*
X19500Y34875D1*
X30000D1*
X31500Y36375D1*
Y37000D1*
X29375Y16875D2*
Y19125D1*
X27375Y21125D1*
X19500D1*
X18750Y21875D1*
Y33750D1*
X19625Y34625D1*
X30750D1*
X32500Y36375D1*
Y37000D1*
X30375Y16875D2*
Y19125D1*
X28125Y21375D1*
X19625D1*
X19000Y22000D1*
Y33625D1*
X19750Y34375D1*
X31500D1*
X33500Y36375D1*
Y37000D1*
X23375Y16875D2*
Y19125D1*
X22875Y19625D1*
X18750D1*
X17250Y21125D1*
Y34500D1*
X18875Y36125D1*
X26250D1*
X26500Y36375D1*
Y37000D1*
X39000Y3500D2*
Y11000D1*
X36625Y13375D1*
Y14125D1*
X36375Y14375D1*
X35750D1*
X35125Y13750D1*
Y13875D1*
X3500Y5375D2*
Y4500D1*
X4125Y3875D1*
Y3250D1*
Y1375D1*
X8101Y3250D2*
Y1399D1*
X8125Y1375D1*
X11000D1*
X8101Y3250D2*
Y6351D1*
X9000Y7250D1*
Y8142D1*
X8956Y8186D1*
X28625Y1250D2*
X52750D1*
X55250Y3750D1*
Y16125D1*
X55500Y16375D1*
Y27750D1*
X52625Y30625D1*
X47125D1*
X46125Y31625D1*
Y33375D1*
X47120Y36875D2*
X48625D1*
X1625Y16625D2*
X3500D1*
X5250D1*
X1625Y12649D2*
X3476D1*
X3500Y12625D1*
X1625Y12649D2*
Y11625D1*
X3500Y12625D2*
X4517D1*
X4706Y12436D1*
X26000Y3500D2*
X25875D1*
X25375Y3000D1*
X24750D1*
X24500Y2750D1*
Y2250D1*
X24250Y2000D1*
X18750D1*
X18500Y2250D1*
Y2625D1*
X18125Y3000D1*
X17625D1*
X17375Y3250D1*
Y5625D1*
X21375Y9625D1*
Y13875D1*
X47125Y33375D2*
X48625D1*
X28000Y5375D2*
Y4500D1*
X29000Y3500D1*
X30000Y2500D2*
X29500Y3000D1*
Y4875D1*
X30000Y5375D1*
Y3500D2*
X31875Y5375D1*
X32000D1*
X31000Y2500D2*
X31500Y3000D1*
Y3750D1*
X32125Y4375D1*
X33250D1*
X33750Y4875D1*
Y7625D1*
X33000Y8375D1*
X31000Y3500D2*
Y3750D1*
X31875Y4625D1*
X33125D1*
X33500Y5000D1*
Y6500D1*
X33125Y6875D1*
X31750D1*
X31000Y7625D1*
Y8375D1*
X32000Y2500D2*
X31500Y2000D1*
X30750D1*
X30500Y2250D1*
Y3625D1*
X31750Y4875D1*
X32250D1*
X32500Y5125D1*
Y6375D1*
X32250Y6625D1*
X30125D1*
X29000Y7750D1*
Y8375D1*
X32000Y3500D2*
X32625Y4125D1*
X33375D1*
X34000Y4750D1*
Y11125D1*
X35500Y12625D1*
X55875Y13875D2*
Y16000D1*
X56000Y16125D1*
Y32500D1*
X52625Y35875D1*
Y36875D1*
X6500Y37240D2*
Y36740D1*
X7500Y35740D1*
Y37240D2*
X7635Y37375D1*
X7375D1*
X7000Y37750D1*
X6250D1*
X6000Y37500D1*
Y36125D1*
X6385Y35740D1*
X6500D1*
X38500Y625D2*
X38250Y375D1*
X3750D1*
X2875Y1250D1*
Y2125D1*
X1375Y3625D1*
Y4875D1*
X27000Y3500D2*
Y4000D1*
X26500Y4500D1*
Y6625D1*
X27500Y7625D1*
Y10000D1*
X28625Y11125D1*
X32750D1*
X34625Y13000D1*
Y14125D1*
X35125Y14625D1*
X37000D1*
X37125Y14500D1*
Y13875D1*
X32500Y16875D2*
D13*
X34125D1*
X19875D2*
X21375D1*
X19875D2*
Y16250D1*
X20625Y15500D1*
X31125D1*
X32500Y16875D1*
X46875Y15750D2*
X49500D1*
X46875D2*
X45000Y17625D1*
X33250D1*
X32500Y16875D1*
X25000Y3500D2*
D14*
X25750Y4250D1*
Y10875D1*
X27000Y12125D1*
X32250D1*
X32875Y12750D1*
Y13750D1*
X34000Y14875D1*
X37250D1*
X37625Y14500D1*
Y13625D1*
X37875Y13375D1*
X38625D1*
X39125Y13875D1*
Y14250D1*
X39750Y14875D1*
X51375D1*
X56250Y15750D2*
Y36250D1*
X22250Y11125D2*
Y9125D1*
Y7125D1*
X15875Y13000D2*
Y12500D1*
X17250Y11125D1*
X18274D1*
X13206Y12436D2*
X14436D1*
X15000Y13000D1*
X15875D1*
X18274Y11125D2*
Y9149D1*
X18250Y9125D1*
X26000Y2500D2*
X26500Y2000D1*
X27250D1*
X27500Y2250D1*
Y6375D1*
X28500Y7375D1*
Y10000D1*
X29250Y10750D1*
X33000D1*
X36125Y13875D1*
X10000Y20875D2*
X12250D1*
X14250D1*
X12000Y2750D2*
X11625Y2375D1*
X10375D1*
X10000Y2750D1*
X12250Y16899D2*
X14226D1*
X14250Y16875D1*
X12250Y16899D2*
X11649D1*
X11375Y16625D1*
X9017D1*
X8956Y16686D1*
X14250Y16875D2*
X15125D1*
X15875Y16125D1*
Y14875D1*
D35*
X34500Y35125D3*
X28625Y1250D3*
X35500Y12625D3*
X55875Y13875D3*
X38500Y625D3*
X1375Y4875D3*
X51375Y14875D3*
X56250Y15750D3*
X12000Y2750D3*
X10000D3*
D18*
X8000Y20875D3*
D19*
X10000D3*
D18*
X5500Y5375D3*
D19*
X3500D3*
D18*
X7250Y16625D3*
D19*
X5250D3*
D18*
X20250Y7125D3*
D19*
X22250D3*
D18*
X37625Y9750D3*
D19*
X35625D3*
D18*
X47375Y6250D3*
D19*
X45375D3*
D18*
X45875Y15750D3*
D19*
X46875D3*
D18*
X54250D3*
D19*
X52250D3*
D18*
X17875Y16875D3*
D19*
X19875D3*
D18*
X32500Y14875D3*
D19*
Y16875D3*
D20*
X12250Y20875D3*
D21*
Y16899D3*
D20*
X4125Y3250D3*
D21*
X8101D3*
D20*
X1625Y16625D3*
D21*
Y12649D3*
D20*
X22250Y11125D3*
D21*
X18274D3*
D20*
X35625Y7750D3*
D21*
X39601D3*
D20*
X45375Y4250D3*
D21*
X49351D3*
D22*
X47120Y36875D3*
D23*
X46120D3*
D22*
X47125Y33375D3*
D23*
X46125D3*
D20*
X18000Y3500D3*
D21*
Y2500D3*
X19000Y3500D3*
Y2500D3*
X20000Y3500D3*
Y2500D3*
X21000Y3500D3*
Y2500D3*
X22000Y3500D3*
Y2500D3*
X23000Y3500D3*
Y2500D3*
X24000Y3500D3*
Y2500D3*
X25000Y3500D3*
Y2500D3*
X26000Y3500D3*
Y2500D3*
X27000Y3500D3*
Y2500D3*
X28000Y3500D3*
Y2500D3*
X29000Y3500D3*
Y2500D3*
X30000Y3500D3*
Y2500D3*
X31000Y3500D3*
Y2500D3*
X32000Y3500D3*
Y2500D3*
X33000Y3500D3*
Y2500D3*
X34000Y3500D3*
Y2500D3*
X35000Y3500D3*
Y2500D3*
X36000Y3500D3*
Y2500D3*
X37000Y3500D3*
Y2500D3*
X38000Y3500D3*
Y2500D3*
X39000Y3500D3*
Y2500D3*
X40000Y3500D3*
Y2500D3*
X41000Y3500D3*
Y2500D3*
X42000Y3500D3*
Y2500D3*
D20*
X20500Y37000D3*
D21*
X21500D3*
X22500D3*
X23500D3*
X24500D3*
X25500D3*
X26500D3*
X27500D3*
X28500D3*
X29500D3*
X30500D3*
X31500D3*
X32500D3*
X33500D3*
X34500D3*
X35500D3*
X36500D3*
X37500D3*
X38500D3*
X39500D3*
D25*
X6504Y30000D3*
D26*
X9496D3*
G36*
X4947Y25545D2*
X4848Y25644D1*
X4652D1*
X4553Y25545D1*
Y24955D1*
X4652Y24856D1*
X4848D1*
X4947Y24955D1*
Y25545D1*
G37*
D27*
X4250Y25250D3*
X3750D3*
D28*
X19875Y14875D3*
D29*
X15875D3*
D28*
X14250Y20875D3*
D29*
Y16875D3*
D28*
X15000Y1375D3*
D29*
X11000D3*
D28*
X4125D3*
D29*
X8125D3*
D28*
X1625Y7625D3*
D29*
Y11625D3*
D28*
X3500Y16625D3*
D29*
Y12625D3*
D28*
X19875Y13000D3*
D29*
X15875D3*
D28*
X22250Y9125D3*
D29*
X18250D3*
D28*
X43750Y2500D3*
D29*
Y6500D3*
D28*
X35625Y5875D3*
D29*
X39625D3*
D28*
X51000Y2375D3*
D29*
Y6375D3*
D28*
X45375Y2375D3*
D29*
X49375D3*
D28*
X48625Y33375D3*
D29*
X52625D3*
D28*
X48625Y36875D3*
D29*
X52625D3*
D28*
X1625Y24500D3*
D29*
Y28500D3*
D21*
X5000Y23075D3*
Y21500D3*
Y19925D3*
D30*
X1063Y23469D3*
Y19531D3*
G36*
X11044Y11257D2*
X10487Y11814D1*
X11044Y12371D1*
X11601Y11814D1*
X11044Y11257D1*
G37*
D30*
X7564Y15294D3*
X12436Y13206D3*
X8956Y16686D3*
G36*
X11044Y2757D2*
X10487Y3314D1*
X11044Y3871D1*
X11601Y3314D1*
X11044Y2757D1*
G37*
D30*
X7564Y6794D3*
X12436Y4706D3*
X8956Y8186D3*
G36*
X6794Y7007D2*
X6237Y7564D1*
X6794Y8121D1*
X7351Y7564D1*
X6794Y7007D1*
G37*
D30*
X3314Y11044D3*
X8186Y8956D3*
X4706Y12436D3*
G36*
X15294Y7007D2*
X14737Y7564D1*
X15294Y8121D1*
X15851Y7564D1*
X15294Y7007D1*
G37*
D30*
X11814Y11044D3*
X16686Y8956D3*
X13206Y12436D3*
D31*
X41516Y7539D3*
D30*
Y12461D3*
X43484Y7539D3*
Y12461D3*
D31*
X49016Y7539D3*
D30*
Y12461D3*
X50984Y7539D3*
Y12461D3*
D32*
X53691Y38022D3*
D33*
Y36250D3*
X56250D3*
Y38022D3*
D20*
X27000Y5375D3*
D21*
X28000D3*
X29000D3*
X30000D3*
X31000D3*
X32000D3*
X33000D3*
Y8375D3*
X32000D3*
X31000D3*
X30000D3*
X29000D3*
X28000D3*
X27000D3*
D34*
X9500Y37240D3*
X8500D3*
X7500D3*
X6500D3*
X5500D3*
X4500D3*
X9500Y35740D3*
X8500D3*
X7500D3*
X6500D3*
X5500D3*
X4500D3*
D20*
X21375Y13875D3*
D21*
X22375D3*
X23375D3*
X24375D3*
X25375D3*
X26375D3*
X27375D3*
X28375D3*
X29375D3*
X30375D3*
X21375Y16875D3*
X22375D3*
X23375D3*
X24375D3*
X25375D3*
X26375D3*
X27375D3*
X28375D3*
X29375D3*
X30375D3*
D20*
X34125Y13875D3*
D21*
X35125D3*
X36125D3*
X37125D3*
X38125D3*
X39125D3*
X40125D3*
X41125D3*
X42125D3*
X43125D3*
X34125Y16875D3*
X35125D3*
X36125D3*
X37125D3*
X38125D3*
X39125D3*
X40125D3*
X41125D3*
X42125D3*
X43125D3*
G36*
X49303Y15455D2*
X49402Y15356D1*
X49598D1*
X49697Y15455D1*
Y16045D1*
X49598Y16144D1*
X49402D1*
X49303Y16045D1*
Y15455D1*
G37*
D27*
X50000Y15750D3*
X50500D3*
M02*
