M48
INCH
T01C0.019
T02C0.0276
T03C0.0354
T04C0.038
T05C0.0394
T06C0.0429
T07C0.0433
T08C0.125
T09C0.1283
%
T01
X+049000Y+025500
X+049000Y+024875
X+049000Y+022625
X+047750Y+022625
X+053625Y+024875
X+053625Y+025500
X+055375Y+028250
X+057000Y+028250
X+057000Y+028875
X+053875Y+032500
X+044900Y+036225
X+043875Y+038625
X+040875Y+038625
X+040000Y+031000
X+039250Y+031000
X+038750Y+029750
X+038000Y+029750
X+036625Y+029750
X+022375Y+027875
X+021125Y+027875
X+019875Y+026875
X+019875Y+018875
X+020250Y+017875
X+018250Y+018875
X+016250Y+016125
X+015500Y+015500
X+016500Y+015125
X+014000Y+017000
X+014625Y+017750
X+014125Y+010125
X+028000Y+013375
X+030625Y+013625
X+039625Y+013625
X+040750Y+013625
T02
X+056750Y+023375
X+057250Y+023375
X+057750Y+023375
T03
X+022000Y+032500
X+023484Y+030375
X+023484Y+029375
X+023484Y+028375
X+023484Y+027375
X+023484Y+026375
X+023484Y+025375
X+023484Y+024375
X+023484Y+023375
X+023484Y+022375
X+023484Y+021375
X+023484Y+020375
X+023484Y+019375
X+023484Y+018375
X+023484Y+017375
X+026500Y+017000
X+026500Y+018000
X+026500Y+019000
X+026500Y+020000
X+026500Y+021000
X+026500Y+022000
X+026500Y+023000
X+026500Y+024000
X+026500Y+025000
X+026500Y+026000
X+026500Y+027000
X+026500Y+028000
X+026500Y+029000
X+026500Y+030000
X+026500Y+031000
X+026500Y+032000
X+026500Y+033000
X+026500Y+034000
X+026500Y+035000
X+026500Y+036000
X+032500Y+036000
X+032500Y+035000
X+032500Y+034000
X+032500Y+033000
X+032500Y+032000
X+032500Y+031000
X+032500Y+030000
X+032500Y+029000
X+032500Y+028000
X+032500Y+027000
X+032500Y+026000
X+032500Y+025000
X+032500Y+024000
X+032500Y+023000
X+032500Y+022000
X+032500Y+021000
X+032500Y+020000
X+032500Y+019000
X+032500Y+018000
X+032500Y+017000
X+036125Y+017125
X+036125Y+016125
X+036125Y+015125
X+036125Y+014125
X+036125Y+013125
X+036125Y+012125
X+036125Y+011125
X+036125Y+010125
X+036125Y+009125
X+036125Y+008125
X+031000Y+006750
X+030000Y+006750
X+029000Y+006750
X+028000Y+006750
X+027000Y+006750
X+026000Y+006750
X+025000Y+006750
X+024000Y+006750
X+023000Y+006750
X+022000Y+006750
X+021000Y+006750
X+020000Y+006750
X+019000Y+006750
X+018000Y+006750
X+017000Y+006750
X+016000Y+006750
X+015000Y+006750
X+014000Y+006750
X+013000Y+006750
X+012000Y+006750
X+009000Y+005100
X+006000Y+005100
X+006000Y+011100
X+009000Y+011100
X+012000Y+012750
X+013000Y+012750
X+014000Y+012750
X+015000Y+012750
X+016000Y+012750
X+017000Y+012750
X+018000Y+012750
X+019000Y+012750
X+020000Y+012750
X+021000Y+012750
X+022000Y+012750
X+023000Y+012750
X+024000Y+012750
X+025000Y+012750
X+026000Y+012750
X+027000Y+012750
X+028000Y+012750
X+029000Y+012750
X+030000Y+012750
X+031000Y+012750
X+036125Y+018125
X+036125Y+019125
X+036125Y+020125
X+036125Y+021125
X+042125Y+021125
X+042125Y+020125
X+042125Y+019125
X+042125Y+018125
X+042125Y+017125
X+042125Y+016125
X+042125Y+015125
X+042125Y+014125
X+042125Y+013125
X+042125Y+012125
X+042125Y+011125
X+042125Y+010125
X+042125Y+009125
X+042125Y+008125
X+044250Y+008625
X+044250Y+009625
X+044250Y+010625
X+047250Y+010625
X+047250Y+009625
X+047250Y+008625
X+047250Y+007625
X+047250Y+006625
X+047250Y+005625
X+047250Y+004625
X+044250Y+004625
X+044250Y+005625
X+044250Y+006625
X+044250Y+007625
X+050500Y+008100
X+050500Y+009100
X+050500Y+010100
X+050500Y+011100
X+053500Y+011100
X+053500Y+010100
X+053500Y+009100
X+053500Y+008100
X+053500Y+007100
X+053500Y+006100
X+053500Y+005100
X+053500Y+004100
X+053500Y+003100
X+053500Y+002100
X+050500Y+002100
X+050500Y+003100
X+050500Y+004100
X+050500Y+005100
X+050500Y+006100
X+050500Y+007100
X+050500Y+015100
X+050500Y+016100
X+050500Y+017100
X+050500Y+018100
X+050500Y+019100
X+050500Y+020100
X+050500Y+021100
X+050500Y+022100
X+050500Y+023100
X+050500Y+024100
X+053500Y+024100
X+053500Y+023100
X+053500Y+022100
X+053500Y+021100
X+053500Y+020100
X+053500Y+019100
X+053500Y+018100
X+053500Y+017100
X+053500Y+016100
X+053500Y+015100
X+047250Y+015125
X+047250Y+016125
X+047250Y+017125
X+047250Y+018125
X+047250Y+019125
X+047250Y+020125
X+047250Y+021125
X+044250Y+021125
X+044250Y+020125
X+044250Y+019125
X+044250Y+018125
X+044250Y+017125
X+044250Y+016125
X+044250Y+015125
X+043900Y+029600
X+044900Y+029600
X+045900Y+029600
X+046900Y+029600
X+047900Y+029600
X+048900Y+029600
X+049900Y+029600
X+050900Y+029600
X+051900Y+029600
X+052900Y+029600
X+053900Y+029600
X+054900Y+029600
X+055900Y+029600
X+055900Y+035600
X+054900Y+035600
X+053900Y+035600
X+052900Y+035600
X+051900Y+035600
X+050900Y+035600
X+049900Y+035600
X+048900Y+035600
X+047900Y+035600
X+046900Y+035600
X+045900Y+035600
X+044900Y+035600
X+043900Y+035600
X+042900Y+035600
X+042900Y+029600
X+018024Y+032500
X+017500Y+030375
X+017500Y+029375
X+017500Y+028375
X+017500Y+027375
X+017500Y+026375
X+017500Y+025375
X+017500Y+024375
X+017500Y+023375
X+017500Y+022375
X+017500Y+021375
X+017500Y+020375
X+017500Y+019375
X+017500Y+018375
X+017500Y+017375
X+016000Y+022875
X+016000Y+023875
X+016000Y+024875
X+016000Y+025875
X+016000Y+026875
X+016000Y+027875
X+016000Y+028875
X+013000Y+028875
X+013000Y+027875
X+013000Y+026875
X+013000Y+025875
X+013000Y+024875
X+013000Y+023875
X+013000Y+022875
X+009000Y+023000
X+009000Y+022000
X+009000Y+021000
X+009000Y+020000
X+009000Y+019000
X+009000Y+018000
X+009000Y+017000
X+006000Y+017000
X+006000Y+018000
X+006000Y+019000
X+006000Y+020000
X+006000Y+021000
X+006000Y+022000
X+006000Y+023000
X+006000Y+024000
X+004500Y+026500
X+004500Y+029500
X+010500Y+029500
X+010500Y+026500
X+009000Y+024000
T04
X+015000Y+002500
X+016000Y+002500
X+017000Y+002500
X+018000Y+002500
X+019000Y+002500
X+020000Y+002500
X+021000Y+002500
X+021000Y+003500
X+020000Y+003500
X+019000Y+003500
X+018000Y+003500
X+017000Y+003500
X+016000Y+003500
X+015000Y+003500
X+028500Y+003500
X+029500Y+003500
X+030500Y+003500
X+031500Y+003500
X+032500Y+003500
X+033500Y+003500
X+034500Y+003500
X+034500Y+002500
X+033500Y+002500
X+032500Y+002500
X+031500Y+002500
X+030500Y+002500
X+029500Y+002500
X+028500Y+002500
X+030125Y+015000
X+034125Y+015000
X+034125Y+018000
X+034125Y+022000
X+024000Y+032500
X+022000Y+034500
X+024000Y+036500
X+018000Y+034500
X+016000Y+033000
X+016000Y+037000
X+045250Y+002375
X+049250Y+002375
X+056500Y+005100
X+056500Y+006100
X+056500Y+007100
X+056500Y+008100
X+057500Y+008100
X+057500Y+007100
X+057500Y+006100
X+057500Y+005100
X+057500Y+009100
X+056500Y+009100
X+056500Y+010100
X+057500Y+010100
X+057500Y+011100
X+057500Y+012100
X+056500Y+012100
X+056500Y+011100
X+056500Y+013100
X+056500Y+014100
X+057500Y+014100
X+057500Y+013100
T05
X+034125Y+025000
X+034125Y+024000
X+042125Y+023375
X+043125Y+023375
X+044250Y+012750
X+045250Y+012750
X+052500Y+012500
X+053500Y+012500
X+056500Y+017600
X+057500Y+017600
X+057750Y+020500
X+056750Y+020500
X+055250Y+022750
X+055250Y+023750
X+056750Y+026000
X+057750Y+026000
X+042875Y+038000
X+041875Y+038000
X+020500Y+037000
X+019500Y+037000
X+013500Y+036772
X+013500Y+035000
X+010941Y+035000
X+010941Y+036772
X+009500Y+033000
X+008500Y+033000
X+006000Y+033000
X+005000Y+033000
X+003000Y+035213
X+003000Y+036000
X+015000Y+031000
X+016000Y+031000
X+011000Y+023500
X+011000Y+022500
X+011000Y+020500
X+011000Y+019500
X+011000Y+017500
X+011000Y+016500
X+008000Y+014500
X+007000Y+014500
X+004000Y+018500
X+004000Y+019500
X+011500Y+003500
X+011500Y+002500
X+025000Y+002500
X+025000Y+003500
X+032625Y+006875
X+033625Y+006875
X+042500Y+002375
X+043500Y+002375
X+025125Y+017375
X+025125Y+018375
T06
X+003000Y+008000
X+003000Y+009091
X+003000Y+010181
X+003000Y+011272
X+003000Y+012362
X+001882Y+011817
X+001882Y+010726
X+001882Y+009636
X+001882Y+008545
T07
X+006000Y+036000
X+007000Y+036000
X+008000Y+036000
T08
X+001500Y+038500
X+001500Y+001500
X+058500Y+001500
X+058500Y+038500
T09
X+002441Y+005262
X+002441Y+015100
T00
M30
