G04 DipTrace 2.4.0.2*
%INBottom.gbr*%
%MOIN*%
%ADD13C,0.013*%
%ADD14C,0.032*%
%ADD15C,0.02*%
%ADD16C,0.025*%
%ADD20C,0.063*%
%ADD21R,0.063X0.063*%
%ADD22R,0.0709X0.0709*%
%ADD23C,0.0709*%
%ADD24R,0.0591X0.0591*%
%ADD25C,0.0591*%
%ADD26C,0.063*%
%ADD27R,0.0665X0.0665*%
%ADD28C,0.0665*%
%ADD29C,0.1874*%
%ADD30C,0.065*%
%ADD31C,0.06*%
%ADD32C,0.06*%
%ADD33R,0.0669X0.0669*%
%ADD34C,0.0669*%
%ADD35O,0.0394X0.0787*%
%ADD36O,0.0787X0.0394*%
%ADD37C,0.04*%
%FSLAX44Y44*%
G04*
G70*
G90*
G75*
G01*
%LNBottom*%
%LPD*%
X51900Y29600D2*
D13*
Y25975D1*
X53000Y24875D1*
Y15500D1*
X50375Y12875D1*
X49870D1*
X32500Y25000D2*
X31875D1*
X31500Y24625D1*
Y17125D1*
X33625Y15000D1*
X38125D1*
X38875Y14250D1*
Y12750D1*
X38125Y12000D1*
X21500D1*
X20500Y13000D1*
Y13625D1*
X50900Y29600D2*
Y26600D1*
X52750Y24750D1*
Y16250D1*
X50375Y13875D1*
X49870D1*
X32500Y26000D2*
X31875D1*
X31250Y25375D1*
Y17000D1*
X33500Y14750D1*
X38000D1*
X38625Y14125D1*
Y12875D1*
X38000Y12250D1*
X22250D1*
X21500Y13000D1*
Y13625D1*
X49900Y29600D2*
Y27225D1*
X52500Y24625D1*
Y17000D1*
X50375Y14875D1*
X49870D1*
X32500Y27000D2*
X31875D1*
X31000Y26125D1*
Y16875D1*
X33375Y14500D1*
X37875D1*
X38375Y14000D1*
Y13000D1*
X37875Y12500D1*
X23000D1*
X22500Y13000D1*
Y13625D1*
X48900Y29600D2*
Y27850D1*
X52250Y24500D1*
Y17750D1*
X50375Y15875D1*
X49870D1*
X32500Y28000D2*
X31875D1*
X30750Y26875D1*
Y16750D1*
X33250Y14250D1*
X37750D1*
X38125Y13875D1*
Y13125D1*
X37750Y12750D1*
X23750D1*
X23500Y13000D1*
Y13625D1*
X47900Y29600D2*
Y28475D1*
X52000Y24375D1*
Y18500D1*
X50375Y16875D1*
X49870D1*
X48375Y9000D2*
Y11625D1*
X49375Y12625D1*
Y16380D1*
X49870Y16875D1*
Y17875D2*
X50375D1*
X51750Y19250D1*
Y24250D1*
X46875Y29125D1*
Y29575D1*
X46900Y29600D1*
X47375Y9000D2*
Y11000D1*
X49125Y12750D1*
Y17130D1*
X49870Y17875D1*
Y18875D2*
X50375D1*
X51500Y20000D1*
Y24125D1*
X47000Y28625D1*
X46375D1*
X45875Y29125D1*
Y29575D1*
X45900Y29600D1*
X46375Y9000D2*
Y10375D1*
X48875Y12875D1*
Y17880D1*
X49870Y18875D1*
Y19875D2*
X50375D1*
X51250Y20750D1*
Y24000D1*
X46875Y28375D1*
X45625D1*
X44875Y29125D1*
Y29575D1*
X44900Y29600D1*
X45375Y9000D2*
Y9750D1*
X48625Y13000D1*
Y18630D1*
X49870Y19875D1*
X45900Y35600D2*
Y35025D1*
X45625Y34750D1*
X35000D1*
X33000Y36750D1*
X32125D1*
X31500Y36125D1*
Y34000D1*
X32500Y33000D1*
X55870Y18875D2*
X55125Y19620D1*
Y24125D1*
X55000Y24250D1*
Y26875D1*
X56875Y28750D1*
X46900Y35600D2*
Y35025D1*
X46375Y34500D1*
X34875D1*
X32875Y36500D1*
X32250D1*
X31750Y36000D1*
Y34750D1*
X32500Y34000D1*
X55870Y17875D2*
X54875Y18870D1*
Y24000D1*
X54750Y24125D1*
Y28750D1*
X55375Y29375D1*
Y31375D1*
X51375Y35375D1*
Y36250D1*
X51000Y36625D1*
X47375D1*
X46875Y36125D1*
Y35600D1*
X46900D1*
X32500Y35000D2*
X33750Y33750D1*
X47125D1*
X48375Y35000D1*
Y35875D1*
X48625Y36125D1*
X49500D1*
X49875Y35750D1*
Y35600D1*
X49900D1*
X50000D2*
X49900D1*
X55870Y14875D2*
X54125Y16620D1*
Y23625D1*
X53375Y24375D1*
Y24875D1*
X52375Y25875D1*
Y32625D1*
X51250Y33750D1*
X47125D1*
X47900Y35600D2*
Y35025D1*
X47125Y34250D1*
X34250D1*
X32500Y36000D1*
X55870Y16875D2*
X54625Y18120D1*
Y23875D1*
X54500Y24000D1*
Y29000D1*
X54375Y29125D1*
Y31375D1*
X50375Y35375D1*
Y35875D1*
X49875Y36375D1*
X48125D1*
X47875Y36125D1*
Y35600D1*
X47900D1*
X43900Y29600D2*
Y29100D1*
X44875Y28125D1*
X46750D1*
X51000Y23875D1*
Y21500D1*
X50375Y20875D1*
X49870D1*
X43900Y29600D2*
Y30225D1*
X43500Y30625D1*
X35250D1*
X34375Y31500D1*
X30000D1*
X26500Y35000D1*
X44900Y36225D2*
X43875Y37250D1*
X28875D1*
X27125Y35500D1*
X26125D1*
X25750Y35125D1*
Y34250D1*
X26000Y34000D1*
X26500D1*
X55870Y19875D2*
X55375Y20370D1*
Y24250D1*
X55250Y24375D1*
Y26500D1*
X57000Y28250D1*
X42900Y29600D2*
Y29100D1*
X44125Y27875D1*
X46625D1*
X49870Y24630D1*
Y21875D1*
X42900Y29600D2*
Y29850D1*
X42625Y30125D1*
X33500D1*
X33125Y30500D1*
X29000D1*
X26500Y33000D1*
Y32000D2*
X29875Y28625D1*
X34000Y20375D2*
X37000D1*
X19125Y19125D2*
Y26750D1*
X26500Y2000D2*
X33500D1*
X34000Y2500D1*
X25500Y13625D2*
Y14250D1*
X27375Y16125D1*
Y23125D1*
X26500Y24000D1*
X18000Y3500D2*
X17125D1*
X16375Y4250D1*
Y14500D1*
X17250Y15375D1*
X18625D1*
X22000Y18750D1*
Y19500D1*
X22875Y20375D1*
X23484D1*
X26500Y13625D2*
Y14250D1*
X27625Y15375D1*
Y24000D1*
X26625Y25000D1*
X26500D1*
X19000Y2500D2*
Y2625D1*
X18625Y3000D1*
X17250D1*
X16125Y4125D1*
Y14625D1*
X17125Y15625D1*
X18500D1*
X21750Y18875D1*
Y20250D1*
X22875Y21375D1*
X23484D1*
X27500Y13625D2*
Y14250D1*
X27875Y14625D1*
Y24625D1*
X26500Y26000D1*
X19000Y3500D2*
X18500Y4000D1*
X17000D1*
X16625Y4375D1*
Y14375D1*
X17375Y15125D1*
X18750D1*
X22250Y18625D1*
Y19250D1*
X22875Y19875D1*
X23750D1*
X24125Y20250D1*
Y21734D1*
X23484Y22375D1*
X28500Y13625D2*
Y14250D1*
X28125Y14625D1*
Y25375D1*
X26500Y27000D1*
X20000Y2500D2*
X19500Y2000D1*
X16500D1*
X15875Y2625D1*
Y14750D1*
X17000Y15875D1*
X18375D1*
X21500Y19000D1*
Y22000D1*
X22875Y23375D1*
X23484D1*
X29500Y13625D2*
Y14250D1*
X28375Y15375D1*
Y26125D1*
X26375Y28125D1*
X26500Y28000D1*
X23484Y24375D2*
X22875D1*
X21250Y22750D1*
Y19125D1*
X18250Y16125D1*
X16875D1*
X15625Y14875D1*
Y2500D1*
X16375Y1750D1*
X20000D1*
X20500Y2250D1*
Y3000D1*
X20000Y3500D1*
X30500Y13625D2*
Y14250D1*
X28625Y16125D1*
Y26875D1*
X26500Y29000D1*
X21000Y2500D2*
Y1875D1*
X20625Y1500D1*
X16250D1*
X15375Y2375D1*
Y15000D1*
X16750Y16375D1*
X18125D1*
X21000Y19250D1*
Y23500D1*
X22875Y25375D1*
X23484D1*
X31500Y13625D2*
Y14250D1*
X28875Y16875D1*
Y27625D1*
X26500Y30000D1*
X23484Y26375D2*
X22875D1*
X20750Y24250D1*
Y19375D1*
X18000Y16625D1*
X16625D1*
X15125Y15125D1*
Y2250D1*
X16125Y1250D1*
X20875D1*
X21500Y1875D1*
Y3000D1*
X21000Y3500D1*
X32500Y13625D2*
Y14250D1*
X29125Y17625D1*
Y28375D1*
X26500Y31000D1*
X22000Y2500D2*
Y1875D1*
X21125Y1000D1*
X16000D1*
X14875Y2125D1*
Y15250D1*
X16500Y16875D1*
X17875D1*
X20500Y19500D1*
Y25000D1*
X22875Y27375D1*
X23484D1*
X10630Y11255D2*
X10505D1*
X10125Y10875D1*
Y9760D1*
X10630Y9255D1*
Y11255D2*
X11500Y12125D1*
Y14125D1*
X8500Y17000D2*
D14*
Y10125D1*
X7630Y9255D1*
X44375Y9000D2*
D13*
Y13000D1*
X41125Y16250D1*
Y17125D1*
X39750Y18500D1*
X15875Y21625D2*
X15500Y22000D1*
Y24875D1*
X23484Y28375D2*
X24500D1*
X25250Y27625D1*
Y20250D1*
X26000Y19500D1*
X27000D1*
X18500Y10375D2*
Y11000D1*
X17125Y12375D1*
X55870Y15875D2*
Y16130D1*
X54375Y17625D1*
Y23750D1*
X54250Y23875D1*
Y28500D1*
X53375Y29375D1*
Y32000D1*
X50250Y35125D1*
X49375D1*
X48900Y35600D1*
X26000Y3500D2*
Y3625D1*
X26500Y4125D1*
X43500D1*
X53375Y6250D2*
Y18375D1*
X43900Y35600D2*
Y35275D1*
X43625Y35000D1*
X35125D1*
X33125Y37000D1*
X32000D1*
X31125Y36125D1*
X33250Y22500D2*
X35875D1*
X53750Y20250D2*
Y5875D1*
X34000Y1750D2*
X33500Y1250D1*
X24750D1*
X24500Y1500D1*
Y2625D1*
X24875Y3000D1*
X26500D1*
X27000Y2500D1*
X11500Y5130D2*
D15*
X13005D1*
X13375Y5500D1*
Y9500D1*
X13750Y9875D1*
X14250D1*
X25500Y10750D2*
D13*
X28000D1*
Y13125D2*
X31750D1*
X32000Y13375D1*
Y14250D1*
X29375Y16875D1*
X31875Y18000D2*
Y21375D1*
X32500Y22000D1*
X23484Y29375D2*
X21750D1*
X21250Y28875D1*
X17250D1*
X16500Y28125D1*
Y26375D1*
X12250Y22125D1*
X10750D1*
X10125Y21500D1*
X26500Y20000D2*
X25875D1*
X25500Y20375D1*
Y28250D1*
X24375Y29375D1*
X23484D1*
X29500Y20000D2*
Y18466D1*
Y17625D1*
X33500Y13625D1*
X18125Y8500D2*
Y10750D1*
X17000Y11875D1*
X29500Y18466D2*
X30216D1*
X30250Y18500D1*
X34000Y19125D2*
X36500D1*
X7125Y22375D2*
D15*
X6250Y21500D1*
X4125D1*
X37500Y7625D2*
X37750D1*
X39625Y9500D1*
X50250Y6000D2*
Y6625D1*
X48750Y8125D1*
X44250D1*
X43375Y9000D1*
X13069Y27191D2*
X14569Y28691D1*
X16316D1*
X17000Y29375D1*
X17500D1*
X42750Y16500D2*
X42625D1*
X42125Y17000D1*
Y18875D1*
X42750Y19500D1*
X6625Y7750D2*
D14*
Y8250D1*
X6875Y8500D1*
X9000D1*
X9500Y9000D1*
Y11125D1*
X10630Y12255D1*
X46625Y18000D2*
D13*
X44125D1*
X26500Y17000D2*
Y16250D1*
X24500Y14250D1*
Y13625D1*
X26500Y17000D2*
X25875Y17625D1*
Y19250D1*
X25000Y20125D1*
Y27500D1*
X24625Y27875D1*
X18000D1*
X17500Y27375D1*
X8820Y4011D2*
X8750D1*
Y3250D1*
X11250Y750D1*
X23125D1*
X23500Y1125D1*
Y2750D1*
X23794Y3044D1*
X24544D1*
X25000Y3500D1*
X26375Y11125D2*
X25000D1*
X50900Y35600D2*
Y35350D1*
X53750Y32500D1*
X37375Y24500D2*
Y21000D1*
X23484Y30375D2*
X24375D1*
X25750Y29000D1*
Y23750D1*
X26500Y23000D1*
X35750Y19750D2*
X34000D1*
X28000Y4500D2*
X38250D1*
X22000Y9875D2*
Y11500D1*
Y14935D2*
X23444Y16378D1*
X16069Y28191D2*
X14566D1*
X14069Y27694D1*
Y24816D1*
D37*
X56875Y28750D3*
X44900Y36225D3*
X57000Y28250D3*
X29875Y28625D3*
X34000Y20375D3*
X37000D3*
X19125Y19125D3*
Y26750D3*
X26500Y2000D3*
X8500Y17000D3*
X15500Y24875D3*
X27000Y19500D3*
X18500Y10375D3*
X17125Y12375D3*
X43500Y4125D3*
X53375Y6250D3*
X31125Y36125D3*
X33250Y22500D3*
X35875D3*
X53750Y20250D3*
Y5875D3*
X34000Y1750D3*
X25500Y10750D3*
X28000D3*
Y13125D3*
X29375Y16875D3*
X31875Y18000D3*
X29500Y20000D3*
X18125Y8500D3*
X17000Y11875D3*
X30250Y18500D3*
X34000Y19125D3*
X36500D3*
X7125Y22375D3*
X46625Y18000D3*
X44125D3*
X26375Y11125D3*
X25000D3*
X53750Y32500D3*
X37375Y24500D3*
Y21000D3*
X35750Y19750D3*
X34000D3*
X28000Y4500D3*
X38250D3*
X22000Y9875D3*
Y11500D3*
Y14935D3*
X23444Y16378D3*
X53375Y18375D3*
X2300Y39064D2*
D16*
X57700D1*
X2433Y38815D2*
X57567D1*
X2484Y38566D2*
X13364D1*
X14800D2*
X16907D1*
X17824D2*
X17996D1*
X18914D2*
X19089D1*
X20004D2*
X20176D1*
X21093D2*
X23200D1*
X24636D2*
X40532D1*
X41218D2*
X42200D1*
X43550D2*
X57516D1*
X2468Y38318D2*
X13082D1*
X15082D2*
X16723D1*
X21277D2*
X22918D1*
X24918D2*
X40282D1*
X41468D2*
X42200D1*
X43550D2*
X57532D1*
X2382Y38069D2*
X12918D1*
X15242D2*
X16672D1*
X21328D2*
X22758D1*
X25082D2*
X40204D1*
X41546D2*
X42200D1*
X43550D2*
X57618D1*
X650Y37820D2*
X797D1*
X2203D2*
X12825D1*
X15336D2*
X16715D1*
X21285D2*
X22664D1*
X25175D2*
X40227D1*
X41523D2*
X42200D1*
X43550D2*
X57797D1*
X59203D2*
X59352D1*
X650Y37572D2*
X1231D1*
X1769D2*
X12786D1*
X15375D2*
X16125D1*
X21425D2*
X22625D1*
X25214D2*
X28614D1*
X44136D2*
X58231D1*
X58769D2*
X59352D1*
X650Y37323D2*
X12797D1*
X15367D2*
X16125D1*
X21754D2*
X22633D1*
X25203D2*
X28356D1*
X44394D2*
X59352D1*
X650Y37074D2*
X12856D1*
X15304D2*
X16125D1*
X21859D2*
X22696D1*
X25144D2*
X28110D1*
X44640D2*
X59352D1*
X650Y36826D2*
X12977D1*
X15183D2*
X16125D1*
X21863D2*
X22817D1*
X25023D2*
X27860D1*
X44890D2*
X46985D1*
X51390D2*
X59352D1*
X650Y36577D2*
X13180D1*
X14980D2*
X16125D1*
X21765D2*
X23020D1*
X24820D2*
X26223D1*
X26777D2*
X27610D1*
X45328D2*
X46735D1*
X51640D2*
X59352D1*
X650Y36328D2*
X13563D1*
X14601D2*
X16125D1*
X18199D2*
X18711D1*
X19289D2*
X19801D1*
X20382D2*
X20891D1*
X21472D2*
X23399D1*
X24437D2*
X25938D1*
X27062D2*
X27364D1*
X45449D2*
X46504D1*
X51793D2*
X59352D1*
X650Y36080D2*
X25848D1*
X52336D2*
X52466D1*
X53336D2*
X53466D1*
X54336D2*
X54466D1*
X55336D2*
X55466D1*
X56336D2*
X59352D1*
X650Y35831D2*
X25868D1*
X56511D2*
X59352D1*
X650Y35582D2*
X25618D1*
X56554D2*
X59352D1*
X650Y35333D2*
X25383D1*
X56496D2*
X59352D1*
X650Y35085D2*
X25325D1*
X52289D2*
X52512D1*
X53289D2*
X53512D1*
X54289D2*
X54512D1*
X55289D2*
X55512D1*
X56289D2*
X59352D1*
X650Y34836D2*
X17903D1*
X18734D2*
X20028D1*
X20859D2*
X22153D1*
X22984D2*
X25325D1*
X52504D2*
X59352D1*
X650Y34587D2*
X12555D1*
X13586D2*
X15555D1*
X16586D2*
X17704D1*
X18933D2*
X19829D1*
X21058D2*
X21954D1*
X23183D2*
X25325D1*
X52754D2*
X59352D1*
X650Y34339D2*
X5305D1*
X6332D2*
X8305D1*
X9332D2*
X12430D1*
X13707D2*
X15430D1*
X16707D2*
X17645D1*
X18992D2*
X19770D1*
X21117D2*
X21895D1*
X23242D2*
X25325D1*
X53004D2*
X59352D1*
X650Y34090D2*
X5180D1*
X6457D2*
X8180D1*
X9457D2*
X12422D1*
X13714D2*
X15422D1*
X16714D2*
X17684D1*
X18953D2*
X19809D1*
X21078D2*
X21934D1*
X23203D2*
X25360D1*
X53250D2*
X59352D1*
X650Y33841D2*
X789D1*
X1711D2*
X5172D1*
X6464D2*
X8172D1*
X9464D2*
X12520D1*
X13617D2*
X15520D1*
X16617D2*
X17848D1*
X18789D2*
X19973D1*
X20914D2*
X22098D1*
X23039D2*
X25567D1*
X53500D2*
X59352D1*
X1871Y33593D2*
X5270D1*
X6371D2*
X8270D1*
X9371D2*
X12559D1*
X13578D2*
X15559D1*
X16578D2*
X25993D1*
X53750D2*
X59352D1*
X1902Y33344D2*
X5590D1*
X6046D2*
X8590D1*
X9046D2*
X12434D1*
X13707D2*
X15434D1*
X16707D2*
X25946D1*
X53996D2*
X59352D1*
X1836Y33095D2*
X12422D1*
X13718D2*
X15422D1*
X16718D2*
X25852D1*
X54246D2*
X59352D1*
X650Y32847D2*
X899D1*
X1601D2*
X12516D1*
X13621D2*
X15516D1*
X16621D2*
X17645D1*
X18992D2*
X19770D1*
X21117D2*
X21895D1*
X23242D2*
X25864D1*
X54496D2*
X59352D1*
X650Y32598D2*
X809D1*
X1691D2*
X12563D1*
X13574D2*
X15563D1*
X16574D2*
X17645D1*
X18992D2*
X19770D1*
X21117D2*
X21895D1*
X23242D2*
X25989D1*
X54742D2*
X59352D1*
X1863Y32349D2*
X12434D1*
X13703D2*
X15434D1*
X16703D2*
X17645D1*
X18992D2*
X19770D1*
X21117D2*
X21895D1*
X23242D2*
X25950D1*
X54992D2*
X59352D1*
X1906Y32101D2*
X12418D1*
X13718D2*
X15418D1*
X16718D2*
X17645D1*
X18992D2*
X19770D1*
X21117D2*
X21895D1*
X23242D2*
X25852D1*
X55242D2*
X59352D1*
X1843Y31852D2*
X12512D1*
X13625D2*
X15512D1*
X16625D2*
X17645D1*
X18992D2*
X19770D1*
X21117D2*
X21895D1*
X23242D2*
X25864D1*
X55488D2*
X59352D1*
X650Y31603D2*
X871D1*
X1629D2*
X12567D1*
X13570D2*
X15567D1*
X16570D2*
X25985D1*
X55730D2*
X59352D1*
X650Y31354D2*
X829D1*
X1671D2*
X12434D1*
X13703D2*
X15434D1*
X16703D2*
X25954D1*
X55800D2*
X59352D1*
X1859Y31106D2*
X12418D1*
X13718D2*
X15418D1*
X16718D2*
X25852D1*
X55800D2*
X59352D1*
X1906Y30857D2*
X12508D1*
X13629D2*
X15508D1*
X16629D2*
X16844D1*
X18156D2*
X23055D1*
X23914D2*
X25860D1*
X55800D2*
X59352D1*
X1851Y30608D2*
X12571D1*
X13566D2*
X15571D1*
X16566D2*
X16844D1*
X18156D2*
X22875D1*
X24734D2*
X25981D1*
X55800D2*
X59352D1*
X650Y30360D2*
X848D1*
X1652D2*
X12438D1*
X13703D2*
X15438D1*
X16703D2*
X16847D1*
X18156D2*
X22829D1*
X24980D2*
X25957D1*
X55800D2*
X59352D1*
X650Y30111D2*
X12418D1*
X13718D2*
X15418D1*
X16718D2*
X16847D1*
X18156D2*
X22887D1*
X25230D2*
X25856D1*
X56293D2*
X59352D1*
X650Y29862D2*
X12504D1*
X13632D2*
X15504D1*
X16632D2*
X16844D1*
X18156D2*
X23059D1*
X25480D2*
X25860D1*
X56500D2*
X59352D1*
X650Y29614D2*
X12579D1*
X13562D2*
X15579D1*
X18109D2*
X21399D1*
X25726D2*
X25977D1*
X33023D2*
X42246D1*
X56554D2*
X59352D1*
X650Y29365D2*
X12438D1*
X13699D2*
X15438D1*
X18156D2*
X21149D1*
X33039D2*
X42246D1*
X56511D2*
X59352D1*
X650Y29116D2*
X10676D1*
X11711D2*
X12418D1*
X13718D2*
X14454D1*
X33144D2*
X42246D1*
X56328D2*
X56460D1*
X57289D2*
X59352D1*
X650Y28868D2*
X10543D1*
X11843D2*
X12504D1*
X13636D2*
X14106D1*
X33140D2*
X42551D1*
X55457D2*
X56329D1*
X57421D2*
X59352D1*
X650Y28619D2*
X10524D1*
X11863D2*
X12582D1*
X13558D2*
X13856D1*
X33027D2*
X42789D1*
X55211D2*
X56153D1*
X57418D2*
X59352D1*
X650Y28370D2*
X5332D1*
X6304D2*
X8164D1*
X9472D2*
X10602D1*
X11785D2*
X12438D1*
X33035D2*
X43039D1*
X55175D2*
X55907D1*
X57546D2*
X59352D1*
X650Y28122D2*
X5192D1*
X6449D2*
X8164D1*
X9472D2*
X10856D1*
X11531D2*
X12418D1*
X33144D2*
X43289D1*
X55175D2*
X55657D1*
X57543D2*
X59352D1*
X650Y27873D2*
X5168D1*
X6472D2*
X8164D1*
X9472D2*
X12500D1*
X33140D2*
X43536D1*
X55175D2*
X55407D1*
X57406D2*
X59352D1*
X650Y27624D2*
X5250D1*
X6390D2*
X8164D1*
X9472D2*
X12586D1*
X33031D2*
X43786D1*
X56964D2*
X59352D1*
X650Y27375D2*
X5516D1*
X6121D2*
X8164D1*
X9472D2*
X12442D1*
X24140D2*
X24536D1*
X33031D2*
X46536D1*
X56714D2*
X59352D1*
X650Y27127D2*
X10520D1*
X11867D2*
X12418D1*
X24089D2*
X24575D1*
X33144D2*
X46782D1*
X56468D2*
X59352D1*
X650Y26878D2*
X10520D1*
X11867D2*
X12496D1*
X23898D2*
X24575D1*
X33144D2*
X47032D1*
X56218D2*
X59352D1*
X650Y26629D2*
X10520D1*
X11867D2*
X12758D1*
X13379D2*
X13645D1*
X24086D2*
X24575D1*
X33035D2*
X34125D1*
X34500D2*
X47282D1*
X55968D2*
X59352D1*
X650Y26381D2*
X10520D1*
X11867D2*
X13645D1*
X24140D2*
X24575D1*
X33027D2*
X33762D1*
X34863D2*
X47528D1*
X56300D2*
X59352D1*
X650Y26132D2*
X10520D1*
X11867D2*
X13645D1*
X24089D2*
X24575D1*
X33140D2*
X33653D1*
X34972D2*
X47778D1*
X56410D2*
X59352D1*
X650Y25883D2*
X13645D1*
X16597D2*
X17082D1*
X23902D2*
X24575D1*
X33144D2*
X33649D1*
X34976D2*
X48028D1*
X56414D2*
X59352D1*
X650Y25635D2*
X13645D1*
X16351D2*
X16903D1*
X24082D2*
X24575D1*
X33039D2*
X33750D1*
X34875D2*
X48274D1*
X56312D2*
X59352D1*
X3148Y25386D2*
X11731D1*
X12406D2*
X13395D1*
X16101D2*
X16844D1*
X24140D2*
X24575D1*
X33023D2*
X34075D1*
X34550D2*
X48524D1*
X55988D2*
X56852D1*
X3148Y25137D2*
X11481D1*
X12660D2*
X13395D1*
X15992D2*
X16891D1*
X24093D2*
X24575D1*
X33140D2*
X48774D1*
X55675D2*
X56852D1*
X3148Y24889D2*
X11399D1*
X12738D2*
X13395D1*
X16058D2*
X17075D1*
X23910D2*
X24575D1*
X33144D2*
X36981D1*
X37769D2*
X49020D1*
X55675D2*
X56852D1*
X3148Y24640D2*
X11418D1*
X12718D2*
X13395D1*
X16004D2*
X16903D1*
X24082D2*
X24575D1*
X33043D2*
X33637D1*
X34988D2*
X36832D1*
X37918D2*
X49270D1*
X55675D2*
X56852D1*
X3148Y24391D2*
X11551D1*
X12586D2*
X13395D1*
X15925D2*
X16844D1*
X24140D2*
X24575D1*
X33019D2*
X33637D1*
X34988D2*
X36825D1*
X37925D2*
X49446D1*
X55773D2*
X56852D1*
X3148Y24143D2*
X13676D1*
X14859D2*
X15075D1*
X15925D2*
X16891D1*
X24093D2*
X24575D1*
X33140D2*
X33637D1*
X34988D2*
X36950D1*
X37800D2*
X49446D1*
X55800D2*
X56852D1*
X3148Y23894D2*
X13430D1*
X14609D2*
X15075D1*
X15925D2*
X17067D1*
X23918D2*
X24575D1*
X33148D2*
X33637D1*
X34988D2*
X36950D1*
X37800D2*
X49446D1*
X55800D2*
X56852D1*
X3148Y23645D2*
X13180D1*
X14359D2*
X15075D1*
X15925D2*
X16907D1*
X24078D2*
X24575D1*
X33046D2*
X33637D1*
X34988D2*
X36950D1*
X37800D2*
X49446D1*
X55800D2*
X56852D1*
X3148Y23396D2*
X12930D1*
X14113D2*
X15075D1*
X15925D2*
X16844D1*
X24140D2*
X24575D1*
X33015D2*
X33637D1*
X34988D2*
X36950D1*
X37800D2*
X49446D1*
X55800D2*
X56852D1*
X3148Y23148D2*
X12684D1*
X13863D2*
X15075D1*
X15925D2*
X16887D1*
X24097D2*
X24575D1*
X33136D2*
X36950D1*
X37800D2*
X49446D1*
X55800D2*
X56852D1*
X3148Y22899D2*
X6993D1*
X7257D2*
X12434D1*
X13613D2*
X15075D1*
X15925D2*
X17063D1*
X23921D2*
X24575D1*
X36257D2*
X36950D1*
X37800D2*
X39239D1*
X40261D2*
X42239D1*
X43261D2*
X44489D1*
X45511D2*
X47489D1*
X48511D2*
X49446D1*
X55800D2*
X56852D1*
X3148Y22650D2*
X6641D1*
X7609D2*
X12184D1*
X13367D2*
X15075D1*
X15925D2*
X16907D1*
X24078D2*
X24575D1*
X36414D2*
X36950D1*
X37800D2*
X39114D1*
X40386D2*
X42114D1*
X43386D2*
X44364D1*
X45636D2*
X47364D1*
X48636D2*
X49446D1*
X55800D2*
X56852D1*
X3148Y22402D2*
X6512D1*
X7683D2*
X10438D1*
X13117D2*
X15075D1*
X15925D2*
X16844D1*
X24140D2*
X24575D1*
X36425D2*
X36950D1*
X37800D2*
X39102D1*
X40398D2*
X42102D1*
X43398D2*
X44352D1*
X45648D2*
X47352D1*
X48648D2*
X49215D1*
X56242D2*
X56852D1*
X3148Y22153D2*
X6262D1*
X7636D2*
X10188D1*
X12867D2*
X15075D1*
X16254D2*
X16887D1*
X24296D2*
X24575D1*
X36308D2*
X36950D1*
X37800D2*
X39200D1*
X40300D2*
X42200D1*
X43300D2*
X44450D1*
X45550D2*
X47450D1*
X48550D2*
X49215D1*
X56461D2*
X56852D1*
X3148Y21904D2*
X3618D1*
X7406D2*
X9618D1*
X12621D2*
X15086D1*
X16468D2*
X17055D1*
X33148D2*
X33473D1*
X34777D2*
X36950D1*
X37800D2*
X39243D1*
X40257D2*
X42243D1*
X43257D2*
X44493D1*
X45507D2*
X47493D1*
X48507D2*
X49215D1*
X56523D2*
X56852D1*
X3148Y21656D2*
X3489D1*
X7046D2*
X9489D1*
X10871D2*
X11215D1*
X12535D2*
X15215D1*
X16535D2*
X16911D1*
X33054D2*
X33567D1*
X34683D2*
X36950D1*
X37800D2*
X39114D1*
X40386D2*
X42114D1*
X43386D2*
X44364D1*
X45636D2*
X47364D1*
X48636D2*
X49215D1*
X56484D2*
X56852D1*
X3148Y21407D2*
X3477D1*
X6796D2*
X9477D1*
X10773D2*
X11254D1*
X12496D2*
X15254D1*
X16496D2*
X16844D1*
X33007D2*
X33871D1*
X34379D2*
X36950D1*
X37800D2*
X39102D1*
X40398D2*
X42102D1*
X43398D2*
X44352D1*
X45648D2*
X47352D1*
X48648D2*
X49215D1*
X56316D2*
X56852D1*
X3148Y21158D2*
X3571D1*
X6543D2*
X9571D1*
X10679D2*
X11418D1*
X12332D2*
X15418D1*
X16332D2*
X16883D1*
X33136D2*
X36840D1*
X37910D2*
X39196D1*
X40304D2*
X42196D1*
X43304D2*
X44446D1*
X45554D2*
X47446D1*
X48554D2*
X49282D1*
X56457D2*
X56852D1*
X3148Y20910D2*
X3879D1*
X4371D2*
X9879D1*
X10371D2*
X17051D1*
X33148D2*
X33957D1*
X34041D2*
X36825D1*
X37925D2*
X39246D1*
X40254D2*
X42246D1*
X43254D2*
X44496D1*
X45504D2*
X47496D1*
X48504D2*
X49215D1*
X56523D2*
X56852D1*
X3148Y20661D2*
X16914D1*
X33054D2*
X33524D1*
X37812D2*
X39118D1*
X40382D2*
X42118D1*
X43382D2*
X44368D1*
X45632D2*
X47368D1*
X48632D2*
X49250D1*
X56488D2*
X56852D1*
X3148Y20412D2*
X16844D1*
X33004D2*
X33442D1*
X37558D2*
X39102D1*
X40398D2*
X42102D1*
X43398D2*
X44352D1*
X45648D2*
X47352D1*
X48648D2*
X49418D1*
X56324D2*
X56852D1*
X3148Y20164D2*
X16883D1*
X33132D2*
X33485D1*
X37515D2*
X39192D1*
X40308D2*
X42192D1*
X43308D2*
X44442D1*
X45558D2*
X47442D1*
X48558D2*
X49286D1*
X56457D2*
X56852D1*
X3148Y19915D2*
X17043D1*
X24379D2*
X24633D1*
X33148D2*
X33465D1*
X36285D2*
X36704D1*
X37296D2*
X39250D1*
X40250D2*
X42250D1*
X43250D2*
X44500D1*
X45500D2*
X47500D1*
X48500D2*
X49215D1*
X56523D2*
X56852D1*
X3148Y19666D2*
X16914D1*
X24132D2*
X24868D1*
X33058D2*
X33446D1*
X36304D2*
X39118D1*
X40382D2*
X42118D1*
X43382D2*
X44368D1*
X45632D2*
X47368D1*
X48632D2*
X49071D1*
X56488D2*
X56852D1*
X3148Y19417D2*
X16848D1*
X24136D2*
X24743D1*
X32996D2*
X33528D1*
X36972D2*
X39102D1*
X40398D2*
X42028D1*
X43398D2*
X44352D1*
X45648D2*
X47352D1*
X48648D2*
X48821D1*
X56328D2*
X56852D1*
X3148Y19169D2*
X11325D1*
X12222D2*
X15411D1*
X24105D2*
X24520D1*
X33132D2*
X33442D1*
X37058D2*
X39188D1*
X40312D2*
X41778D1*
X43312D2*
X44438D1*
X45562D2*
X47438D1*
X56453D2*
X56852D1*
X3148Y18920D2*
X3469D1*
X4781D2*
X9629D1*
X10621D2*
X11125D1*
X12421D2*
X15411D1*
X16839D2*
X17039D1*
X22675D2*
X23024D1*
X23945D2*
X24454D1*
X33152D2*
X33481D1*
X37019D2*
X39254D1*
X40246D2*
X41668D1*
X43246D2*
X44504D1*
X45496D2*
X47504D1*
X56523D2*
X56852D1*
X3148Y18671D2*
X3469D1*
X4781D2*
X9493D1*
X10757D2*
X11063D1*
X12488D2*
X15411D1*
X22675D2*
X22903D1*
X24066D2*
X24485D1*
X33062D2*
X33692D1*
X34308D2*
X36192D1*
X36808D2*
X39118D1*
X40382D2*
X41664D1*
X43382D2*
X44368D1*
X45632D2*
X47368D1*
X56492D2*
X56852D1*
X3148Y18423D2*
X3469D1*
X4781D2*
X9473D1*
X10777D2*
X11090D1*
X12457D2*
X15411D1*
X22621D2*
X22832D1*
X24136D2*
X24633D1*
X32992D2*
X33625D1*
X34625D2*
X39098D1*
X40418D2*
X41664D1*
X43402D2*
X43774D1*
X45652D2*
X46274D1*
X46976D2*
X47348D1*
X56336D2*
X56852D1*
X3148Y18174D2*
X3469D1*
X4781D2*
X9559D1*
X10691D2*
X11227D1*
X12320D2*
X15411D1*
X22390D2*
X22864D1*
X24105D2*
X25450D1*
X33132D2*
X33489D1*
X34761D2*
X39184D1*
X40668D2*
X41664D1*
X43316D2*
X43594D1*
X47156D2*
X47434D1*
X56449D2*
X56852D1*
X3148Y17925D2*
X3469D1*
X4781D2*
X9840D1*
X10410D2*
X17032D1*
X22140D2*
X23016D1*
X23949D2*
X25450D1*
X33152D2*
X33469D1*
X34781D2*
X39258D1*
X40914D2*
X41664D1*
X43242D2*
X43571D1*
X47179D2*
X47508D1*
X56523D2*
X56852D1*
X3148Y17677D2*
X16922D1*
X21890D2*
X22907D1*
X24062D2*
X25450D1*
X33066D2*
X33555D1*
X34695D2*
X39121D1*
X41164D2*
X41664D1*
X43379D2*
X43672D1*
X47078D2*
X47371D1*
X56492D2*
X56852D1*
X11886Y17428D2*
X16848D1*
X21644D2*
X22832D1*
X24136D2*
X24450D1*
X33156D2*
X33789D1*
X34461D2*
X37789D1*
X38461D2*
X39098D1*
X41414D2*
X41664D1*
X43402D2*
X44348D1*
X45652D2*
X47348D1*
X56339D2*
X56852D1*
X11898Y17179D2*
X16215D1*
X21394D2*
X22860D1*
X24109D2*
X24450D1*
X33156D2*
X33543D1*
X34707D2*
X37543D1*
X38707D2*
X39184D1*
X40316D2*
X40481D1*
X43316D2*
X44434D1*
X45566D2*
X47434D1*
X56445D2*
X56852D1*
X11898Y16931D2*
X15965D1*
X21148D2*
X23012D1*
X23957D2*
X24450D1*
X33156D2*
X33469D1*
X34781D2*
X37469D1*
X38781D2*
X39266D1*
X40234D2*
X40700D1*
X43406D2*
X44516D1*
X45484D2*
X47344D1*
X56523D2*
X56852D1*
X11898Y16682D2*
X15715D1*
X20898D2*
X22977D1*
X23910D2*
X24450D1*
X25800D2*
X25929D1*
X33156D2*
X33496D1*
X34754D2*
X37496D1*
X38754D2*
X39121D1*
X40379D2*
X40700D1*
X41550D2*
X41801D1*
X43406D2*
X44371D1*
X45629D2*
X47344D1*
X56496D2*
X56852D1*
X11988Y16433D2*
X15469D1*
X20648D2*
X22887D1*
X24000D2*
X24450D1*
X25800D2*
X26075D1*
X33156D2*
X33645D1*
X34605D2*
X37645D1*
X38605D2*
X39098D1*
X40402D2*
X40700D1*
X41550D2*
X42051D1*
X43406D2*
X44348D1*
X45652D2*
X47344D1*
X56343D2*
X56852D1*
X12132Y16185D2*
X15219D1*
X20402D2*
X22661D1*
X23968D2*
X25844D1*
X33031D2*
X39180D1*
X40320D2*
X40707D1*
X41781D2*
X42094D1*
X43406D2*
X44430D1*
X45570D2*
X47344D1*
X56445D2*
X56852D1*
X12156Y15936D2*
X14969D1*
X20152D2*
X22411D1*
X23769D2*
X25594D1*
X33281D2*
X39446D1*
X40054D2*
X40848D1*
X43406D2*
X44696D1*
X45304D2*
X47344D1*
X56523D2*
X56852D1*
X12078Y15687D2*
X14723D1*
X19902D2*
X22161D1*
X23343D2*
X25348D1*
X33527D2*
X41098D1*
X42277D2*
X48200D1*
X54175D2*
X54469D1*
X56496D2*
X56852D1*
X11898Y15438D2*
X14496D1*
X19656D2*
X21797D1*
X23093D2*
X25098D1*
X33777D2*
X41344D1*
X42527D2*
X48200D1*
X54175D2*
X54715D1*
X56351D2*
X56852D1*
X11898Y15190D2*
X14450D1*
X19406D2*
X21504D1*
X22847D2*
X24848D1*
X38527D2*
X41594D1*
X42777D2*
X48200D1*
X54175D2*
X54965D1*
X56441D2*
X56852D1*
X11898Y14941D2*
X14450D1*
X19156D2*
X21442D1*
X22597D2*
X24602D1*
X38773D2*
X41844D1*
X43023D2*
X48200D1*
X54175D2*
X55215D1*
X56523D2*
X56852D1*
X11898Y14692D2*
X14450D1*
X17535D2*
X21496D1*
X22504D2*
X24352D1*
X40425D2*
X41407D1*
X43273D2*
X44325D1*
X45675D2*
X46657D1*
X47343D2*
X48200D1*
X52785D2*
X52949D1*
X54175D2*
X55243D1*
X56500D2*
X56852D1*
X12074Y14444D2*
X14450D1*
X17285D2*
X21762D1*
X22238D2*
X24125D1*
X40425D2*
X41161D1*
X43523D2*
X44325D1*
X45675D2*
X46411D1*
X47589D2*
X48200D1*
X52535D2*
X52950D1*
X54175D2*
X55387D1*
X56355D2*
X56852D1*
X12156Y14195D2*
X14450D1*
X17050D2*
X18207D1*
X18793D2*
X19207D1*
X19793D2*
X20207D1*
X20793D2*
X21207D1*
X21793D2*
X22207D1*
X22793D2*
X23207D1*
X23793D2*
X24075D1*
X40425D2*
X41079D1*
X42421D2*
X42589D1*
X43769D2*
X44325D1*
X45675D2*
X46329D1*
X47671D2*
X48200D1*
X52285D2*
X52950D1*
X54175D2*
X55301D1*
X56437D2*
X56852D1*
X12132Y13946D2*
X14450D1*
X17050D2*
X17934D1*
X40425D2*
X41102D1*
X42398D2*
X42836D1*
X44019D2*
X44325D1*
X45675D2*
X46352D1*
X47648D2*
X48200D1*
X52039D2*
X52950D1*
X54175D2*
X55219D1*
X56519D2*
X56852D1*
X11996Y13698D2*
X14450D1*
X17050D2*
X17848D1*
X40425D2*
X41235D1*
X42265D2*
X43086D1*
X45675D2*
X46485D1*
X47515D2*
X48200D1*
X51789D2*
X52950D1*
X54175D2*
X55239D1*
X56500D2*
X56852D1*
X11898Y13449D2*
X14450D1*
X17050D2*
X17871D1*
X39300D2*
X43336D1*
X44515D2*
X48200D1*
X51539D2*
X52950D1*
X54175D2*
X55379D1*
X56359D2*
X56852D1*
X11898Y13200D2*
X14450D1*
X17050D2*
X18008D1*
X39300D2*
X43582D1*
X44746D2*
X48200D1*
X51293D2*
X52950D1*
X54175D2*
X55305D1*
X56433D2*
X56852D1*
X11898Y12952D2*
X14450D1*
X17050D2*
X20079D1*
X39300D2*
X43832D1*
X44800D2*
X47985D1*
X51043D2*
X52950D1*
X54175D2*
X55219D1*
X56519D2*
X56852D1*
X11898Y12703D2*
X14450D1*
X17574D2*
X20207D1*
X39296D2*
X43950D1*
X44800D2*
X47739D1*
X50793D2*
X52950D1*
X54175D2*
X55239D1*
X56500D2*
X56852D1*
X11898Y12454D2*
X14450D1*
X17679D2*
X20454D1*
X39171D2*
X43950D1*
X44800D2*
X47489D1*
X50363D2*
X52950D1*
X54175D2*
X55375D1*
X56363D2*
X56852D1*
X11898Y12206D2*
X14450D1*
X17886D2*
X20704D1*
X38921D2*
X43950D1*
X44800D2*
X47239D1*
X50433D2*
X52950D1*
X54175D2*
X55309D1*
X56433D2*
X56852D1*
X11898Y11957D2*
X14450D1*
X18132D2*
X20954D1*
X38671D2*
X43950D1*
X44800D2*
X46993D1*
X50519D2*
X52950D1*
X54175D2*
X55219D1*
X56519D2*
X56852D1*
X11898Y11708D2*
X14450D1*
X18382D2*
X21204D1*
X38421D2*
X43950D1*
X44800D2*
X46743D1*
X49050D2*
X49239D1*
X50504D2*
X52950D1*
X54175D2*
X55239D1*
X56504D2*
X56852D1*
X11898Y11459D2*
X14450D1*
X18632D2*
X21442D1*
X22558D2*
X24559D1*
X26816D2*
X43950D1*
X44800D2*
X46493D1*
X48800D2*
X49371D1*
X50367D2*
X52950D1*
X54175D2*
X55371D1*
X56367D2*
X56852D1*
X11898Y11211D2*
X14450D1*
X18863D2*
X21524D1*
X22476D2*
X24446D1*
X26929D2*
X27704D1*
X28296D2*
X43950D1*
X44800D2*
X46246D1*
X48800D2*
X49313D1*
X50429D2*
X52950D1*
X54175D2*
X55313D1*
X56429D2*
X56852D1*
X11898Y10962D2*
X14450D1*
X17050D2*
X17321D1*
X18925D2*
X21575D1*
X22425D2*
X24465D1*
X28515D2*
X43950D1*
X44800D2*
X45996D1*
X48800D2*
X49219D1*
X50519D2*
X52950D1*
X54175D2*
X55219D1*
X56519D2*
X56852D1*
X11898Y10713D2*
X13598D1*
X17050D2*
X17571D1*
X18941D2*
X21575D1*
X22425D2*
X24633D1*
X28558D2*
X43950D1*
X44800D2*
X45746D1*
X48800D2*
X49235D1*
X50504D2*
X52950D1*
X54175D2*
X55235D1*
X56504D2*
X56852D1*
X11898Y10465D2*
X13496D1*
X17050D2*
X17700D1*
X19050D2*
X21575D1*
X22425D2*
X25024D1*
X28476D2*
X43950D1*
X44800D2*
X45500D1*
X48800D2*
X49368D1*
X50375D2*
X52950D1*
X54175D2*
X55368D1*
X56375D2*
X56852D1*
X11898Y10216D2*
X13454D1*
X17050D2*
X17700D1*
X19035D2*
X21563D1*
X22437D2*
X25446D1*
X25556D2*
X27946D1*
X28056D2*
X43950D1*
X44800D2*
X45250D1*
X48800D2*
X49317D1*
X50425D2*
X52950D1*
X54175D2*
X55317D1*
X56425D2*
X56852D1*
X11898Y9967D2*
X13204D1*
X17050D2*
X17700D1*
X18871D2*
X21450D1*
X22550D2*
X38950D1*
X40300D2*
X43950D1*
X44800D2*
X45016D1*
X48800D2*
X49223D1*
X50519D2*
X52950D1*
X54175D2*
X55223D1*
X56519D2*
X56852D1*
X11894Y9719D2*
X12973D1*
X17050D2*
X17700D1*
X18550D2*
X21465D1*
X22535D2*
X38950D1*
X40300D2*
X43950D1*
X44800D2*
X44950D1*
X48800D2*
X49235D1*
X50504D2*
X52950D1*
X54175D2*
X55235D1*
X56504D2*
X56852D1*
X12062Y9470D2*
X12914D1*
X17050D2*
X17700D1*
X18550D2*
X21625D1*
X22375D2*
X38950D1*
X40300D2*
X40930D1*
X49031D2*
X49364D1*
X50379D2*
X52950D1*
X54175D2*
X55364D1*
X56379D2*
X56852D1*
X12152Y9221D2*
X12914D1*
X17050D2*
X17700D1*
X18550D2*
X38707D1*
X40300D2*
X40758D1*
X49031D2*
X49317D1*
X50421D2*
X52950D1*
X54175D2*
X55317D1*
X56421D2*
X56852D1*
X12140Y8973D2*
X12914D1*
X17050D2*
X17700D1*
X18550D2*
X38457D1*
X40300D2*
X40719D1*
X49031D2*
X49221D1*
X50519D2*
X52950D1*
X54175D2*
X55223D1*
X56519D2*
X56852D1*
X12011Y8724D2*
X12914D1*
X13836D2*
X14450D1*
X17050D2*
X17614D1*
X18636D2*
X38207D1*
X39488D2*
X40782D1*
X49031D2*
X49235D1*
X50507D2*
X52950D1*
X54175D2*
X55235D1*
X56507D2*
X56852D1*
X10148Y8475D2*
X12914D1*
X13836D2*
X14450D1*
X17050D2*
X17567D1*
X18683D2*
X37961D1*
X39242D2*
X41000D1*
X41750D2*
X42000D1*
X42750D2*
X43000D1*
X49031D2*
X49360D1*
X50382D2*
X52950D1*
X54175D2*
X55360D1*
X56382D2*
X56852D1*
X10148Y8227D2*
X12914D1*
X13836D2*
X14450D1*
X17050D2*
X17641D1*
X19156D2*
X19285D1*
X19714D2*
X20286D1*
X20714D2*
X21286D1*
X21714D2*
X22286D1*
X22714D2*
X23286D1*
X23714D2*
X24286D1*
X24714D2*
X25286D1*
X25714D2*
X26286D1*
X26714D2*
X27286D1*
X27714D2*
X28286D1*
X28714D2*
X29286D1*
X29714D2*
X30286D1*
X30714D2*
X31286D1*
X31714D2*
X32286D1*
X32714D2*
X33286D1*
X33714D2*
X34286D1*
X34714D2*
X35286D1*
X35714D2*
X36286D1*
X36714D2*
X37286D1*
X38992D2*
X43508D1*
X49289D2*
X52950D1*
X54175D2*
X56852D1*
X10148Y7978D2*
X12914D1*
X13836D2*
X14450D1*
X17050D2*
X17844D1*
X38742D2*
X39161D1*
X40089D2*
X43758D1*
X49539D2*
X52950D1*
X54175D2*
X56852D1*
X10148Y7729D2*
X12914D1*
X13836D2*
X14450D1*
X17050D2*
X17844D1*
X38496D2*
X38993D1*
X40257D2*
X44043D1*
X49785D2*
X52950D1*
X54175D2*
X56852D1*
X10148Y7480D2*
X12914D1*
X13836D2*
X14450D1*
X17050D2*
X17844D1*
X38246D2*
X38950D1*
X40300D2*
X48754D1*
X50035D2*
X52950D1*
X54175D2*
X56852D1*
X10148Y7232D2*
X12914D1*
X13836D2*
X14450D1*
X17050D2*
X17844D1*
X38019D2*
X39008D1*
X40242D2*
X49004D1*
X50285D2*
X52950D1*
X54175D2*
X56852D1*
X10148Y6983D2*
X12914D1*
X13836D2*
X14450D1*
X17050D2*
X39207D1*
X40043D2*
X49250D1*
X50531D2*
X52950D1*
X54175D2*
X56852D1*
X3148Y6734D2*
X12914D1*
X13836D2*
X14450D1*
X17050D2*
X49500D1*
X50695D2*
X52950D1*
X54175D2*
X56852D1*
X3148Y6486D2*
X12914D1*
X13836D2*
X14450D1*
X17050D2*
X40950D1*
X41800D2*
X41950D1*
X42800D2*
X42950D1*
X43800D2*
X43950D1*
X44800D2*
X44950D1*
X45800D2*
X45950D1*
X46800D2*
X46950D1*
X47800D2*
X47950D1*
X48800D2*
X49575D1*
X50925D2*
X51793D1*
X52707D2*
X52871D1*
X54175D2*
X56852D1*
X3148Y6237D2*
X12914D1*
X13836D2*
X14450D1*
X17050D2*
X40766D1*
X48984D2*
X49575D1*
X50925D2*
X51621D1*
X54175D2*
X56852D1*
X3148Y5988D2*
X12914D1*
X13836D2*
X14450D1*
X17050D2*
X40719D1*
X49031D2*
X49575D1*
X50925D2*
X51575D1*
X54296D2*
X56852D1*
X3148Y5740D2*
X5942D1*
X6308D2*
X9942D1*
X10308D2*
X11297D1*
X11703D2*
X12914D1*
X13836D2*
X14450D1*
X17050D2*
X40778D1*
X48972D2*
X49575D1*
X50925D2*
X51629D1*
X52871D2*
X53192D1*
X54293D2*
X56852D1*
X3148Y5491D2*
X5582D1*
X6668D2*
X9582D1*
X10668D2*
X10954D1*
X13836D2*
X14450D1*
X17050D2*
X40977D1*
X41773D2*
X41977D1*
X42773D2*
X42977D1*
X43773D2*
X43977D1*
X44773D2*
X44977D1*
X45773D2*
X45977D1*
X46773D2*
X46977D1*
X47773D2*
X47977D1*
X48773D2*
X49575D1*
X50925D2*
X51821D1*
X52679D2*
X53352D1*
X54148D2*
X56852D1*
X3148Y5242D2*
X5477D1*
X6773D2*
X9477D1*
X13750D2*
X14450D1*
X17050D2*
X56852D1*
X3148Y4994D2*
X5477D1*
X6773D2*
X9477D1*
X13507D2*
X14450D1*
X17050D2*
X27770D1*
X28230D2*
X38020D1*
X38480D2*
X56852D1*
X3148Y4745D2*
X5590D1*
X6660D2*
X9590D1*
X10660D2*
X10969D1*
X13230D2*
X14450D1*
X17050D2*
X27500D1*
X38750D2*
X56852D1*
X3148Y4496D2*
X6012D1*
X6238D2*
X8332D1*
X9308D2*
X10012D1*
X10238D2*
X10895D1*
X11867D2*
X14450D1*
X17093D2*
X26325D1*
X43910D2*
X56852D1*
X650Y4248D2*
X8168D1*
X9472D2*
X10727D1*
X12031D2*
X14450D1*
X18843D2*
X26032D1*
X44046D2*
X59352D1*
X650Y3999D2*
X8125D1*
X9515D2*
X10684D1*
X12074D2*
X13196D1*
X19410D2*
X19589D1*
X20410D2*
X20589D1*
X21410D2*
X21589D1*
X22410D2*
X22589D1*
X23410D2*
X23589D1*
X24410D2*
X24589D1*
X25410D2*
X25589D1*
X44046D2*
X59352D1*
X650Y3750D2*
X8180D1*
X9461D2*
X10739D1*
X12023D2*
X13196D1*
X43906D2*
X59352D1*
X650Y3501D2*
X8325D1*
X9281D2*
X10918D1*
X11839D2*
X13196D1*
X42656D2*
X59352D1*
X650Y3253D2*
X4762D1*
X6714D2*
X8325D1*
X9339D2*
X13196D1*
X42605D2*
X59352D1*
X650Y3004D2*
X4692D1*
X6804D2*
X8411D1*
X9586D2*
X13196D1*
X42414D2*
X59352D1*
X650Y2755D2*
X4692D1*
X6808D2*
X8368D1*
X9836D2*
X10684D1*
X12074D2*
X13196D1*
X42601D2*
X59352D1*
X650Y2507D2*
X4692D1*
X6804D2*
X8180D1*
X10086D2*
X10684D1*
X12074D2*
X13235D1*
X42656D2*
X59352D1*
X650Y2258D2*
X887D1*
X2113D2*
X4762D1*
X6714D2*
X8125D1*
X10332D2*
X10684D1*
X12074D2*
X13399D1*
X42605D2*
X57887D1*
X59113D2*
X59352D1*
X2339Y2009D2*
X8168D1*
X12074D2*
X14469D1*
X35421D2*
X35582D1*
X36421D2*
X36582D1*
X37421D2*
X37582D1*
X38421D2*
X38582D1*
X39421D2*
X39582D1*
X40421D2*
X40582D1*
X41421D2*
X41582D1*
X42421D2*
X57661D1*
X2449Y1761D2*
X8329D1*
X9312D2*
X9649D1*
X12074D2*
X14649D1*
X23925D2*
X24075D1*
X34558D2*
X57551D1*
X2484Y1512D2*
X9899D1*
X11078D2*
X14899D1*
X23925D2*
X24075D1*
X34504D2*
X57516D1*
X2457Y1263D2*
X10145D1*
X11328D2*
X15145D1*
X23925D2*
X24153D1*
X34246D2*
X57543D1*
X2351Y1015D2*
X10395D1*
X23910D2*
X24395D1*
X33855D2*
X57649D1*
X2144Y766D2*
X10645D1*
X23730D2*
X57856D1*
X40274Y7475D2*
X40258Y7351D1*
X40218Y7233D1*
X40156Y7125D1*
X40074Y7030D1*
X39976Y6953D1*
X39865Y6896D1*
X39745Y6861D1*
X39621Y6850D1*
X39497Y6863D1*
X39377Y6899D1*
X39267Y6957D1*
X39170Y7036D1*
X39090Y7131D1*
X39029Y7241D1*
X38990Y7359D1*
X38975Y7483D1*
X38984Y7608D1*
X39016Y7728D1*
X39071Y7840D1*
X39146Y7940D1*
X39239Y8023D1*
X39346Y8087D1*
X39464Y8130D1*
X39587Y8149D1*
X39712Y8144D1*
X39833Y8116D1*
X39947Y8064D1*
X40049Y7992D1*
X40135Y7902D1*
X40203Y7797D1*
X40249Y7681D1*
X40272Y7559D1*
X40274Y7475D1*
X34962Y25975D2*
X34945Y25851D1*
X34905Y25733D1*
X34843Y25625D1*
X34762Y25530D1*
X34664Y25453D1*
X34553Y25396D1*
X34433Y25361D1*
X34308Y25350D1*
X34184Y25363D1*
X34065Y25399D1*
X33955Y25457D1*
X33857Y25536D1*
X33777Y25631D1*
X33717Y25741D1*
X33678Y25859D1*
X33663Y25983D1*
X33672Y26108D1*
X33704Y26228D1*
X33759Y26340D1*
X33834Y26440D1*
X33927Y26523D1*
X34034Y26587D1*
X34151Y26630D1*
X34275Y26649D1*
X34399Y26644D1*
X34521Y26616D1*
X34635Y26564D1*
X34737Y26492D1*
X34823Y26402D1*
X34890Y26297D1*
X34937Y26181D1*
X34960Y26059D1*
X34962Y25975D1*
X33788Y24650D2*
X34962D1*
Y23350D1*
X33663D1*
Y24650D1*
X33788D1*
X18957Y34192D2*
X18921Y34072D1*
X18864Y33961D1*
X18786Y33864D1*
X18691Y33783D1*
X18582Y33722D1*
X18464Y33682D1*
X18340Y33666D1*
X18215Y33674D1*
X18095Y33706D1*
X17982Y33760D1*
X17882Y33835D1*
X17798Y33927D1*
X17733Y34034D1*
X17690Y34151D1*
X17670Y34274D1*
X17674Y34399D1*
X17702Y34520D1*
X17752Y34635D1*
X17824Y34737D1*
X17913Y34824D1*
X18018Y34892D1*
X18134Y34939D1*
X18256Y34963D1*
X18381D1*
X18503Y34939D1*
X18619Y34892D1*
X18724Y34824D1*
X18814Y34738D1*
X18885Y34635D1*
X18936Y34521D1*
X18963Y34400D1*
X18969Y34316D1*
X18957Y34192D1*
X17794Y32966D2*
X18969D1*
Y31666D1*
X17669D1*
Y32966D1*
X17794D1*
X11843Y28666D2*
X11827Y28542D1*
X11787Y28424D1*
X11725Y28316D1*
X11643Y28221D1*
X11545Y28144D1*
X11434Y28087D1*
X11314Y28052D1*
X11190Y28041D1*
X11066Y28054D1*
X10946Y28090D1*
X10836Y28148D1*
X10739Y28227D1*
X10659Y28322D1*
X10598Y28431D1*
X10559Y28550D1*
X10544Y28674D1*
X10553Y28799D1*
X10585Y28919D1*
X10640Y29031D1*
X10715Y29131D1*
X10808Y29214D1*
X10915Y29278D1*
X11033Y29321D1*
X11156Y29340D1*
X11281Y29335D1*
X11402Y29307D1*
X11516Y29255D1*
X11618Y29183D1*
X11704Y29093D1*
X11772Y28988D1*
X11818Y28872D1*
X11841Y28750D1*
X11843Y28666D1*
X10669Y27341D2*
X11844D1*
Y26041D1*
X10544D1*
Y27341D1*
X10669D1*
X42399Y14100D2*
X42383Y13976D1*
X42343Y13858D1*
X42281Y13750D1*
X42199Y13655D1*
X42101Y13578D1*
X41990Y13521D1*
X41870Y13486D1*
X41746Y13475D1*
X41622Y13488D1*
X41502Y13524D1*
X41392Y13582D1*
X41295Y13661D1*
X41215Y13756D1*
X41154Y13866D1*
X41115Y13984D1*
X41100Y14108D1*
X41109Y14233D1*
X41141Y14353D1*
X41196Y14465D1*
X41271Y14565D1*
X41364Y14648D1*
X41471Y14712D1*
X41589Y14755D1*
X41712Y14774D1*
X41837Y14769D1*
X41958Y14741D1*
X42072Y14689D1*
X42174Y14617D1*
X42260Y14527D1*
X42328Y14422D1*
X42374Y14306D1*
X42397Y14184D1*
X42399Y14100D1*
X39100Y14588D2*
Y14775D1*
X40400D1*
Y13475D1*
X39271D1*
X39275Y12750D1*
X39256Y12627D1*
X39197Y12513D1*
X38981Y12290D1*
X38408Y11717D1*
X38307Y11644D1*
X38185Y11605D1*
X37875Y11600D1*
X26621D1*
X26704Y11547D1*
X26792Y11460D1*
X26859Y11354D1*
X26898Y11236D1*
X26907Y11149D1*
X27645Y11150D1*
X27740Y11218D1*
X27856Y11265D1*
X27979Y11285D1*
X28103Y11275D1*
X28222Y11237D1*
X28329Y11172D1*
X28417Y11085D1*
X28484Y10979D1*
X28523Y10861D1*
X28535Y10750D1*
X28520Y10626D1*
X28478Y10509D1*
X28409Y10405D1*
X28318Y10320D1*
X28210Y10258D1*
X28090Y10223D1*
X27965Y10216D1*
X27843Y10239D1*
X27729Y10289D1*
X27651Y10348D1*
X26125Y10350D1*
X25855D1*
X25710Y10258D1*
X25590Y10223D1*
X25465Y10216D1*
X25343Y10239D1*
X25229Y10289D1*
X25129Y10364D1*
X25050Y10461D1*
X24991Y10592D1*
X24843Y10614D1*
X24729Y10664D1*
X24629Y10739D1*
X24550Y10836D1*
X24495Y10948D1*
X24468Y11069D1*
X24469Y11194D1*
X24500Y11315D1*
X24557Y11426D1*
X24639Y11520D1*
X24758Y11600D1*
X22527D1*
X22535Y11500D1*
X22520Y11376D1*
X22478Y11259D1*
X22400Y11147D1*
Y10230D1*
X22484Y10104D1*
X22523Y9986D1*
X22535Y9875D1*
X22520Y9751D1*
X22478Y9634D1*
X22409Y9530D1*
X22318Y9445D1*
X22210Y9383D1*
X22090Y9348D1*
X21965Y9341D1*
X21843Y9364D1*
X21729Y9414D1*
X21629Y9489D1*
X21550Y9586D1*
X21495Y9698D1*
X21468Y9819D1*
X21469Y9944D1*
X21500Y10065D1*
X21557Y10176D1*
X21601Y10226D1*
X21600Y11145D1*
X21550Y11211D1*
X21495Y11323D1*
X21468Y11444D1*
X21469Y11569D1*
X21478Y11603D1*
X21443Y11604D1*
X21324Y11641D1*
X21217Y11717D1*
X20217Y12717D1*
X20144Y12818D1*
X20105Y12940D1*
X20100Y13137D1*
X20003Y13242D1*
X19942Y13176D1*
X19845Y13098D1*
X19734Y13040D1*
X19614Y13005D1*
X19490Y12995D1*
X19366Y13009D1*
X19247Y13048D1*
X19139Y13109D1*
X19044Y13190D1*
X19003Y13242D1*
X18942Y13176D1*
X18845Y13098D1*
X18734Y13040D1*
X18614Y13005D1*
X18490Y12995D1*
X18366Y13009D1*
X18247Y13048D1*
X18139Y13109D1*
X18044Y13190D1*
X17967Y13288D1*
X17911Y13400D1*
X17878Y13520D1*
X17870Y13645D1*
X17886Y13769D1*
X17927Y13887D1*
X17989Y13995D1*
X18072Y14088D1*
X18172Y14163D1*
X18284Y14217D1*
X18405Y14248D1*
X18530Y14255D1*
X18653Y14236D1*
X18771Y14194D1*
X18878Y14130D1*
X18970Y14045D1*
X19000Y14004D1*
X19072Y14088D1*
X19172Y14163D1*
X19284Y14217D1*
X19405Y14248D1*
X19530Y14255D1*
X19653Y14236D1*
X19771Y14194D1*
X19878Y14130D1*
X19970Y14045D1*
X20000Y14004D1*
X20072Y14088D1*
X20172Y14163D1*
X20284Y14217D1*
X20405Y14248D1*
X20530Y14255D1*
X20653Y14236D1*
X20771Y14194D1*
X20878Y14130D1*
X20970Y14045D1*
X21000Y14004D1*
X21072Y14088D1*
X21172Y14163D1*
X21284Y14217D1*
X21405Y14248D1*
X21530Y14255D1*
X21653Y14236D1*
X21771Y14194D1*
X21878Y14130D1*
X21970Y14045D1*
X22000Y14004D1*
X22072Y14088D1*
X22172Y14163D1*
X22284Y14217D1*
X22405Y14248D1*
X22530Y14255D1*
X22653Y14236D1*
X22771Y14194D1*
X22878Y14130D1*
X22970Y14045D1*
X23000Y14004D1*
X23072Y14088D1*
X23172Y14163D1*
X23284Y14217D1*
X23405Y14248D1*
X23530Y14255D1*
X23653Y14236D1*
X23771Y14194D1*
X23878Y14130D1*
X23970Y14045D1*
X24000Y14004D1*
X24100Y14109D1*
Y14250D1*
X24119Y14373D1*
X24178Y14487D1*
X24394Y14710D1*
X26098Y16414D1*
X26100Y16512D1*
X26044Y16565D1*
X25967Y16663D1*
X25911Y16775D1*
X25878Y16895D1*
X25870Y17020D1*
X25876Y17062D1*
X25775Y17162D1*
Y16225D1*
X24475D1*
Y17525D1*
X25487D1*
X25475Y17625D1*
Y18328D1*
X25365Y18271D1*
X25245Y18236D1*
X25121Y18225D1*
X24997Y18238D1*
X24877Y18274D1*
X24767Y18332D1*
X24670Y18411D1*
X24590Y18506D1*
X24529Y18616D1*
X24490Y18734D1*
X24475Y18858D1*
X24484Y18983D1*
X24516Y19103D1*
X24571Y19215D1*
X24646Y19315D1*
X24739Y19398D1*
X24846Y19462D1*
X24964Y19505D1*
X25040Y19519D1*
X24717Y19842D1*
X24644Y19943D1*
X24605Y20065D1*
X24600Y20375D1*
Y27332D1*
X24460Y27474D1*
X24105Y27475D1*
X24115Y27375D1*
X24102Y27251D1*
X24066Y27132D1*
X24006Y27022D1*
X23926Y26926D1*
X23863Y26874D1*
X23954Y26795D1*
X24028Y26695D1*
X24080Y26581D1*
X24109Y26460D1*
X24115Y26375D1*
X24102Y26251D1*
X24066Y26132D1*
X24006Y26022D1*
X23926Y25926D1*
X23863Y25874D1*
X23954Y25795D1*
X24028Y25695D1*
X24080Y25581D1*
X24109Y25460D1*
X24115Y25375D1*
X24102Y25251D1*
X24066Y25132D1*
X24006Y25022D1*
X23926Y24926D1*
X23863Y24874D1*
X23954Y24795D1*
X24028Y24695D1*
X24080Y24581D1*
X24109Y24460D1*
X24115Y24375D1*
X24102Y24251D1*
X24066Y24132D1*
X24006Y24022D1*
X23926Y23926D1*
X23863Y23874D1*
X23954Y23795D1*
X24028Y23695D1*
X24080Y23581D1*
X24109Y23460D1*
X24115Y23375D1*
X24102Y23251D1*
X24066Y23132D1*
X24006Y23022D1*
X23926Y22926D1*
X23863Y22874D1*
X23954Y22795D1*
X24028Y22695D1*
X24080Y22581D1*
X24109Y22460D1*
Y22317D1*
X24408Y22017D1*
X24481Y21916D1*
X24520Y21794D1*
X24525Y21484D1*
Y20250D1*
X24506Y20127D1*
X24447Y20013D1*
X24231Y19790D1*
X24063Y19622D1*
X24094Y19533D1*
X24114Y19410D1*
X24107Y19275D1*
X24075Y19155D1*
X24020Y19043D1*
X23944Y18944D1*
X23868Y18875D1*
X23954Y18795D1*
X24028Y18695D1*
X24080Y18581D1*
X24109Y18460D1*
X24113Y18325D1*
X24090Y18202D1*
X24044Y18086D1*
X23977Y17981D1*
X23889Y17892D1*
X23868Y17875D1*
X23954Y17795D1*
X24028Y17695D1*
X24080Y17581D1*
X24109Y17460D1*
X24115Y17375D1*
X24102Y17251D1*
X24066Y17132D1*
X24006Y17022D1*
X23926Y16926D1*
X23829Y16848D1*
X23757Y16810D1*
X23861Y16713D1*
X23927Y16607D1*
X23967Y16489D1*
X23979Y16378D1*
X23964Y16255D1*
X23922Y16137D1*
X23853Y16033D1*
X23762Y15948D1*
X23654Y15886D1*
X23534Y15851D1*
X23475Y15848D1*
X22843Y15212D1*
X22536Y14905D1*
X22520Y14811D1*
X22478Y14694D1*
X22409Y14590D1*
X22318Y14504D1*
X22210Y14442D1*
X22090Y14407D1*
X21965Y14401D1*
X21843Y14423D1*
X21729Y14473D1*
X21629Y14549D1*
X21550Y14645D1*
X21495Y14757D1*
X21468Y14879D1*
X21469Y15004D1*
X21500Y15125D1*
X21557Y15235D1*
X21639Y15329D1*
X21740Y15402D1*
X21856Y15450D1*
X21967Y15467D1*
X22908Y16408D1*
X22944Y16568D1*
X23001Y16679D1*
X23083Y16773D1*
X23162Y16830D1*
X23028Y16940D1*
X22951Y17038D1*
X22895Y17150D1*
X22863Y17270D1*
X22854Y17395D1*
X22871Y17519D1*
X22911Y17637D1*
X22974Y17745D1*
X23057Y17838D1*
X23103Y17873D1*
X23011Y17958D1*
X22938Y18060D1*
X22887Y18174D1*
X22859Y18295D1*
X22856Y18420D1*
X22877Y18543D1*
X22922Y18659D1*
X22989Y18765D1*
X23075Y18855D1*
X23100Y18875D1*
X23011Y18958D1*
X22938Y19060D1*
X22887Y19174D1*
X22859Y19294D1*
X22652Y19087D1*
X22650Y18625D1*
X22631Y18502D1*
X22572Y18388D1*
X22356Y18165D1*
X19033Y14842D1*
X18932Y14769D1*
X18810Y14730D1*
X18500Y14725D1*
X17543D1*
X17025Y14210D1*
Y12902D1*
X17104Y12910D1*
X17228Y12900D1*
X17347Y12862D1*
X17454Y12797D1*
X17542Y12710D1*
X17609Y12604D1*
X17648Y12486D1*
X17657Y12406D1*
X18783Y11283D1*
X18856Y11182D1*
X18895Y11060D1*
X18900Y10750D1*
Y10730D1*
X18984Y10604D1*
X19023Y10486D1*
X19035Y10375D1*
X19020Y10251D1*
X18978Y10134D1*
X18909Y10030D1*
X18818Y9945D1*
X18710Y9883D1*
X18590Y9848D1*
X18524Y9844D1*
X18525Y8855D1*
X18609Y8729D1*
X18648Y8611D1*
X18660Y8500D1*
X18645Y8376D1*
X18600Y8256D1*
X19130Y8255D1*
Y8136D1*
X19284Y8217D1*
X19405Y8248D1*
X19530Y8255D1*
X19653Y8236D1*
X19771Y8194D1*
X19878Y8130D1*
X19970Y8045D1*
X20000Y8004D1*
X20072Y8088D1*
X20172Y8163D1*
X20284Y8217D1*
X20405Y8248D1*
X20530Y8255D1*
X20653Y8236D1*
X20771Y8194D1*
X20878Y8130D1*
X20970Y8045D1*
X21000Y8004D1*
X21072Y8088D1*
X21172Y8163D1*
X21284Y8217D1*
X21405Y8248D1*
X21530Y8255D1*
X21653Y8236D1*
X21771Y8194D1*
X21878Y8130D1*
X21970Y8045D1*
X22000Y8004D1*
X22072Y8088D1*
X22172Y8163D1*
X22284Y8217D1*
X22405Y8248D1*
X22530Y8255D1*
X22653Y8236D1*
X22771Y8194D1*
X22878Y8130D1*
X22970Y8045D1*
X23000Y8004D1*
X23072Y8088D1*
X23172Y8163D1*
X23284Y8217D1*
X23405Y8248D1*
X23530Y8255D1*
X23653Y8236D1*
X23771Y8194D1*
X23878Y8130D1*
X23970Y8045D1*
X24000Y8004D1*
X24072Y8088D1*
X24172Y8163D1*
X24284Y8217D1*
X24405Y8248D1*
X24530Y8255D1*
X24653Y8236D1*
X24771Y8194D1*
X24878Y8130D1*
X24970Y8045D1*
X25000Y8004D1*
X25072Y8088D1*
X25172Y8163D1*
X25284Y8217D1*
X25405Y8248D1*
X25530Y8255D1*
X25653Y8236D1*
X25771Y8194D1*
X25878Y8130D1*
X25970Y8045D1*
X26000Y8004D1*
X26072Y8088D1*
X26172Y8163D1*
X26284Y8217D1*
X26405Y8248D1*
X26530Y8255D1*
X26653Y8236D1*
X26771Y8194D1*
X26878Y8130D1*
X26970Y8045D1*
X27000Y8004D1*
X27072Y8088D1*
X27172Y8163D1*
X27284Y8217D1*
X27405Y8248D1*
X27530Y8255D1*
X27653Y8236D1*
X27771Y8194D1*
X27878Y8130D1*
X27970Y8045D1*
X28000Y8004D1*
X28072Y8088D1*
X28172Y8163D1*
X28284Y8217D1*
X28405Y8248D1*
X28530Y8255D1*
X28653Y8236D1*
X28771Y8194D1*
X28878Y8130D1*
X28970Y8045D1*
X29000Y8004D1*
X29072Y8088D1*
X29172Y8163D1*
X29284Y8217D1*
X29405Y8248D1*
X29530Y8255D1*
X29653Y8236D1*
X29771Y8194D1*
X29878Y8130D1*
X29970Y8045D1*
X30000Y8004D1*
X30072Y8088D1*
X30172Y8163D1*
X30284Y8217D1*
X30405Y8248D1*
X30530Y8255D1*
X30653Y8236D1*
X30771Y8194D1*
X30878Y8130D1*
X30970Y8045D1*
X31000Y8004D1*
X31072Y8088D1*
X31172Y8163D1*
X31284Y8217D1*
X31405Y8248D1*
X31530Y8255D1*
X31653Y8236D1*
X31771Y8194D1*
X31878Y8130D1*
X31970Y8045D1*
X32000Y8004D1*
X32072Y8088D1*
X32172Y8163D1*
X32284Y8217D1*
X32405Y8248D1*
X32530Y8255D1*
X32653Y8236D1*
X32771Y8194D1*
X32878Y8130D1*
X32970Y8045D1*
X33000Y8004D1*
X33072Y8088D1*
X33172Y8163D1*
X33284Y8217D1*
X33405Y8248D1*
X33530Y8255D1*
X33653Y8236D1*
X33771Y8194D1*
X33878Y8130D1*
X33970Y8045D1*
X34000Y8004D1*
X34072Y8088D1*
X34172Y8163D1*
X34284Y8217D1*
X34405Y8248D1*
X34530Y8255D1*
X34653Y8236D1*
X34771Y8194D1*
X34878Y8130D1*
X34970Y8045D1*
X35000Y8004D1*
X35072Y8088D1*
X35172Y8163D1*
X35284Y8217D1*
X35405Y8248D1*
X35530Y8255D1*
X35653Y8236D1*
X35771Y8194D1*
X35878Y8130D1*
X35970Y8045D1*
X36000Y8004D1*
X36072Y8088D1*
X36172Y8163D1*
X36284Y8217D1*
X36405Y8248D1*
X36530Y8255D1*
X36653Y8236D1*
X36771Y8194D1*
X36878Y8130D1*
X36970Y8045D1*
X37000Y8004D1*
X37072Y8088D1*
X37172Y8163D1*
X37284Y8217D1*
X37405Y8248D1*
X37530Y8255D1*
X37653Y8236D1*
X37723Y8211D1*
X38975Y9463D1*
Y10150D1*
X40275D1*
Y8850D1*
X39591D1*
X38054Y7315D1*
X37942Y7176D1*
X37845Y7098D1*
X37734Y7040D1*
X37614Y7005D1*
X37490Y6995D1*
X37366Y7009D1*
X37247Y7048D1*
X37139Y7109D1*
X37044Y7190D1*
X37003Y7242D1*
X36942Y7176D1*
X36845Y7098D1*
X36734Y7040D1*
X36614Y7005D1*
X36490Y6995D1*
X36366Y7009D1*
X36247Y7048D1*
X36139Y7109D1*
X36044Y7190D1*
X36003Y7242D1*
X35942Y7176D1*
X35845Y7098D1*
X35734Y7040D1*
X35614Y7005D1*
X35490Y6995D1*
X35366Y7009D1*
X35247Y7048D1*
X35139Y7109D1*
X35044Y7190D1*
X35003Y7242D1*
X34942Y7176D1*
X34845Y7098D1*
X34734Y7040D1*
X34614Y7005D1*
X34490Y6995D1*
X34366Y7009D1*
X34247Y7048D1*
X34139Y7109D1*
X34044Y7190D1*
X34003Y7242D1*
X33942Y7176D1*
X33845Y7098D1*
X33734Y7040D1*
X33614Y7005D1*
X33490Y6995D1*
X33366Y7009D1*
X33247Y7048D1*
X33139Y7109D1*
X33044Y7190D1*
X33003Y7242D1*
X32942Y7176D1*
X32845Y7098D1*
X32734Y7040D1*
X32614Y7005D1*
X32490Y6995D1*
X32366Y7009D1*
X32247Y7048D1*
X32139Y7109D1*
X32044Y7190D1*
X32003Y7242D1*
X31942Y7176D1*
X31845Y7098D1*
X31734Y7040D1*
X31614Y7005D1*
X31490Y6995D1*
X31366Y7009D1*
X31247Y7048D1*
X31139Y7109D1*
X31044Y7190D1*
X31003Y7242D1*
X30942Y7176D1*
X30845Y7098D1*
X30734Y7040D1*
X30614Y7005D1*
X30490Y6995D1*
X30366Y7009D1*
X30247Y7048D1*
X30139Y7109D1*
X30044Y7190D1*
X30003Y7242D1*
X29942Y7176D1*
X29845Y7098D1*
X29734Y7040D1*
X29614Y7005D1*
X29490Y6995D1*
X29366Y7009D1*
X29247Y7048D1*
X29139Y7109D1*
X29044Y7190D1*
X29003Y7242D1*
X28942Y7176D1*
X28845Y7098D1*
X28734Y7040D1*
X28614Y7005D1*
X28490Y6995D1*
X28366Y7009D1*
X28247Y7048D1*
X28139Y7109D1*
X28044Y7190D1*
X28003Y7242D1*
X27942Y7176D1*
X27845Y7098D1*
X27734Y7040D1*
X27614Y7005D1*
X27490Y6995D1*
X27366Y7009D1*
X27247Y7048D1*
X27139Y7109D1*
X27044Y7190D1*
X27003Y7242D1*
X26942Y7176D1*
X26845Y7098D1*
X26734Y7040D1*
X26614Y7005D1*
X26490Y6995D1*
X26366Y7009D1*
X26247Y7048D1*
X26139Y7109D1*
X26044Y7190D1*
X26003Y7242D1*
X25942Y7176D1*
X25845Y7098D1*
X25734Y7040D1*
X25614Y7005D1*
X25490Y6995D1*
X25366Y7009D1*
X25247Y7048D1*
X25139Y7109D1*
X25044Y7190D1*
X25003Y7242D1*
X24942Y7176D1*
X24845Y7098D1*
X24734Y7040D1*
X24614Y7005D1*
X24490Y6995D1*
X24366Y7009D1*
X24247Y7048D1*
X24139Y7109D1*
X24044Y7190D1*
X24003Y7242D1*
X23942Y7176D1*
X23845Y7098D1*
X23734Y7040D1*
X23614Y7005D1*
X23490Y6995D1*
X23366Y7009D1*
X23247Y7048D1*
X23139Y7109D1*
X23044Y7190D1*
X23003Y7242D1*
X22942Y7176D1*
X22845Y7098D1*
X22734Y7040D1*
X22614Y7005D1*
X22490Y6995D1*
X22366Y7009D1*
X22247Y7048D1*
X22139Y7109D1*
X22044Y7190D1*
X22003Y7242D1*
X21942Y7176D1*
X21845Y7098D1*
X21734Y7040D1*
X21614Y7005D1*
X21490Y6995D1*
X21366Y7009D1*
X21247Y7048D1*
X21139Y7109D1*
X21044Y7190D1*
X21003Y7242D1*
X20942Y7176D1*
X20845Y7098D1*
X20734Y7040D1*
X20614Y7005D1*
X20490Y6995D1*
X20366Y7009D1*
X20247Y7048D1*
X20139Y7109D1*
X20044Y7190D1*
X20003Y7242D1*
X19942Y7176D1*
X19845Y7098D1*
X19734Y7040D1*
X19614Y7005D1*
X19490Y6995D1*
X19366Y7009D1*
X19247Y7048D1*
X19130Y7116D1*
Y6995D1*
X17870D1*
Y8030D1*
X17754Y8114D1*
X17675Y8211D1*
X17620Y8323D1*
X17593Y8444D1*
X17594Y8569D1*
X17625Y8690D1*
X17682Y8801D1*
X17726Y8851D1*
X17725Y10582D1*
X17027Y11282D1*
X17025Y9875D1*
Y4543D1*
X17165Y4401D1*
X18500Y4400D1*
X18623Y4381D1*
X18737Y4322D1*
X18940Y4125D1*
X19030Y4130D1*
X19153Y4111D1*
X19271Y4069D1*
X19378Y4005D1*
X19470Y3920D1*
X19500Y3879D1*
X19572Y3963D1*
X19672Y4038D1*
X19784Y4092D1*
X19905Y4123D1*
X20030Y4130D1*
X20153Y4111D1*
X20271Y4069D1*
X20378Y4005D1*
X20470Y3920D1*
X20500Y3879D1*
X20572Y3963D1*
X20672Y4038D1*
X20784Y4092D1*
X20905Y4123D1*
X21030Y4130D1*
X21153Y4111D1*
X21271Y4069D1*
X21378Y4005D1*
X21470Y3920D1*
X21500Y3879D1*
X21572Y3963D1*
X21672Y4038D1*
X21784Y4092D1*
X21905Y4123D1*
X22030Y4130D1*
X22153Y4111D1*
X22271Y4069D1*
X22378Y4005D1*
X22470Y3920D1*
X22500Y3879D1*
X22572Y3963D1*
X22672Y4038D1*
X22784Y4092D1*
X22905Y4123D1*
X23030Y4130D1*
X23153Y4111D1*
X23271Y4069D1*
X23378Y4005D1*
X23470Y3920D1*
X23500Y3879D1*
X23572Y3963D1*
X23672Y4038D1*
X23784Y4092D1*
X23905Y4123D1*
X24030Y4130D1*
X24153Y4111D1*
X24271Y4069D1*
X24378Y4005D1*
X24470Y3920D1*
X24500Y3879D1*
X24572Y3963D1*
X24672Y4038D1*
X24784Y4092D1*
X24905Y4123D1*
X25030Y4130D1*
X25153Y4111D1*
X25271Y4069D1*
X25378Y4005D1*
X25470Y3920D1*
X25500Y3879D1*
X25572Y3963D1*
X25672Y4038D1*
X25784Y4092D1*
X25933Y4125D1*
X26217Y4408D1*
X26318Y4481D1*
X26440Y4520D1*
X26750Y4525D1*
X27465D1*
X27500Y4690D1*
X27557Y4801D1*
X27639Y4895D1*
X27740Y4968D1*
X27856Y5015D1*
X27979Y5035D1*
X28103Y5025D1*
X28222Y4987D1*
X28329Y4922D1*
X28354Y4898D1*
X29375Y4900D1*
X37895D1*
X37990Y4968D1*
X38106Y5015D1*
X38229Y5035D1*
X38353Y5025D1*
X38472Y4987D1*
X38579Y4922D1*
X38667Y4835D1*
X38734Y4729D1*
X38773Y4611D1*
X38782Y4524D1*
X43145Y4525D1*
X43240Y4593D1*
X43356Y4640D1*
X43479Y4660D1*
X43603Y4650D1*
X43722Y4612D1*
X43829Y4547D1*
X43917Y4460D1*
X43984Y4354D1*
X44023Y4236D1*
X44035Y4125D1*
X44020Y4001D1*
X43978Y3884D1*
X43909Y3780D1*
X43818Y3695D1*
X43710Y3633D1*
X43590Y3598D1*
X43465Y3591D1*
X43343Y3614D1*
X43229Y3664D1*
X43151Y3723D1*
X42590Y3725D1*
X42625Y3585D1*
X42628Y3450D1*
X42606Y3327D1*
X42560Y3211D1*
X42492Y3106D1*
X42405Y3017D1*
X42384Y3000D1*
X42470Y2920D1*
X42543Y2820D1*
X42596Y2706D1*
X42625Y2585D1*
X42630Y2500D1*
X42618Y2376D1*
X42581Y2257D1*
X42522Y2147D1*
X42442Y2051D1*
X42345Y1973D1*
X42234Y1915D1*
X42114Y1880D1*
X41990Y1870D1*
X41866Y1884D1*
X41747Y1923D1*
X41639Y1984D1*
X41544Y2065D1*
X41503Y2117D1*
X41442Y2051D1*
X41345Y1973D1*
X41234Y1915D1*
X41114Y1880D1*
X40990Y1870D1*
X40866Y1884D1*
X40747Y1923D1*
X40639Y1984D1*
X40544Y2065D1*
X40503Y2117D1*
X40442Y2051D1*
X40345Y1973D1*
X40234Y1915D1*
X40114Y1880D1*
X39990Y1870D1*
X39866Y1884D1*
X39747Y1923D1*
X39639Y1984D1*
X39544Y2065D1*
X39503Y2117D1*
X39442Y2051D1*
X39345Y1973D1*
X39234Y1915D1*
X39114Y1880D1*
X38990Y1870D1*
X38866Y1884D1*
X38747Y1923D1*
X38639Y1984D1*
X38544Y2065D1*
X38503Y2117D1*
X38442Y2051D1*
X38345Y1973D1*
X38234Y1915D1*
X38114Y1880D1*
X37990Y1870D1*
X37866Y1884D1*
X37747Y1923D1*
X37639Y1984D1*
X37544Y2065D1*
X37503Y2117D1*
X37442Y2051D1*
X37345Y1973D1*
X37234Y1915D1*
X37114Y1880D1*
X36990Y1870D1*
X36866Y1884D1*
X36747Y1923D1*
X36639Y1984D1*
X36544Y2065D1*
X36503Y2117D1*
X36442Y2051D1*
X36345Y1973D1*
X36234Y1915D1*
X36114Y1880D1*
X35990Y1870D1*
X35866Y1884D1*
X35747Y1923D1*
X35639Y1984D1*
X35544Y2065D1*
X35503Y2117D1*
X35442Y2051D1*
X35345Y1973D1*
X35234Y1915D1*
X35114Y1880D1*
X34990Y1870D1*
X34866Y1884D1*
X34747Y1923D1*
X34639Y1984D1*
X34544Y2065D1*
X34503Y2117D1*
X34484Y1979D1*
X34523Y1861D1*
X34535Y1750D1*
X34520Y1626D1*
X34478Y1509D1*
X34409Y1405D1*
X34318Y1320D1*
X34210Y1258D1*
X34090Y1223D1*
X34032Y1220D1*
X33783Y967D1*
X33682Y894D1*
X33560Y855D1*
X33250Y850D1*
X24750D1*
X24627Y869D1*
X24513Y928D1*
X24290Y1144D1*
X24217Y1217D1*
X24144Y1318D1*
X24105Y1440D1*
X24100Y1750D1*
Y1879D1*
X23990Y1870D1*
X23900Y1875D1*
Y1125D1*
X23881Y1002D1*
X23822Y888D1*
X23606Y665D1*
X23504Y563D1*
X58293Y562D1*
X58142Y609D1*
X58029Y663D1*
X57925Y732D1*
X57830Y813D1*
X57746Y906D1*
X57675Y1009D1*
X57619Y1120D1*
X57577Y1237D1*
X57550Y1360D1*
X57540Y1484D1*
X57546Y1609D1*
X57568Y1732D1*
X57606Y1851D1*
X57659Y1964D1*
X57727Y2069D1*
X57807Y2165D1*
X57899Y2249D1*
X58002Y2321D1*
X58112Y2378D1*
X58230Y2421D1*
X58352Y2448D1*
X58476Y2460D1*
X58601Y2455D1*
X58724Y2433D1*
X58843Y2397D1*
X58957Y2344D1*
X59063Y2278D1*
X59159Y2198D1*
X59244Y2107D1*
X59316Y2005D1*
X59376Y1891D1*
X59375Y4375D1*
X57000D1*
X56895Y4436D1*
X56875Y4500D1*
Y25500D1*
X56936Y25605D1*
X57000Y25625D1*
X59375D1*
Y38105D1*
X59264Y37918D1*
X59182Y37824D1*
X59088Y37741D1*
X58985Y37671D1*
X58873Y37615D1*
X58755Y37574D1*
X58633Y37549D1*
X58508Y37540D1*
X58383Y37547D1*
X58261Y37570D1*
X58142Y37609D1*
X58029Y37663D1*
X57925Y37732D1*
X57830Y37813D1*
X57746Y37906D1*
X57675Y38009D1*
X57619Y38120D1*
X57577Y38237D1*
X57550Y38360D1*
X57540Y38484D1*
X57546Y38609D1*
X57568Y38732D1*
X57606Y38851D1*
X57659Y38964D1*
X57727Y39069D1*
X57807Y39165D1*
X57899Y39249D1*
X57992Y39314D1*
X39500Y39312D1*
X2012D1*
X2159Y39198D1*
X2244Y39107D1*
X2316Y39005D1*
X2375Y38895D1*
X2419Y38778D1*
X2447Y38656D1*
X2460Y38500D1*
X2452Y38375D1*
X2428Y38253D1*
X2388Y38134D1*
X2333Y38022D1*
X2264Y37918D1*
X2182Y37824D1*
X2088Y37741D1*
X1985Y37671D1*
X1873Y37615D1*
X1755Y37574D1*
X1633Y37549D1*
X1508Y37540D1*
X1383Y37547D1*
X1261Y37570D1*
X1142Y37609D1*
X1029Y37663D1*
X925Y37732D1*
X830Y37813D1*
X746Y37906D1*
X675Y38009D1*
X624Y38109D1*
X625Y33465D1*
X636Y33529D1*
X677Y33647D1*
X739Y33754D1*
X822Y33848D1*
X922Y33923D1*
X1034Y33977D1*
X1155Y34008D1*
X1280Y34014D1*
X1403Y33996D1*
X1521Y33954D1*
X1628Y33889D1*
X1720Y33805D1*
X1793Y33704D1*
X1846Y33591D1*
X1875Y33470D1*
X1880Y33385D1*
X1868Y33261D1*
X1831Y33141D1*
X1772Y33032D1*
X1692Y32936D1*
X1595Y32857D1*
X1484Y32800D1*
X1364Y32765D1*
X1280Y32755D1*
X1403Y32736D1*
X1521Y32694D1*
X1628Y32630D1*
X1720Y32545D1*
X1793Y32445D1*
X1846Y32331D1*
X1875Y32210D1*
X1880Y32125D1*
X1868Y32001D1*
X1831Y31882D1*
X1772Y31772D1*
X1692Y31676D1*
X1595Y31598D1*
X1484Y31540D1*
X1364Y31505D1*
X1280Y31495D1*
X1403Y31476D1*
X1521Y31434D1*
X1628Y31370D1*
X1720Y31285D1*
X1793Y31185D1*
X1846Y31071D1*
X1875Y30950D1*
X1880Y30865D1*
X1868Y30741D1*
X1831Y30622D1*
X1772Y30512D1*
X1692Y30416D1*
X1595Y30338D1*
X1484Y30280D1*
X1364Y30245D1*
X1240Y30235D1*
X1116Y30249D1*
X997Y30288D1*
X889Y30349D1*
X794Y30430D1*
X717Y30529D1*
X661Y30640D1*
X628Y30761D1*
X625Y30687D1*
Y25625D1*
X3000D1*
X3105Y25564D1*
X3125Y25500D1*
Y17500D1*
X11750D1*
X11855Y17439D1*
X11875Y17375D1*
Y16512D1*
X11955Y16443D1*
X12033Y16345D1*
X12090Y16234D1*
X12125Y16114D1*
X12135Y16000D1*
X12123Y15876D1*
X12086Y15756D1*
X12027Y15646D1*
X11948Y15550D1*
X11873Y15488D1*
X11875Y14637D1*
X11955Y14568D1*
X12033Y14470D1*
X12090Y14359D1*
X12125Y14239D1*
X12135Y14125D1*
X12123Y14001D1*
X12086Y13881D1*
X12027Y13771D1*
X11948Y13675D1*
X11873Y13613D1*
Y12872D1*
X11875Y10875D1*
X11873Y9747D1*
X11861Y9696D1*
X11860Y9653D1*
X11955Y9573D1*
X12033Y9475D1*
X12090Y9364D1*
X12125Y9244D1*
X12135Y9130D1*
X12123Y9006D1*
X12086Y8886D1*
X12027Y8776D1*
X11948Y8680D1*
X11851Y8601D1*
X11741Y8543D1*
X11622Y8507D1*
X11497Y8495D1*
X11373Y8508D1*
X11254Y8545D1*
X11117Y8626D1*
X10260Y8625D1*
X10125D1*
Y6875D1*
X10064Y6770D1*
X10000Y6750D1*
X3125D1*
Y4500D1*
X3064Y4395D1*
X3000Y4375D1*
X625D1*
Y1895D1*
X727Y2069D1*
X807Y2165D1*
X899Y2249D1*
X1002Y2321D1*
X1112Y2378D1*
X1230Y2421D1*
X1352Y2448D1*
X1476Y2460D1*
X1601Y2455D1*
X1724Y2433D1*
X1843Y2397D1*
X1957Y2344D1*
X2063Y2278D1*
X2159Y2198D1*
X2244Y2107D1*
X2316Y2005D1*
X2375Y1895D1*
X2419Y1778D1*
X2447Y1656D1*
X2460Y1500D1*
X2452Y1375D1*
X2428Y1253D1*
X2388Y1134D1*
X2333Y1022D1*
X2264Y918D1*
X2182Y824D1*
X2088Y741D1*
X1985Y671D1*
X1873Y615D1*
X1698Y563D1*
X10871Y562D1*
X9445Y1989D1*
X9388Y1883D1*
X9312Y1784D1*
X9219Y1701D1*
X9112Y1636D1*
X8995Y1593D1*
X8872Y1572D1*
X8747Y1574D1*
X8625Y1599D1*
X8510Y1646D1*
X8405Y1714D1*
X8315Y1800D1*
X8242Y1902D1*
X8190Y2015D1*
X8159Y2136D1*
X8151Y2260D1*
X8167Y2384D1*
X8205Y2503D1*
X8265Y2613D1*
X8344Y2709D1*
X8439Y2790D1*
X8574Y2860D1*
X8467Y2967D1*
X8394Y3068D1*
X8355Y3190D1*
X8350Y3500D1*
Y3535D1*
X8242Y3673D1*
X8190Y3786D1*
X8159Y3907D1*
X8151Y4032D1*
X8167Y4156D1*
X8205Y4275D1*
X8265Y4384D1*
X8344Y4481D1*
X8439Y4561D1*
X8548Y4623D1*
X8666Y4662D1*
X8790Y4680D1*
X8915Y4674D1*
X9036Y4645D1*
X9150Y4594D1*
X9252Y4523D1*
X9340Y4434D1*
X9409Y4330D1*
X9458Y4215D1*
X9485Y4093D1*
X9490Y4011D1*
X9478Y3887D1*
X9444Y3767D1*
X9388Y3655D1*
X9312Y3556D1*
X9219Y3473D1*
X9149Y3430D1*
X9298Y3268D1*
X10709Y1856D1*
X10710Y2909D1*
X12049D1*
Y1570D1*
X10995D1*
X11417Y1149D1*
X15285Y1150D1*
X14592Y1842D1*
X14519Y1943D1*
X14480Y2065D1*
X14475Y2375D1*
X14472Y2487D1*
X14415Y2377D1*
X14337Y2279D1*
X14242Y2198D1*
X14133Y2137D1*
X14015Y2098D1*
X13891Y2082D1*
X13766Y2090D1*
X13646Y2121D1*
X13533Y2175D1*
X13433Y2250D1*
X13349Y2342D1*
X13285Y2449D1*
X13241Y2566D1*
X13221Y2689D1*
X13225Y2814D1*
X13235Y2869D1*
X13220D1*
Y4169D1*
X14475D1*
Y8848D1*
X14197Y8843D1*
X14053Y8847D1*
X14014Y8845D1*
X13891Y8868D1*
X13810Y8906D1*
Y5500D1*
X13792Y5377D1*
X13753Y5285D1*
X13683Y5192D1*
X13313Y4822D1*
X13213Y4748D1*
X13120Y4711D1*
X13005Y4695D1*
X11962D1*
X11851Y4601D1*
X11765Y4555D1*
X11811Y4523D1*
X11899Y4434D1*
X11968Y4330D1*
X12017Y4215D1*
X12044Y4093D1*
X12049Y4011D1*
X12038Y3887D1*
X12003Y3767D1*
X11947Y3655D1*
X11871Y3556D1*
X11778Y3473D1*
X11671Y3408D1*
X11554Y3364D1*
X11431Y3343D1*
X11307Y3345D1*
X11184Y3370D1*
X11069Y3418D1*
X10964Y3486D1*
X10874Y3572D1*
X10801Y3673D1*
X10749Y3786D1*
X10718Y3907D1*
X10710Y4032D1*
X10726Y4156D1*
X10764Y4275D1*
X10824Y4384D1*
X10903Y4481D1*
X10998Y4561D1*
X11118Y4626D1*
X11048Y4684D1*
X10970Y4781D1*
X10912Y4891D1*
X10876Y5011D1*
X10865Y5135D1*
X10878Y5259D1*
X10916Y5378D1*
X10975Y5488D1*
X11056Y5583D1*
X11153Y5662D1*
X11263Y5719D1*
X11383Y5754D1*
X11508Y5765D1*
X11632Y5751D1*
X11751Y5713D1*
X11860Y5653D1*
X11963Y5564D1*
X12824Y5565D1*
X12938Y5678D1*
X12940Y7750D1*
Y9500D1*
X12958Y9623D1*
X12997Y9715D1*
X13067Y9808D1*
X13446Y10185D1*
X13524Y10246D1*
X13521Y10473D1*
X13544Y10596D1*
X13619Y10710D1*
X13718Y10809D1*
X13792Y10864D1*
X13903Y10903D1*
X14330Y10907D1*
X14475D1*
Y15250D1*
X14494Y15373D1*
X14553Y15487D1*
X14769Y15710D1*
X16217Y17158D1*
X16318Y17231D1*
X16440Y17270D1*
X16750Y17275D1*
X16879D1*
X16870Y17395D1*
X16886Y17519D1*
X16927Y17637D1*
X16989Y17745D1*
X17072Y17838D1*
X17119Y17873D1*
X17044Y17940D1*
X16967Y18038D1*
X16911Y18150D1*
X16878Y18270D1*
X16870Y18395D1*
X16886Y18519D1*
X16927Y18637D1*
X16989Y18745D1*
X17072Y18838D1*
X17119Y18873D1*
X17044Y18940D1*
X16967Y19038D1*
X16911Y19150D1*
X16878Y19270D1*
X16870Y19395D1*
X16886Y19519D1*
X16927Y19637D1*
X16989Y19745D1*
X17072Y19838D1*
X17119Y19873D1*
X17044Y19940D1*
X16967Y20038D1*
X16911Y20150D1*
X16878Y20270D1*
X16870Y20395D1*
X16886Y20519D1*
X16927Y20637D1*
X16989Y20745D1*
X17072Y20838D1*
X17119Y20873D1*
X17044Y20940D1*
X16967Y21038D1*
X16911Y21150D1*
X16878Y21270D1*
X16870Y21395D1*
X16886Y21519D1*
X16927Y21637D1*
X16989Y21745D1*
X17072Y21838D1*
X17119Y21873D1*
X17044Y21940D1*
X16967Y22038D1*
X16911Y22150D1*
X16878Y22270D1*
X16870Y22395D1*
X16886Y22519D1*
X16927Y22637D1*
X16989Y22745D1*
X17072Y22838D1*
X17119Y22873D1*
X17044Y22940D1*
X16967Y23038D1*
X16911Y23150D1*
X16878Y23270D1*
X16870Y23395D1*
X16886Y23519D1*
X16927Y23637D1*
X16989Y23745D1*
X17072Y23838D1*
X17119Y23873D1*
X17044Y23940D1*
X16967Y24038D1*
X16911Y24150D1*
X16878Y24270D1*
X16870Y24395D1*
X16886Y24519D1*
X16927Y24637D1*
X16989Y24745D1*
X17072Y24838D1*
X17119Y24873D1*
X17044Y24940D1*
X16967Y25038D1*
X16911Y25150D1*
X16878Y25270D1*
X16870Y25395D1*
X16886Y25519D1*
X16927Y25637D1*
X16989Y25745D1*
X17072Y25838D1*
X17119Y25873D1*
X17044Y25940D1*
X16967Y26038D1*
X16911Y26150D1*
X16881Y26252D1*
X16822Y26138D1*
X16606Y25915D1*
X15907Y25217D1*
X15984Y25104D1*
X16023Y24986D1*
X16035Y24875D1*
X16020Y24751D1*
X15978Y24634D1*
X15900Y24522D1*
Y22262D1*
X16007Y22246D1*
X16126Y22208D1*
X16235Y22148D1*
X16330Y22068D1*
X16408Y21970D1*
X16465Y21859D1*
X16500Y21739D1*
X16510Y21625D1*
X16498Y21501D1*
X16461Y21381D1*
X16402Y21271D1*
X16323Y21175D1*
X16226Y21096D1*
X16116Y21038D1*
X15997Y21002D1*
X15872Y20990D1*
X15748Y21003D1*
X15629Y21040D1*
X15519Y21099D1*
X15423Y21179D1*
X15345Y21276D1*
X15287Y21386D1*
X15251Y21506D1*
X15240Y21630D1*
X15246Y21688D1*
X15144Y21818D1*
X15105Y21940D1*
X15100Y22250D1*
Y24410D1*
X12489Y21805D1*
X12500Y21739D1*
X12510Y21625D1*
X12498Y21501D1*
X12461Y21381D1*
X12402Y21271D1*
X12323Y21175D1*
X12226Y21096D1*
X12116Y21038D1*
X11997Y21002D1*
X11872Y20990D1*
X11748Y21003D1*
X11629Y21040D1*
X11519Y21099D1*
X11423Y21179D1*
X11345Y21276D1*
X11287Y21386D1*
X11251Y21506D1*
X11240Y21630D1*
X11250Y21727D1*
X10918Y21725D1*
X10754Y21563D1*
X10743Y21376D1*
X10706Y21257D1*
X10647Y21147D1*
X10567Y21051D1*
X10470Y20973D1*
X10359Y20915D1*
X10239Y20880D1*
X10115Y20870D1*
X9991Y20884D1*
X9872Y20923D1*
X9764Y20984D1*
X9669Y21065D1*
X9592Y21163D1*
X9536Y21275D1*
X9503Y21395D1*
X9495Y21520D1*
X9511Y21644D1*
X9552Y21762D1*
X9614Y21870D1*
X9697Y21963D1*
X9797Y22038D1*
X9909Y22092D1*
X10030Y22123D1*
X10182Y22126D1*
X10467Y22408D1*
X10568Y22481D1*
X10690Y22520D1*
X11000Y22525D1*
X12082D1*
X13727Y24167D1*
X13419Y24166D1*
Y25466D1*
X13673D1*
X13669Y26191D1*
Y27000D1*
X13591Y26838D1*
X13511Y26742D1*
X13414Y26663D1*
X13303Y26606D1*
X13183Y26571D1*
X13059Y26561D1*
X12935Y26575D1*
X12816Y26614D1*
X12707Y26675D1*
X12613Y26756D1*
X12536Y26854D1*
X12480Y26966D1*
X12447Y27086D1*
X12439Y27211D1*
X12455Y27335D1*
X12496Y27453D1*
X12558Y27561D1*
X12641Y27654D1*
X12688Y27689D1*
X12596Y27774D1*
X12523Y27876D1*
X12472Y27989D1*
X12444Y28111D1*
X12440Y28236D1*
X12461Y28359D1*
X12506Y28475D1*
X12573Y28580D1*
X12660Y28670D1*
X12685Y28691D1*
X12613Y28756D1*
X12536Y28854D1*
X12480Y28966D1*
X12447Y29086D1*
X12439Y29211D1*
X12455Y29335D1*
X12496Y29453D1*
X12558Y29561D1*
X12641Y29654D1*
X12688Y29689D1*
X12613Y29756D1*
X12536Y29854D1*
X12480Y29966D1*
X12447Y30086D1*
X12439Y30211D1*
X12455Y30335D1*
X12496Y30453D1*
X12558Y30561D1*
X12641Y30654D1*
X12688Y30689D1*
X12613Y30756D1*
X12536Y30854D1*
X12480Y30966D1*
X12447Y31086D1*
X12439Y31211D1*
X12455Y31335D1*
X12496Y31453D1*
X12558Y31561D1*
X12641Y31654D1*
X12688Y31689D1*
X12613Y31756D1*
X12536Y31854D1*
X12480Y31966D1*
X12447Y32086D1*
X12439Y32211D1*
X12455Y32335D1*
X12496Y32453D1*
X12558Y32561D1*
X12641Y32654D1*
X12688Y32689D1*
X12613Y32756D1*
X12536Y32854D1*
X12480Y32966D1*
X12447Y33086D1*
X12439Y33211D1*
X12455Y33335D1*
X12496Y33453D1*
X12558Y33561D1*
X12641Y33654D1*
X12688Y33689D1*
X12613Y33756D1*
X12536Y33854D1*
X12480Y33966D1*
X12447Y34086D1*
X12439Y34211D1*
X12455Y34335D1*
X12496Y34453D1*
X12558Y34561D1*
X12641Y34654D1*
X12741Y34729D1*
X12853Y34783D1*
X12974Y34814D1*
X13099Y34821D1*
X13222Y34802D1*
X13340Y34760D1*
X13447Y34696D1*
X13539Y34611D1*
X13612Y34511D1*
X13664Y34397D1*
X13693Y34276D1*
X13699Y34191D1*
X13687Y34067D1*
X13650Y33947D1*
X13591Y33838D1*
X13511Y33742D1*
X13447Y33690D1*
X13539Y33611D1*
X13612Y33511D1*
X13664Y33397D1*
X13693Y33276D1*
X13699Y33191D1*
X13687Y33067D1*
X13650Y32947D1*
X13591Y32838D1*
X13511Y32742D1*
X13447Y32690D1*
X13539Y32611D1*
X13612Y32511D1*
X13664Y32397D1*
X13693Y32276D1*
X13699Y32191D1*
X13687Y32067D1*
X13650Y31947D1*
X13591Y31838D1*
X13511Y31742D1*
X13447Y31690D1*
X13539Y31611D1*
X13612Y31511D1*
X13664Y31397D1*
X13693Y31276D1*
X13699Y31191D1*
X13687Y31067D1*
X13650Y30947D1*
X13591Y30838D1*
X13511Y30742D1*
X13447Y30690D1*
X13539Y30611D1*
X13612Y30511D1*
X13664Y30397D1*
X13693Y30276D1*
X13699Y30191D1*
X13687Y30067D1*
X13650Y29947D1*
X13591Y29838D1*
X13511Y29742D1*
X13447Y29690D1*
X13539Y29611D1*
X13612Y29511D1*
X13664Y29397D1*
X13693Y29276D1*
X13699Y29191D1*
X13687Y29067D1*
X13650Y28947D1*
X13591Y28838D1*
X13511Y28742D1*
X13447Y28690D1*
X13504Y28647D1*
X13585Y28553D1*
X13646Y28444D1*
X13663Y28401D1*
X14261Y28999D1*
X14361Y29073D1*
X14454Y29110D1*
X14569Y29126D1*
X15440D1*
X15439Y29211D1*
X15455Y29335D1*
X15496Y29453D1*
X15558Y29561D1*
X15641Y29654D1*
X15688Y29689D1*
X15613Y29756D1*
X15536Y29854D1*
X15480Y29966D1*
X15447Y30086D1*
X15439Y30211D1*
X15455Y30335D1*
X15496Y30453D1*
X15558Y30561D1*
X15641Y30654D1*
X15688Y30689D1*
X15613Y30756D1*
X15536Y30854D1*
X15480Y30966D1*
X15447Y31086D1*
X15439Y31211D1*
X15455Y31335D1*
X15496Y31453D1*
X15558Y31561D1*
X15641Y31654D1*
X15688Y31689D1*
X15613Y31756D1*
X15536Y31854D1*
X15480Y31966D1*
X15447Y32086D1*
X15439Y32211D1*
X15455Y32335D1*
X15496Y32453D1*
X15558Y32561D1*
X15641Y32654D1*
X15688Y32689D1*
X15613Y32756D1*
X15536Y32854D1*
X15480Y32966D1*
X15447Y33086D1*
X15439Y33211D1*
X15455Y33335D1*
X15496Y33453D1*
X15558Y33561D1*
X15641Y33654D1*
X15688Y33689D1*
X15613Y33756D1*
X15536Y33854D1*
X15480Y33966D1*
X15447Y34086D1*
X15439Y34211D1*
X15455Y34335D1*
X15496Y34453D1*
X15558Y34561D1*
X15641Y34654D1*
X15741Y34729D1*
X15853Y34783D1*
X15974Y34814D1*
X16099Y34821D1*
X16222Y34802D1*
X16340Y34760D1*
X16447Y34696D1*
X16539Y34611D1*
X16612Y34511D1*
X16664Y34397D1*
X16693Y34276D1*
X16699Y34191D1*
X16687Y34067D1*
X16650Y33947D1*
X16591Y33838D1*
X16511Y33742D1*
X16447Y33690D1*
X16539Y33611D1*
X16612Y33511D1*
X16664Y33397D1*
X16693Y33276D1*
X16699Y33191D1*
X16687Y33067D1*
X16650Y32947D1*
X16591Y32838D1*
X16511Y32742D1*
X16447Y32690D1*
X16539Y32611D1*
X16612Y32511D1*
X16664Y32397D1*
X16693Y32276D1*
X16699Y32191D1*
X16687Y32067D1*
X16650Y31947D1*
X16591Y31838D1*
X16511Y31742D1*
X16447Y31690D1*
X16539Y31611D1*
X16612Y31511D1*
X16664Y31397D1*
X16693Y31276D1*
X16699Y31191D1*
X16687Y31067D1*
X16650Y30947D1*
X16591Y30838D1*
X16511Y30742D1*
X16447Y30690D1*
X16539Y30611D1*
X16612Y30511D1*
X16664Y30397D1*
X16693Y30276D1*
X16699Y30191D1*
X16687Y30067D1*
X16650Y29947D1*
X16591Y29838D1*
X16511Y29742D1*
X16447Y29690D1*
X16539Y29611D1*
X16573Y29564D1*
X16692Y29683D1*
X16771Y29745D1*
X16870Y29795D1*
Y31005D1*
X18130D1*
Y29745D1*
X18011D1*
X18096Y29581D1*
X18125Y29460D1*
X18130Y29375D1*
X18125Y29275D1*
X21082D1*
X21467Y29658D1*
X21568Y29731D1*
X21690Y29770D1*
X22000Y29775D1*
X22996D1*
X23103Y29873D1*
X23028Y29940D1*
X22951Y30038D1*
X22895Y30150D1*
X22863Y30270D1*
X22854Y30395D1*
X22871Y30519D1*
X22911Y30637D1*
X22974Y30745D1*
X23057Y30838D1*
X23156Y30913D1*
X23269Y30967D1*
X23390Y30998D1*
X23514Y31005D1*
X23638Y30986D1*
X23755Y30944D1*
X23862Y30880D1*
X23970Y30773D1*
X24375Y30775D1*
X24498Y30756D1*
X24612Y30697D1*
X24835Y30481D1*
X25970Y29346D1*
X26072Y29463D1*
X26119Y29498D1*
X26044Y29565D1*
X25967Y29663D1*
X25911Y29775D1*
X25878Y29895D1*
X25870Y30020D1*
X25886Y30144D1*
X25927Y30262D1*
X25989Y30370D1*
X26072Y30463D1*
X26119Y30498D1*
X26044Y30565D1*
X25967Y30663D1*
X25911Y30775D1*
X25878Y30895D1*
X25870Y31020D1*
X25886Y31144D1*
X25927Y31262D1*
X25989Y31370D1*
X26072Y31463D1*
X26119Y31498D1*
X26044Y31565D1*
X25967Y31663D1*
X25911Y31775D1*
X25878Y31895D1*
X25870Y32020D1*
X25886Y32144D1*
X25927Y32262D1*
X25989Y32370D1*
X26072Y32463D1*
X26119Y32498D1*
X26044Y32565D1*
X25967Y32663D1*
X25911Y32775D1*
X25878Y32895D1*
X25870Y33020D1*
X25886Y33144D1*
X25927Y33262D1*
X25989Y33370D1*
X26072Y33463D1*
X26119Y33498D1*
X26017Y33599D1*
X25877Y33619D1*
X25763Y33678D1*
X25540Y33894D1*
X25467Y33967D1*
X25394Y34068D1*
X25355Y34190D1*
X25350Y34500D1*
Y35125D1*
X25369Y35248D1*
X25428Y35362D1*
X25644Y35585D1*
X25889Y35822D1*
X25870Y35970D1*
X25877Y36095D1*
X25908Y36215D1*
X25962Y36328D1*
X26037Y36428D1*
X26130Y36510D1*
X26238Y36573D1*
X26356Y36614D1*
X26480Y36630D1*
X26604Y36622D1*
X26725Y36589D1*
X26836Y36533D1*
X26935Y36456D1*
X27016Y36362D1*
X27077Y36253D1*
X27116Y36134D1*
X27127Y36067D1*
X28592Y37533D1*
X28693Y37606D1*
X28815Y37645D1*
X29125Y37650D1*
X40326Y37652D1*
X40270Y37764D1*
X40236Y37884D1*
X40225Y38008D1*
X40239Y38132D1*
X40276Y38251D1*
X40335Y38361D1*
X40414Y38458D1*
X40510Y38538D1*
X40619Y38598D1*
X40738Y38635D1*
X40862Y38650D1*
X40987Y38640D1*
X41107Y38607D1*
X41219Y38552D1*
X41318Y38476D1*
X41401Y38382D1*
X41464Y38275D1*
X41506Y38157D1*
X41524Y38034D1*
X41517Y37900D1*
X41486Y37779D1*
X41433Y37667D1*
X41423Y37650D1*
X42223D1*
X42225Y38650D1*
X43525D1*
Y37646D1*
X43875Y37650D1*
X43998Y37631D1*
X44112Y37572D1*
X44335Y37356D1*
X44934Y36757D1*
X45003Y36750D1*
X45122Y36712D1*
X45229Y36647D1*
X45317Y36560D1*
X45384Y36454D1*
X45423Y36336D1*
X45435Y36225D1*
X45420Y36101D1*
X45384Y36002D1*
X45572Y36138D1*
X45684Y36192D1*
X45805Y36223D1*
X45930Y36230D1*
X46053Y36211D1*
X46171Y36169D1*
X46278Y36105D1*
X46370Y36020D1*
X46400Y35979D1*
X46475Y36065D1*
Y36125D1*
X46494Y36248D1*
X46553Y36362D1*
X46769Y36585D1*
X47092Y36908D1*
X47193Y36981D1*
X47315Y37020D1*
X47625Y37025D1*
X51000D1*
X51123Y37006D1*
X51237Y36947D1*
X51460Y36731D1*
X51658Y36533D1*
X51731Y36432D1*
X51770Y36310D1*
X51775Y36215D1*
X51930Y36230D1*
X52053Y36211D1*
X52171Y36169D1*
X52278Y36105D1*
X52370Y36020D1*
X52400Y35979D1*
X52472Y36063D1*
X52572Y36138D1*
X52684Y36192D1*
X52805Y36223D1*
X52930Y36230D1*
X53053Y36211D1*
X53171Y36169D1*
X53278Y36105D1*
X53370Y36020D1*
X53400Y35979D1*
X53472Y36063D1*
X53572Y36138D1*
X53684Y36192D1*
X53805Y36223D1*
X53930Y36230D1*
X54053Y36211D1*
X54171Y36169D1*
X54278Y36105D1*
X54370Y36020D1*
X54400Y35979D1*
X54472Y36063D1*
X54572Y36138D1*
X54684Y36192D1*
X54805Y36223D1*
X54930Y36230D1*
X55053Y36211D1*
X55171Y36169D1*
X55278Y36105D1*
X55370Y36020D1*
X55400Y35979D1*
X55472Y36063D1*
X55572Y36138D1*
X55684Y36192D1*
X55805Y36223D1*
X55930Y36230D1*
X56053Y36211D1*
X56171Y36169D1*
X56278Y36105D1*
X56370Y36020D1*
X56443Y35920D1*
X56496Y35806D1*
X56525Y35685D1*
X56530Y35600D1*
X56518Y35476D1*
X56481Y35357D1*
X56422Y35247D1*
X56342Y35151D1*
X56245Y35073D1*
X56134Y35015D1*
X56014Y34980D1*
X55890Y34970D1*
X55766Y34984D1*
X55647Y35023D1*
X55539Y35084D1*
X55444Y35165D1*
X55403Y35217D1*
X55342Y35151D1*
X55245Y35073D1*
X55134Y35015D1*
X55014Y34980D1*
X54890Y34970D1*
X54766Y34984D1*
X54647Y35023D1*
X54539Y35084D1*
X54444Y35165D1*
X54403Y35217D1*
X54342Y35151D1*
X54245Y35073D1*
X54134Y35015D1*
X54014Y34980D1*
X53890Y34970D1*
X53766Y34984D1*
X53647Y35023D1*
X53539Y35084D1*
X53444Y35165D1*
X53403Y35217D1*
X53342Y35151D1*
X53245Y35073D1*
X53134Y35015D1*
X53014Y34980D1*
X52890Y34970D1*
X52766Y34984D1*
X52647Y35023D1*
X52539Y35084D1*
X52444Y35165D1*
X52403Y35217D1*
X52342Y35151D1*
X52242Y35071D1*
X53160Y34155D1*
X55658Y31658D1*
X55731Y31557D1*
X55770Y31435D1*
X55775Y31125D1*
X55781Y30219D1*
X55905Y30230D1*
X56029Y30217D1*
X56148Y30179D1*
X56257Y30119D1*
X56353Y30039D1*
X56430Y29941D1*
X56487Y29830D1*
X56521Y29710D1*
X56530Y29575D1*
X56513Y29451D1*
X56471Y29334D1*
X56408Y29226D1*
X56324Y29134D1*
X56224Y29059D1*
X56111Y29006D1*
X55990Y28976D1*
X55865Y28971D1*
X55742Y28990D1*
X55625Y29033D1*
X55607Y29042D1*
X55152Y28587D1*
X55150Y27590D1*
X56339Y28779D1*
X56375Y28940D1*
X56432Y29051D1*
X56514Y29145D1*
X56615Y29218D1*
X56731Y29265D1*
X56854Y29285D1*
X56978Y29275D1*
X57097Y29237D1*
X57204Y29172D1*
X57292Y29085D1*
X57359Y28979D1*
X57398Y28861D1*
X57410Y28750D1*
X57391Y28615D1*
X57484Y28479D1*
X57523Y28361D1*
X57535Y28250D1*
X57520Y28126D1*
X57478Y28009D1*
X57409Y27905D1*
X57318Y27820D1*
X57210Y27758D1*
X57090Y27723D1*
X57032Y27720D1*
X56399Y27083D1*
X55938Y26622D1*
X56050Y26576D1*
X56155Y26508D1*
X56245Y26422D1*
X56316Y26319D1*
X56367Y26205D1*
X56395Y26084D1*
X56398Y25950D1*
X56377Y25827D1*
X56332Y25711D1*
X56266Y25605D1*
X56181Y25513D1*
X56080Y25440D1*
X55967Y25387D1*
X55846Y25357D1*
X55721Y25351D1*
X55650Y25358D1*
Y24543D1*
X55728Y24439D1*
X55768Y24324D1*
X55754Y24379D1*
X55775Y24250D1*
Y22498D1*
X55900Y22505D1*
X56023Y22486D1*
X56141Y22444D1*
X56248Y22380D1*
X56340Y22295D1*
X56413Y22195D1*
X56466Y22081D1*
X56495Y21960D1*
X56500Y21875D1*
X56488Y21751D1*
X56451Y21632D1*
X56392Y21522D1*
X56312Y21426D1*
X56248Y21374D1*
X56340Y21295D1*
X56413Y21195D1*
X56466Y21081D1*
X56495Y20960D1*
X56500Y20875D1*
X56488Y20751D1*
X56451Y20632D1*
X56392Y20522D1*
X56312Y20426D1*
X56248Y20374D1*
X56340Y20295D1*
X56413Y20195D1*
X56466Y20081D1*
X56495Y19960D1*
X56500Y19875D1*
X56488Y19751D1*
X56451Y19632D1*
X56392Y19522D1*
X56312Y19426D1*
X56248Y19374D1*
X56340Y19295D1*
X56413Y19195D1*
X56466Y19081D1*
X56495Y18960D1*
X56500Y18875D1*
X56488Y18751D1*
X56451Y18632D1*
X56392Y18522D1*
X56312Y18426D1*
X56248Y18374D1*
X56340Y18295D1*
X56413Y18195D1*
X56466Y18081D1*
X56495Y17960D1*
X56500Y17875D1*
X56488Y17751D1*
X56451Y17632D1*
X56392Y17522D1*
X56312Y17426D1*
X56248Y17374D1*
X56340Y17295D1*
X56413Y17195D1*
X56466Y17081D1*
X56495Y16960D1*
X56500Y16875D1*
X56488Y16751D1*
X56451Y16632D1*
X56392Y16522D1*
X56312Y16426D1*
X56248Y16374D1*
X56340Y16295D1*
X56413Y16195D1*
X56466Y16081D1*
X56495Y15960D1*
X56500Y15875D1*
X56488Y15751D1*
X56451Y15632D1*
X56392Y15522D1*
X56312Y15426D1*
X56248Y15374D1*
X56340Y15295D1*
X56413Y15195D1*
X56466Y15081D1*
X56495Y14960D1*
X56500Y14875D1*
X56488Y14751D1*
X56451Y14632D1*
X56392Y14522D1*
X56312Y14426D1*
X56248Y14374D1*
X56340Y14295D1*
X56413Y14195D1*
X56466Y14081D1*
X56495Y13960D1*
X56500Y13875D1*
X56488Y13751D1*
X56451Y13632D1*
X56392Y13522D1*
X56312Y13426D1*
X56248Y13374D1*
X56340Y13295D1*
X56413Y13195D1*
X56466Y13081D1*
X56495Y12960D1*
X56500Y12875D1*
X56488Y12751D1*
X56451Y12632D1*
X56392Y12522D1*
X56312Y12426D1*
X56248Y12374D1*
X56340Y12295D1*
X56413Y12195D1*
X56466Y12081D1*
X56495Y11960D1*
X56500Y11875D1*
X56488Y11751D1*
X56451Y11632D1*
X56392Y11522D1*
X56312Y11426D1*
X56248Y11374D1*
X56340Y11295D1*
X56413Y11195D1*
X56466Y11081D1*
X56495Y10960D1*
X56500Y10875D1*
X56488Y10751D1*
X56451Y10632D1*
X56392Y10522D1*
X56312Y10426D1*
X56248Y10374D1*
X56340Y10295D1*
X56413Y10195D1*
X56466Y10081D1*
X56495Y9960D1*
X56500Y9875D1*
X56488Y9751D1*
X56451Y9632D1*
X56392Y9522D1*
X56312Y9426D1*
X56248Y9374D1*
X56340Y9295D1*
X56413Y9195D1*
X56466Y9081D1*
X56495Y8960D1*
X56500Y8875D1*
X56488Y8751D1*
X56451Y8632D1*
X56392Y8522D1*
X56312Y8426D1*
X56215Y8348D1*
X56104Y8290D1*
X55984Y8255D1*
X55860Y8245D1*
X55736Y8259D1*
X55617Y8298D1*
X55509Y8359D1*
X55414Y8440D1*
X55337Y8538D1*
X55281Y8650D1*
X55248Y8770D1*
X55240Y8895D1*
X55256Y9019D1*
X55297Y9137D1*
X55359Y9245D1*
X55442Y9338D1*
X55489Y9373D1*
X55414Y9440D1*
X55337Y9538D1*
X55281Y9650D1*
X55248Y9770D1*
X55240Y9895D1*
X55256Y10019D1*
X55297Y10137D1*
X55359Y10245D1*
X55442Y10338D1*
X55489Y10373D1*
X55414Y10440D1*
X55337Y10538D1*
X55281Y10650D1*
X55248Y10770D1*
X55240Y10895D1*
X55256Y11019D1*
X55297Y11137D1*
X55359Y11245D1*
X55442Y11338D1*
X55489Y11373D1*
X55414Y11440D1*
X55337Y11538D1*
X55281Y11650D1*
X55248Y11770D1*
X55240Y11895D1*
X55256Y12019D1*
X55297Y12137D1*
X55359Y12245D1*
X55442Y12338D1*
X55489Y12373D1*
X55414Y12440D1*
X55337Y12538D1*
X55281Y12650D1*
X55248Y12770D1*
X55240Y12895D1*
X55256Y13019D1*
X55297Y13137D1*
X55359Y13245D1*
X55442Y13338D1*
X55489Y13373D1*
X55414Y13440D1*
X55337Y13538D1*
X55281Y13650D1*
X55248Y13770D1*
X55240Y13895D1*
X55256Y14019D1*
X55297Y14137D1*
X55359Y14245D1*
X55442Y14338D1*
X55489Y14373D1*
X55414Y14440D1*
X55337Y14538D1*
X55281Y14650D1*
X55248Y14770D1*
X55240Y14895D1*
X55246Y14937D1*
X54703Y15476D1*
X54148Y16031D1*
X54150Y13500D1*
Y6230D1*
X54234Y6104D1*
X54273Y5986D1*
X54285Y5875D1*
X54270Y5751D1*
X54228Y5634D1*
X54159Y5530D1*
X54068Y5445D1*
X53960Y5383D1*
X53840Y5348D1*
X53715Y5341D1*
X53593Y5364D1*
X53479Y5414D1*
X53379Y5489D1*
X53300Y5586D1*
X53245Y5698D1*
X53238Y5732D1*
X53104Y5789D1*
X53004Y5864D1*
X52925Y5961D1*
X52899Y6013D1*
X52892Y5900D1*
X52861Y5779D1*
X52808Y5667D1*
X52734Y5566D1*
X52642Y5482D1*
X52536Y5416D1*
X52419Y5372D1*
X52296Y5352D1*
X52171Y5355D1*
X52049Y5382D1*
X51935Y5432D1*
X51832Y5502D1*
X51745Y5591D1*
X51676Y5695D1*
X51628Y5811D1*
X51603Y5933D1*
Y6058D1*
X51626Y6181D1*
X51672Y6297D1*
X51739Y6402D1*
X51825Y6492D1*
X51927Y6564D1*
X52041Y6615D1*
X52162Y6644D1*
X52287Y6649D1*
X52410Y6630D1*
X52528Y6588D1*
X52635Y6524D1*
X52728Y6440D1*
X52803Y6341D1*
X52841Y6271D1*
X52875Y6440D1*
X52932Y6551D1*
X52976Y6601D1*
X52975Y14910D1*
X50658Y12592D1*
X50557Y12519D1*
X50435Y12480D1*
X50355Y12475D1*
X50248Y12374D1*
X50340Y12295D1*
X50413Y12195D1*
X50466Y12081D1*
X50495Y11960D1*
X50500Y11875D1*
X50488Y11751D1*
X50451Y11632D1*
X50392Y11522D1*
X50312Y11426D1*
X50248Y11374D1*
X50340Y11295D1*
X50413Y11195D1*
X50466Y11081D1*
X50495Y10960D1*
X50500Y10875D1*
X50488Y10751D1*
X50451Y10632D1*
X50392Y10522D1*
X50312Y10426D1*
X50248Y10374D1*
X50340Y10295D1*
X50413Y10195D1*
X50466Y10081D1*
X50495Y9960D1*
X50500Y9875D1*
X50488Y9751D1*
X50451Y9632D1*
X50392Y9522D1*
X50312Y9426D1*
X50248Y9374D1*
X50305Y9331D1*
X50386Y9237D1*
X50447Y9128D1*
X50486Y9009D1*
X50500Y8875D1*
X50488Y8751D1*
X50451Y8632D1*
X50392Y8522D1*
X50312Y8426D1*
X50215Y8348D1*
X50104Y8290D1*
X49984Y8255D1*
X49860Y8245D1*
X49736Y8259D1*
X49617Y8298D1*
X49509Y8359D1*
X49414Y8440D1*
X49337Y8538D1*
X49281Y8650D1*
X49248Y8770D1*
X49240Y8895D1*
X49256Y9019D1*
X49297Y9137D1*
X49359Y9245D1*
X49442Y9338D1*
X49486Y9375D1*
X49414Y9440D1*
X49337Y9538D1*
X49281Y9650D1*
X49248Y9770D1*
X49240Y9895D1*
X49256Y10019D1*
X49297Y10137D1*
X49359Y10245D1*
X49442Y10338D1*
X49489Y10373D1*
X49414Y10440D1*
X49337Y10538D1*
X49281Y10650D1*
X49248Y10770D1*
X49240Y10895D1*
X49256Y11019D1*
X49297Y11137D1*
X49359Y11245D1*
X49442Y11338D1*
X49489Y11373D1*
X49414Y11440D1*
X49337Y11538D1*
X49281Y11650D1*
X49248Y11770D1*
X49245Y11930D1*
X48777Y11461D1*
X48775Y9629D1*
X49005Y9630D1*
Y8478D1*
X49234Y8256D1*
X50558Y6933D1*
X50632Y6833D1*
X50669Y6740D1*
X50725Y6650D1*
X50900D1*
Y5350D1*
X49600D1*
Y6650D1*
X49612D1*
X48570Y7690D1*
X44250D1*
X44127Y7708D1*
X44035Y7747D1*
X43942Y7817D1*
X43387Y8373D1*
X43241Y8384D1*
X43122Y8423D1*
X43014Y8484D1*
X42919Y8565D1*
X42878Y8617D1*
X42817Y8551D1*
X42720Y8473D1*
X42609Y8415D1*
X42489Y8380D1*
X42365Y8370D1*
X42241Y8384D1*
X42122Y8423D1*
X42014Y8484D1*
X41919Y8565D1*
X41878Y8617D1*
X41780Y8517D1*
X41677Y8447D1*
X41562Y8398D1*
X41440Y8373D1*
X41315D1*
X41193Y8397D1*
X41077Y8444D1*
X40974Y8514D1*
X40886Y8603D1*
X40817Y8707D1*
X40770Y8822D1*
X40747Y8945D1*
X40749Y9070D1*
X40775Y9192D1*
X40824Y9306D1*
X40895Y9409D1*
X40985Y9495D1*
X41091Y9562D1*
X41207Y9607D1*
X41330Y9629D1*
X41455Y9625D1*
X41576Y9597D1*
X41690Y9546D1*
X41791Y9473D1*
X41875Y9384D1*
X41947Y9463D1*
X42047Y9538D1*
X42159Y9592D1*
X42280Y9623D1*
X42405Y9630D1*
X42528Y9611D1*
X42646Y9569D1*
X42753Y9505D1*
X42845Y9420D1*
X42875Y9379D1*
X42947Y9463D1*
X43047Y9538D1*
X43159Y9592D1*
X43280Y9623D1*
X43405Y9630D1*
X43528Y9611D1*
X43646Y9569D1*
X43753Y9505D1*
X43845Y9420D1*
X43875Y9379D1*
X43975Y9484D1*
Y12832D1*
X40842Y15967D1*
X40769Y16068D1*
X40730Y16190D1*
X40725Y16500D1*
Y16957D1*
X40359Y17326D1*
X40272Y17147D1*
X40192Y17051D1*
X40128Y16999D1*
X40220Y16920D1*
X40293Y16820D1*
X40346Y16706D1*
X40375Y16585D1*
X40380Y16500D1*
X40368Y16376D1*
X40331Y16257D1*
X40272Y16147D1*
X40192Y16051D1*
X40095Y15973D1*
X39984Y15915D1*
X39864Y15880D1*
X39740Y15870D1*
X39616Y15884D1*
X39497Y15923D1*
X39389Y15984D1*
X39294Y16065D1*
X39217Y16163D1*
X39161Y16275D1*
X39128Y16395D1*
X39120Y16520D1*
X39136Y16644D1*
X39177Y16762D1*
X39239Y16870D1*
X39322Y16963D1*
X39369Y16998D1*
X39294Y17065D1*
X39217Y17163D1*
X39161Y17275D1*
X39128Y17395D1*
X39120Y17520D1*
X39136Y17644D1*
X39177Y17762D1*
X39239Y17870D1*
X39322Y17963D1*
X39369Y17998D1*
X39294Y18065D1*
X39217Y18163D1*
X39161Y18275D1*
X39128Y18395D1*
X39120Y18520D1*
X39136Y18644D1*
X39177Y18762D1*
X39239Y18870D1*
X39322Y18963D1*
X39369Y18998D1*
X39294Y19065D1*
X39217Y19163D1*
X39161Y19275D1*
X39128Y19395D1*
X39120Y19520D1*
X39136Y19644D1*
X39177Y19762D1*
X39239Y19870D1*
X39322Y19963D1*
X39369Y19998D1*
X39294Y20065D1*
X39217Y20163D1*
X39161Y20275D1*
X39128Y20395D1*
X39120Y20520D1*
X39136Y20644D1*
X39177Y20762D1*
X39239Y20870D1*
X39322Y20963D1*
X39369Y20998D1*
X39294Y21065D1*
X39217Y21163D1*
X39161Y21275D1*
X39128Y21395D1*
X39120Y21520D1*
X39136Y21644D1*
X39177Y21762D1*
X39239Y21870D1*
X39322Y21963D1*
X39369Y21998D1*
X39294Y22065D1*
X39217Y22163D1*
X39161Y22275D1*
X39128Y22395D1*
X39120Y22520D1*
X39136Y22644D1*
X39177Y22762D1*
X39239Y22870D1*
X39322Y22963D1*
X39422Y23038D1*
X39534Y23092D1*
X39655Y23123D1*
X39780Y23130D1*
X39903Y23111D1*
X40021Y23069D1*
X40128Y23005D1*
X40220Y22920D1*
X40293Y22820D1*
X40346Y22706D1*
X40375Y22585D1*
X40380Y22500D1*
X40368Y22376D1*
X40331Y22257D1*
X40272Y22147D1*
X40192Y22051D1*
X40128Y21999D1*
X40220Y21920D1*
X40293Y21820D1*
X40346Y21706D1*
X40375Y21585D1*
X40380Y21500D1*
X40368Y21376D1*
X40331Y21257D1*
X40272Y21147D1*
X40192Y21051D1*
X40128Y20999D1*
X40220Y20920D1*
X40293Y20820D1*
X40346Y20706D1*
X40375Y20585D1*
X40380Y20500D1*
X40368Y20376D1*
X40331Y20257D1*
X40272Y20147D1*
X40192Y20051D1*
X40128Y19999D1*
X40220Y19920D1*
X40293Y19820D1*
X40346Y19706D1*
X40375Y19585D1*
X40380Y19500D1*
X40368Y19376D1*
X40331Y19257D1*
X40272Y19147D1*
X40192Y19051D1*
X40128Y18999D1*
X40220Y18920D1*
X40293Y18820D1*
X40346Y18706D1*
X40375Y18585D1*
X40374Y18442D1*
X41408Y17408D1*
X41481Y17307D1*
X41520Y17185D1*
X41525Y16875D1*
Y16418D1*
X44350Y13591D1*
Y14775D1*
X45650D1*
Y13475D1*
X44466D1*
X44658Y13283D1*
X44731Y13182D1*
X44770Y13060D1*
X44775Y12750D1*
Y9488D1*
X44875Y9379D1*
X44975Y9484D1*
Y9750D1*
X44994Y9873D1*
X45053Y9987D1*
X45269Y10210D1*
X48227Y13168D1*
X48225Y15625D1*
Y15871D1*
X47370Y15870D1*
Y17130D1*
X47491D1*
X47411Y17275D1*
X47378Y17395D1*
X47370Y17520D1*
X47386Y17644D1*
X47427Y17762D1*
X47489Y17870D1*
X47572Y17963D1*
X47619Y17998D1*
X47544Y18065D1*
X47467Y18163D1*
X47411Y18275D1*
X47378Y18395D1*
X47370Y18520D1*
X47386Y18644D1*
X47427Y18762D1*
X47489Y18870D1*
X47572Y18963D1*
X47619Y18998D1*
X47544Y19065D1*
X47467Y19163D1*
X47411Y19275D1*
X47378Y19395D1*
X47370Y19520D1*
X47386Y19644D1*
X47427Y19762D1*
X47489Y19870D1*
X47572Y19963D1*
X47619Y19998D1*
X47544Y20065D1*
X47467Y20163D1*
X47411Y20275D1*
X47378Y20395D1*
X47370Y20520D1*
X47386Y20644D1*
X47427Y20762D1*
X47489Y20870D1*
X47572Y20963D1*
X47619Y20998D1*
X47544Y21065D1*
X47467Y21163D1*
X47411Y21275D1*
X47378Y21395D1*
X47370Y21520D1*
X47386Y21644D1*
X47427Y21762D1*
X47489Y21870D1*
X47572Y21963D1*
X47619Y21998D1*
X47527Y22083D1*
X47454Y22185D1*
X47403Y22299D1*
X47375Y22420D1*
X47371Y22545D1*
X47392Y22668D1*
X47437Y22784D1*
X47505Y22890D1*
X47591Y22980D1*
X47693Y23051D1*
X47808Y23100D1*
X47930Y23126D1*
X48055Y23128D1*
X48177Y23105D1*
X48293Y23058D1*
X48397Y22989D1*
X48486Y22901D1*
X48555Y22798D1*
X48603Y22682D1*
X48627Y22560D1*
X48626Y22425D1*
X48599Y22303D1*
X48548Y22189D1*
X48476Y22087D1*
X48384Y22000D1*
X48470Y21920D1*
X48543Y21820D1*
X48596Y21706D1*
X48625Y21585D1*
X48630Y21500D1*
X48618Y21376D1*
X48581Y21257D1*
X48522Y21147D1*
X48442Y21051D1*
X48378Y20999D1*
X48470Y20920D1*
X48543Y20820D1*
X48596Y20706D1*
X48625Y20585D1*
X48630Y20500D1*
X48618Y20376D1*
X48581Y20257D1*
X48522Y20147D1*
X48442Y20051D1*
X48378Y19999D1*
X48470Y19920D1*
X48543Y19820D1*
X48596Y19706D1*
X48625Y19585D1*
X48630Y19500D1*
X48618Y19376D1*
X48581Y19257D1*
X48522Y19147D1*
X48442Y19051D1*
X48378Y18999D1*
X48431Y19001D1*
X49245Y19816D1*
X49240Y19895D1*
X49256Y20019D1*
X49297Y20137D1*
X49359Y20245D1*
X49442Y20338D1*
X49489Y20373D1*
X49414Y20440D1*
X49337Y20538D1*
X49281Y20650D1*
X49248Y20770D1*
X49240Y20895D1*
X49256Y21019D1*
X49297Y21137D1*
X49362Y21248D1*
X49240Y21245D1*
Y22505D1*
X49470D1*
Y24465D1*
X46458Y27477D1*
X44125Y27475D1*
X44002Y27494D1*
X43888Y27553D1*
X43665Y27769D1*
X42617Y28817D1*
X42543Y28922D1*
X42519Y28970D1*
X42270D1*
Y29724D1*
X33875Y29725D1*
X33500D1*
X33377Y29744D1*
X33263Y29803D1*
X33126Y29933D1*
X33081Y29757D1*
X33022Y29647D1*
X32942Y29551D1*
X32878Y29499D1*
X32970Y29420D1*
X33043Y29320D1*
X33096Y29206D1*
X33125Y29085D1*
X33130Y29000D1*
X33118Y28876D1*
X33081Y28757D1*
X33022Y28647D1*
X32942Y28551D1*
X32878Y28499D1*
X32970Y28420D1*
X33043Y28320D1*
X33096Y28206D1*
X33125Y28085D1*
X33130Y28000D1*
X33118Y27876D1*
X33081Y27757D1*
X33022Y27647D1*
X32942Y27551D1*
X32878Y27499D1*
X32970Y27420D1*
X33043Y27320D1*
X33096Y27206D1*
X33125Y27085D1*
X33130Y27000D1*
X33118Y26876D1*
X33081Y26757D1*
X33022Y26647D1*
X32942Y26551D1*
X32878Y26499D1*
X32970Y26420D1*
X33043Y26320D1*
X33096Y26206D1*
X33125Y26085D1*
X33130Y26000D1*
X33118Y25876D1*
X33081Y25757D1*
X33022Y25647D1*
X32942Y25551D1*
X32878Y25499D1*
X32970Y25420D1*
X33043Y25320D1*
X33096Y25206D1*
X33125Y25085D1*
X33130Y25000D1*
X33118Y24876D1*
X33081Y24757D1*
X33022Y24647D1*
X32942Y24551D1*
X32878Y24499D1*
X32970Y24420D1*
X33043Y24320D1*
X33096Y24206D1*
X33125Y24085D1*
X33130Y24000D1*
X33118Y23876D1*
X33081Y23757D1*
X33022Y23647D1*
X32942Y23551D1*
X32878Y23499D1*
X32970Y23420D1*
X33043Y23320D1*
X33096Y23206D1*
X33125Y23085D1*
X33129Y23019D1*
X33229Y23035D1*
X33353Y23025D1*
X33472Y22987D1*
X33579Y22922D1*
X33604Y22898D1*
X34625Y22900D1*
X35520D1*
X35615Y22968D1*
X35731Y23015D1*
X35854Y23035D1*
X35978Y23025D1*
X36097Y22987D1*
X36204Y22922D1*
X36292Y22835D1*
X36359Y22729D1*
X36398Y22611D1*
X36410Y22500D1*
X36395Y22376D1*
X36353Y22259D1*
X36284Y22155D1*
X36193Y22070D1*
X36085Y22008D1*
X35965Y21973D1*
X35840Y21966D1*
X35718Y21989D1*
X35604Y22039D1*
X35526Y22098D1*
X34754Y22100D1*
X34760Y22000D1*
X34748Y21876D1*
X34711Y21756D1*
X34652Y21646D1*
X34573Y21550D1*
X34476Y21471D1*
X34366Y21413D1*
X34247Y21377D1*
X34122Y21365D1*
X33998Y21378D1*
X33879Y21415D1*
X33769Y21474D1*
X33673Y21554D1*
X33595Y21651D1*
X33537Y21761D1*
X33501Y21881D1*
X33492Y22024D1*
X33340Y21973D1*
X33215Y21966D1*
X33127Y21982D1*
X33118Y21876D1*
X33081Y21757D1*
X33022Y21647D1*
X32942Y21551D1*
X32878Y21499D1*
X32970Y21420D1*
X33043Y21320D1*
X33096Y21206D1*
X33125Y21085D1*
X33130Y21000D1*
X33118Y20876D1*
X33081Y20757D1*
X33022Y20647D1*
X32942Y20551D1*
X32878Y20499D1*
X32970Y20420D1*
X33043Y20320D1*
X33096Y20206D1*
X33125Y20085D1*
X33130Y20000D1*
X33118Y19876D1*
X33081Y19757D1*
X33022Y19647D1*
X32942Y19551D1*
X32878Y19499D1*
X32970Y19420D1*
X33043Y19320D1*
X33096Y19206D1*
X33125Y19085D1*
X33130Y19000D1*
X33118Y18876D1*
X33081Y18757D1*
X33022Y18647D1*
X32942Y18551D1*
X32878Y18499D1*
X32970Y18420D1*
X33043Y18320D1*
X33096Y18206D1*
X33125Y18085D1*
X33130Y18000D1*
X33118Y17876D1*
X33081Y17757D1*
X33010Y17632D1*
X33130Y17630D1*
Y16370D1*
X32822D1*
X33791Y15400D1*
X38125D1*
X38248Y15381D1*
X38362Y15322D1*
X38585Y15106D1*
X39101Y14590D1*
X21082Y34192D2*
X21046Y34072D1*
X20989Y33961D1*
X20911Y33864D1*
X20816Y33783D1*
X20707Y33722D1*
X20589Y33682D1*
X20465Y33666D1*
X20340Y33674D1*
X20220Y33706D1*
X20107Y33760D1*
X20007Y33835D1*
X19923Y33927D1*
X19858Y34034D1*
X19815Y34151D1*
X19795Y34274D1*
X19799Y34399D1*
X19827Y34520D1*
X19877Y34635D1*
X19949Y34737D1*
X20038Y34824D1*
X20143Y34892D1*
X20259Y34939D1*
X20381Y34963D1*
X20506D1*
X20628Y34939D1*
X20744Y34892D1*
X20849Y34824D1*
X20939Y34738D1*
X21010Y34635D1*
X21061Y34521D1*
X21088Y34400D1*
X21094Y34316D1*
X21082Y34192D1*
X19919Y32966D2*
X21094D1*
Y31666D1*
X19794D1*
Y32966D1*
X19919D1*
X12707Y24692D2*
X12671Y24572D1*
X12614Y24461D1*
X12536Y24364D1*
X12441Y24283D1*
X12332Y24222D1*
X12214Y24182D1*
X12090Y24166D1*
X11965Y24174D1*
X11845Y24206D1*
X11732Y24260D1*
X11632Y24335D1*
X11548Y24427D1*
X11483Y24534D1*
X11440Y24651D1*
X11420Y24774D1*
X11424Y24899D1*
X11452Y25020D1*
X11502Y25135D1*
X11574Y25237D1*
X11663Y25324D1*
X11768Y25392D1*
X11884Y25439D1*
X12006Y25463D1*
X12131D1*
X12253Y25439D1*
X12369Y25392D1*
X12474Y25324D1*
X12564Y25238D1*
X12635Y25135D1*
X12686Y25021D1*
X12713Y24900D1*
X12719Y24816D1*
X12707Y24692D1*
X23207Y34192D2*
X23171Y34072D1*
X23114Y33961D1*
X23036Y33864D1*
X22941Y33783D1*
X22832Y33722D1*
X22714Y33682D1*
X22590Y33666D1*
X22465Y33674D1*
X22345Y33706D1*
X22232Y33760D1*
X22132Y33835D1*
X22048Y33927D1*
X21983Y34034D1*
X21940Y34151D1*
X21920Y34274D1*
X21924Y34399D1*
X21952Y34520D1*
X22002Y34635D1*
X22074Y34737D1*
X22163Y34824D1*
X22268Y34892D1*
X22384Y34939D1*
X22506Y34963D1*
X22631D1*
X22753Y34939D1*
X22869Y34892D1*
X22974Y34824D1*
X23064Y34738D1*
X23135Y34635D1*
X23186Y34521D1*
X23213Y34400D1*
X23219Y34316D1*
X23207Y34192D1*
X21944Y32966D2*
X23219D1*
Y31666D1*
X21919D1*
Y32966D1*
X21944D1*
X47649Y14100D2*
X47633Y13976D1*
X47593Y13858D1*
X47531Y13750D1*
X47449Y13655D1*
X47351Y13578D1*
X47240Y13521D1*
X47120Y13486D1*
X46996Y13475D1*
X46872Y13488D1*
X46752Y13524D1*
X46642Y13582D1*
X46545Y13661D1*
X46465Y13756D1*
X46404Y13866D1*
X46365Y13984D1*
X46350Y14108D1*
X46359Y14233D1*
X46391Y14353D1*
X46446Y14465D1*
X46521Y14565D1*
X46614Y14648D1*
X46721Y14712D1*
X46839Y14755D1*
X46962Y14774D1*
X47087Y14769D1*
X47208Y14741D1*
X47322Y14689D1*
X47424Y14617D1*
X47510Y14527D1*
X47578Y14422D1*
X47624Y14306D1*
X47647Y14184D1*
X47649Y14100D1*
X15561Y19314D2*
X16814D1*
Y17936D1*
X15436D1*
Y19314D1*
X15561D1*
X12453Y18501D2*
X12419Y18380D1*
X12364Y18268D1*
X12290Y18168D1*
X12199Y18082D1*
X12095Y18014D1*
X11979Y17967D1*
X11857Y17941D1*
X11732Y17937D1*
X11609Y17956D1*
X11491Y17997D1*
X11382Y18058D1*
X11287Y18138D1*
X11207Y18234D1*
X11146Y18343D1*
X11105Y18461D1*
X11086Y18584D1*
X11090Y18709D1*
X11117Y18831D1*
X11165Y18946D1*
X11233Y19051D1*
X11319Y19142D1*
X11419Y19216D1*
X11532Y19270D1*
X11652Y19303D1*
X11776Y19314D1*
X11900Y19303D1*
X12021Y19269D1*
X12133Y19214D1*
X12233Y19140D1*
X12318Y19049D1*
X12386Y18944D1*
X12433Y18828D1*
X12459Y18706D1*
X12464Y18625D1*
X12453Y18501D1*
X16276Y37609D2*
X16874D1*
X16785Y37727D1*
X16733Y37841D1*
X16704Y37962D1*
X16697Y38086D1*
X16714Y38210D1*
X16753Y38329D1*
X16814Y38438D1*
X16894Y38533D1*
X16991Y38613D1*
X17100Y38672D1*
X17219Y38711D1*
X17343Y38726D1*
X17467Y38719D1*
X17588Y38688D1*
X17702Y38635D1*
X17803Y38562D1*
X17908Y38442D1*
X17985Y38533D1*
X18081Y38613D1*
X18191Y38672D1*
X18310Y38711D1*
X18433Y38726D1*
X18558Y38719D1*
X18679Y38688D1*
X18792Y38635D1*
X18893Y38562D1*
X18998Y38442D1*
X19075Y38533D1*
X19172Y38613D1*
X19281Y38672D1*
X19400Y38711D1*
X19524Y38726D1*
X19649Y38719D1*
X19769Y38688D1*
X19883Y38635D1*
X19984Y38562D1*
X20089Y38442D1*
X20166Y38533D1*
X20262Y38613D1*
X20372Y38672D1*
X20491Y38711D1*
X20614Y38726D1*
X20739Y38719D1*
X20860Y38688D1*
X20973Y38635D1*
X21075Y38562D1*
X21161Y38472D1*
X21228Y38367D1*
X21275Y38251D1*
X21300Y38129D1*
X21304Y38059D1*
X21292Y37935D1*
X21257Y37815D1*
X21201Y37703D1*
X21127Y37608D1*
X21260Y37604D1*
X21382Y37578D1*
X21497Y37529D1*
X21601Y37460D1*
X21690Y37373D1*
X21762Y37271D1*
X21813Y37157D1*
X21842Y37036D1*
X21848Y36916D1*
X21832Y36792D1*
X21793Y36674D1*
X21733Y36564D1*
X21653Y36468D1*
X21557Y36389D1*
X21447Y36329D1*
X21329Y36290D1*
X21205Y36274D1*
X21080Y36281D1*
X20959Y36311D1*
X20846Y36364D1*
X20744Y36436D1*
X20658Y36526D1*
X20636Y36556D1*
X20580Y36486D1*
X20486Y36403D1*
X20379Y36339D1*
X20262Y36296D1*
X20139Y36275D1*
X20015Y36278D1*
X19892Y36303D1*
X19777Y36351D1*
X19673Y36420D1*
X19583Y36507D1*
X19545Y36561D1*
X19489Y36486D1*
X19396Y36403D1*
X19289Y36339D1*
X19172Y36296D1*
X19049Y36275D1*
X18924Y36278D1*
X18802Y36303D1*
X18687Y36351D1*
X18582Y36420D1*
X18493Y36507D1*
X18454Y36561D1*
X18398Y36486D1*
X18305Y36403D1*
X18198Y36339D1*
X18081Y36296D1*
X17958Y36275D1*
X17833Y36278D1*
X17711Y36303D1*
X17596Y36351D1*
X17489Y36423D1*
X17487Y36273D1*
X16151D1*
Y37609D1*
X16276D1*
X15347Y37375D2*
X15298Y37130D1*
X15202Y36900D1*
X15063Y36692D1*
X14887Y36516D1*
X14679Y36378D1*
X14448Y36282D1*
X14204Y36234D1*
X13954D1*
X13709Y36283D1*
X13479Y36379D1*
X13272Y36518D1*
X13096Y36695D1*
X12957Y36903D1*
X12862Y37134D1*
X12814Y37379D1*
X12815Y37629D1*
X12865Y37873D1*
X12961Y38104D1*
X13100Y38311D1*
X13278Y38486D1*
X13486Y38624D1*
X13717Y38719D1*
X13962Y38766D1*
X14211Y38765D1*
X14456Y38715D1*
X14686Y38619D1*
X14893Y38479D1*
X15068Y38302D1*
X15206Y38093D1*
X15300Y37862D1*
X15347Y37617D1*
Y37375D1*
X25185D2*
X25136Y37130D1*
X25041Y36900D1*
X24902Y36692D1*
X24725Y36516D1*
X24518Y36378D1*
X24287Y36282D1*
X24042Y36234D1*
X23793D1*
X23548Y36283D1*
X23317Y36379D1*
X23110Y36518D1*
X22934Y36695D1*
X22796Y36903D1*
X22701Y37134D1*
X22653Y37379D1*
X22654Y37629D1*
X22703Y37873D1*
X22800Y38104D1*
X22939Y38311D1*
X23116Y38486D1*
X23324Y38624D1*
X23555Y38719D1*
X23800Y38766D1*
X24050Y38765D1*
X24294Y38715D1*
X24525Y38619D1*
X24731Y38479D1*
X24907Y38302D1*
X25044Y38093D1*
X25139Y37862D1*
X25186Y37617D1*
X25185Y37375D1*
X38748Y16751D2*
X38711Y16631D1*
X38652Y16521D1*
X38573Y16425D1*
X38476Y16346D1*
X38366Y16288D1*
X38247Y16252D1*
X38122Y16240D1*
X37998Y16253D1*
X37879Y16290D1*
X37769Y16349D1*
X37673Y16429D1*
X37595Y16526D1*
X37537Y16636D1*
X37501Y16756D1*
X37490Y16880D1*
X37503Y17004D1*
X37541Y17123D1*
X37600Y17233D1*
X37681Y17328D1*
X37778Y17407D1*
X37888Y17464D1*
X38008Y17499D1*
X38133Y17510D1*
X38257Y17496D1*
X38376Y17458D1*
X38485Y17398D1*
X38580Y17318D1*
X38658Y17220D1*
X38715Y17109D1*
X38750Y16989D1*
X38760Y16875D1*
X38748Y16751D1*
X34748D2*
X34711Y16631D1*
X34652Y16521D1*
X34573Y16425D1*
X34476Y16346D1*
X34366Y16288D1*
X34247Y16252D1*
X34122Y16240D1*
X33998Y16253D1*
X33879Y16290D1*
X33769Y16349D1*
X33673Y16429D1*
X33595Y16526D1*
X33537Y16636D1*
X33501Y16756D1*
X33490Y16880D1*
X33503Y17004D1*
X33541Y17123D1*
X33600Y17233D1*
X33681Y17328D1*
X33778Y17407D1*
X33837Y17437D1*
X33769Y17474D1*
X33673Y17554D1*
X33595Y17651D1*
X33537Y17761D1*
X33501Y17881D1*
X33490Y18005D1*
X33503Y18129D1*
X33541Y18248D1*
X33600Y18358D1*
X33681Y18453D1*
X33778Y18532D1*
X33915Y18597D1*
X33843Y18614D1*
X33729Y18664D1*
X33629Y18739D1*
X33550Y18836D1*
X33495Y18948D1*
X33468Y19069D1*
X33469Y19194D1*
X33500Y19315D1*
X33565Y19434D1*
X33495Y19573D1*
X33468Y19694D1*
X33469Y19819D1*
X33500Y19940D1*
X33565Y20059D1*
X33495Y20198D1*
X33468Y20319D1*
X33469Y20444D1*
X33500Y20565D1*
X33557Y20676D1*
X33639Y20770D1*
X33740Y20843D1*
X33856Y20890D1*
X33979Y20910D1*
X34103Y20900D1*
X34222Y20862D1*
X34329Y20797D1*
X34354Y20773D1*
X35375Y20775D1*
X36645D1*
X36740Y20843D1*
X36852Y20889D1*
X36843Y20944D1*
X36844Y21069D1*
X36875Y21190D1*
X36932Y21301D1*
X36976Y21351D1*
X36975Y24145D1*
X36925Y24211D1*
X36870Y24323D1*
X36843Y24444D1*
X36844Y24569D1*
X36875Y24690D1*
X36932Y24801D1*
X37014Y24895D1*
X37115Y24968D1*
X37231Y25015D1*
X37354Y25035D1*
X37478Y25025D1*
X37597Y24987D1*
X37704Y24922D1*
X37792Y24835D1*
X37859Y24729D1*
X37898Y24611D1*
X37910Y24500D1*
X37895Y24376D1*
X37853Y24259D1*
X37775Y24147D1*
Y21355D1*
X37859Y21229D1*
X37898Y21111D1*
X37910Y21000D1*
X37895Y20876D1*
X37853Y20759D1*
X37784Y20655D1*
X37693Y20570D1*
X37585Y20508D1*
X37523Y20486D1*
X37535Y20375D1*
X37520Y20251D1*
X37478Y20134D1*
X37409Y20030D1*
X37318Y19945D1*
X37210Y19883D1*
X37090Y19848D1*
X36965Y19841D1*
X36843Y19864D1*
X36729Y19914D1*
X36651Y19973D1*
X36238Y19975D1*
X36273Y19861D1*
X36285Y19750D1*
X36264Y19608D1*
X36356Y19640D1*
X36479Y19660D1*
X36603Y19650D1*
X36722Y19612D1*
X36829Y19547D1*
X36917Y19460D1*
X36984Y19354D1*
X37023Y19236D1*
X37035Y19125D1*
X37020Y19001D1*
X36978Y18884D1*
X36909Y18780D1*
X36818Y18695D1*
X36710Y18633D1*
X36590Y18598D1*
X36465Y18591D1*
X36343Y18614D1*
X36229Y18664D1*
X36151Y18723D1*
X34625Y18725D1*
X34355D1*
X34210Y18633D1*
X34257Y18621D1*
X34376Y18583D1*
X34485Y18523D1*
X34580Y18443D1*
X34658Y18345D1*
X34715Y18234D1*
X34750Y18114D1*
X34760Y18000D1*
X34748Y17876D1*
X34711Y17756D1*
X34652Y17646D1*
X34573Y17550D1*
X34476Y17471D1*
X34418Y17440D1*
X34485Y17398D1*
X34580Y17318D1*
X34658Y17220D1*
X34715Y17109D1*
X34750Y16989D1*
X34760Y16875D1*
X34748Y16751D1*
X6748Y5001D2*
X6711Y4881D1*
X6652Y4771D1*
X6573Y4675D1*
X6476Y4596D1*
X6366Y4538D1*
X6247Y4502D1*
X6122Y4490D1*
X5998Y4503D1*
X5879Y4540D1*
X5769Y4599D1*
X5673Y4679D1*
X5595Y4776D1*
X5537Y4886D1*
X5501Y5006D1*
X5490Y5130D1*
X5503Y5254D1*
X5541Y5373D1*
X5600Y5483D1*
X5681Y5578D1*
X5778Y5657D1*
X5888Y5714D1*
X6008Y5749D1*
X6133Y5760D1*
X6257Y5746D1*
X6376Y5708D1*
X6485Y5648D1*
X6580Y5568D1*
X6658Y5470D1*
X6715Y5359D1*
X6750Y5239D1*
X6760Y5125D1*
X6748Y5001D1*
X10748D2*
X10711Y4881D1*
X10652Y4771D1*
X10573Y4675D1*
X10476Y4596D1*
X10366Y4538D1*
X10247Y4502D1*
X10122Y4490D1*
X9998Y4503D1*
X9879Y4540D1*
X9769Y4599D1*
X9673Y4679D1*
X9595Y4776D1*
X9537Y4886D1*
X9501Y5006D1*
X9490Y5130D1*
X9503Y5254D1*
X9541Y5373D1*
X9600Y5483D1*
X9681Y5578D1*
X9778Y5657D1*
X9888Y5714D1*
X10008Y5749D1*
X10133Y5760D1*
X10257Y5746D1*
X10376Y5708D1*
X10485Y5648D1*
X10580Y5568D1*
X10658Y5470D1*
X10715Y5359D1*
X10750Y5239D1*
X10760Y5125D1*
X10748Y5001D1*
X1236Y32755D2*
X1116Y32769D1*
X997Y32807D1*
X889Y32869D1*
X794Y32950D1*
X717Y33048D1*
X661Y33160D1*
X628Y33280D1*
X625Y33187D1*
Y32207D1*
X677Y32387D1*
X739Y32495D1*
X822Y32588D1*
X922Y32663D1*
X1034Y32717D1*
X1155Y32748D1*
X1280Y32755D1*
X1236Y31495D2*
X1116Y31509D1*
X997Y31548D1*
X889Y31609D1*
X794Y31690D1*
X717Y31788D1*
X661Y31900D1*
X628Y32020D1*
X625Y31937D1*
Y30949D1*
X677Y31127D1*
X739Y31235D1*
X822Y31328D1*
X922Y31403D1*
X1034Y31457D1*
X1155Y31488D1*
X1280Y31495D1*
X4849Y2190D2*
X4761Y2297D1*
X4722Y2408D1*
X4718Y2835D1*
Y3050D1*
X4741Y3172D1*
X4816Y3287D1*
X4915Y3386D1*
X4989Y3441D1*
X5099Y3480D1*
X5348Y3484D1*
X5486Y3454D1*
X5744Y3484D1*
X5868Y3471D1*
X6002Y3418D1*
X6049Y3444D1*
X6169Y3478D1*
X6294Y3482D1*
X6416Y3457D1*
X6529Y3405D1*
X6627Y3327D1*
X6704Y3229D1*
X6756Y3116D1*
X6780Y2994D1*
X6782Y2558D1*
X6767Y2434D1*
X6724Y2317D1*
X6655Y2213D1*
X6564Y2129D1*
X6455Y2067D1*
X6335Y2033D1*
X6210Y2028D1*
X6088Y2052D1*
X6000Y2089D1*
X5835Y2033D1*
X5710Y2028D1*
X5588Y2052D1*
X5528Y2079D1*
X5401Y2030D1*
X5152Y2026D1*
X5029Y2049D1*
X4915Y2124D1*
X4849Y2190D1*
X41875Y5620D2*
X41817Y5551D1*
X41720Y5473D1*
X41609Y5415D1*
X41489Y5380D1*
X41365Y5370D1*
X41241Y5384D1*
X41122Y5423D1*
X41014Y5484D1*
X40919Y5565D1*
X40842Y5663D1*
X40786Y5775D1*
X40753Y5895D1*
X40745Y6020D1*
X40761Y6144D1*
X40802Y6262D1*
X40864Y6370D1*
X40947Y6463D1*
X41047Y6538D1*
X41159Y6592D1*
X41280Y6623D1*
X41405Y6630D1*
X41528Y6611D1*
X41646Y6569D1*
X41753Y6505D1*
X41845Y6420D1*
X41875Y6379D1*
X41947Y6463D1*
X42047Y6538D1*
X42159Y6592D1*
X42280Y6623D1*
X42405Y6630D1*
X42528Y6611D1*
X42646Y6569D1*
X42753Y6505D1*
X42845Y6420D1*
X42875Y6379D1*
X42947Y6463D1*
X43047Y6538D1*
X43159Y6592D1*
X43280Y6623D1*
X43405Y6630D1*
X43528Y6611D1*
X43646Y6569D1*
X43753Y6505D1*
X43845Y6420D1*
X43875Y6379D1*
X43947Y6463D1*
X44047Y6538D1*
X44159Y6592D1*
X44280Y6623D1*
X44405Y6630D1*
X44528Y6611D1*
X44646Y6569D1*
X44753Y6505D1*
X44845Y6420D1*
X44875Y6379D1*
X44947Y6463D1*
X45047Y6538D1*
X45159Y6592D1*
X45280Y6623D1*
X45405Y6630D1*
X45528Y6611D1*
X45646Y6569D1*
X45753Y6505D1*
X45845Y6420D1*
X45875Y6379D1*
X45947Y6463D1*
X46047Y6538D1*
X46159Y6592D1*
X46280Y6623D1*
X46405Y6630D1*
X46528Y6611D1*
X46646Y6569D1*
X46753Y6505D1*
X46845Y6420D1*
X46875Y6379D1*
X46947Y6463D1*
X47047Y6538D1*
X47159Y6592D1*
X47280Y6623D1*
X47405Y6630D1*
X47528Y6611D1*
X47646Y6569D1*
X47753Y6505D1*
X47845Y6420D1*
X47875Y6379D1*
X47947Y6463D1*
X48047Y6538D1*
X48159Y6592D1*
X48280Y6623D1*
X48405Y6630D1*
X48528Y6611D1*
X48646Y6569D1*
X48753Y6505D1*
X48845Y6420D1*
X48918Y6320D1*
X48971Y6206D1*
X49000Y6085D1*
X49005Y6000D1*
X48993Y5876D1*
X48956Y5757D1*
X48897Y5647D1*
X48817Y5551D1*
X48720Y5473D1*
X48609Y5415D1*
X48489Y5380D1*
X48365Y5370D1*
X48241Y5384D1*
X48122Y5423D1*
X48014Y5484D1*
X47919Y5565D1*
X47878Y5617D1*
X47817Y5551D1*
X47720Y5473D1*
X47609Y5415D1*
X47489Y5380D1*
X47365Y5370D1*
X47241Y5384D1*
X47122Y5423D1*
X47014Y5484D1*
X46919Y5565D1*
X46878Y5617D1*
X46817Y5551D1*
X46720Y5473D1*
X46609Y5415D1*
X46489Y5380D1*
X46365Y5370D1*
X46241Y5384D1*
X46122Y5423D1*
X46014Y5484D1*
X45919Y5565D1*
X45878Y5617D1*
X45817Y5551D1*
X45720Y5473D1*
X45609Y5415D1*
X45489Y5380D1*
X45365Y5370D1*
X45241Y5384D1*
X45122Y5423D1*
X45014Y5484D1*
X44919Y5565D1*
X44878Y5617D1*
X44817Y5551D1*
X44720Y5473D1*
X44609Y5415D1*
X44489Y5380D1*
X44365Y5370D1*
X44241Y5384D1*
X44122Y5423D1*
X44014Y5484D1*
X43919Y5565D1*
X43878Y5617D1*
X43817Y5551D1*
X43720Y5473D1*
X43609Y5415D1*
X43489Y5380D1*
X43365Y5370D1*
X43241Y5384D1*
X43122Y5423D1*
X43014Y5484D1*
X42919Y5565D1*
X42878Y5617D1*
X42817Y5551D1*
X42720Y5473D1*
X42609Y5415D1*
X42489Y5380D1*
X42365Y5370D1*
X42241Y5384D1*
X42122Y5423D1*
X42014Y5484D1*
X41919Y5565D1*
X41878Y5617D1*
X45618Y22376D2*
X45581Y22257D1*
X45522Y22147D1*
X45442Y22051D1*
X45378Y21999D1*
X45470Y21920D1*
X45543Y21820D1*
X45596Y21706D1*
X45625Y21585D1*
X45630Y21500D1*
X45618Y21376D1*
X45581Y21257D1*
X45522Y21147D1*
X45442Y21051D1*
X45378Y20999D1*
X45470Y20920D1*
X45543Y20820D1*
X45596Y20706D1*
X45625Y20585D1*
X45630Y20500D1*
X45618Y20376D1*
X45581Y20257D1*
X45522Y20147D1*
X45442Y20051D1*
X45378Y19999D1*
X45470Y19920D1*
X45543Y19820D1*
X45596Y19706D1*
X45625Y19585D1*
X45630Y19500D1*
X45618Y19376D1*
X45581Y19257D1*
X45522Y19147D1*
X45442Y19051D1*
X45378Y18999D1*
X45470Y18920D1*
X45543Y18820D1*
X45596Y18706D1*
X45625Y18585D1*
X45630Y18500D1*
X45625Y18400D1*
X46270D1*
X46365Y18468D1*
X46481Y18515D1*
X46604Y18535D1*
X46728Y18525D1*
X46847Y18487D1*
X46954Y18422D1*
X47042Y18335D1*
X47109Y18229D1*
X47148Y18111D1*
X47160Y18000D1*
X47145Y17876D1*
X47103Y17759D1*
X47034Y17655D1*
X46943Y17570D1*
X46835Y17508D1*
X46715Y17473D1*
X46590Y17466D1*
X46468Y17489D1*
X46354Y17539D1*
X46276Y17598D1*
X45621Y17600D1*
X45630Y17500D1*
X45618Y17376D1*
X45581Y17257D1*
X45522Y17147D1*
X45442Y17051D1*
X45378Y16999D1*
X45470Y16920D1*
X45543Y16820D1*
X45596Y16706D1*
X45625Y16585D1*
X45630Y16500D1*
X45618Y16376D1*
X45581Y16257D1*
X45522Y16147D1*
X45442Y16051D1*
X45345Y15973D1*
X45234Y15915D1*
X45114Y15880D1*
X44990Y15870D1*
X44866Y15884D1*
X44747Y15923D1*
X44639Y15984D1*
X44544Y16065D1*
X44467Y16163D1*
X44411Y16275D1*
X44378Y16395D1*
X44370Y16520D1*
X44386Y16644D1*
X44427Y16762D1*
X44489Y16870D1*
X44572Y16963D1*
X44619Y16998D1*
X44544Y17065D1*
X44467Y17163D1*
X44411Y17275D1*
X44378Y17395D1*
X44371Y17524D1*
X44215Y17473D1*
X44090Y17466D1*
X43968Y17489D1*
X43854Y17539D1*
X43754Y17614D1*
X43675Y17711D1*
X43620Y17823D1*
X43593Y17944D1*
X43594Y18069D1*
X43625Y18190D1*
X43682Y18301D1*
X43764Y18395D1*
X43865Y18468D1*
X43981Y18515D1*
X44104Y18535D1*
X44228Y18525D1*
X44370Y18473D1*
X44386Y18644D1*
X44427Y18762D1*
X44489Y18870D1*
X44572Y18963D1*
X44619Y18998D1*
X44544Y19065D1*
X44467Y19163D1*
X44411Y19275D1*
X44378Y19395D1*
X44370Y19520D1*
X44386Y19644D1*
X44427Y19762D1*
X44489Y19870D1*
X44572Y19963D1*
X44619Y19998D1*
X44544Y20065D1*
X44467Y20163D1*
X44411Y20275D1*
X44378Y20395D1*
X44370Y20520D1*
X44386Y20644D1*
X44427Y20762D1*
X44489Y20870D1*
X44572Y20963D1*
X44619Y20998D1*
X44544Y21065D1*
X44467Y21163D1*
X44411Y21275D1*
X44378Y21395D1*
X44370Y21520D1*
X44386Y21644D1*
X44427Y21762D1*
X44489Y21870D1*
X44572Y21963D1*
X44619Y21998D1*
X44544Y22065D1*
X44467Y22163D1*
X44411Y22275D1*
X44378Y22395D1*
X44370Y22520D1*
X44386Y22644D1*
X44427Y22762D1*
X44489Y22870D1*
X44572Y22963D1*
X44672Y23038D1*
X44784Y23092D1*
X44905Y23123D1*
X45030Y23130D1*
X45153Y23111D1*
X45271Y23069D1*
X45378Y23005D1*
X45470Y22920D1*
X45543Y22820D1*
X45596Y22706D1*
X45625Y22585D1*
X45630Y22500D1*
X45618Y22376D1*
X43256Y17130D2*
X43380D1*
Y15870D1*
X42120D1*
Y16389D1*
X41817Y16692D1*
X41743Y16792D1*
X41706Y16885D1*
X41690Y17000D1*
Y18875D1*
X41708Y18998D1*
X41747Y19090D1*
X41817Y19183D1*
X42118Y19484D1*
X42136Y19644D1*
X42177Y19762D1*
X42239Y19870D1*
X42322Y19963D1*
X42369Y19998D1*
X42294Y20065D1*
X42217Y20163D1*
X42161Y20275D1*
X42128Y20395D1*
X42120Y20520D1*
X42136Y20644D1*
X42177Y20762D1*
X42239Y20870D1*
X42322Y20963D1*
X42369Y20998D1*
X42294Y21065D1*
X42217Y21163D1*
X42161Y21275D1*
X42128Y21395D1*
X42120Y21520D1*
X42136Y21644D1*
X42177Y21762D1*
X42239Y21870D1*
X42322Y21963D1*
X42369Y21998D1*
X42277Y22083D1*
X42204Y22185D1*
X42153Y22299D1*
X42125Y22420D1*
X42121Y22545D1*
X42142Y22668D1*
X42187Y22784D1*
X42255Y22890D1*
X42341Y22980D1*
X42443Y23051D1*
X42558Y23100D1*
X42680Y23126D1*
X42805Y23128D1*
X42927Y23105D1*
X43043Y23058D1*
X43147Y22989D1*
X43236Y22901D1*
X43305Y22798D1*
X43353Y22682D1*
X43377Y22560D1*
X43376Y22425D1*
X43349Y22303D1*
X43298Y22189D1*
X43226Y22087D1*
X43134Y22000D1*
X43220Y21920D1*
X43293Y21820D1*
X43346Y21706D1*
X43375Y21585D1*
X43380Y21500D1*
X43368Y21376D1*
X43331Y21257D1*
X43272Y21147D1*
X43192Y21051D1*
X43128Y20999D1*
X43220Y20920D1*
X43293Y20820D1*
X43346Y20706D1*
X43375Y20585D1*
X43380Y20500D1*
X43368Y20376D1*
X43331Y20257D1*
X43272Y20147D1*
X43192Y20051D1*
X43128Y19999D1*
X43220Y19920D1*
X43293Y19820D1*
X43346Y19706D1*
X43375Y19585D1*
X43380Y19500D1*
X43368Y19376D1*
X43331Y19257D1*
X43272Y19147D1*
X43192Y19051D1*
X43128Y18999D1*
X43220Y18920D1*
X43293Y18820D1*
X43346Y18706D1*
X43375Y18585D1*
X43380Y18500D1*
X43368Y18376D1*
X43331Y18257D1*
X43272Y18147D1*
X43192Y18051D1*
X43128Y17999D1*
X43220Y17920D1*
X43293Y17820D1*
X43346Y17706D1*
X43375Y17585D1*
X43380Y17500D1*
X43368Y17376D1*
X43331Y17257D1*
X43260Y17132D1*
X8314Y28571D2*
X9449D1*
Y27311D1*
X8189D1*
Y28571D1*
X8314D1*
X9449Y33916D2*
X9431Y33792D1*
X9390Y33675D1*
X9326Y33567D1*
X9243Y33475D1*
X9143Y33400D1*
X9030Y33347D1*
X8909Y33317D1*
X8784Y33312D1*
X8661Y33331D1*
X8544Y33374D1*
X8437Y33439D1*
X8346Y33524D1*
X8273Y33626D1*
X8222Y33739D1*
X8194Y33861D1*
X8190Y33986D1*
X8211Y34109D1*
X8256Y34225D1*
X8323Y34330D1*
X8410Y34420D1*
X8512Y34492D1*
X8627Y34541D1*
X8749Y34567D1*
X8874Y34569D1*
X8996Y34546D1*
X9112Y34499D1*
X9216Y34430D1*
X9305Y34342D1*
X9374Y34239D1*
X9422Y34123D1*
X9446Y34001D1*
X9449Y33916D1*
X6437Y33817D2*
X6400Y33697D1*
X6341Y33588D1*
X6261Y33492D1*
X6164Y33413D1*
X6053Y33356D1*
X5933Y33321D1*
X5809Y33311D1*
X5685Y33325D1*
X5566Y33364D1*
X5457Y33425D1*
X5363Y33506D1*
X5286Y33604D1*
X5230Y33716D1*
X5197Y33836D1*
X5189Y33961D1*
X5205Y34085D1*
X5246Y34203D1*
X5308Y34311D1*
X5391Y34404D1*
X5491Y34479D1*
X5603Y34533D1*
X5724Y34564D1*
X5849Y34571D1*
X5972Y34552D1*
X6090Y34510D1*
X6197Y34446D1*
X6289Y34361D1*
X6362Y34261D1*
X6414Y34147D1*
X6443Y34026D1*
X6449Y33941D1*
X6437Y33817D1*
Y27817D2*
X6400Y27697D1*
X6341Y27588D1*
X6261Y27492D1*
X6164Y27413D1*
X6053Y27356D1*
X5933Y27321D1*
X5809Y27311D1*
X5685Y27325D1*
X5566Y27364D1*
X5457Y27425D1*
X5363Y27506D1*
X5286Y27604D1*
X5230Y27716D1*
X5197Y27836D1*
X5189Y27961D1*
X5205Y28085D1*
X5246Y28203D1*
X5308Y28311D1*
X5391Y28404D1*
X5491Y28479D1*
X5603Y28533D1*
X5724Y28564D1*
X5849Y28571D1*
X5972Y28552D1*
X6090Y28510D1*
X6197Y28446D1*
X6289Y28361D1*
X6362Y28261D1*
X6414Y28147D1*
X6443Y28026D1*
X6449Y27941D1*
X6437Y27817D1*
X3620Y19130D2*
X4755D1*
Y17870D1*
X3495D1*
Y19130D1*
X3620D1*
X10755Y18475D2*
X10738Y18351D1*
X10696Y18234D1*
X10633Y18126D1*
X10549Y18034D1*
X10449Y17959D1*
X10336Y17906D1*
X10215Y17876D1*
X10090Y17871D1*
X9967Y17890D1*
X9850Y17933D1*
X9743Y17998D1*
X9652Y18083D1*
X9579Y18185D1*
X9528Y18299D1*
X9500Y18420D1*
X9496Y18545D1*
X9517Y18668D1*
X9562Y18784D1*
X9630Y18890D1*
X9716Y18980D1*
X9818Y19051D1*
X9933Y19100D1*
X10055Y19126D1*
X10180Y19128D1*
X10302Y19105D1*
X10418Y19058D1*
X10522Y18989D1*
X10611Y18901D1*
X10680Y18798D1*
X10728Y18682D1*
X10752Y18560D1*
X10755Y18475D1*
X4580Y21066D2*
X4470Y20973D1*
X4359Y20915D1*
X4239Y20880D1*
X4115Y20870D1*
X3991Y20884D1*
X3872Y20923D1*
X3764Y20984D1*
X3669Y21065D1*
X3592Y21163D1*
X3536Y21275D1*
X3503Y21395D1*
X3495Y21520D1*
X3511Y21644D1*
X3552Y21762D1*
X3614Y21870D1*
X3697Y21963D1*
X3797Y22038D1*
X3909Y22092D1*
X4030Y22123D1*
X4155Y22130D1*
X4278Y22111D1*
X4396Y22069D1*
X4503Y22005D1*
X4580Y21934D1*
X6066Y21935D1*
X6597Y22462D1*
X6625Y22565D1*
X6682Y22676D1*
X6764Y22770D1*
X6865Y22843D1*
X6981Y22890D1*
X7104Y22910D1*
X7228Y22900D1*
X7347Y22862D1*
X7454Y22797D1*
X7542Y22710D1*
X7609Y22604D1*
X7648Y22486D1*
X7660Y22375D1*
X7645Y22251D1*
X7603Y22134D1*
X7534Y22030D1*
X7443Y21945D1*
X7335Y21883D1*
X7211Y21847D1*
X6558Y21192D1*
X6458Y21118D1*
X6365Y21081D1*
X6250Y21065D1*
X4582D1*
X39625Y8149D2*
D13*
Y6851D1*
X38976Y7500D2*
X40274D1*
X40875Y38649D2*
Y38000D1*
X40226D2*
X41524D1*
X25125Y19524D2*
Y18226D1*
X24476Y18875D2*
X25125D1*
X34313Y26649D2*
Y25351D1*
X33663Y26000D2*
X34962D1*
X11194Y29340D2*
Y28041D1*
X10544Y28691D2*
X11843D1*
X41750Y14774D2*
Y13476D1*
X41101Y14125D2*
X42399D1*
X55750Y26000D2*
Y25351D1*
Y26000D2*
X56399D1*
X22569Y32965D2*
Y31666D1*
X21919Y32316D2*
X23218D1*
X47000Y14774D2*
Y13476D1*
X46351Y14125D2*
X47649D1*
X52250Y6649D2*
Y5351D1*
X51601Y6000D2*
X52899D1*
X18500Y8255D2*
Y6995D1*
X17870Y7625D2*
X18500D1*
X17500Y31005D2*
Y30375D1*
X16870D2*
X18130D1*
X22854Y18375D2*
X24114D1*
X22854Y19375D2*
X24114D1*
X55900Y30230D2*
Y28970D1*
Y29600D2*
X56530D1*
X26500Y36630D2*
Y36000D1*
X25870D2*
X27130D1*
X49870Y8875D2*
Y8245D1*
X49240Y8875D2*
X50500D1*
X12439Y28191D2*
X13069D1*
X42000Y3500D2*
X42630D1*
X13870Y2731D2*
Y2082D1*
X13221Y2731D2*
X13870D1*
X21181Y37608D2*
Y36274D1*
Y36941D2*
X21848D1*
X11380Y2908D2*
Y1570D1*
X10710Y2239D2*
X12049D1*
X6250Y3483D2*
Y2027D1*
Y2755D2*
X6781D1*
X41375Y9630D2*
Y8370D1*
X40745Y9000D2*
X41375D1*
X48000Y23130D2*
Y22500D1*
X47370D2*
X48630D1*
X42750Y23130D2*
Y22500D1*
X42120D2*
X43380D1*
X10630Y9255D2*
Y8625D1*
X8819Y34571D2*
Y33311D1*
X8189Y33941D2*
X9449D1*
X10125Y19130D2*
Y17870D1*
X9495Y18500D2*
X10755D1*
D20*
X6000Y9750D3*
D21*
Y10750D3*
D20*
X39625Y7500D3*
D21*
Y9500D3*
D20*
X7625Y7750D3*
D21*
X6625D3*
D20*
X40875Y38000D3*
D21*
X42875D3*
D20*
X25125Y18875D3*
D21*
Y16875D3*
D20*
X34313Y26000D3*
D21*
Y24000D3*
D20*
X18319Y34316D3*
D21*
Y32316D3*
D20*
X11194Y28691D3*
D21*
Y26691D3*
D20*
X41750Y14125D3*
D21*
X39750D3*
D20*
X55750Y26000D3*
D21*
X53750D3*
D20*
X20444Y34316D3*
D21*
Y32316D3*
D20*
X12069Y24816D3*
D21*
X14069D3*
D20*
X22569Y34316D3*
D21*
Y32316D3*
D20*
X47000Y14125D3*
D21*
X45000D3*
D20*
X52250Y6000D3*
D21*
X50250D3*
D22*
X16125Y18625D3*
D23*
X11775D3*
D22*
X4000Y7750D3*
D23*
Y12100D3*
D24*
X18500Y7625D3*
D25*
X19500D3*
X20500D3*
X21500D3*
X22500D3*
X23500D3*
X24500D3*
X25500D3*
X26500D3*
X27500D3*
X28500D3*
X29500D3*
X30500D3*
X31500D3*
X32500D3*
X33500D3*
X34500D3*
X35500D3*
X36500D3*
X37500D3*
Y13625D3*
X36500D3*
X35500D3*
X34500D3*
X33500D3*
X32500D3*
X31500D3*
X30500D3*
X29500D3*
X28500D3*
X27500D3*
X26500D3*
X25500D3*
X24500D3*
X23500D3*
X22500D3*
X21500D3*
X20500D3*
X19500D3*
X18500D3*
D24*
X17500Y30375D3*
D25*
Y29375D3*
Y28375D3*
Y27375D3*
Y26375D3*
Y25375D3*
Y24375D3*
Y23375D3*
Y22375D3*
Y21375D3*
Y20375D3*
Y19375D3*
Y18375D3*
Y17375D3*
X23484D3*
Y18375D3*
Y19375D3*
Y20375D3*
Y21375D3*
Y22375D3*
Y23375D3*
Y24375D3*
Y25375D3*
Y26375D3*
Y27375D3*
Y28375D3*
Y29375D3*
Y30375D3*
D24*
X42900Y29600D3*
D25*
X43900D3*
X44900D3*
X45900D3*
X46900D3*
X47900D3*
X48900D3*
X49900D3*
X50900D3*
X51900D3*
X52900D3*
X53900D3*
X54900D3*
X55900D3*
Y35600D3*
X54900D3*
X53900D3*
X52900D3*
X51900D3*
X50900D3*
X49900D3*
X48900D3*
X47900D3*
X46900D3*
X45900D3*
X44900D3*
X43900D3*
X42900D3*
D24*
X32500Y17000D3*
D25*
Y18000D3*
Y19000D3*
Y20000D3*
Y21000D3*
Y22000D3*
Y23000D3*
Y24000D3*
Y25000D3*
Y26000D3*
Y27000D3*
Y28000D3*
Y29000D3*
Y30000D3*
Y31000D3*
Y32000D3*
Y33000D3*
Y34000D3*
Y35000D3*
Y36000D3*
X26500D3*
Y35000D3*
Y34000D3*
Y33000D3*
Y32000D3*
Y31000D3*
Y30000D3*
Y29000D3*
Y28000D3*
Y27000D3*
Y26000D3*
Y25000D3*
Y24000D3*
Y23000D3*
Y22000D3*
Y21000D3*
Y20000D3*
Y19000D3*
Y18000D3*
Y17000D3*
D24*
X49870Y21875D3*
D25*
Y20875D3*
Y19875D3*
Y18875D3*
Y17875D3*
Y16875D3*
Y15875D3*
Y14875D3*
Y13875D3*
Y12875D3*
Y11875D3*
Y10875D3*
Y9875D3*
Y8875D3*
X55870D3*
Y9875D3*
Y10875D3*
Y11875D3*
Y12875D3*
Y13875D3*
Y14875D3*
Y15875D3*
Y16875D3*
Y17875D3*
Y18875D3*
Y19875D3*
Y20875D3*
Y21875D3*
D24*
X16069Y27191D3*
D25*
Y28191D3*
Y29191D3*
Y30191D3*
Y31191D3*
Y32191D3*
Y33191D3*
Y34191D3*
X13069D3*
Y33191D3*
Y32191D3*
Y31191D3*
Y30191D3*
Y29191D3*
Y28191D3*
Y27191D3*
D24*
X18000Y2500D3*
D25*
Y3500D3*
X19000Y2500D3*
Y3500D3*
X20000Y2500D3*
Y3500D3*
X21000Y2500D3*
Y3500D3*
X22000Y2500D3*
Y3500D3*
X23000Y2500D3*
Y3500D3*
X24000Y2500D3*
Y3500D3*
X25000Y2500D3*
Y3500D3*
X26000Y2500D3*
Y3500D3*
X27000Y2500D3*
Y3500D3*
X28000Y2500D3*
Y3500D3*
X29000Y2500D3*
Y3500D3*
X30000Y2500D3*
Y3500D3*
X31000Y2500D3*
Y3500D3*
X32000Y2500D3*
Y3500D3*
X33000Y2500D3*
Y3500D3*
X34000Y2500D3*
Y3500D3*
X35000Y2500D3*
Y3500D3*
X36000Y2500D3*
Y3500D3*
X37000Y2500D3*
Y3500D3*
X38000Y2500D3*
Y3500D3*
X39000Y2500D3*
Y3500D3*
X40000Y2500D3*
Y3500D3*
X41000Y2500D3*
Y3500D3*
X42000Y2500D3*
Y3500D3*
D21*
X13870Y3519D3*
D26*
Y2731D3*
D27*
X16819Y36941D3*
D28*
X17909D3*
X19000D3*
X20091D3*
X21181D3*
X17364Y38059D3*
X18455D3*
X19545D3*
X20636D3*
D29*
X14081Y37500D3*
X23919D3*
D30*
X3996Y14005D3*
X5964D3*
D31*
X11875Y21625D3*
D32*
X15875D3*
D31*
X7500Y16000D3*
D32*
X11500D3*
D31*
X38125Y16875D3*
D32*
X34125D3*
D31*
Y18000D3*
D32*
Y22000D3*
D31*
X6125Y5125D3*
D32*
X10125D3*
D31*
X7500Y14125D3*
D32*
X11500D3*
D33*
X11380Y2239D3*
D34*
Y4011D3*
X8820D3*
Y2239D3*
D25*
X1250Y33385D3*
Y32125D3*
Y30865D3*
G36*
X5053Y2460D2*
X5152Y2361D1*
X5348D1*
X5447Y2460D1*
Y3050D1*
X5348Y3149D1*
X5152D1*
X5053Y3050D1*
Y2460D1*
G37*
D35*
X5750Y2755D3*
X6250D3*
D24*
X48375Y9000D3*
D25*
X47375D3*
X46375D3*
X45375D3*
X44375D3*
X43375D3*
X42375D3*
X41375D3*
Y6000D3*
X42375D3*
X43375D3*
X44375D3*
X45375D3*
X46375D3*
X47375D3*
X48375D3*
D24*
X48000Y16500D3*
D25*
Y17500D3*
Y18500D3*
Y19500D3*
Y20500D3*
Y21500D3*
Y22500D3*
X45000D3*
Y21500D3*
Y20500D3*
Y19500D3*
Y18500D3*
Y17500D3*
Y16500D3*
D24*
X42750D3*
D25*
Y17500D3*
Y18500D3*
Y19500D3*
Y20500D3*
Y21500D3*
Y22500D3*
X39750D3*
Y21500D3*
Y20500D3*
Y19500D3*
Y18500D3*
Y17500D3*
Y16500D3*
D24*
X10630Y9255D3*
D25*
Y10255D3*
Y11255D3*
Y12255D3*
X7630D3*
Y11255D3*
Y10255D3*
Y9255D3*
D24*
X8819Y27941D3*
D25*
Y33941D3*
X5819D3*
Y27941D3*
D24*
X4125Y18500D3*
D25*
X10125D3*
Y21500D3*
X4125D3*
G36*
X13955Y10572D2*
X13856Y10473D1*
Y10277D1*
X13955Y10178D1*
X14545D1*
X14644Y10277D1*
Y10473D1*
X14545Y10572D1*
X13955D1*
G37*
D36*
X14250Y9875D3*
Y9375D3*
D31*
X11500Y5130D3*
D32*
Y9130D3*
M02*
