M48
INCH
T01C0.019
T02C0.0276
T03C0.0354
T04C0.0374
T05C0.038
T06C0.0394
T07C0.0429
T08C0.0472
T09C0.125
T10C0.1283
%
T01
X+053375Y+018375
X+053750Y+020250
X+046625Y+018000
X+044125Y+018000
X+037375Y+021000
X+037000Y+020375
X+036500Y+019125
X+035750Y+019750
X+034000Y+019750
X+034000Y+019125
X+034000Y+020375
X+033250Y+022500
X+035875Y+022500
X+037375Y+024500
X+031875Y+018000
X+030250Y+018500
X+029500Y+020000
X+027000Y+019500
X+029375Y+016875
X+028000Y+013125
X+028000Y+010750
X+026375Y+011125
X+025500Y+010750
X+025000Y+011125
X+022000Y+011500
X+022000Y+009875
X+018500Y+010375
X+018125Y+008500
X+017000Y+011875
X+017125Y+012375
X+022000Y+014935
X+023444Y+016378
X+019125Y+019125
X+015500Y+024875
X+019125Y+026750
X+029875Y+028625
X+031125Y+036125
X+044900Y+036225
X+053750Y+032500
X+056875Y+028750
X+057000Y+028250
X+053375Y+006250
X+053750Y+005875
X+043500Y+004125
X+038250Y+004500
X+034000Y+001750
X+028000Y+004500
X+026500Y+002000
X+008500Y+017000
X+007125Y+022375
T02
X+005250Y+002755
X+005750Y+002755
X+006250Y+002755
X+014250Y+009375
X+014250Y+009875
X+014250Y+010375
T03
X+039625Y+007500
X+039625Y+009500
X+041375Y+009000
X+042375Y+009000
X+043375Y+009000
X+044375Y+009000
X+045375Y+009000
X+046375Y+009000
X+047375Y+009000
X+048375Y+009000
X+049870Y+008875
X+049870Y+009875
X+049870Y+010875
X+049870Y+011875
X+049870Y+012875
X+049870Y+013875
X+049870Y+014875
X+049870Y+015875
X+049870Y+016875
X+049870Y+017875
X+049870Y+018875
X+049870Y+019875
X+049870Y+020875
X+049870Y+021875
X+048000Y+021500
X+048000Y+022500
X+048000Y+020500
X+048000Y+019500
X+048000Y+018500
X+048000Y+017500
X+048000Y+016500
X+047000Y+014125
X+045000Y+014125
X+045000Y+016500
X+045000Y+017500
X+045000Y+018500
X+045000Y+019500
X+045000Y+020500
X+045000Y+021500
X+045000Y+022500
X+042750Y+022500
X+042750Y+021500
X+042750Y+020500
X+042750Y+019500
X+042750Y+018500
X+042750Y+017500
X+042750Y+016500
X+041750Y+014125
X+039750Y+014125
X+037500Y+013625
X+036500Y+013625
X+035500Y+013625
X+034500Y+013625
X+033500Y+013625
X+032500Y+013625
X+031500Y+013625
X+030500Y+013625
X+029500Y+013625
X+028500Y+013625
X+027500Y+013625
X+026500Y+013625
X+025500Y+013625
X+024500Y+013625
X+023500Y+013625
X+022500Y+013625
X+021500Y+013625
X+020500Y+013625
X+019500Y+013625
X+018500Y+013625
X+017500Y+017375
X+017500Y+018375
X+017500Y+019375
X+017500Y+020375
X+017500Y+021375
X+017500Y+022375
X+017500Y+023375
X+017500Y+024375
X+017500Y+025375
X+017500Y+026375
X+017500Y+027375
X+017500Y+028375
X+017500Y+029375
X+017500Y+030375
X+016069Y+030191
X+016069Y+029191
X+016069Y+028191
X+016069Y+027191
X+013069Y+027191
X+013069Y+028191
X+013069Y+029191
X+013069Y+030191
X+013069Y+031191
X+013069Y+032191
X+013069Y+033191
X+013069Y+034191
X+016069Y+034191
X+016069Y+033191
X+016069Y+032191
X+016069Y+031191
X+018319Y+032316
X+018319Y+034316
X+020444Y+034316
X+020444Y+032316
X+022569Y+032316
X+022569Y+034316
X+026500Y+034000
X+026500Y+035000
X+026500Y+036000
X+026500Y+033000
X+026500Y+032000
X+026500Y+031000
X+026500Y+030000
X+026500Y+029000
X+026500Y+028000
X+026500Y+027000
X+026500Y+026000
X+026500Y+025000
X+026500Y+024000
X+026500Y+023000
X+026500Y+022000
X+026500Y+021000
X+026500Y+020000
X+026500Y+019000
X+026500Y+018000
X+026500Y+017000
X+025125Y+016875
X+023484Y+017375
X+023484Y+018375
X+023484Y+019375
X+023484Y+020375
X+023484Y+021375
X+023484Y+022375
X+023484Y+023375
X+023484Y+024375
X+023484Y+025375
X+023484Y+026375
X+023484Y+027375
X+023484Y+028375
X+023484Y+029375
X+023484Y+030375
X+032500Y+030000
X+032500Y+029000
X+032500Y+028000
X+032500Y+027000
X+032500Y+026000
X+032500Y+025000
X+032500Y+024000
X+032500Y+023000
X+032500Y+022000
X+032500Y+021000
X+032500Y+020000
X+032500Y+019000
X+032500Y+018000
X+032500Y+017000
X+034313Y+024000
X+034313Y+026000
X+032500Y+031000
X+032500Y+032000
X+032500Y+033000
X+032500Y+034000
X+032500Y+035000
X+032500Y+036000
X+040875Y+038000
X+042875Y+038000
X+042900Y+035600
X+043900Y+035600
X+044900Y+035600
X+045900Y+035600
X+046900Y+035600
X+047900Y+035600
X+048900Y+035600
X+049900Y+035600
X+050900Y+035600
X+051900Y+035600
X+052900Y+035600
X+053900Y+035600
X+054900Y+035600
X+055900Y+035600
X+055900Y+029600
X+054900Y+029600
X+053900Y+029600
X+052900Y+029600
X+051900Y+029600
X+050900Y+029600
X+049900Y+029600
X+048900Y+029600
X+047900Y+029600
X+046900Y+029600
X+045900Y+029600
X+044900Y+029600
X+043900Y+029600
X+042900Y+029600
X+039750Y+022500
X+039750Y+021500
X+039750Y+020500
X+039750Y+019500
X+039750Y+018500
X+039750Y+017500
X+039750Y+016500
X+037500Y+007625
X+036500Y+007625
X+035500Y+007625
X+034500Y+007625
X+033500Y+007625
X+032500Y+007625
X+031500Y+007625
X+030500Y+007625
X+029500Y+007625
X+028500Y+007625
X+027500Y+007625
X+026500Y+007625
X+025500Y+007625
X+024500Y+007625
X+023500Y+007625
X+022500Y+007625
X+021500Y+007625
X+020500Y+007625
X+019500Y+007625
X+018500Y+007625
X+018000Y+003500
X+018000Y+002500
X+019000Y+002500
X+020000Y+002500
X+021000Y+002500
X+022000Y+002500
X+023000Y+002500
X+023000Y+003500
X+022000Y+003500
X+021000Y+003500
X+020000Y+003500
X+019000Y+003500
X+024000Y+003500
X+025000Y+003500
X+026000Y+003500
X+027000Y+003500
X+028000Y+003500
X+028000Y+002500
X+027000Y+002500
X+026000Y+002500
X+025000Y+002500
X+024000Y+002500
X+029000Y+002500
X+030000Y+002500
X+031000Y+002500
X+031000Y+003500
X+030000Y+003500
X+029000Y+003500
X+032000Y+003500
X+033000Y+003500
X+034000Y+003500
X+035000Y+003500
X+036000Y+003500
X+037000Y+003500
X+037000Y+002500
X+036000Y+002500
X+035000Y+002500
X+034000Y+002500
X+033000Y+002500
X+032000Y+002500
X+038000Y+002500
X+039000Y+002500
X+040000Y+002500
X+041000Y+002500
X+041000Y+003500
X+040000Y+003500
X+039000Y+003500
X+038000Y+003500
X+042000Y+003500
X+042000Y+002500
X+042375Y+006000
X+043375Y+006000
X+044375Y+006000
X+045375Y+006000
X+046375Y+006000
X+047375Y+006000
X+048375Y+006000
X+050250Y+006000
X+052250Y+006000
X+055870Y+008875
X+055870Y+009875
X+055870Y+010875
X+055870Y+011875
X+055870Y+012875
X+055870Y+013875
X+055870Y+014875
X+055870Y+015875
X+055870Y+016875
X+055870Y+017875
X+055870Y+018875
X+055870Y+019875
X+055870Y+020875
X+055870Y+021875
X+055750Y+026000
X+053750Y+026000
X+041375Y+006000
X+025125Y+018875
X+014069Y+024816
X+012069Y+024816
X+011194Y+026691
X+011194Y+028691
X+008819Y+027941
X+005819Y+027941
X+001250Y+030865
X+001250Y+032125
X+001250Y+033385
X+005819Y+033941
X+008819Y+033941
X+010125Y+021500
X+010125Y+018500
X+004125Y+018500
X+004125Y+021500
X+007630Y+012255
X+007630Y+011255
X+007630Y+010255
X+007630Y+009255
X+010630Y+009255
X+010630Y+010255
X+010630Y+011255
X+010630Y+012255
T04
X+003996Y+014005
X+005964Y+014005
T05
X+011875Y+021625
X+015875Y+021625
X+011500Y+016000
X+011500Y+014125
X+007500Y+014125
X+007500Y+016000
X+011500Y+009130
X+011500Y+005130
X+010125Y+005125
X+006125Y+005125
X+034125Y+016875
X+034125Y+018000
X+034125Y+022000
X+038125Y+016875
T06
X+006000Y+009750
X+006000Y+010750
X+006625Y+007750
X+007625Y+007750
X+008820Y+004011
X+008820Y+002239
X+011380Y+002239
X+011380Y+004011
X+013870Y+003519
X+013870Y+002731
T07
X+016819Y+036941
X+017909Y+036941
X+019000Y+036941
X+020091Y+036941
X+021181Y+036941
X+020636Y+038059
X+019545Y+038059
X+018455Y+038059
X+017364Y+038059
T08
X+016125Y+018625
X+011775Y+018625
X+004000Y+012100
X+004000Y+007750
T09
X+001500Y+038500
X+001500Y+001500
X+058500Y+001500
X+058500Y+038500
T10
X+014081Y+037500
X+023919Y+037500
T00
M30
