G04 DipTrace 2.4.0.2*
%INTop.gbr*%
%MOIN*%
%ADD13C,0.013*%
%ADD14C,0.032*%
%ADD15C,0.02*%
%ADD19R,0.2205X0.1181*%
%ADD20C,0.063*%
%ADD21R,0.063X0.063*%
%ADD22R,0.0709X0.0709*%
%ADD23C,0.0709*%
%ADD24R,0.0591X0.0591*%
%ADD25C,0.0591*%
%ADD26C,0.063*%
%ADD27R,0.0665X0.0665*%
%ADD28C,0.0665*%
%ADD29C,0.1874*%
%ADD30C,0.065*%
%ADD31C,0.06*%
%ADD32C,0.06*%
%ADD33R,0.0669X0.0669*%
%ADD34C,0.0669*%
%ADD35O,0.0394X0.0787*%
%ADD36O,0.0787X0.0394*%
%ADD37C,0.04*%
%FSLAX44Y44*%
G04*
G70*
G90*
G75*
G01*
%LNTop*%
%LPD*%
X32500Y25000D2*
D13*
X34750D1*
X36875Y27125D1*
X50000D1*
X51875Y29000D1*
Y29575D1*
X51900Y29600D1*
X20500Y13625D2*
Y13000D1*
X20250Y12750D1*
X19250D1*
X16000Y9500D1*
Y6000D1*
X17500Y4500D1*
X18500D1*
X18764Y4236D1*
X21139D1*
X21875Y3500D1*
X22000D1*
X20500Y13625D2*
Y14250D1*
X17875Y16875D1*
X15500D1*
X14875Y17500D1*
Y18875D1*
X15375Y19375D1*
X16500D1*
X17500Y18375D1*
X32500Y26000D2*
X33128D1*
X33819Y26691D1*
X36066D1*
X36750Y27375D1*
X49250D1*
X50875Y29000D1*
Y29575D1*
X50900Y29600D1*
X21500Y13625D2*
Y13000D1*
X21000Y12500D1*
X19375D1*
X16250Y9375D1*
Y6125D1*
X17625Y4750D1*
X18625D1*
X18875Y4500D1*
X22125D1*
X22500Y4125D1*
Y3000D1*
X23000Y2500D1*
X21500Y13625D2*
Y14250D1*
X18375Y17375D1*
X17500D1*
X32500Y27000D2*
X36000D1*
X36625Y27625D1*
X48500D1*
X49875Y29000D1*
Y29600D1*
X49900D1*
X22500Y13625D2*
Y11375D1*
X22125Y11000D1*
X18250D1*
X16500Y9250D1*
Y6250D1*
X17750Y5000D1*
X18750D1*
X19000Y4750D1*
X22625D1*
X23000Y4375D1*
Y3500D1*
X32500Y28000D2*
Y27875D1*
X47750D1*
X48875Y29000D1*
Y29600D1*
X48900D1*
X23500Y13625D2*
Y12000D1*
X22250Y10750D1*
X18375D1*
X16750Y9125D1*
Y6375D1*
X17875Y5250D1*
X18875D1*
X19125Y5000D1*
X22750D1*
X23500Y4250D1*
Y3000D1*
X24000Y2500D1*
X32500Y29000D2*
Y29125D1*
X35500D1*
X36500Y28125D1*
X47000D1*
X47875Y29000D1*
Y29600D1*
X47900D1*
X32500Y30000D2*
X35000D1*
X36625Y28375D1*
X46250D1*
X46875Y29000D1*
Y29600D1*
X46900D1*
X32500Y31000D2*
X34375D1*
X36750Y28625D1*
X45500D1*
X45875Y29000D1*
Y29600D1*
X45900D1*
X32500Y32000D2*
X33750D1*
X36875Y28875D1*
X44750D1*
X44875Y29000D1*
Y29600D1*
X44900D1*
X56875Y28750D2*
Y36125D1*
X56000Y37000D1*
X46625D1*
X45875Y36250D1*
Y35625D1*
X45900Y35600D1*
X48000Y17500D2*
X48375D1*
X48750Y17125D1*
Y15125D1*
X49500Y14375D1*
X53750D1*
X54750Y13375D1*
X56250D1*
X56625Y13750D1*
Y18120D1*
X55870Y18875D1*
X48000Y18500D2*
X48125D1*
X49250Y17375D1*
Y16625D1*
X49500Y16375D1*
X53500D1*
X55500Y14375D1*
X56125D1*
X56375Y14625D1*
Y17370D1*
X55870Y17875D1*
X48000Y19500D2*
X48500Y19000D1*
Y18500D1*
X49625Y17375D1*
X53370D1*
X55870Y14875D1*
X48000Y20500D2*
X48500D1*
X49625Y19375D1*
X53370D1*
X55870Y16875D1*
X48000Y21500D2*
X48750D1*
X49375Y20875D1*
X49870D1*
X44900Y35600D2*
Y36225D1*
X57000Y28250D2*
X57250Y28500D1*
Y36375D1*
X56250Y37375D1*
X46050D1*
X44900Y36225D1*
X45000Y19500D2*
X46000D1*
X46875Y20375D1*
Y22375D1*
X47625Y23125D1*
X50625D1*
X53125Y20625D1*
X55120D1*
X55870Y19875D1*
X45000Y18500D2*
X45875D1*
X47250Y19875D1*
Y21500D1*
X47750Y22000D1*
X48750D1*
X48875Y21875D1*
X49870D1*
X29875Y28625D2*
Y22250D1*
X30625Y21500D1*
X32875D1*
X34000Y20375D1*
X37000D2*
Y19500D1*
X39500Y17000D1*
X42250D1*
X42750Y17500D1*
X46375Y6000D2*
Y6875D1*
X45625Y7625D1*
X43750D1*
X42875Y8500D1*
Y9250D1*
X42500Y9625D1*
X41250D1*
X40750Y9125D1*
Y6875D1*
X39875Y6000D1*
X38000D1*
X37000Y7000D1*
Y9250D1*
X36125Y10125D1*
X26750D1*
X24000Y12875D1*
Y14250D1*
X19125Y19125D1*
Y26750D2*
X17500Y28375D1*
X56142Y6201D2*
D14*
Y2017D1*
X54625Y500D1*
X5750D1*
X3625Y2625D1*
Y5951D1*
X3875Y6201D1*
X16069Y27191D2*
D13*
X16569D1*
X16944Y27566D1*
Y30691D1*
X18569Y32316D1*
X18319D1*
X16069Y29191D2*
X16444D1*
X16694Y29441D1*
Y30816D1*
X17569Y31691D1*
Y33691D1*
X18194Y34316D1*
X18441D1*
X18319Y34194D1*
Y34316D1*
X16069Y30191D2*
X15944D1*
X16444Y30691D1*
Y30941D1*
X17319Y31816D1*
Y34191D1*
X18069Y34941D1*
X18944D1*
X20444Y33441D1*
Y32316D1*
X16069Y31191D2*
X17069Y32191D1*
Y34316D1*
X17944Y35191D1*
X19569D1*
X20444Y34316D1*
X18500Y13625D2*
Y12750D1*
X15500Y9750D1*
Y5750D1*
X17250Y4000D1*
X18250D1*
X18500Y3750D1*
Y3375D1*
X18875Y3000D1*
X19250D1*
X19500Y2750D1*
Y2000D1*
X19875Y1625D1*
X27250D1*
X27500Y1875D1*
Y2750D1*
X27750Y3000D1*
X28250D1*
X28500Y2750D1*
Y1875D1*
X28750Y1625D1*
X32875D1*
X33500Y2250D1*
Y3000D1*
X33000Y3500D1*
X19500Y13625D2*
Y13375D1*
X15750Y9625D1*
Y5875D1*
X17375Y4250D1*
X18375D1*
X18625Y4000D1*
X20250D1*
X20500Y3750D1*
Y2250D1*
X20750Y2000D1*
X26500D1*
X35500Y7625D2*
Y6625D1*
X38000Y4125D1*
Y3500D1*
X36500Y7625D2*
Y7000D1*
X38750Y4750D1*
Y4375D1*
X38500Y4125D1*
Y3000D1*
X39000Y2500D1*
X17500Y22375D2*
X17010D1*
X14819Y24566D1*
Y33191D1*
X13819Y34191D1*
X13069D1*
X26500Y24000D2*
X26250D1*
X25750Y23500D1*
Y22250D1*
X23875Y20375D1*
X23484D1*
X52900Y29600D2*
Y30600D1*
X52125Y31375D1*
X37875D1*
X32625Y36625D1*
X29875D1*
X29375Y36125D1*
Y25000D1*
X28375Y24000D1*
X26500D1*
X49870Y11875D2*
X49250D1*
X49000Y12125D1*
X32750D1*
X32000Y12875D1*
Y14000D1*
X31250Y14750D1*
X26125D1*
X25500Y14125D1*
Y13625D1*
X26500Y25000D2*
X26125D1*
X25500Y24375D1*
Y22625D1*
X24250Y21375D1*
X23484D1*
X53900Y29600D2*
Y30600D1*
X52875Y31625D1*
X38000D1*
X32750Y36875D1*
X29750D1*
X29125Y36250D1*
Y26000D1*
X28125Y25000D1*
X26500D1*
X49870Y10875D2*
X49500D1*
X48750Y11625D1*
X32375D1*
X31000Y13000D1*
Y14250D1*
X30750Y14500D1*
X26750D1*
X26500Y14250D1*
Y13625D1*
Y26000D2*
X26000D1*
X25250Y25250D1*
Y23375D1*
X24250Y22375D1*
X23484D1*
X54900Y29600D2*
Y30475D1*
X53500Y31875D1*
X38125D1*
X32875Y37125D1*
X29625D1*
X28875Y36375D1*
Y26875D1*
X28000Y26000D1*
X26500D1*
X49870Y9875D2*
X49750D1*
X48500Y11125D1*
X31875D1*
X30000Y13000D1*
Y13875D1*
X29625Y14250D1*
X28000D1*
X27500Y13750D1*
Y13625D1*
X26500Y27000D2*
X25875D1*
X25000Y26125D1*
Y24125D1*
X24250Y23375D1*
X23484D1*
X55900Y35600D2*
Y34650D1*
X54375Y33125D1*
X37250D1*
X33000Y37375D1*
X29500D1*
X28625Y36500D1*
Y27625D1*
X28000Y27000D1*
X26500D1*
X55870Y8875D2*
X53125D1*
X52625Y8375D1*
X49750D1*
X49375Y8750D1*
Y9375D1*
X48125Y10625D1*
X30875D1*
X28500Y13000D1*
Y13625D1*
X26500Y28000D2*
X25750D1*
X24750Y27000D1*
Y24875D1*
X24250Y24375D1*
X23484D1*
X54900Y35600D2*
Y34775D1*
X53500Y33375D1*
X37375D1*
X33125Y37625D1*
X29375D1*
X28375Y36625D1*
Y28375D1*
X28000Y28000D1*
X26500D1*
X55870Y9875D2*
X53125D1*
X52625Y9375D1*
X49750D1*
X48250Y10875D1*
X31625D1*
X29500Y13000D1*
Y13625D1*
X26500Y29000D2*
X25875D1*
X24500Y27625D1*
Y25625D1*
X24250Y25375D1*
X23484D1*
X53900Y35600D2*
X53875D1*
Y34750D1*
X52750Y33625D1*
X37500D1*
X33250Y37875D1*
X29250D1*
X28125Y36750D1*
Y29375D1*
X27750Y29000D1*
X26500D1*
X55870Y10875D2*
X53125D1*
X52625Y10375D1*
X49625D1*
X48625Y11375D1*
X32125D1*
X30500Y13000D1*
Y13625D1*
X26500Y30000D2*
X25875D1*
X24250Y28375D1*
Y26625D1*
X24000Y26375D1*
X23484D1*
X52900Y35600D2*
Y34775D1*
X52000Y33875D1*
X37625D1*
X33375Y38125D1*
X29125D1*
X27875Y36875D1*
Y30500D1*
X27375Y30000D1*
X26500D1*
X55870Y11875D2*
X53125D1*
X52625Y11375D1*
X49375D1*
X48875Y11875D1*
X32625D1*
X31500Y13000D1*
Y13625D1*
X26500Y31000D2*
X26000D1*
X24000Y29000D1*
Y27500D1*
X23875Y27375D1*
X23484D1*
X51900Y35600D2*
Y34775D1*
X51250Y34125D1*
X37750D1*
X33500Y38375D1*
X29000D1*
X27625Y37000D1*
Y31250D1*
X27375Y31000D1*
X26500D1*
X55870Y12875D2*
X53250D1*
X52750Y12375D1*
X33125D1*
X32500Y13000D1*
Y13625D1*
X39000Y3500D2*
Y4125D1*
X40625Y5750D1*
Y6375D1*
X41375Y7125D1*
X45125D1*
X45375Y6875D1*
Y6000D1*
X6000Y9750D2*
D14*
X7135D1*
X7630Y9255D1*
X7625Y7750D2*
Y9250D1*
X7630Y9255D1*
X10630D1*
X56142Y23799D2*
Y25267D1*
X58125Y27250D1*
Y37000D1*
X55875Y39250D1*
X5250D1*
X2750Y36750D1*
Y29125D1*
X6625Y25250D1*
Y18875D1*
X8500Y17000D1*
X40000Y2500D2*
D13*
X39500Y3000D1*
Y4125D1*
X40875Y5500D1*
Y6250D1*
X41500Y6875D1*
X44000D1*
X44375Y6500D1*
Y6000D1*
X40000Y3500D2*
Y3375D1*
X40375Y3000D1*
X41250D1*
X41500Y3250D1*
Y4125D1*
X43375Y6000D1*
X41000Y2500D2*
X41125D1*
X41625Y3000D1*
X42250D1*
X42500Y3250D1*
Y4250D1*
X43875Y5625D1*
Y6250D1*
X43500Y6625D1*
X43000D1*
X42375Y6000D1*
X41000Y3500D2*
Y4125D1*
X41375Y4500D1*
Y6000D1*
X42000Y2500D2*
X42375D1*
X42750Y2875D1*
Y4125D1*
X44125Y5500D1*
X45625D1*
X45875Y5750D1*
Y6875D1*
X45375Y7375D1*
X43500D1*
X42375Y8500D1*
Y9000D1*
X39750Y18500D2*
X39000Y19250D1*
Y20625D1*
X39375Y21000D1*
X40250D1*
X41250Y22000D1*
X43875D1*
X44375Y22500D1*
X45000D1*
X11775Y18625D2*
X12875D1*
X15875Y21625D1*
X15500Y24875D2*
X16250D1*
X17250Y25875D1*
X20984D1*
X23484Y28375D1*
X27000Y19500D2*
X32000D1*
X32500Y20000D1*
X24000Y3500D2*
Y4125D1*
X22875Y5250D1*
X19250D1*
X19000Y5500D1*
X18000D1*
X17000Y6500D1*
Y8875D1*
X18500Y10375D1*
X17125Y12375D2*
X15125D1*
X12750Y14750D1*
Y17650D1*
X11775Y18625D1*
X37500Y13625D2*
X37000Y13125D1*
X36250D1*
X36000Y13375D1*
Y14125D1*
X34875Y15250D1*
X23625D1*
X19250Y19625D1*
X18875D1*
X18625Y19375D1*
Y18750D1*
X17750Y17875D1*
X16125D1*
Y18625D1*
X7500Y16000D2*
Y14125D1*
Y12385D1*
X7630Y12255D1*
X14250Y9375D2*
X14875D1*
X15250Y9000D1*
Y5625D1*
X17250Y3625D1*
Y3250D1*
X17500Y3000D1*
X18375D1*
X18500Y2875D1*
Y2000D1*
X19125Y1375D1*
X27500D1*
X28000Y1875D1*
Y2500D1*
X39750Y20500D2*
X39875D1*
X40625D1*
X41625Y21500D1*
X42750D1*
X55870Y15875D2*
X53370Y18375D1*
X49500D1*
X48750Y19125D1*
Y19500D1*
X48250Y20000D1*
X47750D1*
X45750Y18000D1*
X44750D1*
X44500Y18250D1*
Y18750D1*
X43250Y20000D1*
X40375D1*
X39875Y20500D1*
X53375Y18375D2*
X53370D1*
X43500Y4125D2*
X51250D1*
X53375Y6250D1*
X55870Y20875D2*
X53625D1*
X50750Y23750D1*
X40250D1*
X39750Y23250D1*
Y22500D1*
X31125Y36125D2*
Y23250D1*
X31875Y22500D1*
X33250D1*
X35875D2*
X38000D1*
X39750D1*
X55870Y20875D2*
X56375Y20370D1*
Y19625D1*
X56125Y19375D1*
X55375D1*
X54500Y20250D1*
X53750D1*
Y5875D2*
X49625Y1750D1*
X34000D1*
X10125Y5125D2*
D15*
X11500D1*
Y5130D1*
X10630Y10255D2*
D13*
X11245D1*
X11500Y10000D1*
Y9130D1*
X34125Y22000D2*
X32500D1*
X25000Y2500D2*
X25125D1*
X25500Y2875D1*
Y3750D1*
X25000Y4250D1*
X24625D1*
X23125Y5750D1*
X19500D1*
X19250Y6000D1*
X18250D1*
X17500Y6750D1*
Y8500D1*
X19250Y10250D1*
X22500D1*
X23000Y10750D1*
X25500D1*
X28000D2*
Y13125D1*
X29375Y16875D2*
X30750D1*
X31875Y18000D1*
X29000Y3500D2*
Y4500D1*
X28625Y4875D1*
X24750D1*
X23375Y6250D1*
X19750D1*
X19500Y6500D1*
Y7625D1*
X20500D2*
Y6750D1*
X20750Y6500D1*
X23500D1*
X24875Y5125D1*
X28750D1*
X29500Y4375D1*
Y3000D1*
X30000Y2500D1*
Y3500D2*
Y4250D1*
X28875Y5375D1*
X25000D1*
X23625Y6750D1*
X21750D1*
X21500Y7000D1*
Y7625D1*
X31000Y2500D2*
X30500Y3000D1*
Y4125D1*
X29000Y5625D1*
X25125D1*
X23750Y7000D1*
X23125D1*
X22500Y7625D1*
X23500D2*
X25250Y5875D1*
X29125D1*
X31000Y4000D1*
Y3500D1*
X32000Y2500D2*
X31500Y3000D1*
Y3875D1*
X29250Y6125D1*
X25375D1*
X24500Y7000D1*
Y7625D1*
X25500D2*
Y7000D1*
X26125Y6375D1*
X29375D1*
X29875Y5875D1*
X30250D1*
X32000Y4125D1*
Y3500D1*
X33000Y2500D2*
X32500Y3000D1*
Y4250D1*
X30625Y6125D1*
X30000D1*
X29500Y6625D1*
X26875D1*
X26500Y7000D1*
Y7625D1*
X34000Y3500D2*
Y4250D1*
X33500Y4750D1*
X32375D1*
X30750Y6375D1*
X30125D1*
X29625Y6875D1*
X28250D1*
X27500Y7625D1*
X35000Y2500D2*
X34500Y3000D1*
Y4250D1*
X33750Y5000D1*
X32500D1*
X30875Y6625D1*
X30250D1*
X29750Y7125D1*
X29000D1*
X28500Y7625D1*
X29500D2*
X29625D1*
X30375Y6875D1*
X31500D1*
X32250Y6125D1*
X33125D1*
X35000Y4250D1*
Y3500D1*
X36000Y2500D2*
X35500Y3000D1*
Y4250D1*
X33375Y6375D1*
X32375D1*
X31625Y7125D1*
X30875D1*
X30500Y7500D1*
Y7625D1*
X31500D2*
X32500Y6625D1*
X33625D1*
X36000Y4250D1*
Y3500D1*
X37000Y2500D2*
X36500Y3000D1*
Y4250D1*
X33875Y6875D1*
X33250D1*
X32500Y7625D1*
X33500D2*
X37000Y4125D1*
Y3500D1*
X38000Y2500D2*
X37500Y3000D1*
Y4125D1*
X34500Y7125D1*
Y7625D1*
X26500Y20000D2*
X29500D1*
X27000Y3500D2*
Y4125D1*
X26625Y4500D1*
X24750D1*
X23250Y6000D1*
X19625D1*
X19375Y6250D1*
X18375D1*
X17750Y6875D1*
Y8125D1*
X18125Y8500D1*
X17000Y11875D2*
X15125D1*
X12444Y14556D1*
Y16806D1*
X10694Y18556D1*
Y20931D1*
X10125Y21500D1*
X30250Y18500D2*
X33375D1*
X34000Y19125D1*
X36500D2*
Y21125D1*
X36875Y21500D1*
X39750D1*
X11194Y26691D2*
D15*
X8566D1*
X7125Y25250D1*
Y22375D1*
X53750Y26000D2*
X54500Y25250D1*
Y23245D1*
X55870Y21875D1*
X42875Y38000D2*
X42900D1*
Y35600D1*
X34125Y18000D2*
X36000D1*
X37750D1*
X38125Y17625D1*
Y16875D1*
X32500Y24000D2*
X34313D1*
X39625Y9500D2*
X40375Y10250D1*
X48125D1*
X49000Y9375D1*
Y8625D1*
X49750Y7875D1*
X51500D1*
X50875D1*
X50250Y7250D1*
Y6000D1*
X25125Y16875D2*
X24010D1*
X23484Y17401D1*
Y17375D1*
X25125Y16875D2*
X25131Y16869D1*
X26125Y15875D1*
X36646D1*
X37750D1*
X38125Y16250D1*
Y16875D1*
X26500Y21000D2*
Y20875D1*
X26375D1*
X25875Y20375D1*
Y19625D1*
X26500Y19000D1*
X25131Y16869D2*
Y17631D1*
X26500Y19000D1*
X18000Y2500D2*
Y1375D1*
X17625Y1000D1*
X7102D1*
X11750D1*
X12125Y1375D1*
Y3875D1*
Y6289D1*
Y14375D1*
Y16750D1*
X11625Y17250D1*
X9125D1*
X7125Y19250D1*
Y22375D1*
X39750Y14125D2*
X38396D1*
X36646Y15875D1*
X45000Y14125D2*
Y13622D1*
X44628Y13250D1*
X42000D1*
X40348D1*
X39271D1*
X38396Y14125D1*
X39750D2*
Y16500D1*
X45000Y14125D2*
Y16500D1*
X50250Y6000D2*
X48375D1*
X51500Y7875D2*
X55625D1*
X56875Y9125D1*
Y20750D1*
X56250Y21375D1*
X53875D1*
X52250Y23000D1*
Y25489D1*
X52761Y26000D1*
X54011Y27250D1*
X57125D1*
X57625Y27750D1*
Y36875D1*
X55750Y38750D1*
X43125D1*
X42875Y38500D1*
Y38000D1*
X34313Y24000D2*
X36000D1*
X50761D1*
X52250Y25489D1*
X11194Y26691D2*
X12569D1*
X13069Y27191D1*
X42000Y13250D2*
X42750Y14000D1*
Y16500D1*
X5750Y2755D2*
Y1500D1*
X6250Y1000D1*
X7102D1*
X11875Y21625D2*
Y23000D1*
Y23375D1*
X12069Y23569D1*
Y24816D1*
X34500Y13625D2*
Y13500D1*
X35250Y12750D1*
X39848D1*
X40348Y13250D1*
X13870Y3519D2*
X12481D1*
X12125Y3875D1*
X17625Y1000D2*
X53125D1*
X54625Y2500D1*
Y6875D1*
X55625Y7875D1*
X36000Y18000D2*
X35125Y18875D1*
Y23125D1*
X36000Y24000D1*
X53750Y26000D2*
X52761D1*
X4000Y7750D2*
D14*
X6625D1*
Y7250D1*
X7000Y6875D1*
X9536D1*
X11539D1*
X12125Y6289D1*
X14250Y10375D2*
D15*
Y12250D1*
X12125Y14375D1*
X6125Y5125D2*
X7786D1*
X9536Y6875D1*
X5819Y27941D2*
Y27056D1*
X6184Y26691D1*
X8566D1*
X11875Y23000D2*
X11250Y22375D1*
X7125D1*
X3996Y14005D2*
D14*
Y12105D1*
X4000Y12100D1*
X7630Y10255D2*
D15*
X4870D1*
D14*
X4000Y11125D1*
Y12100D1*
X13069Y30191D2*
D13*
X12569D1*
X12069Y30691D1*
Y34816D1*
X13194Y35941D1*
X17194D1*
X17444Y36191D1*
X18319D1*
X19000Y36872D1*
Y36941D1*
X16069Y34191D2*
Y34816D1*
X16944Y35691D1*
X17319D1*
X17569Y35941D1*
X18944D1*
X19500Y36497D1*
Y37250D1*
X19250Y37500D1*
X19000D1*
X18455Y38045D1*
Y38059D1*
X55870Y13875D2*
X55250D1*
X53750Y15375D1*
X49500D1*
X49000Y15875D1*
Y17250D1*
X48250Y18000D1*
X46625D1*
X44125D2*
X43125Y19000D1*
X40250D1*
X39750Y19500D1*
X32500Y18000D2*
X33000D1*
X34125Y16875D1*
X5250Y2755D2*
Y3375D1*
X5875Y4000D1*
X8810D1*
X8820Y4011D1*
X24500Y13625D2*
Y13000D1*
X26375Y11125D1*
X25000D2*
X23000D1*
X22375Y10500D1*
X19125D1*
X17250Y8625D1*
Y6625D1*
X18125Y5750D1*
X19125D1*
X19375Y5500D1*
X23000D1*
X25000Y3500D1*
X48000Y16500D2*
X46750D1*
X46250Y17000D1*
X44250D1*
X42750Y18500D1*
X39750Y17500D2*
X41750D1*
X42750Y18500D1*
X53750Y32500D2*
X53875D1*
X55375Y31000D1*
Y29125D1*
X53125Y26875D1*
X38375D1*
X37375Y25875D1*
Y24500D1*
Y21000D2*
Y19875D1*
X39750Y17500D1*
X17500Y23375D2*
Y23441D1*
X16319D1*
X15069Y24691D1*
Y33316D1*
X13694Y34691D1*
X12819D1*
X12569Y34441D1*
Y33691D1*
X13069Y33191D1*
X36500Y13625D2*
Y14125D1*
X35125Y15500D1*
X24322D1*
X23444Y16378D1*
X22997D1*
X22750Y16625D1*
Y17625D1*
X23000Y17875D1*
X23875D1*
X24125Y18125D1*
Y19375D1*
X26250Y21500D1*
X26875D1*
X27250Y21875D1*
Y22750D1*
X27000Y23000D1*
X26500D1*
X42750Y20500D2*
X42875D1*
X44375Y22000D1*
X45375D1*
X45625Y22250D1*
Y22750D1*
X45375Y23000D1*
X41125D1*
X40129Y22004D1*
X36254D1*
X35750Y21500D1*
Y19750D1*
X34000D2*
X33250Y20500D1*
X29500D1*
X27250Y22750D1*
X26000Y2500D2*
X26500Y3000D1*
X27125D1*
X27500Y3375D1*
Y4000D1*
X28000Y4500D1*
X38250D2*
X36000Y6750D1*
Y9250D1*
X35375Y9875D1*
X22000D1*
Y11500D2*
Y14935D1*
X13069Y31191D2*
X13694D1*
X13944Y30941D1*
Y26191D1*
X13319Y25566D1*
Y24191D1*
X13819Y23691D1*
X14944D1*
X16694Y21941D1*
Y20181D1*
X17500Y19375D1*
X13069Y29191D2*
X12569D1*
X11819Y29941D1*
Y34941D1*
X13069Y36191D1*
X17069D1*
X17909Y37031D1*
Y36941D1*
X16069Y33191D2*
X16194D1*
X16569Y33566D1*
Y34566D1*
X17694Y35691D1*
X19941D1*
X20625Y36375D1*
Y37250D1*
X20375Y37500D1*
X20104D1*
X19545Y38059D1*
X13069Y32191D2*
X13694D1*
X14194Y31691D1*
Y26066D1*
X13569Y25441D1*
Y24316D1*
X13944Y23941D1*
X15069D1*
X16944Y22066D1*
Y21806D1*
X17375Y21375D1*
X17500D1*
X16069Y32191D2*
Y32316D1*
X16194D1*
X16819Y32941D1*
Y34441D1*
X17819Y35441D1*
X20444D1*
X21569Y34316D1*
X22569D1*
X1250Y32125D2*
D14*
Y30865D1*
Y28750D1*
X3625Y26375D1*
Y24049D1*
X3875Y23799D1*
X47375Y6000D2*
D13*
Y6875D1*
X46375Y7875D1*
X44500D1*
X43875Y8500D1*
Y9500D1*
X43500Y9875D1*
X41125D1*
X40500Y9250D1*
Y7000D1*
X39750Y6250D1*
X38750D1*
X38000Y7000D1*
Y9250D1*
X36875Y10375D1*
X27750D1*
X25000Y13125D1*
Y14500D1*
X25500Y15000D1*
X34625D1*
X35500Y14125D1*
Y13625D1*
X6000Y10750D2*
D14*
X7125D1*
X7630Y11255D1*
X5964Y14005D2*
Y10786D1*
X6000Y10750D1*
X1250Y33385D2*
X1615D1*
X2125Y32875D1*
Y28875D1*
X5938Y25062D1*
Y17063D1*
Y14032D1*
X5964Y14005D1*
X5938Y17063D2*
D13*
X6375Y16625D1*
X10875D1*
X11500Y16000D1*
X17500Y25375D2*
X18375Y24500D1*
Y19125D1*
X18125Y18875D1*
X17375D1*
X16444Y19806D1*
Y21816D1*
X14777Y23483D1*
X13652D1*
X13069Y24066D1*
Y25691D1*
X13694Y26316D1*
Y27316D1*
X13319Y27691D1*
X10944D1*
X10194Y28441D1*
Y32191D1*
X9694Y32691D1*
X6319D1*
X5819Y33191D1*
Y33941D1*
D37*
X56875Y28750D3*
X44900Y36225D3*
X57000Y28250D3*
X29875Y28625D3*
X34000Y20375D3*
X37000D3*
X19125Y19125D3*
Y26750D3*
X26500Y2000D3*
X8500Y17000D3*
X15500Y24875D3*
X27000Y19500D3*
X18500Y10375D3*
X17125Y12375D3*
X43500Y4125D3*
X53375Y6250D3*
X31125Y36125D3*
X33250Y22500D3*
X35875D3*
X53750Y20250D3*
Y5875D3*
X34000Y1750D3*
X25500Y10750D3*
X28000D3*
Y13125D3*
X29375Y16875D3*
X31875Y18000D3*
X29500Y20000D3*
X18125Y8500D3*
X17000Y11875D3*
X30250Y18500D3*
X34000Y19125D3*
X36500D3*
X7125Y22375D3*
X46625Y18000D3*
X44125D3*
X26375Y11125D3*
X25000D3*
X53750Y32500D3*
X37375Y24500D3*
Y21000D3*
X35750Y19750D3*
X34000D3*
X28000Y4500D3*
X38250D3*
X22000Y9875D3*
Y11500D3*
Y14935D3*
X23444Y16378D3*
X53375Y18375D3*
D19*
X3875Y23799D3*
Y6201D3*
X56142D3*
Y23799D3*
D20*
X6000Y9750D3*
D21*
Y10750D3*
D20*
X39625Y7500D3*
D21*
Y9500D3*
D20*
X7625Y7750D3*
D21*
X6625D3*
D20*
X40875Y38000D3*
D21*
X42875D3*
D20*
X25125Y18875D3*
D21*
Y16875D3*
D20*
X34313Y26000D3*
D21*
Y24000D3*
D20*
X18319Y34316D3*
D21*
Y32316D3*
D20*
X11194Y28691D3*
D21*
Y26691D3*
D20*
X41750Y14125D3*
D21*
X39750D3*
D20*
X55750Y26000D3*
D21*
X53750D3*
D20*
X20444Y34316D3*
D21*
Y32316D3*
D20*
X12069Y24816D3*
D21*
X14069D3*
D20*
X22569Y34316D3*
D21*
Y32316D3*
D20*
X47000Y14125D3*
D21*
X45000D3*
D20*
X52250Y6000D3*
D21*
X50250D3*
D22*
X16125Y18625D3*
D23*
X11775D3*
D22*
X4000Y7750D3*
D23*
Y12100D3*
D24*
X18500Y7625D3*
D25*
X19500D3*
X20500D3*
X21500D3*
X22500D3*
X23500D3*
X24500D3*
X25500D3*
X26500D3*
X27500D3*
X28500D3*
X29500D3*
X30500D3*
X31500D3*
X32500D3*
X33500D3*
X34500D3*
X35500D3*
X36500D3*
X37500D3*
Y13625D3*
X36500D3*
X35500D3*
X34500D3*
X33500D3*
X32500D3*
X31500D3*
X30500D3*
X29500D3*
X28500D3*
X27500D3*
X26500D3*
X25500D3*
X24500D3*
X23500D3*
X22500D3*
X21500D3*
X20500D3*
X19500D3*
X18500D3*
D24*
X17500Y30375D3*
D25*
Y29375D3*
Y28375D3*
Y27375D3*
Y26375D3*
Y25375D3*
Y24375D3*
Y23375D3*
Y22375D3*
Y21375D3*
Y20375D3*
Y19375D3*
Y18375D3*
Y17375D3*
X23484D3*
Y18375D3*
Y19375D3*
Y20375D3*
Y21375D3*
Y22375D3*
Y23375D3*
Y24375D3*
Y25375D3*
Y26375D3*
Y27375D3*
Y28375D3*
Y29375D3*
Y30375D3*
D24*
X42900Y29600D3*
D25*
X43900D3*
X44900D3*
X45900D3*
X46900D3*
X47900D3*
X48900D3*
X49900D3*
X50900D3*
X51900D3*
X52900D3*
X53900D3*
X54900D3*
X55900D3*
Y35600D3*
X54900D3*
X53900D3*
X52900D3*
X51900D3*
X50900D3*
X49900D3*
X48900D3*
X47900D3*
X46900D3*
X45900D3*
X44900D3*
X43900D3*
X42900D3*
D24*
X32500Y17000D3*
D25*
Y18000D3*
Y19000D3*
Y20000D3*
Y21000D3*
Y22000D3*
Y23000D3*
Y24000D3*
Y25000D3*
Y26000D3*
Y27000D3*
Y28000D3*
Y29000D3*
Y30000D3*
Y31000D3*
Y32000D3*
Y33000D3*
Y34000D3*
Y35000D3*
Y36000D3*
X26500D3*
Y35000D3*
Y34000D3*
Y33000D3*
Y32000D3*
Y31000D3*
Y30000D3*
Y29000D3*
Y28000D3*
Y27000D3*
Y26000D3*
Y25000D3*
Y24000D3*
Y23000D3*
Y22000D3*
Y21000D3*
Y20000D3*
Y19000D3*
Y18000D3*
Y17000D3*
D24*
X49870Y21875D3*
D25*
Y20875D3*
Y19875D3*
Y18875D3*
Y17875D3*
Y16875D3*
Y15875D3*
Y14875D3*
Y13875D3*
Y12875D3*
Y11875D3*
Y10875D3*
Y9875D3*
Y8875D3*
X55870D3*
Y9875D3*
Y10875D3*
Y11875D3*
Y12875D3*
Y13875D3*
Y14875D3*
Y15875D3*
Y16875D3*
Y17875D3*
Y18875D3*
Y19875D3*
Y20875D3*
Y21875D3*
D24*
X16069Y27191D3*
D25*
Y28191D3*
Y29191D3*
Y30191D3*
Y31191D3*
Y32191D3*
Y33191D3*
Y34191D3*
X13069D3*
Y33191D3*
Y32191D3*
Y31191D3*
Y30191D3*
Y29191D3*
Y28191D3*
Y27191D3*
D24*
X18000Y2500D3*
D25*
Y3500D3*
X19000Y2500D3*
Y3500D3*
X20000Y2500D3*
Y3500D3*
X21000Y2500D3*
Y3500D3*
X22000Y2500D3*
Y3500D3*
X23000Y2500D3*
Y3500D3*
X24000Y2500D3*
Y3500D3*
X25000Y2500D3*
Y3500D3*
X26000Y2500D3*
Y3500D3*
X27000Y2500D3*
Y3500D3*
X28000Y2500D3*
Y3500D3*
X29000Y2500D3*
Y3500D3*
X30000Y2500D3*
Y3500D3*
X31000Y2500D3*
Y3500D3*
X32000Y2500D3*
Y3500D3*
X33000Y2500D3*
Y3500D3*
X34000Y2500D3*
Y3500D3*
X35000Y2500D3*
Y3500D3*
X36000Y2500D3*
Y3500D3*
X37000Y2500D3*
Y3500D3*
X38000Y2500D3*
Y3500D3*
X39000Y2500D3*
Y3500D3*
X40000Y2500D3*
Y3500D3*
X41000Y2500D3*
Y3500D3*
X42000Y2500D3*
Y3500D3*
D21*
X13870Y3519D3*
D26*
Y2731D3*
D27*
X16819Y36941D3*
D28*
X17909D3*
X19000D3*
X20091D3*
X21181D3*
X17364Y38059D3*
X18455D3*
X19545D3*
X20636D3*
D29*
X14081Y37500D3*
X23919D3*
D30*
X3996Y14005D3*
X5964D3*
D31*
X11875Y21625D3*
D32*
X15875D3*
D31*
X7500Y16000D3*
D32*
X11500D3*
D31*
X38125Y16875D3*
D32*
X34125D3*
D31*
Y18000D3*
D32*
Y22000D3*
D31*
X6125Y5125D3*
D32*
X10125D3*
D31*
X7500Y14125D3*
D32*
X11500D3*
D33*
X11380Y2239D3*
D34*
Y4011D3*
X8820D3*
Y2239D3*
D25*
X1250Y33385D3*
Y32125D3*
Y30865D3*
G36*
X5053Y2460D2*
X5152Y2361D1*
X5348D1*
X5447Y2460D1*
Y3050D1*
X5348Y3149D1*
X5152D1*
X5053Y3050D1*
Y2460D1*
G37*
D35*
X5750Y2755D3*
X6250D3*
D24*
X48375Y9000D3*
D25*
X47375D3*
X46375D3*
X45375D3*
X44375D3*
X43375D3*
X42375D3*
X41375D3*
Y6000D3*
X42375D3*
X43375D3*
X44375D3*
X45375D3*
X46375D3*
X47375D3*
X48375D3*
D24*
X48000Y16500D3*
D25*
Y17500D3*
Y18500D3*
Y19500D3*
Y20500D3*
Y21500D3*
Y22500D3*
X45000D3*
Y21500D3*
Y20500D3*
Y19500D3*
Y18500D3*
Y17500D3*
Y16500D3*
D24*
X42750D3*
D25*
Y17500D3*
Y18500D3*
Y19500D3*
Y20500D3*
Y21500D3*
Y22500D3*
X39750D3*
Y21500D3*
Y20500D3*
Y19500D3*
Y18500D3*
Y17500D3*
Y16500D3*
D24*
X10630Y9255D3*
D25*
Y10255D3*
Y11255D3*
Y12255D3*
X7630D3*
Y11255D3*
Y10255D3*
Y9255D3*
D24*
X8819Y27941D3*
D25*
Y33941D3*
X5819D3*
Y27941D3*
D24*
X4125Y18500D3*
D25*
X10125D3*
Y21500D3*
X4125D3*
G36*
X13955Y10572D2*
X13856Y10473D1*
Y10277D1*
X13955Y10178D1*
X14545D1*
X14644Y10277D1*
Y10473D1*
X14545Y10572D1*
X13955D1*
G37*
D36*
X14250Y9875D3*
Y9375D3*
D31*
X11500Y5130D3*
D32*
Y9130D3*
M02*
