G04 DipTrace 2.4.0.2*
%INTopMask.gbr*%
%MOIN*%
%ADD21R,0.063X0.063*%
%ADD22R,0.0709X0.0709*%
%ADD23C,0.0709*%
%ADD26C,0.063*%
%ADD33R,0.0669X0.0669*%
%ADD34C,0.0669*%
%ADD39C,0.125*%
%ADD50O,0.0827X0.0434*%
%ADD51O,0.0434X0.0827*%
%ADD52C,0.064*%
%ADD53C,0.064*%
%ADD54C,0.069*%
%ADD55C,0.1914*%
%ADD56C,0.0705*%
%ADD57R,0.0705X0.0705*%
%ADD58C,0.0749*%
%ADD59R,0.0749X0.0749*%
%ADD60C,0.067*%
%ADD61R,0.2245X0.1221*%
%FSLAX44Y44*%
G04*
G70*
G90*
G75*
G01*
%LNTopMask*%
%LPD*%
D61*
X3875Y23799D3*
Y6201D3*
X56142D3*
Y23799D3*
D60*
X6000Y9750D3*
D33*
Y10750D3*
D60*
X39625Y7500D3*
D33*
Y9500D3*
D60*
X7625Y7750D3*
D33*
X6625D3*
D60*
X40875Y38000D3*
D33*
X42875D3*
D60*
X25125Y18875D3*
D33*
Y16875D3*
D60*
X34313Y26000D3*
D33*
Y24000D3*
D60*
X18319Y34316D3*
D33*
Y32316D3*
D60*
X11194Y28691D3*
D33*
Y26691D3*
D60*
X41750Y14125D3*
D33*
X39750D3*
D60*
X55750Y26000D3*
D33*
X53750D3*
D60*
X20444Y34316D3*
D33*
Y32316D3*
D60*
X12069Y24816D3*
D33*
X14069D3*
D60*
X22569Y34316D3*
D33*
Y32316D3*
D60*
X47000Y14125D3*
D33*
X45000D3*
D60*
X52250Y6000D3*
D33*
X50250D3*
D59*
X16125Y18625D3*
D58*
X11775D3*
D59*
X4000Y7750D3*
D58*
Y12100D3*
D21*
X18500Y7625D3*
D26*
X19500D3*
X20500D3*
X21500D3*
X22500D3*
X23500D3*
X24500D3*
X25500D3*
X26500D3*
X27500D3*
X28500D3*
X29500D3*
X30500D3*
X31500D3*
X32500D3*
X33500D3*
X34500D3*
X35500D3*
X36500D3*
X37500D3*
Y13625D3*
X36500D3*
X35500D3*
X34500D3*
X33500D3*
X32500D3*
X31500D3*
X30500D3*
X29500D3*
X28500D3*
X27500D3*
X26500D3*
X25500D3*
X24500D3*
X23500D3*
X22500D3*
X21500D3*
X20500D3*
X19500D3*
X18500D3*
D21*
X17500Y30375D3*
D26*
Y29375D3*
Y28375D3*
Y27375D3*
Y26375D3*
Y25375D3*
Y24375D3*
Y23375D3*
Y22375D3*
Y21375D3*
Y20375D3*
Y19375D3*
Y18375D3*
Y17375D3*
X23484D3*
Y18375D3*
Y19375D3*
Y20375D3*
Y21375D3*
Y22375D3*
Y23375D3*
Y24375D3*
Y25375D3*
Y26375D3*
Y27375D3*
Y28375D3*
Y29375D3*
Y30375D3*
D21*
X42900Y29600D3*
D26*
X43900D3*
X44900D3*
X45900D3*
X46900D3*
X47900D3*
X48900D3*
X49900D3*
X50900D3*
X51900D3*
X52900D3*
X53900D3*
X54900D3*
X55900D3*
Y35600D3*
X54900D3*
X53900D3*
X52900D3*
X51900D3*
X50900D3*
X49900D3*
X48900D3*
X47900D3*
X46900D3*
X45900D3*
X44900D3*
X43900D3*
X42900D3*
D21*
X32500Y17000D3*
D26*
Y18000D3*
Y19000D3*
Y20000D3*
Y21000D3*
Y22000D3*
Y23000D3*
Y24000D3*
Y25000D3*
Y26000D3*
Y27000D3*
Y28000D3*
Y29000D3*
Y30000D3*
Y31000D3*
Y32000D3*
Y33000D3*
Y34000D3*
Y35000D3*
Y36000D3*
X26500D3*
Y35000D3*
Y34000D3*
Y33000D3*
Y32000D3*
Y31000D3*
Y30000D3*
Y29000D3*
Y28000D3*
Y27000D3*
Y26000D3*
Y25000D3*
Y24000D3*
Y23000D3*
Y22000D3*
Y21000D3*
Y20000D3*
Y19000D3*
Y18000D3*
Y17000D3*
D21*
X49870Y21875D3*
D26*
Y20875D3*
Y19875D3*
Y18875D3*
Y17875D3*
Y16875D3*
Y15875D3*
Y14875D3*
Y13875D3*
Y12875D3*
Y11875D3*
Y10875D3*
Y9875D3*
Y8875D3*
X55870D3*
Y9875D3*
Y10875D3*
Y11875D3*
Y12875D3*
Y13875D3*
Y14875D3*
Y15875D3*
Y16875D3*
Y17875D3*
Y18875D3*
Y19875D3*
Y20875D3*
Y21875D3*
D21*
X16069Y27191D3*
D26*
Y28191D3*
Y29191D3*
Y30191D3*
Y31191D3*
Y32191D3*
Y33191D3*
Y34191D3*
X13069D3*
Y33191D3*
Y32191D3*
Y31191D3*
Y30191D3*
Y29191D3*
Y28191D3*
Y27191D3*
D21*
X18000Y2500D3*
D26*
Y3500D3*
X19000Y2500D3*
Y3500D3*
X20000Y2500D3*
Y3500D3*
X21000Y2500D3*
Y3500D3*
X22000Y2500D3*
Y3500D3*
X23000Y2500D3*
Y3500D3*
X24000Y2500D3*
Y3500D3*
X25000Y2500D3*
Y3500D3*
X26000Y2500D3*
Y3500D3*
X27000Y2500D3*
Y3500D3*
X28000Y2500D3*
Y3500D3*
X29000Y2500D3*
Y3500D3*
X30000Y2500D3*
Y3500D3*
X31000Y2500D3*
Y3500D3*
X32000Y2500D3*
Y3500D3*
X33000Y2500D3*
Y3500D3*
X34000Y2500D3*
Y3500D3*
X35000Y2500D3*
Y3500D3*
X36000Y2500D3*
Y3500D3*
X37000Y2500D3*
Y3500D3*
X38000Y2500D3*
Y3500D3*
X39000Y2500D3*
Y3500D3*
X40000Y2500D3*
Y3500D3*
X41000Y2500D3*
Y3500D3*
X42000Y2500D3*
Y3500D3*
D33*
X13870Y3519D3*
D34*
Y2731D3*
D57*
X16819Y36941D3*
D56*
X17909D3*
X19000D3*
X20091D3*
X21181D3*
X17364Y38059D3*
X18455D3*
X19545D3*
X20636D3*
D55*
X14081Y37500D3*
X23919D3*
D54*
X3996Y14005D3*
X5964D3*
D53*
X11875Y21625D3*
D52*
X15875D3*
D53*
X7500Y16000D3*
D52*
X11500D3*
D53*
X38125Y16875D3*
D52*
X34125D3*
D53*
Y18000D3*
D52*
Y22000D3*
D53*
X6125Y5125D3*
D52*
X10125D3*
D53*
X7500Y14125D3*
D52*
X11500D3*
D22*
X11380Y2239D3*
D23*
Y4011D3*
X8820D3*
Y2239D3*
D26*
X1250Y33385D3*
Y32125D3*
Y30865D3*
G36*
X5033Y2451D2*
X5143Y2341D1*
X5357D1*
X5467Y2451D1*
Y3059D1*
X5357Y3169D1*
X5143D1*
X5033Y3059D1*
Y2451D1*
G37*
D51*
X5750Y2755D3*
X6250D3*
D21*
X48375Y9000D3*
D26*
X47375D3*
X46375D3*
X45375D3*
X44375D3*
X43375D3*
X42375D3*
X41375D3*
Y6000D3*
X42375D3*
X43375D3*
X44375D3*
X45375D3*
X46375D3*
X47375D3*
X48375D3*
D21*
X48000Y16500D3*
D26*
Y17500D3*
Y18500D3*
Y19500D3*
Y20500D3*
Y21500D3*
Y22500D3*
X45000D3*
Y21500D3*
Y20500D3*
Y19500D3*
Y18500D3*
Y17500D3*
Y16500D3*
D21*
X42750D3*
D26*
Y17500D3*
Y18500D3*
Y19500D3*
Y20500D3*
Y21500D3*
Y22500D3*
X39750D3*
Y21500D3*
Y20500D3*
Y19500D3*
Y18500D3*
Y17500D3*
Y16500D3*
D21*
X10630Y9255D3*
D26*
Y10255D3*
Y11255D3*
Y12255D3*
X7630D3*
Y11255D3*
Y10255D3*
Y9255D3*
D21*
X8819Y27941D3*
D26*
Y33941D3*
X5819D3*
Y27941D3*
D21*
X4125Y18500D3*
D26*
X10125D3*
Y21500D3*
X4125D3*
G36*
X13946Y10592D2*
X13836Y10482D1*
Y10268D1*
X13946Y10158D1*
X14554D1*
X14664Y10268D1*
Y10482D1*
X14554Y10592D1*
X13946D1*
G37*
D50*
X14250Y9875D3*
Y9375D3*
D53*
X11500Y5130D3*
D52*
Y9130D3*
D39*
X1500Y38500D3*
Y1500D3*
X58500D3*
Y38500D3*
M02*
