G04 DipTrace 2.4.0.2*
%INTopSilk.gbr*%
%MOIN*%
%ADD10C,0.0098*%
%ADD12C,0.003*%
%ADD62C,0.0077*%
%ADD63C,0.0093*%
%ADD64C,0.0293*%
%ADD65C,0.0154*%
%ADD66C,0.0108*%
%FSLAX44Y44*%
G04*
G70*
G90*
G75*
G01*
%LNTopSilk*%
%LPD*%
X5400Y10949D2*
D10*
Y9551D1*
X6600Y10949D2*
Y9551D1*
X5400D2*
G03X6600Y9551I600J-1D01*
G01*
Y10949D2*
G03X5400Y10949I-600J1D01*
G01*
X40225Y9699D2*
Y7301D1*
X39025Y9699D2*
Y7301D1*
G03X40225Y7301I600J-1D01*
G01*
Y9699D2*
G03X39025Y9699I-600J1D01*
G01*
X6426Y7150D2*
X7824D1*
X6426Y8350D2*
X7824D1*
Y7150D2*
G03X7824Y8350I1J600D01*
G01*
X6426D2*
G03X6426Y7150I-1J-600D01*
G01*
X43074Y37400D2*
X40676D1*
X43074Y38600D2*
X40676D1*
G03X40676Y37400I-1J-600D01*
G01*
X43074D2*
G03X43074Y38600I1J600D01*
G01*
X24525Y16676D2*
Y19074D1*
X25725Y16676D2*
Y19074D1*
G03X24525Y19074I-600J1D01*
G01*
Y16676D2*
G03X25725Y16676I600J-1D01*
G01*
X33713Y23801D2*
Y26199D1*
X34913Y23801D2*
Y26199D1*
G03X33713Y26199I-600J1D01*
G01*
Y23801D2*
G03X34913Y23801I600J-1D01*
G01*
X17719Y32117D2*
Y34515D1*
X18919Y32117D2*
Y34515D1*
G03X17719Y34515I-600J1D01*
G01*
Y32117D2*
G03X18919Y32117I600J-1D01*
G01*
X10594Y26492D2*
Y28890D1*
X11794Y26492D2*
Y28890D1*
G03X10594Y28890I-600J1D01*
G01*
Y26492D2*
G03X11794Y26492I600J-1D01*
G01*
X39551Y14725D2*
X41949D1*
X39551Y13525D2*
X41949D1*
G03X41949Y14725I1J600D01*
G01*
X39551D2*
G03X39551Y13525I-1J-600D01*
G01*
X53551Y26600D2*
X55949D1*
X53551Y25400D2*
X55949D1*
G03X55949Y26600I1J600D01*
G01*
X53551D2*
G03X53551Y25400I-1J-600D01*
G01*
X19844Y32117D2*
Y34515D1*
X21044Y32117D2*
Y34515D1*
G03X19844Y34515I-600J1D01*
G01*
Y32117D2*
G03X21044Y32117I600J-1D01*
G01*
X14268Y24216D2*
X11870D1*
X14268Y25416D2*
X11870D1*
G03X11870Y24216I-1J-600D01*
G01*
X14268D2*
G03X14268Y25416I1J600D01*
G01*
X21969Y32117D2*
Y34515D1*
X23169Y32117D2*
Y34515D1*
G03X21969Y34515I-600J1D01*
G01*
Y32117D2*
G03X23169Y32117I600J-1D01*
G01*
X44801Y14725D2*
X47199D1*
X44801Y13525D2*
X47199D1*
G03X47199Y14725I1J600D01*
G01*
X44801D2*
G03X44801Y13525I-1J-600D01*
G01*
X50051Y6600D2*
X52449D1*
X50051Y5400D2*
X52449D1*
G03X52449Y6600I1J600D01*
G01*
X50051D2*
G03X50051Y5400I-1J-600D01*
G01*
X14896Y19176D2*
Y18074D1*
X14876D2*
X13024D1*
X14597Y19176D2*
Y18074D1*
X13024Y19176D2*
Y18074D1*
X14876Y19176D2*
X13024D1*
X4551Y8979D2*
X3449D1*
Y8999D2*
Y10851D1*
X4551Y9278D2*
X3449D1*
X4551Y10851D2*
X3449D1*
X4551Y8999D2*
Y10851D1*
X17961Y8105D2*
X38039D1*
Y13145D1*
X17961D2*
X38039D1*
X17921Y8105D2*
Y10310D1*
Y13145D2*
Y10940D1*
Y10310D2*
G03X17921Y10940I-1J315D01*
G01*
X23012Y31198D2*
Y16552D1*
X17973D2*
X23012D1*
X17973Y31198D2*
Y16552D1*
Y31198D2*
X20177D1*
X23012D2*
X20807D1*
X20177D2*
G03X20807Y31198I315J0D01*
G01*
X42077Y35112D2*
X56723D1*
Y30073D2*
Y35112D1*
X42077Y30073D2*
X56723D1*
X42077D2*
Y32277D1*
Y35112D2*
Y32907D1*
Y32277D2*
G03X42077Y32907I0J315D01*
G01*
X32020Y16461D2*
Y36539D1*
X26980D1*
Y16461D2*
Y36539D1*
X32020Y16421D2*
X29815D1*
X26980D2*
X29185D1*
X29815D2*
G03X29185Y16421I-315J-1D01*
G01*
X55382Y22698D2*
Y8052D1*
X50343D2*
X55382D1*
X50343Y22698D2*
Y8052D1*
Y22698D2*
X52547D1*
X55382D2*
X53177D1*
X52547D2*
G03X53177Y22698I315J0D01*
G01*
X13545Y26675D2*
Y34707D1*
X15593D2*
X13545D1*
X15593Y26675D2*
Y34707D1*
Y26675D2*
X14805D1*
X13545D2*
X14333D1*
X14805D2*
G03X14333Y26675I-236J0D01*
G01*
X17500Y2000D2*
X42500D1*
X17500Y4000D2*
X42500D1*
X17500Y2000D2*
Y4000D1*
X42500Y2000D2*
Y4000D1*
X14539Y4286D2*
X12768D1*
Y1964D1*
X14539D1*
Y4286D1*
X23923Y43349D2*
G03X22917Y43349I-503J-523D01*
G01*
X24917D2*
G03X23923Y43349I-497J-508D01*
G01*
Y41516D2*
G03X24917Y41516I497J483D01*
G01*
X22917D2*
G03X23923Y41516I503J498D01*
G01*
X14077Y43349D2*
G03X13083Y43349I-497J-508D01*
G01*
X15083D2*
G03X14077Y43349I-503J-523D01*
G01*
Y41516D2*
G03X15083Y41516I503J498D01*
G01*
X13083D2*
G03X14077Y41516I497J483D01*
G01*
X22492Y43327D2*
G03X22213Y43602I-281J-6D01*
G01*
X22492Y41516D2*
G03X22759Y41241I261J-14D01*
G01*
X15787Y43602D2*
G03X15508Y43327I2J-281D01*
G01*
X15241Y41241D2*
G03X15508Y41516I6J261D01*
G01*
X22917D2*
X23171Y41263D1*
X22917Y41516D2*
Y43349D1*
X23171Y43602D1*
X24675D1*
X24917Y43349D1*
Y42849D2*
Y42929D1*
Y41516D2*
Y43349D1*
X24675Y41263D2*
X24917Y41516D1*
X23923D2*
Y43349D1*
X13083Y41516D2*
X13325Y41263D1*
X13083Y41516D2*
Y43349D1*
X13325Y43602D1*
X14829D1*
X15083Y43349D1*
Y42849D2*
Y42929D1*
Y41516D2*
Y43349D1*
X14829Y41263D2*
X15083Y41516D1*
X14077D2*
Y43349D1*
X22492Y41516D2*
Y43327D1*
X15508Y41516D2*
Y43327D1*
X16247Y36358D2*
Y40060D1*
X12937Y41241D2*
X25063D1*
X21753Y36358D2*
Y40060D1*
X12937Y36358D2*
X25063D1*
X15787Y43602D2*
X22213D1*
X12937Y36358D2*
Y41241D1*
X25063Y36358D2*
Y41241D1*
X12937Y40060D2*
X25063D1*
X3346Y14005D2*
G02X3346Y14005I1634J0D01*
G01*
X14873Y21125D2*
X12877D1*
Y22125D2*
Y21125D1*
X14873Y22125D2*
X12877D1*
X14873D2*
Y21125D1*
X10498Y15500D2*
X8502D1*
Y16500D2*
Y15500D1*
X10498Y16500D2*
X8502D1*
X10498D2*
Y15500D1*
X35127Y17375D2*
X37123D1*
Y16375D2*
Y17375D1*
X35127Y16375D2*
X37123D1*
X35127D2*
Y17375D1*
X34625Y20998D2*
Y19002D1*
X33625D2*
X34625D1*
X33625Y20998D2*
Y19002D1*
Y20998D2*
X34625D1*
X9123Y4625D2*
X7127D1*
Y5625D2*
Y4625D1*
X9123Y5625D2*
X7127D1*
X9123D2*
Y4625D1*
X10498Y13625D2*
X8502D1*
Y14625D2*
Y13625D1*
X10498Y14625D2*
X8502D1*
X10498D2*
Y13625D1*
X9391Y3125D2*
G02X9391Y3125I709J0D01*
G01*
X11006Y4306D2*
X9194D1*
X8919Y3519D2*
Y2731D1*
X9194Y1944D2*
X10848D1*
X11281Y2731D2*
Y3519D1*
X9510Y3125D2*
G02X9510Y3125I590J0D01*
G01*
X2470Y34881D2*
X29D1*
Y29369D1*
X2470D1*
Y34881D1*
X29Y32715D2*
X-1939D1*
X29Y31535D2*
X-1939D1*
Y32715D2*
Y31535D1*
X4994Y2224D2*
G02X6506Y2224I756J666D01*
G01*
X4994D1*
X48891Y6476D2*
X40859D1*
Y8524D2*
Y6476D1*
X48891Y8524D2*
X40859D1*
X48891D2*
Y7736D1*
Y6476D2*
Y7264D1*
Y7736D2*
G03X48891Y7264I0J-236D01*
G01*
X45476Y15642D2*
Y23358D1*
X47524D2*
X45476D1*
X47524Y15642D2*
Y23358D1*
Y15642D2*
X46736D1*
X45476D2*
X46264D1*
X46736D2*
G03X46264Y15642I-236J0D01*
G01*
X40226D2*
Y23358D1*
X42274D2*
X40226D1*
X42274Y15642D2*
Y23358D1*
Y15642D2*
X41486D1*
X40226D2*
X41014D1*
X41486D2*
G03X41014Y15642I-236J0D01*
G01*
X8106Y8786D2*
Y12724D1*
X10154D2*
X8106D1*
X10154Y8786D2*
Y12724D1*
Y8786D2*
X9366D1*
X8106D2*
X8894D1*
X9366D2*
G03X8894Y8786I-236J0D01*
G01*
X9819Y26941D2*
Y34441D1*
X9319Y34941D2*
X5319D1*
X4819Y34441D2*
Y27441D1*
X9819Y26941D2*
X5319D1*
X9569Y27441D2*
Y34441D1*
X9319Y34691D2*
X5319D1*
X5069Y34441D2*
Y27441D1*
X5319Y27191D2*
X9319D1*
X9819Y34441D2*
G03X9319Y34941I-500J0D01*
G01*
X9569Y34441D2*
G03X9319Y34691I-250J0D01*
G01*
X5069Y34441D2*
G02X5319Y34691I250J0D01*
G01*
X4819Y34441D2*
G02X5319Y34941I500J0D01*
G01*
Y27191D2*
G02X5069Y27441I0J250D01*
G01*
X5319Y26941D2*
G02X4819Y27441I0J500D01*
G01*
X9319Y27191D2*
G03X9569Y27441I0J250D01*
G01*
X5319Y30811D2*
X6319D1*
Y31061D1*
X5319D1*
Y30811D1*
Y31311D2*
X5819D1*
X5319Y30571D2*
X5819D1*
Y31311D2*
Y31941D1*
Y31311D2*
X6319D1*
X5819Y30571D2*
Y29941D1*
Y30571D2*
X6319D1*
X3125Y17500D2*
X10625D1*
X11125Y18000D2*
Y22000D1*
X10625Y22500D2*
X3625D1*
X3125Y17500D2*
Y22000D1*
X3625Y17750D2*
X10625D1*
X10875Y18000D2*
Y22000D1*
X10625Y22250D2*
X3625D1*
X3375Y22000D2*
Y18000D1*
X10625Y17500D2*
G03X11125Y18000I0J500D01*
G01*
X10625Y17750D2*
G03X10875Y18000I0J250D01*
G01*
X10625Y22250D2*
G02X10875Y22000I0J-250D01*
G01*
X10625Y22500D2*
G02X11125Y22000I0J-500D01*
G01*
X3375D2*
G02X3625Y22250I250J0D01*
G01*
X3125Y22000D2*
G02X3625Y22500I500J0D01*
G01*
X3375Y18000D2*
G03X3625Y17750I250J0D01*
G01*
X6995Y22000D2*
Y21000D1*
X7245D1*
Y22000D1*
X6995D1*
X7495D2*
Y21500D1*
X6755Y22000D2*
Y21500D1*
X7495D2*
X8125D1*
X7495D2*
Y21000D1*
X6755Y21500D2*
X6125D1*
X6755D2*
Y21000D1*
X13719Y10631D2*
G02X13719Y9119I666J-756D01*
G01*
Y10631D1*
X12000Y8128D2*
Y6132D1*
X11000D2*
X12000D1*
X11000Y8128D2*
Y6132D1*
Y8128D2*
X12000D1*
X37061Y31168D2*
D12*
X37421D1*
X36962Y31138D2*
X37525D1*
X36873Y31108D2*
X37623D1*
X36796Y31078D2*
X37712D1*
X36730Y31048D2*
X37792D1*
X36674Y31018D2*
X37861D1*
X36628Y30988D2*
X37922D1*
X36589Y30958D2*
X37139D1*
X37348D2*
X37973D1*
X36554Y30928D2*
X37026D1*
X37469D2*
X38018D1*
X36523Y30898D2*
X36936D1*
X37570D2*
X38060D1*
X36492Y30868D2*
X36863D1*
X37653D2*
X38100D1*
X36462Y30838D2*
X36802D1*
X37723D2*
X38136D1*
X36431Y30808D2*
X36751D1*
X37783D2*
X38170D1*
X36401Y30778D2*
X36710D1*
X37838D2*
X38204D1*
X36372Y30748D2*
X36675D1*
X37890D2*
X38238D1*
X36343Y30718D2*
X36641D1*
X37940D2*
X38269D1*
X36316Y30688D2*
X36735D1*
X37985D2*
X38296D1*
X36294Y30658D2*
X36812D1*
X38023D2*
X38323D1*
X36272Y30628D2*
X36873D1*
X38054D2*
X38348D1*
X36252Y30598D2*
X36918D1*
X38083D2*
X38369D1*
X36233Y30568D2*
X36951D1*
X38112D2*
X38387D1*
X36216Y30538D2*
X36977D1*
X38141D2*
X38403D1*
X36200Y30508D2*
X37000D1*
X38167D2*
X38418D1*
X36184Y30478D2*
X37020D1*
X38189D2*
X38430D1*
X36168Y30448D2*
X36432D1*
X36751D2*
X37037D1*
X38210D2*
X38440D1*
X36150Y30418D2*
X36403D1*
X36791D2*
X37053D1*
X38231D2*
X38451D1*
X36132Y30388D2*
X36376D1*
X36822D2*
X37068D1*
X38250D2*
X38461D1*
X36116Y30358D2*
X36354D1*
X36848D2*
X37080D1*
X38266D2*
X38471D1*
X36104Y30328D2*
X36332D1*
X36869D2*
X37091D1*
X38279D2*
X38481D1*
X36091Y30298D2*
X36312D1*
X36886D2*
X37101D1*
X38290D2*
X38490D1*
X36078Y30268D2*
X36293D1*
X36899D2*
X37110D1*
X38301D2*
X38496D1*
X36063Y30238D2*
X36277D1*
X36910D2*
X37116D1*
X37421D2*
X37631D1*
X38310D2*
X38499D1*
X36049Y30208D2*
X36263D1*
X36921D2*
X37120D1*
X37332D2*
X37700D1*
X38316D2*
X38502D1*
X36034Y30178D2*
X36252D1*
X36930D2*
X37126D1*
X37251D2*
X37759D1*
X38319D2*
X38507D1*
X36019Y30148D2*
X36241D1*
X36936D2*
X37137D1*
X37171D2*
X37807D1*
X38321D2*
X38517D1*
X36005Y30118D2*
X36228D1*
X36939D2*
X37844D1*
X38321D2*
X38531D1*
X35993Y30088D2*
X36214D1*
X36939D2*
X37875D1*
X38321D2*
X38501D1*
X35982Y30058D2*
X36204D1*
X36311D2*
X36491D1*
X36936D2*
X37902D1*
X38321D2*
X38514D1*
X34841Y30028D2*
X35501D1*
X35971D2*
X36197D1*
X36287D2*
X36506D1*
X36929D2*
X37927D1*
X38321D2*
X38513D1*
X34730Y29998D2*
X35627D1*
X35960D2*
X36194D1*
X36270D2*
X36520D1*
X36920D2*
X37363D1*
X37654D2*
X37948D1*
X38321D2*
X38509D1*
X34635Y29968D2*
X35756D1*
X35945D2*
X36194D1*
X36258D2*
X36535D1*
X36910D2*
X37307D1*
X37698D2*
X37965D1*
X38321D2*
X38505D1*
X34556Y29938D2*
X35895D1*
X35921D2*
X36198D1*
X36249D2*
X36551D1*
X36896D2*
X37255D1*
X37730D2*
X37978D1*
X38320D2*
X38503D1*
X34487Y29908D2*
X36208D1*
X36236D2*
X36536D1*
X36879D2*
X37209D1*
X37753D2*
X37986D1*
X38316D2*
X38502D1*
X34425Y29878D2*
X36522D1*
X36860D2*
X37170D1*
X37772D2*
X37994D1*
X38309D2*
X38502D1*
X34368Y29848D2*
X36507D1*
X36840D2*
X37141D1*
X37787D2*
X38003D1*
X38301D2*
X38500D1*
X34319Y29818D2*
X34943D1*
X35021D2*
X35290D1*
X35332D2*
X36468D1*
X36815D2*
X37119D1*
X37799D2*
X38011D1*
X38295D2*
X38496D1*
X34275Y29788D2*
X34819D1*
X35051D2*
X35316D1*
X35500D2*
X36410D1*
X36781D2*
X37101D1*
X37805D2*
X38016D1*
X38289D2*
X38489D1*
X34232Y29758D2*
X34714D1*
X35081D2*
X35339D1*
X35638D2*
X36341D1*
X36731D2*
X37085D1*
X37809D2*
X38019D1*
X38280D2*
X38480D1*
X34188Y29728D2*
X34627D1*
X35110D2*
X35360D1*
X35750D2*
X36426D1*
X36651D2*
X37069D1*
X37810D2*
X38021D1*
X38271D2*
X38471D1*
X34145Y29698D2*
X34553D1*
X35136D2*
X35381D1*
X35843D2*
X36539D1*
X36536D2*
X37055D1*
X37811D2*
X38021D1*
X38261D2*
X38461D1*
X34104Y29668D2*
X34487D1*
X35159D2*
X35400D1*
X35918D2*
X36071D1*
X36131D2*
X37044D1*
X37811D2*
X38021D1*
X38250D2*
X38451D1*
X34068Y29638D2*
X34429D1*
X35180D2*
X35417D1*
X35982D2*
X36071D1*
X36162D2*
X37036D1*
X37811D2*
X38021D1*
X38237D2*
X38442D1*
X34039Y29608D2*
X34380D1*
X35201D2*
X35433D1*
X36041D2*
X36071D1*
X36193D2*
X37029D1*
X37811D2*
X38020D1*
X38223D2*
X38431D1*
X34015Y29578D2*
X34340D1*
X35220D2*
X35449D1*
X36228D2*
X37020D1*
X37151D2*
X37301D1*
X37810D2*
X38016D1*
X38209D2*
X38421D1*
X33992Y29548D2*
X34304D1*
X35236D2*
X35464D1*
X36274D2*
X37012D1*
X37127D2*
X37327D1*
X37806D2*
X38009D1*
X38195D2*
X38412D1*
X33968Y29518D2*
X34268D1*
X35249D2*
X35478D1*
X36337D2*
X36739D1*
X36821D2*
X37007D1*
X37110D2*
X37348D1*
X37799D2*
X38001D1*
X38183D2*
X38401D1*
X33944Y29488D2*
X34231D1*
X35260D2*
X35489D1*
X36423D2*
X36637D1*
X36821D2*
X37005D1*
X37100D2*
X37364D1*
X37790D2*
X37995D1*
X38172D2*
X38391D1*
X33923Y29458D2*
X34197D1*
X35272D2*
X35497D1*
X36521D2*
D3*
X36821D2*
X37007D1*
X37095D2*
X37376D1*
X37781D2*
X37989D1*
X38160D2*
X38382D1*
X33901Y29428D2*
X34169D1*
X35285D2*
X35504D1*
X36821D2*
X37014D1*
X37094D2*
X37372D1*
X37770D2*
X37980D1*
X38146D2*
X38370D1*
X33878Y29398D2*
X34143D1*
X35298D2*
X35513D1*
X36822D2*
X37023D1*
X37096D2*
X37362D1*
X37756D2*
X37971D1*
X38129D2*
X38357D1*
X33854Y29368D2*
X34117D1*
X35310D2*
X35521D1*
X36823D2*
X37032D1*
X37111D2*
X37345D1*
X37738D2*
X37961D1*
X38110D2*
X38343D1*
X33834Y29338D2*
X34090D1*
X35321D2*
X35528D1*
X36826D2*
X37043D1*
X37144D2*
X37310D1*
X37715D2*
X37950D1*
X38092D2*
X38329D1*
X33816Y29308D2*
X34062D1*
X35331D2*
X35534D1*
X36834D2*
X37057D1*
X37181D2*
X37271D1*
X37689D2*
X37937D1*
X38075D2*
X38314D1*
X33800Y29278D2*
X34037D1*
X35340D2*
X35543D1*
X36842D2*
X37074D1*
X37660D2*
X37923D1*
X38059D2*
X38298D1*
X33785Y29248D2*
X34019D1*
X35346D2*
X35551D1*
X36852D2*
X37094D1*
X37630D2*
X37907D1*
X38044D2*
X38280D1*
X33773Y29218D2*
X34005D1*
X35349D2*
X35556D1*
X36863D2*
X37118D1*
X37594D2*
X37889D1*
X38028D2*
X38261D1*
X33762Y29188D2*
X33991D1*
X35351D2*
X35559D1*
X36877D2*
X37146D1*
X37544D2*
X37866D1*
X38010D2*
X38242D1*
X33752Y29158D2*
X33978D1*
X35352D2*
X35561D1*
X36551D2*
D3*
X36895D2*
X37216D1*
X37462D2*
X37839D1*
X37991D2*
X38225D1*
X33741Y29128D2*
X33964D1*
X35356D2*
X35561D1*
X36526D2*
X36611D1*
X36916D2*
X37322D1*
X37335D2*
X37810D1*
X37971D2*
X38208D1*
X33732Y29098D2*
X33953D1*
X35364D2*
X35561D1*
X36503D2*
X36649D1*
X36940D2*
X37781D1*
X37950D2*
X38190D1*
X33721Y29068D2*
X33942D1*
X35371D2*
X35561D1*
X36481D2*
X36679D1*
X36965D2*
X37750D1*
X37926D2*
X38171D1*
X33712Y29038D2*
X33932D1*
X35376D2*
X35561D1*
X36456D2*
X36689D1*
X36995D2*
X37715D1*
X37900D2*
X38151D1*
X33707Y29008D2*
X33922D1*
X35378D2*
X35561D1*
X36428D2*
X36681D1*
X37032D2*
X37673D1*
X37876D2*
X38130D1*
X33704Y28978D2*
X33915D1*
X35376D2*
X35561D1*
X36393D2*
X36667D1*
X37073D2*
X37622D1*
X37853D2*
X38107D1*
X33702Y28948D2*
X33909D1*
X35369D2*
X35561D1*
X36343D2*
X36650D1*
X37122D2*
X37562D1*
X37831D2*
X38084D1*
X33702Y28918D2*
X33900D1*
X35361D2*
X35561D1*
X36265D2*
X36630D1*
X37179D2*
X37494D1*
X37808D2*
X38064D1*
X33702Y28888D2*
X33892D1*
X35356D2*
X35561D1*
X36134D2*
X36606D1*
X37241D2*
X37421D1*
X37784D2*
X38046D1*
X33701Y28858D2*
X33886D1*
X35351D2*
X35561D1*
X35923D2*
X36579D1*
X37763D2*
X38029D1*
X33701Y28828D2*
X33884D1*
X35343D2*
X35561D1*
X35629D2*
X36550D1*
X37741D2*
X38009D1*
X33701Y28798D2*
X33882D1*
X35312D2*
X36520D1*
X37716D2*
X37986D1*
X33701Y28768D2*
X33882D1*
X35241D2*
X36483D1*
X37689D2*
X37960D1*
X38771D2*
X39401D1*
X33701Y28738D2*
X33882D1*
X35151D2*
X36434D1*
X37661D2*
X37936D1*
X38507D2*
X39609D1*
X33701Y28708D2*
X33883D1*
X35055D2*
X36357D1*
X37631D2*
X37917D1*
X38245D2*
X39791D1*
X33701Y28678D2*
X33886D1*
X34965D2*
X36236D1*
X37602D2*
X37901D1*
X37973D2*
X39940D1*
X33701Y28648D2*
X33894D1*
X34888D2*
X36065D1*
X37576D2*
X40059D1*
X33702Y28618D2*
X33901D1*
X34823D2*
X35872D1*
X37552D2*
X40152D1*
X33703Y28588D2*
X33907D1*
X34767D2*
X35706D1*
X37526D2*
X40229D1*
X33706Y28558D2*
X33910D1*
X34718D2*
X35600D1*
X37494D2*
X38886D1*
X39249D2*
X40296D1*
X33714Y28528D2*
X33916D1*
X34675D2*
X35202D1*
X35290D2*
X35531D1*
X37458D2*
X38612D1*
X39506D2*
X40359D1*
X33721Y28498D2*
X33923D1*
X34637D2*
X35114D1*
X35286D2*
X35511D1*
X37419D2*
X38379D1*
X39707D2*
X40420D1*
X33728Y28468D2*
X33932D1*
X34599D2*
X35033D1*
X35279D2*
X35495D1*
X37376D2*
X38183D1*
X39859D2*
X40476D1*
X33734Y28438D2*
X33942D1*
X34560D2*
X34962D1*
X35270D2*
X35484D1*
X37329D2*
X38016D1*
X39978D2*
X40528D1*
X33743Y28408D2*
X33953D1*
X34522D2*
X34900D1*
X35261D2*
X35476D1*
X37281D2*
X37870D1*
X40078D2*
X40576D1*
X33752Y28378D2*
X33965D1*
X34486D2*
X34840D1*
X35251D2*
X35469D1*
X37231D2*
X37739D1*
X40164D2*
X40623D1*
X33761Y28348D2*
X33978D1*
X34454D2*
X34781D1*
X35241D2*
X35459D1*
X36371D2*
X36461D1*
X37181D2*
X37613D1*
X40239D2*
X40667D1*
X41321D2*
X42071D1*
X33772Y28318D2*
X33990D1*
X34423D2*
X34828D1*
X35232D2*
X35447D1*
X36280D2*
X36472D1*
X37133D2*
X37488D1*
X40305D2*
X40709D1*
X41237D2*
X42144D1*
X33782Y28288D2*
X34001D1*
X34397D2*
X34880D1*
X35220D2*
X35434D1*
X36185D2*
X36482D1*
X37087D2*
X37365D1*
X40364D2*
X40745D1*
X41161D2*
X42208D1*
X33791Y28258D2*
X34012D1*
X34374D2*
X34943D1*
X35204D2*
X35423D1*
X36080D2*
X36491D1*
X37045D2*
X37243D1*
X40419D2*
X40779D1*
X41096D2*
X42261D1*
X33803Y28228D2*
X34025D1*
X34352D2*
X35023D1*
X35182D2*
X35412D1*
X35958D2*
X36500D1*
X37007D2*
X37122D1*
X40469D2*
X40813D1*
X41041D2*
X42307D1*
X33816Y28198D2*
X34040D1*
X34332D2*
X35122D1*
X35135D2*
X35403D1*
X35807D2*
X36507D1*
X36971D2*
X37001D1*
X40516D2*
X40853D1*
X40989D2*
X42349D1*
X33830Y28168D2*
X34054D1*
X34313D2*
X35395D1*
X35621D2*
X36498D1*
X40558D2*
X40904D1*
X40933D2*
X42385D1*
X33844Y28138D2*
X34069D1*
X34296D2*
X34572D1*
X34662D2*
X35402D1*
X35403D2*
X36469D1*
X40595D2*
X41456D1*
X41929D2*
X42414D1*
X33859Y28108D2*
X34085D1*
X34280D2*
X34543D1*
X34723D2*
X36433D1*
X40629D2*
X41339D1*
X42033D2*
X42439D1*
X33874Y28078D2*
X34103D1*
X34264D2*
X34516D1*
X34788D2*
X36393D1*
X40660D2*
X41249D1*
X42112D2*
X42465D1*
X33889Y28048D2*
X34122D1*
X34247D2*
X34494D1*
X34860D2*
X36353D1*
X40691D2*
X41179D1*
X42173D2*
X42493D1*
X33905Y28018D2*
X34141D1*
X34223D2*
X34472D1*
X34942D2*
X36317D1*
X40721D2*
X41125D1*
X42223D2*
X42521D1*
X33923Y27988D2*
X34161D1*
X34190D2*
X34452D1*
X35037D2*
X35886D1*
X36043D2*
X36285D1*
X40751D2*
X41083D1*
X42267D2*
X42547D1*
X33942Y27958D2*
X34433D1*
X35145D2*
X35725D1*
X36017D2*
X36257D1*
X40780D2*
X41068D1*
X42304D2*
X42569D1*
X33961Y27928D2*
X34417D1*
X35261D2*
X35561D1*
X35995D2*
X36235D1*
X40806D2*
X41070D1*
X42334D2*
X42590D1*
X33978Y27898D2*
X34403D1*
X35976D2*
X36217D1*
X40828D2*
X41079D1*
X42358D2*
X42611D1*
X33994Y27868D2*
X34393D1*
X35960D2*
X36200D1*
X40847D2*
X41091D1*
X42381D2*
X42630D1*
X34013Y27838D2*
X34382D1*
X35945D2*
X36184D1*
X40864D2*
X41106D1*
X42406D2*
X42647D1*
X34032Y27808D2*
X34373D1*
X35933D2*
X36169D1*
X40882D2*
X41123D1*
X42431D2*
X42663D1*
X34052Y27778D2*
X34367D1*
X35922D2*
X36154D1*
X40902D2*
X41141D1*
X42313D2*
X42679D1*
X34072Y27748D2*
X34362D1*
X35911D2*
X36139D1*
X40920D2*
X41157D1*
X42209D2*
X42694D1*
X34097Y27718D2*
X34357D1*
X35898D2*
X36124D1*
X40937D2*
X41169D1*
X42123D2*
X42708D1*
X34124Y27688D2*
X34350D1*
X35884D2*
X36109D1*
X40953D2*
X41181D1*
X42052D2*
X42719D1*
X34152Y27658D2*
X34342D1*
X35874D2*
X36095D1*
X40969D2*
X41191D1*
X41991D2*
X42727D1*
X34182Y27628D2*
X34336D1*
X35867D2*
X36083D1*
X40984D2*
X41201D1*
X41941D2*
X42734D1*
X34212Y27598D2*
X34334D1*
X35863D2*
X36072D1*
X40999D2*
X41211D1*
X41900D2*
X42743D1*
X34241Y27568D2*
X34332D1*
X35857D2*
X36062D1*
X41014D2*
X41222D1*
X41865D2*
X42459D1*
X42479D2*
X42751D1*
X34271Y27538D2*
X34332D1*
X35850D2*
X36052D1*
X41028D2*
X41231D1*
X41833D2*
X42312D1*
X42573D2*
X42756D1*
X34301Y27508D2*
X34332D1*
X35842D2*
X36045D1*
X41040D2*
X41241D1*
X41803D2*
X42210D1*
X42649D2*
X42759D1*
X34331Y27478D2*
D3*
X35836D2*
X36039D1*
X41051D2*
X41252D1*
X41777D2*
X42131D1*
X42709D2*
X42761D1*
X35833Y27448D2*
X36030D1*
X41061D2*
X41261D1*
X41754D2*
X42186D1*
X42761D2*
D3*
X35831Y27418D2*
X36022D1*
X41070D2*
X41271D1*
X41731D2*
X42233D1*
X35827Y27388D2*
X36016D1*
X41077D2*
X41281D1*
X41707D2*
X42273D1*
X35819Y27358D2*
X36013D1*
X39521D2*
X39551D1*
X41084D2*
X41287D1*
X41680D2*
X42308D1*
X35812Y27328D2*
X36011D1*
X37481D2*
X37541D1*
X39481D2*
X39581D1*
X41093D2*
X41294D1*
X41656D2*
X42339D1*
X35806Y27298D2*
X36007D1*
X37451D2*
X37560D1*
X39442D2*
X39611D1*
X41101D2*
X41303D1*
X41634D2*
X42366D1*
X35804Y27268D2*
X35999D1*
X37421D2*
X37577D1*
X39406D2*
X39641D1*
X41108D2*
X41311D1*
X41613D2*
X41801D1*
X42101D2*
X42388D1*
X35802Y27238D2*
X35992D1*
X37391D2*
X37594D1*
X39371D2*
X39671D1*
X41114D2*
X41316D1*
X41591D2*
X41681D1*
X42131D2*
X42406D1*
X35802Y27208D2*
X35986D1*
X37361D2*
X37612D1*
X39401D2*
X39701D1*
X41123D2*
X41319D1*
X42091D2*
X42423D1*
X35802Y27178D2*
X35984D1*
X37331D2*
X37631D1*
X39431D2*
X39731D1*
X41131D2*
X41322D1*
X42052D2*
X42437D1*
X35801Y27148D2*
X35982D1*
X37302D2*
X37600D1*
X39461D2*
X39761D1*
X41136D2*
X41326D1*
X42018D2*
X42450D1*
X35801Y27118D2*
X35982D1*
X37273D2*
X37566D1*
X39491D2*
X39792D1*
X41139D2*
X41333D1*
X41989D2*
X42460D1*
X35801Y27088D2*
X35982D1*
X37247D2*
X37529D1*
X39521D2*
X39823D1*
X41141D2*
X41341D1*
X41965D2*
X42471D1*
X35801Y27058D2*
X35981D1*
X37225D2*
X37493D1*
X39551D2*
X39857D1*
X41142D2*
X41346D1*
X41943D2*
X42481D1*
X35801Y27028D2*
X35981D1*
X37206D2*
X37461D1*
X39581D2*
X39895D1*
X41146D2*
X41349D1*
X41922D2*
X42491D1*
X35801Y26998D2*
X35981D1*
X37190D2*
X37436D1*
X39611D2*
X39936D1*
X41154D2*
X41351D1*
X41903D2*
X42162D1*
X42337D2*
X42501D1*
X35801Y26968D2*
X35981D1*
X37174D2*
X37413D1*
X39641D2*
X39980D1*
X41161D2*
X41351D1*
X41886D2*
X42133D1*
X42388D2*
X42512D1*
X35801Y26938D2*
X35981D1*
X37159D2*
X37392D1*
X39672D2*
X40025D1*
X41167D2*
X41351D1*
X41870D2*
X42107D1*
X42436D2*
X42522D1*
X35801Y26908D2*
X35982D1*
X37145D2*
X37373D1*
X39703D2*
X40074D1*
X41169D2*
X41351D1*
X41854D2*
X42085D1*
X42480D2*
X42536D1*
X35801Y26878D2*
X35983D1*
X37134D2*
X37356D1*
X39737D2*
X40129D1*
X41171D2*
X41351D1*
X41839D2*
X42066D1*
X42521D2*
X42551D1*
X35801Y26848D2*
X35986D1*
X37126D2*
X37340D1*
X39775D2*
X40190D1*
X41171D2*
X41351D1*
X41825D2*
X42050D1*
X35801Y26818D2*
X35994D1*
X37119D2*
X37325D1*
X39816D2*
X40259D1*
X41171D2*
X41351D1*
X41813D2*
X42035D1*
X35802Y26788D2*
X36001D1*
X37110D2*
X37313D1*
X39860D2*
X40332D1*
X41171D2*
X41351D1*
X41802D2*
X42023D1*
X35803Y26758D2*
X36007D1*
X37102D2*
X37302D1*
X39905D2*
X40399D1*
X41171D2*
X41351D1*
X41790D2*
X42012D1*
X35806Y26728D2*
X36009D1*
X37096D2*
X37292D1*
X39953D2*
X40450D1*
X41171D2*
X41351D1*
X41776D2*
X42001D1*
X35814Y26698D2*
X36011D1*
X37094D2*
X37283D1*
X40001D2*
X40485D1*
X41171D2*
X41351D1*
X41757D2*
X41987D1*
X35821Y26668D2*
X36011D1*
X37092D2*
X37277D1*
X40048D2*
X40511D1*
X41171D2*
X41351D1*
X41730D2*
X41973D1*
X35827Y26638D2*
X36012D1*
X37092D2*
X37274D1*
X40091D2*
X40463D1*
X41171D2*
X41351D1*
X41697D2*
X41957D1*
X35829Y26608D2*
X36016D1*
X37092D2*
X37272D1*
X40057D2*
X40417D1*
X41171D2*
X41351D1*
X41660D2*
X41939D1*
X35832Y26578D2*
X36024D1*
X37091D2*
X37272D1*
X40019D2*
X40374D1*
X41171D2*
X41351D1*
X41625D2*
X41916D1*
X35836Y26548D2*
X36031D1*
X37091D2*
X37272D1*
X39982D2*
X40333D1*
X41171D2*
X41352D1*
X41587D2*
X41889D1*
X35843Y26518D2*
X36037D1*
X37091D2*
X37271D1*
X39946D2*
X40292D1*
X41170D2*
X41354D1*
X41541D2*
X41861D1*
X35851Y26488D2*
X36040D1*
X37091D2*
X37271D1*
X39912D2*
X40252D1*
X41166D2*
X41359D1*
X41482D2*
X41835D1*
X35856Y26458D2*
X36046D1*
X37091D2*
X37271D1*
X39877D2*
X40215D1*
X41159D2*
X41383D1*
X41406D2*
X41808D1*
X35859Y26428D2*
X36053D1*
X37091D2*
X37272D1*
X39839D2*
X40179D1*
X41152D2*
X41779D1*
X35861Y26398D2*
X36061D1*
X37091D2*
X37273D1*
X39800D2*
X40140D1*
X41146D2*
X41745D1*
X35862Y26368D2*
X36068D1*
X37092D2*
X37277D1*
X39761D2*
X40101D1*
X41143D2*
X41708D1*
X35866Y26338D2*
X36074D1*
X37093D2*
X37285D1*
X39721D2*
X40061D1*
X41141D2*
X41663D1*
X35874Y26308D2*
X36083D1*
X37096D2*
X37296D1*
X39681D2*
X40021D1*
X41137D2*
X41605D1*
X35881Y26278D2*
X36091D1*
X37104D2*
X37309D1*
X39642D2*
X39982D1*
X41129D2*
X41532D1*
X35888Y26248D2*
X36098D1*
X37111D2*
X37320D1*
X39601D2*
X39945D1*
X41120D2*
X41451D1*
X35894Y26218D2*
X36104D1*
X37118D2*
X37331D1*
X39562D2*
X39909D1*
X41111D2*
X41381D1*
X35903Y26188D2*
X36113D1*
X37124D2*
X37342D1*
X39525D2*
X39870D1*
X41101D2*
X41327D1*
X35911Y26158D2*
X36122D1*
X37134D2*
X37356D1*
X39489D2*
X39831D1*
X41091D2*
X41307D1*
X35918Y26128D2*
X36131D1*
X37146D2*
X37373D1*
X39449D2*
X39791D1*
X41082D2*
X41293D1*
X35924Y26098D2*
X36142D1*
X37160D2*
X37393D1*
X39407D2*
X39751D1*
X41071D2*
X41282D1*
X35933Y26068D2*
X36152D1*
X37174D2*
X37413D1*
X39362D2*
X39712D1*
X41061D2*
X41271D1*
X35942Y26038D2*
X36161D1*
X37189D2*
X37438D1*
X39312D2*
X39675D1*
X41052D2*
X41262D1*
X35952Y26008D2*
X36171D1*
X37205D2*
X37469D1*
X39257D2*
X39639D1*
X41040D2*
X41250D1*
X35963Y25978D2*
X36182D1*
X37224D2*
X37505D1*
X39196D2*
X39599D1*
X41027D2*
X41237D1*
X35976Y25948D2*
X36191D1*
X37247D2*
X37544D1*
X39134D2*
X39557D1*
X41013D2*
X41224D1*
X35990Y25918D2*
X36203D1*
X37274D2*
X37588D1*
X39071D2*
X39513D1*
X40999D2*
X41213D1*
X36004Y25888D2*
X36216D1*
X37302D2*
X37639D1*
X39005D2*
X39468D1*
X40984D2*
X41202D1*
X36018Y25858D2*
X36230D1*
X37332D2*
X37696D1*
X38932D2*
X39420D1*
X40968D2*
X41190D1*
X36030Y25828D2*
X36245D1*
X37362D2*
X37761D1*
X38846D2*
X39370D1*
X40950D2*
X41177D1*
X36041Y25798D2*
X36263D1*
X37393D2*
X37843D1*
X38743D2*
X39321D1*
X40931D2*
X41163D1*
X36052Y25768D2*
X36282D1*
X37427D2*
X37947D1*
X38623D2*
X39269D1*
X40912D2*
X41149D1*
X36065Y25738D2*
X36302D1*
X37465D2*
X38070D1*
X38490D2*
X39211D1*
X40895D2*
X41134D1*
X36080Y25708D2*
X36321D1*
X37509D2*
X39145D1*
X40878D2*
X41118D1*
X36095Y25678D2*
X36342D1*
X37560D2*
X39069D1*
X40859D2*
X41100D1*
X36114Y25648D2*
X36361D1*
X37622D2*
X38985D1*
X40837D2*
X41081D1*
X36136Y25618D2*
X36382D1*
X37696D2*
X38893D1*
X40814D2*
X41061D1*
X36158Y25588D2*
X36405D1*
X37784D2*
X38792D1*
X40793D2*
X41041D1*
X36175Y25558D2*
X36429D1*
X37885D2*
X38680D1*
X40771D2*
X41021D1*
X36190Y25528D2*
X36450D1*
X37991D2*
X38561D1*
X40746D2*
X41001D1*
X36206Y25498D2*
X36472D1*
X40719D2*
X40980D1*
X36227Y25468D2*
X36496D1*
X40691D2*
X40956D1*
X36249Y25438D2*
X36524D1*
X40661D2*
X40930D1*
X36270Y25408D2*
X36552D1*
X40631D2*
X40906D1*
X36292Y25378D2*
X36582D1*
X40600D2*
X40883D1*
X36316Y25348D2*
X36612D1*
X40566D2*
X40861D1*
X36344Y25318D2*
X36642D1*
X40529D2*
X40836D1*
X36372Y25288D2*
X36673D1*
X40490D2*
X40809D1*
X36402Y25258D2*
X36706D1*
X40451D2*
X40779D1*
X36432Y25228D2*
X36744D1*
X40410D2*
X40746D1*
X36461Y25198D2*
X36781D1*
X40367D2*
X40709D1*
X36491Y25168D2*
X36818D1*
X40323D2*
X40671D1*
X36522Y25138D2*
X36855D1*
X40279D2*
X40636D1*
X36553Y25108D2*
X36898D1*
X40234D2*
X40602D1*
X36586Y25078D2*
X36944D1*
X40188D2*
X40567D1*
X36624Y25048D2*
X36993D1*
X40138D2*
X40529D1*
X36662Y25018D2*
X37043D1*
X40081D2*
X40490D1*
X36702Y24988D2*
X37098D1*
X40017D2*
X40450D1*
X36743Y24958D2*
X37159D1*
X39949D2*
X40405D1*
X36787Y24928D2*
X37225D1*
X39881D2*
X40355D1*
X36833Y24898D2*
X37293D1*
X39810D2*
X40303D1*
X36883Y24868D2*
X37364D1*
X39735D2*
X40252D1*
X36932Y24838D2*
X37443D1*
X39652D2*
X40201D1*
X36981Y24808D2*
X37533D1*
X39557D2*
X40146D1*
X37029Y24778D2*
X37634D1*
X39448D2*
X40088D1*
X37069Y24748D2*
X37751D1*
X39321D2*
X40025D1*
X37100Y24718D2*
X37898D1*
X39164D2*
X39957D1*
X37111Y24688D2*
X38077D1*
X38969D2*
X39884D1*
X37117Y24658D2*
X38284D1*
X38742D2*
X39803D1*
X37120Y24628D2*
X37301D1*
X37357D2*
X39712D1*
X37121Y24598D2*
X37301D1*
X37469D2*
X39612D1*
X37120Y24568D2*
X37301D1*
X37583D2*
X39504D1*
X37116Y24538D2*
X37301D1*
X37705D2*
X39382D1*
X37109Y24508D2*
X37301D1*
X37844D2*
X39242D1*
X37102Y24478D2*
X37301D1*
X38002D2*
X39085D1*
X37096Y24448D2*
X37301D1*
X38171D2*
X38921D1*
X37094Y24418D2*
X37300D1*
X38711D2*
X38921D1*
X37092Y24388D2*
X37296D1*
X38712D2*
X38921D1*
X37092Y24358D2*
X37289D1*
X38713D2*
X38921D1*
X37092Y24328D2*
X37282D1*
X38716D2*
X38921D1*
X37091Y24298D2*
X37276D1*
X38724D2*
X38922D1*
X37091Y24268D2*
X37274D1*
X38731D2*
X38923D1*
X37091Y24238D2*
X37272D1*
X38737D2*
X38926D1*
X37091Y24208D2*
X37272D1*
X38739D2*
X38934D1*
X37091Y24178D2*
X37272D1*
X38741D2*
X38941D1*
X37090Y24148D2*
X37271D1*
X38741D2*
X38947D1*
X37086Y24118D2*
X37271D1*
X38741D2*
X38949D1*
X37079Y24088D2*
X37271D1*
X38741D2*
X38951D1*
X37069Y24058D2*
X37272D1*
X38741D2*
X38951D1*
X37055Y24028D2*
X37274D1*
X38742D2*
X38951D1*
X37032Y23998D2*
X37279D1*
X38743D2*
X38951D1*
X36999Y23968D2*
X37301D1*
X38746D2*
X38952D1*
X36961Y23938D2*
X37329D1*
X38754D2*
X38953D1*
X36922Y23908D2*
X37360D1*
X38761D2*
X38964D1*
X36886Y23878D2*
X37391D1*
X38767D2*
X39011D1*
X36849Y23848D2*
X37421D1*
X38769D2*
X39084D1*
X36810Y23818D2*
X37451D1*
X38769D2*
X39179D1*
X36772Y23788D2*
X37481D1*
X38765D2*
X39284D1*
X36735Y23758D2*
X37511D1*
X38753D2*
X39389D1*
X36699Y23728D2*
X37542D1*
X38734D2*
X39487D1*
X36660Y23698D2*
X36997D1*
X37057D2*
X37573D1*
X38713D2*
X39567D1*
X36622Y23668D2*
X36958D1*
X37049D2*
X37241D1*
X37301D2*
X37606D1*
X38692D2*
X39629D1*
X36586Y23638D2*
X36917D1*
X37042D2*
X37241D1*
X37331D2*
X37643D1*
X38671D2*
X39659D1*
X36551Y23608D2*
X36874D1*
X37036D2*
X37241D1*
X37361D2*
X37680D1*
X38646D2*
X39655D1*
X36571Y23578D2*
X36834D1*
X37034D2*
X37240D1*
X37392D2*
X37710D1*
X38620D2*
X39046D1*
X39221D2*
X39650D1*
X36592Y23548D2*
X36797D1*
X37032D2*
X37236D1*
X37423D2*
X37734D1*
X38596D2*
X39054D1*
X39341D2*
X39645D1*
X36617Y23518D2*
X36764D1*
X37032D2*
X37229D1*
X37456D2*
X37740D1*
X38575D2*
X39062D1*
X39461D2*
X39643D1*
X36643Y23488D2*
X36732D1*
X37032D2*
X37222D1*
X37494D2*
X37733D1*
X38559D2*
X38796D1*
X38856D2*
X39071D1*
X39581D2*
X39641D1*
X36671Y23458D2*
X36701D1*
X37031D2*
X37216D1*
X37531D2*
X37713D1*
X38548D2*
X38783D1*
X38874D2*
X39082D1*
X37031Y23428D2*
X37214D1*
X37567D2*
X37688D1*
X38555D2*
X38763D1*
X38888D2*
X39092D1*
X37031Y23398D2*
X37212D1*
X37599D2*
X37660D1*
X38583D2*
X38738D1*
X38900D2*
X39101D1*
X37031Y23368D2*
X37212D1*
X37631D2*
D3*
X38617D2*
X38710D1*
X38911D2*
X39111D1*
X37031Y23338D2*
X37211D1*
X38651D2*
X38681D1*
X38921D2*
X39120D1*
X38931Y23308D2*
X39126D1*
X38940Y23278D2*
X39118D1*
X38947Y23248D2*
X39084D1*
X38951Y23218D2*
X39041D1*
X37061Y31168D2*
X36962Y31138D1*
X36873Y31108D1*
X36796Y31078D1*
X36730Y31048D1*
X36674Y31018D1*
X36628Y30988D1*
X36589Y30958D1*
X36554Y30928D1*
X36523Y30898D1*
X36492Y30868D1*
X36462Y30838D1*
X36431Y30808D1*
X36401Y30778D1*
X36372Y30748D1*
X36343Y30718D1*
X36316Y30688D1*
X36294Y30658D1*
X36272Y30628D1*
X36252Y30598D1*
X36233Y30568D1*
X36216Y30538D1*
X36200Y30508D1*
X36184Y30478D1*
X36168Y30448D1*
X36150Y30418D1*
X36132Y30388D1*
X36116Y30358D1*
X36104Y30328D1*
X36091Y30298D1*
X36078Y30268D1*
X36063Y30238D1*
X36049Y30208D1*
X36034Y30178D1*
X36019Y30148D1*
X36005Y30118D1*
X35993Y30088D1*
X35982Y30058D1*
X35971Y30028D1*
X35960Y29998D1*
X35945Y29968D1*
X35921Y29938D1*
X35891Y29908D1*
X37421Y31168D2*
X37525Y31138D1*
X37623Y31108D1*
X37712Y31078D1*
X37792Y31048D1*
X37861Y31018D1*
X37922Y30988D1*
X37973Y30958D1*
X38018Y30928D1*
X38060Y30898D1*
X38100Y30868D1*
X38136Y30838D1*
X38170Y30808D1*
X38204Y30778D1*
X38238Y30748D1*
X38269Y30718D1*
X38296Y30688D1*
X38323Y30658D1*
X38348Y30628D1*
X38369Y30598D1*
X38387Y30568D1*
X38403Y30538D1*
X38418Y30508D1*
X38430Y30478D1*
X38440Y30448D1*
X38451Y30418D1*
X38461Y30388D1*
X38471Y30358D1*
X38481Y30328D1*
X38490Y30298D1*
X38496Y30268D1*
X38499Y30238D1*
X38502Y30208D1*
X38507Y30178D1*
X38517Y30148D1*
X38531Y30118D1*
X38501Y30088D1*
X38514Y30058D1*
X38513Y30028D1*
X38509Y29998D1*
X38505Y29968D1*
X38503Y29938D1*
X38502Y29908D1*
Y29878D1*
X38500Y29848D1*
X38496Y29818D1*
X38489Y29788D1*
X38480Y29758D1*
X38471Y29728D1*
X38461Y29698D1*
X38451Y29668D1*
X38442Y29638D1*
X38431Y29608D1*
X38421Y29578D1*
X38412Y29548D1*
X38401Y29518D1*
X38391Y29488D1*
X38382Y29458D1*
X38370Y29428D1*
X38357Y29398D1*
X38343Y29368D1*
X38329Y29338D1*
X38314Y29308D1*
X38298Y29278D1*
X38280Y29248D1*
X38261Y29218D1*
X38242Y29188D1*
X38225Y29158D1*
X38208Y29128D1*
X38190Y29098D1*
X38171Y29068D1*
X38151Y29038D1*
X38130Y29008D1*
X38107Y28978D1*
X38084Y28948D1*
X38064Y28918D1*
X38046Y28888D1*
X38029Y28858D1*
X38009Y28828D1*
X37986Y28798D1*
X37960Y28768D1*
X37936Y28738D1*
X37917Y28708D1*
X37901Y28678D1*
X37991Y28648D1*
X37271Y30988D2*
X37139Y30958D1*
X37026Y30928D1*
X36936Y30898D1*
X36863Y30868D1*
X36802Y30838D1*
X36751Y30808D1*
X36710Y30778D1*
X36675Y30748D1*
X36641Y30718D1*
X36735Y30688D1*
X36812Y30658D1*
X36873Y30628D1*
X36918Y30598D1*
X36951Y30568D1*
X36977Y30538D1*
X37000Y30508D1*
X37020Y30478D1*
X37037Y30448D1*
X37053Y30418D1*
X37068Y30388D1*
X37080Y30358D1*
X37091Y30328D1*
X37101Y30298D1*
X37110Y30268D1*
X37116Y30238D1*
X37120Y30208D1*
X37126Y30178D1*
X37137Y30148D1*
X37151Y30118D1*
X37211Y30988D2*
X37348Y30958D1*
X37469Y30928D1*
X37570Y30898D1*
X37653Y30868D1*
X37723Y30838D1*
X37783Y30808D1*
X37838Y30778D1*
X37890Y30748D1*
X37940Y30718D1*
X37985Y30688D1*
X38023Y30658D1*
X38054Y30628D1*
X38083Y30598D1*
X38112Y30568D1*
X38141Y30538D1*
X38167Y30508D1*
X38189Y30478D1*
X38210Y30448D1*
X38231Y30418D1*
X38250Y30388D1*
X38266Y30358D1*
X38279Y30328D1*
X38290Y30298D1*
X38301Y30268D1*
X38310Y30238D1*
X38316Y30208D1*
X38319Y30178D1*
X38321Y30148D1*
Y30118D1*
Y30088D1*
Y30058D1*
Y30028D1*
Y29998D1*
Y29968D1*
X38320Y29938D1*
X38316Y29908D1*
X38309Y29878D1*
X38301Y29848D1*
X38295Y29818D1*
X38289Y29788D1*
X38280Y29758D1*
X38271Y29728D1*
X38261Y29698D1*
X38250Y29668D1*
X38237Y29638D1*
X38223Y29608D1*
X38209Y29578D1*
X38195Y29548D1*
X38183Y29518D1*
X38172Y29488D1*
X38160Y29458D1*
X38146Y29428D1*
X38129Y29398D1*
X38110Y29368D1*
X38092Y29338D1*
X38075Y29308D1*
X38059Y29278D1*
X38044Y29248D1*
X38028Y29218D1*
X38010Y29188D1*
X37991Y29158D1*
X37971Y29128D1*
X37950Y29098D1*
X37926Y29068D1*
X37900Y29038D1*
X37876Y29008D1*
X37853Y28978D1*
X37831Y28948D1*
X37808Y28918D1*
X37784Y28888D1*
X37763Y28858D1*
X37741Y28828D1*
X37716Y28798D1*
X37689Y28768D1*
X37661Y28738D1*
X37631Y28708D1*
X37602Y28678D1*
X37576Y28648D1*
X37552Y28618D1*
X37526Y28588D1*
X37494Y28558D1*
X37458Y28528D1*
X37419Y28498D1*
X37376Y28468D1*
X37329Y28438D1*
X37281Y28408D1*
X37231Y28378D1*
X37181Y28348D1*
X37133Y28318D1*
X37087Y28288D1*
X37045Y28258D1*
X37007Y28228D1*
X36971Y28198D1*
X36461Y30478D2*
X36432Y30448D1*
X36403Y30418D1*
X36376Y30388D1*
X36354Y30358D1*
X36332Y30328D1*
X36312Y30298D1*
X36293Y30268D1*
X36277Y30238D1*
X36263Y30208D1*
X36252Y30178D1*
X36241Y30148D1*
X36228Y30118D1*
X36214Y30088D1*
X36204Y30058D1*
X36197Y30028D1*
X36194Y29998D1*
Y29968D1*
X36198Y29938D1*
X36208Y29908D1*
X36221Y29878D1*
X36701Y30478D2*
X36751Y30448D1*
X36791Y30418D1*
X36822Y30388D1*
X36848Y30358D1*
X36869Y30328D1*
X36886Y30298D1*
X36899Y30268D1*
X36910Y30238D1*
X36921Y30208D1*
X36930Y30178D1*
X36936Y30148D1*
X36939Y30118D1*
Y30088D1*
X36936Y30058D1*
X36929Y30028D1*
X36920Y29998D1*
X36910Y29968D1*
X36896Y29938D1*
X36879Y29908D1*
X36860Y29878D1*
X36840Y29848D1*
X36815Y29818D1*
X36781Y29788D1*
X36731Y29758D1*
X36651Y29728D1*
X36536Y29698D1*
X36401Y29668D1*
X37421Y30238D2*
X37332Y30208D1*
X37251Y30178D1*
X37171Y30148D1*
X37091Y30118D1*
X37631Y30238D2*
X37700Y30208D1*
X37759Y30178D1*
X37807Y30148D1*
X37844Y30118D1*
X37875Y30088D1*
X37902Y30058D1*
X37927Y30028D1*
X37948Y29998D1*
X37965Y29968D1*
X37978Y29938D1*
X37986Y29908D1*
X37994Y29878D1*
X38003Y29848D1*
X38011Y29818D1*
X38016Y29788D1*
X38019Y29758D1*
X38021Y29728D1*
Y29698D1*
Y29668D1*
Y29638D1*
X38020Y29608D1*
X38016Y29578D1*
X38009Y29548D1*
X38001Y29518D1*
X37995Y29488D1*
X37989Y29458D1*
X37980Y29428D1*
X37971Y29398D1*
X37961Y29368D1*
X37950Y29338D1*
X37937Y29308D1*
X37923Y29278D1*
X37907Y29248D1*
X37889Y29218D1*
X37866Y29188D1*
X37839Y29158D1*
X37810Y29128D1*
X37781Y29098D1*
X37750Y29068D1*
X37715Y29038D1*
X37673Y29008D1*
X37622Y28978D1*
X37562Y28948D1*
X37494Y28918D1*
X37421Y28888D1*
X36311Y30058D2*
X36287Y30028D1*
X36270Y29998D1*
X36258Y29968D1*
X36249Y29938D1*
X36236Y29908D1*
X36221Y29878D1*
X36491Y30058D2*
X36506Y30028D1*
X36520Y29998D1*
X36535Y29968D1*
X36551Y29938D1*
X36536Y29908D1*
X36522Y29878D1*
X36507Y29848D1*
X36468Y29818D1*
X36410Y29788D1*
X36341Y29758D1*
X36426Y29728D1*
X36539Y29698D1*
X36671Y29668D1*
X34841Y30028D2*
X34730Y29998D1*
X34635Y29968D1*
X34556Y29938D1*
X34487Y29908D1*
X34425Y29878D1*
X34368Y29848D1*
X34319Y29818D1*
X34275Y29788D1*
X34232Y29758D1*
X34188Y29728D1*
X34145Y29698D1*
X34104Y29668D1*
X34068Y29638D1*
X34039Y29608D1*
X34015Y29578D1*
X33992Y29548D1*
X33968Y29518D1*
X33944Y29488D1*
X33923Y29458D1*
X33901Y29428D1*
X33878Y29398D1*
X33854Y29368D1*
X33834Y29338D1*
X33816Y29308D1*
X33800Y29278D1*
X33785Y29248D1*
X33773Y29218D1*
X33762Y29188D1*
X33752Y29158D1*
X33741Y29128D1*
X33732Y29098D1*
X33721Y29068D1*
X33712Y29038D1*
X33707Y29008D1*
X33704Y28978D1*
X33702Y28948D1*
Y28918D1*
Y28888D1*
X33701Y28858D1*
Y28828D1*
Y28798D1*
Y28768D1*
Y28738D1*
Y28708D1*
Y28678D1*
Y28648D1*
X33702Y28618D1*
X33703Y28588D1*
X33706Y28558D1*
X33714Y28528D1*
X33721Y28498D1*
X33728Y28468D1*
X33734Y28438D1*
X33743Y28408D1*
X33752Y28378D1*
X33761Y28348D1*
X33772Y28318D1*
X33782Y28288D1*
X33791Y28258D1*
X33803Y28228D1*
X33816Y28198D1*
X33830Y28168D1*
X33844Y28138D1*
X33859Y28108D1*
X33874Y28078D1*
X33889Y28048D1*
X33905Y28018D1*
X33923Y27988D1*
X33942Y27958D1*
X33961Y27928D1*
X33978Y27898D1*
X33994Y27868D1*
X34013Y27838D1*
X34032Y27808D1*
X34052Y27778D1*
X34072Y27748D1*
X34097Y27718D1*
X34124Y27688D1*
X34152Y27658D1*
X34182Y27628D1*
X34212Y27598D1*
X34241Y27568D1*
X34271Y27538D1*
X34301Y27508D1*
X34331Y27478D1*
X35501Y30028D2*
X35627Y29998D1*
X35756Y29968D1*
X35895Y29938D1*
X36041Y29908D1*
X37421Y30028D2*
X37363Y29998D1*
X37307Y29968D1*
X37255Y29938D1*
X37209Y29908D1*
X37170Y29878D1*
X37141Y29848D1*
X37119Y29818D1*
X37101Y29788D1*
X37085Y29758D1*
X37069Y29728D1*
X37055Y29698D1*
X37044Y29668D1*
X37036Y29638D1*
X37029Y29608D1*
X37020Y29578D1*
X37012Y29548D1*
X37007Y29518D1*
X37005Y29488D1*
X37007Y29458D1*
X37014Y29428D1*
X37023Y29398D1*
X37032Y29368D1*
X37043Y29338D1*
X37057Y29308D1*
X37074Y29278D1*
X37094Y29248D1*
X37118Y29218D1*
X37146Y29188D1*
X37216Y29158D1*
X37322Y29128D1*
X37451Y29098D1*
X37601Y30028D2*
X37654Y29998D1*
X37698Y29968D1*
X37730Y29938D1*
X37753Y29908D1*
X37772Y29878D1*
X37787Y29848D1*
X37799Y29818D1*
X37805Y29788D1*
X37809Y29758D1*
X37810Y29728D1*
X37811Y29698D1*
Y29668D1*
Y29638D1*
Y29608D1*
X37810Y29578D1*
X37806Y29548D1*
X37799Y29518D1*
X37790Y29488D1*
X37781Y29458D1*
X37770Y29428D1*
X37756Y29398D1*
X37738Y29368D1*
X37715Y29338D1*
X37689Y29308D1*
X37660Y29278D1*
X37630Y29248D1*
X37594Y29218D1*
X37544Y29188D1*
X37462Y29158D1*
X37335Y29128D1*
X37181Y29098D1*
X35081Y29848D2*
X34943Y29818D1*
X34819Y29788D1*
X34714Y29758D1*
X34627Y29728D1*
X34553Y29698D1*
X34487Y29668D1*
X34429Y29638D1*
X34380Y29608D1*
X34340Y29578D1*
X34304Y29548D1*
X34268Y29518D1*
X34231Y29488D1*
X34197Y29458D1*
X34169Y29428D1*
X34143Y29398D1*
X34117Y29368D1*
X34090Y29338D1*
X34062Y29308D1*
X34037Y29278D1*
X34019Y29248D1*
X34005Y29218D1*
X33991Y29188D1*
X33978Y29158D1*
X33964Y29128D1*
X33953Y29098D1*
X33942Y29068D1*
X33932Y29038D1*
X33922Y29008D1*
X33915Y28978D1*
X33909Y28948D1*
X33900Y28918D1*
X33892Y28888D1*
X33886Y28858D1*
X33884Y28828D1*
X33882Y28798D1*
Y28768D1*
Y28738D1*
X33883Y28708D1*
X33886Y28678D1*
X33894Y28648D1*
X33901Y28618D1*
X33907Y28588D1*
X33910Y28558D1*
X33916Y28528D1*
X33923Y28498D1*
X33932Y28468D1*
X33942Y28438D1*
X33953Y28408D1*
X33965Y28378D1*
X33978Y28348D1*
X33990Y28318D1*
X34001Y28288D1*
X34012Y28258D1*
X34025Y28228D1*
X34040Y28198D1*
X34054Y28168D1*
X34069Y28138D1*
X34085Y28108D1*
X34103Y28078D1*
X34122Y28048D1*
X34141Y28018D1*
X34161Y27988D1*
X34181Y27958D1*
X34991Y29848D2*
X35021Y29818D1*
X35051Y29788D1*
X35081Y29758D1*
X35110Y29728D1*
X35136Y29698D1*
X35159Y29668D1*
X35180Y29638D1*
X35201Y29608D1*
X35220Y29578D1*
X35236Y29548D1*
X35249Y29518D1*
X35260Y29488D1*
X35272Y29458D1*
X35285Y29428D1*
X35298Y29398D1*
X35310Y29368D1*
X35321Y29338D1*
X35331Y29308D1*
X35340Y29278D1*
X35346Y29248D1*
X35349Y29218D1*
X35351Y29188D1*
X35352Y29158D1*
X35356Y29128D1*
X35364Y29098D1*
X35371Y29068D1*
X35376Y29038D1*
X35378Y29008D1*
X35376Y28978D1*
X35369Y28948D1*
X35361Y28918D1*
X35356Y28888D1*
X35351Y28858D1*
X35343Y28828D1*
X35312Y28798D1*
X35241Y28768D1*
X35151Y28738D1*
X35055Y28708D1*
X34965Y28678D1*
X34888Y28648D1*
X34823Y28618D1*
X34767Y28588D1*
X34718Y28558D1*
X34675Y28528D1*
X34637Y28498D1*
X34599Y28468D1*
X34560Y28438D1*
X34522Y28408D1*
X34486Y28378D1*
X34454Y28348D1*
X34423Y28318D1*
X34397Y28288D1*
X34374Y28258D1*
X34352Y28228D1*
X34332Y28198D1*
X34313Y28168D1*
X34296Y28138D1*
X34280Y28108D1*
X34264Y28078D1*
X34247Y28048D1*
X34223Y28018D1*
X34190Y27988D1*
X34151Y27958D1*
X35261Y29848D2*
X35290Y29818D1*
X35316Y29788D1*
X35339Y29758D1*
X35360Y29728D1*
X35381Y29698D1*
X35400Y29668D1*
X35417Y29638D1*
X35433Y29608D1*
X35449Y29578D1*
X35464Y29548D1*
X35478Y29518D1*
X35489Y29488D1*
X35497Y29458D1*
X35504Y29428D1*
X35513Y29398D1*
X35521Y29368D1*
X35528Y29338D1*
X35534Y29308D1*
X35543Y29278D1*
X35551Y29248D1*
X35556Y29218D1*
X35559Y29188D1*
X35561Y29158D1*
Y29128D1*
Y29098D1*
Y29068D1*
Y29038D1*
Y29008D1*
Y28978D1*
Y28948D1*
Y28918D1*
Y28888D1*
Y28858D1*
Y28828D1*
X35741Y28798D1*
X35141Y29848D2*
X35332Y29818D1*
X35500Y29788D1*
X35638Y29758D1*
X35750Y29728D1*
X35843Y29698D1*
X35918Y29668D1*
X35982Y29638D1*
X36041Y29608D1*
X36071Y29698D2*
Y29668D1*
Y29638D1*
Y29608D1*
X36101Y29698D2*
X36131Y29668D1*
X36162Y29638D1*
X36193Y29608D1*
X36228Y29578D1*
X36274Y29548D1*
X36337Y29518D1*
X36423Y29488D1*
X36521Y29458D1*
X37151Y29578D2*
X37127Y29548D1*
X37110Y29518D1*
X37100Y29488D1*
X37095Y29458D1*
X37094Y29428D1*
X37096Y29398D1*
X37111Y29368D1*
X37144Y29338D1*
X37181Y29308D1*
X37301Y29578D2*
X37327Y29548D1*
X37348Y29518D1*
X37364Y29488D1*
X37376Y29458D1*
X37372Y29428D1*
X37362Y29398D1*
X37345Y29368D1*
X37310Y29338D1*
X37271Y29308D1*
X36821Y29548D2*
X36739Y29518D1*
X36637Y29488D1*
X36521Y29458D1*
X36821Y29548D2*
Y29518D1*
Y29488D1*
Y29458D1*
Y29428D1*
X36822Y29398D1*
X36823Y29368D1*
X36826Y29338D1*
X36834Y29308D1*
X36842Y29278D1*
X36852Y29248D1*
X36863Y29218D1*
X36877Y29188D1*
X36895Y29158D1*
X36916Y29128D1*
X36940Y29098D1*
X36965Y29068D1*
X36995Y29038D1*
X37032Y29008D1*
X37073Y28978D1*
X37122Y28948D1*
X37179Y28918D1*
X37241Y28888D1*
X36551Y29158D2*
X36526Y29128D1*
X36503Y29098D1*
X36481Y29068D1*
X36456Y29038D1*
X36428Y29008D1*
X36393Y28978D1*
X36343Y28948D1*
X36265Y28918D1*
X36134Y28888D1*
X35923Y28858D1*
X35629Y28828D1*
X35291Y28798D1*
X36611Y29128D2*
X36649Y29098D1*
X36679Y29068D1*
X36689Y29038D1*
X36681Y29008D1*
X36667Y28978D1*
X36650Y28948D1*
X36630Y28918D1*
X36606Y28888D1*
X36579Y28858D1*
X36550Y28828D1*
X36520Y28798D1*
X36483Y28768D1*
X36434Y28738D1*
X36357Y28708D1*
X36236Y28678D1*
X36065Y28648D1*
X35872Y28618D1*
X35706Y28588D1*
X35600Y28558D1*
X35531Y28528D1*
X35511Y28498D1*
X35495Y28468D1*
X35484Y28438D1*
X35476Y28408D1*
X35469Y28378D1*
X35459Y28348D1*
X35447Y28318D1*
X35434Y28288D1*
X35423Y28258D1*
X35412Y28228D1*
X35403Y28198D1*
X35395Y28168D1*
X35402Y28138D1*
X35411Y28108D1*
X38771Y28768D2*
X38507Y28738D1*
X38245Y28708D1*
X37973Y28678D1*
X37691Y28648D1*
X39401Y28768D2*
X39609Y28738D1*
X39791Y28708D1*
X39940Y28678D1*
X40059Y28648D1*
X40152Y28618D1*
X40229Y28588D1*
X40296Y28558D1*
X40359Y28528D1*
X40420Y28498D1*
X40476Y28468D1*
X40528Y28438D1*
X40576Y28408D1*
X40623Y28378D1*
X40667Y28348D1*
X40709Y28318D1*
X40745Y28288D1*
X40779Y28258D1*
X40813Y28228D1*
X40853Y28198D1*
X40904Y28168D1*
X40961Y28138D1*
X39191Y28588D2*
X38886Y28558D1*
X38612Y28528D1*
X38379Y28498D1*
X38183Y28468D1*
X38016Y28438D1*
X37870Y28408D1*
X37739Y28378D1*
X37613Y28348D1*
X37488Y28318D1*
X37365Y28288D1*
X37243Y28258D1*
X37122Y28228D1*
X37001Y28198D1*
X38951Y28588D2*
X39249Y28558D1*
X39506Y28528D1*
X39707Y28498D1*
X39859Y28468D1*
X39978Y28438D1*
X40078Y28408D1*
X40164Y28378D1*
X40239Y28348D1*
X40305Y28318D1*
X40364Y28288D1*
X40419Y28258D1*
X40469Y28228D1*
X40516Y28198D1*
X40558Y28168D1*
X40595Y28138D1*
X40629Y28108D1*
X40660Y28078D1*
X40691Y28048D1*
X40721Y28018D1*
X40751Y27988D1*
X40780Y27958D1*
X40806Y27928D1*
X40828Y27898D1*
X40847Y27868D1*
X40864Y27838D1*
X40882Y27808D1*
X40902Y27778D1*
X40920Y27748D1*
X40937Y27718D1*
X40953Y27688D1*
X40969Y27658D1*
X40984Y27628D1*
X40999Y27598D1*
X41014Y27568D1*
X41028Y27538D1*
X41040Y27508D1*
X41051Y27478D1*
X41061Y27448D1*
X41070Y27418D1*
X41077Y27388D1*
X41084Y27358D1*
X41093Y27328D1*
X41101Y27298D1*
X41108Y27268D1*
X41114Y27238D1*
X41123Y27208D1*
X41131Y27178D1*
X41136Y27148D1*
X41139Y27118D1*
X41141Y27088D1*
X41142Y27058D1*
X41146Y27028D1*
X41154Y26998D1*
X41161Y26968D1*
X41167Y26938D1*
X41169Y26908D1*
X41171Y26878D1*
Y26848D1*
Y26818D1*
Y26788D1*
Y26758D1*
Y26728D1*
Y26698D1*
Y26668D1*
Y26638D1*
Y26608D1*
Y26578D1*
Y26548D1*
X41170Y26518D1*
X41166Y26488D1*
X41159Y26458D1*
X41152Y26428D1*
X41146Y26398D1*
X41143Y26368D1*
X41141Y26338D1*
X41137Y26308D1*
X41129Y26278D1*
X41120Y26248D1*
X41111Y26218D1*
X41101Y26188D1*
X41091Y26158D1*
X41082Y26128D1*
X41071Y26098D1*
X41061Y26068D1*
X41052Y26038D1*
X41040Y26008D1*
X41027Y25978D1*
X41013Y25948D1*
X40999Y25918D1*
X40984Y25888D1*
X40968Y25858D1*
X40950Y25828D1*
X40931Y25798D1*
X40912Y25768D1*
X40895Y25738D1*
X40878Y25708D1*
X40859Y25678D1*
X40837Y25648D1*
X40814Y25618D1*
X40793Y25588D1*
X40771Y25558D1*
X40746Y25528D1*
X40719Y25498D1*
X40691Y25468D1*
X40661Y25438D1*
X40631Y25408D1*
X40600Y25378D1*
X40566Y25348D1*
X40529Y25318D1*
X40490Y25288D1*
X40451Y25258D1*
X40410Y25228D1*
X40367Y25198D1*
X40323Y25168D1*
X40279Y25138D1*
X40234Y25108D1*
X40188Y25078D1*
X40138Y25048D1*
X40081Y25018D1*
X40017Y24988D1*
X39949Y24958D1*
X39881Y24928D1*
X39810Y24898D1*
X39735Y24868D1*
X39652Y24838D1*
X39557Y24808D1*
X39448Y24778D1*
X39321Y24748D1*
X39164Y24718D1*
X38969Y24688D1*
X38742Y24658D1*
X38501Y24628D1*
X35291Y28558D2*
X35202Y28528D1*
X35114Y28498D1*
X35033Y28468D1*
X34962Y28438D1*
X34900Y28408D1*
X34840Y28378D1*
X34781Y28348D1*
X34828Y28318D1*
X34880Y28288D1*
X34943Y28258D1*
X35023Y28228D1*
X35122Y28198D1*
X35231Y28168D1*
X35291Y28558D2*
X35290Y28528D1*
X35286Y28498D1*
X35279Y28468D1*
X35270Y28438D1*
X35261Y28408D1*
X35251Y28378D1*
X35241Y28348D1*
X35232Y28318D1*
X35220Y28288D1*
X35204Y28258D1*
X35182Y28228D1*
X35135Y28198D1*
X35081Y28168D1*
X36371Y28348D2*
X36280Y28318D1*
X36185Y28288D1*
X36080Y28258D1*
X35958Y28228D1*
X35807Y28198D1*
X35621Y28168D1*
X35403Y28138D1*
X35171Y28108D1*
X36461Y28348D2*
X36472Y28318D1*
X36482Y28288D1*
X36491Y28258D1*
X36500Y28228D1*
X36507Y28198D1*
X36498Y28168D1*
X36469Y28138D1*
X36433Y28108D1*
X36393Y28078D1*
X36353Y28048D1*
X36317Y28018D1*
X36285Y27988D1*
X36257Y27958D1*
X36235Y27928D1*
X36217Y27898D1*
X36200Y27868D1*
X36184Y27838D1*
X36169Y27808D1*
X36154Y27778D1*
X36139Y27748D1*
X36124Y27718D1*
X36109Y27688D1*
X36095Y27658D1*
X36083Y27628D1*
X36072Y27598D1*
X36062Y27568D1*
X36052Y27538D1*
X36045Y27508D1*
X36039Y27478D1*
X36030Y27448D1*
X36022Y27418D1*
X36016Y27388D1*
X36013Y27358D1*
X36011Y27328D1*
X36007Y27298D1*
X35999Y27268D1*
X35992Y27238D1*
X35986Y27208D1*
X35984Y27178D1*
X35982Y27148D1*
Y27118D1*
Y27088D1*
X35981Y27058D1*
Y27028D1*
Y26998D1*
Y26968D1*
Y26938D1*
X35982Y26908D1*
X35983Y26878D1*
X35986Y26848D1*
X35994Y26818D1*
X36001Y26788D1*
X36007Y26758D1*
X36009Y26728D1*
X36011Y26698D1*
Y26668D1*
X36012Y26638D1*
X36016Y26608D1*
X36024Y26578D1*
X36031Y26548D1*
X36037Y26518D1*
X36040Y26488D1*
X36046Y26458D1*
X36053Y26428D1*
X36061Y26398D1*
X36068Y26368D1*
X36074Y26338D1*
X36083Y26308D1*
X36091Y26278D1*
X36098Y26248D1*
X36104Y26218D1*
X36113Y26188D1*
X36122Y26158D1*
X36131Y26128D1*
X36142Y26098D1*
X36152Y26068D1*
X36161Y26038D1*
X36171Y26008D1*
X36182Y25978D1*
X36191Y25948D1*
X36203Y25918D1*
X36216Y25888D1*
X36230Y25858D1*
X36245Y25828D1*
X36263Y25798D1*
X36282Y25768D1*
X36302Y25738D1*
X36321Y25708D1*
X36342Y25678D1*
X36361Y25648D1*
X36382Y25618D1*
X36405Y25588D1*
X36429Y25558D1*
X36450Y25528D1*
X36472Y25498D1*
X36496Y25468D1*
X36524Y25438D1*
X36552Y25408D1*
X36582Y25378D1*
X36612Y25348D1*
X36642Y25318D1*
X36673Y25288D1*
X36706Y25258D1*
X36744Y25228D1*
X36781Y25198D1*
X36818Y25168D1*
X36855Y25138D1*
X36898Y25108D1*
X36944Y25078D1*
X36993Y25048D1*
X37043Y25018D1*
X37098Y24988D1*
X37159Y24958D1*
X37225Y24928D1*
X37293Y24898D1*
X37364Y24868D1*
X37443Y24838D1*
X37533Y24808D1*
X37634Y24778D1*
X37751Y24748D1*
X37898Y24718D1*
X38077Y24688D1*
X38284Y24658D1*
X38501Y24628D1*
X41321Y28348D2*
X41237Y28318D1*
X41161Y28288D1*
X41096Y28258D1*
X41041Y28228D1*
X40989Y28198D1*
X40933Y28168D1*
X40871Y28138D1*
X42071Y28348D2*
X42144Y28318D1*
X42208Y28288D1*
X42261Y28258D1*
X42307Y28228D1*
X42349Y28198D1*
X42385Y28168D1*
X42414Y28138D1*
X42439Y28108D1*
X42465Y28078D1*
X42493Y28048D1*
X42521Y28018D1*
X42547Y27988D1*
X42569Y27958D1*
X42590Y27928D1*
X42611Y27898D1*
X42630Y27868D1*
X42647Y27838D1*
X42663Y27808D1*
X42679Y27778D1*
X42694Y27748D1*
X42708Y27718D1*
X42719Y27688D1*
X42727Y27658D1*
X42734Y27628D1*
X42743Y27598D1*
X42751Y27568D1*
X42756Y27538D1*
X42759Y27508D1*
X42761Y27478D1*
Y27448D1*
X34601Y28168D2*
X34572Y28138D1*
X34543Y28108D1*
X34516Y28078D1*
X34494Y28048D1*
X34472Y28018D1*
X34452Y27988D1*
X34433Y27958D1*
X34417Y27928D1*
X34403Y27898D1*
X34393Y27868D1*
X34382Y27838D1*
X34373Y27808D1*
X34367Y27778D1*
X34362Y27748D1*
X34357Y27718D1*
X34350Y27688D1*
X34342Y27658D1*
X34336Y27628D1*
X34334Y27598D1*
X34332Y27568D1*
Y27538D1*
Y27508D1*
X34331Y27478D1*
X34601Y28168D2*
X34662Y28138D1*
X34723Y28108D1*
X34788Y28078D1*
X34860Y28048D1*
X34942Y28018D1*
X35037Y27988D1*
X35145Y27958D1*
X35261Y27928D1*
X41591Y28168D2*
X41456Y28138D1*
X41339Y28108D1*
X41249Y28078D1*
X41179Y28048D1*
X41125Y28018D1*
X41083Y27988D1*
X41068Y27958D1*
X41070Y27928D1*
X41079Y27898D1*
X41091Y27868D1*
X41106Y27838D1*
X41123Y27808D1*
X41141Y27778D1*
X41157Y27748D1*
X41169Y27718D1*
X41181Y27688D1*
X41191Y27658D1*
X41201Y27628D1*
X41211Y27598D1*
X41222Y27568D1*
X41231Y27538D1*
X41241Y27508D1*
X41252Y27478D1*
X41261Y27448D1*
X41271Y27418D1*
X41281Y27388D1*
X41287Y27358D1*
X41294Y27328D1*
X41303Y27298D1*
X41311Y27268D1*
X41316Y27238D1*
X41319Y27208D1*
X41322Y27178D1*
X41326Y27148D1*
X41333Y27118D1*
X41341Y27088D1*
X41346Y27058D1*
X41349Y27028D1*
X41351Y26998D1*
Y26968D1*
Y26938D1*
Y26908D1*
Y26878D1*
Y26848D1*
Y26818D1*
Y26788D1*
Y26758D1*
Y26728D1*
Y26698D1*
Y26668D1*
Y26638D1*
Y26608D1*
Y26578D1*
X41352Y26548D1*
X41354Y26518D1*
X41359Y26488D1*
X41383Y26458D1*
X41411Y26428D1*
X41801Y28168D2*
X41929Y28138D1*
X42033Y28108D1*
X42112Y28078D1*
X42173Y28048D1*
X42223Y28018D1*
X42267Y27988D1*
X42304Y27958D1*
X42334Y27928D1*
X42358Y27898D1*
X42381Y27868D1*
X42406Y27838D1*
X42431Y27808D1*
X42313Y27778D1*
X42209Y27748D1*
X42123Y27718D1*
X42052Y27688D1*
X41991Y27658D1*
X41941Y27628D1*
X41900Y27598D1*
X41865Y27568D1*
X41833Y27538D1*
X41803Y27508D1*
X41777Y27478D1*
X41754Y27448D1*
X41731Y27418D1*
X41707Y27388D1*
X41680Y27358D1*
X41656Y27328D1*
X41634Y27298D1*
X41613Y27268D1*
X41591Y27238D1*
X36041Y28018D2*
X35886Y27988D1*
X35725Y27958D1*
X35561Y27928D1*
X36071Y28018D2*
X36043Y27988D1*
X36017Y27958D1*
X35995Y27928D1*
X35976Y27898D1*
X35960Y27868D1*
X35945Y27838D1*
X35933Y27808D1*
X35922Y27778D1*
X35911Y27748D1*
X35898Y27718D1*
X35884Y27688D1*
X35874Y27658D1*
X35867Y27628D1*
X35863Y27598D1*
X35857Y27568D1*
X35850Y27538D1*
X35842Y27508D1*
X35836Y27478D1*
X35833Y27448D1*
X35831Y27418D1*
X35827Y27388D1*
X35819Y27358D1*
X35812Y27328D1*
X35806Y27298D1*
X35804Y27268D1*
X35802Y27238D1*
Y27208D1*
Y27178D1*
X35801Y27148D1*
Y27118D1*
Y27088D1*
Y27058D1*
Y27028D1*
Y26998D1*
Y26968D1*
Y26938D1*
Y26908D1*
Y26878D1*
Y26848D1*
Y26818D1*
X35802Y26788D1*
X35803Y26758D1*
X35806Y26728D1*
X35814Y26698D1*
X35821Y26668D1*
X35827Y26638D1*
X35829Y26608D1*
X35832Y26578D1*
X35836Y26548D1*
X35843Y26518D1*
X35851Y26488D1*
X35856Y26458D1*
X35859Y26428D1*
X35861Y26398D1*
X35862Y26368D1*
X35866Y26338D1*
X35874Y26308D1*
X35881Y26278D1*
X35888Y26248D1*
X35894Y26218D1*
X35903Y26188D1*
X35911Y26158D1*
X35918Y26128D1*
X35924Y26098D1*
X35933Y26068D1*
X35942Y26038D1*
X35952Y26008D1*
X35963Y25978D1*
X35976Y25948D1*
X35990Y25918D1*
X36004Y25888D1*
X36018Y25858D1*
X36030Y25828D1*
X36041Y25798D1*
X36052Y25768D1*
X36065Y25738D1*
X36080Y25708D1*
X36095Y25678D1*
X36114Y25648D1*
X36136Y25618D1*
X36158Y25588D1*
X36175Y25558D1*
X36190Y25528D1*
X36206Y25498D1*
X36227Y25468D1*
X36249Y25438D1*
X36270Y25408D1*
X36292Y25378D1*
X36316Y25348D1*
X36344Y25318D1*
X36372Y25288D1*
X36402Y25258D1*
X36432Y25228D1*
X36461Y25198D1*
X36491Y25168D1*
X36522Y25138D1*
X36553Y25108D1*
X36586Y25078D1*
X36624Y25048D1*
X36662Y25018D1*
X36702Y24988D1*
X36743Y24958D1*
X36787Y24928D1*
X36833Y24898D1*
X36883Y24868D1*
X36932Y24838D1*
X36981Y24808D1*
X37029Y24778D1*
X37069Y24748D1*
X37100Y24718D1*
X37111Y24688D1*
X37117Y24658D1*
X37120Y24628D1*
X37121Y24598D1*
X37120Y24568D1*
X37116Y24538D1*
X37109Y24508D1*
X37102Y24478D1*
X37096Y24448D1*
X37094Y24418D1*
X37092Y24388D1*
Y24358D1*
Y24328D1*
X37091Y24298D1*
Y24268D1*
Y24238D1*
Y24208D1*
Y24178D1*
X37090Y24148D1*
X37086Y24118D1*
X37079Y24088D1*
X37069Y24058D1*
X37055Y24028D1*
X37032Y23998D1*
X36999Y23968D1*
X36961Y23938D1*
X36922Y23908D1*
X36886Y23878D1*
X36849Y23848D1*
X36810Y23818D1*
X36772Y23788D1*
X36735Y23758D1*
X36699Y23728D1*
X36660Y23698D1*
X36622Y23668D1*
X36586Y23638D1*
X36551Y23608D1*
X36571Y23578D1*
X36592Y23548D1*
X36617Y23518D1*
X36643Y23488D1*
X36671Y23458D1*
X42641Y27598D2*
X42459Y27568D1*
X42312Y27538D1*
X42210Y27508D1*
X42131Y27478D1*
X42186Y27448D1*
X42233Y27418D1*
X42273Y27388D1*
X42308Y27358D1*
X42339Y27328D1*
X42366Y27298D1*
X42388Y27268D1*
X42406Y27238D1*
X42423Y27208D1*
X42437Y27178D1*
X42450Y27148D1*
X42460Y27118D1*
X42471Y27088D1*
X42481Y27058D1*
X42491Y27028D1*
X42501Y26998D1*
X42512Y26968D1*
X42522Y26938D1*
X42536Y26908D1*
X42551Y26878D1*
X42371Y27598D2*
X42479Y27568D1*
X42573Y27538D1*
X42649Y27508D1*
X42709Y27478D1*
X42761Y27448D1*
X39521Y27358D2*
X39481Y27328D1*
X39442Y27298D1*
X39406Y27268D1*
X39371Y27238D1*
X39401Y27208D1*
X39431Y27178D1*
X39461Y27148D1*
X39491Y27118D1*
X39521Y27088D1*
X39551Y27058D1*
X39581Y27028D1*
X39611Y26998D1*
X39641Y26968D1*
X39672Y26938D1*
X39703Y26908D1*
X39737Y26878D1*
X39775Y26848D1*
X39816Y26818D1*
X39860Y26788D1*
X39905Y26758D1*
X39953Y26728D1*
X40001Y26698D1*
X40048Y26668D1*
X40091Y26638D1*
X40057Y26608D1*
X40019Y26578D1*
X39982Y26548D1*
X39946Y26518D1*
X39912Y26488D1*
X39877Y26458D1*
X39839Y26428D1*
X39800Y26398D1*
X39761Y26368D1*
X39721Y26338D1*
X39681Y26308D1*
X39642Y26278D1*
X39601Y26248D1*
X39562Y26218D1*
X39525Y26188D1*
X39489Y26158D1*
X39449Y26128D1*
X39407Y26098D1*
X39362Y26068D1*
X39312Y26038D1*
X39257Y26008D1*
X39196Y25978D1*
X39134Y25948D1*
X39071Y25918D1*
X39005Y25888D1*
X38932Y25858D1*
X38846Y25828D1*
X38743Y25798D1*
X38623Y25768D1*
X38490Y25738D1*
X38351Y25708D1*
X39551Y27358D2*
X39581Y27328D1*
X39611Y27298D1*
X39641Y27268D1*
X39671Y27238D1*
X39701Y27208D1*
X39731Y27178D1*
X39761Y27148D1*
X39792Y27118D1*
X39823Y27088D1*
X39857Y27058D1*
X39895Y27028D1*
X39936Y26998D1*
X39980Y26968D1*
X40025Y26938D1*
X40074Y26908D1*
X40129Y26878D1*
X40190Y26848D1*
X40259Y26818D1*
X40332Y26788D1*
X40399Y26758D1*
X40450Y26728D1*
X40485Y26698D1*
X40511Y26668D1*
X40463Y26638D1*
X40417Y26608D1*
X40374Y26578D1*
X40333Y26548D1*
X40292Y26518D1*
X40252Y26488D1*
X40215Y26458D1*
X40179Y26428D1*
X40140Y26398D1*
X40101Y26368D1*
X40061Y26338D1*
X40021Y26308D1*
X39982Y26278D1*
X39945Y26248D1*
X39909Y26218D1*
X39870Y26188D1*
X39831Y26158D1*
X39791Y26128D1*
X39751Y26098D1*
X39712Y26068D1*
X39675Y26038D1*
X39639Y26008D1*
X39599Y25978D1*
X39557Y25948D1*
X39513Y25918D1*
X39468Y25888D1*
X39420Y25858D1*
X39370Y25828D1*
X39321Y25798D1*
X39269Y25768D1*
X39211Y25738D1*
X39145Y25708D1*
X39069Y25678D1*
X38985Y25648D1*
X38893Y25618D1*
X38792Y25588D1*
X38680Y25558D1*
X38561Y25528D1*
X37481Y27328D2*
X37451Y27298D1*
X37421Y27268D1*
X37391Y27238D1*
X37361Y27208D1*
X37331Y27178D1*
X37302Y27148D1*
X37273Y27118D1*
X37247Y27088D1*
X37225Y27058D1*
X37206Y27028D1*
X37190Y26998D1*
X37174Y26968D1*
X37159Y26938D1*
X37145Y26908D1*
X37134Y26878D1*
X37126Y26848D1*
X37119Y26818D1*
X37110Y26788D1*
X37102Y26758D1*
X37096Y26728D1*
X37094Y26698D1*
X37092Y26668D1*
Y26638D1*
Y26608D1*
X37091Y26578D1*
Y26548D1*
Y26518D1*
Y26488D1*
Y26458D1*
Y26428D1*
Y26398D1*
X37092Y26368D1*
X37093Y26338D1*
X37096Y26308D1*
X37104Y26278D1*
X37111Y26248D1*
X37118Y26218D1*
X37124Y26188D1*
X37134Y26158D1*
X37146Y26128D1*
X37160Y26098D1*
X37174Y26068D1*
X37189Y26038D1*
X37205Y26008D1*
X37224Y25978D1*
X37247Y25948D1*
X37274Y25918D1*
X37302Y25888D1*
X37332Y25858D1*
X37362Y25828D1*
X37393Y25798D1*
X37427Y25768D1*
X37465Y25738D1*
X37509Y25708D1*
X37560Y25678D1*
X37622Y25648D1*
X37696Y25618D1*
X37784Y25588D1*
X37885Y25558D1*
X37991Y25528D1*
X37541Y27328D2*
X37560Y27298D1*
X37577Y27268D1*
X37594Y27238D1*
X37612Y27208D1*
X37631Y27178D1*
X37600Y27148D1*
X37566Y27118D1*
X37529Y27088D1*
X37493Y27058D1*
X37461Y27028D1*
X37436Y26998D1*
X37413Y26968D1*
X37392Y26938D1*
X37373Y26908D1*
X37356Y26878D1*
X37340Y26848D1*
X37325Y26818D1*
X37313Y26788D1*
X37302Y26758D1*
X37292Y26728D1*
X37283Y26698D1*
X37277Y26668D1*
X37274Y26638D1*
X37272Y26608D1*
Y26578D1*
Y26548D1*
X37271Y26518D1*
Y26488D1*
Y26458D1*
X37272Y26428D1*
X37273Y26398D1*
X37277Y26368D1*
X37285Y26338D1*
X37296Y26308D1*
X37309Y26278D1*
X37320Y26248D1*
X37331Y26218D1*
X37342Y26188D1*
X37356Y26158D1*
X37373Y26128D1*
X37393Y26098D1*
X37413Y26068D1*
X37438Y26038D1*
X37469Y26008D1*
X37505Y25978D1*
X37544Y25948D1*
X37588Y25918D1*
X37639Y25888D1*
X37696Y25858D1*
X37761Y25828D1*
X37843Y25798D1*
X37947Y25768D1*
X38070Y25738D1*
X38201Y25708D1*
X41921Y27298D2*
X41801Y27268D1*
X41681Y27238D1*
X42071Y27298D2*
X42101Y27268D1*
X42131Y27238D1*
X42091Y27208D1*
X42052Y27178D1*
X42018Y27148D1*
X41989Y27118D1*
X41965Y27088D1*
X41943Y27058D1*
X41922Y27028D1*
X41903Y26998D1*
X41886Y26968D1*
X41870Y26938D1*
X41854Y26908D1*
X41839Y26878D1*
X41825Y26848D1*
X41813Y26818D1*
X41802Y26788D1*
X41790Y26758D1*
X41776Y26728D1*
X41757Y26698D1*
X41730Y26668D1*
X41697Y26638D1*
X41660Y26608D1*
X41625Y26578D1*
X41587Y26548D1*
X41541Y26518D1*
X41482Y26488D1*
X41406Y26458D1*
X41321Y26428D1*
X42191Y27028D2*
X42162Y26998D1*
X42133Y26968D1*
X42107Y26938D1*
X42085Y26908D1*
X42066Y26878D1*
X42050Y26848D1*
X42035Y26818D1*
X42023Y26788D1*
X42012Y26758D1*
X42001Y26728D1*
X41987Y26698D1*
X41973Y26668D1*
X41957Y26638D1*
X41939Y26608D1*
X41916Y26578D1*
X41889Y26548D1*
X41861Y26518D1*
X41835Y26488D1*
X41808Y26458D1*
X41779Y26428D1*
X41745Y26398D1*
X41708Y26368D1*
X41663Y26338D1*
X41605Y26308D1*
X41532Y26278D1*
X41451Y26248D1*
X41381Y26218D1*
X41327Y26188D1*
X41307Y26158D1*
X41293Y26128D1*
X41282Y26098D1*
X41271Y26068D1*
X41262Y26038D1*
X41250Y26008D1*
X41237Y25978D1*
X41224Y25948D1*
X41213Y25918D1*
X41202Y25888D1*
X41190Y25858D1*
X41177Y25828D1*
X41163Y25798D1*
X41149Y25768D1*
X41134Y25738D1*
X41118Y25708D1*
X41100Y25678D1*
X41081Y25648D1*
X41061Y25618D1*
X41041Y25588D1*
X41021Y25558D1*
X41001Y25528D1*
X40980Y25498D1*
X40956Y25468D1*
X40930Y25438D1*
X40906Y25408D1*
X40883Y25378D1*
X40861Y25348D1*
X40836Y25318D1*
X40809Y25288D1*
X40779Y25258D1*
X40746Y25228D1*
X40709Y25198D1*
X40671Y25168D1*
X40636Y25138D1*
X40602Y25108D1*
X40567Y25078D1*
X40529Y25048D1*
X40490Y25018D1*
X40450Y24988D1*
X40405Y24958D1*
X40355Y24928D1*
X40303Y24898D1*
X40252Y24868D1*
X40201Y24838D1*
X40146Y24808D1*
X40088Y24778D1*
X40025Y24748D1*
X39957Y24718D1*
X39884Y24688D1*
X39803Y24658D1*
X39712Y24628D1*
X39612Y24598D1*
X39504Y24568D1*
X39382Y24538D1*
X39242Y24508D1*
X39085Y24478D1*
X38921Y24448D1*
Y24418D1*
Y24388D1*
Y24358D1*
Y24328D1*
X38922Y24298D1*
X38923Y24268D1*
X38926Y24238D1*
X38934Y24208D1*
X38941Y24178D1*
X38947Y24148D1*
X38949Y24118D1*
X38951Y24088D1*
Y24058D1*
Y24028D1*
Y23998D1*
X38952Y23968D1*
X38953Y23938D1*
X38964Y23908D1*
X39011Y23878D1*
X39084Y23848D1*
X39179Y23818D1*
X39284Y23788D1*
X39389Y23758D1*
X39487Y23728D1*
X39567Y23698D1*
X39629Y23668D1*
X39659Y23638D1*
X39655Y23608D1*
X39650Y23578D1*
X39645Y23548D1*
X39643Y23518D1*
X39641Y23488D1*
X42281Y27028D2*
X42337Y26998D1*
X42388Y26968D1*
X42436Y26938D1*
X42480Y26908D1*
X42521Y26878D1*
X37301Y24658D2*
Y24628D1*
Y24598D1*
Y24568D1*
Y24538D1*
Y24508D1*
Y24478D1*
Y24448D1*
X37300Y24418D1*
X37296Y24388D1*
X37289Y24358D1*
X37282Y24328D1*
X37276Y24298D1*
X37274Y24268D1*
X37272Y24238D1*
Y24208D1*
Y24178D1*
X37271Y24148D1*
Y24118D1*
Y24088D1*
X37272Y24058D1*
X37274Y24028D1*
X37279Y23998D1*
X37301Y23968D1*
X37329Y23938D1*
X37360Y23908D1*
X37391Y23878D1*
X37421Y23848D1*
X37451Y23818D1*
X37481Y23788D1*
X37511Y23758D1*
X37542Y23728D1*
X37573Y23698D1*
X37606Y23668D1*
X37643Y23638D1*
X37680Y23608D1*
X37710Y23578D1*
X37734Y23548D1*
X37740Y23518D1*
X37733Y23488D1*
X37713Y23458D1*
X37688Y23428D1*
X37660Y23398D1*
X37631Y23368D1*
X37241Y24658D2*
X37357Y24628D1*
X37469Y24598D1*
X37583Y24568D1*
X37705Y24538D1*
X37844Y24508D1*
X38002Y24478D1*
X38171Y24448D1*
X38711D2*
Y24418D1*
X38712Y24388D1*
X38713Y24358D1*
X38716Y24328D1*
X38724Y24298D1*
X38731Y24268D1*
X38737Y24238D1*
X38739Y24208D1*
X38741Y24178D1*
Y24148D1*
Y24118D1*
Y24088D1*
Y24058D1*
X38742Y24028D1*
X38743Y23998D1*
X38746Y23968D1*
X38754Y23938D1*
X38761Y23908D1*
X38767Y23878D1*
X38769Y23848D1*
Y23818D1*
X38765Y23788D1*
X38753Y23758D1*
X38734Y23728D1*
X38713Y23698D1*
X38692Y23668D1*
X38671Y23638D1*
X38646Y23608D1*
X38620Y23578D1*
X38596Y23548D1*
X38575Y23518D1*
X38559Y23488D1*
X38548Y23458D1*
X38555Y23428D1*
X38583Y23398D1*
X38617Y23368D1*
X38651Y23338D1*
X37031Y23728D2*
X36997Y23698D1*
X36958Y23668D1*
X36917Y23638D1*
X36874Y23608D1*
X36834Y23578D1*
X36797Y23548D1*
X36764Y23518D1*
X36732Y23488D1*
X36701Y23458D1*
X37061Y23728D2*
X37057Y23698D1*
X37049Y23668D1*
X37042Y23638D1*
X37036Y23608D1*
X37034Y23578D1*
X37032Y23548D1*
Y23518D1*
Y23488D1*
X37031Y23458D1*
Y23428D1*
Y23398D1*
Y23368D1*
Y23338D1*
X37241Y23698D2*
Y23668D1*
Y23638D1*
Y23608D1*
X37240Y23578D1*
X37236Y23548D1*
X37229Y23518D1*
X37222Y23488D1*
X37216Y23458D1*
X37214Y23428D1*
X37212Y23398D1*
Y23368D1*
X37211Y23338D1*
X37271Y23698D2*
X37301Y23668D1*
X37331Y23638D1*
X37361Y23608D1*
X37392Y23578D1*
X37423Y23548D1*
X37456Y23518D1*
X37494Y23488D1*
X37531Y23458D1*
X37567Y23428D1*
X37599Y23398D1*
X37631Y23368D1*
X39041Y23608D2*
X39046Y23578D1*
X39054Y23548D1*
X39062Y23518D1*
X39071Y23488D1*
X39082Y23458D1*
X39092Y23428D1*
X39101Y23398D1*
X39111Y23368D1*
X39120Y23338D1*
X39126Y23308D1*
X39118Y23278D1*
X39084Y23248D1*
X39041Y23218D1*
X39101Y23608D2*
X39221Y23578D1*
X39341Y23548D1*
X39461Y23518D1*
X39581Y23488D1*
X38801Y23518D2*
X38796Y23488D1*
X38783Y23458D1*
X38763Y23428D1*
X38738Y23398D1*
X38710Y23368D1*
X38681Y23338D1*
X38831Y23518D2*
X38856Y23488D1*
X38874Y23458D1*
X38888Y23428D1*
X38900Y23398D1*
X38911Y23368D1*
X38921Y23338D1*
X38931Y23308D1*
X38940Y23278D1*
X38947Y23248D1*
X38951Y23218D1*
X4764Y9259D2*
D62*
X4740Y9307D1*
X4668Y9379D1*
X5170D1*
X4668Y9677D2*
X4692Y9605D1*
X4764Y9557D1*
X4883Y9534D1*
X4955D1*
X5075Y9557D1*
X5146Y9605D1*
X5170Y9677D1*
Y9725D1*
X5146Y9797D1*
X5075Y9844D1*
X4955Y9868D1*
X4883D1*
X4764Y9844D1*
X4692Y9797D1*
X4668Y9725D1*
Y9677D1*
X4764Y9844D2*
X5075Y9557D1*
X4668Y10167D2*
X4692Y10095D1*
X4764Y10047D1*
X4883Y10023D1*
X4955D1*
X5075Y10047D1*
X5146Y10095D1*
X5170Y10167D1*
Y10214D1*
X5146Y10286D1*
X5075Y10333D1*
X4955Y10358D1*
X4883D1*
X4764Y10333D1*
X4692Y10286D1*
X4668Y10214D1*
Y10167D1*
X4764Y10333D2*
X5075Y10047D1*
X4835Y10512D2*
X5075D1*
X5146Y10536D1*
X5170Y10584D1*
Y10656D1*
X5146Y10703D1*
X5075Y10775D1*
X4835D2*
X5170D1*
X4668Y11241D2*
Y10930D1*
X5170D1*
X4907D2*
Y11121D1*
X38293Y7552D2*
X38317Y7480D1*
X38389Y7432D1*
X38508Y7408D1*
X38580D1*
X38700Y7432D1*
X38771Y7480D1*
X38795Y7552D1*
Y7599D1*
X38771Y7671D1*
X38700Y7719D1*
X38580Y7743D1*
X38508D1*
X38389Y7719D1*
X38317Y7671D1*
X38293Y7599D1*
Y7552D1*
X38389Y7719D2*
X38700Y7432D1*
X38747Y7921D2*
X38771Y7897D1*
X38795Y7921D1*
X38771Y7945D1*
X38747Y7921D1*
X38293Y8243D2*
X38317Y8172D1*
X38389Y8124D1*
X38508Y8100D1*
X38580D1*
X38700Y8124D1*
X38771Y8172D1*
X38795Y8243D1*
Y8291D1*
X38771Y8363D1*
X38700Y8410D1*
X38580Y8435D1*
X38508D1*
X38389Y8410D1*
X38317Y8363D1*
X38293Y8291D1*
Y8243D1*
X38389Y8410D2*
X38700Y8124D1*
X38389Y8589D2*
X38365Y8637D1*
X38293Y8709D1*
X38795D1*
X38460Y8863D2*
X38700D1*
X38771Y8887D1*
X38795Y8935D1*
Y9007D1*
X38771Y9055D1*
X38700Y9126D1*
X38460D2*
X38795D1*
X38293Y9592D2*
Y9281D1*
X38795D1*
X38532D2*
Y9472D1*
X6134Y6884D2*
X6182Y6909D1*
X6254Y6980D1*
Y6478D1*
X6695Y6980D2*
X6457D1*
X6433Y6765D1*
X6457Y6789D1*
X6528Y6813D1*
X6600D1*
X6672Y6789D1*
X6720Y6741D1*
X6743Y6669D1*
Y6622D1*
X6720Y6550D1*
X6672Y6502D1*
X6600Y6478D1*
X6528D1*
X6457Y6502D1*
X6433Y6526D1*
X6409Y6574D1*
X7042Y6980D2*
X6970Y6956D1*
X6922Y6884D1*
X6898Y6765D1*
Y6693D1*
X6922Y6574D1*
X6970Y6502D1*
X7042Y6478D1*
X7089D1*
X7161Y6502D1*
X7208Y6574D1*
X7233Y6693D1*
Y6765D1*
X7208Y6884D1*
X7161Y6956D1*
X7089Y6980D1*
X7042D1*
X7208Y6884D2*
X6922Y6574D1*
X7387Y6813D2*
Y6574D1*
X7411Y6502D1*
X7459Y6478D1*
X7531D1*
X7578Y6502D1*
X7650Y6574D1*
Y6813D2*
Y6478D1*
X8116Y6980D2*
X7805D1*
Y6478D1*
Y6741D2*
X7996D1*
X40927Y39332D2*
X40855Y39308D1*
X40807Y39236D1*
X40783Y39117D1*
Y39045D1*
X40807Y38925D1*
X40855Y38854D1*
X40927Y38830D1*
X40974D1*
X41046Y38854D1*
X41094Y38925D1*
X41118Y39045D1*
Y39117D1*
X41094Y39236D1*
X41046Y39308D1*
X40974Y39332D1*
X40927D1*
X41094Y39236D2*
X40807Y38925D1*
X41296Y38878D2*
X41272Y38854D1*
X41296Y38830D1*
X41320Y38854D1*
X41296Y38878D1*
X41618Y39332D2*
X41547Y39308D1*
X41499Y39236D1*
X41475Y39117D1*
Y39045D1*
X41499Y38925D1*
X41547Y38854D1*
X41618Y38830D1*
X41666D1*
X41738Y38854D1*
X41785Y38925D1*
X41810Y39045D1*
Y39117D1*
X41785Y39236D1*
X41738Y39308D1*
X41666Y39332D1*
X41618D1*
X41785Y39236D2*
X41499Y38925D1*
X41964Y39236D2*
X42012Y39260D1*
X42084Y39332D1*
Y38830D1*
X42238Y39165D2*
Y38925D1*
X42262Y38854D1*
X42310Y38830D1*
X42382D1*
X42430Y38854D1*
X42501Y38925D1*
Y39165D2*
Y38830D1*
X42967Y39332D2*
X42656D1*
Y38830D1*
Y39093D2*
X42847D1*
X23793Y16927D2*
X23817Y16855D1*
X23889Y16807D1*
X24008Y16783D1*
X24080D1*
X24200Y16807D1*
X24271Y16855D1*
X24295Y16927D1*
Y16974D1*
X24271Y17046D1*
X24200Y17094D1*
X24080Y17118D1*
X24008D1*
X23889Y17094D1*
X23817Y17046D1*
X23793Y16974D1*
Y16927D1*
X23889Y17094D2*
X24200Y16807D1*
X24247Y17296D2*
X24271Y17272D1*
X24295Y17296D1*
X24271Y17320D1*
X24247Y17296D1*
X23793Y17618D2*
X23817Y17547D1*
X23889Y17499D1*
X24008Y17475D1*
X24080D1*
X24200Y17499D1*
X24271Y17547D1*
X24295Y17618D1*
Y17666D1*
X24271Y17738D1*
X24200Y17785D1*
X24080Y17810D1*
X24008D1*
X23889Y17785D1*
X23817Y17738D1*
X23793Y17666D1*
Y17618D1*
X23889Y17785D2*
X24200Y17499D1*
X23889Y17964D2*
X23865Y18012D1*
X23793Y18084D1*
X24295D1*
X23960Y18238D2*
X24200D1*
X24271Y18262D1*
X24295Y18310D1*
Y18382D1*
X24271Y18430D1*
X24200Y18501D1*
X23960D2*
X24295D1*
X23793Y18967D2*
Y18656D1*
X24295D1*
X24032D2*
Y18847D1*
X32981Y24052D2*
X33005Y23980D1*
X33076Y23932D1*
X33196Y23908D1*
X33268D1*
X33387Y23932D1*
X33459Y23980D1*
X33483Y24052D1*
Y24099D1*
X33459Y24171D1*
X33387Y24219D1*
X33268Y24243D1*
X33196D1*
X33076Y24219D1*
X33005Y24171D1*
X32981Y24099D1*
Y24052D1*
X33076Y24219D2*
X33387Y23932D1*
X33435Y24421D2*
X33459Y24397D1*
X33483Y24421D1*
X33459Y24445D1*
X33435Y24421D1*
X32981Y24743D2*
X33005Y24672D1*
X33076Y24624D1*
X33196Y24600D1*
X33268D1*
X33387Y24624D1*
X33459Y24672D1*
X33483Y24743D1*
Y24791D1*
X33459Y24863D1*
X33387Y24910D1*
X33268Y24935D1*
X33196D1*
X33076Y24910D1*
X33005Y24863D1*
X32981Y24791D1*
Y24743D1*
X33076Y24910D2*
X33387Y24624D1*
X33076Y25089D2*
X33052Y25137D1*
X32981Y25209D1*
X33483D1*
X33148Y25363D2*
X33387D1*
X33458Y25387D1*
X33483Y25435D1*
Y25507D1*
X33458Y25555D1*
X33387Y25626D1*
X33148D2*
X33483D1*
X32980Y26092D2*
Y25781D1*
X33483D1*
X33220D2*
Y25972D1*
X16987Y32612D2*
X17011Y32540D1*
X17083Y32492D1*
X17202Y32469D1*
X17274D1*
X17393Y32492D1*
X17465Y32540D1*
X17489Y32612D1*
Y32660D1*
X17465Y32732D1*
X17393Y32779D1*
X17274Y32803D1*
X17202D1*
X17083Y32779D1*
X17011Y32732D1*
X16987Y32660D1*
Y32612D1*
X17083Y32779D2*
X17393Y32492D1*
X17441Y32982D2*
X17465Y32958D1*
X17489Y32982D1*
X17465Y33006D1*
X17441Y32982D1*
X17083Y33160D2*
X17059Y33208D1*
X16987Y33280D1*
X17489D1*
X17154Y33435D2*
X17393D1*
X17465Y33458D1*
X17489Y33507D1*
Y33578D1*
X17465Y33626D1*
X17393Y33698D1*
X17154D2*
X17489D1*
X16987Y34163D2*
Y33852D1*
X17489D1*
X17226D2*
Y34043D1*
X9862Y26987D2*
X9886Y26915D1*
X9958Y26867D1*
X10077Y26844D1*
X10149D1*
X10268Y26867D1*
X10340Y26915D1*
X10364Y26987D1*
Y27035D1*
X10340Y27107D1*
X10268Y27154D1*
X10149Y27178D1*
X10077D1*
X9958Y27154D1*
X9886Y27107D1*
X9862Y27035D1*
Y26987D1*
X9958Y27154D2*
X10268Y26867D1*
X10316Y27357D2*
X10340Y27333D1*
X10364Y27357D1*
X10340Y27381D1*
X10316Y27357D1*
X9958Y27535D2*
X9934Y27583D1*
X9862Y27655D1*
X10364D1*
X10029Y27810D2*
X10268D1*
X10340Y27833D1*
X10364Y27882D1*
Y27953D1*
X10340Y28001D1*
X10268Y28073D1*
X10029D2*
X10364D1*
X9862Y28538D2*
Y28227D1*
X10364D1*
X10101D2*
Y28418D1*
X39802Y15457D2*
X39730Y15433D1*
X39682Y15361D1*
X39658Y15242D1*
Y15170D1*
X39682Y15050D1*
X39730Y14979D1*
X39802Y14955D1*
X39849D1*
X39921Y14979D1*
X39969Y15050D1*
X39993Y15170D1*
Y15242D1*
X39969Y15361D1*
X39921Y15433D1*
X39849Y15457D1*
X39802D1*
X39969Y15361D2*
X39682Y15050D1*
X40171Y15003D2*
X40147Y14979D1*
X40171Y14955D1*
X40195Y14979D1*
X40171Y15003D1*
X40493Y15457D2*
X40422Y15433D1*
X40374Y15361D1*
X40350Y15242D1*
Y15170D1*
X40374Y15050D1*
X40422Y14979D1*
X40493Y14955D1*
X40541D1*
X40613Y14979D1*
X40660Y15050D1*
X40685Y15170D1*
Y15242D1*
X40660Y15361D1*
X40613Y15433D1*
X40541Y15457D1*
X40493D1*
X40660Y15361D2*
X40374Y15050D1*
X40839Y15361D2*
X40887Y15385D1*
X40959Y15457D1*
Y14955D1*
X41113Y15290D2*
Y15050D1*
X41137Y14979D1*
X41185Y14955D1*
X41257D1*
X41305Y14979D1*
X41376Y15050D1*
Y15290D2*
Y14955D1*
X41842Y15457D2*
X41531D1*
Y14955D1*
Y15218D2*
X41722D1*
X53802Y27332D2*
X53730Y27308D1*
X53682Y27236D1*
X53658Y27117D1*
Y27045D1*
X53682Y26925D1*
X53730Y26854D1*
X53802Y26830D1*
X53849D1*
X53921Y26854D1*
X53969Y26925D1*
X53993Y27045D1*
Y27117D1*
X53969Y27236D1*
X53921Y27308D1*
X53849Y27332D1*
X53802D1*
X53969Y27236D2*
X53682Y26925D1*
X54171Y26878D2*
X54147Y26854D1*
X54171Y26830D1*
X54195Y26854D1*
X54171Y26878D1*
X54493Y27332D2*
X54422Y27308D1*
X54374Y27236D1*
X54350Y27117D1*
Y27045D1*
X54374Y26925D1*
X54422Y26854D1*
X54493Y26830D1*
X54541D1*
X54613Y26854D1*
X54660Y26925D1*
X54685Y27045D1*
Y27117D1*
X54660Y27236D1*
X54613Y27308D1*
X54541Y27332D1*
X54493D1*
X54660Y27236D2*
X54374Y26925D1*
X54839Y27236D2*
X54887Y27260D1*
X54959Y27332D1*
Y26830D1*
X55113Y27165D2*
Y26925D1*
X55137Y26854D1*
X55185Y26830D1*
X55257D1*
X55305Y26854D1*
X55376Y26925D1*
Y27165D2*
Y26830D1*
X55842Y27332D2*
X55531D1*
Y26830D1*
Y27093D2*
X55722D1*
X19112Y32612D2*
X19136Y32540D1*
X19208Y32492D1*
X19327Y32469D1*
X19399D1*
X19518Y32492D1*
X19590Y32540D1*
X19614Y32612D1*
Y32660D1*
X19590Y32732D1*
X19518Y32779D1*
X19399Y32803D1*
X19327D1*
X19208Y32779D1*
X19136Y32732D1*
X19112Y32660D1*
Y32612D1*
X19208Y32779D2*
X19518Y32492D1*
X19566Y32982D2*
X19590Y32958D1*
X19614Y32982D1*
X19590Y33006D1*
X19566Y32982D1*
X19208Y33160D2*
X19184Y33208D1*
X19112Y33280D1*
X19614D1*
X19279Y33435D2*
X19518D1*
X19590Y33458D1*
X19614Y33507D1*
Y33578D1*
X19590Y33626D1*
X19518Y33698D1*
X19279D2*
X19614D1*
X19112Y34163D2*
Y33852D1*
X19614D1*
X19351D2*
Y34043D1*
X12365Y26148D2*
X12293Y26124D1*
X12245Y26052D1*
X12222Y25933D1*
Y25861D1*
X12245Y25741D1*
X12293Y25670D1*
X12365Y25646D1*
X12413D1*
X12485Y25670D1*
X12532Y25741D1*
X12556Y25861D1*
Y25933D1*
X12532Y26052D1*
X12485Y26124D1*
X12413Y26148D1*
X12365D1*
X12532Y26052D2*
X12245Y25741D1*
X12735Y25694D2*
X12711Y25670D1*
X12735Y25646D1*
X12759Y25670D1*
X12735Y25694D1*
X12913Y26052D2*
X12961Y26076D1*
X13033Y26148D1*
Y25646D1*
X13188Y25981D2*
Y25741D1*
X13211Y25670D1*
X13259Y25646D1*
X13331D1*
X13379Y25670D1*
X13451Y25741D1*
Y25981D2*
Y25646D1*
X13916Y26148D2*
X13605D1*
Y25646D1*
Y25909D2*
X13796D1*
X21237Y32612D2*
X21261Y32540D1*
X21333Y32492D1*
X21452Y32469D1*
X21524D1*
X21643Y32492D1*
X21715Y32540D1*
X21739Y32612D1*
Y32660D1*
X21715Y32732D1*
X21643Y32779D1*
X21524Y32803D1*
X21452D1*
X21333Y32779D1*
X21261Y32732D1*
X21237Y32660D1*
Y32612D1*
X21333Y32779D2*
X21643Y32492D1*
X21691Y32982D2*
X21715Y32958D1*
X21739Y32982D1*
X21715Y33006D1*
X21691Y32982D1*
X21333Y33160D2*
X21309Y33208D1*
X21237Y33280D1*
X21739D1*
X21404Y33435D2*
X21643D1*
X21715Y33458D1*
X21739Y33507D1*
Y33578D1*
X21715Y33626D1*
X21643Y33698D1*
X21404D2*
X21739D1*
X21237Y34163D2*
Y33852D1*
X21739D1*
X21476D2*
Y34043D1*
X45052Y15457D2*
X44980Y15433D1*
X44932Y15361D1*
X44908Y15242D1*
Y15170D1*
X44932Y15050D1*
X44980Y14979D1*
X45052Y14955D1*
X45099D1*
X45171Y14979D1*
X45219Y15050D1*
X45243Y15170D1*
Y15242D1*
X45219Y15361D1*
X45171Y15433D1*
X45099Y15457D1*
X45052D1*
X45219Y15361D2*
X44932Y15050D1*
X45421Y15003D2*
X45397Y14979D1*
X45421Y14955D1*
X45445Y14979D1*
X45421Y15003D1*
X45743Y15457D2*
X45672Y15433D1*
X45624Y15361D1*
X45600Y15242D1*
Y15170D1*
X45624Y15050D1*
X45672Y14979D1*
X45743Y14955D1*
X45791D1*
X45863Y14979D1*
X45910Y15050D1*
X45935Y15170D1*
Y15242D1*
X45910Y15361D1*
X45863Y15433D1*
X45791Y15457D1*
X45743D1*
X45910Y15361D2*
X45624Y15050D1*
X46089Y15361D2*
X46137Y15385D1*
X46209Y15457D1*
Y14955D1*
X46363Y15290D2*
Y15050D1*
X46387Y14979D1*
X46435Y14955D1*
X46507D1*
X46555Y14979D1*
X46626Y15050D1*
Y15290D2*
Y14955D1*
X47092Y15457D2*
X46781D1*
Y14955D1*
Y15218D2*
X46972D1*
X50302Y7332D2*
X50230Y7308D1*
X50182Y7236D1*
X50158Y7117D1*
Y7045D1*
X50182Y6925D1*
X50230Y6854D1*
X50302Y6830D1*
X50349D1*
X50421Y6854D1*
X50469Y6925D1*
X50493Y7045D1*
Y7117D1*
X50469Y7236D1*
X50421Y7308D1*
X50349Y7332D1*
X50302D1*
X50469Y7236D2*
X50182Y6925D1*
X50671Y6878D2*
X50647Y6854D1*
X50671Y6830D1*
X50695Y6854D1*
X50671Y6878D1*
X50993Y7332D2*
X50922Y7308D1*
X50874Y7236D1*
X50850Y7117D1*
Y7045D1*
X50874Y6925D1*
X50922Y6854D1*
X50993Y6830D1*
X51041D1*
X51113Y6854D1*
X51160Y6925D1*
X51185Y7045D1*
Y7117D1*
X51160Y7236D1*
X51113Y7308D1*
X51041Y7332D1*
X50993D1*
X51160Y7236D2*
X50874Y6925D1*
X51339Y7236D2*
X51387Y7260D1*
X51459Y7332D1*
Y6830D1*
X51613Y7165D2*
Y6925D1*
X51637Y6854D1*
X51685Y6830D1*
X51757D1*
X51805Y6854D1*
X51876Y6925D1*
Y7165D2*
Y6830D1*
X52342Y7332D2*
X52031D1*
Y6830D1*
Y7093D2*
X52222D1*
X12774Y19812D2*
X12822Y19837D1*
X12894Y19908D1*
Y19406D1*
X13384Y19908D2*
Y19406D1*
X13049Y19908D1*
Y19406D1*
X13825Y19908D2*
X13586D1*
X13562Y19693D1*
X13586Y19717D1*
X13658Y19741D1*
X13729D1*
X13801Y19717D1*
X13849Y19669D1*
X13873Y19597D1*
Y19550D1*
X13849Y19478D1*
X13801Y19430D1*
X13729Y19406D1*
X13658D1*
X13586Y19430D1*
X13562Y19454D1*
X13538Y19502D1*
X14147Y19908D2*
X14075Y19884D1*
X14051Y19837D1*
Y19788D1*
X14075Y19741D1*
X14123Y19717D1*
X14219Y19693D1*
X14290Y19669D1*
X14338Y19621D1*
X14362Y19573D1*
Y19502D1*
X14338Y19454D1*
X14314Y19430D1*
X14242Y19406D1*
X14147D1*
X14075Y19430D1*
X14051Y19454D1*
X14027Y19502D1*
Y19573D1*
X14051Y19621D1*
X14099Y19669D1*
X14170Y19693D1*
X14266Y19717D1*
X14314Y19741D1*
X14338Y19788D1*
Y19837D1*
X14314Y19884D1*
X14242Y19908D1*
X14147D1*
X14516Y19812D2*
X14564Y19837D1*
X14636Y19908D1*
Y19406D1*
X14886D2*
X15125Y19908D1*
X14790D1*
X2813Y8750D2*
X2788Y8798D1*
X2717Y8870D1*
X3219D1*
X2717Y9359D2*
X3219D1*
X2717Y9024D1*
X3219D1*
X2717Y9800D2*
Y9561D1*
X2932Y9538D1*
X2908Y9561D1*
X2884Y9633D1*
Y9705D1*
X2908Y9776D1*
X2956Y9825D1*
X3028Y9848D1*
X3075D1*
X3147Y9825D1*
X3195Y9776D1*
X3219Y9705D1*
Y9633D1*
X3195Y9561D1*
X3171Y9538D1*
X3123Y9513D1*
X2717Y10122D2*
X2741Y10051D1*
X2788Y10026D1*
X2837D1*
X2884Y10051D1*
X2908Y10098D1*
X2932Y10194D1*
X2956Y10266D1*
X3004Y10313D1*
X3052Y10337D1*
X3123D1*
X3171Y10313D1*
X3195Y10290D1*
X3219Y10218D1*
Y10122D1*
X3195Y10051D1*
X3171Y10026D1*
X3123Y10003D1*
X3052D1*
X3004Y10026D1*
X2956Y10075D1*
X2932Y10146D1*
X2908Y10241D1*
X2884Y10290D1*
X2837Y10313D1*
X2788D1*
X2741Y10290D1*
X2717Y10218D1*
Y10122D1*
X2813Y10491D2*
X2788Y10540D1*
X2717Y10611D1*
X3219D1*
Y10861D2*
X2717Y11101D1*
Y10766D1*
X24686Y14653D2*
X24806Y14150D1*
X24925Y14653D1*
X25045Y14150D1*
X25164Y14653D1*
X25606Y14581D2*
X25582Y14628D1*
X25510Y14652D1*
X25463D1*
X25391Y14628D1*
X25343Y14556D1*
X25319Y14437D1*
Y14318D1*
X25343Y14222D1*
X25391Y14174D1*
X25463Y14150D1*
X25486D1*
X25558Y14174D1*
X25606Y14222D1*
X25629Y14294D1*
Y14318D1*
X25606Y14389D1*
X25558Y14437D1*
X25486Y14461D1*
X25463D1*
X25391Y14437D1*
X25343Y14389D1*
X25319Y14318D1*
X26071Y14652D2*
X25832D1*
X25808Y14437D1*
X25832Y14461D1*
X25904Y14485D1*
X25975D1*
X26047Y14461D1*
X26095Y14413D1*
X26119Y14341D1*
Y14294D1*
X26095Y14222D1*
X26047Y14174D1*
X25975Y14150D1*
X25904D1*
X25832Y14174D1*
X25808Y14198D1*
X25784Y14246D1*
X26632Y14533D2*
X26608Y14581D1*
X26560Y14629D1*
X26513Y14653D1*
X26417D1*
X26369Y14629D1*
X26321Y14581D1*
X26297Y14533D1*
X26273Y14461D1*
Y14341D1*
X26297Y14270D1*
X26321Y14222D1*
X26369Y14174D1*
X26417Y14150D1*
X26513D1*
X26560Y14174D1*
X26608Y14222D1*
X26632Y14270D1*
X26811Y14533D2*
Y14556D1*
X26834Y14604D1*
X26858Y14628D1*
X26906Y14652D1*
X27002D1*
X27049Y14628D1*
X27073Y14604D1*
X27097Y14556D1*
Y14509D1*
X27073Y14461D1*
X27026Y14389D1*
X26786Y14150D1*
X27121D1*
X27300Y14533D2*
Y14556D1*
X27324Y14604D1*
X27347Y14628D1*
X27396Y14652D1*
X27491D1*
X27539Y14628D1*
X27562Y14604D1*
X27587Y14556D1*
Y14509D1*
X27562Y14461D1*
X27515Y14389D1*
X27276Y14150D1*
X27611D1*
X28100Y14581D2*
X28052Y14629D1*
X27980Y14653D1*
X27885D1*
X27813Y14629D1*
X27765Y14581D1*
Y14533D1*
X27789Y14485D1*
X27813Y14461D1*
X27861Y14438D1*
X28004Y14389D1*
X28052Y14366D1*
X28076Y14341D1*
X28100Y14294D1*
Y14222D1*
X28052Y14174D1*
X27980Y14150D1*
X27885D1*
X27813Y14174D1*
X27765Y14222D1*
X28541Y14581D2*
X28517Y14628D1*
X28446Y14652D1*
X28398D1*
X28326Y14628D1*
X28278Y14556D1*
X28254Y14437D1*
Y14318D1*
X28278Y14222D1*
X28326Y14174D1*
X28398Y14150D1*
X28422D1*
X28493Y14174D1*
X28541Y14222D1*
X28565Y14294D1*
Y14318D1*
X28541Y14389D1*
X28493Y14437D1*
X28422Y14461D1*
X28398D1*
X28326Y14437D1*
X28278Y14389D1*
X28254Y14318D1*
X28887Y14653D2*
Y14150D1*
X28719Y14653D2*
X29054D1*
X29209Y14389D2*
X29424D1*
X29495Y14413D1*
X29520Y14438D1*
X29544Y14485D1*
Y14557D1*
X29520Y14604D1*
X29495Y14629D1*
X29424Y14653D1*
X29209D1*
Y14150D1*
X30057Y14533D2*
X30033Y14581D1*
X29985Y14629D1*
X29937Y14653D1*
X29842D1*
X29794Y14629D1*
X29746Y14581D1*
X29722Y14533D1*
X29698Y14461D1*
Y14341D1*
X29722Y14270D1*
X29746Y14222D1*
X29794Y14174D1*
X29842Y14150D1*
X29937D1*
X29985Y14174D1*
X30033Y14222D1*
X30057Y14270D1*
Y14341D1*
X29937D1*
X30211Y14401D2*
X30487D1*
X30642Y14556D2*
X30690Y14581D1*
X30762Y14652D1*
Y14150D1*
X31155D2*
Y14652D1*
X30916Y14318D1*
X31275D1*
X16472Y20688D2*
X16975Y20808D1*
X16472Y20927D1*
X16975Y21047D1*
X16472Y21167D1*
X16544Y21608D2*
X16497Y21584D1*
X16473Y21512D1*
Y21465D1*
X16497Y21393D1*
X16569Y21345D1*
X16688Y21321D1*
X16807D1*
X16903Y21345D1*
X16951Y21393D1*
X16975Y21465D1*
Y21489D1*
X16951Y21560D1*
X16903Y21608D1*
X16831Y21632D1*
X16807D1*
X16736Y21608D1*
X16688Y21560D1*
X16664Y21489D1*
Y21465D1*
X16688Y21393D1*
X16736Y21345D1*
X16807Y21321D1*
X16473Y22073D2*
Y21834D1*
X16688Y21810D1*
X16664Y21834D1*
X16640Y21906D1*
Y21977D1*
X16664Y22049D1*
X16712Y22097D1*
X16784Y22121D1*
X16831D1*
X16903Y22097D1*
X16951Y22049D1*
X16975Y21977D1*
Y21906D1*
X16951Y21834D1*
X16927Y21810D1*
X16879Y21786D1*
X16592Y22634D2*
X16544Y22610D1*
X16496Y22562D1*
X16472Y22515D1*
Y22419D1*
X16496Y22371D1*
X16544Y22323D1*
X16592Y22299D1*
X16664Y22275D1*
X16784D1*
X16855Y22299D1*
X16903Y22323D1*
X16951Y22371D1*
X16975Y22419D1*
Y22515D1*
X16951Y22562D1*
X16903Y22610D1*
X16855Y22634D1*
X16473Y23075D2*
Y22837D1*
X16688Y22813D1*
X16664Y22837D1*
X16640Y22908D1*
Y22980D1*
X16664Y23052D1*
X16712Y23100D1*
X16784Y23123D1*
X16831D1*
X16903Y23100D1*
X16951Y23052D1*
X16975Y22980D1*
Y22908D1*
X16951Y22837D1*
X16927Y22813D1*
X16879Y22788D1*
X16569Y23278D2*
X16544Y23326D1*
X16473Y23398D1*
X16975D1*
X16472Y23887D2*
X16975D1*
X16472Y23552D1*
X16975D1*
X16544Y24328D2*
X16497Y24305D1*
X16473Y24233D1*
Y24185D1*
X16497Y24113D1*
X16569Y24065D1*
X16688Y24041D1*
X16807D1*
X16903Y24065D1*
X16951Y24113D1*
X16975Y24185D1*
Y24209D1*
X16951Y24280D1*
X16903Y24328D1*
X16831Y24352D1*
X16807D1*
X16736Y24328D1*
X16688Y24280D1*
X16664Y24209D1*
Y24185D1*
X16688Y24113D1*
X16736Y24065D1*
X16807Y24041D1*
X16472Y24674D2*
X16975D1*
X16472Y24506D2*
Y24841D1*
X16736Y24996D2*
Y25211D1*
X16712Y25283D1*
X16687Y25307D1*
X16640Y25331D1*
X16568D1*
X16521Y25307D1*
X16496Y25283D1*
X16472Y25211D1*
Y24996D1*
X16975D1*
X16592Y25844D2*
X16544Y25820D1*
X16496Y25772D1*
X16472Y25724D1*
Y25629D1*
X16496Y25581D1*
X16544Y25533D1*
X16592Y25509D1*
X16664Y25485D1*
X16784D1*
X16855Y25509D1*
X16903Y25533D1*
X16951Y25581D1*
X16975Y25629D1*
Y25724D1*
X16951Y25772D1*
X16903Y25820D1*
X16855Y25844D1*
X16784D1*
Y25724D1*
X16724Y25998D2*
Y26275D1*
X16569Y26429D2*
X16544Y26477D1*
X16473Y26549D1*
X16975D1*
Y26943D2*
X16473D1*
X16807Y26703D1*
Y27062D1*
X46793Y36125D2*
X46601Y36628D1*
X46410Y36125D1*
X46482Y36293D2*
X46721D1*
X47115Y36628D2*
Y36125D1*
X46947Y36628D2*
X47282D1*
X47461Y36508D2*
Y36531D1*
X47485Y36579D1*
X47508Y36603D1*
X47557Y36627D1*
X47652D1*
X47700Y36603D1*
X47723Y36579D1*
X47748Y36531D1*
Y36484D1*
X47723Y36436D1*
X47676Y36364D1*
X47437Y36125D1*
X47772D1*
X48045Y36627D2*
X47974Y36603D1*
X47950Y36556D1*
Y36508D1*
X47974Y36460D1*
X48022Y36436D1*
X48117Y36412D1*
X48189Y36388D1*
X48237Y36340D1*
X48260Y36293D1*
Y36221D1*
X48237Y36173D1*
X48213Y36149D1*
X48141Y36125D1*
X48045D1*
X47974Y36149D1*
X47950Y36173D1*
X47926Y36221D1*
Y36293D1*
X47950Y36340D1*
X47998Y36388D1*
X48069Y36412D1*
X48165Y36436D1*
X48213Y36460D1*
X48237Y36508D1*
Y36556D1*
X48213Y36603D1*
X48141Y36627D1*
X48045D1*
X48773Y36508D2*
X48750Y36556D1*
X48702Y36604D1*
X48654Y36628D1*
X48558D1*
X48510Y36604D1*
X48463Y36556D1*
X48438Y36508D1*
X48415Y36436D1*
Y36316D1*
X48438Y36245D1*
X48463Y36197D1*
X48510Y36149D1*
X48558Y36125D1*
X48654D1*
X48702Y36149D1*
X48750Y36197D1*
X48773Y36245D1*
X48952Y36508D2*
Y36531D1*
X48976Y36579D1*
X49000Y36603D1*
X49048Y36627D1*
X49143D1*
X49191Y36603D1*
X49215Y36579D1*
X49239Y36531D1*
Y36484D1*
X49215Y36436D1*
X49167Y36364D1*
X48928Y36125D1*
X49263D1*
X49704Y36627D2*
X49465D1*
X49441Y36412D1*
X49465Y36436D1*
X49537Y36460D1*
X49608D1*
X49680Y36436D1*
X49728Y36388D1*
X49752Y36316D1*
Y36269D1*
X49728Y36197D1*
X49680Y36149D1*
X49608Y36125D1*
X49537D1*
X49465Y36149D1*
X49441Y36173D1*
X49417Y36221D1*
X50193Y36556D2*
X50170Y36603D1*
X50098Y36627D1*
X50050D1*
X49978Y36603D1*
X49930Y36531D1*
X49906Y36412D1*
Y36293D1*
X49930Y36197D1*
X49978Y36149D1*
X50050Y36125D1*
X50074D1*
X50145Y36149D1*
X50193Y36197D1*
X50217Y36269D1*
Y36293D1*
X50193Y36364D1*
X50145Y36412D1*
X50074Y36436D1*
X50050D1*
X49978Y36412D1*
X49930Y36364D1*
X49906Y36293D1*
X50371Y36376D2*
X50648D1*
X50802Y36531D2*
X50850Y36556D1*
X50922Y36627D1*
Y36125D1*
X51363Y36627D2*
X51125D1*
X51101Y36412D1*
X51125Y36436D1*
X51196Y36460D1*
X51268D1*
X51340Y36436D1*
X51388Y36388D1*
X51411Y36316D1*
Y36269D1*
X51388Y36197D1*
X51340Y36149D1*
X51268Y36125D1*
X51196D1*
X51125Y36149D1*
X51101Y36173D1*
X51077Y36221D1*
X51566Y36364D2*
X51781D1*
X51853Y36388D1*
X51877Y36413D1*
X51901Y36460D1*
Y36532D1*
X51877Y36579D1*
X51853Y36604D1*
X51781Y36628D1*
X51566D1*
Y36125D1*
X52055Y36628D2*
Y36269D1*
X52079Y36197D1*
X52127Y36149D1*
X52199Y36125D1*
X52246D1*
X52318Y36149D1*
X52366Y36197D1*
X52390Y36269D1*
Y36628D1*
X25472Y23186D2*
X25975Y23306D1*
X25472Y23425D1*
X25975Y23545D1*
X25472Y23664D1*
X25544Y24106D2*
X25497Y24082D1*
X25473Y24010D1*
Y23963D1*
X25497Y23891D1*
X25569Y23843D1*
X25688Y23819D1*
X25807D1*
X25903Y23843D1*
X25951Y23891D1*
X25975Y23963D1*
Y23986D1*
X25951Y24058D1*
X25903Y24106D1*
X25831Y24129D1*
X25807D1*
X25736Y24106D1*
X25688Y24058D1*
X25664Y23986D1*
Y23963D1*
X25688Y23891D1*
X25736Y23843D1*
X25807Y23819D1*
X25473Y24571D2*
Y24332D1*
X25688Y24308D1*
X25664Y24332D1*
X25640Y24404D1*
Y24475D1*
X25664Y24547D1*
X25712Y24595D1*
X25784Y24619D1*
X25831D1*
X25903Y24595D1*
X25951Y24547D1*
X25975Y24475D1*
Y24404D1*
X25951Y24332D1*
X25927Y24308D1*
X25879Y24284D1*
X25592Y25132D2*
X25544Y25108D1*
X25496Y25060D1*
X25472Y25013D1*
Y24917D1*
X25496Y24869D1*
X25544Y24821D1*
X25592Y24797D1*
X25664Y24773D1*
X25784D1*
X25855Y24797D1*
X25903Y24821D1*
X25951Y24869D1*
X25975Y24917D1*
Y25013D1*
X25951Y25060D1*
X25903Y25108D1*
X25855Y25132D1*
X25473Y25430D2*
X25497Y25358D1*
X25569Y25310D1*
X25688Y25286D1*
X25760D1*
X25879Y25310D1*
X25951Y25358D1*
X25975Y25430D1*
Y25478D1*
X25951Y25549D1*
X25879Y25597D1*
X25760Y25621D1*
X25688D1*
X25569Y25597D1*
X25497Y25549D1*
X25473Y25478D1*
Y25430D1*
X25569Y25597D2*
X25879Y25310D1*
X25592Y25800D2*
X25569D1*
X25521Y25824D1*
X25497Y25847D1*
X25473Y25896D1*
Y25991D1*
X25497Y26039D1*
X25521Y26062D1*
X25569Y26087D1*
X25616D1*
X25664Y26062D1*
X25736Y26015D1*
X25975Y25776D1*
Y26111D1*
X25544Y26600D2*
X25496Y26552D1*
X25472Y26480D1*
Y26385D1*
X25496Y26313D1*
X25544Y26265D1*
X25592D1*
X25640Y26289D1*
X25664Y26313D1*
X25687Y26361D1*
X25736Y26504D1*
X25759Y26552D1*
X25784Y26576D1*
X25831Y26600D1*
X25903D1*
X25951Y26552D1*
X25975Y26480D1*
Y26385D1*
X25951Y26313D1*
X25903Y26265D1*
X25544Y27041D2*
X25497Y27017D1*
X25473Y26946D1*
Y26898D1*
X25497Y26826D1*
X25569Y26778D1*
X25688Y26754D1*
X25807D1*
X25903Y26778D1*
X25951Y26826D1*
X25975Y26898D1*
Y26922D1*
X25951Y26993D1*
X25903Y27041D1*
X25831Y27065D1*
X25807D1*
X25736Y27041D1*
X25688Y26993D1*
X25664Y26922D1*
Y26898D1*
X25688Y26826D1*
X25736Y26778D1*
X25807Y26754D1*
X25472Y27387D2*
X25975D1*
X25472Y27219D2*
Y27554D1*
X25736Y27709D2*
Y27924D1*
X25712Y27995D1*
X25687Y28020D1*
X25640Y28044D1*
X25568D1*
X25521Y28020D1*
X25496Y27995D1*
X25472Y27924D1*
Y27709D1*
X25975D1*
X25592Y28557D2*
X25544Y28533D1*
X25496Y28485D1*
X25472Y28437D1*
Y28342D1*
X25496Y28294D1*
X25544Y28246D1*
X25592Y28222D1*
X25664Y28198D1*
X25784D1*
X25855Y28222D1*
X25903Y28246D1*
X25951Y28294D1*
X25975Y28342D1*
Y28437D1*
X25951Y28485D1*
X25903Y28533D1*
X25855Y28557D1*
X25784D1*
Y28437D1*
X25724Y28711D2*
Y28987D1*
X25569Y29142D2*
X25544Y29190D1*
X25473Y29262D1*
X25975D1*
Y29655D2*
X25473D1*
X25807Y29416D1*
Y29775D1*
X49345Y13365D2*
X48842Y13173D1*
X49345Y12982D1*
X49177Y13054D2*
Y13293D1*
X48914Y13854D2*
X48866Y13807D1*
X48842Y13735D1*
Y13639D1*
X48866Y13568D1*
X48914Y13519D1*
X48962D1*
X49010Y13544D1*
X49034Y13568D1*
X49057Y13615D1*
X49106Y13759D1*
X49129Y13807D1*
X49154Y13831D1*
X49201Y13854D1*
X49273D1*
X49321Y13807D1*
X49345Y13735D1*
Y13639D1*
X49321Y13568D1*
X49273Y13519D1*
X48914Y14296D2*
X48867Y14272D1*
X48843Y14200D1*
Y14153D1*
X48867Y14081D1*
X48939Y14033D1*
X49058Y14009D1*
X49177D1*
X49273Y14033D1*
X49321Y14081D1*
X49345Y14153D1*
Y14176D1*
X49321Y14248D1*
X49273Y14296D1*
X49201Y14319D1*
X49177D1*
X49106Y14296D1*
X49058Y14248D1*
X49034Y14176D1*
Y14153D1*
X49058Y14081D1*
X49106Y14033D1*
X49177Y14009D1*
X48962Y14833D2*
X48914Y14809D1*
X48866Y14761D1*
X48842Y14713D1*
Y14618D1*
X48866Y14569D1*
X48914Y14522D1*
X48962Y14498D1*
X49034Y14474D1*
X49154D1*
X49225Y14498D1*
X49273Y14522D1*
X49321Y14569D1*
X49345Y14618D1*
Y14713D1*
X49321Y14761D1*
X49273Y14809D1*
X49225Y14833D1*
X48914Y15274D2*
X48867Y15250D1*
X48843Y15178D1*
Y15131D1*
X48867Y15059D1*
X48939Y15011D1*
X49058Y14987D1*
X49177D1*
X49273Y15011D1*
X49321Y15059D1*
X49345Y15131D1*
Y15154D1*
X49321Y15226D1*
X49273Y15274D1*
X49201Y15298D1*
X49177D1*
X49106Y15274D1*
X49058Y15226D1*
X49034Y15154D1*
Y15131D1*
X49058Y15059D1*
X49106Y15011D1*
X49177Y14987D1*
X48962Y15476D2*
X48939D1*
X48891Y15500D1*
X48867Y15524D1*
X48843Y15572D1*
Y15667D1*
X48867Y15715D1*
X48891Y15739D1*
X48939Y15763D1*
X48986D1*
X49034Y15739D1*
X49106Y15691D1*
X49345Y15452D1*
Y15787D1*
X48962Y15966D2*
X48939D1*
X48891Y15989D1*
X48867Y16013D1*
X48843Y16061D1*
Y16157D1*
X48867Y16204D1*
X48891Y16228D1*
X48939Y16252D1*
X48986D1*
X49034Y16228D1*
X49106Y16181D1*
X49345Y15941D1*
Y16276D1*
X48843Y16717D2*
Y16479D1*
X49058Y16455D1*
X49034Y16479D1*
X49010Y16551D1*
Y16622D1*
X49034Y16694D1*
X49082Y16742D1*
X49154Y16766D1*
X49201D1*
X49273Y16742D1*
X49321Y16694D1*
X49345Y16622D1*
Y16551D1*
X49321Y16479D1*
X49297Y16455D1*
X49249Y16431D1*
X48914Y17207D2*
X48867Y17183D1*
X48843Y17111D1*
Y17064D1*
X48867Y16992D1*
X48939Y16944D1*
X49058Y16920D1*
X49177D1*
X49273Y16944D1*
X49321Y16992D1*
X49345Y17064D1*
Y17087D1*
X49321Y17159D1*
X49273Y17207D1*
X49201Y17231D1*
X49177D1*
X49106Y17207D1*
X49058Y17159D1*
X49034Y17087D1*
Y17064D1*
X49058Y16992D1*
X49106Y16944D1*
X49177Y16920D1*
X49345Y17768D2*
X48842Y17576D1*
X49345Y17385D1*
X49177Y17457D2*
Y17696D1*
X12544Y28901D2*
X12041D1*
X12544Y28710D1*
X12041Y28519D1*
X12544D1*
Y29439D2*
X12041Y29247D1*
X12544Y29056D1*
X12376Y29127D2*
Y29367D1*
X12041Y29593D2*
X12544Y29928D1*
X12041D2*
X12544Y29593D1*
X12161Y30107D2*
X12138D1*
X12089Y30130D1*
X12066Y30154D1*
X12042Y30202D1*
Y30298D1*
X12066Y30345D1*
X12089Y30369D1*
X12138Y30393D1*
X12185D1*
X12233Y30369D1*
X12304Y30322D1*
X12544Y30082D1*
Y30417D1*
X12042Y30715D2*
X12066Y30643D1*
X12138Y30595D1*
X12257Y30572D1*
X12329D1*
X12448Y30595D1*
X12520Y30643D1*
X12544Y30715D1*
Y30763D1*
X12520Y30835D1*
X12448Y30882D1*
X12329Y30906D1*
X12257D1*
X12138Y30882D1*
X12066Y30835D1*
X12042Y30763D1*
Y30715D1*
X12138Y30882D2*
X12448Y30595D1*
X12161Y31085D2*
X12138D1*
X12089Y31109D1*
X12066Y31133D1*
X12042Y31181D1*
Y31276D1*
X12066Y31324D1*
X12089Y31348D1*
X12138Y31372D1*
X12185D1*
X12233Y31348D1*
X12304Y31300D1*
X12544Y31061D1*
Y31396D1*
X12161Y31909D2*
X12113Y31885D1*
X12065Y31837D1*
X12041Y31790D1*
Y31694D1*
X12065Y31646D1*
X12113Y31598D1*
X12161Y31574D1*
X12233Y31550D1*
X12353D1*
X12424Y31574D1*
X12472Y31598D1*
X12519Y31646D1*
X12544Y31694D1*
Y31790D1*
X12519Y31837D1*
X12472Y31885D1*
X12424Y31909D1*
X12304Y32063D2*
Y32279D1*
X12281Y32350D1*
X12256Y32374D1*
X12209Y32398D1*
X12137D1*
X12089Y32374D1*
X12065Y32350D1*
X12041Y32279D1*
Y32063D1*
X12544D1*
X12041Y32863D2*
Y32553D1*
X12544D1*
Y32863D1*
X12281Y32553D2*
Y32744D1*
X28185Y4732D2*
Y4230D1*
X28520Y4732D2*
Y4230D1*
X28185Y4493D2*
X28520D1*
X28674Y4732D2*
Y4230D1*
X28842D1*
X28914Y4254D1*
X28962Y4302D1*
X28986Y4350D1*
X29009Y4421D1*
Y4541D1*
X28986Y4613D1*
X28962Y4660D1*
X28914Y4708D1*
X28842Y4732D1*
X28674D1*
X29164Y4493D2*
X29379D1*
X29451Y4517D1*
X29475Y4541D1*
X29499Y4589D1*
Y4637D1*
X29475Y4684D1*
X29451Y4708D1*
X29379Y4732D1*
X29164D1*
Y4230D1*
X29331Y4493D2*
X29499Y4230D1*
X29653Y4481D2*
X29929D1*
X30108Y4612D2*
Y4636D1*
X30132Y4684D1*
X30156Y4708D1*
X30204Y4732D1*
X30299D1*
X30347Y4708D1*
X30371Y4684D1*
X30395Y4636D1*
Y4589D1*
X30371Y4540D1*
X30323Y4469D1*
X30084Y4230D1*
X30419D1*
X30573Y4565D2*
X30836Y4230D1*
Y4565D2*
X30573Y4230D1*
X31015Y4612D2*
Y4636D1*
X31039Y4684D1*
X31062Y4708D1*
X31111Y4732D1*
X31206D1*
X31254Y4708D1*
X31277Y4684D1*
X31302Y4636D1*
Y4589D1*
X31277Y4540D1*
X31230Y4469D1*
X30991Y4230D1*
X31326D1*
X31767Y4732D2*
X31528D1*
X31504Y4517D1*
X31528Y4540D1*
X31600Y4565D1*
X31671D1*
X31743Y4540D1*
X31791Y4493D1*
X31815Y4421D1*
Y4374D1*
X31791Y4302D1*
X31743Y4254D1*
X31671Y4230D1*
X31600D1*
X31528Y4254D1*
X31504Y4278D1*
X31480Y4325D1*
X13504Y1793D2*
X13266D1*
X13242Y1578D1*
X13266Y1602D1*
X13338Y1627D1*
X13409D1*
X13481Y1602D1*
X13529Y1555D1*
X13553Y1483D1*
Y1435D1*
X13529Y1363D1*
X13481Y1315D1*
X13409Y1292D1*
X13338D1*
X13266Y1315D1*
X13242Y1340D1*
X13218Y1387D1*
X13707Y1794D2*
X13898Y1292D1*
X14089Y1794D1*
X4139Y16251D2*
Y16275D1*
X4163Y16323D1*
X4186Y16347D1*
X4234Y16371D1*
X4330D1*
X4378Y16347D1*
X4401Y16323D1*
X4426Y16275D1*
Y16227D1*
X4401Y16179D1*
X4354Y16108D1*
X4114Y15869D1*
X4449D1*
X4628Y16251D2*
Y16275D1*
X4652Y16323D1*
X4676Y16347D1*
X4724Y16371D1*
X4819D1*
X4867Y16347D1*
X4891Y16323D1*
X4915Y16275D1*
Y16227D1*
X4891Y16179D1*
X4843Y16108D1*
X4604Y15869D1*
X4939D1*
X5093Y16204D2*
Y15964D1*
X5117Y15893D1*
X5165Y15869D1*
X5237D1*
X5284Y15893D1*
X5356Y15964D1*
Y16204D2*
Y15869D1*
X5511Y16371D2*
Y15869D1*
X5846Y16371D2*
Y15869D1*
X5511Y16132D2*
X5846D1*
X13201Y22857D2*
X13464D1*
X13320Y22665D1*
X13392D1*
X13440Y22642D1*
X13464Y22618D1*
X13488Y22546D1*
Y22499D1*
X13464Y22427D1*
X13416Y22379D1*
X13344Y22355D1*
X13272D1*
X13201Y22379D1*
X13177Y22403D1*
X13153Y22450D1*
X13666Y22403D2*
X13642Y22379D1*
X13666Y22355D1*
X13690Y22379D1*
X13666Y22403D1*
X13893Y22857D2*
X14155D1*
X14012Y22665D1*
X14084D1*
X14132Y22642D1*
X14155Y22618D1*
X14180Y22546D1*
Y22499D1*
X14155Y22427D1*
X14108Y22379D1*
X14036Y22355D1*
X13964D1*
X13893Y22379D1*
X13869Y22403D1*
X13845Y22450D1*
X14334Y22857D2*
Y22355D1*
X14573Y22690D2*
X14334Y22450D1*
X14430Y22546D2*
X14597Y22355D1*
X8659Y17112D2*
Y17136D1*
X8683Y17184D1*
X8706Y17208D1*
X8754Y17232D1*
X8850D1*
X8898Y17208D1*
X8921Y17184D1*
X8946Y17136D1*
Y17089D1*
X8921Y17040D1*
X8874Y16969D1*
X8634Y16730D1*
X8969D1*
X9411Y17232D2*
X9172D1*
X9148Y17017D1*
X9172Y17040D1*
X9244Y17065D1*
X9315D1*
X9387Y17040D1*
X9435Y16993D1*
X9459Y16921D1*
Y16874D1*
X9435Y16802D1*
X9387Y16754D1*
X9315Y16730D1*
X9244D1*
X9172Y16754D1*
X9148Y16778D1*
X9124Y16825D1*
X9900Y17232D2*
X9661D1*
X9637Y17017D1*
X9661Y17040D1*
X9733Y17065D1*
X9804D1*
X9876Y17040D1*
X9924Y16993D1*
X9948Y16921D1*
Y16874D1*
X9924Y16802D1*
X9876Y16754D1*
X9804Y16730D1*
X9733D1*
X9661Y16754D1*
X9637Y16778D1*
X9613Y16825D1*
X10102Y17232D2*
Y16730D1*
X10342Y17065D2*
X10102Y16825D1*
X10198Y16921D2*
X10366Y16730D1*
X35451Y18107D2*
X35714D1*
X35570Y17915D1*
X35642D1*
X35690Y17892D1*
X35714Y17868D1*
X35738Y17796D1*
Y17749D1*
X35714Y17677D1*
X35666Y17629D1*
X35594Y17605D1*
X35522D1*
X35451Y17629D1*
X35427Y17653D1*
X35403Y17700D1*
X35916Y17653D2*
X35892Y17629D1*
X35916Y17605D1*
X35940Y17629D1*
X35916Y17653D1*
X36143Y18107D2*
X36405D1*
X36262Y17915D1*
X36334D1*
X36382Y17892D1*
X36405Y17868D1*
X36430Y17796D1*
Y17749D1*
X36405Y17677D1*
X36358Y17629D1*
X36286Y17605D1*
X36214D1*
X36143Y17629D1*
X36119Y17653D1*
X36095Y17700D1*
X36584Y18107D2*
Y17605D1*
X36823Y17940D2*
X36584Y17700D1*
X36680Y17796D2*
X36847Y17605D1*
X32893Y19326D2*
Y19589D1*
X33085Y19445D1*
Y19517D1*
X33108Y19565D1*
X33132Y19589D1*
X33204Y19613D1*
X33251D1*
X33323Y19589D1*
X33371Y19541D1*
X33395Y19469D1*
Y19397D1*
X33371Y19326D1*
X33347Y19302D1*
X33300Y19278D1*
X33347Y19791D2*
X33371Y19767D1*
X33395Y19791D1*
X33371Y19815D1*
X33347Y19791D1*
X32893Y20018D2*
Y20280D1*
X33085Y20137D1*
Y20209D1*
X33108Y20257D1*
X33132Y20280D1*
X33204Y20305D1*
X33251D1*
X33323Y20280D1*
X33371Y20233D1*
X33395Y20161D1*
Y20089D1*
X33371Y20018D1*
X33347Y19994D1*
X33300Y19970D1*
X32893Y20459D2*
X33395D1*
X33060Y20698D2*
X33300Y20459D1*
X33204Y20555D2*
X33395Y20722D1*
X7367Y6261D2*
X7415Y6285D1*
X7487Y6357D1*
Y5855D1*
X7785Y6357D2*
X7713Y6333D1*
X7665Y6261D1*
X7641Y6142D1*
Y6070D1*
X7665Y5950D1*
X7713Y5879D1*
X7785Y5855D1*
X7833D1*
X7904Y5879D1*
X7952Y5950D1*
X7976Y6070D1*
Y6142D1*
X7952Y6261D1*
X7904Y6333D1*
X7833Y6357D1*
X7785D1*
X7952Y6261D2*
X7665Y5950D1*
X8274Y6357D2*
X8202Y6333D1*
X8154Y6261D1*
X8131Y6142D1*
Y6070D1*
X8154Y5950D1*
X8202Y5879D1*
X8274Y5855D1*
X8322D1*
X8394Y5879D1*
X8441Y5950D1*
X8466Y6070D1*
Y6142D1*
X8441Y6261D1*
X8394Y6333D1*
X8322Y6357D1*
X8274D1*
X8441Y6261D2*
X8154Y5950D1*
X8620Y6357D2*
Y5855D1*
X8859Y6190D2*
X8620Y5950D1*
X8716Y6046D2*
X8883Y5855D1*
X8969Y14855D2*
Y15357D1*
X8730Y15022D1*
X9089D1*
X9243Y15261D2*
X9291Y15285D1*
X9363Y15357D1*
Y14855D1*
X9542Y15237D2*
Y15261D1*
X9566Y15309D1*
X9589Y15333D1*
X9637Y15357D1*
X9733D1*
X9781Y15333D1*
X9804Y15309D1*
X9829Y15261D1*
Y15214D1*
X9804Y15165D1*
X9757Y15094D1*
X9518Y14855D1*
X9852D1*
X10007Y15357D2*
Y14855D1*
X10246Y15190D2*
X10007Y14950D1*
X10102Y15046D2*
X10270Y14855D1*
X8978Y1496D2*
X9193D1*
X9265Y1520D1*
X9289Y1544D1*
X9313Y1591D1*
Y1639D1*
X9289Y1687D1*
X9265Y1711D1*
X9193Y1735D1*
X8978D1*
Y1233D1*
X9146Y1496D2*
X9313Y1233D1*
X9778Y1735D2*
X9468D1*
Y1233D1*
X9778D1*
X9468Y1496D2*
X9659D1*
X10267Y1663D2*
X10220Y1711D1*
X10148Y1735D1*
X10052D1*
X9981Y1711D1*
X9933Y1663D1*
Y1616D1*
X9957Y1567D1*
X9981Y1544D1*
X10028Y1520D1*
X10172Y1472D1*
X10220Y1448D1*
X10244Y1424D1*
X10267Y1376D1*
Y1304D1*
X10220Y1257D1*
X10148Y1233D1*
X10052D1*
X9981Y1257D1*
X9933Y1304D1*
X10732Y1735D2*
X10422D1*
Y1233D1*
X10732D1*
X10422Y1496D2*
X10613D1*
X11054Y1735D2*
Y1233D1*
X10887Y1735D2*
X11222D1*
X-2599Y30574D2*
X-2647Y30527D1*
X-2671Y30455D1*
Y30359D1*
X-2647Y30288D1*
X-2599Y30240D1*
X-2552D1*
X-2504Y30264D1*
X-2480Y30288D1*
X-2456Y30335D1*
X-2408Y30479D1*
X-2384Y30527D1*
X-2360Y30551D1*
X-2313Y30574D1*
X-2241D1*
X-2193Y30527D1*
X-2169Y30455D1*
Y30359D1*
X-2193Y30288D1*
X-2241Y30240D1*
X-2671Y30729D2*
X-2169D1*
Y31016D1*
X-2671Y31170D2*
X-2169D1*
Y31386D1*
X-2193Y31458D1*
X-2217Y31481D1*
X-2264Y31505D1*
X-2336D1*
X-2384Y31481D1*
X-2408Y31458D1*
X-2432Y31386D1*
X-2456Y31458D1*
X-2480Y31481D1*
X-2528Y31505D1*
X-2576D1*
X-2623Y31481D1*
X-2647Y31458D1*
X-2671Y31386D1*
Y31170D1*
X-2432D2*
Y31386D1*
X-2575Y31659D2*
X-2599Y31708D1*
X-2671Y31779D1*
X-2169D1*
X-2551Y31958D2*
X-2575D1*
X-2623Y31982D1*
X-2647Y32006D1*
X-2671Y32054D1*
Y32149D1*
X-2647Y32197D1*
X-2623Y32221D1*
X-2575Y32245D1*
X-2528D1*
X-2479Y32221D1*
X-2408Y32173D1*
X-2169Y31934D1*
Y32269D1*
X-2671Y32542D2*
X-2647Y32471D1*
X-2599Y32447D1*
X-2551D1*
X-2504Y32471D1*
X-2479Y32519D1*
X-2456Y32614D1*
X-2432Y32686D1*
X-2384Y32734D1*
X-2336Y32757D1*
X-2264D1*
X-2217Y32734D1*
X-2193Y32710D1*
X-2169Y32638D1*
Y32542D1*
X-2193Y32471D1*
X-2217Y32447D1*
X-2264Y32423D1*
X-2336D1*
X-2384Y32447D1*
X-2432Y32495D1*
X-2456Y32566D1*
X-2479Y32662D1*
X-2504Y32710D1*
X-2551Y32734D1*
X-2599D1*
X-2647Y32710D1*
X-2671Y32638D1*
Y32542D1*
X-2575Y32912D2*
X-2599Y32960D1*
X-2671Y33032D1*
X-2169D1*
X-2432Y33186D2*
Y33401D1*
X-2456Y33473D1*
X-2480Y33497D1*
X-2528Y33521D1*
X-2576D1*
X-2623Y33497D1*
X-2647Y33473D1*
X-2671Y33401D1*
Y33186D1*
X-2169D1*
X-2432Y33354D2*
X-2169Y33521D1*
X-2671Y33962D2*
Y33724D1*
X-2456Y33700D1*
X-2479Y33724D1*
X-2504Y33795D1*
Y33867D1*
X-2479Y33939D1*
X-2432Y33987D1*
X-2360Y34010D1*
X-2313D1*
X-2241Y33987D1*
X-2193Y33939D1*
X-2169Y33867D1*
Y33795D1*
X-2193Y33724D1*
X-2217Y33700D1*
X-2264Y33676D1*
X3977Y2054D2*
Y1552D1*
X4145D1*
X4217Y1576D1*
X4265Y1623D1*
X4288Y1672D1*
X4312Y1743D1*
Y1863D1*
X4288Y1935D1*
X4265Y1982D1*
X4217Y2030D1*
X4145Y2054D1*
X3977D1*
X4802Y1982D2*
X4754Y2030D1*
X4682Y2054D1*
X4587D1*
X4515Y2030D1*
X4467Y1982D1*
Y1935D1*
X4491Y1887D1*
X4515Y1863D1*
X4562Y1839D1*
X4706Y1791D1*
X4754Y1767D1*
X4778Y1743D1*
X4802Y1695D1*
Y1623D1*
X4754Y1576D1*
X4682Y1552D1*
X4587D1*
X4515Y1576D1*
X4467Y1623D1*
X4956Y1958D2*
X5004Y1982D1*
X5076Y2053D1*
Y1552D1*
X5350Y2053D2*
X5278Y2030D1*
X5254Y1982D1*
Y1934D1*
X5278Y1887D1*
X5326Y1862D1*
X5422Y1838D1*
X5493Y1815D1*
X5541Y1767D1*
X5565Y1719D1*
Y1647D1*
X5541Y1600D1*
X5517Y1575D1*
X5445Y1552D1*
X5350D1*
X5278Y1575D1*
X5254Y1600D1*
X5230Y1647D1*
Y1719D1*
X5254Y1767D1*
X5302Y1815D1*
X5373Y1838D1*
X5469Y1862D1*
X5517Y1887D1*
X5541Y1934D1*
Y1982D1*
X5517Y2030D1*
X5445Y2053D1*
X5350D1*
X5719Y1958D2*
X5767Y1982D1*
X5839Y2053D1*
Y1552D1*
X6041Y2053D2*
X6304D1*
X6161Y1862D1*
X6233D1*
X6280Y1838D1*
X6304Y1815D1*
X6328Y1743D1*
Y1695D1*
X6304Y1623D1*
X6256Y1575D1*
X6185Y1552D1*
X6113D1*
X6041Y1575D1*
X6018Y1600D1*
X5993Y1647D1*
X6483Y1803D2*
X6759D1*
X6913Y1958D2*
X6962Y1982D1*
X7033Y2053D1*
Y1552D1*
X7475Y2053D2*
X7236D1*
X7212Y1838D1*
X7236Y1862D1*
X7308Y1887D1*
X7379D1*
X7451Y1862D1*
X7499Y1815D1*
X7523Y1743D1*
Y1695D1*
X7499Y1623D1*
X7451Y1575D1*
X7379Y1552D1*
X7308D1*
X7236Y1575D1*
X7212Y1600D1*
X7188Y1647D1*
X42925Y9956D2*
X42877Y10004D1*
X42805Y10028D1*
X42710D1*
X42638Y10004D1*
X42590Y9956D1*
Y9908D1*
X42614Y9860D1*
X42638Y9836D1*
X42685Y9813D1*
X42829Y9764D1*
X42877Y9741D1*
X42901Y9716D1*
X42925Y9669D1*
Y9597D1*
X42877Y9549D1*
X42805Y9525D1*
X42710D1*
X42638Y9549D1*
X42590Y9597D1*
X43414Y10028D2*
Y9525D1*
X43079Y10028D1*
Y9525D1*
X43664D2*
X43903Y10027D1*
X43568D1*
X44297Y9525D2*
Y10027D1*
X44058Y9693D1*
X44416D1*
X44571Y10028D2*
Y9525D1*
X44906Y10028D2*
Y9525D1*
X44571Y9788D2*
X44906D1*
X45419Y9908D2*
X45395Y9956D1*
X45347Y10004D1*
X45299Y10028D1*
X45204D1*
X45156Y10004D1*
X45108Y9956D1*
X45084Y9908D1*
X45060Y9836D1*
Y9716D1*
X45084Y9645D1*
X45108Y9597D1*
X45156Y9549D1*
X45204Y9525D1*
X45299D1*
X45347Y9549D1*
X45395Y9597D1*
X45419Y9645D1*
X45573Y9931D2*
X45621Y9956D1*
X45693Y10027D1*
Y9525D1*
X45895Y10027D2*
X46158D1*
X46015Y9836D1*
X46087D1*
X46134Y9812D1*
X46158Y9788D1*
X46182Y9716D1*
Y9669D1*
X46158Y9597D1*
X46110Y9549D1*
X46039Y9525D1*
X45967D1*
X45895Y9549D1*
X45872Y9573D1*
X45847Y9621D1*
X46456Y10027D2*
X46385Y10003D1*
X46360Y9956D1*
Y9908D1*
X46385Y9860D1*
X46432Y9836D1*
X46528Y9812D1*
X46600Y9788D1*
X46647Y9740D1*
X46671Y9693D1*
Y9621D1*
X46647Y9573D1*
X46624Y9549D1*
X46552Y9525D1*
X46456D1*
X46385Y9549D1*
X46360Y9573D1*
X46337Y9621D1*
Y9693D1*
X46360Y9740D1*
X46409Y9788D1*
X46480Y9812D1*
X46575Y9836D1*
X46624Y9860D1*
X46647Y9908D1*
Y9956D1*
X46624Y10003D1*
X46552Y10027D1*
X46456D1*
X47160Y10028D2*
Y9525D1*
X46825Y10028D1*
Y9525D1*
X44044Y17686D2*
X43996Y17639D1*
X43972Y17567D1*
Y17471D1*
X43996Y17400D1*
X44044Y17351D1*
X44092D1*
X44140Y17376D1*
X44164Y17400D1*
X44187Y17447D1*
X44236Y17591D1*
X44259Y17639D1*
X44284Y17663D1*
X44331Y17686D1*
X44403D1*
X44451Y17639D1*
X44475Y17567D1*
Y17471D1*
X44451Y17400D1*
X44403Y17351D1*
X43972Y18176D2*
X44475D1*
X43972Y17841D1*
X44475D1*
Y18426D2*
X43973Y18665D1*
Y18330D1*
X44475Y19059D2*
X43973D1*
X44307Y18819D1*
Y19178D1*
X43972Y19333D2*
X44475D1*
X43972Y19667D2*
X44475D1*
X44212Y19333D2*
Y19667D1*
X44092Y20181D2*
X44044Y20157D1*
X43996Y20109D1*
X43972Y20061D1*
Y19966D1*
X43996Y19917D1*
X44044Y19870D1*
X44092Y19846D1*
X44164Y19822D1*
X44284D1*
X44355Y19846D1*
X44403Y19870D1*
X44451Y19917D1*
X44475Y19966D1*
Y20061D1*
X44451Y20109D1*
X44403Y20157D1*
X44355Y20181D1*
X43973Y20383D2*
Y20646D1*
X44164Y20502D1*
Y20574D1*
X44188Y20622D1*
X44212Y20646D1*
X44284Y20670D1*
X44331D1*
X44403Y20646D1*
X44451Y20598D1*
X44475Y20526D1*
Y20454D1*
X44451Y20383D1*
X44427Y20359D1*
X44379Y20335D1*
X43973Y20968D2*
X43997Y20896D1*
X44069Y20848D1*
X44188Y20824D1*
X44260D1*
X44379Y20848D1*
X44451Y20896D1*
X44475Y20968D1*
Y21016D1*
X44451Y21087D1*
X44379Y21135D1*
X44260Y21159D1*
X44188D1*
X44069Y21135D1*
X43997Y21087D1*
X43973Y21016D1*
Y20968D1*
X44069Y21135D2*
X44379Y20848D1*
X43972Y21649D2*
X44475D1*
X43972Y21314D1*
X44475D1*
X38794Y17686D2*
X38746Y17639D1*
X38722Y17567D1*
Y17471D1*
X38746Y17400D1*
X38794Y17351D1*
X38842D1*
X38890Y17376D1*
X38914Y17400D1*
X38937Y17447D1*
X38986Y17591D1*
X39009Y17639D1*
X39034Y17663D1*
X39081Y17686D1*
X39153D1*
X39201Y17639D1*
X39225Y17567D1*
Y17471D1*
X39201Y17400D1*
X39153Y17351D1*
X38722Y18176D2*
X39225D1*
X38722Y17841D1*
X39225D1*
Y18426D2*
X38723Y18665D1*
Y18330D1*
X39225Y19059D2*
X38723D1*
X39057Y18819D1*
Y19178D1*
X38722Y19333D2*
X39225D1*
X38722Y19667D2*
X39225D1*
X38962Y19333D2*
Y19667D1*
X38842Y20181D2*
X38794Y20157D1*
X38746Y20109D1*
X38722Y20061D1*
Y19966D1*
X38746Y19917D1*
X38794Y19870D1*
X38842Y19846D1*
X38914Y19822D1*
X39034D1*
X39105Y19846D1*
X39153Y19870D1*
X39201Y19917D1*
X39225Y19966D1*
Y20061D1*
X39201Y20109D1*
X39153Y20157D1*
X39105Y20181D1*
X38723Y20479D2*
X38747Y20407D1*
X38819Y20359D1*
X38938Y20335D1*
X39010D1*
X39129Y20359D1*
X39201Y20407D1*
X39225Y20479D1*
Y20526D1*
X39201Y20598D1*
X39129Y20646D1*
X39010Y20670D1*
X38938D1*
X38819Y20646D1*
X38747Y20598D1*
X38723Y20526D1*
Y20479D1*
X38819Y20646D2*
X39129Y20359D1*
X38723Y20968D2*
X38747Y20896D1*
X38819Y20848D1*
X38938Y20824D1*
X39010D1*
X39129Y20848D1*
X39201Y20896D1*
X39225Y20968D1*
Y21016D1*
X39201Y21087D1*
X39129Y21135D1*
X39010Y21159D1*
X38938D1*
X38819Y21135D1*
X38747Y21087D1*
X38723Y21016D1*
Y20968D1*
X38819Y21135D2*
X39129Y20848D1*
X38722Y21649D2*
X39225D1*
X38722Y21314D1*
X39225D1*
X6665Y13456D2*
Y12953D1*
X6952D1*
X7274Y13456D2*
Y12953D1*
X7106Y13456D2*
X7441D1*
X7596Y13360D2*
X7644Y13384D1*
X7716Y13455D1*
Y12953D1*
X7918Y13455D2*
X8181D1*
X8037Y13264D1*
X8109D1*
X8157Y13240D1*
X8181Y13216D1*
X8205Y13145D1*
Y13097D1*
X8181Y13025D1*
X8133Y12977D1*
X8061Y12953D1*
X7989D1*
X7918Y12977D1*
X7894Y13001D1*
X7870Y13049D1*
X8503Y13455D2*
X8431Y13431D1*
X8383Y13360D1*
X8359Y13240D1*
Y13168D1*
X8383Y13049D1*
X8431Y12977D1*
X8503Y12953D1*
X8551D1*
X8622Y12977D1*
X8670Y13049D1*
X8694Y13168D1*
Y13240D1*
X8670Y13360D1*
X8622Y13431D1*
X8551Y13455D1*
X8503D1*
X8670Y13360D2*
X8383Y13049D1*
X8897Y13455D2*
X9159D1*
X9016Y13264D1*
X9088D1*
X9136Y13240D1*
X9159Y13216D1*
X9184Y13145D1*
Y13097D1*
X9159Y13025D1*
X9112Y12977D1*
X9040Y12953D1*
X8968D1*
X8897Y12977D1*
X8873Y13001D1*
X8849Y13049D1*
X9697Y13336D2*
X9673Y13384D1*
X9625Y13432D1*
X9577Y13456D1*
X9482D1*
X9434Y13432D1*
X9386Y13384D1*
X9362Y13336D1*
X9338Y13265D1*
Y13145D1*
X9362Y13073D1*
X9386Y13025D1*
X9434Y12978D1*
X9482Y12953D1*
X9577D1*
X9625Y12978D1*
X9673Y13025D1*
X9697Y13073D1*
X10186Y13456D2*
Y12953D1*
X9851Y13456D1*
Y12953D1*
X10460Y13455D2*
X10389Y13431D1*
X10364Y13384D1*
Y13336D1*
X10389Y13288D1*
X10436Y13264D1*
X10532Y13240D1*
X10604Y13216D1*
X10651Y13168D1*
X10675Y13121D1*
Y13049D1*
X10651Y13001D1*
X10627Y12977D1*
X10555Y12953D1*
X10460D1*
X10389Y12977D1*
X10364Y13001D1*
X10340Y13049D1*
Y13121D1*
X10364Y13168D1*
X10412Y13216D1*
X10484Y13240D1*
X10579Y13264D1*
X10627Y13288D1*
X10651Y13336D1*
Y13384D1*
X10627Y13431D1*
X10555Y13455D1*
X10460D1*
X10829Y13204D2*
X11106D1*
X11547Y13455D2*
X11308D1*
X11284Y13240D1*
X11308Y13264D1*
X11380Y13288D1*
X11451D1*
X11523Y13264D1*
X11571Y13216D1*
X11595Y13145D1*
Y13097D1*
X11571Y13025D1*
X11523Y12977D1*
X11451Y12953D1*
X11380D1*
X11308Y12977D1*
X11284Y13001D1*
X11260Y13049D1*
X5409Y35577D2*
X5457Y35601D1*
X5529Y35673D1*
Y35171D1*
X5707Y35219D2*
X5684Y35195D1*
X5707Y35171D1*
X5732Y35195D1*
X5707Y35219D1*
X6006Y35673D2*
X5934Y35649D1*
X5910Y35601D1*
Y35553D1*
X5934Y35506D1*
X5982Y35481D1*
X6077Y35458D1*
X6149Y35434D1*
X6197Y35386D1*
X6221Y35338D1*
Y35266D1*
X6197Y35219D1*
X6173Y35195D1*
X6101Y35171D1*
X6006D1*
X5934Y35195D1*
X5910Y35219D1*
X5886Y35266D1*
Y35338D1*
X5910Y35386D1*
X5958Y35434D1*
X6029Y35458D1*
X6125Y35481D1*
X6173Y35506D1*
X6197Y35553D1*
Y35601D1*
X6173Y35649D1*
X6101Y35673D1*
X6006D1*
X6614Y35171D2*
Y35673D1*
X6375Y35338D1*
X6734D1*
X6936Y35673D2*
X7199D1*
X7056Y35481D1*
X7127D1*
X7175Y35458D1*
X7199Y35434D1*
X7223Y35362D1*
Y35314D1*
X7199Y35243D1*
X7151Y35195D1*
X7079Y35171D1*
X7007D1*
X6936Y35195D1*
X6912Y35219D1*
X6888Y35266D1*
X7402Y35553D2*
Y35577D1*
X7425Y35625D1*
X7449Y35649D1*
X7497Y35673D1*
X7593D1*
X7640Y35649D1*
X7664Y35625D1*
X7689Y35577D1*
Y35529D1*
X7664Y35481D1*
X7617Y35410D1*
X7377Y35171D1*
X7712D1*
X7867Y35506D2*
Y35171D1*
Y35410D2*
X7939Y35482D1*
X7987Y35506D1*
X8058D1*
X8106Y35482D1*
X8130Y35410D1*
Y35171D1*
Y35410D2*
X8202Y35482D1*
X8250Y35506D1*
X8321D1*
X8369Y35482D1*
X8393Y35410D1*
Y35171D1*
X8548Y35673D2*
Y35171D1*
Y35410D2*
X8620Y35482D1*
X8668Y35506D1*
X8740D1*
X8787Y35482D1*
X8811Y35410D1*
Y35171D1*
X8965Y35506D2*
X9228D1*
X8965Y35171D1*
X9228D1*
X5472Y23136D2*
X5520Y23160D1*
X5592Y23232D1*
Y22730D1*
X5770Y22778D2*
X5746Y22754D1*
X5770Y22730D1*
X5794Y22754D1*
X5770Y22778D1*
X6092Y23232D2*
X6020Y23208D1*
X5972Y23136D1*
X5949Y23017D1*
Y22945D1*
X5972Y22825D1*
X6020Y22754D1*
X6092Y22730D1*
X6140D1*
X6212Y22754D1*
X6259Y22825D1*
X6284Y22945D1*
Y23017D1*
X6259Y23136D1*
X6212Y23208D1*
X6140Y23232D1*
X6092D1*
X6259Y23136D2*
X5972Y22825D1*
X6582Y23232D2*
X6510Y23208D1*
X6462Y23136D1*
X6438Y23017D1*
Y22945D1*
X6462Y22825D1*
X6510Y22754D1*
X6582Y22730D1*
X6629D1*
X6701Y22754D1*
X6749Y22825D1*
X6773Y22945D1*
Y23017D1*
X6749Y23136D1*
X6701Y23208D1*
X6629Y23232D1*
X6582D1*
X6749Y23136D2*
X6462Y22825D1*
X7071Y23232D2*
X6999Y23208D1*
X6951Y23136D1*
X6927Y23017D1*
Y22945D1*
X6951Y22825D1*
X6999Y22754D1*
X7071Y22730D1*
X7118D1*
X7190Y22754D1*
X7238Y22825D1*
X7262Y22945D1*
Y23017D1*
X7238Y23136D1*
X7190Y23208D1*
X7118Y23232D1*
X7071D1*
X7238Y23136D2*
X6951Y22825D1*
X7417Y23065D2*
Y22730D1*
Y22969D2*
X7488Y23041D1*
X7536Y23065D1*
X7608D1*
X7656Y23041D1*
X7680Y22969D1*
Y22730D1*
Y22969D2*
X7751Y23041D1*
X7800Y23065D1*
X7871D1*
X7919Y23041D1*
X7943Y22969D1*
Y22730D1*
X8098Y23232D2*
Y22730D1*
Y22969D2*
X8170Y23041D1*
X8218Y23065D1*
X8289D1*
X8337Y23041D1*
X8361Y22969D1*
Y22730D1*
X8515Y23065D2*
X8778D1*
X8515Y22730D1*
X8778D1*
X13106Y8533D2*
X13083D1*
X13034Y8556D1*
X13011Y8580D1*
X12987Y8628D1*
Y8724D1*
X13011Y8771D1*
X13034Y8795D1*
X13083Y8819D1*
X13130D1*
X13178Y8795D1*
X13249Y8748D1*
X13489Y8508D1*
Y8843D1*
X12986Y9333D2*
X13489D1*
X12986Y8998D1*
X13489D1*
X12987Y9535D2*
Y9798D1*
X13178Y9654D1*
Y9726D1*
X13202Y9774D1*
X13226Y9798D1*
X13298Y9822D1*
X13345D1*
X13417Y9798D1*
X13465Y9750D1*
X13489Y9678D1*
Y9606D1*
X13465Y9535D1*
X13441Y9511D1*
X13393Y9487D1*
X13154Y10287D2*
X13226Y10263D1*
X13274Y10216D1*
X13298Y10144D1*
Y10120D1*
X13274Y10048D1*
X13226Y10001D1*
X13154Y9976D1*
X13130D1*
X13058Y10001D1*
X13011Y10048D1*
X12987Y10120D1*
Y10144D1*
X13011Y10216D1*
X13058Y10263D1*
X13154Y10287D1*
X13274D1*
X13393Y10263D1*
X13465Y10216D1*
X13489Y10144D1*
Y10096D1*
X13465Y10024D1*
X13417Y10001D1*
X12987Y10585D2*
X13011Y10514D1*
X13083Y10466D1*
X13202Y10442D1*
X13274D1*
X13393Y10466D1*
X13465Y10514D1*
X13489Y10585D1*
Y10633D1*
X13465Y10705D1*
X13393Y10752D1*
X13274Y10777D1*
X13202D1*
X13083Y10752D1*
X13011Y10705D1*
X12987Y10633D1*
Y10585D1*
X13083Y10752D2*
X13393Y10466D1*
X13058Y11218D2*
X13011Y11194D1*
X12987Y11122D1*
Y11075D1*
X13011Y11003D1*
X13083Y10955D1*
X13202Y10931D1*
X13321D1*
X13417Y10955D1*
X13465Y11003D1*
X13489Y11075D1*
Y11099D1*
X13465Y11170D1*
X13417Y11218D1*
X13345Y11242D1*
X13321D1*
X13249Y11218D1*
X13202Y11170D1*
X13178Y11099D1*
Y11075D1*
X13202Y11003D1*
X13249Y10955D1*
X13321Y10931D1*
X10364Y6861D2*
X10340Y6909D1*
X10268Y6981D1*
X10770D1*
X10268Y7136D2*
X10770D1*
X10435Y7375D2*
X10675Y7136D1*
X10579Y7231D2*
X10770Y7399D1*
X21400Y1024D2*
D63*
Y1626D1*
X21171Y1024D1*
X20941Y1626D1*
Y1024D1*
X21930Y1426D2*
Y1024D1*
Y1339D2*
X21873Y1397D1*
X21815Y1426D1*
X21729D1*
X21672Y1397D1*
X21615Y1339D1*
X21586Y1253D1*
Y1196D1*
X21615Y1110D1*
X21672Y1053D1*
X21729Y1024D1*
X21815D1*
X21873Y1053D1*
X21930Y1110D1*
X22115Y1626D2*
X22144Y1598D1*
X22173Y1626D1*
X22144Y1656D1*
X22115Y1626D1*
X22144Y1426D2*
Y1024D1*
X22358Y1426D2*
Y1024D1*
Y1311D2*
X22444Y1397D1*
X22502Y1426D1*
X22587D1*
X22645Y1397D1*
X22674Y1311D1*
Y1024D1*
X23442Y1626D2*
Y1024D1*
X23701D1*
X23787Y1053D1*
X23816Y1081D1*
X23844Y1138D1*
Y1225D1*
X23816Y1282D1*
X23787Y1311D1*
X23701Y1339D1*
X23787Y1368D1*
X23816Y1397D1*
X23844Y1454D1*
Y1512D1*
X23816Y1569D1*
X23787Y1598D1*
X23701Y1626D1*
X23442D1*
Y1339D2*
X23701D1*
X24173Y1426D2*
X24116Y1397D1*
X24058Y1339D1*
X24029Y1253D1*
Y1196D1*
X24058Y1110D1*
X24116Y1053D1*
X24173Y1024D1*
X24259D1*
X24317Y1053D1*
X24374Y1110D1*
X24403Y1196D1*
Y1253D1*
X24374Y1339D1*
X24317Y1397D1*
X24259Y1426D1*
X24173D1*
X24932D2*
Y1024D1*
Y1339D2*
X24875Y1397D1*
X24818Y1426D1*
X24732D1*
X24674Y1397D1*
X24617Y1339D1*
X24588Y1253D1*
Y1196D1*
X24617Y1110D1*
X24674Y1053D1*
X24732Y1024D1*
X24818D1*
X24875Y1053D1*
X24932Y1110D1*
X25118Y1426D2*
Y1024D1*
Y1253D2*
X25147Y1339D1*
X25204Y1397D1*
X25261Y1426D1*
X25348D1*
X25877Y1626D2*
Y1024D1*
Y1339D2*
X25820Y1397D1*
X25762Y1426D1*
X25676D1*
X25619Y1397D1*
X25561Y1339D1*
X25533Y1253D1*
Y1196D1*
X25561Y1110D1*
X25619Y1053D1*
X25676Y1024D1*
X25762D1*
X25820Y1053D1*
X25877Y1110D1*
X26646Y1426D2*
X26818Y1024D1*
X26990Y1426D1*
X27175Y1511D2*
X27233Y1540D1*
X27319Y1626D1*
Y1024D1*
X27533Y1081D2*
X27504Y1052D1*
X27533Y1024D1*
X27562Y1052D1*
X27533Y1081D1*
X27805Y1626D2*
X28120D1*
X27948Y1396D1*
X28034D1*
X28092Y1368D1*
X28120Y1339D1*
X28149Y1253D1*
Y1196D1*
X28120Y1110D1*
X28063Y1052D1*
X27977Y1024D1*
X27891D1*
X27805Y1052D1*
X27776Y1081D1*
X27747Y1138D1*
X29119Y1784D2*
X29061Y1727D1*
X29004Y1640D1*
X28946Y1526D1*
X28918Y1382D1*
Y1267D1*
X28946Y1124D1*
X29004Y1009D1*
X29061Y923D1*
X29119Y866D1*
X29649Y1339D2*
X29591Y1397D1*
X29533Y1426D1*
X29448D1*
X29390Y1397D1*
X29333Y1339D1*
X29304Y1253D1*
Y1196D1*
X29333Y1110D1*
X29390Y1053D1*
X29448Y1024D1*
X29533D1*
X29591Y1053D1*
X29649Y1110D1*
X29834Y1784D2*
X29892Y1727D1*
X29949Y1640D1*
X30007Y1526D1*
X30035Y1382D1*
Y1267D1*
X30007Y1124D1*
X29949Y1009D1*
X29892Y923D1*
X29834Y866D1*
X30833Y1483D2*
Y1511D1*
X30861Y1569D1*
X30890Y1597D1*
X30947Y1626D1*
X31062D1*
X31119Y1597D1*
X31148Y1569D1*
X31177Y1511D1*
Y1454D1*
X31148Y1396D1*
X31091Y1311D1*
X30804Y1024D1*
X31205D1*
X31563Y1626D2*
X31477Y1597D1*
X31419Y1511D1*
X31391Y1368D1*
Y1282D1*
X31419Y1138D1*
X31477Y1052D1*
X31563Y1024D1*
X31620D1*
X31706Y1052D1*
X31763Y1138D1*
X31793Y1282D1*
Y1368D1*
X31763Y1511D1*
X31706Y1597D1*
X31620Y1626D1*
X31563D1*
X31763Y1511D2*
X31419Y1138D1*
X31978Y1511D2*
X32036Y1540D1*
X32122Y1626D1*
Y1024D1*
X32651Y1540D2*
X32623Y1597D1*
X32537Y1626D1*
X32480D1*
X32393Y1597D1*
X32336Y1511D1*
X32307Y1368D1*
Y1225D1*
X32336Y1110D1*
X32393Y1052D1*
X32480Y1024D1*
X32508D1*
X32594Y1052D1*
X32651Y1110D1*
X32680Y1196D1*
Y1225D1*
X32651Y1311D1*
X32594Y1368D1*
X32508Y1396D1*
X32480D1*
X32393Y1368D1*
X32336Y1311D1*
X32307Y1225D1*
X33448Y1311D2*
X33707D1*
X33793Y1339D1*
X33822Y1368D1*
X33850Y1426D1*
Y1512D1*
X33822Y1569D1*
X33793Y1598D1*
X33707Y1626D1*
X33448D1*
Y1024D1*
X34036Y1253D2*
X34380D1*
Y1311D1*
X34351Y1368D1*
X34323Y1397D1*
X34265Y1426D1*
X34179D1*
X34122Y1397D1*
X34064Y1339D1*
X34036Y1253D1*
Y1196D1*
X34064Y1110D1*
X34122Y1053D1*
X34179Y1024D1*
X34265D1*
X34323Y1053D1*
X34380Y1110D1*
X34651Y1626D2*
Y1138D1*
X34680Y1053D1*
X34737Y1024D1*
X34794D1*
X34565Y1426D2*
X34766D1*
X34980Y1253D2*
X35324D1*
Y1311D1*
X35295Y1368D1*
X35267Y1397D1*
X35209Y1426D1*
X35123D1*
X35066Y1397D1*
X35008Y1339D1*
X34980Y1253D1*
Y1196D1*
X35008Y1110D1*
X35066Y1053D1*
X35123Y1024D1*
X35209D1*
X35267Y1053D1*
X35324Y1110D1*
X35509Y1426D2*
Y1024D1*
Y1253D2*
X35538Y1339D1*
X35595Y1397D1*
X35653Y1426D1*
X35739D1*
X36910Y1626D2*
Y1024D1*
X36508Y1626D1*
Y1024D1*
X37238Y1426D2*
X37181Y1397D1*
X37124Y1339D1*
X37095Y1253D1*
Y1196D1*
X37124Y1110D1*
X37181Y1053D1*
X37238Y1024D1*
X37325D1*
X37382Y1053D1*
X37439Y1110D1*
X37468Y1196D1*
Y1253D1*
X37439Y1339D1*
X37382Y1397D1*
X37325Y1426D1*
X37238D1*
X37683D2*
X37855Y1024D1*
X37798Y909D1*
X37740Y851D1*
X37683Y823D1*
X37654D1*
X38027Y1426D2*
X37855Y1024D1*
X38212Y1253D2*
X38557D1*
Y1311D1*
X38528Y1368D1*
X38500Y1397D1*
X38442Y1426D1*
X38356D1*
X38299Y1397D1*
X38241Y1339D1*
X38212Y1253D1*
Y1196D1*
X38241Y1110D1*
X38299Y1053D1*
X38356Y1024D1*
X38442D1*
X38500Y1053D1*
X38557Y1110D1*
X39058Y1339D2*
X39029Y1397D1*
X38943Y1426D1*
X38857D1*
X38770Y1397D1*
X38742Y1339D1*
X38770Y1282D1*
X38828Y1253D1*
X38971Y1225D1*
X39029Y1196D1*
X39058Y1138D1*
Y1110D1*
X39029Y1053D1*
X38943Y1024D1*
X38857D1*
X38770Y1053D1*
X38742Y1110D1*
X43776Y27859D2*
D64*
Y25950D1*
X44413D1*
X44686Y26042D1*
X44868Y26223D1*
X44959Y26406D1*
X45049Y26676D1*
Y27132D1*
X44959Y27405D1*
X44868Y27586D1*
X44686Y27769D1*
X44413Y27859D1*
X43776D1*
X46089Y27223D2*
X45909Y27132D1*
X45726Y26950D1*
X45636Y26676D1*
Y26496D1*
X45726Y26223D1*
X45909Y26042D1*
X46089Y25950D1*
X46362D1*
X46545Y26042D1*
X46726Y26223D1*
X46818Y26496D1*
Y26676D1*
X46726Y26950D1*
X46545Y27132D1*
X46362Y27223D1*
X46089D1*
X48495Y27859D2*
Y25950D1*
Y26950D2*
X48314Y27132D1*
X48132Y27223D1*
X47858D1*
X47678Y27132D1*
X47495Y26950D1*
X47405Y26676D1*
Y26496D1*
X47495Y26223D1*
X47678Y26042D1*
X47858Y25950D1*
X48132D1*
X48314Y26042D1*
X48495Y26223D1*
X49535Y27223D2*
X49355Y27132D1*
X49172Y26950D1*
X49082Y26676D1*
Y26496D1*
X49172Y26223D1*
X49355Y26042D1*
X49535Y25950D1*
X49808D1*
X49991Y26042D1*
X50172Y26223D1*
X50264Y26496D1*
Y26676D1*
X50172Y26950D1*
X49991Y27132D1*
X49808Y27223D1*
X49535D1*
X44518Y3429D2*
D65*
Y2424D1*
Y2950D2*
X44423Y3046D1*
X44326Y3094D1*
X44183D1*
X44088Y3046D1*
X43991Y2950D1*
X43944Y2807D1*
Y2712D1*
X43991Y2568D1*
X44088Y2473D1*
X44183Y2424D1*
X44326D1*
X44423Y2473D1*
X44518Y2568D1*
X45065Y3094D2*
X44970Y3046D1*
X44874Y2950D1*
X44826Y2807D1*
Y2712D1*
X44874Y2568D1*
X44970Y2473D1*
X45065Y2424D1*
X45209D1*
X45305Y2473D1*
X45400Y2568D1*
X45449Y2712D1*
Y2807D1*
X45400Y2950D1*
X45305Y3046D1*
X45209Y3094D1*
X45065D1*
X46331Y3429D2*
Y2424D1*
Y2950D2*
X46236Y3046D1*
X46140Y3094D1*
X45996D1*
X45901Y3046D1*
X45805Y2950D1*
X45758Y2807D1*
Y2712D1*
X45805Y2568D1*
X45901Y2473D1*
X45996Y2424D1*
X46140D1*
X46236Y2473D1*
X46331Y2568D1*
X46879Y3094D2*
X46784Y3046D1*
X46688Y2950D1*
X46640Y2807D1*
Y2712D1*
X46688Y2568D1*
X46784Y2473D1*
X46879Y2424D1*
X47022D1*
X47119Y2473D1*
X47214Y2568D1*
X47262Y2712D1*
Y2807D1*
X47214Y2950D1*
X47119Y3046D1*
X47022Y3094D1*
X46879D1*
X47571Y3429D2*
Y2424D1*
X48454Y3094D2*
Y2424D1*
Y2950D2*
X48359Y3046D1*
X48262Y3094D1*
X48120D1*
X48024Y3046D1*
X47929Y2950D1*
X47880Y2807D1*
Y2712D1*
X47929Y2568D1*
X48024Y2473D1*
X48120Y2424D1*
X48262D1*
X48359Y2473D1*
X48454Y2568D1*
X48762Y3429D2*
Y2424D1*
Y2950D2*
X48859Y3046D1*
X48954Y3094D1*
X49097D1*
X49192Y3046D1*
X49289Y2950D1*
X49336Y2807D1*
Y2712D1*
X49289Y2568D1*
X49192Y2473D1*
X49097Y2424D1*
X48954D1*
X48859Y2473D1*
X48762Y2568D1*
X50171Y2950D2*
X50123Y3046D1*
X49980Y3094D1*
X49836D1*
X49692Y3046D1*
X49645Y2950D1*
X49692Y2855D1*
X49789Y2807D1*
X50027Y2759D1*
X50123Y2712D1*
X50171Y2615D1*
Y2568D1*
X50123Y2473D1*
X49980Y2424D1*
X49836D1*
X49692Y2473D1*
X49645Y2568D1*
X50527Y2520D2*
X50480Y2472D1*
X50527Y2424D1*
X50576Y2472D1*
X50527Y2520D1*
X50885Y3429D2*
X50932Y3381D1*
X50981Y3429D1*
X50932Y3478D1*
X50885Y3429D1*
X50932Y3094D2*
Y2424D1*
X51528Y3094D2*
X51433Y3046D1*
X51337Y2950D1*
X51290Y2807D1*
Y2712D1*
X51337Y2568D1*
X51433Y2473D1*
X51528Y2424D1*
X51672D1*
X51768Y2473D1*
X51863Y2568D1*
X51912Y2712D1*
Y2807D1*
X51863Y2950D1*
X51768Y3046D1*
X51672Y3094D1*
X51528D1*
X44072Y25305D2*
D66*
X44039Y25372D1*
X43938Y25405D1*
X43872D1*
X43771Y25372D1*
X43704Y25271D1*
X43671Y25104D1*
Y24937D1*
X43704Y24803D1*
X43771Y24736D1*
X43872Y24702D1*
X43905D1*
X44005Y24736D1*
X44072Y24803D1*
X44106Y24904D1*
Y24937D1*
X44072Y25037D1*
X44005Y25104D1*
X43905Y25137D1*
X43872D1*
X43771Y25104D1*
X43704Y25037D1*
X43671Y24937D1*
X44723Y25405D2*
X44389D1*
X44356Y25104D1*
X44389Y25137D1*
X44490Y25171D1*
X44589D1*
X44690Y25137D1*
X44757Y25071D1*
X44791Y24970D1*
Y24904D1*
X44757Y24803D1*
X44690Y24736D1*
X44589Y24702D1*
X44490D1*
X44389Y24736D1*
X44356Y24770D1*
X44322Y24836D1*
X45208Y25405D2*
X45107Y25372D1*
X45040Y25271D1*
X45007Y25104D1*
Y25003D1*
X45040Y24836D1*
X45107Y24736D1*
X45208Y24702D1*
X45275D1*
X45375Y24736D1*
X45442Y24836D1*
X45476Y25003D1*
Y25104D1*
X45442Y25271D1*
X45375Y25372D1*
X45275Y25405D1*
X45208D1*
X45442Y25271D2*
X45040Y24836D1*
X45726Y25238D2*
Y25271D1*
X45759Y25338D1*
X45792Y25372D1*
X45860Y25405D1*
X45994D1*
X46060Y25372D1*
X46093Y25338D1*
X46128Y25271D1*
Y25205D1*
X46093Y25137D1*
X46027Y25037D1*
X45692Y24702D1*
X46161D1*
X47560Y25239D2*
X47526Y25305D1*
X47459Y25372D1*
X47392Y25406D1*
X47259D1*
X47191Y25372D1*
X47125Y25305D1*
X47091Y25239D1*
X47057Y25138D1*
Y24970D1*
X47091Y24870D1*
X47125Y24803D1*
X47191Y24736D1*
X47259Y24702D1*
X47392D1*
X47459Y24736D1*
X47526Y24803D1*
X47560Y24870D1*
Y24970D1*
X47392D1*
X48177Y25171D2*
Y24702D1*
Y25071D2*
X48111Y25138D1*
X48043Y25171D1*
X47944D1*
X47876Y25138D1*
X47810Y25071D1*
X47776Y24970D1*
Y24904D1*
X47810Y24803D1*
X47876Y24736D1*
X47944Y24702D1*
X48043D1*
X48111Y24736D1*
X48177Y24803D1*
X48393Y25171D2*
Y24702D1*
Y25037D2*
X48494Y25138D1*
X48561Y25171D1*
X48661D1*
X48728Y25138D1*
X48762Y25037D1*
Y24702D1*
Y25037D2*
X48862Y25138D1*
X48930Y25171D1*
X49029D1*
X49097Y25138D1*
X49131Y25037D1*
Y24702D1*
X49347Y24970D2*
X49749D1*
Y25037D1*
X49715Y25105D1*
X49682Y25138D1*
X49615Y25171D1*
X49514D1*
X49448Y25138D1*
X49380Y25071D1*
X49347Y24970D1*
Y24904D1*
X49380Y24803D1*
X49448Y24736D1*
X49514Y24702D1*
X49615D1*
X49682Y24736D1*
X49749Y24803D1*
X51114Y25305D2*
X51047Y25372D1*
X50947Y25406D1*
X50813D1*
X50712Y25372D1*
X50645Y25305D1*
Y25239D1*
X50679Y25171D1*
X50712Y25138D1*
X50779Y25105D1*
X50980Y25037D1*
X51047Y25004D1*
X51081Y24970D1*
X51114Y24904D1*
Y24803D1*
X51047Y24736D1*
X50947Y24702D1*
X50813D1*
X50712Y24736D1*
X50645Y24803D1*
X51364Y25171D2*
X51565Y24702D1*
X51498Y24568D1*
X51431Y24501D1*
X51364Y24468D1*
X51330D1*
X51766Y25171D2*
X51565Y24702D1*
X52350Y25071D2*
X52317Y25138D1*
X52216Y25171D1*
X52116D1*
X52015Y25138D1*
X51982Y25071D1*
X52015Y25004D1*
X52083Y24970D1*
X52250Y24937D1*
X52317Y24904D1*
X52350Y24836D1*
Y24803D1*
X52317Y24736D1*
X52216Y24702D1*
X52116D1*
X52015Y24736D1*
X51982Y24803D1*
X52667Y25406D2*
Y24836D1*
X52700Y24736D1*
X52768Y24702D1*
X52834D1*
X52566Y25171D2*
X52801D1*
X53050Y24970D2*
X53452D1*
Y25037D1*
X53419Y25105D1*
X53385Y25138D1*
X53318Y25171D1*
X53217D1*
X53151Y25138D1*
X53084Y25071D1*
X53050Y24970D1*
Y24904D1*
X53084Y24803D1*
X53151Y24736D1*
X53217Y24702D1*
X53318D1*
X53385Y24736D1*
X53452Y24803D1*
X53668Y25171D2*
Y24702D1*
Y25037D2*
X53769Y25138D1*
X53836Y25171D1*
X53936D1*
X54003Y25138D1*
X54036Y25037D1*
Y24702D1*
Y25037D2*
X54137Y25138D1*
X54204Y25171D1*
X54304D1*
X54371Y25138D1*
X54405Y25037D1*
Y24702D1*
X3197Y25095D2*
D62*
X3460D1*
X3316Y24903D1*
X3388D1*
X3436Y24880D1*
X3460Y24856D1*
X3484Y24784D1*
Y24736D1*
X3460Y24665D1*
X3412Y24616D1*
X3340Y24593D1*
X3268D1*
X3197Y24616D1*
X3173Y24641D1*
X3149Y24688D1*
X3638Y25095D2*
X3829Y24593D1*
X4021Y25095D1*
X56008Y24913D2*
X55984Y24961D1*
X55936Y25009D1*
X55888Y25033D1*
X55793D1*
X55745Y25009D1*
X55697Y24961D1*
X55673Y24913D1*
X55649Y24841D1*
Y24721D1*
X55673Y24650D1*
X55697Y24602D1*
X55745Y24555D1*
X55793Y24530D1*
X55888D1*
X55936Y24555D1*
X55984Y24602D1*
X56008Y24650D1*
Y24721D1*
X55888D1*
X56497Y25033D2*
Y24530D1*
X56162Y25033D1*
Y24530D1*
X56651Y25033D2*
Y24530D1*
X56819D1*
X56891Y24555D1*
X56939Y24602D1*
X56962Y24650D1*
X56986Y24721D1*
Y24841D1*
X56962Y24913D1*
X56939Y24961D1*
X56891Y25009D1*
X56819Y25033D1*
X56651D1*
M02*
