M48
INCH
T01C0.019
T02C0.0276
T03C0.028
T04C0.0354
T05C0.038
T06C0.0394
T07C0.042
T08C0.0433
T09C0.0472
T10C0.0551
T11C0.0709
T12C0.125
%
T01
X+038440Y+037940
X+039815Y+016065
X+041440Y+005940
X+041440Y+004815
X+032440Y+005190
X+015940Y+006690
X+013940Y+006690
X+005690Y+008690
X+055315Y+018815
X+059815Y+017815
X+060190Y+019690
T02
X+008690Y+029565
X+008190Y+029565
X+007690Y+029565
X+053440Y+019690
X+053940Y+019690
X+054440Y+019690
T03
X+051060Y+040815
X+050060Y+040815
X+050065Y+037315
X+051065Y+037315
T04
X+011940Y+024815
X+013940Y+024815
X+015940Y+024815
X+015940Y+020839
X+011190Y+020565
X+009190Y+020565
X+005565Y+020565
X+005565Y+016589
X+007440Y+009315
X+009440Y+009315
X+007940Y+007190
X+011916Y+007190
X+021940Y+007440
X+021940Y+006440
X+022940Y+006440
X+023940Y+006440
X+023940Y+007440
X+022940Y+007440
X+024940Y+007440
X+025940Y+007440
X+026940Y+007440
X+026940Y+006440
X+025940Y+006440
X+024940Y+006440
X+027940Y+006440
X+028940Y+006440
X+028940Y+007440
X+027940Y+007440
X+029940Y+007440
X+029940Y+006440
X+030940Y+006440
X+030940Y+007440
X+031940Y+007440
X+031940Y+006440
X+032940Y+006440
X+033940Y+006440
X+034940Y+006440
X+034940Y+007440
X+033940Y+007440
X+032940Y+007440
X+032940Y+009315
X+033940Y+009315
X+034940Y+009315
X+035940Y+009315
X+036940Y+009315
X+036940Y+007440
X+035940Y+007440
X+035940Y+006440
X+036940Y+006440
X+037940Y+006440
X+037940Y+007440
X+038940Y+007440
X+039940Y+007440
X+039940Y+006440
X+038940Y+006440
X+040940Y+006440
X+040940Y+007440
X+041940Y+007440
X+041940Y+006440
X+042940Y+006440
X+042940Y+007440
X+043940Y+007440
X+043940Y+006440
X+044940Y+006440
X+044940Y+007440
X+045940Y+007440
X+045940Y+006440
X+049315Y+008190
X+049315Y+010190
X+051315Y+010190
X+053291Y+008190
X+043541Y+011690
X+041565Y+013690
X+039565Y+013690
X+039565Y+011690
X+036940Y+012315
X+035940Y+012315
X+034940Y+012315
X+033940Y+012315
X+032940Y+012315
X+031940Y+012315
X+030940Y+012315
X+030940Y+009315
X+031940Y+009315
X+026190Y+010565
X+024190Y+010565
X+022214Y+014440
X+026190Y+014440
X+026315Y+016940
X+025315Y+016940
X+027315Y+016940
X+028315Y+016940
X+029315Y+016940
X+030315Y+016940
X+031315Y+016940
X+032315Y+016940
X+033315Y+016940
X+034315Y+016940
X+036440Y+017940
X+038065Y+016940
X+039065Y+016940
X+040065Y+016940
X+041065Y+016940
X+042065Y+016940
X+043065Y+016940
X+044065Y+016940
X+045065Y+016940
X+046065Y+016940
X+047065Y+016940
X+047065Y+019940
X+046065Y+019940
X+045065Y+019940
X+044065Y+019940
X+043065Y+019940
X+042065Y+019940
X+041065Y+019940
X+040065Y+019940
X+039065Y+019940
X+038065Y+019940
X+036440Y+019940
X+034315Y+019940
X+033315Y+019940
X+032315Y+019940
X+031315Y+019940
X+030315Y+019940
X+029315Y+019940
X+028315Y+019940
X+027315Y+019940
X+026315Y+019940
X+025315Y+019940
X+023570Y+019940
X+021570Y+019940
X+024440Y+039690
X+025440Y+039690
X+026440Y+039690
X+027440Y+039690
X+028440Y+039690
X+029440Y+039690
X+030440Y+039690
X+031440Y+039690
X+032440Y+039690
X+033440Y+039690
X+034440Y+039690
X+035440Y+039690
X+036440Y+039690
X+037440Y+039690
X+038440Y+039690
X+039440Y+039690
X+040440Y+039690
X+041440Y+039690
X+042440Y+039690
X+043440Y+039690
X+056190Y+019690
X+058190Y+019690
T05
X+019190Y+017440
X+020315Y+016377
X+024315Y+016377
X+026190Y+012565
X+022190Y+012565
X+018940Y+005315
X+014940Y+005315
X+011940Y+005315
X+007940Y+005315
X+005565Y+011565
X+005565Y+015565
X+007440Y+016565
X+007440Y+020565
X+005690Y+023690
X+005690Y+027690
X+017815Y+024815
X+019190Y+021440
X+017815Y+020815
X+039565Y+009815
X+043565Y+009815
X+047690Y+010440
X+047690Y+006440
X+049315Y+006315
X+053315Y+006315
X+054940Y+006315
X+054940Y+010315
X+056565Y+037315
X+056565Y+040815
X+052565Y+040815
X+052565Y+037315
T06
X+049815Y+019690
X+050815Y+019690
X+057631Y+040190
X+057631Y+041962
X+060190Y+041962
X+060190Y+040190
X+008940Y+035515
X+008940Y+033940
X+008940Y+032365
T07
X+013440Y+041180
X+012440Y+041180
X+011440Y+041180
X+010440Y+041180
X+009440Y+041180
X+008440Y+041180
X+008440Y+039680
X+009440Y+039680
X+010440Y+039680
X+011440Y+039680
X+012440Y+039680
X+013440Y+039680
T08
X+011444Y+033940
X+014436Y+033940
T09
X+016376Y+019234
X+014984Y+020626
X+011504Y+017146
X+010734Y+016376
X+012126Y+014984
X+012896Y+015754
X+015754Y+012896
X+014984Y+012126
X+016376Y+010734
X+017146Y+011504
X+020626Y+014984
X+019234Y+016376
X+011504Y+008646
X+012896Y+007254
X+008646Y+011504
X+007254Y+012896
X+043979Y+012956
X+043979Y+014924
X+048901Y+014924
X+048901Y+012956
X+051479Y+012956
X+051479Y+014924
X+056401Y+014924
X+056401Y+012956
T10
X+005003Y+035909
X+005003Y+031971
T11
X+015193Y+016937
X+016937Y+015193
X+019443Y+012687
X+015193Y+008437
X+012687Y+010943
X+010943Y+012687
X+008437Y+015193
X+012687Y+019443
X+046440Y+015712
X+046440Y+012168
X+053940Y+012168
X+053940Y+015712
T12
X+005440Y+042440
X+020810Y+039966
X+020810Y+021934
X+005440Y+005440
X+047070Y+021934
X+047070Y+039966
X+062440Y+042440
X+062440Y+005440
T00
M30
