G04 DipTrace 2.4.0.2*
%INBottomMask.gbr*%
%MOIN*%
%ADD22R,0.0709X0.0709*%
%ADD23C,0.0709*%
%ADD33R,0.0669X0.0669*%
%ADD34C,0.0669*%
%ADD39C,0.125*%
%ADD50O,0.0867X0.0474*%
%ADD52O,0.0474X0.0867*%
%ADD54C,0.0749*%
%ADD55R,0.0749X0.0749*%
%ADD56C,0.068*%
%ADD58C,0.068*%
%ADD60C,0.073*%
%ADD62C,0.1954*%
%ADD64C,0.0745*%
%ADD66R,0.0745X0.0745*%
%ADD71C,0.0789*%
%ADD72R,0.0789X0.0789*%
%ADD74C,0.071*%
%FSLAX44Y44*%
G04*
G70*
G90*
G75*
G01*
%LNBotMask*%
%LPD*%
D74*
X9940Y13690D3*
D22*
Y14690D3*
D74*
X43565Y11440D3*
D22*
Y13440D3*
D74*
X11565Y11690D3*
D22*
X10565D3*
D74*
X44815Y41940D3*
D22*
X46815D3*
D74*
X29065Y22815D3*
D22*
Y20815D3*
D74*
X38253Y29940D3*
D22*
Y27940D3*
D74*
X22259Y38256D3*
D22*
Y36256D3*
D74*
X15134Y32631D3*
D22*
Y30631D3*
D74*
X45690Y18065D3*
D22*
X43690D3*
D74*
X59690Y29940D3*
D22*
X57690D3*
D74*
X24384Y38256D3*
D22*
Y36256D3*
D74*
X16009Y28756D3*
D22*
X18009D3*
D74*
X26509Y38256D3*
D22*
Y36256D3*
D74*
X50940Y18065D3*
D22*
X48940D3*
D74*
X56190Y9940D3*
D22*
X54190D3*
D72*
X20065Y22565D3*
D71*
X15715D3*
D72*
X7940Y11690D3*
D71*
Y16040D3*
D33*
X22440Y11565D3*
D34*
X23440D3*
X24440D3*
X25440D3*
X26440D3*
X27440D3*
X28440D3*
X29440D3*
X30440D3*
X31440D3*
X32440D3*
X33440D3*
X34440D3*
X35440D3*
X36440D3*
X37440D3*
X38440D3*
X39440D3*
X40440D3*
X41440D3*
Y17565D3*
X40440D3*
X39440D3*
X38440D3*
X37440D3*
X36440D3*
X35440D3*
X34440D3*
X33440D3*
X32440D3*
X31440D3*
X30440D3*
X29440D3*
X28440D3*
X27440D3*
X26440D3*
X25440D3*
X24440D3*
X23440D3*
X22440D3*
D33*
X21440Y34315D3*
D34*
Y33315D3*
Y32315D3*
Y31315D3*
Y30315D3*
Y29315D3*
Y28315D3*
Y27315D3*
Y26315D3*
Y25315D3*
Y24315D3*
Y23315D3*
Y22315D3*
Y21315D3*
X27424D3*
Y22315D3*
Y23315D3*
Y24315D3*
Y25315D3*
Y26315D3*
Y27315D3*
Y28315D3*
Y29315D3*
Y30315D3*
Y31315D3*
Y32315D3*
Y33315D3*
Y34315D3*
D33*
X46840Y33540D3*
D34*
X47840D3*
X48840D3*
X49840D3*
X50840D3*
X51840D3*
X52840D3*
X53840D3*
X54840D3*
X55840D3*
X56840D3*
X57840D3*
X58840D3*
X59840D3*
Y39540D3*
X58840D3*
X57840D3*
X56840D3*
X55840D3*
X54840D3*
X53840D3*
X52840D3*
X51840D3*
X50840D3*
X49840D3*
X48840D3*
X47840D3*
X46840D3*
D33*
X36440Y20940D3*
D34*
Y21940D3*
Y22940D3*
Y23940D3*
Y24940D3*
Y25940D3*
Y26940D3*
Y27940D3*
Y28940D3*
Y29940D3*
Y30940D3*
Y31940D3*
Y32940D3*
Y33940D3*
Y34940D3*
Y35940D3*
Y36940D3*
Y37940D3*
Y38940D3*
Y39940D3*
X30440D3*
Y38940D3*
Y37940D3*
Y36940D3*
Y35940D3*
Y34940D3*
Y33940D3*
Y32940D3*
Y31940D3*
Y30940D3*
Y29940D3*
Y28940D3*
Y27940D3*
Y26940D3*
Y25940D3*
Y24940D3*
Y23940D3*
Y22940D3*
Y21940D3*
Y20940D3*
D33*
X53810Y25815D3*
D34*
Y24815D3*
Y23815D3*
Y22815D3*
Y21815D3*
Y20815D3*
Y19815D3*
Y18815D3*
Y17815D3*
Y16815D3*
Y15815D3*
Y14815D3*
Y13815D3*
Y12815D3*
X59810D3*
Y13815D3*
Y14815D3*
Y15815D3*
Y16815D3*
Y17815D3*
Y18815D3*
Y19815D3*
Y20815D3*
Y21815D3*
Y22815D3*
Y23815D3*
Y24815D3*
Y25815D3*
D33*
X20009Y31131D3*
D34*
Y32131D3*
Y33131D3*
Y34131D3*
Y35131D3*
Y36131D3*
Y37131D3*
Y38131D3*
X17009D3*
Y37131D3*
Y36131D3*
Y35131D3*
Y34131D3*
Y33131D3*
Y32131D3*
Y31131D3*
D33*
X21940Y6440D3*
D34*
Y7440D3*
X22940Y6440D3*
Y7440D3*
X23940Y6440D3*
Y7440D3*
X24940Y6440D3*
Y7440D3*
X25940Y6440D3*
Y7440D3*
X26940Y6440D3*
Y7440D3*
X27940Y6440D3*
Y7440D3*
X28940Y6440D3*
Y7440D3*
X29940Y6440D3*
Y7440D3*
X30940Y6440D3*
Y7440D3*
X31940Y6440D3*
Y7440D3*
X32940Y6440D3*
Y7440D3*
X33940Y6440D3*
Y7440D3*
X34940Y6440D3*
Y7440D3*
X35940Y6440D3*
Y7440D3*
X36940Y6440D3*
Y7440D3*
X37940Y6440D3*
Y7440D3*
X38940Y6440D3*
Y7440D3*
X39940Y6440D3*
Y7440D3*
X40940Y6440D3*
Y7440D3*
X41940Y6440D3*
Y7440D3*
X42940Y6440D3*
Y7440D3*
X43940Y6440D3*
Y7440D3*
X44940Y6440D3*
Y7440D3*
X45940Y6440D3*
Y7440D3*
D22*
X17810Y7459D3*
D23*
Y6671D3*
D66*
X20759Y40881D3*
D64*
X21849D3*
X22940D3*
X24031D3*
X25121D3*
X21304Y41999D3*
X22395D3*
X23485D3*
X24576D3*
D62*
X18021Y41440D3*
X27859D3*
D60*
X7936Y17945D3*
X9904D3*
D58*
X15815Y25565D3*
D56*
X19815D3*
D58*
X11440Y19940D3*
D56*
X15440D3*
D58*
X42065Y20815D3*
D56*
X38065D3*
D58*
Y21940D3*
D56*
Y25940D3*
D58*
X10065Y9065D3*
D56*
X14065D3*
D58*
X11440Y18065D3*
D56*
X15440D3*
D55*
X15320Y6179D3*
D54*
Y7951D3*
X12760D3*
Y6179D3*
D34*
X5190Y37325D3*
Y36065D3*
Y34805D3*
G36*
X8953Y6383D2*
X9075Y6261D1*
X9305D1*
X9427Y6383D1*
Y7007D1*
X9305Y7129D1*
X9075D1*
X8953Y7007D1*
Y6383D1*
G37*
D52*
X9690Y6695D3*
X10190D3*
D33*
X52315Y12940D3*
D34*
X51315D3*
X50315D3*
X49315D3*
X48315D3*
X47315D3*
X46315D3*
X45315D3*
Y9940D3*
X46315D3*
X47315D3*
X48315D3*
X49315D3*
X50315D3*
X51315D3*
X52315D3*
D33*
X51940Y20440D3*
D34*
Y21440D3*
Y22440D3*
Y23440D3*
Y24440D3*
Y25440D3*
Y26440D3*
X48940D3*
Y25440D3*
Y24440D3*
Y23440D3*
Y22440D3*
Y21440D3*
Y20440D3*
D33*
X46690D3*
D34*
Y21440D3*
Y22440D3*
Y23440D3*
Y24440D3*
Y25440D3*
Y26440D3*
X43690D3*
Y25440D3*
Y24440D3*
Y23440D3*
Y22440D3*
Y21440D3*
Y20440D3*
D33*
X14570Y13195D3*
D34*
Y14195D3*
Y15195D3*
Y16195D3*
X11570D3*
Y15195D3*
Y14195D3*
Y13195D3*
D33*
X12759Y31881D3*
D34*
Y37881D3*
X9759D3*
Y31881D3*
D33*
X8065Y22440D3*
D34*
X14065D3*
Y25440D3*
X8065D3*
G36*
X17878Y14552D2*
X17756Y14430D1*
Y14200D1*
X17878Y14078D1*
X18502D1*
X18624Y14200D1*
Y14430D1*
X18502Y14552D1*
X17878D1*
G37*
D50*
X18190Y13815D3*
Y13315D3*
D58*
X15440Y9070D3*
D56*
Y13070D3*
D39*
X5440Y42440D3*
Y5440D3*
X62440D3*
Y42440D3*
M02*
