G04 DipTrace 2.4.0.2*
%INBottom.gbr*%
%MOIN*%
%ADD13C,0.013*%
%ADD14C,0.032*%
%ADD15C,0.02*%
%ADD16C,0.025*%
%ADD20C,0.063*%
%ADD21R,0.063X0.063*%
%ADD22R,0.0709X0.0709*%
%ADD23C,0.0709*%
%ADD24R,0.0591X0.0591*%
%ADD25C,0.0591*%
%ADD26C,0.063*%
%ADD27R,0.0665X0.0665*%
%ADD28C,0.0665*%
%ADD29C,0.1874*%
%ADD30C,0.065*%
%ADD31C,0.06*%
%ADD32C,0.06*%
%ADD33R,0.0669X0.0669*%
%ADD34C,0.0669*%
%ADD35O,0.0394X0.0787*%
%ADD36O,0.0787X0.0394*%
%ADD37C,0.04*%
%FSLAX44Y44*%
G04*
G70*
G90*
G75*
G01*
%LNBottom*%
%LPD*%
X55840Y33540D2*
D13*
Y29915D1*
X56940Y28815D1*
Y19440D1*
X54315Y16815D1*
X53810D1*
X36440Y28940D2*
X35815D1*
X35440Y28565D1*
Y21065D1*
X37565Y18940D1*
X42065D1*
X42815Y18190D1*
Y16690D1*
X42065Y15940D1*
X25440D1*
X24440Y16940D1*
Y17565D1*
X54840Y33540D2*
Y30540D1*
X56690Y28690D1*
Y20190D1*
X54315Y17815D1*
X53810D1*
X36440Y29940D2*
X35815D1*
X35190Y29315D1*
Y20940D1*
X37440Y18690D1*
X41940D1*
X42565Y18065D1*
Y16815D1*
X41940Y16190D1*
X26190D1*
X25440Y16940D1*
Y17565D1*
X53840Y33540D2*
Y31165D1*
X56440Y28565D1*
Y20940D1*
X54315Y18815D1*
X53810D1*
X36440Y30940D2*
X35815D1*
X34940Y30065D1*
Y20815D1*
X37315Y18440D1*
X41815D1*
X42315Y17940D1*
Y16940D1*
X41815Y16440D1*
X26940D1*
X26440Y16940D1*
Y17565D1*
X52840Y33540D2*
Y31790D1*
X56190Y28440D1*
Y21690D1*
X54315Y19815D1*
X53810D1*
X36440Y31940D2*
X35815D1*
X34690Y30815D1*
Y20690D1*
X37190Y18190D1*
X41690D1*
X42065Y17815D1*
Y17065D1*
X41690Y16690D1*
X27690D1*
X27440Y16940D1*
Y17565D1*
X51840Y33540D2*
Y32415D1*
X55940Y28315D1*
Y22440D1*
X54315Y20815D1*
X53810D1*
X52315Y12940D2*
Y15565D1*
X53315Y16565D1*
Y20320D1*
X53810Y20815D1*
Y21815D2*
X54315D1*
X55690Y23190D1*
Y28190D1*
X50815Y33065D1*
Y33515D1*
X50840Y33540D1*
X51315Y12940D2*
Y14940D1*
X53065Y16690D1*
Y21070D1*
X53810Y21815D1*
Y22815D2*
X54315D1*
X55440Y23940D1*
Y28065D1*
X50940Y32565D1*
X50315D1*
X49815Y33065D1*
Y33515D1*
X49840Y33540D1*
X50315Y12940D2*
Y14315D1*
X52815Y16815D1*
Y21820D1*
X53810Y22815D1*
Y23815D2*
X54315D1*
X55190Y24690D1*
Y27940D1*
X50815Y32315D1*
X49565D1*
X48815Y33065D1*
Y33515D1*
X48840Y33540D1*
X49315Y12940D2*
Y13690D1*
X52565Y16940D1*
Y22570D1*
X53810Y23815D1*
X49840Y39540D2*
Y38965D1*
X49565Y38690D1*
X38940D1*
X36940Y40690D1*
X36065D1*
X35440Y40065D1*
Y37940D1*
X36440Y36940D1*
X59810Y22815D2*
X59065Y23560D1*
Y28065D1*
X58940Y28190D1*
Y30815D1*
X60815Y32690D1*
X50840Y39540D2*
Y38965D1*
X50315Y38440D1*
X38815D1*
X36815Y40440D1*
X36190D1*
X35690Y39940D1*
Y38690D1*
X36440Y37940D1*
X59810Y21815D2*
X58815Y22810D1*
Y27940D1*
X58690Y28065D1*
Y32690D1*
X59315Y33315D1*
Y35315D1*
X55315Y39315D1*
Y40190D1*
X54940Y40565D1*
X51315D1*
X50815Y40065D1*
Y39540D1*
X50840D1*
X36440Y38940D2*
X37690Y37690D1*
X51065D1*
X52315Y38940D1*
Y39815D1*
X52565Y40065D1*
X53440D1*
X53815Y39690D1*
Y39540D1*
X53840D1*
X53940D2*
X53840D1*
X59810Y18815D2*
X58065Y20560D1*
Y27565D1*
X57315Y28315D1*
Y28815D1*
X56315Y29815D1*
Y36565D1*
X55190Y37690D1*
X51065D1*
X51840Y39540D2*
Y38965D1*
X51065Y38190D1*
X38190D1*
X36440Y39940D1*
X59810Y20815D2*
X58565Y22060D1*
Y27815D1*
X58440Y27940D1*
Y32940D1*
X58315Y33065D1*
Y35315D1*
X54315Y39315D1*
Y39815D1*
X53815Y40315D1*
X52065D1*
X51815Y40065D1*
Y39540D1*
X51840D1*
X47840Y33540D2*
Y33040D1*
X48815Y32065D1*
X50690D1*
X54940Y27815D1*
Y25440D1*
X54315Y24815D1*
X53810D1*
X47840Y33540D2*
Y34165D1*
X47440Y34565D1*
X39190D1*
X38315Y35440D1*
X33940D1*
X30440Y38940D1*
X48840Y40165D2*
X47815Y41190D1*
X32815D1*
X31065Y39440D1*
X30065D1*
X29690Y39065D1*
Y38190D1*
X29940Y37940D1*
X30440D1*
X59810Y23815D2*
X59315Y24310D1*
Y28190D1*
X59190Y28315D1*
Y30440D1*
X60940Y32190D1*
X46840Y33540D2*
Y33040D1*
X48065Y31815D1*
X50565D1*
X53810Y28570D1*
Y25815D1*
X46840Y33540D2*
Y33790D1*
X46565Y34065D1*
X37440D1*
X37065Y34440D1*
X32940D1*
X30440Y36940D1*
Y35940D2*
X33815Y32565D1*
X37940Y24315D2*
X40940D1*
X23065Y23065D2*
Y30690D1*
X30440Y5940D2*
X37440D1*
X37940Y6440D1*
X29440Y17565D2*
Y18190D1*
X31315Y20065D1*
Y27065D1*
X30440Y27940D1*
X21940Y7440D2*
X21065D1*
X20315Y8190D1*
Y18440D1*
X21190Y19315D1*
X22565D1*
X25940Y22690D1*
Y23440D1*
X26815Y24315D1*
X27424D1*
X30440Y17565D2*
Y18190D1*
X31565Y19315D1*
Y27940D1*
X30565Y28940D1*
X30440D1*
X22940Y6440D2*
Y6565D1*
X22565Y6940D1*
X21190D1*
X20065Y8065D1*
Y18565D1*
X21065Y19565D1*
X22440D1*
X25690Y22815D1*
Y24190D1*
X26815Y25315D1*
X27424D1*
X31440Y17565D2*
Y18190D1*
X31815Y18565D1*
Y28565D1*
X30440Y29940D1*
X22940Y7440D2*
X22440Y7940D1*
X20940D1*
X20565Y8315D1*
Y18315D1*
X21315Y19065D1*
X22690D1*
X26190Y22565D1*
Y23190D1*
X26815Y23815D1*
X27690D1*
X28065Y24190D1*
Y25674D1*
X27424Y26315D1*
X32440Y17565D2*
Y18190D1*
X32065Y18565D1*
Y29315D1*
X30440Y30940D1*
X23940Y6440D2*
X23440Y5940D1*
X20440D1*
X19815Y6565D1*
Y18690D1*
X20940Y19815D1*
X22315D1*
X25440Y22940D1*
Y25940D1*
X26815Y27315D1*
X27424D1*
X33440Y17565D2*
Y18190D1*
X32315Y19315D1*
Y30065D1*
X30315Y32065D1*
X30440Y31940D1*
X27424Y28315D2*
X26815D1*
X25190Y26690D1*
Y23065D1*
X22190Y20065D1*
X20815D1*
X19565Y18815D1*
Y6440D1*
X20315Y5690D1*
X23940D1*
X24440Y6190D1*
Y6940D1*
X23940Y7440D1*
X34440Y17565D2*
Y18190D1*
X32565Y20065D1*
Y30815D1*
X30440Y32940D1*
X24940Y6440D2*
Y5815D1*
X24565Y5440D1*
X20190D1*
X19315Y6315D1*
Y18940D1*
X20690Y20315D1*
X22065D1*
X24940Y23190D1*
Y27440D1*
X26815Y29315D1*
X27424D1*
X35440Y17565D2*
Y18190D1*
X32815Y20815D1*
Y31565D1*
X30440Y33940D1*
X27424Y30315D2*
X26815D1*
X24690Y28190D1*
Y23315D1*
X21940Y20565D1*
X20565D1*
X19065Y19065D1*
Y6190D1*
X20065Y5190D1*
X24815D1*
X25440Y5815D1*
Y6940D1*
X24940Y7440D1*
X36440Y17565D2*
Y18190D1*
X33065Y21565D1*
Y32315D1*
X30440Y34940D1*
X25940Y6440D2*
Y5815D1*
X25065Y4940D1*
X19940D1*
X18815Y6065D1*
Y19190D1*
X20440Y20815D1*
X21815D1*
X24440Y23440D1*
Y28940D1*
X26815Y31315D1*
X27424D1*
X14570Y15195D2*
X14445D1*
X14065Y14815D1*
Y13700D1*
X14570Y13195D1*
Y15195D2*
X15440Y16065D1*
Y18065D1*
X12440Y20940D2*
D14*
Y14065D1*
X11570Y13195D1*
X48315Y12940D2*
D13*
Y16940D1*
X45065Y20190D1*
Y21065D1*
X43690Y22440D1*
X19815Y25565D2*
X19440Y25940D1*
Y28815D1*
X27424Y32315D2*
X28440D1*
X29190Y31565D1*
Y24190D1*
X29940Y23440D1*
X30940D1*
X22440Y14315D2*
Y14940D1*
X21065Y16315D1*
X15440Y9070D2*
D15*
X16945D1*
X17315Y9440D1*
Y13440D1*
X17690Y13815D1*
X18190D1*
X59810Y19815D2*
D13*
Y20070D1*
X58315Y21565D1*
Y27690D1*
X58190Y27815D1*
Y32440D1*
X57315Y33315D1*
Y35940D1*
X54190Y39065D1*
X53315D1*
X52840Y39540D1*
X29940Y7440D2*
Y7565D1*
X30440Y8065D1*
X47440D1*
X57315Y10190D2*
Y22315D1*
X47840Y39540D2*
Y39215D1*
X47565Y38940D1*
X39065D1*
X37065Y40940D1*
X35940D1*
X35065Y40065D1*
X37190Y26440D2*
X39815D1*
X57690Y24190D2*
Y9815D1*
X37940Y5690D2*
X37440Y5190D1*
X28690D1*
X28440Y5440D1*
Y6565D1*
X28815Y6940D1*
X30440D1*
X30940Y6440D1*
X29440Y14690D2*
X31940D1*
Y17065D2*
X35690D1*
X35940Y17315D1*
Y18190D1*
X33315Y20815D1*
X35815Y21940D2*
Y25315D1*
X36440Y25940D1*
X27424Y33315D2*
X25690D1*
X25190Y32815D1*
X21190D1*
X20440Y32065D1*
Y30315D1*
X16190Y26065D1*
X14690D1*
X14065Y25440D1*
X30440Y23940D2*
X29815D1*
X29440Y24315D1*
Y32190D1*
X28315Y33315D1*
X27424D1*
X33440Y23940D2*
Y22406D1*
Y21565D1*
X37440Y17565D1*
X22065Y12440D2*
Y14690D1*
X20940Y15815D1*
X33440Y22406D2*
X34156D1*
X34190Y22440D1*
X37940Y23065D2*
X40440D1*
X11065Y26315D2*
D15*
X10190Y25440D1*
X8065D1*
X41440Y11565D2*
X41690D1*
X43565Y13440D1*
X54190Y9940D2*
Y10565D1*
X52690Y12065D1*
X48190D1*
X47315Y12940D1*
X17009Y31131D2*
X18509Y32631D1*
X20256D1*
X20940Y33315D1*
X21440D1*
X46690Y20440D2*
X46565D1*
X46065Y20940D1*
Y22815D1*
X46690Y23440D1*
X10565Y11690D2*
D14*
Y12190D1*
X10815Y12440D1*
X12940D1*
X13440Y12940D1*
Y15065D1*
X14570Y16195D1*
X50565Y21940D2*
D13*
X48065D1*
X30440Y20940D2*
Y20190D1*
X28440Y18190D1*
Y17565D1*
X30440Y20940D2*
X29815Y21565D1*
Y23190D1*
X28940Y24065D1*
Y31440D1*
X28565Y31815D1*
X21940D1*
X21440Y31315D1*
X12760Y7951D2*
X12690D1*
Y7190D1*
X15190Y4690D1*
X27065D1*
X27440Y5065D1*
Y6690D1*
X27734Y6984D1*
X28484D1*
X28940Y7440D1*
X30315Y15065D2*
X28940D1*
X54840Y39540D2*
Y39290D1*
X57690Y36440D1*
X41315Y28440D2*
Y24940D1*
X27424Y34315D2*
X28315D1*
X29690Y32940D1*
Y27690D1*
X30440Y26940D1*
X39690Y23690D2*
X37940D1*
X31940Y8440D2*
X42190D1*
X25940Y13815D2*
Y15440D1*
Y18875D2*
X27384Y20318D1*
X20009Y32131D2*
X18506D1*
X18009Y31634D1*
Y28756D1*
D37*
X60815Y32690D3*
X48840Y40165D3*
X60940Y32190D3*
X33815Y32565D3*
X37940Y24315D3*
X40940D3*
X23065Y23065D3*
Y30690D3*
X30440Y5940D3*
X12440Y20940D3*
X19440Y28815D3*
X30940Y23440D3*
X22440Y14315D3*
X21065Y16315D3*
X47440Y8065D3*
X57315Y10190D3*
X35065Y40065D3*
X37190Y26440D3*
X39815D3*
X57690Y24190D3*
Y9815D3*
X37940Y5690D3*
X29440Y14690D3*
X31940D3*
Y17065D3*
X33315Y20815D3*
X35815Y21940D3*
X33440Y23940D3*
X22065Y12440D3*
X20940Y15815D3*
X34190Y22440D3*
X37940Y23065D3*
X40440D3*
X11065Y26315D3*
X50565Y21940D3*
X48065D3*
X30315Y15065D3*
X28940D3*
X57690Y36440D3*
X41315Y28440D3*
Y24940D3*
X39690Y23690D3*
X37940D3*
X31940Y8440D3*
X42190D3*
X25940Y13815D3*
Y15440D3*
Y18875D3*
X27384Y20318D3*
X57315Y22315D3*
X6240Y43004D2*
D16*
X61640D1*
X6373Y42755D2*
X61507D1*
X6424Y42506D2*
X17304D1*
X18740D2*
X20847D1*
X21764D2*
X21936D1*
X22854D2*
X23029D1*
X23944D2*
X24116D1*
X25033D2*
X27140D1*
X28576D2*
X44472D1*
X45158D2*
X46140D1*
X47490D2*
X61456D1*
X6408Y42258D2*
X17022D1*
X19022D2*
X20663D1*
X25217D2*
X26858D1*
X28858D2*
X44222D1*
X45408D2*
X46140D1*
X47490D2*
X61472D1*
X6322Y42009D2*
X16858D1*
X19182D2*
X20612D1*
X25268D2*
X26698D1*
X29022D2*
X44144D1*
X45486D2*
X46140D1*
X47490D2*
X61558D1*
X4590Y41760D2*
X4737D1*
X6143D2*
X16765D1*
X19276D2*
X20655D1*
X25225D2*
X26604D1*
X29115D2*
X44167D1*
X45463D2*
X46140D1*
X47490D2*
X61737D1*
X63143D2*
X63292D1*
X4590Y41512D2*
X5171D1*
X5709D2*
X16726D1*
X19315D2*
X20065D1*
X25365D2*
X26565D1*
X29154D2*
X32554D1*
X48076D2*
X62171D1*
X62709D2*
X63292D1*
X4590Y41263D2*
X16737D1*
X19307D2*
X20065D1*
X25694D2*
X26573D1*
X29143D2*
X32296D1*
X48334D2*
X63292D1*
X4590Y41014D2*
X16796D1*
X19244D2*
X20065D1*
X25799D2*
X26636D1*
X29084D2*
X32050D1*
X48580D2*
X63292D1*
X4590Y40766D2*
X16917D1*
X19123D2*
X20065D1*
X25803D2*
X26757D1*
X28963D2*
X31800D1*
X48830D2*
X50925D1*
X55330D2*
X63292D1*
X4590Y40517D2*
X17120D1*
X18920D2*
X20065D1*
X25705D2*
X26960D1*
X28760D2*
X30163D1*
X30717D2*
X31550D1*
X49268D2*
X50675D1*
X55580D2*
X63292D1*
X4590Y40268D2*
X17503D1*
X18541D2*
X20065D1*
X22139D2*
X22651D1*
X23229D2*
X23741D1*
X24322D2*
X24831D1*
X25412D2*
X27339D1*
X28377D2*
X29878D1*
X31002D2*
X31304D1*
X49389D2*
X50444D1*
X55733D2*
X63292D1*
X4590Y40020D2*
X29788D1*
X56276D2*
X56406D1*
X57276D2*
X57406D1*
X58276D2*
X58406D1*
X59276D2*
X59406D1*
X60276D2*
X63292D1*
X4590Y39771D2*
X29808D1*
X60451D2*
X63292D1*
X4590Y39522D2*
X29558D1*
X60494D2*
X63292D1*
X4590Y39273D2*
X29323D1*
X60436D2*
X63292D1*
X4590Y39025D2*
X29265D1*
X56229D2*
X56452D1*
X57229D2*
X57452D1*
X58229D2*
X58452D1*
X59229D2*
X59452D1*
X60229D2*
X63292D1*
X4590Y38776D2*
X21843D1*
X22674D2*
X23968D1*
X24799D2*
X26093D1*
X26924D2*
X29265D1*
X56444D2*
X63292D1*
X4590Y38527D2*
X16495D1*
X17526D2*
X19495D1*
X20526D2*
X21644D1*
X22873D2*
X23769D1*
X24998D2*
X25894D1*
X27123D2*
X29265D1*
X56694D2*
X63292D1*
X4590Y38279D2*
X9245D1*
X10272D2*
X12245D1*
X13272D2*
X16370D1*
X17647D2*
X19370D1*
X20647D2*
X21585D1*
X22932D2*
X23710D1*
X25057D2*
X25835D1*
X27182D2*
X29265D1*
X56944D2*
X63292D1*
X4590Y38030D2*
X9120D1*
X10397D2*
X12120D1*
X13397D2*
X16362D1*
X17654D2*
X19362D1*
X20654D2*
X21624D1*
X22893D2*
X23749D1*
X25018D2*
X25874D1*
X27143D2*
X29300D1*
X57190D2*
X63292D1*
X4590Y37781D2*
X4729D1*
X5651D2*
X9112D1*
X10404D2*
X12112D1*
X13404D2*
X16460D1*
X17557D2*
X19460D1*
X20557D2*
X21788D1*
X22729D2*
X23913D1*
X24854D2*
X26038D1*
X26979D2*
X29507D1*
X57440D2*
X63292D1*
X5811Y37533D2*
X9210D1*
X10311D2*
X12210D1*
X13311D2*
X16499D1*
X17518D2*
X19499D1*
X20518D2*
X29933D1*
X57690D2*
X63292D1*
X5842Y37284D2*
X9530D1*
X9986D2*
X12530D1*
X12986D2*
X16374D1*
X17647D2*
X19374D1*
X20647D2*
X29886D1*
X57936D2*
X63292D1*
X5776Y37035D2*
X16362D1*
X17658D2*
X19362D1*
X20658D2*
X29792D1*
X58186D2*
X63292D1*
X4590Y36787D2*
X4839D1*
X5541D2*
X16456D1*
X17561D2*
X19456D1*
X20561D2*
X21585D1*
X22932D2*
X23710D1*
X25057D2*
X25835D1*
X27182D2*
X29804D1*
X58436D2*
X63292D1*
X4590Y36538D2*
X4749D1*
X5631D2*
X16503D1*
X17514D2*
X19503D1*
X20514D2*
X21585D1*
X22932D2*
X23710D1*
X25057D2*
X25835D1*
X27182D2*
X29929D1*
X58682D2*
X63292D1*
X5803Y36289D2*
X16374D1*
X17643D2*
X19374D1*
X20643D2*
X21585D1*
X22932D2*
X23710D1*
X25057D2*
X25835D1*
X27182D2*
X29890D1*
X58932D2*
X63292D1*
X5846Y36041D2*
X16358D1*
X17658D2*
X19358D1*
X20658D2*
X21585D1*
X22932D2*
X23710D1*
X25057D2*
X25835D1*
X27182D2*
X29792D1*
X59182D2*
X63292D1*
X5783Y35792D2*
X16452D1*
X17565D2*
X19452D1*
X20565D2*
X21585D1*
X22932D2*
X23710D1*
X25057D2*
X25835D1*
X27182D2*
X29804D1*
X59428D2*
X63292D1*
X4590Y35543D2*
X4811D1*
X5569D2*
X16507D1*
X17510D2*
X19507D1*
X20510D2*
X29925D1*
X59670D2*
X63292D1*
X4590Y35294D2*
X4769D1*
X5611D2*
X16374D1*
X17643D2*
X19374D1*
X20643D2*
X29894D1*
X59740D2*
X63292D1*
X5799Y35046D2*
X16358D1*
X17658D2*
X19358D1*
X20658D2*
X29792D1*
X59740D2*
X63292D1*
X5846Y34797D2*
X16448D1*
X17569D2*
X19448D1*
X20569D2*
X20784D1*
X22096D2*
X26995D1*
X27854D2*
X29800D1*
X59740D2*
X63292D1*
X5791Y34548D2*
X16511D1*
X17506D2*
X19511D1*
X20506D2*
X20784D1*
X22096D2*
X26815D1*
X28674D2*
X29921D1*
X59740D2*
X63292D1*
X4590Y34300D2*
X4788D1*
X5592D2*
X16378D1*
X17643D2*
X19378D1*
X20643D2*
X20787D1*
X22096D2*
X26769D1*
X28920D2*
X29897D1*
X59740D2*
X63292D1*
X4590Y34051D2*
X16358D1*
X17658D2*
X19358D1*
X20658D2*
X20787D1*
X22096D2*
X26827D1*
X29170D2*
X29796D1*
X60233D2*
X63292D1*
X4590Y33802D2*
X16444D1*
X17572D2*
X19444D1*
X20572D2*
X20784D1*
X22096D2*
X26999D1*
X29420D2*
X29800D1*
X60440D2*
X63292D1*
X4590Y33554D2*
X16519D1*
X17502D2*
X19519D1*
X22049D2*
X25339D1*
X29666D2*
X29917D1*
X36963D2*
X46186D1*
X60494D2*
X63292D1*
X4590Y33305D2*
X16378D1*
X17639D2*
X19378D1*
X22096D2*
X25089D1*
X36979D2*
X46186D1*
X60451D2*
X63292D1*
X4590Y33056D2*
X14616D1*
X15651D2*
X16358D1*
X17658D2*
X18394D1*
X37084D2*
X46186D1*
X60268D2*
X60400D1*
X61229D2*
X63292D1*
X4590Y32808D2*
X14483D1*
X15783D2*
X16444D1*
X17576D2*
X18046D1*
X37080D2*
X46491D1*
X59397D2*
X60269D1*
X61361D2*
X63292D1*
X4590Y32559D2*
X14464D1*
X15803D2*
X16522D1*
X17498D2*
X17796D1*
X36967D2*
X46729D1*
X59151D2*
X60093D1*
X61358D2*
X63292D1*
X4590Y32310D2*
X9272D1*
X10244D2*
X12104D1*
X13412D2*
X14542D1*
X15725D2*
X16378D1*
X36975D2*
X46979D1*
X59115D2*
X59847D1*
X61486D2*
X63292D1*
X4590Y32062D2*
X9132D1*
X10389D2*
X12104D1*
X13412D2*
X14796D1*
X15471D2*
X16358D1*
X37084D2*
X47229D1*
X59115D2*
X59597D1*
X61483D2*
X63292D1*
X4590Y31813D2*
X9108D1*
X10412D2*
X12104D1*
X13412D2*
X16440D1*
X37080D2*
X47476D1*
X59115D2*
X59347D1*
X61346D2*
X63292D1*
X4590Y31564D2*
X9190D1*
X10330D2*
X12104D1*
X13412D2*
X16526D1*
X36971D2*
X47726D1*
X60904D2*
X63292D1*
X4590Y31315D2*
X9456D1*
X10061D2*
X12104D1*
X13412D2*
X16382D1*
X28080D2*
X28476D1*
X36971D2*
X50476D1*
X60654D2*
X63292D1*
X4590Y31067D2*
X14460D1*
X15807D2*
X16358D1*
X28029D2*
X28515D1*
X37084D2*
X50722D1*
X60408D2*
X63292D1*
X4590Y30818D2*
X14460D1*
X15807D2*
X16436D1*
X27838D2*
X28515D1*
X37084D2*
X50972D1*
X60158D2*
X63292D1*
X4590Y30569D2*
X14460D1*
X15807D2*
X16698D1*
X17319D2*
X17585D1*
X28026D2*
X28515D1*
X36975D2*
X38065D1*
X38440D2*
X51222D1*
X59908D2*
X63292D1*
X4590Y30321D2*
X14460D1*
X15807D2*
X17585D1*
X28080D2*
X28515D1*
X36967D2*
X37702D1*
X38803D2*
X51468D1*
X60240D2*
X63292D1*
X4590Y30072D2*
X14460D1*
X15807D2*
X17585D1*
X28029D2*
X28515D1*
X37080D2*
X37593D1*
X38912D2*
X51718D1*
X60350D2*
X63292D1*
X4590Y29823D2*
X17585D1*
X20537D2*
X21022D1*
X27842D2*
X28515D1*
X37084D2*
X37589D1*
X38916D2*
X51968D1*
X60354D2*
X63292D1*
X4590Y29575D2*
X17585D1*
X20291D2*
X20843D1*
X28022D2*
X28515D1*
X36979D2*
X37690D1*
X38815D2*
X52214D1*
X60252D2*
X63292D1*
X7088Y29326D2*
X15671D1*
X16346D2*
X17335D1*
X20041D2*
X20784D1*
X28080D2*
X28515D1*
X36963D2*
X38015D1*
X38490D2*
X52464D1*
X59928D2*
X60792D1*
X7088Y29077D2*
X15421D1*
X16600D2*
X17335D1*
X19932D2*
X20831D1*
X28033D2*
X28515D1*
X37080D2*
X52714D1*
X59615D2*
X60792D1*
X7088Y28829D2*
X15339D1*
X16678D2*
X17335D1*
X19998D2*
X21015D1*
X27850D2*
X28515D1*
X37084D2*
X40921D1*
X41709D2*
X52960D1*
X59615D2*
X60792D1*
X7088Y28580D2*
X15358D1*
X16658D2*
X17335D1*
X19944D2*
X20843D1*
X28022D2*
X28515D1*
X36983D2*
X37577D1*
X38928D2*
X40772D1*
X41858D2*
X53210D1*
X59615D2*
X60792D1*
X7088Y28331D2*
X15491D1*
X16526D2*
X17335D1*
X19865D2*
X20784D1*
X28080D2*
X28515D1*
X36959D2*
X37577D1*
X38928D2*
X40765D1*
X41865D2*
X53386D1*
X59713D2*
X60792D1*
X7088Y28083D2*
X17616D1*
X18799D2*
X19015D1*
X19865D2*
X20831D1*
X28033D2*
X28515D1*
X37080D2*
X37577D1*
X38928D2*
X40890D1*
X41740D2*
X53386D1*
X59740D2*
X60792D1*
X7088Y27834D2*
X17370D1*
X18549D2*
X19015D1*
X19865D2*
X21007D1*
X27858D2*
X28515D1*
X37088D2*
X37577D1*
X38928D2*
X40890D1*
X41740D2*
X53386D1*
X59740D2*
X60792D1*
X7088Y27585D2*
X17120D1*
X18299D2*
X19015D1*
X19865D2*
X20847D1*
X28018D2*
X28515D1*
X36986D2*
X37577D1*
X38928D2*
X40890D1*
X41740D2*
X53386D1*
X59740D2*
X60792D1*
X7088Y27336D2*
X16870D1*
X18053D2*
X19015D1*
X19865D2*
X20784D1*
X28080D2*
X28515D1*
X36955D2*
X37577D1*
X38928D2*
X40890D1*
X41740D2*
X53386D1*
X59740D2*
X60792D1*
X7088Y27088D2*
X16624D1*
X17803D2*
X19015D1*
X19865D2*
X20827D1*
X28037D2*
X28515D1*
X37076D2*
X40890D1*
X41740D2*
X53386D1*
X59740D2*
X60792D1*
X7088Y26839D2*
X10933D1*
X11197D2*
X16374D1*
X17553D2*
X19015D1*
X19865D2*
X21003D1*
X27861D2*
X28515D1*
X40197D2*
X40890D1*
X41740D2*
X43179D1*
X44201D2*
X46179D1*
X47201D2*
X48429D1*
X49451D2*
X51429D1*
X52451D2*
X53386D1*
X59740D2*
X60792D1*
X7088Y26590D2*
X10581D1*
X11549D2*
X16124D1*
X17307D2*
X19015D1*
X19865D2*
X20847D1*
X28018D2*
X28515D1*
X40354D2*
X40890D1*
X41740D2*
X43054D1*
X44326D2*
X46054D1*
X47326D2*
X48304D1*
X49576D2*
X51304D1*
X52576D2*
X53386D1*
X59740D2*
X60792D1*
X7088Y26342D2*
X10452D1*
X11623D2*
X14378D1*
X17057D2*
X19015D1*
X19865D2*
X20784D1*
X28080D2*
X28515D1*
X40365D2*
X40890D1*
X41740D2*
X43042D1*
X44338D2*
X46042D1*
X47338D2*
X48292D1*
X49588D2*
X51292D1*
X52588D2*
X53155D1*
X60182D2*
X60792D1*
X7088Y26093D2*
X10202D1*
X11576D2*
X14128D1*
X16807D2*
X19015D1*
X20194D2*
X20827D1*
X28236D2*
X28515D1*
X40248D2*
X40890D1*
X41740D2*
X43140D1*
X44240D2*
X46140D1*
X47240D2*
X48390D1*
X49490D2*
X51390D1*
X52490D2*
X53155D1*
X60401D2*
X60792D1*
X7088Y25844D2*
X7558D1*
X11346D2*
X13558D1*
X16561D2*
X19026D1*
X20408D2*
X20995D1*
X37088D2*
X37413D1*
X38717D2*
X40890D1*
X41740D2*
X43183D1*
X44197D2*
X46183D1*
X47197D2*
X48433D1*
X49447D2*
X51433D1*
X52447D2*
X53155D1*
X60463D2*
X60792D1*
X7088Y25596D2*
X7429D1*
X10986D2*
X13429D1*
X14811D2*
X15155D1*
X16475D2*
X19155D1*
X20475D2*
X20851D1*
X36994D2*
X37507D1*
X38623D2*
X40890D1*
X41740D2*
X43054D1*
X44326D2*
X46054D1*
X47326D2*
X48304D1*
X49576D2*
X51304D1*
X52576D2*
X53155D1*
X60424D2*
X60792D1*
X7088Y25347D2*
X7417D1*
X10736D2*
X13417D1*
X14713D2*
X15194D1*
X16436D2*
X19194D1*
X20436D2*
X20784D1*
X36947D2*
X37811D1*
X38319D2*
X40890D1*
X41740D2*
X43042D1*
X44338D2*
X46042D1*
X47338D2*
X48292D1*
X49588D2*
X51292D1*
X52588D2*
X53155D1*
X60256D2*
X60792D1*
X7088Y25098D2*
X7511D1*
X10483D2*
X13511D1*
X14619D2*
X15358D1*
X16272D2*
X19358D1*
X20272D2*
X20823D1*
X37076D2*
X40780D1*
X41850D2*
X43136D1*
X44244D2*
X46136D1*
X47244D2*
X48386D1*
X49494D2*
X51386D1*
X52494D2*
X53222D1*
X60397D2*
X60792D1*
X7088Y24850D2*
X7819D1*
X8311D2*
X13819D1*
X14311D2*
X20991D1*
X37088D2*
X37897D1*
X37981D2*
X40765D1*
X41865D2*
X43186D1*
X44194D2*
X46186D1*
X47194D2*
X48436D1*
X49444D2*
X51436D1*
X52444D2*
X53155D1*
X60463D2*
X60792D1*
X7088Y24601D2*
X20854D1*
X36994D2*
X37464D1*
X41752D2*
X43058D1*
X44322D2*
X46058D1*
X47322D2*
X48308D1*
X49572D2*
X51308D1*
X52572D2*
X53190D1*
X60428D2*
X60792D1*
X7088Y24352D2*
X20784D1*
X36944D2*
X37382D1*
X41498D2*
X43042D1*
X44338D2*
X46042D1*
X47338D2*
X48292D1*
X49588D2*
X51292D1*
X52588D2*
X53358D1*
X60264D2*
X60792D1*
X7088Y24104D2*
X20823D1*
X37072D2*
X37425D1*
X41455D2*
X43132D1*
X44248D2*
X46132D1*
X47248D2*
X48382D1*
X49498D2*
X51382D1*
X52498D2*
X53226D1*
X60397D2*
X60792D1*
X7088Y23855D2*
X20983D1*
X28319D2*
X28573D1*
X37088D2*
X37405D1*
X40225D2*
X40644D1*
X41236D2*
X43190D1*
X44190D2*
X46190D1*
X47190D2*
X48440D1*
X49440D2*
X51440D1*
X52440D2*
X53155D1*
X60463D2*
X60792D1*
X7088Y23606D2*
X20854D1*
X28072D2*
X28808D1*
X36998D2*
X37386D1*
X40244D2*
X43058D1*
X44322D2*
X46058D1*
X47322D2*
X48308D1*
X49572D2*
X51308D1*
X52572D2*
X53011D1*
X60428D2*
X60792D1*
X7088Y23357D2*
X20788D1*
X28076D2*
X28683D1*
X36936D2*
X37468D1*
X40912D2*
X43042D1*
X44338D2*
X45968D1*
X47338D2*
X48292D1*
X49588D2*
X51292D1*
X52588D2*
X52761D1*
X60268D2*
X60792D1*
X7088Y23109D2*
X15265D1*
X16162D2*
X19351D1*
X28045D2*
X28460D1*
X37072D2*
X37382D1*
X40998D2*
X43128D1*
X44252D2*
X45718D1*
X47252D2*
X48378D1*
X49502D2*
X51378D1*
X60393D2*
X60792D1*
X7088Y22860D2*
X7409D1*
X8721D2*
X13569D1*
X14561D2*
X15065D1*
X16361D2*
X19351D1*
X20779D2*
X20979D1*
X26615D2*
X26964D1*
X27885D2*
X28394D1*
X37092D2*
X37421D1*
X40959D2*
X43194D1*
X44186D2*
X45608D1*
X47186D2*
X48444D1*
X49436D2*
X51444D1*
X60463D2*
X60792D1*
X7088Y22611D2*
X7409D1*
X8721D2*
X13433D1*
X14697D2*
X15003D1*
X16428D2*
X19351D1*
X26615D2*
X26843D1*
X28006D2*
X28425D1*
X37002D2*
X37632D1*
X38248D2*
X40132D1*
X40748D2*
X43058D1*
X44322D2*
X45604D1*
X47322D2*
X48308D1*
X49572D2*
X51308D1*
X60432D2*
X60792D1*
X7088Y22363D2*
X7409D1*
X8721D2*
X13413D1*
X14717D2*
X15030D1*
X16397D2*
X19351D1*
X26561D2*
X26772D1*
X28076D2*
X28573D1*
X36932D2*
X37565D1*
X38565D2*
X43038D1*
X44358D2*
X45604D1*
X47342D2*
X47714D1*
X49592D2*
X50214D1*
X50916D2*
X51288D1*
X60276D2*
X60792D1*
X7088Y22114D2*
X7409D1*
X8721D2*
X13499D1*
X14631D2*
X15167D1*
X16260D2*
X19351D1*
X26330D2*
X26804D1*
X28045D2*
X29390D1*
X37072D2*
X37429D1*
X38701D2*
X43124D1*
X44608D2*
X45604D1*
X47256D2*
X47534D1*
X51096D2*
X51374D1*
X60389D2*
X60792D1*
X7088Y21865D2*
X7409D1*
X8721D2*
X13780D1*
X14350D2*
X20972D1*
X26080D2*
X26956D1*
X27889D2*
X29390D1*
X37092D2*
X37409D1*
X38721D2*
X43198D1*
X44854D2*
X45604D1*
X47182D2*
X47511D1*
X51119D2*
X51448D1*
X60463D2*
X60792D1*
X7088Y21617D2*
X20862D1*
X25830D2*
X26847D1*
X28002D2*
X29390D1*
X37006D2*
X37495D1*
X38635D2*
X43061D1*
X45104D2*
X45604D1*
X47319D2*
X47612D1*
X51018D2*
X51311D1*
X60432D2*
X60792D1*
X15826Y21368D2*
X20788D1*
X25584D2*
X26772D1*
X28076D2*
X28390D1*
X37096D2*
X37729D1*
X38401D2*
X41729D1*
X42401D2*
X43038D1*
X45354D2*
X45604D1*
X47342D2*
X48288D1*
X49592D2*
X51288D1*
X60279D2*
X60792D1*
X15838Y21119D2*
X20155D1*
X25334D2*
X26800D1*
X28049D2*
X28390D1*
X37096D2*
X37483D1*
X38647D2*
X41483D1*
X42647D2*
X43124D1*
X44256D2*
X44421D1*
X47256D2*
X48374D1*
X49506D2*
X51374D1*
X60385D2*
X60792D1*
X15838Y20871D2*
X19905D1*
X25088D2*
X26952D1*
X27897D2*
X28390D1*
X37096D2*
X37409D1*
X38721D2*
X41409D1*
X42721D2*
X43206D1*
X44174D2*
X44640D1*
X47346D2*
X48456D1*
X49424D2*
X51284D1*
X60463D2*
X60792D1*
X15838Y20622D2*
X19655D1*
X24838D2*
X26917D1*
X27850D2*
X28390D1*
X29740D2*
X29869D1*
X37096D2*
X37436D1*
X38694D2*
X41436D1*
X42694D2*
X43061D1*
X44319D2*
X44640D1*
X45490D2*
X45741D1*
X47346D2*
X48311D1*
X49569D2*
X51284D1*
X60436D2*
X60792D1*
X15928Y20373D2*
X19409D1*
X24588D2*
X26827D1*
X27940D2*
X28390D1*
X29740D2*
X30015D1*
X37096D2*
X37585D1*
X38545D2*
X41585D1*
X42545D2*
X43038D1*
X44342D2*
X44640D1*
X45490D2*
X45991D1*
X47346D2*
X48288D1*
X49592D2*
X51284D1*
X60283D2*
X60792D1*
X16072Y20125D2*
X19159D1*
X24342D2*
X26601D1*
X27908D2*
X29784D1*
X36971D2*
X43120D1*
X44260D2*
X44647D1*
X45721D2*
X46034D1*
X47346D2*
X48370D1*
X49510D2*
X51284D1*
X60385D2*
X60792D1*
X16096Y19876D2*
X18909D1*
X24092D2*
X26351D1*
X27709D2*
X29534D1*
X37221D2*
X43386D1*
X43994D2*
X44788D1*
X47346D2*
X48636D1*
X49244D2*
X51284D1*
X60463D2*
X60792D1*
X16018Y19627D2*
X18663D1*
X23842D2*
X26101D1*
X27283D2*
X29288D1*
X37467D2*
X45038D1*
X46217D2*
X52140D1*
X58115D2*
X58409D1*
X60436D2*
X60792D1*
X15838Y19378D2*
X18436D1*
X23596D2*
X25737D1*
X27033D2*
X29038D1*
X37717D2*
X45284D1*
X46467D2*
X52140D1*
X58115D2*
X58655D1*
X60291D2*
X60792D1*
X15838Y19130D2*
X18390D1*
X23346D2*
X25444D1*
X26787D2*
X28788D1*
X42467D2*
X45534D1*
X46717D2*
X52140D1*
X58115D2*
X58905D1*
X60381D2*
X60792D1*
X15838Y18881D2*
X18390D1*
X23096D2*
X25382D1*
X26537D2*
X28542D1*
X42713D2*
X45784D1*
X46963D2*
X52140D1*
X58115D2*
X59155D1*
X60463D2*
X60792D1*
X15838Y18632D2*
X18390D1*
X21475D2*
X25436D1*
X26444D2*
X28292D1*
X44365D2*
X45347D1*
X47213D2*
X48265D1*
X49615D2*
X50597D1*
X51283D2*
X52140D1*
X56725D2*
X56889D1*
X58115D2*
X59183D1*
X60440D2*
X60792D1*
X16014Y18384D2*
X18390D1*
X21225D2*
X25702D1*
X26178D2*
X28065D1*
X44365D2*
X45101D1*
X47463D2*
X48265D1*
X49615D2*
X50351D1*
X51529D2*
X52140D1*
X56475D2*
X56890D1*
X58115D2*
X59327D1*
X60295D2*
X60792D1*
X16096Y18135D2*
X18390D1*
X20990D2*
X22147D1*
X22733D2*
X23147D1*
X23733D2*
X24147D1*
X24733D2*
X25147D1*
X25733D2*
X26147D1*
X26733D2*
X27147D1*
X27733D2*
X28015D1*
X44365D2*
X45019D1*
X46361D2*
X46529D1*
X47709D2*
X48265D1*
X49615D2*
X50269D1*
X51611D2*
X52140D1*
X56225D2*
X56890D1*
X58115D2*
X59241D1*
X60377D2*
X60792D1*
X16072Y17886D2*
X18390D1*
X20990D2*
X21874D1*
X44365D2*
X45042D1*
X46338D2*
X46776D1*
X47959D2*
X48265D1*
X49615D2*
X50292D1*
X51588D2*
X52140D1*
X55979D2*
X56890D1*
X58115D2*
X59159D1*
X60459D2*
X60792D1*
X15936Y17638D2*
X18390D1*
X20990D2*
X21788D1*
X44365D2*
X45175D1*
X46205D2*
X47026D1*
X49615D2*
X50425D1*
X51455D2*
X52140D1*
X55729D2*
X56890D1*
X58115D2*
X59179D1*
X60440D2*
X60792D1*
X15838Y17389D2*
X18390D1*
X20990D2*
X21811D1*
X43240D2*
X47276D1*
X48455D2*
X52140D1*
X55479D2*
X56890D1*
X58115D2*
X59319D1*
X60299D2*
X60792D1*
X15838Y17140D2*
X18390D1*
X20990D2*
X21948D1*
X43240D2*
X47522D1*
X48686D2*
X52140D1*
X55233D2*
X56890D1*
X58115D2*
X59245D1*
X60373D2*
X60792D1*
X15838Y16892D2*
X18390D1*
X20990D2*
X24019D1*
X43240D2*
X47772D1*
X48740D2*
X51925D1*
X54983D2*
X56890D1*
X58115D2*
X59159D1*
X60459D2*
X60792D1*
X15838Y16643D2*
X18390D1*
X21514D2*
X24147D1*
X43236D2*
X47890D1*
X48740D2*
X51679D1*
X54733D2*
X56890D1*
X58115D2*
X59179D1*
X60440D2*
X60792D1*
X15838Y16394D2*
X18390D1*
X21619D2*
X24394D1*
X43111D2*
X47890D1*
X48740D2*
X51429D1*
X54303D2*
X56890D1*
X58115D2*
X59315D1*
X60303D2*
X60792D1*
X15838Y16146D2*
X18390D1*
X21826D2*
X24644D1*
X42861D2*
X47890D1*
X48740D2*
X51179D1*
X54373D2*
X56890D1*
X58115D2*
X59249D1*
X60373D2*
X60792D1*
X15838Y15897D2*
X18390D1*
X22072D2*
X24894D1*
X42611D2*
X47890D1*
X48740D2*
X50933D1*
X54459D2*
X56890D1*
X58115D2*
X59159D1*
X60459D2*
X60792D1*
X15838Y15648D2*
X18390D1*
X22322D2*
X25144D1*
X42361D2*
X47890D1*
X48740D2*
X50683D1*
X52990D2*
X53179D1*
X54444D2*
X56890D1*
X58115D2*
X59179D1*
X60444D2*
X60792D1*
X15838Y15399D2*
X18390D1*
X22572D2*
X25382D1*
X26498D2*
X28499D1*
X30756D2*
X47890D1*
X48740D2*
X50433D1*
X52740D2*
X53311D1*
X54307D2*
X56890D1*
X58115D2*
X59311D1*
X60307D2*
X60792D1*
X15838Y15151D2*
X18390D1*
X22803D2*
X25464D1*
X26416D2*
X28386D1*
X30869D2*
X31644D1*
X32236D2*
X47890D1*
X48740D2*
X50186D1*
X52740D2*
X53253D1*
X54369D2*
X56890D1*
X58115D2*
X59253D1*
X60369D2*
X60792D1*
X15838Y14902D2*
X18390D1*
X20990D2*
X21261D1*
X22865D2*
X25515D1*
X26365D2*
X28405D1*
X32455D2*
X47890D1*
X48740D2*
X49936D1*
X52740D2*
X53159D1*
X54459D2*
X56890D1*
X58115D2*
X59159D1*
X60459D2*
X60792D1*
X15838Y14653D2*
X17538D1*
X20990D2*
X21511D1*
X22881D2*
X25515D1*
X26365D2*
X28573D1*
X32498D2*
X47890D1*
X48740D2*
X49686D1*
X52740D2*
X53175D1*
X54444D2*
X56890D1*
X58115D2*
X59175D1*
X60444D2*
X60792D1*
X15838Y14405D2*
X17436D1*
X20990D2*
X21640D1*
X22990D2*
X25515D1*
X26365D2*
X28964D1*
X32416D2*
X47890D1*
X48740D2*
X49440D1*
X52740D2*
X53308D1*
X54315D2*
X56890D1*
X58115D2*
X59308D1*
X60315D2*
X60792D1*
X15838Y14156D2*
X17394D1*
X20990D2*
X21640D1*
X22975D2*
X25503D1*
X26377D2*
X29386D1*
X29496D2*
X31886D1*
X31996D2*
X47890D1*
X48740D2*
X49190D1*
X52740D2*
X53257D1*
X54365D2*
X56890D1*
X58115D2*
X59257D1*
X60365D2*
X60792D1*
X15838Y13907D2*
X17144D1*
X20990D2*
X21640D1*
X22811D2*
X25390D1*
X26490D2*
X42890D1*
X44240D2*
X47890D1*
X48740D2*
X48956D1*
X52740D2*
X53163D1*
X54459D2*
X56890D1*
X58115D2*
X59163D1*
X60459D2*
X60792D1*
X15834Y13659D2*
X16913D1*
X20990D2*
X21640D1*
X22490D2*
X25405D1*
X26475D2*
X42890D1*
X44240D2*
X47890D1*
X48740D2*
X48890D1*
X52740D2*
X53175D1*
X54444D2*
X56890D1*
X58115D2*
X59175D1*
X60444D2*
X60792D1*
X16002Y13410D2*
X16854D1*
X20990D2*
X21640D1*
X22490D2*
X25565D1*
X26315D2*
X42890D1*
X44240D2*
X44870D1*
X52971D2*
X53304D1*
X54319D2*
X56890D1*
X58115D2*
X59304D1*
X60319D2*
X60792D1*
X16092Y13161D2*
X16854D1*
X20990D2*
X21640D1*
X22490D2*
X42647D1*
X44240D2*
X44698D1*
X52971D2*
X53257D1*
X54361D2*
X56890D1*
X58115D2*
X59257D1*
X60361D2*
X60792D1*
X16080Y12913D2*
X16854D1*
X20990D2*
X21640D1*
X22490D2*
X42397D1*
X44240D2*
X44659D1*
X52971D2*
X53161D1*
X54459D2*
X56890D1*
X58115D2*
X59163D1*
X60459D2*
X60792D1*
X15951Y12664D2*
X16854D1*
X17776D2*
X18390D1*
X20990D2*
X21554D1*
X22576D2*
X42147D1*
X43428D2*
X44722D1*
X52971D2*
X53175D1*
X54447D2*
X56890D1*
X58115D2*
X59175D1*
X60447D2*
X60792D1*
X14088Y12415D2*
X16854D1*
X17776D2*
X18390D1*
X20990D2*
X21507D1*
X22623D2*
X41901D1*
X43182D2*
X44940D1*
X45690D2*
X45940D1*
X46690D2*
X46940D1*
X52971D2*
X53300D1*
X54322D2*
X56890D1*
X58115D2*
X59300D1*
X60322D2*
X60792D1*
X14088Y12167D2*
X16854D1*
X17776D2*
X18390D1*
X20990D2*
X21581D1*
X23096D2*
X23225D1*
X23654D2*
X24226D1*
X24654D2*
X25226D1*
X25654D2*
X26226D1*
X26654D2*
X27226D1*
X27654D2*
X28226D1*
X28654D2*
X29226D1*
X29654D2*
X30226D1*
X30654D2*
X31226D1*
X31654D2*
X32226D1*
X32654D2*
X33226D1*
X33654D2*
X34226D1*
X34654D2*
X35226D1*
X35654D2*
X36226D1*
X36654D2*
X37226D1*
X37654D2*
X38226D1*
X38654D2*
X39226D1*
X39654D2*
X40226D1*
X40654D2*
X41226D1*
X42932D2*
X47448D1*
X53229D2*
X56890D1*
X58115D2*
X60792D1*
X14088Y11918D2*
X16854D1*
X17776D2*
X18390D1*
X20990D2*
X21784D1*
X42682D2*
X43101D1*
X44029D2*
X47698D1*
X53479D2*
X56890D1*
X58115D2*
X60792D1*
X14088Y11669D2*
X16854D1*
X17776D2*
X18390D1*
X20990D2*
X21784D1*
X42436D2*
X42933D1*
X44197D2*
X47983D1*
X53725D2*
X56890D1*
X58115D2*
X60792D1*
X14088Y11420D2*
X16854D1*
X17776D2*
X18390D1*
X20990D2*
X21784D1*
X42186D2*
X42890D1*
X44240D2*
X52694D1*
X53975D2*
X56890D1*
X58115D2*
X60792D1*
X14088Y11172D2*
X16854D1*
X17776D2*
X18390D1*
X20990D2*
X21784D1*
X41959D2*
X42948D1*
X44182D2*
X52944D1*
X54225D2*
X56890D1*
X58115D2*
X60792D1*
X14088Y10923D2*
X16854D1*
X17776D2*
X18390D1*
X20990D2*
X43147D1*
X43983D2*
X53190D1*
X54471D2*
X56890D1*
X58115D2*
X60792D1*
X7088Y10674D2*
X16854D1*
X17776D2*
X18390D1*
X20990D2*
X53440D1*
X54635D2*
X56890D1*
X58115D2*
X60792D1*
X7088Y10426D2*
X16854D1*
X17776D2*
X18390D1*
X20990D2*
X44890D1*
X45740D2*
X45890D1*
X46740D2*
X46890D1*
X47740D2*
X47890D1*
X48740D2*
X48890D1*
X49740D2*
X49890D1*
X50740D2*
X50890D1*
X51740D2*
X51890D1*
X52740D2*
X53515D1*
X54865D2*
X55733D1*
X56647D2*
X56811D1*
X58115D2*
X60792D1*
X7088Y10177D2*
X16854D1*
X17776D2*
X18390D1*
X20990D2*
X44706D1*
X52924D2*
X53515D1*
X54865D2*
X55561D1*
X58115D2*
X60792D1*
X7088Y9928D2*
X16854D1*
X17776D2*
X18390D1*
X20990D2*
X44659D1*
X52971D2*
X53515D1*
X54865D2*
X55515D1*
X58236D2*
X60792D1*
X7088Y9680D2*
X9882D1*
X10248D2*
X13882D1*
X14248D2*
X15237D1*
X15643D2*
X16854D1*
X17776D2*
X18390D1*
X20990D2*
X44718D1*
X52912D2*
X53515D1*
X54865D2*
X55569D1*
X56811D2*
X57132D1*
X58233D2*
X60792D1*
X7088Y9431D2*
X9522D1*
X10608D2*
X13522D1*
X14608D2*
X14894D1*
X17776D2*
X18390D1*
X20990D2*
X44917D1*
X45713D2*
X45917D1*
X46713D2*
X46917D1*
X47713D2*
X47917D1*
X48713D2*
X48917D1*
X49713D2*
X49917D1*
X50713D2*
X50917D1*
X51713D2*
X51917D1*
X52713D2*
X53515D1*
X54865D2*
X55761D1*
X56619D2*
X57292D1*
X58088D2*
X60792D1*
X7088Y9182D2*
X9417D1*
X10713D2*
X13417D1*
X17690D2*
X18390D1*
X20990D2*
X60792D1*
X7088Y8934D2*
X9417D1*
X10713D2*
X13417D1*
X17447D2*
X18390D1*
X20990D2*
X31710D1*
X32170D2*
X41960D1*
X42420D2*
X60792D1*
X7088Y8685D2*
X9530D1*
X10600D2*
X13530D1*
X14600D2*
X14909D1*
X17170D2*
X18390D1*
X20990D2*
X31440D1*
X42690D2*
X60792D1*
X7088Y8436D2*
X9952D1*
X10178D2*
X12272D1*
X13248D2*
X13952D1*
X14178D2*
X14835D1*
X15807D2*
X18390D1*
X21033D2*
X30265D1*
X47850D2*
X60792D1*
X4590Y8188D2*
X12108D1*
X13412D2*
X14667D1*
X15971D2*
X18390D1*
X22783D2*
X29972D1*
X47986D2*
X63292D1*
X4590Y7939D2*
X12065D1*
X13455D2*
X14624D1*
X16014D2*
X17136D1*
X23350D2*
X23529D1*
X24350D2*
X24529D1*
X25350D2*
X25529D1*
X26350D2*
X26529D1*
X27350D2*
X27529D1*
X28350D2*
X28529D1*
X29350D2*
X29529D1*
X47986D2*
X63292D1*
X4590Y7690D2*
X12120D1*
X13401D2*
X14679D1*
X15963D2*
X17136D1*
X47846D2*
X63292D1*
X4590Y7441D2*
X12265D1*
X13221D2*
X14858D1*
X15779D2*
X17136D1*
X46596D2*
X63292D1*
X4590Y7193D2*
X8702D1*
X10654D2*
X12265D1*
X13279D2*
X17136D1*
X46545D2*
X63292D1*
X4590Y6944D2*
X8632D1*
X10744D2*
X12351D1*
X13526D2*
X17136D1*
X46354D2*
X63292D1*
X4590Y6695D2*
X8632D1*
X10748D2*
X12308D1*
X13776D2*
X14624D1*
X16014D2*
X17136D1*
X46541D2*
X63292D1*
X4590Y6447D2*
X8632D1*
X10744D2*
X12120D1*
X14026D2*
X14624D1*
X16014D2*
X17175D1*
X46596D2*
X63292D1*
X4590Y6198D2*
X4827D1*
X6053D2*
X8702D1*
X10654D2*
X12065D1*
X14272D2*
X14624D1*
X16014D2*
X17339D1*
X46545D2*
X61827D1*
X63053D2*
X63292D1*
X6279Y5949D2*
X12108D1*
X16014D2*
X18409D1*
X39361D2*
X39522D1*
X40361D2*
X40522D1*
X41361D2*
X41522D1*
X42361D2*
X42522D1*
X43361D2*
X43522D1*
X44361D2*
X44522D1*
X45361D2*
X45522D1*
X46361D2*
X61601D1*
X6389Y5701D2*
X12269D1*
X13252D2*
X13589D1*
X16014D2*
X18589D1*
X27865D2*
X28015D1*
X38498D2*
X61491D1*
X6424Y5452D2*
X13839D1*
X15018D2*
X18839D1*
X27865D2*
X28015D1*
X38444D2*
X61456D1*
X6397Y5203D2*
X14085D1*
X15268D2*
X19085D1*
X27865D2*
X28093D1*
X38186D2*
X61483D1*
X6291Y4955D2*
X14335D1*
X27850D2*
X28335D1*
X37795D2*
X61589D1*
X6084Y4706D2*
X14585D1*
X27670D2*
X61796D1*
X44214Y11415D2*
X44198Y11291D1*
X44158Y11173D1*
X44096Y11065D1*
X44014Y10970D1*
X43916Y10893D1*
X43805Y10836D1*
X43685Y10801D1*
X43561Y10790D1*
X43437Y10803D1*
X43317Y10839D1*
X43207Y10897D1*
X43110Y10976D1*
X43030Y11071D1*
X42969Y11181D1*
X42930Y11299D1*
X42915Y11423D1*
X42924Y11548D1*
X42956Y11668D1*
X43011Y11780D1*
X43086Y11880D1*
X43179Y11963D1*
X43286Y12027D1*
X43404Y12070D1*
X43527Y12089D1*
X43652Y12084D1*
X43773Y12056D1*
X43887Y12004D1*
X43989Y11932D1*
X44075Y11842D1*
X44143Y11737D1*
X44189Y11621D1*
X44212Y11499D1*
X44214Y11415D1*
X38902Y29915D2*
X38885Y29791D1*
X38845Y29673D1*
X38783Y29565D1*
X38702Y29470D1*
X38604Y29393D1*
X38493Y29336D1*
X38373Y29301D1*
X38248Y29290D1*
X38124Y29303D1*
X38005Y29339D1*
X37895Y29397D1*
X37797Y29476D1*
X37717Y29571D1*
X37657Y29681D1*
X37618Y29799D1*
X37603Y29923D1*
X37612Y30048D1*
X37644Y30168D1*
X37699Y30280D1*
X37774Y30380D1*
X37867Y30463D1*
X37974Y30527D1*
X38091Y30570D1*
X38215Y30589D1*
X38339Y30584D1*
X38461Y30556D1*
X38575Y30504D1*
X38677Y30432D1*
X38763Y30342D1*
X38830Y30237D1*
X38877Y30121D1*
X38900Y29999D1*
X38902Y29915D1*
X37728Y28590D2*
X38902D1*
Y27290D1*
X37603D1*
Y28590D1*
X37728D1*
X22897Y38132D2*
X22861Y38012D1*
X22804Y37901D1*
X22726Y37804D1*
X22631Y37723D1*
X22522Y37662D1*
X22404Y37622D1*
X22280Y37606D1*
X22155Y37614D1*
X22035Y37646D1*
X21922Y37700D1*
X21822Y37775D1*
X21738Y37867D1*
X21673Y37974D1*
X21630Y38091D1*
X21610Y38214D1*
X21614Y38339D1*
X21642Y38460D1*
X21692Y38575D1*
X21764Y38677D1*
X21853Y38764D1*
X21958Y38832D1*
X22074Y38879D1*
X22196Y38903D1*
X22321D1*
X22443Y38879D1*
X22559Y38832D1*
X22664Y38764D1*
X22754Y38678D1*
X22825Y38575D1*
X22876Y38461D1*
X22903Y38340D1*
X22909Y38256D1*
X22897Y38132D1*
X21734Y36906D2*
X22909D1*
Y35606D1*
X21609D1*
Y36906D1*
X21734D1*
X15783Y32606D2*
X15767Y32482D1*
X15727Y32364D1*
X15665Y32256D1*
X15583Y32161D1*
X15485Y32084D1*
X15374Y32027D1*
X15254Y31992D1*
X15130Y31981D1*
X15006Y31994D1*
X14886Y32030D1*
X14776Y32088D1*
X14679Y32167D1*
X14599Y32262D1*
X14538Y32371D1*
X14499Y32490D1*
X14484Y32614D1*
X14493Y32739D1*
X14525Y32859D1*
X14580Y32971D1*
X14655Y33071D1*
X14748Y33154D1*
X14855Y33218D1*
X14973Y33261D1*
X15096Y33280D1*
X15221Y33275D1*
X15342Y33247D1*
X15456Y33195D1*
X15558Y33123D1*
X15644Y33033D1*
X15712Y32928D1*
X15758Y32812D1*
X15781Y32690D1*
X15783Y32606D1*
X14609Y31281D2*
X15784D1*
Y29981D1*
X14484D1*
Y31281D1*
X14609D1*
X46339Y18040D2*
X46323Y17916D1*
X46283Y17798D1*
X46221Y17690D1*
X46139Y17595D1*
X46041Y17518D1*
X45930Y17461D1*
X45810Y17426D1*
X45686Y17415D1*
X45562Y17428D1*
X45442Y17464D1*
X45332Y17522D1*
X45235Y17601D1*
X45155Y17696D1*
X45094Y17806D1*
X45055Y17924D1*
X45040Y18048D1*
X45049Y18173D1*
X45081Y18293D1*
X45136Y18405D1*
X45211Y18505D1*
X45304Y18588D1*
X45411Y18652D1*
X45529Y18695D1*
X45652Y18714D1*
X45777Y18709D1*
X45898Y18681D1*
X46012Y18629D1*
X46114Y18557D1*
X46200Y18467D1*
X46268Y18362D1*
X46314Y18246D1*
X46337Y18124D1*
X46339Y18040D1*
X43040Y18528D2*
Y18715D1*
X44340D1*
Y17415D1*
X43211D1*
X43215Y16690D1*
X43196Y16567D1*
X43137Y16453D1*
X42921Y16230D1*
X42348Y15657D1*
X42247Y15584D1*
X42125Y15545D1*
X41815Y15540D1*
X30561D1*
X30644Y15487D1*
X30732Y15400D1*
X30799Y15294D1*
X30838Y15176D1*
X30847Y15089D1*
X31585Y15090D1*
X31680Y15158D1*
X31796Y15205D1*
X31919Y15225D1*
X32043Y15215D1*
X32162Y15177D1*
X32269Y15112D1*
X32357Y15025D1*
X32424Y14919D1*
X32463Y14801D1*
X32475Y14690D1*
X32460Y14566D1*
X32418Y14449D1*
X32349Y14345D1*
X32258Y14260D1*
X32150Y14198D1*
X32030Y14163D1*
X31905Y14156D1*
X31783Y14179D1*
X31669Y14229D1*
X31591Y14288D1*
X30065Y14290D1*
X29795D1*
X29650Y14198D1*
X29530Y14163D1*
X29405Y14156D1*
X29283Y14179D1*
X29169Y14229D1*
X29069Y14304D1*
X28990Y14401D1*
X28931Y14532D1*
X28783Y14554D1*
X28669Y14604D1*
X28569Y14679D1*
X28490Y14776D1*
X28435Y14888D1*
X28408Y15009D1*
X28409Y15134D1*
X28440Y15255D1*
X28497Y15366D1*
X28579Y15460D1*
X28698Y15540D1*
X26467D1*
X26475Y15440D1*
X26460Y15316D1*
X26418Y15199D1*
X26340Y15087D1*
Y14170D1*
X26424Y14044D1*
X26463Y13926D1*
X26475Y13815D1*
X26460Y13691D1*
X26418Y13574D1*
X26349Y13470D1*
X26258Y13385D1*
X26150Y13323D1*
X26030Y13288D1*
X25905Y13281D1*
X25783Y13304D1*
X25669Y13354D1*
X25569Y13429D1*
X25490Y13526D1*
X25435Y13638D1*
X25408Y13759D1*
X25409Y13884D1*
X25440Y14005D1*
X25497Y14116D1*
X25541Y14166D1*
X25540Y15085D1*
X25490Y15151D1*
X25435Y15263D1*
X25408Y15384D1*
X25409Y15509D1*
X25418Y15543D1*
X25383Y15544D1*
X25264Y15581D1*
X25157Y15657D1*
X24157Y16657D1*
X24084Y16758D1*
X24045Y16880D1*
X24040Y17077D1*
X23943Y17182D1*
X23882Y17116D1*
X23785Y17038D1*
X23674Y16980D1*
X23554Y16945D1*
X23430Y16935D1*
X23306Y16949D1*
X23187Y16988D1*
X23079Y17049D1*
X22984Y17130D1*
X22943Y17182D1*
X22882Y17116D1*
X22785Y17038D1*
X22674Y16980D1*
X22554Y16945D1*
X22430Y16935D1*
X22306Y16949D1*
X22187Y16988D1*
X22079Y17049D1*
X21984Y17130D1*
X21907Y17228D1*
X21851Y17340D1*
X21818Y17460D1*
X21810Y17585D1*
X21826Y17709D1*
X21867Y17827D1*
X21929Y17935D1*
X22012Y18028D1*
X22112Y18103D1*
X22224Y18157D1*
X22345Y18188D1*
X22470Y18195D1*
X22593Y18176D1*
X22711Y18134D1*
X22818Y18070D1*
X22910Y17985D1*
X22940Y17944D1*
X23012Y18028D1*
X23112Y18103D1*
X23224Y18157D1*
X23345Y18188D1*
X23470Y18195D1*
X23593Y18176D1*
X23711Y18134D1*
X23818Y18070D1*
X23910Y17985D1*
X23940Y17944D1*
X24012Y18028D1*
X24112Y18103D1*
X24224Y18157D1*
X24345Y18188D1*
X24470Y18195D1*
X24593Y18176D1*
X24711Y18134D1*
X24818Y18070D1*
X24910Y17985D1*
X24940Y17944D1*
X25012Y18028D1*
X25112Y18103D1*
X25224Y18157D1*
X25345Y18188D1*
X25470Y18195D1*
X25593Y18176D1*
X25711Y18134D1*
X25818Y18070D1*
X25910Y17985D1*
X25940Y17944D1*
X26012Y18028D1*
X26112Y18103D1*
X26224Y18157D1*
X26345Y18188D1*
X26470Y18195D1*
X26593Y18176D1*
X26711Y18134D1*
X26818Y18070D1*
X26910Y17985D1*
X26940Y17944D1*
X27012Y18028D1*
X27112Y18103D1*
X27224Y18157D1*
X27345Y18188D1*
X27470Y18195D1*
X27593Y18176D1*
X27711Y18134D1*
X27818Y18070D1*
X27910Y17985D1*
X27940Y17944D1*
X28040Y18049D1*
Y18190D1*
X28059Y18313D1*
X28118Y18427D1*
X28334Y18650D1*
X30038Y20354D1*
X30040Y20452D1*
X29984Y20505D1*
X29907Y20603D1*
X29851Y20715D1*
X29818Y20835D1*
X29810Y20960D1*
X29816Y21002D1*
X29715Y21102D1*
Y20165D1*
X28415D1*
Y21465D1*
X29427D1*
X29415Y21565D1*
Y22268D1*
X29305Y22211D1*
X29185Y22176D1*
X29061Y22165D1*
X28937Y22178D1*
X28817Y22214D1*
X28707Y22272D1*
X28610Y22351D1*
X28530Y22446D1*
X28469Y22556D1*
X28430Y22674D1*
X28415Y22798D1*
X28424Y22923D1*
X28456Y23043D1*
X28511Y23155D1*
X28586Y23255D1*
X28679Y23338D1*
X28786Y23402D1*
X28904Y23445D1*
X28980Y23459D1*
X28657Y23782D1*
X28584Y23883D1*
X28545Y24005D1*
X28540Y24315D1*
Y31272D1*
X28400Y31414D1*
X28045Y31415D1*
X28055Y31315D1*
X28042Y31191D1*
X28006Y31072D1*
X27946Y30962D1*
X27866Y30866D1*
X27803Y30814D1*
X27894Y30735D1*
X27968Y30635D1*
X28020Y30521D1*
X28049Y30400D1*
X28055Y30315D1*
X28042Y30191D1*
X28006Y30072D1*
X27946Y29962D1*
X27866Y29866D1*
X27803Y29814D1*
X27894Y29735D1*
X27968Y29635D1*
X28020Y29521D1*
X28049Y29400D1*
X28055Y29315D1*
X28042Y29191D1*
X28006Y29072D1*
X27946Y28962D1*
X27866Y28866D1*
X27803Y28814D1*
X27894Y28735D1*
X27968Y28635D1*
X28020Y28521D1*
X28049Y28400D1*
X28055Y28315D1*
X28042Y28191D1*
X28006Y28072D1*
X27946Y27962D1*
X27866Y27866D1*
X27803Y27814D1*
X27894Y27735D1*
X27968Y27635D1*
X28020Y27521D1*
X28049Y27400D1*
X28055Y27315D1*
X28042Y27191D1*
X28006Y27072D1*
X27946Y26962D1*
X27866Y26866D1*
X27803Y26814D1*
X27894Y26735D1*
X27968Y26635D1*
X28020Y26521D1*
X28049Y26400D1*
Y26257D1*
X28348Y25957D1*
X28421Y25856D1*
X28460Y25734D1*
X28465Y25424D1*
Y24190D1*
X28446Y24067D1*
X28387Y23953D1*
X28171Y23730D1*
X28003Y23562D1*
X28034Y23473D1*
X28054Y23350D1*
X28047Y23215D1*
X28015Y23095D1*
X27960Y22983D1*
X27884Y22884D1*
X27808Y22815D1*
X27894Y22735D1*
X27968Y22635D1*
X28020Y22521D1*
X28049Y22400D1*
X28053Y22265D1*
X28030Y22142D1*
X27984Y22026D1*
X27917Y21921D1*
X27829Y21832D1*
X27808Y21815D1*
X27894Y21735D1*
X27968Y21635D1*
X28020Y21521D1*
X28049Y21400D1*
X28055Y21315D1*
X28042Y21191D1*
X28006Y21072D1*
X27946Y20962D1*
X27866Y20866D1*
X27769Y20788D1*
X27697Y20750D1*
X27801Y20653D1*
X27867Y20547D1*
X27907Y20429D1*
X27919Y20318D1*
X27904Y20195D1*
X27862Y20077D1*
X27793Y19973D1*
X27702Y19888D1*
X27594Y19826D1*
X27474Y19791D1*
X27415Y19788D1*
X26783Y19152D1*
X26476Y18845D1*
X26460Y18751D1*
X26418Y18634D1*
X26349Y18530D1*
X26258Y18444D1*
X26150Y18382D1*
X26030Y18347D1*
X25905Y18341D1*
X25783Y18363D1*
X25669Y18413D1*
X25569Y18489D1*
X25490Y18585D1*
X25435Y18697D1*
X25408Y18819D1*
X25409Y18944D1*
X25440Y19065D1*
X25497Y19175D1*
X25579Y19269D1*
X25680Y19342D1*
X25796Y19390D1*
X25907Y19407D1*
X26848Y20348D1*
X26884Y20508D1*
X26941Y20619D1*
X27023Y20713D1*
X27102Y20770D1*
X26968Y20880D1*
X26891Y20978D1*
X26835Y21090D1*
X26803Y21210D1*
X26794Y21335D1*
X26811Y21459D1*
X26851Y21577D1*
X26914Y21685D1*
X26997Y21778D1*
X27043Y21813D1*
X26951Y21898D1*
X26878Y22000D1*
X26827Y22114D1*
X26799Y22235D1*
X26796Y22360D1*
X26817Y22483D1*
X26862Y22599D1*
X26929Y22705D1*
X27015Y22795D1*
X27040Y22815D1*
X26951Y22898D1*
X26878Y23000D1*
X26827Y23114D1*
X26799Y23234D1*
X26592Y23027D1*
X26590Y22565D1*
X26571Y22442D1*
X26512Y22328D1*
X26296Y22105D1*
X22973Y18782D1*
X22872Y18709D1*
X22750Y18670D1*
X22440Y18665D1*
X21483D1*
X20965Y18150D1*
Y16842D1*
X21044Y16850D1*
X21168Y16840D1*
X21287Y16802D1*
X21394Y16737D1*
X21482Y16650D1*
X21549Y16544D1*
X21588Y16426D1*
X21597Y16346D1*
X22723Y15223D1*
X22796Y15122D1*
X22835Y15000D1*
X22840Y14690D1*
Y14670D1*
X22924Y14544D1*
X22963Y14426D1*
X22975Y14315D1*
X22960Y14191D1*
X22918Y14074D1*
X22849Y13970D1*
X22758Y13885D1*
X22650Y13823D1*
X22530Y13788D1*
X22464Y13784D1*
X22465Y12795D1*
X22549Y12669D1*
X22588Y12551D1*
X22600Y12440D1*
X22585Y12316D1*
X22540Y12196D1*
X23070Y12195D1*
Y12076D1*
X23224Y12157D1*
X23345Y12188D1*
X23470Y12195D1*
X23593Y12176D1*
X23711Y12134D1*
X23818Y12070D1*
X23910Y11985D1*
X23940Y11944D1*
X24012Y12028D1*
X24112Y12103D1*
X24224Y12157D1*
X24345Y12188D1*
X24470Y12195D1*
X24593Y12176D1*
X24711Y12134D1*
X24818Y12070D1*
X24910Y11985D1*
X24940Y11944D1*
X25012Y12028D1*
X25112Y12103D1*
X25224Y12157D1*
X25345Y12188D1*
X25470Y12195D1*
X25593Y12176D1*
X25711Y12134D1*
X25818Y12070D1*
X25910Y11985D1*
X25940Y11944D1*
X26012Y12028D1*
X26112Y12103D1*
X26224Y12157D1*
X26345Y12188D1*
X26470Y12195D1*
X26593Y12176D1*
X26711Y12134D1*
X26818Y12070D1*
X26910Y11985D1*
X26940Y11944D1*
X27012Y12028D1*
X27112Y12103D1*
X27224Y12157D1*
X27345Y12188D1*
X27470Y12195D1*
X27593Y12176D1*
X27711Y12134D1*
X27818Y12070D1*
X27910Y11985D1*
X27940Y11944D1*
X28012Y12028D1*
X28112Y12103D1*
X28224Y12157D1*
X28345Y12188D1*
X28470Y12195D1*
X28593Y12176D1*
X28711Y12134D1*
X28818Y12070D1*
X28910Y11985D1*
X28940Y11944D1*
X29012Y12028D1*
X29112Y12103D1*
X29224Y12157D1*
X29345Y12188D1*
X29470Y12195D1*
X29593Y12176D1*
X29711Y12134D1*
X29818Y12070D1*
X29910Y11985D1*
X29940Y11944D1*
X30012Y12028D1*
X30112Y12103D1*
X30224Y12157D1*
X30345Y12188D1*
X30470Y12195D1*
X30593Y12176D1*
X30711Y12134D1*
X30818Y12070D1*
X30910Y11985D1*
X30940Y11944D1*
X31012Y12028D1*
X31112Y12103D1*
X31224Y12157D1*
X31345Y12188D1*
X31470Y12195D1*
X31593Y12176D1*
X31711Y12134D1*
X31818Y12070D1*
X31910Y11985D1*
X31940Y11944D1*
X32012Y12028D1*
X32112Y12103D1*
X32224Y12157D1*
X32345Y12188D1*
X32470Y12195D1*
X32593Y12176D1*
X32711Y12134D1*
X32818Y12070D1*
X32910Y11985D1*
X32940Y11944D1*
X33012Y12028D1*
X33112Y12103D1*
X33224Y12157D1*
X33345Y12188D1*
X33470Y12195D1*
X33593Y12176D1*
X33711Y12134D1*
X33818Y12070D1*
X33910Y11985D1*
X33940Y11944D1*
X34012Y12028D1*
X34112Y12103D1*
X34224Y12157D1*
X34345Y12188D1*
X34470Y12195D1*
X34593Y12176D1*
X34711Y12134D1*
X34818Y12070D1*
X34910Y11985D1*
X34940Y11944D1*
X35012Y12028D1*
X35112Y12103D1*
X35224Y12157D1*
X35345Y12188D1*
X35470Y12195D1*
X35593Y12176D1*
X35711Y12134D1*
X35818Y12070D1*
X35910Y11985D1*
X35940Y11944D1*
X36012Y12028D1*
X36112Y12103D1*
X36224Y12157D1*
X36345Y12188D1*
X36470Y12195D1*
X36593Y12176D1*
X36711Y12134D1*
X36818Y12070D1*
X36910Y11985D1*
X36940Y11944D1*
X37012Y12028D1*
X37112Y12103D1*
X37224Y12157D1*
X37345Y12188D1*
X37470Y12195D1*
X37593Y12176D1*
X37711Y12134D1*
X37818Y12070D1*
X37910Y11985D1*
X37940Y11944D1*
X38012Y12028D1*
X38112Y12103D1*
X38224Y12157D1*
X38345Y12188D1*
X38470Y12195D1*
X38593Y12176D1*
X38711Y12134D1*
X38818Y12070D1*
X38910Y11985D1*
X38940Y11944D1*
X39012Y12028D1*
X39112Y12103D1*
X39224Y12157D1*
X39345Y12188D1*
X39470Y12195D1*
X39593Y12176D1*
X39711Y12134D1*
X39818Y12070D1*
X39910Y11985D1*
X39940Y11944D1*
X40012Y12028D1*
X40112Y12103D1*
X40224Y12157D1*
X40345Y12188D1*
X40470Y12195D1*
X40593Y12176D1*
X40711Y12134D1*
X40818Y12070D1*
X40910Y11985D1*
X40940Y11944D1*
X41012Y12028D1*
X41112Y12103D1*
X41224Y12157D1*
X41345Y12188D1*
X41470Y12195D1*
X41593Y12176D1*
X41663Y12151D1*
X42915Y13403D1*
Y14090D1*
X44215D1*
Y12790D1*
X43531D1*
X41994Y11255D1*
X41882Y11116D1*
X41785Y11038D1*
X41674Y10980D1*
X41554Y10945D1*
X41430Y10935D1*
X41306Y10949D1*
X41187Y10988D1*
X41079Y11049D1*
X40984Y11130D1*
X40943Y11182D1*
X40882Y11116D1*
X40785Y11038D1*
X40674Y10980D1*
X40554Y10945D1*
X40430Y10935D1*
X40306Y10949D1*
X40187Y10988D1*
X40079Y11049D1*
X39984Y11130D1*
X39943Y11182D1*
X39882Y11116D1*
X39785Y11038D1*
X39674Y10980D1*
X39554Y10945D1*
X39430Y10935D1*
X39306Y10949D1*
X39187Y10988D1*
X39079Y11049D1*
X38984Y11130D1*
X38943Y11182D1*
X38882Y11116D1*
X38785Y11038D1*
X38674Y10980D1*
X38554Y10945D1*
X38430Y10935D1*
X38306Y10949D1*
X38187Y10988D1*
X38079Y11049D1*
X37984Y11130D1*
X37943Y11182D1*
X37882Y11116D1*
X37785Y11038D1*
X37674Y10980D1*
X37554Y10945D1*
X37430Y10935D1*
X37306Y10949D1*
X37187Y10988D1*
X37079Y11049D1*
X36984Y11130D1*
X36943Y11182D1*
X36882Y11116D1*
X36785Y11038D1*
X36674Y10980D1*
X36554Y10945D1*
X36430Y10935D1*
X36306Y10949D1*
X36187Y10988D1*
X36079Y11049D1*
X35984Y11130D1*
X35943Y11182D1*
X35882Y11116D1*
X35785Y11038D1*
X35674Y10980D1*
X35554Y10945D1*
X35430Y10935D1*
X35306Y10949D1*
X35187Y10988D1*
X35079Y11049D1*
X34984Y11130D1*
X34943Y11182D1*
X34882Y11116D1*
X34785Y11038D1*
X34674Y10980D1*
X34554Y10945D1*
X34430Y10935D1*
X34306Y10949D1*
X34187Y10988D1*
X34079Y11049D1*
X33984Y11130D1*
X33943Y11182D1*
X33882Y11116D1*
X33785Y11038D1*
X33674Y10980D1*
X33554Y10945D1*
X33430Y10935D1*
X33306Y10949D1*
X33187Y10988D1*
X33079Y11049D1*
X32984Y11130D1*
X32943Y11182D1*
X32882Y11116D1*
X32785Y11038D1*
X32674Y10980D1*
X32554Y10945D1*
X32430Y10935D1*
X32306Y10949D1*
X32187Y10988D1*
X32079Y11049D1*
X31984Y11130D1*
X31943Y11182D1*
X31882Y11116D1*
X31785Y11038D1*
X31674Y10980D1*
X31554Y10945D1*
X31430Y10935D1*
X31306Y10949D1*
X31187Y10988D1*
X31079Y11049D1*
X30984Y11130D1*
X30943Y11182D1*
X30882Y11116D1*
X30785Y11038D1*
X30674Y10980D1*
X30554Y10945D1*
X30430Y10935D1*
X30306Y10949D1*
X30187Y10988D1*
X30079Y11049D1*
X29984Y11130D1*
X29943Y11182D1*
X29882Y11116D1*
X29785Y11038D1*
X29674Y10980D1*
X29554Y10945D1*
X29430Y10935D1*
X29306Y10949D1*
X29187Y10988D1*
X29079Y11049D1*
X28984Y11130D1*
X28943Y11182D1*
X28882Y11116D1*
X28785Y11038D1*
X28674Y10980D1*
X28554Y10945D1*
X28430Y10935D1*
X28306Y10949D1*
X28187Y10988D1*
X28079Y11049D1*
X27984Y11130D1*
X27943Y11182D1*
X27882Y11116D1*
X27785Y11038D1*
X27674Y10980D1*
X27554Y10945D1*
X27430Y10935D1*
X27306Y10949D1*
X27187Y10988D1*
X27079Y11049D1*
X26984Y11130D1*
X26943Y11182D1*
X26882Y11116D1*
X26785Y11038D1*
X26674Y10980D1*
X26554Y10945D1*
X26430Y10935D1*
X26306Y10949D1*
X26187Y10988D1*
X26079Y11049D1*
X25984Y11130D1*
X25943Y11182D1*
X25882Y11116D1*
X25785Y11038D1*
X25674Y10980D1*
X25554Y10945D1*
X25430Y10935D1*
X25306Y10949D1*
X25187Y10988D1*
X25079Y11049D1*
X24984Y11130D1*
X24943Y11182D1*
X24882Y11116D1*
X24785Y11038D1*
X24674Y10980D1*
X24554Y10945D1*
X24430Y10935D1*
X24306Y10949D1*
X24187Y10988D1*
X24079Y11049D1*
X23984Y11130D1*
X23943Y11182D1*
X23882Y11116D1*
X23785Y11038D1*
X23674Y10980D1*
X23554Y10945D1*
X23430Y10935D1*
X23306Y10949D1*
X23187Y10988D1*
X23070Y11056D1*
Y10935D1*
X21810D1*
Y11970D1*
X21694Y12054D1*
X21615Y12151D1*
X21560Y12263D1*
X21533Y12384D1*
X21534Y12509D1*
X21565Y12630D1*
X21622Y12741D1*
X21666Y12791D1*
X21665Y14522D1*
X20967Y15222D1*
X20965Y13815D1*
Y8483D1*
X21105Y8341D1*
X22440Y8340D1*
X22563Y8321D1*
X22677Y8262D1*
X22880Y8065D1*
X22970Y8070D1*
X23093Y8051D1*
X23211Y8009D1*
X23318Y7945D1*
X23410Y7860D1*
X23440Y7819D1*
X23512Y7903D1*
X23612Y7978D1*
X23724Y8032D1*
X23845Y8063D1*
X23970Y8070D1*
X24093Y8051D1*
X24211Y8009D1*
X24318Y7945D1*
X24410Y7860D1*
X24440Y7819D1*
X24512Y7903D1*
X24612Y7978D1*
X24724Y8032D1*
X24845Y8063D1*
X24970Y8070D1*
X25093Y8051D1*
X25211Y8009D1*
X25318Y7945D1*
X25410Y7860D1*
X25440Y7819D1*
X25512Y7903D1*
X25612Y7978D1*
X25724Y8032D1*
X25845Y8063D1*
X25970Y8070D1*
X26093Y8051D1*
X26211Y8009D1*
X26318Y7945D1*
X26410Y7860D1*
X26440Y7819D1*
X26512Y7903D1*
X26612Y7978D1*
X26724Y8032D1*
X26845Y8063D1*
X26970Y8070D1*
X27093Y8051D1*
X27211Y8009D1*
X27318Y7945D1*
X27410Y7860D1*
X27440Y7819D1*
X27512Y7903D1*
X27612Y7978D1*
X27724Y8032D1*
X27845Y8063D1*
X27970Y8070D1*
X28093Y8051D1*
X28211Y8009D1*
X28318Y7945D1*
X28410Y7860D1*
X28440Y7819D1*
X28512Y7903D1*
X28612Y7978D1*
X28724Y8032D1*
X28845Y8063D1*
X28970Y8070D1*
X29093Y8051D1*
X29211Y8009D1*
X29318Y7945D1*
X29410Y7860D1*
X29440Y7819D1*
X29512Y7903D1*
X29612Y7978D1*
X29724Y8032D1*
X29873Y8065D1*
X30157Y8348D1*
X30258Y8421D1*
X30380Y8460D1*
X30690Y8465D1*
X31405D1*
X31440Y8630D1*
X31497Y8741D1*
X31579Y8835D1*
X31680Y8908D1*
X31796Y8955D1*
X31919Y8975D1*
X32043Y8965D1*
X32162Y8927D1*
X32269Y8862D1*
X32294Y8838D1*
X33315Y8840D1*
X41835D1*
X41930Y8908D1*
X42046Y8955D1*
X42169Y8975D1*
X42293Y8965D1*
X42412Y8927D1*
X42519Y8862D1*
X42607Y8775D1*
X42674Y8669D1*
X42713Y8551D1*
X42722Y8464D1*
X47085Y8465D1*
X47180Y8533D1*
X47296Y8580D1*
X47419Y8600D1*
X47543Y8590D1*
X47662Y8552D1*
X47769Y8487D1*
X47857Y8400D1*
X47924Y8294D1*
X47963Y8176D1*
X47975Y8065D1*
X47960Y7941D1*
X47918Y7824D1*
X47849Y7720D1*
X47758Y7635D1*
X47650Y7573D1*
X47530Y7538D1*
X47405Y7531D1*
X47283Y7554D1*
X47169Y7604D1*
X47091Y7663D1*
X46530Y7665D1*
X46565Y7525D1*
X46568Y7390D1*
X46546Y7267D1*
X46500Y7151D1*
X46432Y7046D1*
X46345Y6957D1*
X46324Y6940D1*
X46410Y6860D1*
X46483Y6760D1*
X46536Y6646D1*
X46565Y6525D1*
X46570Y6440D1*
X46558Y6316D1*
X46521Y6197D1*
X46462Y6087D1*
X46382Y5991D1*
X46285Y5913D1*
X46174Y5855D1*
X46054Y5820D1*
X45930Y5810D1*
X45806Y5824D1*
X45687Y5863D1*
X45579Y5924D1*
X45484Y6005D1*
X45443Y6057D1*
X45382Y5991D1*
X45285Y5913D1*
X45174Y5855D1*
X45054Y5820D1*
X44930Y5810D1*
X44806Y5824D1*
X44687Y5863D1*
X44579Y5924D1*
X44484Y6005D1*
X44443Y6057D1*
X44382Y5991D1*
X44285Y5913D1*
X44174Y5855D1*
X44054Y5820D1*
X43930Y5810D1*
X43806Y5824D1*
X43687Y5863D1*
X43579Y5924D1*
X43484Y6005D1*
X43443Y6057D1*
X43382Y5991D1*
X43285Y5913D1*
X43174Y5855D1*
X43054Y5820D1*
X42930Y5810D1*
X42806Y5824D1*
X42687Y5863D1*
X42579Y5924D1*
X42484Y6005D1*
X42443Y6057D1*
X42382Y5991D1*
X42285Y5913D1*
X42174Y5855D1*
X42054Y5820D1*
X41930Y5810D1*
X41806Y5824D1*
X41687Y5863D1*
X41579Y5924D1*
X41484Y6005D1*
X41443Y6057D1*
X41382Y5991D1*
X41285Y5913D1*
X41174Y5855D1*
X41054Y5820D1*
X40930Y5810D1*
X40806Y5824D1*
X40687Y5863D1*
X40579Y5924D1*
X40484Y6005D1*
X40443Y6057D1*
X40382Y5991D1*
X40285Y5913D1*
X40174Y5855D1*
X40054Y5820D1*
X39930Y5810D1*
X39806Y5824D1*
X39687Y5863D1*
X39579Y5924D1*
X39484Y6005D1*
X39443Y6057D1*
X39382Y5991D1*
X39285Y5913D1*
X39174Y5855D1*
X39054Y5820D1*
X38930Y5810D1*
X38806Y5824D1*
X38687Y5863D1*
X38579Y5924D1*
X38484Y6005D1*
X38443Y6057D1*
X38424Y5919D1*
X38463Y5801D1*
X38475Y5690D1*
X38460Y5566D1*
X38418Y5449D1*
X38349Y5345D1*
X38258Y5260D1*
X38150Y5198D1*
X38030Y5163D1*
X37972Y5160D1*
X37723Y4907D1*
X37622Y4834D1*
X37500Y4795D1*
X37190Y4790D1*
X28690D1*
X28567Y4809D1*
X28453Y4868D1*
X28230Y5084D1*
X28157Y5157D1*
X28084Y5258D1*
X28045Y5380D1*
X28040Y5690D1*
Y5819D1*
X27930Y5810D1*
X27840Y5815D1*
Y5065D1*
X27821Y4942D1*
X27762Y4828D1*
X27546Y4605D1*
X27444Y4503D1*
X62233Y4502D1*
X62082Y4549D1*
X61969Y4603D1*
X61865Y4672D1*
X61770Y4753D1*
X61686Y4846D1*
X61615Y4949D1*
X61559Y5060D1*
X61517Y5177D1*
X61490Y5300D1*
X61480Y5424D1*
X61486Y5549D1*
X61508Y5672D1*
X61546Y5791D1*
X61599Y5904D1*
X61667Y6009D1*
X61747Y6105D1*
X61839Y6189D1*
X61942Y6261D1*
X62052Y6318D1*
X62170Y6361D1*
X62292Y6388D1*
X62416Y6400D1*
X62541Y6395D1*
X62664Y6373D1*
X62783Y6337D1*
X62897Y6284D1*
X63003Y6218D1*
X63099Y6138D1*
X63184Y6047D1*
X63256Y5945D1*
X63316Y5831D1*
X63315Y8315D1*
X60940D1*
X60835Y8376D1*
X60815Y8440D1*
Y29440D1*
X60876Y29545D1*
X60940Y29565D1*
X63315D1*
Y42045D1*
X63204Y41858D1*
X63122Y41764D1*
X63028Y41681D1*
X62925Y41611D1*
X62813Y41555D1*
X62695Y41514D1*
X62573Y41489D1*
X62448Y41480D1*
X62323Y41487D1*
X62201Y41510D1*
X62082Y41549D1*
X61969Y41603D1*
X61865Y41672D1*
X61770Y41753D1*
X61686Y41846D1*
X61615Y41949D1*
X61559Y42060D1*
X61517Y42177D1*
X61490Y42300D1*
X61480Y42424D1*
X61486Y42549D1*
X61508Y42672D1*
X61546Y42791D1*
X61599Y42904D1*
X61667Y43009D1*
X61747Y43105D1*
X61839Y43189D1*
X61932Y43254D1*
X43440Y43252D1*
X5952D1*
X6099Y43138D1*
X6184Y43047D1*
X6256Y42945D1*
X6315Y42835D1*
X6359Y42718D1*
X6387Y42596D1*
X6400Y42440D1*
X6392Y42315D1*
X6368Y42193D1*
X6328Y42074D1*
X6273Y41962D1*
X6204Y41858D1*
X6122Y41764D1*
X6028Y41681D1*
X5925Y41611D1*
X5813Y41555D1*
X5695Y41514D1*
X5573Y41489D1*
X5448Y41480D1*
X5323Y41487D1*
X5201Y41510D1*
X5082Y41549D1*
X4969Y41603D1*
X4865Y41672D1*
X4770Y41753D1*
X4686Y41846D1*
X4615Y41949D1*
X4564Y42049D1*
X4565Y37405D1*
X4576Y37469D1*
X4617Y37587D1*
X4679Y37694D1*
X4762Y37788D1*
X4862Y37863D1*
X4974Y37917D1*
X5095Y37948D1*
X5220Y37954D1*
X5343Y37936D1*
X5461Y37894D1*
X5568Y37829D1*
X5660Y37745D1*
X5733Y37644D1*
X5786Y37531D1*
X5815Y37410D1*
X5820Y37325D1*
X5808Y37201D1*
X5771Y37081D1*
X5712Y36972D1*
X5632Y36876D1*
X5535Y36797D1*
X5424Y36740D1*
X5304Y36705D1*
X5220Y36695D1*
X5343Y36676D1*
X5461Y36634D1*
X5568Y36570D1*
X5660Y36485D1*
X5733Y36385D1*
X5786Y36271D1*
X5815Y36150D1*
X5820Y36065D1*
X5808Y35941D1*
X5771Y35822D1*
X5712Y35712D1*
X5632Y35616D1*
X5535Y35538D1*
X5424Y35480D1*
X5304Y35445D1*
X5220Y35435D1*
X5343Y35416D1*
X5461Y35374D1*
X5568Y35310D1*
X5660Y35225D1*
X5733Y35125D1*
X5786Y35011D1*
X5815Y34890D1*
X5820Y34805D1*
X5808Y34681D1*
X5771Y34562D1*
X5712Y34452D1*
X5632Y34356D1*
X5535Y34278D1*
X5424Y34220D1*
X5304Y34185D1*
X5180Y34175D1*
X5056Y34189D1*
X4937Y34228D1*
X4829Y34289D1*
X4734Y34370D1*
X4657Y34469D1*
X4601Y34580D1*
X4568Y34701D1*
X4565Y34627D1*
Y29565D1*
X6940D1*
X7045Y29504D1*
X7065Y29440D1*
Y21440D1*
X15690D1*
X15795Y21379D1*
X15815Y21315D1*
Y20452D1*
X15895Y20383D1*
X15973Y20285D1*
X16030Y20174D1*
X16065Y20054D1*
X16075Y19940D1*
X16063Y19816D1*
X16026Y19696D1*
X15967Y19586D1*
X15888Y19490D1*
X15813Y19428D1*
X15815Y18577D1*
X15895Y18508D1*
X15973Y18410D1*
X16030Y18299D1*
X16065Y18179D1*
X16075Y18065D1*
X16063Y17941D1*
X16026Y17821D1*
X15967Y17711D1*
X15888Y17615D1*
X15813Y17553D1*
Y16812D1*
X15815Y14815D1*
X15813Y13687D1*
X15801Y13636D1*
X15800Y13593D1*
X15895Y13513D1*
X15973Y13415D1*
X16030Y13304D1*
X16065Y13184D1*
X16075Y13070D1*
X16063Y12946D1*
X16026Y12826D1*
X15967Y12716D1*
X15888Y12620D1*
X15791Y12541D1*
X15681Y12483D1*
X15562Y12447D1*
X15437Y12435D1*
X15313Y12448D1*
X15194Y12485D1*
X15057Y12566D1*
X14200Y12565D1*
X14065D1*
Y10815D1*
X14004Y10710D1*
X13940Y10690D1*
X7065D1*
Y8440D1*
X7004Y8335D1*
X6940Y8315D1*
X4565D1*
Y5835D1*
X4667Y6009D1*
X4747Y6105D1*
X4839Y6189D1*
X4942Y6261D1*
X5052Y6318D1*
X5170Y6361D1*
X5292Y6388D1*
X5416Y6400D1*
X5541Y6395D1*
X5664Y6373D1*
X5783Y6337D1*
X5897Y6284D1*
X6003Y6218D1*
X6099Y6138D1*
X6184Y6047D1*
X6256Y5945D1*
X6315Y5835D1*
X6359Y5718D1*
X6387Y5596D1*
X6400Y5440D1*
X6392Y5315D1*
X6368Y5193D1*
X6328Y5074D1*
X6273Y4962D1*
X6204Y4858D1*
X6122Y4764D1*
X6028Y4681D1*
X5925Y4611D1*
X5813Y4555D1*
X5638Y4503D1*
X14811Y4502D1*
X13385Y5929D1*
X13328Y5823D1*
X13252Y5724D1*
X13159Y5641D1*
X13052Y5576D1*
X12935Y5533D1*
X12812Y5512D1*
X12687Y5514D1*
X12565Y5539D1*
X12450Y5586D1*
X12345Y5654D1*
X12255Y5740D1*
X12182Y5842D1*
X12130Y5955D1*
X12099Y6076D1*
X12091Y6200D1*
X12107Y6324D1*
X12145Y6443D1*
X12205Y6553D1*
X12284Y6649D1*
X12379Y6730D1*
X12514Y6800D1*
X12407Y6907D1*
X12334Y7008D1*
X12295Y7130D1*
X12290Y7440D1*
Y7475D1*
X12182Y7613D1*
X12130Y7726D1*
X12099Y7847D1*
X12091Y7972D1*
X12107Y8096D1*
X12145Y8215D1*
X12205Y8324D1*
X12284Y8421D1*
X12379Y8501D1*
X12488Y8563D1*
X12606Y8602D1*
X12730Y8620D1*
X12855Y8614D1*
X12976Y8585D1*
X13090Y8534D1*
X13192Y8463D1*
X13280Y8374D1*
X13349Y8270D1*
X13398Y8155D1*
X13425Y8033D1*
X13430Y7951D1*
X13418Y7827D1*
X13384Y7707D1*
X13328Y7595D1*
X13252Y7496D1*
X13159Y7413D1*
X13089Y7370D1*
X13238Y7208D1*
X14649Y5796D1*
X14650Y6849D1*
X15989D1*
Y5510D1*
X14935D1*
X15357Y5089D1*
X19225Y5090D1*
X18532Y5782D1*
X18459Y5883D1*
X18420Y6005D1*
X18415Y6315D1*
X18412Y6427D1*
X18355Y6317D1*
X18277Y6219D1*
X18182Y6138D1*
X18073Y6077D1*
X17955Y6038D1*
X17831Y6022D1*
X17706Y6030D1*
X17586Y6061D1*
X17473Y6115D1*
X17373Y6190D1*
X17289Y6282D1*
X17225Y6389D1*
X17181Y6506D1*
X17161Y6629D1*
X17165Y6754D1*
X17175Y6809D1*
X17160D1*
Y8109D1*
X18415D1*
Y12788D1*
X18137Y12783D1*
X17993Y12787D1*
X17954Y12785D1*
X17831Y12808D1*
X17750Y12846D1*
Y9440D1*
X17732Y9317D1*
X17693Y9225D1*
X17623Y9132D1*
X17253Y8762D1*
X17153Y8688D1*
X17060Y8651D1*
X16945Y8635D1*
X15902D1*
X15791Y8541D1*
X15705Y8495D1*
X15751Y8463D1*
X15839Y8374D1*
X15908Y8270D1*
X15957Y8155D1*
X15984Y8033D1*
X15989Y7951D1*
X15978Y7827D1*
X15943Y7707D1*
X15887Y7595D1*
X15811Y7496D1*
X15718Y7413D1*
X15611Y7348D1*
X15494Y7304D1*
X15371Y7283D1*
X15247Y7285D1*
X15124Y7310D1*
X15009Y7358D1*
X14904Y7426D1*
X14814Y7512D1*
X14741Y7613D1*
X14689Y7726D1*
X14658Y7847D1*
X14650Y7972D1*
X14666Y8096D1*
X14704Y8215D1*
X14764Y8324D1*
X14843Y8421D1*
X14938Y8501D1*
X15058Y8566D1*
X14988Y8624D1*
X14910Y8721D1*
X14852Y8831D1*
X14816Y8951D1*
X14805Y9075D1*
X14818Y9199D1*
X14856Y9318D1*
X14915Y9428D1*
X14996Y9523D1*
X15093Y9602D1*
X15203Y9659D1*
X15323Y9694D1*
X15448Y9705D1*
X15572Y9691D1*
X15691Y9653D1*
X15800Y9593D1*
X15903Y9504D1*
X16764Y9505D1*
X16878Y9618D1*
X16880Y11690D1*
Y13440D1*
X16898Y13563D1*
X16937Y13655D1*
X17007Y13748D1*
X17386Y14125D1*
X17464Y14186D1*
X17461Y14413D1*
X17484Y14536D1*
X17559Y14650D1*
X17658Y14749D1*
X17732Y14804D1*
X17843Y14843D1*
X18270Y14847D1*
X18415D1*
Y19190D1*
X18434Y19313D1*
X18493Y19427D1*
X18709Y19650D1*
X20157Y21098D1*
X20258Y21171D1*
X20380Y21210D1*
X20690Y21215D1*
X20819D1*
X20810Y21335D1*
X20826Y21459D1*
X20867Y21577D1*
X20929Y21685D1*
X21012Y21778D1*
X21059Y21813D1*
X20984Y21880D1*
X20907Y21978D1*
X20851Y22090D1*
X20818Y22210D1*
X20810Y22335D1*
X20826Y22459D1*
X20867Y22577D1*
X20929Y22685D1*
X21012Y22778D1*
X21059Y22813D1*
X20984Y22880D1*
X20907Y22978D1*
X20851Y23090D1*
X20818Y23210D1*
X20810Y23335D1*
X20826Y23459D1*
X20867Y23577D1*
X20929Y23685D1*
X21012Y23778D1*
X21059Y23813D1*
X20984Y23880D1*
X20907Y23978D1*
X20851Y24090D1*
X20818Y24210D1*
X20810Y24335D1*
X20826Y24459D1*
X20867Y24577D1*
X20929Y24685D1*
X21012Y24778D1*
X21059Y24813D1*
X20984Y24880D1*
X20907Y24978D1*
X20851Y25090D1*
X20818Y25210D1*
X20810Y25335D1*
X20826Y25459D1*
X20867Y25577D1*
X20929Y25685D1*
X21012Y25778D1*
X21059Y25813D1*
X20984Y25880D1*
X20907Y25978D1*
X20851Y26090D1*
X20818Y26210D1*
X20810Y26335D1*
X20826Y26459D1*
X20867Y26577D1*
X20929Y26685D1*
X21012Y26778D1*
X21059Y26813D1*
X20984Y26880D1*
X20907Y26978D1*
X20851Y27090D1*
X20818Y27210D1*
X20810Y27335D1*
X20826Y27459D1*
X20867Y27577D1*
X20929Y27685D1*
X21012Y27778D1*
X21059Y27813D1*
X20984Y27880D1*
X20907Y27978D1*
X20851Y28090D1*
X20818Y28210D1*
X20810Y28335D1*
X20826Y28459D1*
X20867Y28577D1*
X20929Y28685D1*
X21012Y28778D1*
X21059Y28813D1*
X20984Y28880D1*
X20907Y28978D1*
X20851Y29090D1*
X20818Y29210D1*
X20810Y29335D1*
X20826Y29459D1*
X20867Y29577D1*
X20929Y29685D1*
X21012Y29778D1*
X21059Y29813D1*
X20984Y29880D1*
X20907Y29978D1*
X20851Y30090D1*
X20821Y30192D1*
X20762Y30078D1*
X20546Y29855D1*
X19847Y29157D1*
X19924Y29044D1*
X19963Y28926D1*
X19975Y28815D1*
X19960Y28691D1*
X19918Y28574D1*
X19840Y28462D1*
Y26202D1*
X19947Y26186D1*
X20066Y26148D1*
X20175Y26088D1*
X20270Y26008D1*
X20348Y25910D1*
X20405Y25799D1*
X20440Y25679D1*
X20450Y25565D1*
X20438Y25441D1*
X20401Y25321D1*
X20342Y25211D1*
X20263Y25115D1*
X20166Y25036D1*
X20056Y24978D1*
X19937Y24942D1*
X19812Y24930D1*
X19688Y24943D1*
X19569Y24980D1*
X19459Y25039D1*
X19363Y25119D1*
X19285Y25216D1*
X19227Y25326D1*
X19191Y25446D1*
X19180Y25570D1*
X19186Y25628D1*
X19084Y25758D1*
X19045Y25880D1*
X19040Y26190D1*
Y28350D1*
X16429Y25745D1*
X16440Y25679D1*
X16450Y25565D1*
X16438Y25441D1*
X16401Y25321D1*
X16342Y25211D1*
X16263Y25115D1*
X16166Y25036D1*
X16056Y24978D1*
X15937Y24942D1*
X15812Y24930D1*
X15688Y24943D1*
X15569Y24980D1*
X15459Y25039D1*
X15363Y25119D1*
X15285Y25216D1*
X15227Y25326D1*
X15191Y25446D1*
X15180Y25570D1*
X15190Y25667D1*
X14858Y25665D1*
X14694Y25503D1*
X14683Y25316D1*
X14646Y25197D1*
X14587Y25087D1*
X14507Y24991D1*
X14410Y24913D1*
X14299Y24855D1*
X14179Y24820D1*
X14055Y24810D1*
X13931Y24824D1*
X13812Y24863D1*
X13704Y24924D1*
X13609Y25005D1*
X13532Y25103D1*
X13476Y25215D1*
X13443Y25335D1*
X13435Y25460D1*
X13451Y25584D1*
X13492Y25702D1*
X13554Y25810D1*
X13637Y25903D1*
X13737Y25978D1*
X13849Y26032D1*
X13970Y26063D1*
X14122Y26066D1*
X14407Y26348D1*
X14508Y26421D1*
X14630Y26460D1*
X14940Y26465D1*
X16022D1*
X17667Y28107D1*
X17359Y28106D1*
Y29406D1*
X17613D1*
X17609Y30131D1*
Y30940D1*
X17531Y30778D1*
X17451Y30682D1*
X17354Y30603D1*
X17243Y30546D1*
X17123Y30511D1*
X16999Y30501D1*
X16875Y30515D1*
X16756Y30554D1*
X16647Y30615D1*
X16553Y30696D1*
X16476Y30794D1*
X16420Y30906D1*
X16387Y31026D1*
X16379Y31151D1*
X16395Y31275D1*
X16436Y31393D1*
X16498Y31501D1*
X16581Y31594D1*
X16628Y31629D1*
X16536Y31714D1*
X16463Y31816D1*
X16412Y31929D1*
X16384Y32051D1*
X16380Y32176D1*
X16401Y32299D1*
X16446Y32415D1*
X16513Y32520D1*
X16600Y32610D1*
X16625Y32631D1*
X16553Y32696D1*
X16476Y32794D1*
X16420Y32906D1*
X16387Y33026D1*
X16379Y33151D1*
X16395Y33275D1*
X16436Y33393D1*
X16498Y33501D1*
X16581Y33594D1*
X16628Y33629D1*
X16553Y33696D1*
X16476Y33794D1*
X16420Y33906D1*
X16387Y34026D1*
X16379Y34151D1*
X16395Y34275D1*
X16436Y34393D1*
X16498Y34501D1*
X16581Y34594D1*
X16628Y34629D1*
X16553Y34696D1*
X16476Y34794D1*
X16420Y34906D1*
X16387Y35026D1*
X16379Y35151D1*
X16395Y35275D1*
X16436Y35393D1*
X16498Y35501D1*
X16581Y35594D1*
X16628Y35629D1*
X16553Y35696D1*
X16476Y35794D1*
X16420Y35906D1*
X16387Y36026D1*
X16379Y36151D1*
X16395Y36275D1*
X16436Y36393D1*
X16498Y36501D1*
X16581Y36594D1*
X16628Y36629D1*
X16553Y36696D1*
X16476Y36794D1*
X16420Y36906D1*
X16387Y37026D1*
X16379Y37151D1*
X16395Y37275D1*
X16436Y37393D1*
X16498Y37501D1*
X16581Y37594D1*
X16628Y37629D1*
X16553Y37696D1*
X16476Y37794D1*
X16420Y37906D1*
X16387Y38026D1*
X16379Y38151D1*
X16395Y38275D1*
X16436Y38393D1*
X16498Y38501D1*
X16581Y38594D1*
X16681Y38669D1*
X16793Y38723D1*
X16914Y38754D1*
X17039Y38761D1*
X17162Y38742D1*
X17280Y38700D1*
X17387Y38636D1*
X17479Y38551D1*
X17552Y38451D1*
X17604Y38337D1*
X17633Y38216D1*
X17639Y38131D1*
X17627Y38007D1*
X17590Y37887D1*
X17531Y37778D1*
X17451Y37682D1*
X17387Y37630D1*
X17479Y37551D1*
X17552Y37451D1*
X17604Y37337D1*
X17633Y37216D1*
X17639Y37131D1*
X17627Y37007D1*
X17590Y36887D1*
X17531Y36778D1*
X17451Y36682D1*
X17387Y36630D1*
X17479Y36551D1*
X17552Y36451D1*
X17604Y36337D1*
X17633Y36216D1*
X17639Y36131D1*
X17627Y36007D1*
X17590Y35887D1*
X17531Y35778D1*
X17451Y35682D1*
X17387Y35630D1*
X17479Y35551D1*
X17552Y35451D1*
X17604Y35337D1*
X17633Y35216D1*
X17639Y35131D1*
X17627Y35007D1*
X17590Y34887D1*
X17531Y34778D1*
X17451Y34682D1*
X17387Y34630D1*
X17479Y34551D1*
X17552Y34451D1*
X17604Y34337D1*
X17633Y34216D1*
X17639Y34131D1*
X17627Y34007D1*
X17590Y33887D1*
X17531Y33778D1*
X17451Y33682D1*
X17387Y33630D1*
X17479Y33551D1*
X17552Y33451D1*
X17604Y33337D1*
X17633Y33216D1*
X17639Y33131D1*
X17627Y33007D1*
X17590Y32887D1*
X17531Y32778D1*
X17451Y32682D1*
X17387Y32630D1*
X17444Y32587D1*
X17525Y32493D1*
X17586Y32384D1*
X17603Y32341D1*
X18201Y32939D1*
X18301Y33013D1*
X18394Y33050D1*
X18509Y33066D1*
X19380D1*
X19379Y33151D1*
X19395Y33275D1*
X19436Y33393D1*
X19498Y33501D1*
X19581Y33594D1*
X19628Y33629D1*
X19553Y33696D1*
X19476Y33794D1*
X19420Y33906D1*
X19387Y34026D1*
X19379Y34151D1*
X19395Y34275D1*
X19436Y34393D1*
X19498Y34501D1*
X19581Y34594D1*
X19628Y34629D1*
X19553Y34696D1*
X19476Y34794D1*
X19420Y34906D1*
X19387Y35026D1*
X19379Y35151D1*
X19395Y35275D1*
X19436Y35393D1*
X19498Y35501D1*
X19581Y35594D1*
X19628Y35629D1*
X19553Y35696D1*
X19476Y35794D1*
X19420Y35906D1*
X19387Y36026D1*
X19379Y36151D1*
X19395Y36275D1*
X19436Y36393D1*
X19498Y36501D1*
X19581Y36594D1*
X19628Y36629D1*
X19553Y36696D1*
X19476Y36794D1*
X19420Y36906D1*
X19387Y37026D1*
X19379Y37151D1*
X19395Y37275D1*
X19436Y37393D1*
X19498Y37501D1*
X19581Y37594D1*
X19628Y37629D1*
X19553Y37696D1*
X19476Y37794D1*
X19420Y37906D1*
X19387Y38026D1*
X19379Y38151D1*
X19395Y38275D1*
X19436Y38393D1*
X19498Y38501D1*
X19581Y38594D1*
X19681Y38669D1*
X19793Y38723D1*
X19914Y38754D1*
X20039Y38761D1*
X20162Y38742D1*
X20280Y38700D1*
X20387Y38636D1*
X20479Y38551D1*
X20552Y38451D1*
X20604Y38337D1*
X20633Y38216D1*
X20639Y38131D1*
X20627Y38007D1*
X20590Y37887D1*
X20531Y37778D1*
X20451Y37682D1*
X20387Y37630D1*
X20479Y37551D1*
X20552Y37451D1*
X20604Y37337D1*
X20633Y37216D1*
X20639Y37131D1*
X20627Y37007D1*
X20590Y36887D1*
X20531Y36778D1*
X20451Y36682D1*
X20387Y36630D1*
X20479Y36551D1*
X20552Y36451D1*
X20604Y36337D1*
X20633Y36216D1*
X20639Y36131D1*
X20627Y36007D1*
X20590Y35887D1*
X20531Y35778D1*
X20451Y35682D1*
X20387Y35630D1*
X20479Y35551D1*
X20552Y35451D1*
X20604Y35337D1*
X20633Y35216D1*
X20639Y35131D1*
X20627Y35007D1*
X20590Y34887D1*
X20531Y34778D1*
X20451Y34682D1*
X20387Y34630D1*
X20479Y34551D1*
X20552Y34451D1*
X20604Y34337D1*
X20633Y34216D1*
X20639Y34131D1*
X20627Y34007D1*
X20590Y33887D1*
X20531Y33778D1*
X20451Y33682D1*
X20387Y33630D1*
X20479Y33551D1*
X20513Y33504D1*
X20632Y33623D1*
X20711Y33685D1*
X20810Y33735D1*
Y34945D1*
X22070D1*
Y33685D1*
X21951D1*
X22036Y33521D1*
X22065Y33400D1*
X22070Y33315D1*
X22065Y33215D1*
X25022D1*
X25407Y33598D1*
X25508Y33671D1*
X25630Y33710D1*
X25940Y33715D1*
X26936D1*
X27043Y33813D1*
X26968Y33880D1*
X26891Y33978D1*
X26835Y34090D1*
X26803Y34210D1*
X26794Y34335D1*
X26811Y34459D1*
X26851Y34577D1*
X26914Y34685D1*
X26997Y34778D1*
X27096Y34853D1*
X27209Y34907D1*
X27330Y34938D1*
X27454Y34945D1*
X27578Y34926D1*
X27695Y34884D1*
X27802Y34820D1*
X27910Y34713D1*
X28315Y34715D1*
X28438Y34696D1*
X28552Y34637D1*
X28775Y34421D1*
X29910Y33286D1*
X30012Y33403D1*
X30059Y33438D1*
X29984Y33505D1*
X29907Y33603D1*
X29851Y33715D1*
X29818Y33835D1*
X29810Y33960D1*
X29826Y34084D1*
X29867Y34202D1*
X29929Y34310D1*
X30012Y34403D1*
X30059Y34438D1*
X29984Y34505D1*
X29907Y34603D1*
X29851Y34715D1*
X29818Y34835D1*
X29810Y34960D1*
X29826Y35084D1*
X29867Y35202D1*
X29929Y35310D1*
X30012Y35403D1*
X30059Y35438D1*
X29984Y35505D1*
X29907Y35603D1*
X29851Y35715D1*
X29818Y35835D1*
X29810Y35960D1*
X29826Y36084D1*
X29867Y36202D1*
X29929Y36310D1*
X30012Y36403D1*
X30059Y36438D1*
X29984Y36505D1*
X29907Y36603D1*
X29851Y36715D1*
X29818Y36835D1*
X29810Y36960D1*
X29826Y37084D1*
X29867Y37202D1*
X29929Y37310D1*
X30012Y37403D1*
X30059Y37438D1*
X29957Y37539D1*
X29817Y37559D1*
X29703Y37618D1*
X29480Y37834D1*
X29407Y37907D1*
X29334Y38008D1*
X29295Y38130D1*
X29290Y38440D1*
Y39065D1*
X29309Y39188D1*
X29368Y39302D1*
X29584Y39525D1*
X29829Y39762D1*
X29810Y39910D1*
X29817Y40035D1*
X29848Y40155D1*
X29902Y40268D1*
X29977Y40368D1*
X30070Y40450D1*
X30178Y40513D1*
X30296Y40554D1*
X30420Y40570D1*
X30544Y40562D1*
X30665Y40529D1*
X30776Y40473D1*
X30875Y40396D1*
X30956Y40302D1*
X31017Y40193D1*
X31056Y40074D1*
X31067Y40007D1*
X32532Y41473D1*
X32633Y41546D1*
X32755Y41585D1*
X33065Y41590D1*
X44266Y41592D1*
X44210Y41704D1*
X44176Y41824D1*
X44165Y41948D1*
X44179Y42072D1*
X44216Y42191D1*
X44275Y42301D1*
X44354Y42398D1*
X44450Y42478D1*
X44559Y42538D1*
X44678Y42575D1*
X44802Y42590D1*
X44927Y42580D1*
X45047Y42547D1*
X45159Y42492D1*
X45258Y42416D1*
X45341Y42322D1*
X45404Y42215D1*
X45446Y42097D1*
X45464Y41974D1*
X45457Y41840D1*
X45426Y41719D1*
X45373Y41607D1*
X45363Y41590D1*
X46163D1*
X46165Y42590D1*
X47465D1*
Y41586D1*
X47815Y41590D1*
X47938Y41571D1*
X48052Y41512D1*
X48275Y41296D1*
X48874Y40697D1*
X48943Y40690D1*
X49062Y40652D1*
X49169Y40587D1*
X49257Y40500D1*
X49324Y40394D1*
X49363Y40276D1*
X49375Y40165D1*
X49360Y40041D1*
X49324Y39942D1*
X49512Y40078D1*
X49624Y40132D1*
X49745Y40163D1*
X49870Y40170D1*
X49993Y40151D1*
X50111Y40109D1*
X50218Y40045D1*
X50310Y39960D1*
X50340Y39919D1*
X50415Y40005D1*
Y40065D1*
X50434Y40188D1*
X50493Y40302D1*
X50709Y40525D1*
X51032Y40848D1*
X51133Y40921D1*
X51255Y40960D1*
X51565Y40965D1*
X54940D1*
X55063Y40946D1*
X55177Y40887D1*
X55400Y40671D1*
X55598Y40473D1*
X55671Y40372D1*
X55710Y40250D1*
X55715Y40155D1*
X55870Y40170D1*
X55993Y40151D1*
X56111Y40109D1*
X56218Y40045D1*
X56310Y39960D1*
X56340Y39919D1*
X56412Y40003D1*
X56512Y40078D1*
X56624Y40132D1*
X56745Y40163D1*
X56870Y40170D1*
X56993Y40151D1*
X57111Y40109D1*
X57218Y40045D1*
X57310Y39960D1*
X57340Y39919D1*
X57412Y40003D1*
X57512Y40078D1*
X57624Y40132D1*
X57745Y40163D1*
X57870Y40170D1*
X57993Y40151D1*
X58111Y40109D1*
X58218Y40045D1*
X58310Y39960D1*
X58340Y39919D1*
X58412Y40003D1*
X58512Y40078D1*
X58624Y40132D1*
X58745Y40163D1*
X58870Y40170D1*
X58993Y40151D1*
X59111Y40109D1*
X59218Y40045D1*
X59310Y39960D1*
X59340Y39919D1*
X59412Y40003D1*
X59512Y40078D1*
X59624Y40132D1*
X59745Y40163D1*
X59870Y40170D1*
X59993Y40151D1*
X60111Y40109D1*
X60218Y40045D1*
X60310Y39960D1*
X60383Y39860D1*
X60436Y39746D1*
X60465Y39625D1*
X60470Y39540D1*
X60458Y39416D1*
X60421Y39297D1*
X60362Y39187D1*
X60282Y39091D1*
X60185Y39013D1*
X60074Y38955D1*
X59954Y38920D1*
X59830Y38910D1*
X59706Y38924D1*
X59587Y38963D1*
X59479Y39024D1*
X59384Y39105D1*
X59343Y39157D1*
X59282Y39091D1*
X59185Y39013D1*
X59074Y38955D1*
X58954Y38920D1*
X58830Y38910D1*
X58706Y38924D1*
X58587Y38963D1*
X58479Y39024D1*
X58384Y39105D1*
X58343Y39157D1*
X58282Y39091D1*
X58185Y39013D1*
X58074Y38955D1*
X57954Y38920D1*
X57830Y38910D1*
X57706Y38924D1*
X57587Y38963D1*
X57479Y39024D1*
X57384Y39105D1*
X57343Y39157D1*
X57282Y39091D1*
X57185Y39013D1*
X57074Y38955D1*
X56954Y38920D1*
X56830Y38910D1*
X56706Y38924D1*
X56587Y38963D1*
X56479Y39024D1*
X56384Y39105D1*
X56343Y39157D1*
X56282Y39091D1*
X56182Y39011D1*
X57100Y38095D1*
X59598Y35598D1*
X59671Y35497D1*
X59710Y35375D1*
X59715Y35065D1*
X59721Y34159D1*
X59845Y34170D1*
X59969Y34157D1*
X60088Y34119D1*
X60197Y34059D1*
X60293Y33979D1*
X60370Y33881D1*
X60427Y33770D1*
X60461Y33650D1*
X60470Y33515D1*
X60453Y33391D1*
X60411Y33274D1*
X60348Y33166D1*
X60264Y33074D1*
X60164Y32999D1*
X60051Y32946D1*
X59930Y32916D1*
X59805Y32911D1*
X59682Y32930D1*
X59565Y32973D1*
X59547Y32982D1*
X59092Y32527D1*
X59090Y31530D1*
X60279Y32719D1*
X60315Y32880D1*
X60372Y32991D1*
X60454Y33085D1*
X60555Y33158D1*
X60671Y33205D1*
X60794Y33225D1*
X60918Y33215D1*
X61037Y33177D1*
X61144Y33112D1*
X61232Y33025D1*
X61299Y32919D1*
X61338Y32801D1*
X61350Y32690D1*
X61331Y32555D1*
X61424Y32419D1*
X61463Y32301D1*
X61475Y32190D1*
X61460Y32066D1*
X61418Y31949D1*
X61349Y31845D1*
X61258Y31760D1*
X61150Y31698D1*
X61030Y31663D1*
X60972Y31660D1*
X60339Y31023D1*
X59878Y30562D1*
X59990Y30516D1*
X60095Y30448D1*
X60185Y30362D1*
X60256Y30259D1*
X60307Y30145D1*
X60335Y30024D1*
X60338Y29890D1*
X60317Y29767D1*
X60272Y29651D1*
X60206Y29545D1*
X60121Y29453D1*
X60020Y29380D1*
X59907Y29327D1*
X59786Y29297D1*
X59661Y29291D1*
X59590Y29298D1*
Y28483D1*
X59668Y28379D1*
X59708Y28264D1*
X59694Y28319D1*
X59715Y28190D1*
Y26438D1*
X59840Y26445D1*
X59963Y26426D1*
X60081Y26384D1*
X60188Y26320D1*
X60280Y26235D1*
X60353Y26135D1*
X60406Y26021D1*
X60435Y25900D1*
X60440Y25815D1*
X60428Y25691D1*
X60391Y25572D1*
X60332Y25462D1*
X60252Y25366D1*
X60188Y25314D1*
X60280Y25235D1*
X60353Y25135D1*
X60406Y25021D1*
X60435Y24900D1*
X60440Y24815D1*
X60428Y24691D1*
X60391Y24572D1*
X60332Y24462D1*
X60252Y24366D1*
X60188Y24314D1*
X60280Y24235D1*
X60353Y24135D1*
X60406Y24021D1*
X60435Y23900D1*
X60440Y23815D1*
X60428Y23691D1*
X60391Y23572D1*
X60332Y23462D1*
X60252Y23366D1*
X60188Y23314D1*
X60280Y23235D1*
X60353Y23135D1*
X60406Y23021D1*
X60435Y22900D1*
X60440Y22815D1*
X60428Y22691D1*
X60391Y22572D1*
X60332Y22462D1*
X60252Y22366D1*
X60188Y22314D1*
X60280Y22235D1*
X60353Y22135D1*
X60406Y22021D1*
X60435Y21900D1*
X60440Y21815D1*
X60428Y21691D1*
X60391Y21572D1*
X60332Y21462D1*
X60252Y21366D1*
X60188Y21314D1*
X60280Y21235D1*
X60353Y21135D1*
X60406Y21021D1*
X60435Y20900D1*
X60440Y20815D1*
X60428Y20691D1*
X60391Y20572D1*
X60332Y20462D1*
X60252Y20366D1*
X60188Y20314D1*
X60280Y20235D1*
X60353Y20135D1*
X60406Y20021D1*
X60435Y19900D1*
X60440Y19815D1*
X60428Y19691D1*
X60391Y19572D1*
X60332Y19462D1*
X60252Y19366D1*
X60188Y19314D1*
X60280Y19235D1*
X60353Y19135D1*
X60406Y19021D1*
X60435Y18900D1*
X60440Y18815D1*
X60428Y18691D1*
X60391Y18572D1*
X60332Y18462D1*
X60252Y18366D1*
X60188Y18314D1*
X60280Y18235D1*
X60353Y18135D1*
X60406Y18021D1*
X60435Y17900D1*
X60440Y17815D1*
X60428Y17691D1*
X60391Y17572D1*
X60332Y17462D1*
X60252Y17366D1*
X60188Y17314D1*
X60280Y17235D1*
X60353Y17135D1*
X60406Y17021D1*
X60435Y16900D1*
X60440Y16815D1*
X60428Y16691D1*
X60391Y16572D1*
X60332Y16462D1*
X60252Y16366D1*
X60188Y16314D1*
X60280Y16235D1*
X60353Y16135D1*
X60406Y16021D1*
X60435Y15900D1*
X60440Y15815D1*
X60428Y15691D1*
X60391Y15572D1*
X60332Y15462D1*
X60252Y15366D1*
X60188Y15314D1*
X60280Y15235D1*
X60353Y15135D1*
X60406Y15021D1*
X60435Y14900D1*
X60440Y14815D1*
X60428Y14691D1*
X60391Y14572D1*
X60332Y14462D1*
X60252Y14366D1*
X60188Y14314D1*
X60280Y14235D1*
X60353Y14135D1*
X60406Y14021D1*
X60435Y13900D1*
X60440Y13815D1*
X60428Y13691D1*
X60391Y13572D1*
X60332Y13462D1*
X60252Y13366D1*
X60188Y13314D1*
X60280Y13235D1*
X60353Y13135D1*
X60406Y13021D1*
X60435Y12900D1*
X60440Y12815D1*
X60428Y12691D1*
X60391Y12572D1*
X60332Y12462D1*
X60252Y12366D1*
X60155Y12288D1*
X60044Y12230D1*
X59924Y12195D1*
X59800Y12185D1*
X59676Y12199D1*
X59557Y12238D1*
X59449Y12299D1*
X59354Y12380D1*
X59277Y12478D1*
X59221Y12590D1*
X59188Y12710D1*
X59180Y12835D1*
X59196Y12959D1*
X59237Y13077D1*
X59299Y13185D1*
X59382Y13278D1*
X59429Y13313D1*
X59354Y13380D1*
X59277Y13478D1*
X59221Y13590D1*
X59188Y13710D1*
X59180Y13835D1*
X59196Y13959D1*
X59237Y14077D1*
X59299Y14185D1*
X59382Y14278D1*
X59429Y14313D1*
X59354Y14380D1*
X59277Y14478D1*
X59221Y14590D1*
X59188Y14710D1*
X59180Y14835D1*
X59196Y14959D1*
X59237Y15077D1*
X59299Y15185D1*
X59382Y15278D1*
X59429Y15313D1*
X59354Y15380D1*
X59277Y15478D1*
X59221Y15590D1*
X59188Y15710D1*
X59180Y15835D1*
X59196Y15959D1*
X59237Y16077D1*
X59299Y16185D1*
X59382Y16278D1*
X59429Y16313D1*
X59354Y16380D1*
X59277Y16478D1*
X59221Y16590D1*
X59188Y16710D1*
X59180Y16835D1*
X59196Y16959D1*
X59237Y17077D1*
X59299Y17185D1*
X59382Y17278D1*
X59429Y17313D1*
X59354Y17380D1*
X59277Y17478D1*
X59221Y17590D1*
X59188Y17710D1*
X59180Y17835D1*
X59196Y17959D1*
X59237Y18077D1*
X59299Y18185D1*
X59382Y18278D1*
X59429Y18313D1*
X59354Y18380D1*
X59277Y18478D1*
X59221Y18590D1*
X59188Y18710D1*
X59180Y18835D1*
X59186Y18877D1*
X58643Y19416D1*
X58088Y19971D1*
X58090Y17440D1*
Y10170D1*
X58174Y10044D1*
X58213Y9926D1*
X58225Y9815D1*
X58210Y9691D1*
X58168Y9574D1*
X58099Y9470D1*
X58008Y9385D1*
X57900Y9323D1*
X57780Y9288D1*
X57655Y9281D1*
X57533Y9304D1*
X57419Y9354D1*
X57319Y9429D1*
X57240Y9526D1*
X57185Y9638D1*
X57178Y9672D1*
X57044Y9729D1*
X56944Y9804D1*
X56865Y9901D1*
X56839Y9953D1*
X56832Y9840D1*
X56801Y9719D1*
X56748Y9607D1*
X56674Y9506D1*
X56582Y9422D1*
X56476Y9356D1*
X56359Y9312D1*
X56236Y9292D1*
X56111Y9295D1*
X55989Y9322D1*
X55875Y9372D1*
X55772Y9442D1*
X55685Y9531D1*
X55616Y9635D1*
X55568Y9751D1*
X55543Y9873D1*
Y9998D1*
X55566Y10121D1*
X55612Y10237D1*
X55679Y10342D1*
X55765Y10432D1*
X55867Y10504D1*
X55981Y10555D1*
X56102Y10584D1*
X56227Y10589D1*
X56350Y10570D1*
X56468Y10528D1*
X56575Y10464D1*
X56668Y10380D1*
X56743Y10281D1*
X56781Y10211D1*
X56815Y10380D1*
X56872Y10491D1*
X56916Y10541D1*
X56915Y18850D1*
X54598Y16532D1*
X54497Y16459D1*
X54375Y16420D1*
X54295Y16415D1*
X54188Y16314D1*
X54280Y16235D1*
X54353Y16135D1*
X54406Y16021D1*
X54435Y15900D1*
X54440Y15815D1*
X54428Y15691D1*
X54391Y15572D1*
X54332Y15462D1*
X54252Y15366D1*
X54188Y15314D1*
X54280Y15235D1*
X54353Y15135D1*
X54406Y15021D1*
X54435Y14900D1*
X54440Y14815D1*
X54428Y14691D1*
X54391Y14572D1*
X54332Y14462D1*
X54252Y14366D1*
X54188Y14314D1*
X54280Y14235D1*
X54353Y14135D1*
X54406Y14021D1*
X54435Y13900D1*
X54440Y13815D1*
X54428Y13691D1*
X54391Y13572D1*
X54332Y13462D1*
X54252Y13366D1*
X54188Y13314D1*
X54245Y13271D1*
X54326Y13177D1*
X54387Y13068D1*
X54426Y12949D1*
X54440Y12815D1*
X54428Y12691D1*
X54391Y12572D1*
X54332Y12462D1*
X54252Y12366D1*
X54155Y12288D1*
X54044Y12230D1*
X53924Y12195D1*
X53800Y12185D1*
X53676Y12199D1*
X53557Y12238D1*
X53449Y12299D1*
X53354Y12380D1*
X53277Y12478D1*
X53221Y12590D1*
X53188Y12710D1*
X53180Y12835D1*
X53196Y12959D1*
X53237Y13077D1*
X53299Y13185D1*
X53382Y13278D1*
X53426Y13315D1*
X53354Y13380D1*
X53277Y13478D1*
X53221Y13590D1*
X53188Y13710D1*
X53180Y13835D1*
X53196Y13959D1*
X53237Y14077D1*
X53299Y14185D1*
X53382Y14278D1*
X53429Y14313D1*
X53354Y14380D1*
X53277Y14478D1*
X53221Y14590D1*
X53188Y14710D1*
X53180Y14835D1*
X53196Y14959D1*
X53237Y15077D1*
X53299Y15185D1*
X53382Y15278D1*
X53429Y15313D1*
X53354Y15380D1*
X53277Y15478D1*
X53221Y15590D1*
X53188Y15710D1*
X53185Y15870D1*
X52717Y15401D1*
X52715Y13569D1*
X52945Y13570D1*
Y12418D1*
X53174Y12196D1*
X54498Y10873D1*
X54572Y10773D1*
X54609Y10680D1*
X54665Y10590D1*
X54840D1*
Y9290D1*
X53540D1*
Y10590D1*
X53552D1*
X52510Y11630D1*
X48190D1*
X48067Y11648D1*
X47975Y11687D1*
X47882Y11757D1*
X47327Y12313D1*
X47181Y12324D1*
X47062Y12363D1*
X46954Y12424D1*
X46859Y12505D1*
X46818Y12557D1*
X46757Y12491D1*
X46660Y12413D1*
X46549Y12355D1*
X46429Y12320D1*
X46305Y12310D1*
X46181Y12324D1*
X46062Y12363D1*
X45954Y12424D1*
X45859Y12505D1*
X45818Y12557D1*
X45720Y12457D1*
X45617Y12387D1*
X45502Y12338D1*
X45380Y12313D1*
X45255D1*
X45133Y12337D1*
X45017Y12384D1*
X44914Y12454D1*
X44826Y12543D1*
X44757Y12647D1*
X44710Y12762D1*
X44687Y12885D1*
X44689Y13010D1*
X44715Y13132D1*
X44764Y13246D1*
X44835Y13349D1*
X44925Y13435D1*
X45031Y13502D1*
X45147Y13547D1*
X45270Y13569D1*
X45395Y13565D1*
X45516Y13537D1*
X45630Y13486D1*
X45731Y13413D1*
X45815Y13324D1*
X45887Y13403D1*
X45987Y13478D1*
X46099Y13532D1*
X46220Y13563D1*
X46345Y13570D1*
X46468Y13551D1*
X46586Y13509D1*
X46693Y13445D1*
X46785Y13360D1*
X46815Y13319D1*
X46887Y13403D1*
X46987Y13478D1*
X47099Y13532D1*
X47220Y13563D1*
X47345Y13570D1*
X47468Y13551D1*
X47586Y13509D1*
X47693Y13445D1*
X47785Y13360D1*
X47815Y13319D1*
X47915Y13424D1*
Y16772D1*
X44782Y19907D1*
X44709Y20008D1*
X44670Y20130D1*
X44665Y20440D1*
Y20897D1*
X44299Y21266D1*
X44212Y21087D1*
X44132Y20991D1*
X44068Y20939D1*
X44160Y20860D1*
X44233Y20760D1*
X44286Y20646D1*
X44315Y20525D1*
X44320Y20440D1*
X44308Y20316D1*
X44271Y20197D1*
X44212Y20087D1*
X44132Y19991D1*
X44035Y19913D1*
X43924Y19855D1*
X43804Y19820D1*
X43680Y19810D1*
X43556Y19824D1*
X43437Y19863D1*
X43329Y19924D1*
X43234Y20005D1*
X43157Y20103D1*
X43101Y20215D1*
X43068Y20335D1*
X43060Y20460D1*
X43076Y20584D1*
X43117Y20702D1*
X43179Y20810D1*
X43262Y20903D1*
X43309Y20938D1*
X43234Y21005D1*
X43157Y21103D1*
X43101Y21215D1*
X43068Y21335D1*
X43060Y21460D1*
X43076Y21584D1*
X43117Y21702D1*
X43179Y21810D1*
X43262Y21903D1*
X43309Y21938D1*
X43234Y22005D1*
X43157Y22103D1*
X43101Y22215D1*
X43068Y22335D1*
X43060Y22460D1*
X43076Y22584D1*
X43117Y22702D1*
X43179Y22810D1*
X43262Y22903D1*
X43309Y22938D1*
X43234Y23005D1*
X43157Y23103D1*
X43101Y23215D1*
X43068Y23335D1*
X43060Y23460D1*
X43076Y23584D1*
X43117Y23702D1*
X43179Y23810D1*
X43262Y23903D1*
X43309Y23938D1*
X43234Y24005D1*
X43157Y24103D1*
X43101Y24215D1*
X43068Y24335D1*
X43060Y24460D1*
X43076Y24584D1*
X43117Y24702D1*
X43179Y24810D1*
X43262Y24903D1*
X43309Y24938D1*
X43234Y25005D1*
X43157Y25103D1*
X43101Y25215D1*
X43068Y25335D1*
X43060Y25460D1*
X43076Y25584D1*
X43117Y25702D1*
X43179Y25810D1*
X43262Y25903D1*
X43309Y25938D1*
X43234Y26005D1*
X43157Y26103D1*
X43101Y26215D1*
X43068Y26335D1*
X43060Y26460D1*
X43076Y26584D1*
X43117Y26702D1*
X43179Y26810D1*
X43262Y26903D1*
X43362Y26978D1*
X43474Y27032D1*
X43595Y27063D1*
X43720Y27070D1*
X43843Y27051D1*
X43961Y27009D1*
X44068Y26945D1*
X44160Y26860D1*
X44233Y26760D1*
X44286Y26646D1*
X44315Y26525D1*
X44320Y26440D1*
X44308Y26316D1*
X44271Y26197D1*
X44212Y26087D1*
X44132Y25991D1*
X44068Y25939D1*
X44160Y25860D1*
X44233Y25760D1*
X44286Y25646D1*
X44315Y25525D1*
X44320Y25440D1*
X44308Y25316D1*
X44271Y25197D1*
X44212Y25087D1*
X44132Y24991D1*
X44068Y24939D1*
X44160Y24860D1*
X44233Y24760D1*
X44286Y24646D1*
X44315Y24525D1*
X44320Y24440D1*
X44308Y24316D1*
X44271Y24197D1*
X44212Y24087D1*
X44132Y23991D1*
X44068Y23939D1*
X44160Y23860D1*
X44233Y23760D1*
X44286Y23646D1*
X44315Y23525D1*
X44320Y23440D1*
X44308Y23316D1*
X44271Y23197D1*
X44212Y23087D1*
X44132Y22991D1*
X44068Y22939D1*
X44160Y22860D1*
X44233Y22760D1*
X44286Y22646D1*
X44315Y22525D1*
X44314Y22382D1*
X45348Y21348D1*
X45421Y21247D1*
X45460Y21125D1*
X45465Y20815D1*
Y20358D1*
X48290Y17531D1*
Y18715D1*
X49590D1*
Y17415D1*
X48406D1*
X48598Y17223D1*
X48671Y17122D1*
X48710Y17000D1*
X48715Y16690D1*
Y13428D1*
X48815Y13319D1*
X48915Y13424D1*
Y13690D1*
X48934Y13813D1*
X48993Y13927D1*
X49209Y14150D1*
X52167Y17108D1*
X52165Y19565D1*
Y19811D1*
X51310Y19810D1*
Y21070D1*
X51431D1*
X51351Y21215D1*
X51318Y21335D1*
X51310Y21460D1*
X51326Y21584D1*
X51367Y21702D1*
X51429Y21810D1*
X51512Y21903D1*
X51559Y21938D1*
X51484Y22005D1*
X51407Y22103D1*
X51351Y22215D1*
X51318Y22335D1*
X51310Y22460D1*
X51326Y22584D1*
X51367Y22702D1*
X51429Y22810D1*
X51512Y22903D1*
X51559Y22938D1*
X51484Y23005D1*
X51407Y23103D1*
X51351Y23215D1*
X51318Y23335D1*
X51310Y23460D1*
X51326Y23584D1*
X51367Y23702D1*
X51429Y23810D1*
X51512Y23903D1*
X51559Y23938D1*
X51484Y24005D1*
X51407Y24103D1*
X51351Y24215D1*
X51318Y24335D1*
X51310Y24460D1*
X51326Y24584D1*
X51367Y24702D1*
X51429Y24810D1*
X51512Y24903D1*
X51559Y24938D1*
X51484Y25005D1*
X51407Y25103D1*
X51351Y25215D1*
X51318Y25335D1*
X51310Y25460D1*
X51326Y25584D1*
X51367Y25702D1*
X51429Y25810D1*
X51512Y25903D1*
X51559Y25938D1*
X51467Y26023D1*
X51394Y26125D1*
X51343Y26239D1*
X51315Y26360D1*
X51311Y26485D1*
X51332Y26608D1*
X51377Y26724D1*
X51445Y26830D1*
X51531Y26920D1*
X51633Y26991D1*
X51748Y27040D1*
X51870Y27066D1*
X51995Y27068D1*
X52117Y27045D1*
X52233Y26998D1*
X52337Y26929D1*
X52426Y26841D1*
X52495Y26738D1*
X52543Y26622D1*
X52567Y26500D1*
X52566Y26365D1*
X52539Y26243D1*
X52488Y26129D1*
X52416Y26027D1*
X52324Y25940D1*
X52410Y25860D1*
X52483Y25760D1*
X52536Y25646D1*
X52565Y25525D1*
X52570Y25440D1*
X52558Y25316D1*
X52521Y25197D1*
X52462Y25087D1*
X52382Y24991D1*
X52318Y24939D1*
X52410Y24860D1*
X52483Y24760D1*
X52536Y24646D1*
X52565Y24525D1*
X52570Y24440D1*
X52558Y24316D1*
X52521Y24197D1*
X52462Y24087D1*
X52382Y23991D1*
X52318Y23939D1*
X52410Y23860D1*
X52483Y23760D1*
X52536Y23646D1*
X52565Y23525D1*
X52570Y23440D1*
X52558Y23316D1*
X52521Y23197D1*
X52462Y23087D1*
X52382Y22991D1*
X52318Y22939D1*
X52371Y22941D1*
X53185Y23756D1*
X53180Y23835D1*
X53196Y23959D1*
X53237Y24077D1*
X53299Y24185D1*
X53382Y24278D1*
X53429Y24313D1*
X53354Y24380D1*
X53277Y24478D1*
X53221Y24590D1*
X53188Y24710D1*
X53180Y24835D1*
X53196Y24959D1*
X53237Y25077D1*
X53302Y25188D1*
X53180Y25185D1*
Y26445D1*
X53410D1*
Y28405D1*
X50398Y31417D1*
X48065Y31415D1*
X47942Y31434D1*
X47828Y31493D1*
X47605Y31709D1*
X46557Y32757D1*
X46483Y32862D1*
X46459Y32910D1*
X46210D1*
Y33664D1*
X37815Y33665D1*
X37440D1*
X37317Y33684D1*
X37203Y33743D1*
X37066Y33873D1*
X37021Y33697D1*
X36962Y33587D1*
X36882Y33491D1*
X36818Y33439D1*
X36910Y33360D1*
X36983Y33260D1*
X37036Y33146D1*
X37065Y33025D1*
X37070Y32940D1*
X37058Y32816D1*
X37021Y32697D1*
X36962Y32587D1*
X36882Y32491D1*
X36818Y32439D1*
X36910Y32360D1*
X36983Y32260D1*
X37036Y32146D1*
X37065Y32025D1*
X37070Y31940D1*
X37058Y31816D1*
X37021Y31697D1*
X36962Y31587D1*
X36882Y31491D1*
X36818Y31439D1*
X36910Y31360D1*
X36983Y31260D1*
X37036Y31146D1*
X37065Y31025D1*
X37070Y30940D1*
X37058Y30816D1*
X37021Y30697D1*
X36962Y30587D1*
X36882Y30491D1*
X36818Y30439D1*
X36910Y30360D1*
X36983Y30260D1*
X37036Y30146D1*
X37065Y30025D1*
X37070Y29940D1*
X37058Y29816D1*
X37021Y29697D1*
X36962Y29587D1*
X36882Y29491D1*
X36818Y29439D1*
X36910Y29360D1*
X36983Y29260D1*
X37036Y29146D1*
X37065Y29025D1*
X37070Y28940D1*
X37058Y28816D1*
X37021Y28697D1*
X36962Y28587D1*
X36882Y28491D1*
X36818Y28439D1*
X36910Y28360D1*
X36983Y28260D1*
X37036Y28146D1*
X37065Y28025D1*
X37070Y27940D1*
X37058Y27816D1*
X37021Y27697D1*
X36962Y27587D1*
X36882Y27491D1*
X36818Y27439D1*
X36910Y27360D1*
X36983Y27260D1*
X37036Y27146D1*
X37065Y27025D1*
X37069Y26959D1*
X37169Y26975D1*
X37293Y26965D1*
X37412Y26927D1*
X37519Y26862D1*
X37544Y26838D1*
X38565Y26840D1*
X39460D1*
X39555Y26908D1*
X39671Y26955D1*
X39794Y26975D1*
X39918Y26965D1*
X40037Y26927D1*
X40144Y26862D1*
X40232Y26775D1*
X40299Y26669D1*
X40338Y26551D1*
X40350Y26440D1*
X40335Y26316D1*
X40293Y26199D1*
X40224Y26095D1*
X40133Y26010D1*
X40025Y25948D1*
X39905Y25913D1*
X39780Y25906D1*
X39658Y25929D1*
X39544Y25979D1*
X39466Y26038D1*
X38694Y26040D1*
X38700Y25940D1*
X38688Y25816D1*
X38651Y25696D1*
X38592Y25586D1*
X38513Y25490D1*
X38416Y25411D1*
X38306Y25353D1*
X38187Y25317D1*
X38062Y25305D1*
X37938Y25318D1*
X37819Y25355D1*
X37709Y25414D1*
X37613Y25494D1*
X37535Y25591D1*
X37477Y25701D1*
X37441Y25821D1*
X37432Y25964D1*
X37280Y25913D1*
X37155Y25906D1*
X37067Y25922D1*
X37058Y25816D1*
X37021Y25697D1*
X36962Y25587D1*
X36882Y25491D1*
X36818Y25439D1*
X36910Y25360D1*
X36983Y25260D1*
X37036Y25146D1*
X37065Y25025D1*
X37070Y24940D1*
X37058Y24816D1*
X37021Y24697D1*
X36962Y24587D1*
X36882Y24491D1*
X36818Y24439D1*
X36910Y24360D1*
X36983Y24260D1*
X37036Y24146D1*
X37065Y24025D1*
X37070Y23940D1*
X37058Y23816D1*
X37021Y23697D1*
X36962Y23587D1*
X36882Y23491D1*
X36818Y23439D1*
X36910Y23360D1*
X36983Y23260D1*
X37036Y23146D1*
X37065Y23025D1*
X37070Y22940D1*
X37058Y22816D1*
X37021Y22697D1*
X36962Y22587D1*
X36882Y22491D1*
X36818Y22439D1*
X36910Y22360D1*
X36983Y22260D1*
X37036Y22146D1*
X37065Y22025D1*
X37070Y21940D1*
X37058Y21816D1*
X37021Y21697D1*
X36950Y21572D1*
X37070Y21570D1*
Y20310D1*
X36762D1*
X37731Y19340D1*
X42065D1*
X42188Y19321D1*
X42302Y19262D1*
X42525Y19046D1*
X43041Y18530D1*
X25022Y38132D2*
X24986Y38012D1*
X24929Y37901D1*
X24851Y37804D1*
X24756Y37723D1*
X24647Y37662D1*
X24529Y37622D1*
X24405Y37606D1*
X24280Y37614D1*
X24160Y37646D1*
X24047Y37700D1*
X23947Y37775D1*
X23863Y37867D1*
X23798Y37974D1*
X23755Y38091D1*
X23735Y38214D1*
X23739Y38339D1*
X23767Y38460D1*
X23817Y38575D1*
X23889Y38677D1*
X23978Y38764D1*
X24083Y38832D1*
X24199Y38879D1*
X24321Y38903D1*
X24446D1*
X24568Y38879D1*
X24684Y38832D1*
X24789Y38764D1*
X24879Y38678D1*
X24950Y38575D1*
X25001Y38461D1*
X25028Y38340D1*
X25034Y38256D1*
X25022Y38132D1*
X23859Y36906D2*
X25034D1*
Y35606D1*
X23734D1*
Y36906D1*
X23859D1*
X16647Y28632D2*
X16611Y28512D1*
X16554Y28401D1*
X16476Y28304D1*
X16381Y28223D1*
X16272Y28162D1*
X16154Y28122D1*
X16030Y28106D1*
X15905Y28114D1*
X15785Y28146D1*
X15672Y28200D1*
X15572Y28275D1*
X15488Y28367D1*
X15423Y28474D1*
X15380Y28591D1*
X15360Y28714D1*
X15364Y28839D1*
X15392Y28960D1*
X15442Y29075D1*
X15514Y29177D1*
X15603Y29264D1*
X15708Y29332D1*
X15824Y29379D1*
X15946Y29403D1*
X16071D1*
X16193Y29379D1*
X16309Y29332D1*
X16414Y29264D1*
X16504Y29178D1*
X16575Y29075D1*
X16626Y28961D1*
X16653Y28840D1*
X16659Y28756D1*
X16647Y28632D1*
X27147Y38132D2*
X27111Y38012D1*
X27054Y37901D1*
X26976Y37804D1*
X26881Y37723D1*
X26772Y37662D1*
X26654Y37622D1*
X26530Y37606D1*
X26405Y37614D1*
X26285Y37646D1*
X26172Y37700D1*
X26072Y37775D1*
X25988Y37867D1*
X25923Y37974D1*
X25880Y38091D1*
X25860Y38214D1*
X25864Y38339D1*
X25892Y38460D1*
X25942Y38575D1*
X26014Y38677D1*
X26103Y38764D1*
X26208Y38832D1*
X26324Y38879D1*
X26446Y38903D1*
X26571D1*
X26693Y38879D1*
X26809Y38832D1*
X26914Y38764D1*
X27004Y38678D1*
X27075Y38575D1*
X27126Y38461D1*
X27153Y38340D1*
X27159Y38256D1*
X27147Y38132D1*
X25884Y36906D2*
X27159D1*
Y35606D1*
X25859D1*
Y36906D1*
X25884D1*
X51589Y18040D2*
X51573Y17916D1*
X51533Y17798D1*
X51471Y17690D1*
X51389Y17595D1*
X51291Y17518D1*
X51180Y17461D1*
X51060Y17426D1*
X50936Y17415D1*
X50812Y17428D1*
X50692Y17464D1*
X50582Y17522D1*
X50485Y17601D1*
X50405Y17696D1*
X50344Y17806D1*
X50305Y17924D1*
X50290Y18048D1*
X50299Y18173D1*
X50331Y18293D1*
X50386Y18405D1*
X50461Y18505D1*
X50554Y18588D1*
X50661Y18652D1*
X50779Y18695D1*
X50902Y18714D1*
X51027Y18709D1*
X51148Y18681D1*
X51262Y18629D1*
X51364Y18557D1*
X51450Y18467D1*
X51518Y18362D1*
X51564Y18246D1*
X51587Y18124D1*
X51589Y18040D1*
X19501Y23254D2*
X20754D1*
Y21876D1*
X19376D1*
Y23254D1*
X19501D1*
X16393Y22441D2*
X16359Y22320D1*
X16304Y22208D1*
X16230Y22108D1*
X16139Y22022D1*
X16035Y21954D1*
X15919Y21907D1*
X15797Y21881D1*
X15672Y21877D1*
X15549Y21896D1*
X15431Y21937D1*
X15322Y21998D1*
X15227Y22078D1*
X15147Y22174D1*
X15086Y22283D1*
X15045Y22401D1*
X15026Y22524D1*
X15030Y22649D1*
X15057Y22771D1*
X15105Y22886D1*
X15173Y22991D1*
X15259Y23082D1*
X15359Y23156D1*
X15472Y23210D1*
X15592Y23243D1*
X15716Y23254D1*
X15840Y23243D1*
X15961Y23209D1*
X16073Y23154D1*
X16173Y23080D1*
X16258Y22989D1*
X16326Y22884D1*
X16373Y22768D1*
X16399Y22646D1*
X16404Y22565D1*
X16393Y22441D1*
X20216Y41549D2*
X20814D1*
X20725Y41667D1*
X20673Y41781D1*
X20644Y41902D1*
X20637Y42026D1*
X20654Y42150D1*
X20693Y42269D1*
X20754Y42378D1*
X20834Y42473D1*
X20931Y42553D1*
X21040Y42612D1*
X21159Y42651D1*
X21283Y42666D1*
X21407Y42659D1*
X21528Y42628D1*
X21642Y42575D1*
X21743Y42502D1*
X21848Y42382D1*
X21925Y42473D1*
X22021Y42553D1*
X22131Y42612D1*
X22250Y42651D1*
X22373Y42666D1*
X22498Y42659D1*
X22619Y42628D1*
X22732Y42575D1*
X22833Y42502D1*
X22938Y42382D1*
X23015Y42473D1*
X23112Y42553D1*
X23221Y42612D1*
X23340Y42651D1*
X23464Y42666D1*
X23589Y42659D1*
X23709Y42628D1*
X23823Y42575D1*
X23924Y42502D1*
X24029Y42382D1*
X24106Y42473D1*
X24202Y42553D1*
X24312Y42612D1*
X24431Y42651D1*
X24554Y42666D1*
X24679Y42659D1*
X24800Y42628D1*
X24913Y42575D1*
X25015Y42502D1*
X25101Y42412D1*
X25168Y42307D1*
X25215Y42191D1*
X25240Y42069D1*
X25244Y41999D1*
X25232Y41875D1*
X25197Y41755D1*
X25141Y41643D1*
X25067Y41548D1*
X25200Y41544D1*
X25322Y41518D1*
X25437Y41469D1*
X25541Y41400D1*
X25630Y41313D1*
X25702Y41211D1*
X25753Y41097D1*
X25782Y40976D1*
X25788Y40856D1*
X25772Y40732D1*
X25733Y40614D1*
X25673Y40504D1*
X25593Y40408D1*
X25497Y40329D1*
X25387Y40269D1*
X25269Y40230D1*
X25145Y40214D1*
X25020Y40221D1*
X24899Y40251D1*
X24786Y40304D1*
X24684Y40376D1*
X24598Y40466D1*
X24576Y40496D1*
X24520Y40426D1*
X24426Y40343D1*
X24319Y40279D1*
X24202Y40236D1*
X24079Y40215D1*
X23955Y40218D1*
X23832Y40243D1*
X23717Y40291D1*
X23613Y40360D1*
X23523Y40447D1*
X23485Y40501D1*
X23429Y40426D1*
X23336Y40343D1*
X23229Y40279D1*
X23112Y40236D1*
X22989Y40215D1*
X22864Y40218D1*
X22742Y40243D1*
X22627Y40291D1*
X22522Y40360D1*
X22433Y40447D1*
X22394Y40501D1*
X22338Y40426D1*
X22245Y40343D1*
X22138Y40279D1*
X22021Y40236D1*
X21898Y40215D1*
X21773Y40218D1*
X21651Y40243D1*
X21536Y40291D1*
X21429Y40363D1*
X21427Y40213D1*
X20091D1*
Y41549D1*
X20216D1*
X19287Y41315D2*
X19238Y41070D1*
X19142Y40840D1*
X19003Y40632D1*
X18827Y40456D1*
X18619Y40318D1*
X18388Y40222D1*
X18144Y40174D1*
X17894D1*
X17649Y40223D1*
X17419Y40319D1*
X17212Y40458D1*
X17036Y40635D1*
X16897Y40843D1*
X16802Y41074D1*
X16754Y41319D1*
X16755Y41569D1*
X16805Y41813D1*
X16901Y42044D1*
X17040Y42251D1*
X17218Y42426D1*
X17426Y42564D1*
X17657Y42659D1*
X17902Y42706D1*
X18151Y42705D1*
X18396Y42655D1*
X18626Y42559D1*
X18833Y42419D1*
X19008Y42242D1*
X19146Y42033D1*
X19240Y41802D1*
X19287Y41557D1*
Y41315D1*
X29125D2*
X29076Y41070D1*
X28981Y40840D1*
X28842Y40632D1*
X28665Y40456D1*
X28458Y40318D1*
X28227Y40222D1*
X27982Y40174D1*
X27733D1*
X27488Y40223D1*
X27257Y40319D1*
X27050Y40458D1*
X26874Y40635D1*
X26736Y40843D1*
X26641Y41074D1*
X26593Y41319D1*
X26594Y41569D1*
X26643Y41813D1*
X26740Y42044D1*
X26879Y42251D1*
X27056Y42426D1*
X27264Y42564D1*
X27495Y42659D1*
X27740Y42706D1*
X27990Y42705D1*
X28234Y42655D1*
X28465Y42559D1*
X28671Y42419D1*
X28847Y42242D1*
X28984Y42033D1*
X29079Y41802D1*
X29126Y41557D1*
X29125Y41315D1*
X42688Y20691D2*
X42651Y20571D1*
X42592Y20461D1*
X42513Y20365D1*
X42416Y20286D1*
X42306Y20228D1*
X42187Y20192D1*
X42062Y20180D1*
X41938Y20193D1*
X41819Y20230D1*
X41709Y20289D1*
X41613Y20369D1*
X41535Y20466D1*
X41477Y20576D1*
X41441Y20696D1*
X41430Y20820D1*
X41443Y20944D1*
X41481Y21063D1*
X41540Y21173D1*
X41621Y21268D1*
X41718Y21347D1*
X41828Y21404D1*
X41948Y21439D1*
X42073Y21450D1*
X42197Y21436D1*
X42316Y21398D1*
X42425Y21338D1*
X42520Y21258D1*
X42598Y21160D1*
X42655Y21049D1*
X42690Y20929D1*
X42700Y20815D1*
X42688Y20691D1*
X38688D2*
X38651Y20571D1*
X38592Y20461D1*
X38513Y20365D1*
X38416Y20286D1*
X38306Y20228D1*
X38187Y20192D1*
X38062Y20180D1*
X37938Y20193D1*
X37819Y20230D1*
X37709Y20289D1*
X37613Y20369D1*
X37535Y20466D1*
X37477Y20576D1*
X37441Y20696D1*
X37430Y20820D1*
X37443Y20944D1*
X37481Y21063D1*
X37540Y21173D1*
X37621Y21268D1*
X37718Y21347D1*
X37777Y21377D1*
X37709Y21414D1*
X37613Y21494D1*
X37535Y21591D1*
X37477Y21701D1*
X37441Y21821D1*
X37430Y21945D1*
X37443Y22069D1*
X37481Y22188D1*
X37540Y22298D1*
X37621Y22393D1*
X37718Y22472D1*
X37855Y22537D1*
X37783Y22554D1*
X37669Y22604D1*
X37569Y22679D1*
X37490Y22776D1*
X37435Y22888D1*
X37408Y23009D1*
X37409Y23134D1*
X37440Y23255D1*
X37505Y23374D1*
X37435Y23513D1*
X37408Y23634D1*
X37409Y23759D1*
X37440Y23880D1*
X37505Y23999D1*
X37435Y24138D1*
X37408Y24259D1*
X37409Y24384D1*
X37440Y24505D1*
X37497Y24616D1*
X37579Y24710D1*
X37680Y24783D1*
X37796Y24830D1*
X37919Y24850D1*
X38043Y24840D1*
X38162Y24802D1*
X38269Y24737D1*
X38294Y24713D1*
X39315Y24715D1*
X40585D1*
X40680Y24783D1*
X40792Y24829D1*
X40783Y24884D1*
X40784Y25009D1*
X40815Y25130D1*
X40872Y25241D1*
X40916Y25291D1*
X40915Y28085D1*
X40865Y28151D1*
X40810Y28263D1*
X40783Y28384D1*
X40784Y28509D1*
X40815Y28630D1*
X40872Y28741D1*
X40954Y28835D1*
X41055Y28908D1*
X41171Y28955D1*
X41294Y28975D1*
X41418Y28965D1*
X41537Y28927D1*
X41644Y28862D1*
X41732Y28775D1*
X41799Y28669D1*
X41838Y28551D1*
X41850Y28440D1*
X41835Y28316D1*
X41793Y28199D1*
X41715Y28087D1*
Y25295D1*
X41799Y25169D1*
X41838Y25051D1*
X41850Y24940D1*
X41835Y24816D1*
X41793Y24699D1*
X41724Y24595D1*
X41633Y24510D1*
X41525Y24448D1*
X41463Y24426D1*
X41475Y24315D1*
X41460Y24191D1*
X41418Y24074D1*
X41349Y23970D1*
X41258Y23885D1*
X41150Y23823D1*
X41030Y23788D1*
X40905Y23781D1*
X40783Y23804D1*
X40669Y23854D1*
X40591Y23913D1*
X40178Y23915D1*
X40213Y23801D1*
X40225Y23690D1*
X40204Y23548D1*
X40296Y23580D1*
X40419Y23600D1*
X40543Y23590D1*
X40662Y23552D1*
X40769Y23487D1*
X40857Y23400D1*
X40924Y23294D1*
X40963Y23176D1*
X40975Y23065D1*
X40960Y22941D1*
X40918Y22824D1*
X40849Y22720D1*
X40758Y22635D1*
X40650Y22573D1*
X40530Y22538D1*
X40405Y22531D1*
X40283Y22554D1*
X40169Y22604D1*
X40091Y22663D1*
X38565Y22665D1*
X38295D1*
X38150Y22573D1*
X38197Y22561D1*
X38316Y22523D1*
X38425Y22463D1*
X38520Y22383D1*
X38598Y22285D1*
X38655Y22174D1*
X38690Y22054D1*
X38700Y21940D1*
X38688Y21816D1*
X38651Y21696D1*
X38592Y21586D1*
X38513Y21490D1*
X38416Y21411D1*
X38358Y21380D1*
X38425Y21338D1*
X38520Y21258D1*
X38598Y21160D1*
X38655Y21049D1*
X38690Y20929D1*
X38700Y20815D1*
X38688Y20691D1*
X10688Y8941D2*
X10651Y8821D1*
X10592Y8711D1*
X10513Y8615D1*
X10416Y8536D1*
X10306Y8478D1*
X10187Y8442D1*
X10062Y8430D1*
X9938Y8443D1*
X9819Y8480D1*
X9709Y8539D1*
X9613Y8619D1*
X9535Y8716D1*
X9477Y8826D1*
X9441Y8946D1*
X9430Y9070D1*
X9443Y9194D1*
X9481Y9313D1*
X9540Y9423D1*
X9621Y9518D1*
X9718Y9597D1*
X9828Y9654D1*
X9948Y9689D1*
X10073Y9700D1*
X10197Y9686D1*
X10316Y9648D1*
X10425Y9588D1*
X10520Y9508D1*
X10598Y9410D1*
X10655Y9299D1*
X10690Y9179D1*
X10700Y9065D1*
X10688Y8941D1*
X14688D2*
X14651Y8821D1*
X14592Y8711D1*
X14513Y8615D1*
X14416Y8536D1*
X14306Y8478D1*
X14187Y8442D1*
X14062Y8430D1*
X13938Y8443D1*
X13819Y8480D1*
X13709Y8539D1*
X13613Y8619D1*
X13535Y8716D1*
X13477Y8826D1*
X13441Y8946D1*
X13430Y9070D1*
X13443Y9194D1*
X13481Y9313D1*
X13540Y9423D1*
X13621Y9518D1*
X13718Y9597D1*
X13828Y9654D1*
X13948Y9689D1*
X14073Y9700D1*
X14197Y9686D1*
X14316Y9648D1*
X14425Y9588D1*
X14520Y9508D1*
X14598Y9410D1*
X14655Y9299D1*
X14690Y9179D1*
X14700Y9065D1*
X14688Y8941D1*
X5176Y36695D2*
X5056Y36709D1*
X4937Y36747D1*
X4829Y36809D1*
X4734Y36890D1*
X4657Y36988D1*
X4601Y37100D1*
X4568Y37220D1*
X4565Y37127D1*
Y36147D1*
X4617Y36327D1*
X4679Y36435D1*
X4762Y36528D1*
X4862Y36603D1*
X4974Y36657D1*
X5095Y36688D1*
X5220Y36695D1*
X5176Y35435D2*
X5056Y35449D1*
X4937Y35488D1*
X4829Y35549D1*
X4734Y35630D1*
X4657Y35728D1*
X4601Y35840D1*
X4568Y35960D1*
X4565Y35877D1*
Y34889D1*
X4617Y35067D1*
X4679Y35175D1*
X4762Y35268D1*
X4862Y35343D1*
X4974Y35397D1*
X5095Y35428D1*
X5220Y35435D1*
X8789Y6130D2*
X8701Y6237D1*
X8662Y6348D1*
X8658Y6775D1*
Y6990D1*
X8681Y7112D1*
X8756Y7227D1*
X8855Y7326D1*
X8929Y7381D1*
X9039Y7420D1*
X9288Y7424D1*
X9426Y7394D1*
X9684Y7424D1*
X9808Y7411D1*
X9942Y7358D1*
X9989Y7384D1*
X10109Y7418D1*
X10234Y7422D1*
X10356Y7397D1*
X10469Y7345D1*
X10567Y7267D1*
X10644Y7169D1*
X10696Y7056D1*
X10720Y6934D1*
X10722Y6498D1*
X10707Y6374D1*
X10664Y6257D1*
X10595Y6153D1*
X10504Y6069D1*
X10395Y6007D1*
X10275Y5973D1*
X10150Y5968D1*
X10028Y5992D1*
X9940Y6029D1*
X9775Y5973D1*
X9650Y5968D1*
X9528Y5992D1*
X9468Y6019D1*
X9341Y5970D1*
X9092Y5966D1*
X8969Y5989D1*
X8855Y6064D1*
X8789Y6130D1*
X45815Y9560D2*
X45757Y9491D1*
X45660Y9413D1*
X45549Y9355D1*
X45429Y9320D1*
X45305Y9310D1*
X45181Y9324D1*
X45062Y9363D1*
X44954Y9424D1*
X44859Y9505D1*
X44782Y9603D1*
X44726Y9715D1*
X44693Y9835D1*
X44685Y9960D1*
X44701Y10084D1*
X44742Y10202D1*
X44804Y10310D1*
X44887Y10403D1*
X44987Y10478D1*
X45099Y10532D1*
X45220Y10563D1*
X45345Y10570D1*
X45468Y10551D1*
X45586Y10509D1*
X45693Y10445D1*
X45785Y10360D1*
X45815Y10319D1*
X45887Y10403D1*
X45987Y10478D1*
X46099Y10532D1*
X46220Y10563D1*
X46345Y10570D1*
X46468Y10551D1*
X46586Y10509D1*
X46693Y10445D1*
X46785Y10360D1*
X46815Y10319D1*
X46887Y10403D1*
X46987Y10478D1*
X47099Y10532D1*
X47220Y10563D1*
X47345Y10570D1*
X47468Y10551D1*
X47586Y10509D1*
X47693Y10445D1*
X47785Y10360D1*
X47815Y10319D1*
X47887Y10403D1*
X47987Y10478D1*
X48099Y10532D1*
X48220Y10563D1*
X48345Y10570D1*
X48468Y10551D1*
X48586Y10509D1*
X48693Y10445D1*
X48785Y10360D1*
X48815Y10319D1*
X48887Y10403D1*
X48987Y10478D1*
X49099Y10532D1*
X49220Y10563D1*
X49345Y10570D1*
X49468Y10551D1*
X49586Y10509D1*
X49693Y10445D1*
X49785Y10360D1*
X49815Y10319D1*
X49887Y10403D1*
X49987Y10478D1*
X50099Y10532D1*
X50220Y10563D1*
X50345Y10570D1*
X50468Y10551D1*
X50586Y10509D1*
X50693Y10445D1*
X50785Y10360D1*
X50815Y10319D1*
X50887Y10403D1*
X50987Y10478D1*
X51099Y10532D1*
X51220Y10563D1*
X51345Y10570D1*
X51468Y10551D1*
X51586Y10509D1*
X51693Y10445D1*
X51785Y10360D1*
X51815Y10319D1*
X51887Y10403D1*
X51987Y10478D1*
X52099Y10532D1*
X52220Y10563D1*
X52345Y10570D1*
X52468Y10551D1*
X52586Y10509D1*
X52693Y10445D1*
X52785Y10360D1*
X52858Y10260D1*
X52911Y10146D1*
X52940Y10025D1*
X52945Y9940D1*
X52933Y9816D1*
X52896Y9697D1*
X52837Y9587D1*
X52757Y9491D1*
X52660Y9413D1*
X52549Y9355D1*
X52429Y9320D1*
X52305Y9310D1*
X52181Y9324D1*
X52062Y9363D1*
X51954Y9424D1*
X51859Y9505D1*
X51818Y9557D1*
X51757Y9491D1*
X51660Y9413D1*
X51549Y9355D1*
X51429Y9320D1*
X51305Y9310D1*
X51181Y9324D1*
X51062Y9363D1*
X50954Y9424D1*
X50859Y9505D1*
X50818Y9557D1*
X50757Y9491D1*
X50660Y9413D1*
X50549Y9355D1*
X50429Y9320D1*
X50305Y9310D1*
X50181Y9324D1*
X50062Y9363D1*
X49954Y9424D1*
X49859Y9505D1*
X49818Y9557D1*
X49757Y9491D1*
X49660Y9413D1*
X49549Y9355D1*
X49429Y9320D1*
X49305Y9310D1*
X49181Y9324D1*
X49062Y9363D1*
X48954Y9424D1*
X48859Y9505D1*
X48818Y9557D1*
X48757Y9491D1*
X48660Y9413D1*
X48549Y9355D1*
X48429Y9320D1*
X48305Y9310D1*
X48181Y9324D1*
X48062Y9363D1*
X47954Y9424D1*
X47859Y9505D1*
X47818Y9557D1*
X47757Y9491D1*
X47660Y9413D1*
X47549Y9355D1*
X47429Y9320D1*
X47305Y9310D1*
X47181Y9324D1*
X47062Y9363D1*
X46954Y9424D1*
X46859Y9505D1*
X46818Y9557D1*
X46757Y9491D1*
X46660Y9413D1*
X46549Y9355D1*
X46429Y9320D1*
X46305Y9310D1*
X46181Y9324D1*
X46062Y9363D1*
X45954Y9424D1*
X45859Y9505D1*
X45818Y9557D1*
X49558Y26316D2*
X49521Y26197D1*
X49462Y26087D1*
X49382Y25991D1*
X49318Y25939D1*
X49410Y25860D1*
X49483Y25760D1*
X49536Y25646D1*
X49565Y25525D1*
X49570Y25440D1*
X49558Y25316D1*
X49521Y25197D1*
X49462Y25087D1*
X49382Y24991D1*
X49318Y24939D1*
X49410Y24860D1*
X49483Y24760D1*
X49536Y24646D1*
X49565Y24525D1*
X49570Y24440D1*
X49558Y24316D1*
X49521Y24197D1*
X49462Y24087D1*
X49382Y23991D1*
X49318Y23939D1*
X49410Y23860D1*
X49483Y23760D1*
X49536Y23646D1*
X49565Y23525D1*
X49570Y23440D1*
X49558Y23316D1*
X49521Y23197D1*
X49462Y23087D1*
X49382Y22991D1*
X49318Y22939D1*
X49410Y22860D1*
X49483Y22760D1*
X49536Y22646D1*
X49565Y22525D1*
X49570Y22440D1*
X49565Y22340D1*
X50210D1*
X50305Y22408D1*
X50421Y22455D1*
X50544Y22475D1*
X50668Y22465D1*
X50787Y22427D1*
X50894Y22362D1*
X50982Y22275D1*
X51049Y22169D1*
X51088Y22051D1*
X51100Y21940D1*
X51085Y21816D1*
X51043Y21699D1*
X50974Y21595D1*
X50883Y21510D1*
X50775Y21448D1*
X50655Y21413D1*
X50530Y21406D1*
X50408Y21429D1*
X50294Y21479D1*
X50216Y21538D1*
X49561Y21540D1*
X49570Y21440D1*
X49558Y21316D1*
X49521Y21197D1*
X49462Y21087D1*
X49382Y20991D1*
X49318Y20939D1*
X49410Y20860D1*
X49483Y20760D1*
X49536Y20646D1*
X49565Y20525D1*
X49570Y20440D1*
X49558Y20316D1*
X49521Y20197D1*
X49462Y20087D1*
X49382Y19991D1*
X49285Y19913D1*
X49174Y19855D1*
X49054Y19820D1*
X48930Y19810D1*
X48806Y19824D1*
X48687Y19863D1*
X48579Y19924D1*
X48484Y20005D1*
X48407Y20103D1*
X48351Y20215D1*
X48318Y20335D1*
X48310Y20460D1*
X48326Y20584D1*
X48367Y20702D1*
X48429Y20810D1*
X48512Y20903D1*
X48559Y20938D1*
X48484Y21005D1*
X48407Y21103D1*
X48351Y21215D1*
X48318Y21335D1*
X48311Y21464D1*
X48155Y21413D1*
X48030Y21406D1*
X47908Y21429D1*
X47794Y21479D1*
X47694Y21554D1*
X47615Y21651D1*
X47560Y21763D1*
X47533Y21884D1*
X47534Y22009D1*
X47565Y22130D1*
X47622Y22241D1*
X47704Y22335D1*
X47805Y22408D1*
X47921Y22455D1*
X48044Y22475D1*
X48168Y22465D1*
X48310Y22413D1*
X48326Y22584D1*
X48367Y22702D1*
X48429Y22810D1*
X48512Y22903D1*
X48559Y22938D1*
X48484Y23005D1*
X48407Y23103D1*
X48351Y23215D1*
X48318Y23335D1*
X48310Y23460D1*
X48326Y23584D1*
X48367Y23702D1*
X48429Y23810D1*
X48512Y23903D1*
X48559Y23938D1*
X48484Y24005D1*
X48407Y24103D1*
X48351Y24215D1*
X48318Y24335D1*
X48310Y24460D1*
X48326Y24584D1*
X48367Y24702D1*
X48429Y24810D1*
X48512Y24903D1*
X48559Y24938D1*
X48484Y25005D1*
X48407Y25103D1*
X48351Y25215D1*
X48318Y25335D1*
X48310Y25460D1*
X48326Y25584D1*
X48367Y25702D1*
X48429Y25810D1*
X48512Y25903D1*
X48559Y25938D1*
X48484Y26005D1*
X48407Y26103D1*
X48351Y26215D1*
X48318Y26335D1*
X48310Y26460D1*
X48326Y26584D1*
X48367Y26702D1*
X48429Y26810D1*
X48512Y26903D1*
X48612Y26978D1*
X48724Y27032D1*
X48845Y27063D1*
X48970Y27070D1*
X49093Y27051D1*
X49211Y27009D1*
X49318Y26945D1*
X49410Y26860D1*
X49483Y26760D1*
X49536Y26646D1*
X49565Y26525D1*
X49570Y26440D1*
X49558Y26316D1*
X47196Y21070D2*
X47320D1*
Y19810D1*
X46060D1*
Y20329D1*
X45757Y20632D1*
X45683Y20732D1*
X45646Y20825D1*
X45630Y20940D1*
Y22815D1*
X45648Y22938D1*
X45687Y23030D1*
X45757Y23123D1*
X46058Y23424D1*
X46076Y23584D1*
X46117Y23702D1*
X46179Y23810D1*
X46262Y23903D1*
X46309Y23938D1*
X46234Y24005D1*
X46157Y24103D1*
X46101Y24215D1*
X46068Y24335D1*
X46060Y24460D1*
X46076Y24584D1*
X46117Y24702D1*
X46179Y24810D1*
X46262Y24903D1*
X46309Y24938D1*
X46234Y25005D1*
X46157Y25103D1*
X46101Y25215D1*
X46068Y25335D1*
X46060Y25460D1*
X46076Y25584D1*
X46117Y25702D1*
X46179Y25810D1*
X46262Y25903D1*
X46309Y25938D1*
X46217Y26023D1*
X46144Y26125D1*
X46093Y26239D1*
X46065Y26360D1*
X46061Y26485D1*
X46082Y26608D1*
X46127Y26724D1*
X46195Y26830D1*
X46281Y26920D1*
X46383Y26991D1*
X46498Y27040D1*
X46620Y27066D1*
X46745Y27068D1*
X46867Y27045D1*
X46983Y26998D1*
X47087Y26929D1*
X47176Y26841D1*
X47245Y26738D1*
X47293Y26622D1*
X47317Y26500D1*
X47316Y26365D1*
X47289Y26243D1*
X47238Y26129D1*
X47166Y26027D1*
X47074Y25940D1*
X47160Y25860D1*
X47233Y25760D1*
X47286Y25646D1*
X47315Y25525D1*
X47320Y25440D1*
X47308Y25316D1*
X47271Y25197D1*
X47212Y25087D1*
X47132Y24991D1*
X47068Y24939D1*
X47160Y24860D1*
X47233Y24760D1*
X47286Y24646D1*
X47315Y24525D1*
X47320Y24440D1*
X47308Y24316D1*
X47271Y24197D1*
X47212Y24087D1*
X47132Y23991D1*
X47068Y23939D1*
X47160Y23860D1*
X47233Y23760D1*
X47286Y23646D1*
X47315Y23525D1*
X47320Y23440D1*
X47308Y23316D1*
X47271Y23197D1*
X47212Y23087D1*
X47132Y22991D1*
X47068Y22939D1*
X47160Y22860D1*
X47233Y22760D1*
X47286Y22646D1*
X47315Y22525D1*
X47320Y22440D1*
X47308Y22316D1*
X47271Y22197D1*
X47212Y22087D1*
X47132Y21991D1*
X47068Y21939D1*
X47160Y21860D1*
X47233Y21760D1*
X47286Y21646D1*
X47315Y21525D1*
X47320Y21440D1*
X47308Y21316D1*
X47271Y21197D1*
X47200Y21072D1*
X12254Y32511D2*
X13389D1*
Y31251D1*
X12129D1*
Y32511D1*
X12254D1*
X13389Y37856D2*
X13371Y37732D1*
X13330Y37615D1*
X13266Y37507D1*
X13183Y37415D1*
X13083Y37340D1*
X12970Y37287D1*
X12849Y37257D1*
X12724Y37252D1*
X12601Y37271D1*
X12484Y37314D1*
X12377Y37379D1*
X12286Y37464D1*
X12213Y37566D1*
X12162Y37679D1*
X12134Y37801D1*
X12130Y37926D1*
X12151Y38049D1*
X12196Y38165D1*
X12263Y38270D1*
X12350Y38360D1*
X12452Y38432D1*
X12567Y38481D1*
X12689Y38507D1*
X12814Y38509D1*
X12936Y38486D1*
X13052Y38439D1*
X13156Y38370D1*
X13245Y38282D1*
X13314Y38179D1*
X13362Y38063D1*
X13386Y37941D1*
X13389Y37856D1*
X10377Y37757D2*
X10340Y37637D1*
X10281Y37528D1*
X10201Y37432D1*
X10104Y37353D1*
X9993Y37296D1*
X9873Y37261D1*
X9749Y37251D1*
X9625Y37265D1*
X9506Y37304D1*
X9397Y37365D1*
X9303Y37446D1*
X9226Y37544D1*
X9170Y37656D1*
X9137Y37776D1*
X9129Y37901D1*
X9145Y38025D1*
X9186Y38143D1*
X9248Y38251D1*
X9331Y38344D1*
X9431Y38419D1*
X9543Y38473D1*
X9664Y38504D1*
X9789Y38511D1*
X9912Y38492D1*
X10030Y38450D1*
X10137Y38386D1*
X10229Y38301D1*
X10302Y38201D1*
X10354Y38087D1*
X10383Y37966D1*
X10389Y37881D1*
X10377Y37757D1*
Y31757D2*
X10340Y31637D1*
X10281Y31528D1*
X10201Y31432D1*
X10104Y31353D1*
X9993Y31296D1*
X9873Y31261D1*
X9749Y31251D1*
X9625Y31265D1*
X9506Y31304D1*
X9397Y31365D1*
X9303Y31446D1*
X9226Y31544D1*
X9170Y31656D1*
X9137Y31776D1*
X9129Y31901D1*
X9145Y32025D1*
X9186Y32143D1*
X9248Y32251D1*
X9331Y32344D1*
X9431Y32419D1*
X9543Y32473D1*
X9664Y32504D1*
X9789Y32511D1*
X9912Y32492D1*
X10030Y32450D1*
X10137Y32386D1*
X10229Y32301D1*
X10302Y32201D1*
X10354Y32087D1*
X10383Y31966D1*
X10389Y31881D1*
X10377Y31757D1*
X7560Y23070D2*
X8695D1*
Y21810D1*
X7435D1*
Y23070D1*
X7560D1*
X14695Y22415D2*
X14678Y22291D1*
X14636Y22174D1*
X14573Y22066D1*
X14489Y21974D1*
X14389Y21899D1*
X14276Y21846D1*
X14155Y21816D1*
X14030Y21811D1*
X13907Y21830D1*
X13790Y21873D1*
X13683Y21938D1*
X13592Y22023D1*
X13519Y22125D1*
X13468Y22239D1*
X13440Y22360D1*
X13436Y22485D1*
X13457Y22608D1*
X13502Y22724D1*
X13570Y22830D1*
X13656Y22920D1*
X13758Y22991D1*
X13873Y23040D1*
X13995Y23066D1*
X14120Y23068D1*
X14242Y23045D1*
X14358Y22998D1*
X14462Y22929D1*
X14551Y22841D1*
X14620Y22738D1*
X14668Y22622D1*
X14692Y22500D1*
X14695Y22415D1*
X8520Y25006D2*
X8410Y24913D1*
X8299Y24855D1*
X8179Y24820D1*
X8055Y24810D1*
X7931Y24824D1*
X7812Y24863D1*
X7704Y24924D1*
X7609Y25005D1*
X7532Y25103D1*
X7476Y25215D1*
X7443Y25335D1*
X7435Y25460D1*
X7451Y25584D1*
X7492Y25702D1*
X7554Y25810D1*
X7637Y25903D1*
X7737Y25978D1*
X7849Y26032D1*
X7970Y26063D1*
X8095Y26070D1*
X8218Y26051D1*
X8336Y26009D1*
X8443Y25945D1*
X8520Y25874D1*
X10006Y25875D1*
X10537Y26402D1*
X10565Y26505D1*
X10622Y26616D1*
X10704Y26710D1*
X10805Y26783D1*
X10921Y26830D1*
X11044Y26850D1*
X11168Y26840D1*
X11287Y26802D1*
X11394Y26737D1*
X11482Y26650D1*
X11549Y26544D1*
X11588Y26426D1*
X11600Y26315D1*
X11585Y26191D1*
X11543Y26074D1*
X11474Y25970D1*
X11383Y25885D1*
X11275Y25823D1*
X11151Y25787D1*
X10498Y25132D1*
X10398Y25058D1*
X10305Y25021D1*
X10190Y25005D1*
X8522D1*
X43565Y12089D2*
D13*
Y10791D1*
X42916Y11440D2*
X44214D1*
X44815Y42589D2*
Y41940D1*
X44166D2*
X45464D1*
X29065Y23464D2*
Y22166D1*
X28416Y22815D2*
X29065D1*
X38253Y30589D2*
Y29291D1*
X37603Y29940D2*
X38902D1*
X15134Y33280D2*
Y31981D1*
X14484Y32631D2*
X15783D1*
X45690Y18714D2*
Y17416D1*
X45041Y18065D2*
X46339D1*
X59690Y29940D2*
Y29291D1*
Y29940D2*
X60339D1*
X26509Y36905D2*
Y35606D1*
X25859Y36256D2*
X27158D1*
X50940Y18714D2*
Y17416D1*
X50291Y18065D2*
X51589D1*
X56190Y10589D2*
Y9291D1*
X55541Y9940D2*
X56839D1*
X22440Y12195D2*
Y10935D1*
X21810Y11565D2*
X22440D1*
X21440Y34945D2*
Y34315D1*
X20810D2*
X22070D1*
X26794Y22315D2*
X28054D1*
X26794Y23315D2*
X28054D1*
X59840Y34170D2*
Y32910D1*
Y33540D2*
X60470D1*
X30440Y40570D2*
Y39940D1*
X29810D2*
X31070D1*
X53810Y12815D2*
Y12185D1*
X53180Y12815D2*
X54440D1*
X16379Y32131D2*
X17009D1*
X45940Y7440D2*
X46570D1*
X17810Y6671D2*
Y6022D1*
X17161Y6671D2*
X17810D1*
X25121Y41548D2*
Y40214D1*
Y40881D2*
X25788D1*
X15320Y6848D2*
Y5510D1*
X14650Y6179D2*
X15989D1*
X10190Y7423D2*
Y5967D1*
Y6695D2*
X10721D1*
X45315Y13570D2*
Y12310D1*
X44685Y12940D2*
X45315D1*
X51940Y27070D2*
Y26440D1*
X51310D2*
X52570D1*
X46690Y27070D2*
Y26440D1*
X46060D2*
X47320D1*
X14570Y13195D2*
Y12565D1*
X12759Y38511D2*
Y37251D1*
X12129Y37881D2*
X13389D1*
X14065Y23070D2*
Y21810D1*
X13435Y22440D2*
X14695D1*
D20*
X9940Y13690D3*
D21*
Y14690D3*
D20*
X43565Y11440D3*
D21*
Y13440D3*
D20*
X11565Y11690D3*
D21*
X10565D3*
D20*
X44815Y41940D3*
D21*
X46815D3*
D20*
X29065Y22815D3*
D21*
Y20815D3*
D20*
X38253Y29940D3*
D21*
Y27940D3*
D20*
X22259Y38256D3*
D21*
Y36256D3*
D20*
X15134Y32631D3*
D21*
Y30631D3*
D20*
X45690Y18065D3*
D21*
X43690D3*
D20*
X59690Y29940D3*
D21*
X57690D3*
D20*
X24384Y38256D3*
D21*
Y36256D3*
D20*
X16009Y28756D3*
D21*
X18009D3*
D20*
X26509Y38256D3*
D21*
Y36256D3*
D20*
X50940Y18065D3*
D21*
X48940D3*
D20*
X56190Y9940D3*
D21*
X54190D3*
D22*
X20065Y22565D3*
D23*
X15715D3*
D22*
X7940Y11690D3*
D23*
Y16040D3*
D24*
X22440Y11565D3*
D25*
X23440D3*
X24440D3*
X25440D3*
X26440D3*
X27440D3*
X28440D3*
X29440D3*
X30440D3*
X31440D3*
X32440D3*
X33440D3*
X34440D3*
X35440D3*
X36440D3*
X37440D3*
X38440D3*
X39440D3*
X40440D3*
X41440D3*
Y17565D3*
X40440D3*
X39440D3*
X38440D3*
X37440D3*
X36440D3*
X35440D3*
X34440D3*
X33440D3*
X32440D3*
X31440D3*
X30440D3*
X29440D3*
X28440D3*
X27440D3*
X26440D3*
X25440D3*
X24440D3*
X23440D3*
X22440D3*
D24*
X21440Y34315D3*
D25*
Y33315D3*
Y32315D3*
Y31315D3*
Y30315D3*
Y29315D3*
Y28315D3*
Y27315D3*
Y26315D3*
Y25315D3*
Y24315D3*
Y23315D3*
Y22315D3*
Y21315D3*
X27424D3*
Y22315D3*
Y23315D3*
Y24315D3*
Y25315D3*
Y26315D3*
Y27315D3*
Y28315D3*
Y29315D3*
Y30315D3*
Y31315D3*
Y32315D3*
Y33315D3*
Y34315D3*
D24*
X46840Y33540D3*
D25*
X47840D3*
X48840D3*
X49840D3*
X50840D3*
X51840D3*
X52840D3*
X53840D3*
X54840D3*
X55840D3*
X56840D3*
X57840D3*
X58840D3*
X59840D3*
Y39540D3*
X58840D3*
X57840D3*
X56840D3*
X55840D3*
X54840D3*
X53840D3*
X52840D3*
X51840D3*
X50840D3*
X49840D3*
X48840D3*
X47840D3*
X46840D3*
D24*
X36440Y20940D3*
D25*
Y21940D3*
Y22940D3*
Y23940D3*
Y24940D3*
Y25940D3*
Y26940D3*
Y27940D3*
Y28940D3*
Y29940D3*
Y30940D3*
Y31940D3*
Y32940D3*
Y33940D3*
Y34940D3*
Y35940D3*
Y36940D3*
Y37940D3*
Y38940D3*
Y39940D3*
X30440D3*
Y38940D3*
Y37940D3*
Y36940D3*
Y35940D3*
Y34940D3*
Y33940D3*
Y32940D3*
Y31940D3*
Y30940D3*
Y29940D3*
Y28940D3*
Y27940D3*
Y26940D3*
Y25940D3*
Y24940D3*
Y23940D3*
Y22940D3*
Y21940D3*
Y20940D3*
D24*
X53810Y25815D3*
D25*
Y24815D3*
Y23815D3*
Y22815D3*
Y21815D3*
Y20815D3*
Y19815D3*
Y18815D3*
Y17815D3*
Y16815D3*
Y15815D3*
Y14815D3*
Y13815D3*
Y12815D3*
X59810D3*
Y13815D3*
Y14815D3*
Y15815D3*
Y16815D3*
Y17815D3*
Y18815D3*
Y19815D3*
Y20815D3*
Y21815D3*
Y22815D3*
Y23815D3*
Y24815D3*
Y25815D3*
D24*
X20009Y31131D3*
D25*
Y32131D3*
Y33131D3*
Y34131D3*
Y35131D3*
Y36131D3*
Y37131D3*
Y38131D3*
X17009D3*
Y37131D3*
Y36131D3*
Y35131D3*
Y34131D3*
Y33131D3*
Y32131D3*
Y31131D3*
D24*
X21940Y6440D3*
D25*
Y7440D3*
X22940Y6440D3*
Y7440D3*
X23940Y6440D3*
Y7440D3*
X24940Y6440D3*
Y7440D3*
X25940Y6440D3*
Y7440D3*
X26940Y6440D3*
Y7440D3*
X27940Y6440D3*
Y7440D3*
X28940Y6440D3*
Y7440D3*
X29940Y6440D3*
Y7440D3*
X30940Y6440D3*
Y7440D3*
X31940Y6440D3*
Y7440D3*
X32940Y6440D3*
Y7440D3*
X33940Y6440D3*
Y7440D3*
X34940Y6440D3*
Y7440D3*
X35940Y6440D3*
Y7440D3*
X36940Y6440D3*
Y7440D3*
X37940Y6440D3*
Y7440D3*
X38940Y6440D3*
Y7440D3*
X39940Y6440D3*
Y7440D3*
X40940Y6440D3*
Y7440D3*
X41940Y6440D3*
Y7440D3*
X42940Y6440D3*
Y7440D3*
X43940Y6440D3*
Y7440D3*
X44940Y6440D3*
Y7440D3*
X45940Y6440D3*
Y7440D3*
D21*
X17810Y7459D3*
D26*
Y6671D3*
D27*
X20759Y40881D3*
D28*
X21849D3*
X22940D3*
X24031D3*
X25121D3*
X21304Y41999D3*
X22395D3*
X23485D3*
X24576D3*
D29*
X18021Y41440D3*
X27859D3*
D30*
X7936Y17945D3*
X9904D3*
D31*
X15815Y25565D3*
D32*
X19815D3*
D31*
X11440Y19940D3*
D32*
X15440D3*
D31*
X42065Y20815D3*
D32*
X38065D3*
D31*
Y21940D3*
D32*
Y25940D3*
D31*
X10065Y9065D3*
D32*
X14065D3*
D31*
X11440Y18065D3*
D32*
X15440D3*
D33*
X15320Y6179D3*
D34*
Y7951D3*
X12760D3*
Y6179D3*
D25*
X5190Y37325D3*
Y36065D3*
Y34805D3*
G36*
X8993Y6400D2*
X9092Y6301D1*
X9288D1*
X9387Y6400D1*
Y6990D1*
X9288Y7089D1*
X9092D1*
X8993Y6990D1*
Y6400D1*
G37*
D35*
X9690Y6695D3*
X10190D3*
D24*
X52315Y12940D3*
D25*
X51315D3*
X50315D3*
X49315D3*
X48315D3*
X47315D3*
X46315D3*
X45315D3*
Y9940D3*
X46315D3*
X47315D3*
X48315D3*
X49315D3*
X50315D3*
X51315D3*
X52315D3*
D24*
X51940Y20440D3*
D25*
Y21440D3*
Y22440D3*
Y23440D3*
Y24440D3*
Y25440D3*
Y26440D3*
X48940D3*
Y25440D3*
Y24440D3*
Y23440D3*
Y22440D3*
Y21440D3*
Y20440D3*
D24*
X46690D3*
D25*
Y21440D3*
Y22440D3*
Y23440D3*
Y24440D3*
Y25440D3*
Y26440D3*
X43690D3*
Y25440D3*
Y24440D3*
Y23440D3*
Y22440D3*
Y21440D3*
Y20440D3*
D24*
X14570Y13195D3*
D25*
Y14195D3*
Y15195D3*
Y16195D3*
X11570D3*
Y15195D3*
Y14195D3*
Y13195D3*
D24*
X12759Y31881D3*
D25*
Y37881D3*
X9759D3*
Y31881D3*
D24*
X8065Y22440D3*
D25*
X14065D3*
Y25440D3*
X8065D3*
G36*
X17895Y14512D2*
X17796Y14413D1*
Y14217D1*
X17895Y14118D1*
X18485D1*
X18584Y14217D1*
Y14413D1*
X18485Y14512D1*
X17895D1*
G37*
D36*
X18190Y13815D3*
Y13315D3*
D31*
X15440Y9070D3*
D32*
Y13070D3*
M02*
