M48
INCH
T01C0.019
T02C0.0276
T03C0.0354
T04C0.0374
T05C0.038
T06C0.0394
T07C0.0429
T08C0.0472
T09C0.125
T10C0.1283
%
T01
X+057315Y+022315
X+057690Y+024190
X+050565Y+021940
X+048065Y+021940
X+041315Y+024940
X+040940Y+024315
X+040440Y+023065
X+039690Y+023690
X+037940Y+023690
X+037940Y+023065
X+037940Y+024315
X+037190Y+026440
X+039815Y+026440
X+041315Y+028440
X+035815Y+021940
X+034190Y+022440
X+033440Y+023940
X+030940Y+023440
X+033315Y+020815
X+031940Y+017065
X+031940Y+014690
X+030315Y+015065
X+029440Y+014690
X+028940Y+015065
X+025940Y+015440
X+025940Y+013815
X+022440Y+014315
X+022065Y+012440
X+020940Y+015815
X+021065Y+016315
X+025940Y+018875
X+027384Y+020318
X+023065Y+023065
X+019440Y+028815
X+023065Y+030690
X+033815Y+032565
X+035065Y+040065
X+048840Y+040165
X+057690Y+036440
X+060815Y+032690
X+060940Y+032190
X+057315Y+010190
X+057690Y+009815
X+047440Y+008065
X+042190Y+008440
X+037940Y+005690
X+031940Y+008440
X+030440Y+005940
X+012440Y+020940
X+011065Y+026315
T02
X+009190Y+006695
X+009690Y+006695
X+010190Y+006695
X+018190Y+013315
X+018190Y+013815
X+018190Y+014315
T03
X+043565Y+011440
X+043565Y+013440
X+045315Y+012940
X+046315Y+012940
X+047315Y+012940
X+048315Y+012940
X+049315Y+012940
X+050315Y+012940
X+051315Y+012940
X+052315Y+012940
X+053810Y+012815
X+053810Y+013815
X+053810Y+014815
X+053810Y+015815
X+053810Y+016815
X+053810Y+017815
X+053810Y+018815
X+053810Y+019815
X+053810Y+020815
X+053810Y+021815
X+053810Y+022815
X+053810Y+023815
X+053810Y+024815
X+053810Y+025815
X+051940Y+025440
X+051940Y+026440
X+051940Y+024440
X+051940Y+023440
X+051940Y+022440
X+051940Y+021440
X+051940Y+020440
X+050940Y+018065
X+048940Y+018065
X+048940Y+020440
X+048940Y+021440
X+048940Y+022440
X+048940Y+023440
X+048940Y+024440
X+048940Y+025440
X+048940Y+026440
X+046690Y+026440
X+046690Y+025440
X+046690Y+024440
X+046690Y+023440
X+046690Y+022440
X+046690Y+021440
X+046690Y+020440
X+045690Y+018065
X+043690Y+018065
X+041440Y+017565
X+040440Y+017565
X+039440Y+017565
X+038440Y+017565
X+037440Y+017565
X+036440Y+017565
X+035440Y+017565
X+034440Y+017565
X+033440Y+017565
X+032440Y+017565
X+031440Y+017565
X+030440Y+017565
X+029440Y+017565
X+028440Y+017565
X+027440Y+017565
X+026440Y+017565
X+025440Y+017565
X+024440Y+017565
X+023440Y+017565
X+022440Y+017565
X+021440Y+021315
X+021440Y+022315
X+021440Y+023315
X+021440Y+024315
X+021440Y+025315
X+021440Y+026315
X+021440Y+027315
X+021440Y+028315
X+021440Y+029315
X+021440Y+030315
X+021440Y+031315
X+021440Y+032315
X+021440Y+033315
X+021440Y+034315
X+020009Y+034131
X+020009Y+033131
X+020009Y+032131
X+020009Y+031131
X+017009Y+031131
X+017009Y+032131
X+017009Y+033131
X+017009Y+034131
X+017009Y+035131
X+017009Y+036131
X+017009Y+037131
X+017009Y+038131
X+020009Y+038131
X+020009Y+037131
X+020009Y+036131
X+020009Y+035131
X+022259Y+036256
X+022259Y+038256
X+024384Y+038256
X+024384Y+036256
X+026509Y+036256
X+026509Y+038256
X+030440Y+037940
X+030440Y+038940
X+030440Y+039940
X+030440Y+036940
X+030440Y+035940
X+030440Y+034940
X+030440Y+033940
X+030440Y+032940
X+030440Y+031940
X+030440Y+030940
X+030440Y+029940
X+030440Y+028940
X+030440Y+027940
X+030440Y+026940
X+030440Y+025940
X+030440Y+024940
X+030440Y+023940
X+030440Y+022940
X+030440Y+021940
X+030440Y+020940
X+029065Y+020815
X+027424Y+021315
X+027424Y+022315
X+027424Y+023315
X+027424Y+024315
X+027424Y+025315
X+027424Y+026315
X+027424Y+027315
X+027424Y+028315
X+027424Y+029315
X+027424Y+030315
X+027424Y+031315
X+027424Y+032315
X+027424Y+033315
X+027424Y+034315
X+036440Y+033940
X+036440Y+032940
X+036440Y+031940
X+036440Y+030940
X+036440Y+029940
X+036440Y+028940
X+036440Y+027940
X+036440Y+026940
X+036440Y+025940
X+036440Y+024940
X+036440Y+023940
X+036440Y+022940
X+036440Y+021940
X+036440Y+020940
X+038253Y+027940
X+038253Y+029940
X+036440Y+034940
X+036440Y+035940
X+036440Y+036940
X+036440Y+037940
X+036440Y+038940
X+036440Y+039940
X+044815Y+041940
X+046815Y+041940
X+046840Y+039540
X+047840Y+039540
X+048840Y+039540
X+049840Y+039540
X+050840Y+039540
X+051840Y+039540
X+052840Y+039540
X+053840Y+039540
X+054840Y+039540
X+055840Y+039540
X+056840Y+039540
X+057840Y+039540
X+058840Y+039540
X+059840Y+039540
X+059840Y+033540
X+058840Y+033540
X+057840Y+033540
X+056840Y+033540
X+055840Y+033540
X+054840Y+033540
X+053840Y+033540
X+052840Y+033540
X+051840Y+033540
X+050840Y+033540
X+049840Y+033540
X+048840Y+033540
X+047840Y+033540
X+046840Y+033540
X+043690Y+026440
X+043690Y+025440
X+043690Y+024440
X+043690Y+023440
X+043690Y+022440
X+043690Y+021440
X+043690Y+020440
X+041440Y+011565
X+040440Y+011565
X+039440Y+011565
X+038440Y+011565
X+037440Y+011565
X+036440Y+011565
X+035440Y+011565
X+034440Y+011565
X+033440Y+011565
X+032440Y+011565
X+031440Y+011565
X+030440Y+011565
X+029440Y+011565
X+028440Y+011565
X+027440Y+011565
X+026440Y+011565
X+025440Y+011565
X+024440Y+011565
X+023440Y+011565
X+022440Y+011565
X+021940Y+007440
X+021940Y+006440
X+022940Y+006440
X+023940Y+006440
X+024940Y+006440
X+025940Y+006440
X+026940Y+006440
X+026940Y+007440
X+025940Y+007440
X+024940Y+007440
X+023940Y+007440
X+022940Y+007440
X+027940Y+007440
X+028940Y+007440
X+029940Y+007440
X+030940Y+007440
X+031940Y+007440
X+031940Y+006440
X+030940Y+006440
X+029940Y+006440
X+028940Y+006440
X+027940Y+006440
X+032940Y+006440
X+033940Y+006440
X+034940Y+006440
X+034940Y+007440
X+033940Y+007440
X+032940Y+007440
X+035940Y+007440
X+036940Y+007440
X+037940Y+007440
X+038940Y+007440
X+039940Y+007440
X+040940Y+007440
X+040940Y+006440
X+039940Y+006440
X+038940Y+006440
X+037940Y+006440
X+036940Y+006440
X+035940Y+006440
X+041940Y+006440
X+042940Y+006440
X+043940Y+006440
X+044940Y+006440
X+044940Y+007440
X+043940Y+007440
X+042940Y+007440
X+041940Y+007440
X+045940Y+007440
X+045940Y+006440
X+046315Y+009940
X+047315Y+009940
X+048315Y+009940
X+049315Y+009940
X+050315Y+009940
X+051315Y+009940
X+052315Y+009940
X+054190Y+009940
X+056190Y+009940
X+059810Y+012815
X+059810Y+013815
X+059810Y+014815
X+059810Y+015815
X+059810Y+016815
X+059810Y+017815
X+059810Y+018815
X+059810Y+019815
X+059810Y+020815
X+059810Y+021815
X+059810Y+022815
X+059810Y+023815
X+059810Y+024815
X+059810Y+025815
X+059690Y+029940
X+057690Y+029940
X+045315Y+009940
X+029065Y+022815
X+018009Y+028756
X+016009Y+028756
X+015134Y+030631
X+015134Y+032631
X+012759Y+031881
X+009759Y+031881
X+005190Y+034805
X+005190Y+036065
X+005190Y+037325
X+009759Y+037881
X+012759Y+037881
X+014065Y+025440
X+014065Y+022440
X+008065Y+022440
X+008065Y+025440
X+011570Y+016195
X+011570Y+015195
X+011570Y+014195
X+011570Y+013195
X+014570Y+013195
X+014570Y+014195
X+014570Y+015195
X+014570Y+016195
T04
X+007936Y+017945
X+009904Y+017945
T05
X+015815Y+025565
X+019815Y+025565
X+015440Y+019940
X+015440Y+018065
X+011440Y+018065
X+011440Y+019940
X+015440Y+013070
X+015440Y+009070
X+014065Y+009065
X+010065Y+009065
X+038065Y+020815
X+038065Y+021940
X+038065Y+025940
X+042065Y+020815
T06
X+009940Y+013690
X+009940Y+014690
X+010565Y+011690
X+011565Y+011690
X+012760Y+007951
X+012760Y+006179
X+015320Y+006179
X+015320Y+007951
X+017810Y+007459
X+017810Y+006671
T07
X+020759Y+040881
X+021849Y+040881
X+022940Y+040881
X+024031Y+040881
X+025121Y+040881
X+024576Y+041999
X+023485Y+041999
X+022395Y+041999
X+021304Y+041999
T08
X+020065Y+022565
X+015715Y+022565
X+007940Y+016040
X+007940Y+011690
T09
X+005440Y+042440
X+005440Y+005440
X+062440Y+005440
X+062440Y+042440
T10
X+018021Y+041440
X+027859Y+041440
T00
M30
