G04 DipTrace 2.4.0.2*
%INTop.gbr*%
%MOIN*%
%ADD13C,0.013*%
%ADD14C,0.032*%
%ADD15C,0.02*%
%ADD19R,0.2205X0.1181*%
%ADD20C,0.063*%
%ADD21R,0.063X0.063*%
%ADD22R,0.0709X0.0709*%
%ADD23C,0.0709*%
%ADD24R,0.0591X0.0591*%
%ADD25C,0.0591*%
%ADD26C,0.063*%
%ADD27R,0.0665X0.0665*%
%ADD28C,0.0665*%
%ADD29C,0.1874*%
%ADD30C,0.065*%
%ADD31C,0.06*%
%ADD32C,0.06*%
%ADD33R,0.0669X0.0669*%
%ADD34C,0.0669*%
%ADD35O,0.0394X0.0787*%
%ADD36O,0.0787X0.0394*%
%ADD37C,0.04*%
%FSLAX44Y44*%
G04*
G70*
G90*
G75*
G01*
%LNTop*%
%LPD*%
X36440Y28940D2*
D13*
X38690D1*
X40815Y31065D1*
X53940D1*
X55815Y32940D1*
Y33515D1*
X55840Y33540D1*
X24440Y17565D2*
Y16940D1*
X24190Y16690D1*
X23190D1*
X19940Y13440D1*
Y9940D1*
X21440Y8440D1*
X22440D1*
X22704Y8176D1*
X25079D1*
X25815Y7440D1*
X25940D1*
X24440Y17565D2*
Y18190D1*
X21815Y20815D1*
X19440D1*
X18815Y21440D1*
Y22815D1*
X19315Y23315D1*
X20440D1*
X21440Y22315D1*
X36440Y29940D2*
X37068D1*
X37759Y30631D1*
X40006D1*
X40690Y31315D1*
X53190D1*
X54815Y32940D1*
Y33515D1*
X54840Y33540D1*
X25440Y17565D2*
Y16940D1*
X24940Y16440D1*
X23315D1*
X20190Y13315D1*
Y10065D1*
X21565Y8690D1*
X22565D1*
X22815Y8440D1*
X26065D1*
X26440Y8065D1*
Y6940D1*
X26940Y6440D1*
X25440Y17565D2*
Y18190D1*
X22315Y21315D1*
X21440D1*
X36440Y30940D2*
X39940D1*
X40565Y31565D1*
X52440D1*
X53815Y32940D1*
Y33540D1*
X53840D1*
X26440Y17565D2*
Y15315D1*
X26065Y14940D1*
X22190D1*
X20440Y13190D1*
Y10190D1*
X21690Y8940D1*
X22690D1*
X22940Y8690D1*
X26565D1*
X26940Y8315D1*
Y7440D1*
X36440Y31940D2*
Y31815D1*
X51690D1*
X52815Y32940D1*
Y33540D1*
X52840D1*
X27440Y17565D2*
Y15940D1*
X26190Y14690D1*
X22315D1*
X20690Y13065D1*
Y10315D1*
X21815Y9190D1*
X22815D1*
X23065Y8940D1*
X26690D1*
X27440Y8190D1*
Y6940D1*
X27940Y6440D1*
X36440Y32940D2*
Y33065D1*
X39440D1*
X40440Y32065D1*
X50940D1*
X51815Y32940D1*
Y33540D1*
X51840D1*
X36440Y33940D2*
X38940D1*
X40565Y32315D1*
X50190D1*
X50815Y32940D1*
Y33540D1*
X50840D1*
X36440Y34940D2*
X38315D1*
X40690Y32565D1*
X49440D1*
X49815Y32940D1*
Y33540D1*
X49840D1*
X36440Y35940D2*
X37690D1*
X40815Y32815D1*
X48690D1*
X48815Y32940D1*
Y33540D1*
X48840D1*
X60815Y32690D2*
Y40065D1*
X59940Y40940D1*
X50565D1*
X49815Y40190D1*
Y39565D1*
X49840Y39540D1*
X51940Y21440D2*
X52315D1*
X52690Y21065D1*
Y19065D1*
X53440Y18315D1*
X57690D1*
X58690Y17315D1*
X60190D1*
X60565Y17690D1*
Y22060D1*
X59810Y22815D1*
X51940Y22440D2*
X52065D1*
X53190Y21315D1*
Y20565D1*
X53440Y20315D1*
X57440D1*
X59440Y18315D1*
X60065D1*
X60315Y18565D1*
Y21310D1*
X59810Y21815D1*
X51940Y23440D2*
X52440Y22940D1*
Y22440D1*
X53565Y21315D1*
X57310D1*
X59810Y18815D1*
X51940Y24440D2*
X52440D1*
X53565Y23315D1*
X57310D1*
X59810Y20815D1*
X51940Y25440D2*
X52690D1*
X53315Y24815D1*
X53810D1*
X48840Y39540D2*
Y40165D1*
X60940Y32190D2*
X61190Y32440D1*
Y40315D1*
X60190Y41315D1*
X49990D1*
X48840Y40165D1*
X48940Y23440D2*
X49940D1*
X50815Y24315D1*
Y26315D1*
X51565Y27065D1*
X54565D1*
X57065Y24565D1*
X59060D1*
X59810Y23815D1*
X48940Y22440D2*
X49815D1*
X51190Y23815D1*
Y25440D1*
X51690Y25940D1*
X52690D1*
X52815Y25815D1*
X53810D1*
X33815Y32565D2*
Y26190D1*
X34565Y25440D1*
X36815D1*
X37940Y24315D1*
X40940D2*
Y23440D1*
X43440Y20940D1*
X46190D1*
X46690Y21440D1*
X50315Y9940D2*
Y10815D1*
X49565Y11565D1*
X47690D1*
X46815Y12440D1*
Y13190D1*
X46440Y13565D1*
X45190D1*
X44690Y13065D1*
Y10815D1*
X43815Y9940D1*
X41940D1*
X40940Y10940D1*
Y13190D1*
X40065Y14065D1*
X30690D1*
X27940Y16815D1*
Y18190D1*
X23065Y23065D1*
Y30690D2*
X21440Y32315D1*
X60082Y10141D2*
D14*
Y5957D1*
X58565Y4440D1*
X9690D1*
X7565Y6565D1*
Y9891D1*
X7815Y10141D1*
X20009Y31131D2*
D13*
X20509D1*
X20884Y31506D1*
Y34631D1*
X22509Y36256D1*
X22259D1*
X20009Y33131D2*
X20384D1*
X20634Y33381D1*
Y34756D1*
X21509Y35631D1*
Y37631D1*
X22134Y38256D1*
X22381D1*
X22259Y38134D1*
Y38256D1*
X20009Y34131D2*
X19884D1*
X20384Y34631D1*
Y34881D1*
X21259Y35756D1*
Y38131D1*
X22009Y38881D1*
X22884D1*
X24384Y37381D1*
Y36256D1*
X20009Y35131D2*
X21009Y36131D1*
Y38256D1*
X21884Y39131D1*
X23509D1*
X24384Y38256D1*
X22440Y17565D2*
Y16690D1*
X19440Y13690D1*
Y9690D1*
X21190Y7940D1*
X22190D1*
X22440Y7690D1*
Y7315D1*
X22815Y6940D1*
X23190D1*
X23440Y6690D1*
Y5940D1*
X23815Y5565D1*
X31190D1*
X31440Y5815D1*
Y6690D1*
X31690Y6940D1*
X32190D1*
X32440Y6690D1*
Y5815D1*
X32690Y5565D1*
X36815D1*
X37440Y6190D1*
Y6940D1*
X36940Y7440D1*
X23440Y17565D2*
Y17315D1*
X19690Y13565D1*
Y9815D1*
X21315Y8190D1*
X22315D1*
X22565Y7940D1*
X24190D1*
X24440Y7690D1*
Y6190D1*
X24690Y5940D1*
X30440D1*
X39440Y11565D2*
Y10565D1*
X41940Y8065D1*
Y7440D1*
X40440Y11565D2*
Y10940D1*
X42690Y8690D1*
Y8315D1*
X42440Y8065D1*
Y6940D1*
X42940Y6440D1*
X21440Y26315D2*
X20950D1*
X18759Y28506D1*
Y37131D1*
X17759Y38131D1*
X17009D1*
X30440Y27940D2*
X30190D1*
X29690Y27440D1*
Y26190D1*
X27815Y24315D1*
X27424D1*
X56840Y33540D2*
Y34540D1*
X56065Y35315D1*
X41815D1*
X36565Y40565D1*
X33815D1*
X33315Y40065D1*
Y28940D1*
X32315Y27940D1*
X30440D1*
X53810Y15815D2*
X53190D1*
X52940Y16065D1*
X36690D1*
X35940Y16815D1*
Y17940D1*
X35190Y18690D1*
X30065D1*
X29440Y18065D1*
Y17565D1*
X30440Y28940D2*
X30065D1*
X29440Y28315D1*
Y26565D1*
X28190Y25315D1*
X27424D1*
X57840Y33540D2*
Y34540D1*
X56815Y35565D1*
X41940D1*
X36690Y40815D1*
X33690D1*
X33065Y40190D1*
Y29940D1*
X32065Y28940D1*
X30440D1*
X53810Y14815D2*
X53440D1*
X52690Y15565D1*
X36315D1*
X34940Y16940D1*
Y18190D1*
X34690Y18440D1*
X30690D1*
X30440Y18190D1*
Y17565D1*
Y29940D2*
X29940D1*
X29190Y29190D1*
Y27315D1*
X28190Y26315D1*
X27424D1*
X58840Y33540D2*
Y34415D1*
X57440Y35815D1*
X42065D1*
X36815Y41065D1*
X33565D1*
X32815Y40315D1*
Y30815D1*
X31940Y29940D1*
X30440D1*
X53810Y13815D2*
X53690D1*
X52440Y15065D1*
X35815D1*
X33940Y16940D1*
Y17815D1*
X33565Y18190D1*
X31940D1*
X31440Y17690D1*
Y17565D1*
X30440Y30940D2*
X29815D1*
X28940Y30065D1*
Y28065D1*
X28190Y27315D1*
X27424D1*
X59840Y39540D2*
Y38590D1*
X58315Y37065D1*
X41190D1*
X36940Y41315D1*
X33440D1*
X32565Y40440D1*
Y31565D1*
X31940Y30940D1*
X30440D1*
X59810Y12815D2*
X57065D1*
X56565Y12315D1*
X53690D1*
X53315Y12690D1*
Y13315D1*
X52065Y14565D1*
X34815D1*
X32440Y16940D1*
Y17565D1*
X30440Y31940D2*
X29690D1*
X28690Y30940D1*
Y28815D1*
X28190Y28315D1*
X27424D1*
X58840Y39540D2*
Y38715D1*
X57440Y37315D1*
X41315D1*
X37065Y41565D1*
X33315D1*
X32315Y40565D1*
Y32315D1*
X31940Y31940D1*
X30440D1*
X59810Y13815D2*
X57065D1*
X56565Y13315D1*
X53690D1*
X52190Y14815D1*
X35565D1*
X33440Y16940D1*
Y17565D1*
X30440Y32940D2*
X29815D1*
X28440Y31565D1*
Y29565D1*
X28190Y29315D1*
X27424D1*
X57840Y39540D2*
X57815D1*
Y38690D1*
X56690Y37565D1*
X41440D1*
X37190Y41815D1*
X33190D1*
X32065Y40690D1*
Y33315D1*
X31690Y32940D1*
X30440D1*
X59810Y14815D2*
X57065D1*
X56565Y14315D1*
X53565D1*
X52565Y15315D1*
X36065D1*
X34440Y16940D1*
Y17565D1*
X30440Y33940D2*
X29815D1*
X28190Y32315D1*
Y30565D1*
X27940Y30315D1*
X27424D1*
X56840Y39540D2*
Y38715D1*
X55940Y37815D1*
X41565D1*
X37315Y42065D1*
X33065D1*
X31815Y40815D1*
Y34440D1*
X31315Y33940D1*
X30440D1*
X59810Y15815D2*
X57065D1*
X56565Y15315D1*
X53315D1*
X52815Y15815D1*
X36565D1*
X35440Y16940D1*
Y17565D1*
X30440Y34940D2*
X29940D1*
X27940Y32940D1*
Y31440D1*
X27815Y31315D1*
X27424D1*
X55840Y39540D2*
Y38715D1*
X55190Y38065D1*
X41690D1*
X37440Y42315D1*
X32940D1*
X31565Y40940D1*
Y35190D1*
X31315Y34940D1*
X30440D1*
X59810Y16815D2*
X57190D1*
X56690Y16315D1*
X37065D1*
X36440Y16940D1*
Y17565D1*
X42940Y7440D2*
Y8065D1*
X44565Y9690D1*
Y10315D1*
X45315Y11065D1*
X49065D1*
X49315Y10815D1*
Y9940D1*
X9940Y13690D2*
D14*
X11075D1*
X11570Y13195D1*
X11565Y11690D2*
Y13190D1*
X11570Y13195D1*
X14570D1*
X60082Y27739D2*
Y29207D1*
X62065Y31190D1*
Y40940D1*
X59815Y43190D1*
X9190D1*
X6690Y40690D1*
Y33065D1*
X10565Y29190D1*
Y22815D1*
X12440Y20940D1*
X43940Y6440D2*
D13*
X43440Y6940D1*
Y8065D1*
X44815Y9440D1*
Y10190D1*
X45440Y10815D1*
X47940D1*
X48315Y10440D1*
Y9940D1*
X43940Y7440D2*
Y7315D1*
X44315Y6940D1*
X45190D1*
X45440Y7190D1*
Y8065D1*
X47315Y9940D1*
X44940Y6440D2*
X45065D1*
X45565Y6940D1*
X46190D1*
X46440Y7190D1*
Y8190D1*
X47815Y9565D1*
Y10190D1*
X47440Y10565D1*
X46940D1*
X46315Y9940D1*
X44940Y7440D2*
Y8065D1*
X45315Y8440D1*
Y9940D1*
X45940Y6440D2*
X46315D1*
X46690Y6815D1*
Y8065D1*
X48065Y9440D1*
X49565D1*
X49815Y9690D1*
Y10815D1*
X49315Y11315D1*
X47440D1*
X46315Y12440D1*
Y12940D1*
X43690Y22440D2*
X42940Y23190D1*
Y24565D1*
X43315Y24940D1*
X44190D1*
X45190Y25940D1*
X47815D1*
X48315Y26440D1*
X48940D1*
X15715Y22565D2*
X16815D1*
X19815Y25565D1*
X19440Y28815D2*
X20190D1*
X21190Y29815D1*
X24924D1*
X27424Y32315D1*
X30940Y23440D2*
X35940D1*
X36440Y23940D1*
X27940Y7440D2*
Y8065D1*
X26815Y9190D1*
X23190D1*
X22940Y9440D1*
X21940D1*
X20940Y10440D1*
Y12815D1*
X22440Y14315D1*
X21065Y16315D2*
X19065D1*
X16690Y18690D1*
Y21590D1*
X15715Y22565D1*
X41440Y17565D2*
X40940Y17065D1*
X40190D1*
X39940Y17315D1*
Y18065D1*
X38815Y19190D1*
X27565D1*
X23190Y23565D1*
X22815D1*
X22565Y23315D1*
Y22690D1*
X21690Y21815D1*
X20065D1*
Y22565D1*
X11440Y19940D2*
Y18065D1*
Y16325D1*
X11570Y16195D1*
X18190Y13315D2*
X18815D1*
X19190Y12940D1*
Y9565D1*
X21190Y7565D1*
Y7190D1*
X21440Y6940D1*
X22315D1*
X22440Y6815D1*
Y5940D1*
X23065Y5315D1*
X31440D1*
X31940Y5815D1*
Y6440D1*
X14065Y9065D2*
D15*
X15440D1*
Y9070D1*
X14570Y14195D2*
D13*
X15185D1*
X15440Y13940D1*
Y13070D1*
X43690Y24440D2*
X43815D1*
X44565D1*
X45565Y25440D1*
X46690D1*
X59810Y19815D2*
X57310Y22315D1*
X53440D1*
X52690Y23065D1*
Y23440D1*
X52190Y23940D1*
X51690D1*
X49690Y21940D1*
X48690D1*
X48440Y22190D1*
Y22690D1*
X47190Y23940D1*
X44315D1*
X43815Y24440D1*
X57315Y22315D2*
X57310D1*
X47440Y8065D2*
X55190D1*
X57315Y10190D1*
X59810Y24815D2*
X57565D1*
X54690Y27690D1*
X44190D1*
X43690Y27190D1*
Y26440D1*
X35065Y40065D2*
Y27190D1*
X35815Y26440D1*
X37190D1*
X39815D2*
X41940D1*
X43690D1*
X59810Y24815D2*
X60315Y24310D1*
Y23565D1*
X60065Y23315D1*
X59315D1*
X58440Y24190D1*
X57690D1*
Y9815D2*
X53565Y5690D1*
X37940D1*
X38065Y25940D2*
X36440D1*
X28940Y6440D2*
X29065D1*
X29440Y6815D1*
Y7690D1*
X28940Y8190D1*
X28565D1*
X27065Y9690D1*
X23440D1*
X23190Y9940D1*
X22190D1*
X21440Y10690D1*
Y12440D1*
X23190Y14190D1*
X26440D1*
X26940Y14690D1*
X29440D1*
X31940D2*
Y17065D1*
X33315Y20815D2*
X34690D1*
X35815Y21940D1*
X32940Y7440D2*
Y8440D1*
X32565Y8815D1*
X28690D1*
X27315Y10190D1*
X23690D1*
X23440Y10440D1*
Y11565D1*
X24440D2*
Y10690D1*
X24690Y10440D1*
X27440D1*
X28815Y9065D1*
X32690D1*
X33440Y8315D1*
Y6940D1*
X33940Y6440D1*
Y7440D2*
Y8190D1*
X32815Y9315D1*
X28940D1*
X27565Y10690D1*
X25690D1*
X25440Y10940D1*
Y11565D1*
X34940Y6440D2*
X34440Y6940D1*
Y8065D1*
X32940Y9565D1*
X29065D1*
X27690Y10940D1*
X27065D1*
X26440Y11565D1*
X27440D2*
X29190Y9815D1*
X33065D1*
X34940Y7940D1*
Y7440D1*
X35940Y6440D2*
X35440Y6940D1*
Y7815D1*
X33190Y10065D1*
X29315D1*
X28440Y10940D1*
Y11565D1*
X29440D2*
Y10940D1*
X30065Y10315D1*
X33315D1*
X33815Y9815D1*
X34190D1*
X35940Y8065D1*
Y7440D1*
X36940Y6440D2*
X36440Y6940D1*
Y8190D1*
X34565Y10065D1*
X33940D1*
X33440Y10565D1*
X30815D1*
X30440Y10940D1*
Y11565D1*
X37940Y7440D2*
Y8190D1*
X37440Y8690D1*
X36315D1*
X34690Y10315D1*
X34065D1*
X33565Y10815D1*
X32190D1*
X31440Y11565D1*
X38940Y6440D2*
X38440Y6940D1*
Y8190D1*
X37690Y8940D1*
X36440D1*
X34815Y10565D1*
X34190D1*
X33690Y11065D1*
X32940D1*
X32440Y11565D1*
X33440D2*
X33565D1*
X34315Y10815D1*
X35440D1*
X36190Y10065D1*
X37065D1*
X38940Y8190D1*
Y7440D1*
X39940Y6440D2*
X39440Y6940D1*
Y8190D1*
X37315Y10315D1*
X36315D1*
X35565Y11065D1*
X34815D1*
X34440Y11440D1*
Y11565D1*
X35440D2*
X36440Y10565D1*
X37565D1*
X39940Y8190D1*
Y7440D1*
X40940Y6440D2*
X40440Y6940D1*
Y8190D1*
X37815Y10815D1*
X37190D1*
X36440Y11565D1*
X37440D2*
X40940Y8065D1*
Y7440D1*
X41940Y6440D2*
X41440Y6940D1*
Y8065D1*
X38440Y11065D1*
Y11565D1*
X30440Y23940D2*
X33440D1*
X30940Y7440D2*
Y8065D1*
X30565Y8440D1*
X28690D1*
X27190Y9940D1*
X23565D1*
X23315Y10190D1*
X22315D1*
X21690Y10815D1*
Y12065D1*
X22065Y12440D1*
X20940Y15815D2*
X19065D1*
X16384Y18496D1*
Y20746D1*
X14634Y22496D1*
Y24871D1*
X14065Y25440D1*
X34190Y22440D2*
X37315D1*
X37940Y23065D1*
X40440D2*
Y25065D1*
X40815Y25440D1*
X43690D1*
X15134Y30631D2*
D15*
X12506D1*
X11065Y29190D1*
Y26315D1*
X57690Y29940D2*
X58440Y29190D1*
Y27185D1*
X59810Y25815D1*
X46815Y41940D2*
X46840D1*
Y39540D1*
X38065Y21940D2*
X39940D1*
X41690D1*
X42065Y21565D1*
Y20815D1*
X36440Y27940D2*
X38253D1*
X43565Y13440D2*
X44315Y14190D1*
X52065D1*
X52940Y13315D1*
Y12565D1*
X53690Y11815D1*
X55440D1*
X54815D1*
X54190Y11190D1*
Y9940D1*
X29065Y20815D2*
X27950D1*
X27424Y21341D1*
Y21315D1*
X29065Y20815D2*
X29071Y20809D1*
X30065Y19815D1*
X40586D1*
X41690D1*
X42065Y20190D1*
Y20815D1*
X30440Y24940D2*
Y24815D1*
X30315D1*
X29815Y24315D1*
Y23565D1*
X30440Y22940D1*
X29071Y20809D2*
Y21571D1*
X30440Y22940D1*
X21940Y6440D2*
Y5315D1*
X21565Y4940D1*
X11042D1*
X15690D1*
X16065Y5315D1*
Y7815D1*
Y10229D1*
Y18315D1*
Y20690D1*
X15565Y21190D1*
X13065D1*
X11065Y23190D1*
Y26315D1*
X43690Y18065D2*
X42336D1*
X40586Y19815D1*
X48940Y18065D2*
Y17562D1*
X48568Y17190D1*
X45940D1*
X44288D1*
X43211D1*
X42336Y18065D1*
X43690D2*
Y20440D1*
X48940Y18065D2*
Y20440D1*
X54190Y9940D2*
X52315D1*
X55440Y11815D2*
X59565D1*
X60815Y13065D1*
Y24690D1*
X60190Y25315D1*
X57815D1*
X56190Y26940D1*
Y29429D1*
X56701Y29940D1*
X57951Y31190D1*
X61065D1*
X61565Y31690D1*
Y40815D1*
X59690Y42690D1*
X47065D1*
X46815Y42440D1*
Y41940D1*
X38253Y27940D2*
X39940D1*
X54701D1*
X56190Y29429D1*
X15134Y30631D2*
X16509D1*
X17009Y31131D1*
X45940Y17190D2*
X46690Y17940D1*
Y20440D1*
X9690Y6695D2*
Y5440D1*
X10190Y4940D1*
X11042D1*
X15815Y25565D2*
Y26940D1*
Y27315D1*
X16009Y27509D1*
Y28756D1*
X38440Y17565D2*
Y17440D1*
X39190Y16690D1*
X43788D1*
X44288Y17190D1*
X17810Y7459D2*
X16421D1*
X16065Y7815D1*
X21565Y4940D2*
X57065D1*
X58565Y6440D1*
Y10815D1*
X59565Y11815D1*
X39940Y21940D2*
X39065Y22815D1*
Y27065D1*
X39940Y27940D1*
X57690Y29940D2*
X56701D1*
X7940Y11690D2*
D14*
X10565D1*
Y11190D1*
X10940Y10815D1*
X13476D1*
X15479D1*
X16065Y10229D1*
X18190Y14315D2*
D15*
Y16190D1*
X16065Y18315D1*
X10065Y9065D2*
X11726D1*
X13476Y10815D1*
X9759Y31881D2*
Y30996D1*
X10124Y30631D1*
X12506D1*
X15815Y26940D2*
X15190Y26315D1*
X11065D1*
X7936Y17945D2*
D14*
Y16045D1*
X7940Y16040D1*
X11570Y14195D2*
D15*
X8810D1*
D14*
X7940Y15065D1*
Y16040D1*
X17009Y34131D2*
D13*
X16509D1*
X16009Y34631D1*
Y38756D1*
X17134Y39881D1*
X21134D1*
X21384Y40131D1*
X22259D1*
X22940Y40812D1*
Y40881D1*
X20009Y38131D2*
Y38756D1*
X20884Y39631D1*
X21259D1*
X21509Y39881D1*
X22884D1*
X23440Y40437D1*
Y41190D1*
X23190Y41440D1*
X22940D1*
X22395Y41985D1*
Y41999D1*
X59810Y17815D2*
X59190D1*
X57690Y19315D1*
X53440D1*
X52940Y19815D1*
Y21190D1*
X52190Y21940D1*
X50565D1*
X48065D2*
X47065Y22940D1*
X44190D1*
X43690Y23440D1*
X36440Y21940D2*
X36940D1*
X38065Y20815D1*
X9190Y6695D2*
Y7315D1*
X9815Y7940D1*
X12750D1*
X12760Y7951D1*
X28440Y17565D2*
Y16940D1*
X30315Y15065D1*
X28940D2*
X26940D1*
X26315Y14440D1*
X23065D1*
X21190Y12565D1*
Y10565D1*
X22065Y9690D1*
X23065D1*
X23315Y9440D1*
X26940D1*
X28940Y7440D1*
X51940Y20440D2*
X50690D1*
X50190Y20940D1*
X48190D1*
X46690Y22440D1*
X43690Y21440D2*
X45690D1*
X46690Y22440D1*
X57690Y36440D2*
X57815D1*
X59315Y34940D1*
Y33065D1*
X57065Y30815D1*
X42315D1*
X41315Y29815D1*
Y28440D1*
Y24940D2*
Y23815D1*
X43690Y21440D1*
X21440Y27315D2*
Y27381D1*
X20259D1*
X19009Y28631D1*
Y37256D1*
X17634Y38631D1*
X16759D1*
X16509Y38381D1*
Y37631D1*
X17009Y37131D1*
X40440Y17565D2*
Y18065D1*
X39065Y19440D1*
X28262D1*
X27384Y20318D1*
X26937D1*
X26690Y20565D1*
Y21565D1*
X26940Y21815D1*
X27815D1*
X28065Y22065D1*
Y23315D1*
X30190Y25440D1*
X30815D1*
X31190Y25815D1*
Y26690D1*
X30940Y26940D1*
X30440D1*
X46690Y24440D2*
X46815D1*
X48315Y25940D1*
X49315D1*
X49565Y26190D1*
Y26690D1*
X49315Y26940D1*
X45065D1*
X44069Y25944D1*
X40194D1*
X39690Y25440D1*
Y23690D1*
X37940D2*
X37190Y24440D1*
X33440D1*
X31190Y26690D1*
X29940Y6440D2*
X30440Y6940D1*
X31065D1*
X31440Y7315D1*
Y7940D1*
X31940Y8440D1*
X42190D2*
X39940Y10690D1*
Y13190D1*
X39315Y13815D1*
X25940D1*
Y15440D2*
Y18875D1*
X17009Y35131D2*
X17634D1*
X17884Y34881D1*
Y30131D1*
X17259Y29506D1*
Y28131D1*
X17759Y27631D1*
X18884D1*
X20634Y25881D1*
Y24121D1*
X21440Y23315D1*
X17009Y33131D2*
X16509D1*
X15759Y33881D1*
Y38881D1*
X17009Y40131D1*
X21009D1*
X21849Y40971D1*
Y40881D1*
X20009Y37131D2*
X20134D1*
X20509Y37506D1*
Y38506D1*
X21634Y39631D1*
X23881D1*
X24565Y40315D1*
Y41190D1*
X24315Y41440D1*
X24044D1*
X23485Y41999D1*
X17009Y36131D2*
X17634D1*
X18134Y35631D1*
Y30006D1*
X17509Y29381D1*
Y28256D1*
X17884Y27881D1*
X19009D1*
X20884Y26006D1*
Y25746D1*
X21315Y25315D1*
X21440D1*
X20009Y36131D2*
Y36256D1*
X20134D1*
X20759Y36881D1*
Y38381D1*
X21759Y39381D1*
X24384D1*
X25509Y38256D1*
X26509D1*
X5190Y36065D2*
D14*
Y34805D1*
Y32690D1*
X7565Y30315D1*
Y27989D1*
X7815Y27739D1*
X51315Y9940D2*
D13*
Y10815D1*
X50315Y11815D1*
X48440D1*
X47815Y12440D1*
Y13440D1*
X47440Y13815D1*
X45065D1*
X44440Y13190D1*
Y10940D1*
X43690Y10190D1*
X42690D1*
X41940Y10940D1*
Y13190D1*
X40815Y14315D1*
X31690D1*
X28940Y17065D1*
Y18440D1*
X29440Y18940D1*
X38565D1*
X39440Y18065D1*
Y17565D1*
X9940Y14690D2*
D14*
X11065D1*
X11570Y15195D1*
X9904Y17945D2*
Y14726D1*
X9940Y14690D1*
X5190Y37325D2*
X5555D1*
X6065Y36815D1*
Y32815D1*
X9878Y29002D1*
Y21003D1*
Y17972D1*
X9904Y17945D1*
X9878Y21003D2*
D13*
X10315Y20565D1*
X14815D1*
X15440Y19940D1*
X21440Y29315D2*
X22315Y28440D1*
Y23065D1*
X22065Y22815D1*
X21315D1*
X20384Y23746D1*
Y25756D1*
X18717Y27423D1*
X17592D1*
X17009Y28006D1*
Y29631D1*
X17634Y30256D1*
Y31256D1*
X17259Y31631D1*
X14884D1*
X14134Y32381D1*
Y36131D1*
X13634Y36631D1*
X10259D1*
X9759Y37131D1*
Y37881D1*
D37*
X60815Y32690D3*
X48840Y40165D3*
X60940Y32190D3*
X33815Y32565D3*
X37940Y24315D3*
X40940D3*
X23065Y23065D3*
Y30690D3*
X30440Y5940D3*
X12440Y20940D3*
X19440Y28815D3*
X30940Y23440D3*
X22440Y14315D3*
X21065Y16315D3*
X47440Y8065D3*
X57315Y10190D3*
X35065Y40065D3*
X37190Y26440D3*
X39815D3*
X57690Y24190D3*
Y9815D3*
X37940Y5690D3*
X29440Y14690D3*
X31940D3*
Y17065D3*
X33315Y20815D3*
X35815Y21940D3*
X33440Y23940D3*
X22065Y12440D3*
X20940Y15815D3*
X34190Y22440D3*
X37940Y23065D3*
X40440D3*
X11065Y26315D3*
X50565Y21940D3*
X48065D3*
X30315Y15065D3*
X28940D3*
X57690Y36440D3*
X41315Y28440D3*
Y24940D3*
X39690Y23690D3*
X37940D3*
X31940Y8440D3*
X42190D3*
X25940Y13815D3*
Y15440D3*
Y18875D3*
X27384Y20318D3*
X57315Y22315D3*
D19*
X7815Y27739D3*
Y10141D3*
X60082D3*
Y27739D3*
D20*
X9940Y13690D3*
D21*
Y14690D3*
D20*
X43565Y11440D3*
D21*
Y13440D3*
D20*
X11565Y11690D3*
D21*
X10565D3*
D20*
X44815Y41940D3*
D21*
X46815D3*
D20*
X29065Y22815D3*
D21*
Y20815D3*
D20*
X38253Y29940D3*
D21*
Y27940D3*
D20*
X22259Y38256D3*
D21*
Y36256D3*
D20*
X15134Y32631D3*
D21*
Y30631D3*
D20*
X45690Y18065D3*
D21*
X43690D3*
D20*
X59690Y29940D3*
D21*
X57690D3*
D20*
X24384Y38256D3*
D21*
Y36256D3*
D20*
X16009Y28756D3*
D21*
X18009D3*
D20*
X26509Y38256D3*
D21*
Y36256D3*
D20*
X50940Y18065D3*
D21*
X48940D3*
D20*
X56190Y9940D3*
D21*
X54190D3*
D22*
X20065Y22565D3*
D23*
X15715D3*
D22*
X7940Y11690D3*
D23*
Y16040D3*
D24*
X22440Y11565D3*
D25*
X23440D3*
X24440D3*
X25440D3*
X26440D3*
X27440D3*
X28440D3*
X29440D3*
X30440D3*
X31440D3*
X32440D3*
X33440D3*
X34440D3*
X35440D3*
X36440D3*
X37440D3*
X38440D3*
X39440D3*
X40440D3*
X41440D3*
Y17565D3*
X40440D3*
X39440D3*
X38440D3*
X37440D3*
X36440D3*
X35440D3*
X34440D3*
X33440D3*
X32440D3*
X31440D3*
X30440D3*
X29440D3*
X28440D3*
X27440D3*
X26440D3*
X25440D3*
X24440D3*
X23440D3*
X22440D3*
D24*
X21440Y34315D3*
D25*
Y33315D3*
Y32315D3*
Y31315D3*
Y30315D3*
Y29315D3*
Y28315D3*
Y27315D3*
Y26315D3*
Y25315D3*
Y24315D3*
Y23315D3*
Y22315D3*
Y21315D3*
X27424D3*
Y22315D3*
Y23315D3*
Y24315D3*
Y25315D3*
Y26315D3*
Y27315D3*
Y28315D3*
Y29315D3*
Y30315D3*
Y31315D3*
Y32315D3*
Y33315D3*
Y34315D3*
D24*
X46840Y33540D3*
D25*
X47840D3*
X48840D3*
X49840D3*
X50840D3*
X51840D3*
X52840D3*
X53840D3*
X54840D3*
X55840D3*
X56840D3*
X57840D3*
X58840D3*
X59840D3*
Y39540D3*
X58840D3*
X57840D3*
X56840D3*
X55840D3*
X54840D3*
X53840D3*
X52840D3*
X51840D3*
X50840D3*
X49840D3*
X48840D3*
X47840D3*
X46840D3*
D24*
X36440Y20940D3*
D25*
Y21940D3*
Y22940D3*
Y23940D3*
Y24940D3*
Y25940D3*
Y26940D3*
Y27940D3*
Y28940D3*
Y29940D3*
Y30940D3*
Y31940D3*
Y32940D3*
Y33940D3*
Y34940D3*
Y35940D3*
Y36940D3*
Y37940D3*
Y38940D3*
Y39940D3*
X30440D3*
Y38940D3*
Y37940D3*
Y36940D3*
Y35940D3*
Y34940D3*
Y33940D3*
Y32940D3*
Y31940D3*
Y30940D3*
Y29940D3*
Y28940D3*
Y27940D3*
Y26940D3*
Y25940D3*
Y24940D3*
Y23940D3*
Y22940D3*
Y21940D3*
Y20940D3*
D24*
X53810Y25815D3*
D25*
Y24815D3*
Y23815D3*
Y22815D3*
Y21815D3*
Y20815D3*
Y19815D3*
Y18815D3*
Y17815D3*
Y16815D3*
Y15815D3*
Y14815D3*
Y13815D3*
Y12815D3*
X59810D3*
Y13815D3*
Y14815D3*
Y15815D3*
Y16815D3*
Y17815D3*
Y18815D3*
Y19815D3*
Y20815D3*
Y21815D3*
Y22815D3*
Y23815D3*
Y24815D3*
Y25815D3*
D24*
X20009Y31131D3*
D25*
Y32131D3*
Y33131D3*
Y34131D3*
Y35131D3*
Y36131D3*
Y37131D3*
Y38131D3*
X17009D3*
Y37131D3*
Y36131D3*
Y35131D3*
Y34131D3*
Y33131D3*
Y32131D3*
Y31131D3*
D24*
X21940Y6440D3*
D25*
Y7440D3*
X22940Y6440D3*
Y7440D3*
X23940Y6440D3*
Y7440D3*
X24940Y6440D3*
Y7440D3*
X25940Y6440D3*
Y7440D3*
X26940Y6440D3*
Y7440D3*
X27940Y6440D3*
Y7440D3*
X28940Y6440D3*
Y7440D3*
X29940Y6440D3*
Y7440D3*
X30940Y6440D3*
Y7440D3*
X31940Y6440D3*
Y7440D3*
X32940Y6440D3*
Y7440D3*
X33940Y6440D3*
Y7440D3*
X34940Y6440D3*
Y7440D3*
X35940Y6440D3*
Y7440D3*
X36940Y6440D3*
Y7440D3*
X37940Y6440D3*
Y7440D3*
X38940Y6440D3*
Y7440D3*
X39940Y6440D3*
Y7440D3*
X40940Y6440D3*
Y7440D3*
X41940Y6440D3*
Y7440D3*
X42940Y6440D3*
Y7440D3*
X43940Y6440D3*
Y7440D3*
X44940Y6440D3*
Y7440D3*
X45940Y6440D3*
Y7440D3*
D21*
X17810Y7459D3*
D26*
Y6671D3*
D27*
X20759Y40881D3*
D28*
X21849D3*
X22940D3*
X24031D3*
X25121D3*
X21304Y41999D3*
X22395D3*
X23485D3*
X24576D3*
D29*
X18021Y41440D3*
X27859D3*
D30*
X7936Y17945D3*
X9904D3*
D31*
X15815Y25565D3*
D32*
X19815D3*
D31*
X11440Y19940D3*
D32*
X15440D3*
D31*
X42065Y20815D3*
D32*
X38065D3*
D31*
Y21940D3*
D32*
Y25940D3*
D31*
X10065Y9065D3*
D32*
X14065D3*
D31*
X11440Y18065D3*
D32*
X15440D3*
D33*
X15320Y6179D3*
D34*
Y7951D3*
X12760D3*
Y6179D3*
D25*
X5190Y37325D3*
Y36065D3*
Y34805D3*
G36*
X8993Y6400D2*
X9092Y6301D1*
X9288D1*
X9387Y6400D1*
Y6990D1*
X9288Y7089D1*
X9092D1*
X8993Y6990D1*
Y6400D1*
G37*
D35*
X9690Y6695D3*
X10190D3*
D24*
X52315Y12940D3*
D25*
X51315D3*
X50315D3*
X49315D3*
X48315D3*
X47315D3*
X46315D3*
X45315D3*
Y9940D3*
X46315D3*
X47315D3*
X48315D3*
X49315D3*
X50315D3*
X51315D3*
X52315D3*
D24*
X51940Y20440D3*
D25*
Y21440D3*
Y22440D3*
Y23440D3*
Y24440D3*
Y25440D3*
Y26440D3*
X48940D3*
Y25440D3*
Y24440D3*
Y23440D3*
Y22440D3*
Y21440D3*
Y20440D3*
D24*
X46690D3*
D25*
Y21440D3*
Y22440D3*
Y23440D3*
Y24440D3*
Y25440D3*
Y26440D3*
X43690D3*
Y25440D3*
Y24440D3*
Y23440D3*
Y22440D3*
Y21440D3*
Y20440D3*
D24*
X14570Y13195D3*
D25*
Y14195D3*
Y15195D3*
Y16195D3*
X11570D3*
Y15195D3*
Y14195D3*
Y13195D3*
D24*
X12759Y31881D3*
D25*
Y37881D3*
X9759D3*
Y31881D3*
D24*
X8065Y22440D3*
D25*
X14065D3*
Y25440D3*
X8065D3*
G36*
X17895Y14512D2*
X17796Y14413D1*
Y14217D1*
X17895Y14118D1*
X18485D1*
X18584Y14217D1*
Y14413D1*
X18485Y14512D1*
X17895D1*
G37*
D36*
X18190Y13815D3*
Y13315D3*
D31*
X15440Y9070D3*
D32*
Y13070D3*
M02*
