G04 DipTrace 2.4.0.2*
%INTopSilk.gbr*%
%MOIN*%
%ADD10C,0.0098*%
%ADD12C,0.003*%
%ADD78C,0.0077*%
%ADD79C,0.0093*%
%ADD80C,0.0293*%
%ADD81C,0.0154*%
%ADD82C,0.0108*%
%FSLAX44Y44*%
G04*
G70*
G90*
G75*
G01*
%LNTopSilk*%
%LPD*%
X9340Y14889D2*
D10*
Y13491D1*
X10540Y14889D2*
Y13491D1*
X9340D2*
G03X10540Y13491I600J-1D01*
G01*
Y14889D2*
G03X9340Y14889I-600J1D01*
G01*
X44165Y13639D2*
Y11241D1*
X42965Y13639D2*
Y11241D1*
G03X44165Y11241I600J-1D01*
G01*
Y13639D2*
G03X42965Y13639I-600J1D01*
G01*
X10366Y11090D2*
X11764D1*
X10366Y12290D2*
X11764D1*
Y11090D2*
G03X11764Y12290I1J600D01*
G01*
X10366D2*
G03X10366Y11090I-1J-600D01*
G01*
X47014Y41340D2*
X44616D1*
X47014Y42540D2*
X44616D1*
G03X44616Y41340I-1J-600D01*
G01*
X47014D2*
G03X47014Y42540I1J600D01*
G01*
X28465Y20616D2*
Y23014D1*
X29665Y20616D2*
Y23014D1*
G03X28465Y23014I-600J1D01*
G01*
Y20616D2*
G03X29665Y20616I600J-1D01*
G01*
X37653Y27741D2*
Y30139D1*
X38853Y27741D2*
Y30139D1*
G03X37653Y30139I-600J1D01*
G01*
Y27741D2*
G03X38853Y27741I600J-1D01*
G01*
X21659Y36057D2*
Y38455D1*
X22859Y36057D2*
Y38455D1*
G03X21659Y38455I-600J1D01*
G01*
Y36057D2*
G03X22859Y36057I600J-1D01*
G01*
X14534Y30432D2*
Y32830D1*
X15734Y30432D2*
Y32830D1*
G03X14534Y32830I-600J1D01*
G01*
Y30432D2*
G03X15734Y30432I600J-1D01*
G01*
X43491Y18665D2*
X45889D1*
X43491Y17465D2*
X45889D1*
G03X45889Y18665I1J600D01*
G01*
X43491D2*
G03X43491Y17465I-1J-600D01*
G01*
X57491Y30540D2*
X59889D1*
X57491Y29340D2*
X59889D1*
G03X59889Y30540I1J600D01*
G01*
X57491D2*
G03X57491Y29340I-1J-600D01*
G01*
X23784Y36057D2*
Y38455D1*
X24984Y36057D2*
Y38455D1*
G03X23784Y38455I-600J1D01*
G01*
Y36057D2*
G03X24984Y36057I600J-1D01*
G01*
X18208Y28156D2*
X15810D1*
X18208Y29356D2*
X15810D1*
G03X15810Y28156I-1J-600D01*
G01*
X18208D2*
G03X18208Y29356I1J600D01*
G01*
X25909Y36057D2*
Y38455D1*
X27109Y36057D2*
Y38455D1*
G03X25909Y38455I-600J1D01*
G01*
Y36057D2*
G03X27109Y36057I600J-1D01*
G01*
X48741Y18665D2*
X51139D1*
X48741Y17465D2*
X51139D1*
G03X51139Y18665I1J600D01*
G01*
X48741D2*
G03X48741Y17465I-1J-600D01*
G01*
X53991Y10540D2*
X56389D1*
X53991Y9340D2*
X56389D1*
G03X56389Y10540I1J600D01*
G01*
X53991D2*
G03X53991Y9340I-1J-600D01*
G01*
X18836Y23116D2*
Y22014D1*
X18816D2*
X16964D1*
X18537Y23116D2*
Y22014D1*
X16964Y23116D2*
Y22014D1*
X18816Y23116D2*
X16964D1*
X8491Y12919D2*
X7389D1*
Y12939D2*
Y14791D1*
X8491Y13218D2*
X7389D1*
X8491Y14791D2*
X7389D1*
X8491Y12939D2*
Y14791D1*
X21901Y12045D2*
X41979D1*
Y17085D1*
X21901D2*
X41979D1*
X21861Y12045D2*
Y14250D1*
Y17085D2*
Y14880D1*
Y14250D2*
G03X21861Y14880I-1J315D01*
G01*
X26952Y35138D2*
Y20492D1*
X21913D2*
X26952D1*
X21913Y35138D2*
Y20492D1*
Y35138D2*
X24117D1*
X26952D2*
X24747D1*
X24117D2*
G03X24747Y35138I315J0D01*
G01*
X46017Y39052D2*
X60663D1*
Y34013D2*
Y39052D1*
X46017Y34013D2*
X60663D1*
X46017D2*
Y36217D1*
Y39052D2*
Y36847D1*
Y36217D2*
G03X46017Y36847I0J315D01*
G01*
X35960Y20401D2*
Y40479D1*
X30920D1*
Y20401D2*
Y40479D1*
X35960Y20361D2*
X33755D1*
X30920D2*
X33125D1*
X33755D2*
G03X33125Y20361I-315J-1D01*
G01*
X59322Y26638D2*
Y11992D1*
X54283D2*
X59322D1*
X54283Y26638D2*
Y11992D1*
Y26638D2*
X56487D1*
X59322D2*
X57117D1*
X56487D2*
G03X57117Y26638I315J0D01*
G01*
X17485Y30615D2*
Y38647D1*
X19533D2*
X17485D1*
X19533Y30615D2*
Y38647D1*
Y30615D2*
X18745D1*
X17485D2*
X18273D1*
X18745D2*
G03X18273Y30615I-236J0D01*
G01*
X21440Y5940D2*
X46440D1*
X21440Y7940D2*
X46440D1*
X21440Y5940D2*
Y7940D1*
X46440Y5940D2*
Y7940D1*
X18479Y8226D2*
X16708D1*
Y5904D1*
X18479D1*
Y8226D1*
X27863Y47289D2*
G03X26857Y47289I-503J-523D01*
G01*
X28857D2*
G03X27863Y47289I-497J-508D01*
G01*
Y45456D2*
G03X28857Y45456I497J483D01*
G01*
X26857D2*
G03X27863Y45456I503J498D01*
G01*
X18017Y47289D2*
G03X17023Y47289I-497J-508D01*
G01*
X19023D2*
G03X18017Y47289I-503J-523D01*
G01*
Y45456D2*
G03X19023Y45456I503J498D01*
G01*
X17023D2*
G03X18017Y45456I497J483D01*
G01*
X26432Y47267D2*
G03X26153Y47542I-281J-6D01*
G01*
X26432Y45456D2*
G03X26699Y45181I261J-14D01*
G01*
X19727Y47542D2*
G03X19448Y47267I2J-281D01*
G01*
X19181Y45181D2*
G03X19448Y45456I6J261D01*
G01*
X26857D2*
X27111Y45203D1*
X26857Y45456D2*
Y47289D1*
X27111Y47542D1*
X28615D1*
X28857Y47289D1*
Y46789D2*
Y46869D1*
Y45456D2*
Y47289D1*
X28615Y45203D2*
X28857Y45456D1*
X27863D2*
Y47289D1*
X17023Y45456D2*
X17265Y45203D1*
X17023Y45456D2*
Y47289D1*
X17265Y47542D1*
X18769D1*
X19023Y47289D1*
Y46789D2*
Y46869D1*
Y45456D2*
Y47289D1*
X18769Y45203D2*
X19023Y45456D1*
X18017D2*
Y47289D1*
X26432Y45456D2*
Y47267D1*
X19448Y45456D2*
Y47267D1*
X20187Y40298D2*
Y44000D1*
X16877Y45181D2*
X29003D1*
X25693Y40298D2*
Y44000D1*
X16877Y40298D2*
X29003D1*
X19727Y47542D2*
X26153D1*
X16877Y40298D2*
Y45181D1*
X29003Y40298D2*
Y45181D1*
X16877Y44000D2*
X29003D1*
X7286Y17945D2*
G02X7286Y17945I1634J0D01*
G01*
X18813Y25065D2*
X16817D1*
Y26065D2*
Y25065D1*
X18813Y26065D2*
X16817D1*
X18813D2*
Y25065D1*
X14438Y19440D2*
X12442D1*
Y20440D2*
Y19440D1*
X14438Y20440D2*
X12442D1*
X14438D2*
Y19440D1*
X39067Y21315D2*
X41063D1*
Y20315D2*
Y21315D1*
X39067Y20315D2*
X41063D1*
X39067D2*
Y21315D1*
X38565Y24938D2*
Y22942D1*
X37565D2*
X38565D1*
X37565Y24938D2*
Y22942D1*
Y24938D2*
X38565D1*
X13063Y8565D2*
X11067D1*
Y9565D2*
Y8565D1*
X13063Y9565D2*
X11067D1*
X13063D2*
Y8565D1*
X14438Y17565D2*
X12442D1*
Y18565D2*
Y17565D1*
X14438Y18565D2*
X12442D1*
X14438D2*
Y17565D1*
X13331Y7065D2*
G02X13331Y7065I709J0D01*
G01*
X14946Y8246D2*
X13134D1*
X12859Y7459D2*
Y6671D1*
X13134Y5884D2*
X14788D1*
X15221Y6671D2*
Y7459D1*
X13450Y7065D2*
G02X13450Y7065I590J0D01*
G01*
X6410Y38821D2*
X3969D1*
Y33309D1*
X6410D1*
Y38821D1*
X3969Y36655D2*
X2001D1*
X3969Y35475D2*
X2001D1*
Y36655D2*
Y35475D1*
X8934Y6164D2*
G02X10446Y6164I756J666D01*
G01*
X8934D1*
X52831Y10416D2*
X44799D1*
Y12464D2*
Y10416D1*
X52831Y12464D2*
X44799D1*
X52831D2*
Y11676D1*
Y10416D2*
Y11204D1*
Y11676D2*
G03X52831Y11204I0J-236D01*
G01*
X49416Y19582D2*
Y27298D1*
X51464D2*
X49416D1*
X51464Y19582D2*
Y27298D1*
Y19582D2*
X50676D1*
X49416D2*
X50204D1*
X50676D2*
G03X50204Y19582I-236J0D01*
G01*
X44166D2*
Y27298D1*
X46214D2*
X44166D1*
X46214Y19582D2*
Y27298D1*
Y19582D2*
X45426D1*
X44166D2*
X44954D1*
X45426D2*
G03X44954Y19582I-236J0D01*
G01*
X12046Y12726D2*
Y16664D1*
X14094D2*
X12046D1*
X14094Y12726D2*
Y16664D1*
Y12726D2*
X13306D1*
X12046D2*
X12834D1*
X13306D2*
G03X12834Y12726I-236J0D01*
G01*
X13759Y30881D2*
Y38381D1*
X13259Y38881D2*
X9259D1*
X8759Y38381D2*
Y31381D1*
X13759Y30881D2*
X9259D1*
X13509Y31381D2*
Y38381D1*
X13259Y38631D2*
X9259D1*
X9009Y38381D2*
Y31381D1*
X9259Y31131D2*
X13259D1*
X13759Y38381D2*
G03X13259Y38881I-500J0D01*
G01*
X13509Y38381D2*
G03X13259Y38631I-250J0D01*
G01*
X9009Y38381D2*
G02X9259Y38631I250J0D01*
G01*
X8759Y38381D2*
G02X9259Y38881I500J0D01*
G01*
Y31131D2*
G02X9009Y31381I0J250D01*
G01*
X9259Y30881D2*
G02X8759Y31381I0J500D01*
G01*
X13259Y31131D2*
G03X13509Y31381I0J250D01*
G01*
X9259Y34751D2*
X10259D1*
Y35001D1*
X9259D1*
Y34751D1*
Y35251D2*
X9759D1*
X9259Y34511D2*
X9759D1*
Y35251D2*
Y35881D1*
Y35251D2*
X10259D1*
X9759Y34511D2*
Y33881D1*
Y34511D2*
X10259D1*
X7065Y21440D2*
X14565D1*
X15065Y21940D2*
Y25940D1*
X14565Y26440D2*
X7565D1*
X7065Y21440D2*
Y25940D1*
X7565Y21690D2*
X14565D1*
X14815Y21940D2*
Y25940D1*
X14565Y26190D2*
X7565D1*
X7315Y25940D2*
Y21940D1*
X14565Y21440D2*
G03X15065Y21940I0J500D01*
G01*
X14565Y21690D2*
G03X14815Y21940I0J250D01*
G01*
X14565Y26190D2*
G02X14815Y25940I0J-250D01*
G01*
X14565Y26440D2*
G02X15065Y25940I0J-500D01*
G01*
X7315D2*
G02X7565Y26190I250J0D01*
G01*
X7065Y25940D2*
G02X7565Y26440I500J0D01*
G01*
X7315Y21940D2*
G03X7565Y21690I250J0D01*
G01*
X10935Y25940D2*
Y24940D1*
X11185D1*
Y25940D1*
X10935D1*
X11435D2*
Y25440D1*
X10695Y25940D2*
Y25440D1*
X11435D2*
X12065D1*
X11435D2*
Y24940D1*
X10695Y25440D2*
X10065D1*
X10695D2*
Y24940D1*
X17659Y14571D2*
G02X17659Y13059I666J-756D01*
G01*
Y14571D1*
X15940Y12068D2*
Y10072D1*
X14940D2*
X15940D1*
X14940Y12068D2*
Y10072D1*
Y12068D2*
X15940D1*
X40941Y35108D2*
D12*
X41391D1*
X40850Y35078D2*
X41494D1*
X40770Y35048D2*
X41588D1*
X40701Y35018D2*
X41670D1*
X40644Y34988D2*
X41742D1*
X40593Y34958D2*
X41806D1*
X40547Y34928D2*
X41864D1*
X40505Y34898D2*
X41010D1*
X41361D2*
X41914D1*
X40467Y34868D2*
X40911D1*
X41450D2*
X41958D1*
X40434Y34838D2*
X40832D1*
X41535D2*
X42000D1*
X40403Y34808D2*
X40768D1*
X41612D2*
X42040D1*
X40373Y34778D2*
X40715D1*
X41678D2*
X42076D1*
X40345Y34748D2*
X40667D1*
X41736D2*
X42109D1*
X40320Y34718D2*
X40625D1*
X41789D2*
X42141D1*
X40294Y34688D2*
X40587D1*
X41841D2*
X42171D1*
X40269Y34658D2*
X40551D1*
X41889D2*
X42201D1*
X40245Y34628D2*
X40662D1*
X41931D2*
X42230D1*
X40223Y34598D2*
X40748D1*
X41966D2*
X42256D1*
X40202Y34568D2*
X40811D1*
X41995D2*
X42278D1*
X40182Y34538D2*
X40858D1*
X42024D2*
X42296D1*
X40161Y34508D2*
X40891D1*
X42052D2*
X42313D1*
X40143Y34478D2*
X40917D1*
X42081D2*
X42329D1*
X40126Y34448D2*
X40940D1*
X42106D2*
X42344D1*
X40110Y34418D2*
X40443D1*
X40625D2*
X40960D1*
X42128D2*
X42359D1*
X40094Y34388D2*
X40379D1*
X40683D2*
X40977D1*
X42146D2*
X42374D1*
X40079Y34358D2*
X40333D1*
X40724D2*
X40993D1*
X42163D2*
X42388D1*
X40064Y34328D2*
X40301D1*
X40754D2*
X41008D1*
X42179D2*
X42399D1*
X40049Y34298D2*
X40275D1*
X40778D2*
X41020D1*
X42194D2*
X42407D1*
X40034Y34268D2*
X40253D1*
X40796D2*
X41031D1*
X42208D2*
X42414D1*
X40019Y34238D2*
X40233D1*
X40813D2*
X41041D1*
X42219D2*
X42423D1*
X40004Y34208D2*
X40216D1*
X40827D2*
X41051D1*
X42227D2*
X42431D1*
X39989Y34178D2*
X40200D1*
X40839D2*
X41059D1*
X41301D2*
X41601D1*
X42234D2*
X42436D1*
X39974Y34148D2*
X40185D1*
X40847D2*
X41068D1*
X41216D2*
X41657D1*
X42243D2*
X42439D1*
X39959Y34118D2*
X40173D1*
X40854D2*
X41092D1*
X41126D2*
X41707D1*
X42251D2*
X42441D1*
X39944Y34088D2*
X40162D1*
X40861D2*
X41750D1*
X42256D2*
X42441D1*
X39929Y34058D2*
X40151D1*
X40866D2*
X41786D1*
X42259D2*
X42441D1*
X39915Y34028D2*
X40138D1*
X40281D2*
X40371D1*
X40864D2*
X41815D1*
X42261D2*
X42441D1*
X38871Y33998D2*
X39291D1*
X39903D2*
X40125D1*
X40243D2*
X40409D1*
X40859D2*
X41842D1*
X42261D2*
X42441D1*
X38745Y33968D2*
X39444D1*
X39892D2*
X40115D1*
X40213D2*
X40440D1*
X40854D2*
X41367D1*
X41529D2*
X41866D1*
X42261D2*
X42441D1*
X38634Y33938D2*
X39578D1*
X39880D2*
X40110D1*
X40202D2*
X40451D1*
X40848D2*
X41291D1*
X41594D2*
X41885D1*
X42260D2*
X42441D1*
X38541Y33908D2*
X39698D1*
X39867D2*
X40117D1*
X40195D2*
X40457D1*
X40839D2*
X41226D1*
X41640D2*
X41898D1*
X42256D2*
X42441D1*
X38465Y33878D2*
X39810D1*
X39850D2*
X40128D1*
X40187D2*
X40459D1*
X40826D2*
X41173D1*
X41671D2*
X41910D1*
X42249D2*
X42441D1*
X38398Y33848D2*
X40143D1*
X40176D2*
X40455D1*
X40808D2*
X41131D1*
X41693D2*
X41920D1*
X42241D2*
X42440D1*
X38338Y33818D2*
X40448D1*
X40785D2*
X41097D1*
X41708D2*
X41926D1*
X42235D2*
X42436D1*
X38285Y33788D2*
X40425D1*
X40759D2*
X41068D1*
X41720D2*
X41929D1*
X42229D2*
X42429D1*
X38237Y33758D2*
X38814D1*
X38961D2*
X39230D1*
X39335D2*
X40387D1*
X40729D2*
X41045D1*
X41731D2*
X41932D1*
X42220D2*
X42421D1*
X38190Y33728D2*
X38703D1*
X38991D2*
X39256D1*
X39481D2*
X40259D1*
X40311D2*
X40337D1*
X40692D2*
X41027D1*
X41740D2*
X41936D1*
X42211D2*
X42415D1*
X38145Y33698D2*
X38605D1*
X39021D2*
X39279D1*
X39607D2*
X40307D1*
X40639D2*
X41010D1*
X41746D2*
X41943D1*
X42201D2*
X42409D1*
X38104Y33668D2*
X38521D1*
X39050D2*
X39300D1*
X39715D2*
X40374D1*
X40560D2*
X40995D1*
X41749D2*
X41951D1*
X42191D2*
X42400D1*
X38067Y33638D2*
X38451D1*
X39076D2*
X39321D1*
X39804D2*
X40458D1*
X40457D2*
X40983D1*
X41751D2*
X41955D1*
X42181D2*
X42391D1*
X38034Y33608D2*
X38390D1*
X39099D2*
X39340D1*
X39881D2*
X40011D1*
X40072D2*
X40972D1*
X41751D2*
X41954D1*
X42172D2*
X42381D1*
X38002Y33578D2*
X38336D1*
X39120D2*
X39356D1*
X39951D2*
X39981D1*
X40103D2*
X40962D1*
X41750D2*
X41948D1*
X42160D2*
X42371D1*
X37972Y33548D2*
X38289D1*
X39140D2*
X39369D1*
X40137D2*
X40953D1*
X41121D2*
X41211D1*
X41746D2*
X41941D1*
X42147D2*
X42361D1*
X37943Y33518D2*
X38249D1*
X39156D2*
X39380D1*
X40176D2*
X40947D1*
X41083D2*
X41244D1*
X41739D2*
X41936D1*
X42134D2*
X42352D1*
X37916Y33488D2*
X38215D1*
X39169D2*
X39392D1*
X40223D2*
X40944D1*
X41056D2*
X41268D1*
X41730D2*
X41933D1*
X42123D2*
X42340D1*
X37894Y33458D2*
X38183D1*
X39182D2*
X39405D1*
X40279D2*
X40671D1*
X40731D2*
X40942D1*
X41037D2*
X41285D1*
X41721D2*
X41931D1*
X42112D2*
X42327D1*
X37871Y33428D2*
X38152D1*
X39195D2*
X39418D1*
X40341D2*
X40581D1*
X40732D2*
X40942D1*
X41020D2*
X41294D1*
X41711D2*
X41927D1*
X42100D2*
X42314D1*
X37847Y33398D2*
X38122D1*
X39208D2*
X39430D1*
X40733D2*
X40943D1*
X41001D2*
X41297D1*
X41701D2*
X41919D1*
X42086D2*
X42303D1*
X37820Y33368D2*
X38091D1*
X39220D2*
X39441D1*
X40736D2*
X40946D1*
X41017D2*
X41297D1*
X41692D2*
X41910D1*
X42069D2*
X42292D1*
X37796Y33338D2*
X38062D1*
X39231D2*
X39451D1*
X40744D2*
X40954D1*
X41033D2*
X41282D1*
X41680D2*
X41901D1*
X42050D2*
X42280D1*
X37774Y33308D2*
X38033D1*
X39241D2*
X39460D1*
X40751D2*
X40963D1*
X41053D2*
X41257D1*
X41666D2*
X41890D1*
X42032D2*
X42267D1*
X37756Y33278D2*
X38007D1*
X39251D2*
X39466D1*
X40758D2*
X40973D1*
X41099D2*
X41222D1*
X41648D2*
X41877D1*
X42015D2*
X42253D1*
X37740Y33248D2*
X37985D1*
X39261D2*
X39470D1*
X40764D2*
X40988D1*
X41151D2*
X41181D1*
X41624D2*
X41863D1*
X41999D2*
X42239D1*
X37725Y33218D2*
X37966D1*
X39271D2*
X39476D1*
X40774D2*
X41008D1*
X41594D2*
X41847D1*
X41984D2*
X42224D1*
X37713Y33188D2*
X37950D1*
X39280D2*
X39483D1*
X40786D2*
X41031D1*
X41557D2*
X41829D1*
X41968D2*
X42208D1*
X37702Y33158D2*
X37934D1*
X39286D2*
X39491D1*
X40800D2*
X41057D1*
X41514D2*
X41806D1*
X41950D2*
X42190D1*
X37692Y33128D2*
X37919D1*
X39289D2*
X39496D1*
X40815D2*
X41097D1*
X41461D2*
X41779D1*
X41931D2*
X42171D1*
X37681Y33098D2*
X37904D1*
X39291D2*
X39499D1*
X40461D2*
X40491D1*
X40834D2*
X41164D1*
X41386D2*
X41751D1*
X41911D2*
X42152D1*
X37672Y33068D2*
X37889D1*
X39291D2*
X39501D1*
X40442D2*
X40544D1*
X40856D2*
X41267D1*
X41278D2*
X41722D1*
X41890D2*
X42135D1*
X37661Y33038D2*
X37875D1*
X39291D2*
X39501D1*
X40422D2*
X40587D1*
X40880D2*
X41695D1*
X41867D2*
X42118D1*
X37652Y33008D2*
X37864D1*
X39291D2*
X39501D1*
X40400D2*
X40623D1*
X40905D2*
X41667D1*
X41844D2*
X42099D1*
X37645Y32978D2*
X37856D1*
X39291D2*
X39501D1*
X40376D2*
X40617D1*
X40935D2*
X41633D1*
X41823D2*
X42077D1*
X37639Y32948D2*
X37849D1*
X39291D2*
X39501D1*
X40347D2*
X40605D1*
X40973D2*
X41588D1*
X41801D2*
X42054D1*
X37630Y32918D2*
X37840D1*
X39291D2*
X39501D1*
X40307D2*
X40589D1*
X41017D2*
X41536D1*
X41778D2*
X42033D1*
X37622Y32888D2*
X37832D1*
X39291D2*
X39501D1*
X40250D2*
X40569D1*
X41068D2*
X41479D1*
X41754D2*
X42012D1*
X37616Y32858D2*
X37826D1*
X39291D2*
X39502D1*
X40158D2*
X40546D1*
X41121D2*
X41421D1*
X41733D2*
X41991D1*
X37614Y32828D2*
X37824D1*
X39291D2*
X39504D1*
X40011D2*
X40519D1*
X41711D2*
X41971D1*
X37612Y32798D2*
X37822D1*
X39290D2*
X39509D1*
X39793D2*
X40490D1*
X41688D2*
X41951D1*
X37612Y32768D2*
X37822D1*
X39275D2*
X39533D1*
X39512D2*
X40461D1*
X41664D2*
X41927D1*
X37612Y32738D2*
X37822D1*
X39220D2*
X40430D1*
X41643D2*
X41904D1*
X37611Y32708D2*
X37821D1*
X39140D2*
X40391D1*
X41621D2*
X41883D1*
X42561D2*
X43461D1*
X37612Y32678D2*
X37821D1*
X39045D2*
X40333D1*
X41596D2*
X41861D1*
X42323D2*
X43634D1*
X37613Y32648D2*
X37822D1*
X38951D2*
X40241D1*
X41569D2*
X41837D1*
X42102D2*
X43785D1*
X37616Y32618D2*
X37823D1*
X38866D2*
X40103D1*
X41541D2*
X41811D1*
X41895D2*
X43910D1*
X37624Y32588D2*
X37826D1*
X38794D2*
X39914D1*
X41511D2*
X44014D1*
X37631Y32558D2*
X37834D1*
X38731D2*
X39686D1*
X41481D2*
X44103D1*
X37637Y32528D2*
X37841D1*
X38677D2*
X39441D1*
X41450D2*
X44183D1*
X37639Y32498D2*
X37848D1*
X38628D2*
X39440D1*
X41416D2*
X42666D1*
X43363D2*
X44256D1*
X37642Y32468D2*
X37854D1*
X38585D2*
X39123D1*
X39237D2*
X39436D1*
X41378D2*
X42431D1*
X43549D2*
X44320D1*
X37646Y32438D2*
X37863D1*
X38548D2*
X39028D1*
X39220D2*
X39429D1*
X41336D2*
X42226D1*
X43710D2*
X44375D1*
X37654Y32408D2*
X37872D1*
X38514D2*
X38948D1*
X39209D2*
X39420D1*
X41293D2*
X42051D1*
X43842D2*
X44425D1*
X37662Y32378D2*
X37881D1*
X38481D2*
X38878D1*
X39200D2*
X39411D1*
X41247D2*
X41899D1*
X43949D2*
X44473D1*
X37671Y32348D2*
X37892D1*
X38448D2*
X38814D1*
X39190D2*
X39401D1*
X41200D2*
X41762D1*
X44038D2*
X44518D1*
X37682Y32318D2*
X37902D1*
X38414D2*
X38752D1*
X39181D2*
X39391D1*
X41151D2*
X41631D1*
X44115D2*
X44564D1*
X45471D2*
D3*
X45531D2*
X45711D1*
X45771D2*
D3*
X37692Y32288D2*
X37911D1*
X38384D2*
X38691D1*
X39171D2*
X39382D1*
X40281D2*
X40401D1*
X41102D2*
X41501D1*
X44188D2*
X44608D1*
X45308D2*
X46041D1*
X37701Y32258D2*
X37921D1*
X38356D2*
X38752D1*
X39160D2*
X39370D1*
X40186D2*
X40406D1*
X41056D2*
X41373D1*
X44255D2*
X44649D1*
X45179D2*
X46100D1*
X37713Y32228D2*
X37932D1*
X38329D2*
X38813D1*
X39147D2*
X39357D1*
X40083D2*
X40413D1*
X41011D2*
X41252D1*
X44312D2*
X44686D1*
X45086D2*
X46155D1*
X37726Y32198D2*
X37941D1*
X38301D2*
X38880D1*
X39132D2*
X39344D1*
X39970D2*
X40421D1*
X40971D2*
X41136D1*
X44363D2*
X44719D1*
X45017D2*
X46204D1*
X37740Y32168D2*
X37953D1*
X38277D2*
X38962D1*
X39112D2*
X39334D1*
X39837D2*
X40425D1*
X40939D2*
X41024D1*
X44408D2*
X44752D1*
X44961D2*
X46247D1*
X37754Y32138D2*
X37967D1*
X38258D2*
X39061D1*
X39084D2*
X39327D1*
X39662D2*
X40425D1*
X40911D2*
D3*
X44450D2*
X44787D1*
X44911D2*
X46285D1*
X37769Y32108D2*
X37983D1*
X38243D2*
X38512D1*
X38570D2*
X39321D1*
X39433D2*
X40412D1*
X44491D2*
X44827D1*
X44861D2*
X46318D1*
X37784Y32078D2*
X38003D1*
X38228D2*
X38483D1*
X38628D2*
X40382D1*
X44530D2*
X45330D1*
X45944D2*
X46346D1*
X37799Y32048D2*
X38022D1*
X38209D2*
X38456D1*
X38684D2*
X40348D1*
X44566D2*
X45231D1*
X46017D2*
X46374D1*
X37814Y32018D2*
X38041D1*
X38192D2*
X38434D1*
X38746D2*
X40315D1*
X44599D2*
X45152D1*
X46076D2*
X46403D1*
X37829Y31988D2*
X38062D1*
X38175D2*
X38412D1*
X38819D2*
X40283D1*
X44631D2*
X45089D1*
X46125D2*
X46432D1*
X37845Y31958D2*
X38081D1*
X38159D2*
X38392D1*
X38905D2*
X40252D1*
X44661D2*
X45040D1*
X46169D2*
X46460D1*
X37863Y31928D2*
X38101D1*
X38141D2*
X38373D1*
X39005D2*
X39801D1*
X39956D2*
X40222D1*
X44691D2*
X44999D1*
X46209D2*
X46486D1*
X37882Y31898D2*
X38357D1*
X39111D2*
X39621D1*
X39935D2*
X40193D1*
X44720D2*
X44961D1*
X46245D2*
X46509D1*
X37901Y31868D2*
X38343D1*
X39916D2*
X40167D1*
X44746D2*
X44987D1*
X46274D2*
X46530D1*
X37918Y31838D2*
X38333D1*
X39900D2*
X40145D1*
X44768D2*
X45008D1*
X46298D2*
X46551D1*
X37934Y31808D2*
X38322D1*
X39885D2*
X40126D1*
X44787D2*
X45026D1*
X46321D2*
X46570D1*
X37953Y31778D2*
X38311D1*
X39873D2*
X40110D1*
X44804D2*
X45043D1*
X46346D2*
X46587D1*
X37972Y31748D2*
X38302D1*
X39862D2*
X40094D1*
X44822D2*
X45059D1*
X46371D2*
X46603D1*
X37992Y31718D2*
X38291D1*
X39851D2*
X40079D1*
X44842D2*
X45074D1*
X46234D2*
X46619D1*
X38012Y31688D2*
X38282D1*
X39838D2*
X40064D1*
X44860D2*
X45088D1*
X46119D2*
X46634D1*
X38037Y31658D2*
X38277D1*
X39824D2*
X40049D1*
X44877D2*
X45100D1*
X46027D2*
X46648D1*
X38064Y31628D2*
X38274D1*
X39814D2*
X40035D1*
X44893D2*
X45111D1*
X45954D2*
X46659D1*
X38092Y31598D2*
X38272D1*
X39807D2*
X40023D1*
X44909D2*
X45122D1*
X45896D2*
X46666D1*
X38122Y31568D2*
X38272D1*
X39803D2*
X40012D1*
X44924D2*
X45135D1*
X45848D2*
X46670D1*
X38152Y31538D2*
X38272D1*
X39797D2*
X40002D1*
X44938D2*
X45148D1*
X45809D2*
X46675D1*
X38181Y31508D2*
X38271D1*
X39790D2*
X39991D1*
X44950D2*
X45160D1*
X45776D2*
X46257D1*
X46527D2*
X46683D1*
X38211Y31478D2*
X38271D1*
X39782D2*
X39982D1*
X44961D2*
X45171D1*
X45748D2*
X46147D1*
X46570D2*
X46691D1*
X38241Y31448D2*
X38271D1*
X39775D2*
X39971D1*
X44971D2*
X45181D1*
X45724D2*
X46041D1*
X46619D2*
X46697D1*
X38271Y31418D2*
D3*
X39769D2*
X39962D1*
X44981D2*
X45190D1*
X45701D2*
X46092D1*
X46671D2*
X46701D1*
X39760Y31388D2*
X39957D1*
X44991D2*
X45197D1*
X45677D2*
X46140D1*
X39752Y31358D2*
X39952D1*
X45001D2*
X45204D1*
X45650D2*
X46181D1*
X39746Y31328D2*
X39947D1*
X45012D2*
X45213D1*
X45626D2*
X46217D1*
X39744Y31298D2*
X39940D1*
X41451D2*
D3*
X43431D2*
X43491D1*
X45021D2*
X45221D1*
X45603D2*
X46250D1*
X39742Y31268D2*
X39932D1*
X41408D2*
X41481D1*
X43398D2*
X43521D1*
X45031D2*
X45228D1*
X45582D2*
X46280D1*
X39742Y31238D2*
X39926D1*
X41369D2*
X41493D1*
X43367D2*
X43551D1*
X45040D2*
X45234D1*
X45562D2*
X46306D1*
X39742Y31208D2*
X39924D1*
X41335D2*
X41505D1*
X43341D2*
X43581D1*
X45046D2*
X45243D1*
X45546D2*
X45711D1*
X46034D2*
X46328D1*
X39741Y31178D2*
X39922D1*
X41303D2*
X41517D1*
X43331D2*
X43611D1*
X45050D2*
X45251D1*
X45531D2*
X45591D1*
X46022D2*
X46345D1*
X39741Y31148D2*
X39922D1*
X41272D2*
X41526D1*
X43351D2*
X43641D1*
X45056D2*
X45256D1*
X45992D2*
X46359D1*
X39741Y31118D2*
X39922D1*
X41243D2*
X41521D1*
X43376D2*
X43671D1*
X45063D2*
X45259D1*
X45960D2*
X46370D1*
X39741Y31088D2*
X39921D1*
X41216D2*
X41502D1*
X43403D2*
X43701D1*
X45071D2*
X45261D1*
X45930D2*
X46381D1*
X39741Y31058D2*
X39921D1*
X41194D2*
X41477D1*
X43432D2*
X43732D1*
X45076D2*
X45261D1*
X45905D2*
X46391D1*
X39741Y31028D2*
X39921D1*
X41172D2*
X41450D1*
X43462D2*
X43763D1*
X45079D2*
X45262D1*
X45883D2*
X46401D1*
X39741Y30998D2*
X39921D1*
X41152D2*
X41421D1*
X43491D2*
X43797D1*
X45081D2*
X45266D1*
X45862D2*
X46411D1*
X39741Y30968D2*
X39921D1*
X41133D2*
X41391D1*
X43521D2*
X43835D1*
X45081D2*
X45274D1*
X45843D2*
X46138D1*
X46220D2*
X46422D1*
X39741Y30938D2*
X39921D1*
X41116D2*
X41363D1*
X43551D2*
X43878D1*
X45081D2*
X45281D1*
X45826D2*
X46095D1*
X46276D2*
X46431D1*
X39741Y30908D2*
X39921D1*
X41100D2*
X41336D1*
X43582D2*
X43925D1*
X45083D2*
X45287D1*
X45810D2*
X46062D1*
X46328D2*
X46441D1*
X39741Y30878D2*
X39921D1*
X41085D2*
X41315D1*
X43613D2*
X43978D1*
X45086D2*
X45289D1*
X45794D2*
X46036D1*
X46376D2*
X46450D1*
X39741Y30848D2*
X39921D1*
X41073D2*
X41296D1*
X43646D2*
X44034D1*
X45094D2*
X45291D1*
X45779D2*
X46013D1*
X46420D2*
X46457D1*
X39741Y30818D2*
X39921D1*
X41062D2*
X41280D1*
X43684D2*
X44094D1*
X45101D2*
X45291D1*
X45765D2*
X45993D1*
X46461D2*
D3*
X39741Y30788D2*
X39921D1*
X41052D2*
X41265D1*
X43722D2*
X44157D1*
X45107D2*
X45291D1*
X45753D2*
X45977D1*
X39741Y30758D2*
X39922D1*
X41043D2*
X41253D1*
X43762D2*
X44225D1*
X45109D2*
X45291D1*
X45742D2*
X45964D1*
X39741Y30728D2*
X39923D1*
X41037D2*
X41242D1*
X43803D2*
X44294D1*
X45111D2*
X45291D1*
X45730D2*
X45952D1*
X39741Y30698D2*
X39926D1*
X41032D2*
X41232D1*
X43846D2*
X44357D1*
X45111D2*
X45291D1*
X45716D2*
X45941D1*
X39742Y30668D2*
X39934D1*
X41027D2*
X41223D1*
X43892D2*
X44409D1*
X45111D2*
X45291D1*
X45698D2*
X45927D1*
X39743Y30638D2*
X39941D1*
X41020D2*
X41217D1*
X43934D2*
X44451D1*
X45111D2*
X45291D1*
X45675D2*
X45913D1*
X39746Y30608D2*
X39947D1*
X41012D2*
X41214D1*
X43968D2*
X44410D1*
X45111D2*
X45291D1*
X45649D2*
X45898D1*
X39754Y30578D2*
X39949D1*
X41006D2*
X41211D1*
X43981D2*
X44367D1*
X45110D2*
X45291D1*
X45619D2*
X45880D1*
X39761Y30548D2*
X39952D1*
X41004D2*
X41207D1*
X43960D2*
X44324D1*
X45106D2*
X45291D1*
X45586D2*
X45861D1*
X39767Y30518D2*
X39956D1*
X41002D2*
X41201D1*
X43932D2*
X44284D1*
X45099D2*
X45292D1*
X45547D2*
X45841D1*
X39769Y30488D2*
X39963D1*
X41002D2*
X41197D1*
X43897D2*
X44247D1*
X45092D2*
X45295D1*
X45501D2*
X45820D1*
X39772Y30458D2*
X39971D1*
X41002D2*
X41198D1*
X43861D2*
X44213D1*
X45086D2*
X45303D1*
X45440D2*
X45796D1*
X39776Y30428D2*
X39977D1*
X41002D2*
X41203D1*
X43826D2*
X44177D1*
X45084D2*
X45338D1*
X45357D2*
X45769D1*
X39783Y30398D2*
X39980D1*
X41003D2*
X41207D1*
X43792D2*
X44139D1*
X45082D2*
X45739D1*
X39791Y30368D2*
X39986D1*
X41006D2*
X41210D1*
X43757D2*
X44100D1*
X45082D2*
X45706D1*
X39796Y30338D2*
X39993D1*
X41014D2*
X41212D1*
X43718D2*
X44061D1*
X45080D2*
X45668D1*
X39799Y30308D2*
X40001D1*
X41021D2*
X41216D1*
X43677D2*
X44020D1*
X45076D2*
X45625D1*
X39802Y30278D2*
X40008D1*
X41027D2*
X41224D1*
X43634D2*
X43977D1*
X45069D2*
X45576D1*
X39806Y30248D2*
X40014D1*
X41030D2*
X41232D1*
X43594D2*
X43934D1*
X45061D2*
X45517D1*
X39813Y30218D2*
X40023D1*
X41036D2*
X41242D1*
X43556D2*
X43894D1*
X45055D2*
X45444D1*
X39821Y30188D2*
X40031D1*
X41043D2*
X41253D1*
X43519D2*
X43857D1*
X45049D2*
X45367D1*
X39828Y30158D2*
X40038D1*
X41051D2*
X41266D1*
X43480D2*
X43823D1*
X45040D2*
X45303D1*
X39834Y30128D2*
X40044D1*
X41058D2*
X41280D1*
X43441D2*
X43787D1*
X45031D2*
X45257D1*
X39843Y30098D2*
X40053D1*
X41064D2*
X41295D1*
X43401D2*
X43749D1*
X45021D2*
X45239D1*
X39852Y30068D2*
X40062D1*
X41074D2*
X41313D1*
X43360D2*
X43710D1*
X45011D2*
X45224D1*
X39861Y30038D2*
X40071D1*
X41087D2*
X41333D1*
X43316D2*
X43671D1*
X45001D2*
X45212D1*
X39872Y30008D2*
X40082D1*
X41105D2*
X41357D1*
X43268D2*
X43631D1*
X44992D2*
X45202D1*
X39882Y29978D2*
X40092D1*
X41126D2*
X41385D1*
X43215D2*
X43592D1*
X44980D2*
X45190D1*
X39891Y29948D2*
X40101D1*
X41149D2*
X41418D1*
X43159D2*
X43555D1*
X44967D2*
X45177D1*
X39901Y29918D2*
X40113D1*
X41170D2*
X41454D1*
X43100D2*
X43519D1*
X44953D2*
X45164D1*
X39912Y29888D2*
X40126D1*
X41192D2*
X41494D1*
X43040D2*
X43479D1*
X44939D2*
X45153D1*
X39921Y29858D2*
X40140D1*
X41216D2*
X41537D1*
X42975D2*
X43436D1*
X44924D2*
X45142D1*
X39933Y29828D2*
X40154D1*
X41244D2*
X41586D1*
X42903D2*
X43388D1*
X44909D2*
X45130D1*
X39946Y29798D2*
X40169D1*
X41272D2*
X41644D1*
X42822D2*
X43336D1*
X44894D2*
X45117D1*
X39960Y29768D2*
X40184D1*
X41302D2*
X41719D1*
X42728D2*
X43284D1*
X44878D2*
X45103D1*
X39974Y29738D2*
X40199D1*
X41333D2*
X41826D1*
X42609D2*
X43231D1*
X44860D2*
X45089D1*
X39989Y29708D2*
X40215D1*
X41368D2*
X41996D1*
X42439D2*
X43176D1*
X44841D2*
X45074D1*
X40004Y29678D2*
X40234D1*
X41410D2*
X42242D1*
X42204D2*
X43114D1*
X44821D2*
X45059D1*
X40019Y29648D2*
X40256D1*
X41461D2*
X43047D1*
X44801D2*
X45044D1*
X40035Y29618D2*
X40279D1*
X41520D2*
X42974D1*
X44781D2*
X45028D1*
X40053Y29588D2*
X40300D1*
X41588D2*
X42891D1*
X44761D2*
X45010D1*
X40072Y29558D2*
X40321D1*
X41666D2*
X42796D1*
X44740D2*
X44991D1*
X40091Y29528D2*
X40341D1*
X41759D2*
X42689D1*
X44716D2*
X44971D1*
X40108Y29498D2*
X40361D1*
X41871D2*
X42569D1*
X44689D2*
X44950D1*
X40124Y29468D2*
X40382D1*
X41991D2*
X42441D1*
X44661D2*
X44927D1*
X40144Y29438D2*
X40407D1*
X44631D2*
X44904D1*
X40166Y29408D2*
X40434D1*
X44601D2*
X44883D1*
X40189Y29378D2*
X40462D1*
X44571D2*
X44861D1*
X40210Y29348D2*
X40492D1*
X44541D2*
X44836D1*
X40232Y29318D2*
X40522D1*
X44511D2*
X44809D1*
X40256Y29288D2*
X40551D1*
X44480D2*
X44781D1*
X40284Y29258D2*
X40582D1*
X44446D2*
X44751D1*
X40312Y29228D2*
X40613D1*
X44408D2*
X44721D1*
X40342Y29198D2*
X40646D1*
X44367D2*
X44691D1*
X40372Y29168D2*
X40684D1*
X44324D2*
X44661D1*
X40401Y29138D2*
X40722D1*
X44282D2*
X44630D1*
X40431Y29108D2*
X40762D1*
X44242D2*
X44596D1*
X40462Y29078D2*
X40803D1*
X44200D2*
X44559D1*
X40493Y29048D2*
X40847D1*
X44156D2*
X44521D1*
X40527Y29018D2*
X40895D1*
X44107D2*
X44485D1*
X40565Y28988D2*
X40948D1*
X44050D2*
X44447D1*
X40606Y28958D2*
X41004D1*
X43987D2*
X44405D1*
X40650Y28928D2*
X41063D1*
X43920D2*
X44358D1*
X40694Y28898D2*
X41123D1*
X43855D2*
X44311D1*
X40739Y28868D2*
X41187D1*
X43787D2*
X44265D1*
X40785Y28838D2*
X41255D1*
X43714D2*
X44218D1*
X40833Y28808D2*
X41328D1*
X43633D2*
X44169D1*
X40882Y28778D2*
X41406D1*
X43547D2*
X44115D1*
X40930Y28748D2*
X41495D1*
X43452D2*
X44058D1*
X40975Y28718D2*
X41600D1*
X43344D2*
X43995D1*
X41012Y28688D2*
X41725D1*
X43212D2*
X43929D1*
X41041Y28658D2*
X41872D1*
X43053D2*
X43860D1*
X41050Y28628D2*
X42033D1*
X42872D2*
X43789D1*
X41046Y28598D2*
X43709D1*
X41040Y28568D2*
X41241D1*
X41337D2*
X43615D1*
X41036Y28538D2*
X41241D1*
X41440D2*
X43510D1*
X41033Y28508D2*
X41240D1*
X41553D2*
X43394D1*
X41032Y28478D2*
X41236D1*
X41681D2*
X43268D1*
X41032Y28448D2*
X41229D1*
X41837D2*
X43130D1*
X41032Y28418D2*
X41222D1*
X42025D2*
X42982D1*
X41031Y28388D2*
X41216D1*
X42231D2*
X42831D1*
X41031Y28358D2*
X41214D1*
X42651D2*
X42845D1*
X41031Y28328D2*
X41212D1*
X42651D2*
X42854D1*
X41031Y28298D2*
X41212D1*
X42651D2*
X42858D1*
X41031Y28268D2*
X41212D1*
X42651D2*
X42860D1*
X41030Y28238D2*
X41211D1*
X42652D2*
X42861D1*
X41026Y28208D2*
X41211D1*
X42653D2*
X42861D1*
X41019Y28178D2*
X41211D1*
X42656D2*
X42861D1*
X41012Y28148D2*
X41211D1*
X42664D2*
X42861D1*
X41006Y28118D2*
X41211D1*
X42671D2*
X42862D1*
X41004Y28088D2*
X41210D1*
X42677D2*
X42863D1*
X41002Y28058D2*
X41206D1*
X42679D2*
X42866D1*
X41000Y28028D2*
X41199D1*
X42681D2*
X42874D1*
X40997Y27998D2*
X41194D1*
X42681D2*
X42881D1*
X40979Y27968D2*
X41193D1*
X42681D2*
X42887D1*
X40950Y27938D2*
X41213D1*
X42681D2*
X42889D1*
X40913Y27908D2*
X41240D1*
X42681D2*
X42891D1*
X40873Y27878D2*
X41270D1*
X42681D2*
X42893D1*
X40833Y27848D2*
X41301D1*
X42682D2*
X42908D1*
X40797Y27818D2*
X41331D1*
X42683D2*
X42963D1*
X40763Y27788D2*
X41361D1*
X42687D2*
X43044D1*
X40727Y27758D2*
X41391D1*
X42698D2*
X43144D1*
X40689Y27728D2*
X41421D1*
X42711D2*
X43251D1*
X40650Y27698D2*
X41452D1*
X42683D2*
X43357D1*
X40611Y27668D2*
X41483D1*
X42656D2*
X43452D1*
X40573Y27638D2*
X40910D1*
X40971D2*
X41516D1*
X42634D2*
X43526D1*
X40540Y27608D2*
X40876D1*
X40971D2*
X41187D1*
X41241D2*
X41554D1*
X42611D2*
X43586D1*
X40515Y27578D2*
X40839D1*
X40971D2*
X41170D1*
X41271D2*
X41591D1*
X42588D2*
X43588D1*
X40511Y27548D2*
X40800D1*
X40971D2*
X41160D1*
X41301D2*
X41625D1*
X42564D2*
X42983D1*
X43071D2*
X43585D1*
X40521Y27518D2*
X40761D1*
X40971D2*
X41155D1*
X41332D2*
X41652D1*
X42543D2*
X42986D1*
X43191D2*
X43579D1*
X40536Y27488D2*
X40721D1*
X40971D2*
X41153D1*
X41363D2*
X41671D1*
X42522D2*
X42994D1*
X43311D2*
X43570D1*
X40558Y27458D2*
X40682D1*
X40971D2*
X41152D1*
X41396D2*
X41669D1*
X42503D2*
X43002D1*
X43431D2*
X43561D1*
X40584Y27428D2*
X40646D1*
X40970D2*
X41152D1*
X41434D2*
X41651D1*
X42486D2*
X42742D1*
X42806D2*
X43012D1*
X43551D2*
D3*
X40611Y27398D2*
D3*
X40966D2*
X41151D1*
X41471D2*
X41627D1*
X42485D2*
X42713D1*
X42814D2*
X43022D1*
X40959Y27368D2*
X41151D1*
X41507D2*
X41600D1*
X42504D2*
X42686D1*
X42822D2*
X43032D1*
X40950Y27338D2*
X41151D1*
X41541D2*
X41571D1*
X42531D2*
X42664D1*
X42831D2*
X43041D1*
X40941Y27308D2*
X41151D1*
X42561D2*
X42643D1*
X42842D2*
X43051D1*
X41091Y27278D2*
X41151D1*
X42591D2*
X42621D1*
X42852D2*
X43059D1*
X42861Y27248D2*
X43062D1*
X42872Y27218D2*
X43042D1*
X42882Y27188D2*
X42987D1*
X42891Y27158D2*
X42921D1*
X40941Y35108D2*
X40850Y35078D1*
X40770Y35048D1*
X40701Y35018D1*
X40644Y34988D1*
X40593Y34958D1*
X40547Y34928D1*
X40505Y34898D1*
X40467Y34868D1*
X40434Y34838D1*
X40403Y34808D1*
X40373Y34778D1*
X40345Y34748D1*
X40320Y34718D1*
X40294Y34688D1*
X40269Y34658D1*
X40245Y34628D1*
X40223Y34598D1*
X40202Y34568D1*
X40182Y34538D1*
X40161Y34508D1*
X40143Y34478D1*
X40126Y34448D1*
X40110Y34418D1*
X40094Y34388D1*
X40079Y34358D1*
X40064Y34328D1*
X40049Y34298D1*
X40034Y34268D1*
X40019Y34238D1*
X40004Y34208D1*
X39989Y34178D1*
X39974Y34148D1*
X39959Y34118D1*
X39944Y34088D1*
X39929Y34058D1*
X39915Y34028D1*
X39903Y33998D1*
X39892Y33968D1*
X39880Y33938D1*
X39867Y33908D1*
X39850Y33878D1*
X39831Y33848D1*
X41391Y35108D2*
X41494Y35078D1*
X41588Y35048D1*
X41670Y35018D1*
X41742Y34988D1*
X41806Y34958D1*
X41864Y34928D1*
X41914Y34898D1*
X41958Y34868D1*
X42000Y34838D1*
X42040Y34808D1*
X42076Y34778D1*
X42109Y34748D1*
X42141Y34718D1*
X42171Y34688D1*
X42201Y34658D1*
X42230Y34628D1*
X42256Y34598D1*
X42278Y34568D1*
X42296Y34538D1*
X42313Y34508D1*
X42329Y34478D1*
X42344Y34448D1*
X42359Y34418D1*
X42374Y34388D1*
X42388Y34358D1*
X42399Y34328D1*
X42407Y34298D1*
X42414Y34268D1*
X42423Y34238D1*
X42431Y34208D1*
X42436Y34178D1*
X42439Y34148D1*
X42441Y34118D1*
Y34088D1*
Y34058D1*
Y34028D1*
Y33998D1*
Y33968D1*
Y33938D1*
Y33908D1*
Y33878D1*
X42440Y33848D1*
X42436Y33818D1*
X42429Y33788D1*
X42421Y33758D1*
X42415Y33728D1*
X42409Y33698D1*
X42400Y33668D1*
X42391Y33638D1*
X42381Y33608D1*
X42371Y33578D1*
X42361Y33548D1*
X42352Y33518D1*
X42340Y33488D1*
X42327Y33458D1*
X42314Y33428D1*
X42303Y33398D1*
X42292Y33368D1*
X42280Y33338D1*
X42267Y33308D1*
X42253Y33278D1*
X42239Y33248D1*
X42224Y33218D1*
X42208Y33188D1*
X42190Y33158D1*
X42171Y33128D1*
X42152Y33098D1*
X42135Y33068D1*
X42118Y33038D1*
X42099Y33008D1*
X42077Y32978D1*
X42054Y32948D1*
X42033Y32918D1*
X42012Y32888D1*
X41991Y32858D1*
X41971Y32828D1*
X41951Y32798D1*
X41927Y32768D1*
X41904Y32738D1*
X41883Y32708D1*
X41861Y32678D1*
X41837Y32648D1*
X41811Y32618D1*
X41841Y32588D1*
X41121Y34928D2*
X41010Y34898D1*
X40911Y34868D1*
X40832Y34838D1*
X40768Y34808D1*
X40715Y34778D1*
X40667Y34748D1*
X40625Y34718D1*
X40587Y34688D1*
X40551Y34658D1*
X40662Y34628D1*
X40748Y34598D1*
X40811Y34568D1*
X40858Y34538D1*
X40891Y34508D1*
X40917Y34478D1*
X40940Y34448D1*
X40960Y34418D1*
X40977Y34388D1*
X40993Y34358D1*
X41008Y34328D1*
X41020Y34298D1*
X41031Y34268D1*
X41041Y34238D1*
X41051Y34208D1*
X41059Y34178D1*
X41068Y34148D1*
X41092Y34118D1*
X41121Y34088D1*
X41271Y34928D2*
X41361Y34898D1*
X41450Y34868D1*
X41535Y34838D1*
X41612Y34808D1*
X41678Y34778D1*
X41736Y34748D1*
X41789Y34718D1*
X41841Y34688D1*
X41889Y34658D1*
X41931Y34628D1*
X41966Y34598D1*
X41995Y34568D1*
X42024Y34538D1*
X42052Y34508D1*
X42081Y34478D1*
X42106Y34448D1*
X42128Y34418D1*
X42146Y34388D1*
X42163Y34358D1*
X42179Y34328D1*
X42194Y34298D1*
X42208Y34268D1*
X42219Y34238D1*
X42227Y34208D1*
X42234Y34178D1*
X42243Y34148D1*
X42251Y34118D1*
X42256Y34088D1*
X42259Y34058D1*
X42261Y34028D1*
Y33998D1*
Y33968D1*
X42260Y33938D1*
X42256Y33908D1*
X42249Y33878D1*
X42241Y33848D1*
X42235Y33818D1*
X42229Y33788D1*
X42220Y33758D1*
X42211Y33728D1*
X42201Y33698D1*
X42191Y33668D1*
X42181Y33638D1*
X42172Y33608D1*
X42160Y33578D1*
X42147Y33548D1*
X42134Y33518D1*
X42123Y33488D1*
X42112Y33458D1*
X42100Y33428D1*
X42086Y33398D1*
X42069Y33368D1*
X42050Y33338D1*
X42032Y33308D1*
X42015Y33278D1*
X41999Y33248D1*
X41984Y33218D1*
X41968Y33188D1*
X41950Y33158D1*
X41931Y33128D1*
X41911Y33098D1*
X41890Y33068D1*
X41867Y33038D1*
X41844Y33008D1*
X41823Y32978D1*
X41801Y32948D1*
X41778Y32918D1*
X41754Y32888D1*
X41733Y32858D1*
X41711Y32828D1*
X41688Y32798D1*
X41664Y32768D1*
X41643Y32738D1*
X41621Y32708D1*
X41596Y32678D1*
X41569Y32648D1*
X41541Y32618D1*
X41511Y32588D1*
X41481Y32558D1*
X41450Y32528D1*
X41416Y32498D1*
X41378Y32468D1*
X41336Y32438D1*
X41293Y32408D1*
X41247Y32378D1*
X41200Y32348D1*
X41151Y32318D1*
X41102Y32288D1*
X41056Y32258D1*
X41011Y32228D1*
X40971Y32198D1*
X40939Y32168D1*
X40911Y32138D1*
X40521Y34448D2*
X40443Y34418D1*
X40379Y34388D1*
X40333Y34358D1*
X40301Y34328D1*
X40275Y34298D1*
X40253Y34268D1*
X40233Y34238D1*
X40216Y34208D1*
X40200Y34178D1*
X40185Y34148D1*
X40173Y34118D1*
X40162Y34088D1*
X40151Y34058D1*
X40138Y34028D1*
X40125Y33998D1*
X40115Y33968D1*
X40110Y33938D1*
X40117Y33908D1*
X40128Y33878D1*
X40143Y33848D1*
X40161Y33818D1*
X40551Y34448D2*
X40625Y34418D1*
X40683Y34388D1*
X40724Y34358D1*
X40754Y34328D1*
X40778Y34298D1*
X40796Y34268D1*
X40813Y34238D1*
X40827Y34208D1*
X40839Y34178D1*
X40847Y34148D1*
X40854Y34118D1*
X40861Y34088D1*
X40866Y34058D1*
X40864Y34028D1*
X40859Y33998D1*
X40854Y33968D1*
X40848Y33938D1*
X40839Y33908D1*
X40826Y33878D1*
X40808Y33848D1*
X40785Y33818D1*
X40759Y33788D1*
X40729Y33758D1*
X40692Y33728D1*
X40639Y33698D1*
X40560Y33668D1*
X40457Y33638D1*
X40341Y33608D1*
X41301Y34178D2*
X41216Y34148D1*
X41126Y34118D1*
X41031Y34088D1*
X41601Y34178D2*
X41657Y34148D1*
X41707Y34118D1*
X41750Y34088D1*
X41786Y34058D1*
X41815Y34028D1*
X41842Y33998D1*
X41866Y33968D1*
X41885Y33938D1*
X41898Y33908D1*
X41910Y33878D1*
X41920Y33848D1*
X41926Y33818D1*
X41929Y33788D1*
X41932Y33758D1*
X41936Y33728D1*
X41943Y33698D1*
X41951Y33668D1*
X41955Y33638D1*
X41954Y33608D1*
X41948Y33578D1*
X41941Y33548D1*
X41936Y33518D1*
X41933Y33488D1*
X41931Y33458D1*
X41927Y33428D1*
X41919Y33398D1*
X41910Y33368D1*
X41901Y33338D1*
X41890Y33308D1*
X41877Y33278D1*
X41863Y33248D1*
X41847Y33218D1*
X41829Y33188D1*
X41806Y33158D1*
X41779Y33128D1*
X41751Y33098D1*
X41722Y33068D1*
X41695Y33038D1*
X41667Y33008D1*
X41633Y32978D1*
X41588Y32948D1*
X41536Y32918D1*
X41479Y32888D1*
X41421Y32858D1*
X40281Y34028D2*
X40243Y33998D1*
X40213Y33968D1*
X40202Y33938D1*
X40195Y33908D1*
X40187Y33878D1*
X40176Y33848D1*
X40161Y33818D1*
X40371Y34028D2*
X40409Y33998D1*
X40440Y33968D1*
X40451Y33938D1*
X40457Y33908D1*
X40459Y33878D1*
X40455Y33848D1*
X40448Y33818D1*
X40425Y33788D1*
X40387Y33758D1*
X40337Y33728D1*
X40281Y33698D1*
X40363Y33668D1*
X40454Y33638D1*
X40551Y33608D1*
X38871Y33998D2*
X38745Y33968D1*
X38634Y33938D1*
X38541Y33908D1*
X38465Y33878D1*
X38398Y33848D1*
X38338Y33818D1*
X38285Y33788D1*
X38237Y33758D1*
X38190Y33728D1*
X38145Y33698D1*
X38104Y33668D1*
X38067Y33638D1*
X38034Y33608D1*
X38002Y33578D1*
X37972Y33548D1*
X37943Y33518D1*
X37916Y33488D1*
X37894Y33458D1*
X37871Y33428D1*
X37847Y33398D1*
X37820Y33368D1*
X37796Y33338D1*
X37774Y33308D1*
X37756Y33278D1*
X37740Y33248D1*
X37725Y33218D1*
X37713Y33188D1*
X37702Y33158D1*
X37692Y33128D1*
X37681Y33098D1*
X37672Y33068D1*
X37661Y33038D1*
X37652Y33008D1*
X37645Y32978D1*
X37639Y32948D1*
X37630Y32918D1*
X37622Y32888D1*
X37616Y32858D1*
X37614Y32828D1*
X37612Y32798D1*
Y32768D1*
Y32738D1*
X37611Y32708D1*
X37612Y32678D1*
X37613Y32648D1*
X37616Y32618D1*
X37624Y32588D1*
X37631Y32558D1*
X37637Y32528D1*
X37639Y32498D1*
X37642Y32468D1*
X37646Y32438D1*
X37654Y32408D1*
X37662Y32378D1*
X37671Y32348D1*
X37682Y32318D1*
X37692Y32288D1*
X37701Y32258D1*
X37713Y32228D1*
X37726Y32198D1*
X37740Y32168D1*
X37754Y32138D1*
X37769Y32108D1*
X37784Y32078D1*
X37799Y32048D1*
X37814Y32018D1*
X37829Y31988D1*
X37845Y31958D1*
X37863Y31928D1*
X37882Y31898D1*
X37901Y31868D1*
X37918Y31838D1*
X37934Y31808D1*
X37953Y31778D1*
X37972Y31748D1*
X37992Y31718D1*
X38012Y31688D1*
X38037Y31658D1*
X38064Y31628D1*
X38092Y31598D1*
X38122Y31568D1*
X38152Y31538D1*
X38181Y31508D1*
X38211Y31478D1*
X38241Y31448D1*
X38271Y31418D1*
X39291Y33998D2*
X39444Y33968D1*
X39578Y33938D1*
X39698Y33908D1*
X39810Y33878D1*
X39921Y33848D1*
X41451Y33998D2*
X41367Y33968D1*
X41291Y33938D1*
X41226Y33908D1*
X41173Y33878D1*
X41131Y33848D1*
X41097Y33818D1*
X41068Y33788D1*
X41045Y33758D1*
X41027Y33728D1*
X41010Y33698D1*
X40995Y33668D1*
X40983Y33638D1*
X40972Y33608D1*
X40962Y33578D1*
X40953Y33548D1*
X40947Y33518D1*
X40944Y33488D1*
X40942Y33458D1*
Y33428D1*
X40943Y33398D1*
X40946Y33368D1*
X40954Y33338D1*
X40963Y33308D1*
X40973Y33278D1*
X40988Y33248D1*
X41008Y33218D1*
X41031Y33188D1*
X41057Y33158D1*
X41097Y33128D1*
X41164Y33098D1*
X41267Y33068D1*
X41391Y33038D1*
X41451Y33998D2*
X41529Y33968D1*
X41594Y33938D1*
X41640Y33908D1*
X41671Y33878D1*
X41693Y33848D1*
X41708Y33818D1*
X41720Y33788D1*
X41731Y33758D1*
X41740Y33728D1*
X41746Y33698D1*
X41749Y33668D1*
X41751Y33638D1*
Y33608D1*
X41750Y33578D1*
X41746Y33548D1*
X41739Y33518D1*
X41730Y33488D1*
X41721Y33458D1*
X41711Y33428D1*
X41701Y33398D1*
X41692Y33368D1*
X41680Y33338D1*
X41666Y33308D1*
X41648Y33278D1*
X41624Y33248D1*
X41594Y33218D1*
X41557Y33188D1*
X41514Y33158D1*
X41461Y33128D1*
X41386Y33098D1*
X41278Y33068D1*
X41151Y33038D1*
X38931Y33788D2*
X38814Y33758D1*
X38703Y33728D1*
X38605Y33698D1*
X38521Y33668D1*
X38451Y33638D1*
X38390Y33608D1*
X38336Y33578D1*
X38289Y33548D1*
X38249Y33518D1*
X38215Y33488D1*
X38183Y33458D1*
X38152Y33428D1*
X38122Y33398D1*
X38091Y33368D1*
X38062Y33338D1*
X38033Y33308D1*
X38007Y33278D1*
X37985Y33248D1*
X37966Y33218D1*
X37950Y33188D1*
X37934Y33158D1*
X37919Y33128D1*
X37904Y33098D1*
X37889Y33068D1*
X37875Y33038D1*
X37864Y33008D1*
X37856Y32978D1*
X37849Y32948D1*
X37840Y32918D1*
X37832Y32888D1*
X37826Y32858D1*
X37824Y32828D1*
X37822Y32798D1*
Y32768D1*
Y32738D1*
X37821Y32708D1*
Y32678D1*
X37822Y32648D1*
X37823Y32618D1*
X37826Y32588D1*
X37834Y32558D1*
X37841Y32528D1*
X37848Y32498D1*
X37854Y32468D1*
X37863Y32438D1*
X37872Y32408D1*
X37881Y32378D1*
X37892Y32348D1*
X37902Y32318D1*
X37911Y32288D1*
X37921Y32258D1*
X37932Y32228D1*
X37941Y32198D1*
X37953Y32168D1*
X37967Y32138D1*
X37983Y32108D1*
X38003Y32078D1*
X38022Y32048D1*
X38041Y32018D1*
X38062Y31988D1*
X38081Y31958D1*
X38101Y31928D1*
X38121Y31898D1*
X38931Y33788D2*
X38961Y33758D1*
X38991Y33728D1*
X39021Y33698D1*
X39050Y33668D1*
X39076Y33638D1*
X39099Y33608D1*
X39120Y33578D1*
X39140Y33548D1*
X39156Y33518D1*
X39169Y33488D1*
X39182Y33458D1*
X39195Y33428D1*
X39208Y33398D1*
X39220Y33368D1*
X39231Y33338D1*
X39241Y33308D1*
X39251Y33278D1*
X39261Y33248D1*
X39271Y33218D1*
X39280Y33188D1*
X39286Y33158D1*
X39289Y33128D1*
X39291Y33098D1*
Y33068D1*
Y33038D1*
Y33008D1*
Y32978D1*
Y32948D1*
Y32918D1*
Y32888D1*
Y32858D1*
Y32828D1*
X39290Y32798D1*
X39275Y32768D1*
X39220Y32738D1*
X39140Y32708D1*
X39045Y32678D1*
X38951Y32648D1*
X38866Y32618D1*
X38794Y32588D1*
X38731Y32558D1*
X38677Y32528D1*
X38628Y32498D1*
X38585Y32468D1*
X38548Y32438D1*
X38514Y32408D1*
X38481Y32378D1*
X38448Y32348D1*
X38414Y32318D1*
X38384Y32288D1*
X38356Y32258D1*
X38329Y32228D1*
X38301Y32198D1*
X38277Y32168D1*
X38258Y32138D1*
X38243Y32108D1*
X38228Y32078D1*
X38209Y32048D1*
X38192Y32018D1*
X38175Y31988D1*
X38159Y31958D1*
X38141Y31928D1*
X38121Y31898D1*
X39201Y33788D2*
X39230Y33758D1*
X39256Y33728D1*
X39279Y33698D1*
X39300Y33668D1*
X39321Y33638D1*
X39340Y33608D1*
X39356Y33578D1*
X39369Y33548D1*
X39380Y33518D1*
X39392Y33488D1*
X39405Y33458D1*
X39418Y33428D1*
X39430Y33398D1*
X39441Y33368D1*
X39451Y33338D1*
X39460Y33308D1*
X39466Y33278D1*
X39470Y33248D1*
X39476Y33218D1*
X39483Y33188D1*
X39491Y33158D1*
X39496Y33128D1*
X39499Y33098D1*
X39501Y33068D1*
Y33038D1*
Y33008D1*
Y32978D1*
Y32948D1*
Y32918D1*
Y32888D1*
X39502Y32858D1*
X39504Y32828D1*
X39509Y32798D1*
X39533Y32768D1*
X39561Y32738D1*
X39171Y33788D2*
X39335Y33758D1*
X39481Y33728D1*
X39607Y33698D1*
X39715Y33668D1*
X39804Y33638D1*
X39881Y33608D1*
X39951Y33578D1*
X40221Y33758D2*
X40259Y33728D1*
X40307Y33698D1*
X40374Y33668D1*
X40458Y33638D1*
X40551Y33608D1*
X40281Y33758D2*
X40311Y33728D1*
X40041Y33638D2*
X40011Y33608D1*
X39981Y33578D1*
X40041Y33638D2*
X40072Y33608D1*
X40103Y33578D1*
X40137Y33548D1*
X40176Y33518D1*
X40223Y33488D1*
X40279Y33458D1*
X40341Y33428D1*
X41121Y33548D2*
X41083Y33518D1*
X41056Y33488D1*
X41037Y33458D1*
X41020Y33428D1*
X41001Y33398D1*
X41017Y33368D1*
X41033Y33338D1*
X41053Y33308D1*
X41099Y33278D1*
X41151Y33248D1*
X41211Y33548D2*
X41244Y33518D1*
X41268Y33488D1*
X41285Y33458D1*
X41294Y33428D1*
X41297Y33398D1*
Y33368D1*
X41282Y33338D1*
X41257Y33308D1*
X41222Y33278D1*
X41181Y33248D1*
X40761Y33488D2*
X40671Y33458D1*
X40581Y33428D1*
X40731Y33488D2*
Y33458D1*
X40732Y33428D1*
X40733Y33398D1*
X40736Y33368D1*
X40744Y33338D1*
X40751Y33308D1*
X40758Y33278D1*
X40764Y33248D1*
X40774Y33218D1*
X40786Y33188D1*
X40800Y33158D1*
X40815Y33128D1*
X40834Y33098D1*
X40856Y33068D1*
X40880Y33038D1*
X40905Y33008D1*
X40935Y32978D1*
X40973Y32948D1*
X41017Y32918D1*
X41068Y32888D1*
X41121Y32858D1*
X40461Y33098D2*
X40442Y33068D1*
X40422Y33038D1*
X40400Y33008D1*
X40376Y32978D1*
X40347Y32948D1*
X40307Y32918D1*
X40250Y32888D1*
X40158Y32858D1*
X40011Y32828D1*
X39793Y32798D1*
X39512Y32768D1*
X39201Y32738D1*
X40491Y33098D2*
X40544Y33068D1*
X40587Y33038D1*
X40623Y33008D1*
X40617Y32978D1*
X40605Y32948D1*
X40589Y32918D1*
X40569Y32888D1*
X40546Y32858D1*
X40519Y32828D1*
X40490Y32798D1*
X40461Y32768D1*
X40430Y32738D1*
X40391Y32708D1*
X40333Y32678D1*
X40241Y32648D1*
X40103Y32618D1*
X39914Y32588D1*
X39686Y32558D1*
X39441Y32528D1*
X39440Y32498D1*
X39436Y32468D1*
X39429Y32438D1*
X39420Y32408D1*
X39411Y32378D1*
X39401Y32348D1*
X39391Y32318D1*
X39382Y32288D1*
X39370Y32258D1*
X39357Y32228D1*
X39344Y32198D1*
X39334Y32168D1*
X39327Y32138D1*
X39321Y32108D1*
X39531Y32078D1*
X42561Y32708D2*
X42323Y32678D1*
X42102Y32648D1*
X41895Y32618D1*
X41691Y32588D1*
X43461Y32708D2*
X43634Y32678D1*
X43785Y32648D1*
X43910Y32618D1*
X44014Y32588D1*
X44103Y32558D1*
X44183Y32528D1*
X44256Y32498D1*
X44320Y32468D1*
X44375Y32438D1*
X44425Y32408D1*
X44473Y32378D1*
X44518Y32348D1*
X44564Y32318D1*
X44608Y32288D1*
X44649Y32258D1*
X44686Y32228D1*
X44719Y32198D1*
X44752Y32168D1*
X44787Y32138D1*
X44827Y32108D1*
X44871Y32078D1*
X42921Y32528D2*
X42666Y32498D1*
X42431Y32468D1*
X42226Y32438D1*
X42051Y32408D1*
X41899Y32378D1*
X41762Y32348D1*
X41631Y32318D1*
X41501Y32288D1*
X41373Y32258D1*
X41252Y32228D1*
X41136Y32198D1*
X41024Y32168D1*
X40911Y32138D1*
X43161Y32528D2*
X43363Y32498D1*
X43549Y32468D1*
X43710Y32438D1*
X43842Y32408D1*
X43949Y32378D1*
X44038Y32348D1*
X44115Y32318D1*
X44188Y32288D1*
X44255Y32258D1*
X44312Y32228D1*
X44363Y32198D1*
X44408Y32168D1*
X44450Y32138D1*
X44491Y32108D1*
X44530Y32078D1*
X44566Y32048D1*
X44599Y32018D1*
X44631Y31988D1*
X44661Y31958D1*
X44691Y31928D1*
X44720Y31898D1*
X44746Y31868D1*
X44768Y31838D1*
X44787Y31808D1*
X44804Y31778D1*
X44822Y31748D1*
X44842Y31718D1*
X44860Y31688D1*
X44877Y31658D1*
X44893Y31628D1*
X44909Y31598D1*
X44924Y31568D1*
X44938Y31538D1*
X44950Y31508D1*
X44961Y31478D1*
X44971Y31448D1*
X44981Y31418D1*
X44991Y31388D1*
X45001Y31358D1*
X45012Y31328D1*
X45021Y31298D1*
X45031Y31268D1*
X45040Y31238D1*
X45046Y31208D1*
X45050Y31178D1*
X45056Y31148D1*
X45063Y31118D1*
X45071Y31088D1*
X45076Y31058D1*
X45079Y31028D1*
X45081Y30998D1*
Y30968D1*
Y30938D1*
X45083Y30908D1*
X45086Y30878D1*
X45094Y30848D1*
X45101Y30818D1*
X45107Y30788D1*
X45109Y30758D1*
X45111Y30728D1*
Y30698D1*
Y30668D1*
Y30638D1*
Y30608D1*
X45110Y30578D1*
X45106Y30548D1*
X45099Y30518D1*
X45092Y30488D1*
X45086Y30458D1*
X45084Y30428D1*
X45082Y30398D1*
Y30368D1*
X45080Y30338D1*
X45076Y30308D1*
X45069Y30278D1*
X45061Y30248D1*
X45055Y30218D1*
X45049Y30188D1*
X45040Y30158D1*
X45031Y30128D1*
X45021Y30098D1*
X45011Y30068D1*
X45001Y30038D1*
X44992Y30008D1*
X44980Y29978D1*
X44967Y29948D1*
X44953Y29918D1*
X44939Y29888D1*
X44924Y29858D1*
X44909Y29828D1*
X44894Y29798D1*
X44878Y29768D1*
X44860Y29738D1*
X44841Y29708D1*
X44821Y29678D1*
X44801Y29648D1*
X44781Y29618D1*
X44761Y29588D1*
X44740Y29558D1*
X44716Y29528D1*
X44689Y29498D1*
X44661Y29468D1*
X44631Y29438D1*
X44601Y29408D1*
X44571Y29378D1*
X44541Y29348D1*
X44511Y29318D1*
X44480Y29288D1*
X44446Y29258D1*
X44408Y29228D1*
X44367Y29198D1*
X44324Y29168D1*
X44282Y29138D1*
X44242Y29108D1*
X44200Y29078D1*
X44156Y29048D1*
X44107Y29018D1*
X44050Y28988D1*
X43987Y28958D1*
X43920Y28928D1*
X43855Y28898D1*
X43787Y28868D1*
X43714Y28838D1*
X43633Y28808D1*
X43547Y28778D1*
X43452Y28748D1*
X43344Y28718D1*
X43212Y28688D1*
X43053Y28658D1*
X42872Y28628D1*
X42681Y28598D1*
X39231Y32498D2*
X39123Y32468D1*
X39028Y32438D1*
X38948Y32408D1*
X38878Y32378D1*
X38814Y32348D1*
X38752Y32318D1*
X38691Y32288D1*
X38752Y32258D1*
X38813Y32228D1*
X38880Y32198D1*
X38962Y32168D1*
X39061Y32138D1*
X39171Y32108D1*
X39261Y32498D2*
X39237Y32468D1*
X39220Y32438D1*
X39209Y32408D1*
X39200Y32378D1*
X39190Y32348D1*
X39181Y32318D1*
X39171Y32288D1*
X39160Y32258D1*
X39147Y32228D1*
X39132Y32198D1*
X39112Y32168D1*
X39084Y32138D1*
X39051Y32108D1*
X45471Y32318D2*
X45308Y32288D1*
X45179Y32258D1*
X45086Y32228D1*
X45017Y32198D1*
X44961Y32168D1*
X44911Y32138D1*
X44861Y32108D1*
X44811Y32078D1*
X45531Y32318D2*
X45501Y32288D1*
X45711Y32318D2*
X45741Y32288D1*
X45771Y32318D2*
X45741Y32288D1*
X40281D2*
X40186Y32258D1*
X40083Y32228D1*
X39970Y32198D1*
X39837Y32168D1*
X39662Y32138D1*
X39433Y32108D1*
X39171Y32078D1*
X40401Y32288D2*
X40406Y32258D1*
X40413Y32228D1*
X40421Y32198D1*
X40425Y32168D1*
Y32138D1*
X40412Y32108D1*
X40382Y32078D1*
X40348Y32048D1*
X40315Y32018D1*
X40283Y31988D1*
X40252Y31958D1*
X40222Y31928D1*
X40193Y31898D1*
X40167Y31868D1*
X40145Y31838D1*
X40126Y31808D1*
X40110Y31778D1*
X40094Y31748D1*
X40079Y31718D1*
X40064Y31688D1*
X40049Y31658D1*
X40035Y31628D1*
X40023Y31598D1*
X40012Y31568D1*
X40002Y31538D1*
X39991Y31508D1*
X39982Y31478D1*
X39971Y31448D1*
X39962Y31418D1*
X39957Y31388D1*
X39952Y31358D1*
X39947Y31328D1*
X39940Y31298D1*
X39932Y31268D1*
X39926Y31238D1*
X39924Y31208D1*
X39922Y31178D1*
Y31148D1*
Y31118D1*
X39921Y31088D1*
Y31058D1*
Y31028D1*
Y30998D1*
Y30968D1*
Y30938D1*
Y30908D1*
Y30878D1*
Y30848D1*
Y30818D1*
Y30788D1*
X39922Y30758D1*
X39923Y30728D1*
X39926Y30698D1*
X39934Y30668D1*
X39941Y30638D1*
X39947Y30608D1*
X39949Y30578D1*
X39952Y30548D1*
X39956Y30518D1*
X39963Y30488D1*
X39971Y30458D1*
X39977Y30428D1*
X39980Y30398D1*
X39986Y30368D1*
X39993Y30338D1*
X40001Y30308D1*
X40008Y30278D1*
X40014Y30248D1*
X40023Y30218D1*
X40031Y30188D1*
X40038Y30158D1*
X40044Y30128D1*
X40053Y30098D1*
X40062Y30068D1*
X40071Y30038D1*
X40082Y30008D1*
X40092Y29978D1*
X40101Y29948D1*
X40113Y29918D1*
X40126Y29888D1*
X40140Y29858D1*
X40154Y29828D1*
X40169Y29798D1*
X40184Y29768D1*
X40199Y29738D1*
X40215Y29708D1*
X40234Y29678D1*
X40256Y29648D1*
X40279Y29618D1*
X40300Y29588D1*
X40321Y29558D1*
X40341Y29528D1*
X40361Y29498D1*
X40382Y29468D1*
X40407Y29438D1*
X40434Y29408D1*
X40462Y29378D1*
X40492Y29348D1*
X40522Y29318D1*
X40551Y29288D1*
X40582Y29258D1*
X40613Y29228D1*
X40646Y29198D1*
X40684Y29168D1*
X40722Y29138D1*
X40762Y29108D1*
X40803Y29078D1*
X40847Y29048D1*
X40895Y29018D1*
X40948Y28988D1*
X41004Y28958D1*
X41063Y28928D1*
X41123Y28898D1*
X41187Y28868D1*
X41255Y28838D1*
X41328Y28808D1*
X41406Y28778D1*
X41495Y28748D1*
X41600Y28718D1*
X41725Y28688D1*
X41872Y28658D1*
X42033Y28628D1*
X42201Y28598D1*
X46041Y32288D2*
X46100Y32258D1*
X46155Y32228D1*
X46204Y32198D1*
X46247Y32168D1*
X46285Y32138D1*
X46318Y32108D1*
X46346Y32078D1*
X46374Y32048D1*
X46403Y32018D1*
X46432Y31988D1*
X46460Y31958D1*
X46486Y31928D1*
X46509Y31898D1*
X46530Y31868D1*
X46551Y31838D1*
X46570Y31808D1*
X46587Y31778D1*
X46603Y31748D1*
X46619Y31718D1*
X46634Y31688D1*
X46648Y31658D1*
X46659Y31628D1*
X46666Y31598D1*
X46670Y31568D1*
X46675Y31538D1*
X46683Y31508D1*
X46691Y31478D1*
X46697Y31448D1*
X46701Y31418D1*
X38541Y32138D2*
X38512Y32108D1*
X38483Y32078D1*
X38456Y32048D1*
X38434Y32018D1*
X38412Y31988D1*
X38392Y31958D1*
X38373Y31928D1*
X38357Y31898D1*
X38343Y31868D1*
X38333Y31838D1*
X38322Y31808D1*
X38311Y31778D1*
X38302Y31748D1*
X38291Y31718D1*
X38282Y31688D1*
X38277Y31658D1*
X38274Y31628D1*
X38272Y31598D1*
Y31568D1*
Y31538D1*
X38271Y31508D1*
Y31478D1*
Y31448D1*
Y31418D1*
X38511Y32138D2*
X38570Y32108D1*
X38628Y32078D1*
X38684Y32048D1*
X38746Y32018D1*
X38819Y31988D1*
X38905Y31958D1*
X39005Y31928D1*
X39111Y31898D1*
X45441Y32108D2*
X45330Y32078D1*
X45231Y32048D1*
X45152Y32018D1*
X45089Y31988D1*
X45040Y31958D1*
X44999Y31928D1*
X44961Y31898D1*
X44987Y31868D1*
X45008Y31838D1*
X45026Y31808D1*
X45043Y31778D1*
X45059Y31748D1*
X45074Y31718D1*
X45088Y31688D1*
X45100Y31658D1*
X45111Y31628D1*
X45122Y31598D1*
X45135Y31568D1*
X45148Y31538D1*
X45160Y31508D1*
X45171Y31478D1*
X45181Y31448D1*
X45190Y31418D1*
X45197Y31388D1*
X45204Y31358D1*
X45213Y31328D1*
X45221Y31298D1*
X45228Y31268D1*
X45234Y31238D1*
X45243Y31208D1*
X45251Y31178D1*
X45256Y31148D1*
X45259Y31118D1*
X45261Y31088D1*
Y31058D1*
X45262Y31028D1*
X45266Y30998D1*
X45274Y30968D1*
X45281Y30938D1*
X45287Y30908D1*
X45289Y30878D1*
X45291Y30848D1*
Y30818D1*
Y30788D1*
Y30758D1*
Y30728D1*
Y30698D1*
Y30668D1*
Y30638D1*
Y30608D1*
Y30578D1*
Y30548D1*
X45292Y30518D1*
X45295Y30488D1*
X45303Y30458D1*
X45338Y30428D1*
X45381Y30398D1*
X45861Y32108D2*
X45944Y32078D1*
X46017Y32048D1*
X46076Y32018D1*
X46125Y31988D1*
X46169Y31958D1*
X46209Y31928D1*
X46245Y31898D1*
X46274Y31868D1*
X46298Y31838D1*
X46321Y31808D1*
X46346Y31778D1*
X46371Y31748D1*
X46234Y31718D1*
X46119Y31688D1*
X46027Y31658D1*
X45954Y31628D1*
X45896Y31598D1*
X45848Y31568D1*
X45809Y31538D1*
X45776Y31508D1*
X45748Y31478D1*
X45724Y31448D1*
X45701Y31418D1*
X45677Y31388D1*
X45650Y31358D1*
X45626Y31328D1*
X45603Y31298D1*
X45582Y31268D1*
X45562Y31238D1*
X45546Y31208D1*
X45531Y31178D1*
X39981Y31958D2*
X39801Y31928D1*
X39621Y31898D1*
X39981Y31958D2*
X39956Y31928D1*
X39935Y31898D1*
X39916Y31868D1*
X39900Y31838D1*
X39885Y31808D1*
X39873Y31778D1*
X39862Y31748D1*
X39851Y31718D1*
X39838Y31688D1*
X39824Y31658D1*
X39814Y31628D1*
X39807Y31598D1*
X39803Y31568D1*
X39797Y31538D1*
X39790Y31508D1*
X39782Y31478D1*
X39775Y31448D1*
X39769Y31418D1*
X39760Y31388D1*
X39752Y31358D1*
X39746Y31328D1*
X39744Y31298D1*
X39742Y31268D1*
Y31238D1*
Y31208D1*
X39741Y31178D1*
Y31148D1*
Y31118D1*
Y31088D1*
Y31058D1*
Y31028D1*
Y30998D1*
Y30968D1*
Y30938D1*
Y30908D1*
Y30878D1*
Y30848D1*
Y30818D1*
Y30788D1*
Y30758D1*
Y30728D1*
Y30698D1*
X39742Y30668D1*
X39743Y30638D1*
X39746Y30608D1*
X39754Y30578D1*
X39761Y30548D1*
X39767Y30518D1*
X39769Y30488D1*
X39772Y30458D1*
X39776Y30428D1*
X39783Y30398D1*
X39791Y30368D1*
X39796Y30338D1*
X39799Y30308D1*
X39802Y30278D1*
X39806Y30248D1*
X39813Y30218D1*
X39821Y30188D1*
X39828Y30158D1*
X39834Y30128D1*
X39843Y30098D1*
X39852Y30068D1*
X39861Y30038D1*
X39872Y30008D1*
X39882Y29978D1*
X39891Y29948D1*
X39901Y29918D1*
X39912Y29888D1*
X39921Y29858D1*
X39933Y29828D1*
X39946Y29798D1*
X39960Y29768D1*
X39974Y29738D1*
X39989Y29708D1*
X40004Y29678D1*
X40019Y29648D1*
X40035Y29618D1*
X40053Y29588D1*
X40072Y29558D1*
X40091Y29528D1*
X40108Y29498D1*
X40124Y29468D1*
X40144Y29438D1*
X40166Y29408D1*
X40189Y29378D1*
X40210Y29348D1*
X40232Y29318D1*
X40256Y29288D1*
X40284Y29258D1*
X40312Y29228D1*
X40342Y29198D1*
X40372Y29168D1*
X40401Y29138D1*
X40431Y29108D1*
X40462Y29078D1*
X40493Y29048D1*
X40527Y29018D1*
X40565Y28988D1*
X40606Y28958D1*
X40650Y28928D1*
X40694Y28898D1*
X40739Y28868D1*
X40785Y28838D1*
X40833Y28808D1*
X40882Y28778D1*
X40930Y28748D1*
X40975Y28718D1*
X41012Y28688D1*
X41041Y28658D1*
X41050Y28628D1*
X41046Y28598D1*
X41040Y28568D1*
X41036Y28538D1*
X41033Y28508D1*
X41032Y28478D1*
Y28448D1*
Y28418D1*
X41031Y28388D1*
Y28358D1*
Y28328D1*
Y28298D1*
Y28268D1*
X41030Y28238D1*
X41026Y28208D1*
X41019Y28178D1*
X41012Y28148D1*
X41006Y28118D1*
X41004Y28088D1*
X41002Y28058D1*
X41000Y28028D1*
X40997Y27998D1*
X40979Y27968D1*
X40950Y27938D1*
X40913Y27908D1*
X40873Y27878D1*
X40833Y27848D1*
X40797Y27818D1*
X40763Y27788D1*
X40727Y27758D1*
X40689Y27728D1*
X40650Y27698D1*
X40611Y27668D1*
X40573Y27638D1*
X40540Y27608D1*
X40515Y27578D1*
X40511Y27548D1*
X40521Y27518D1*
X40536Y27488D1*
X40558Y27458D1*
X40584Y27428D1*
X40611Y27398D1*
X46371Y31538D2*
X46257Y31508D1*
X46147Y31478D1*
X46041Y31448D1*
X46092Y31418D1*
X46140Y31388D1*
X46181Y31358D1*
X46217Y31328D1*
X46250Y31298D1*
X46280Y31268D1*
X46306Y31238D1*
X46328Y31208D1*
X46345Y31178D1*
X46359Y31148D1*
X46370Y31118D1*
X46381Y31088D1*
X46391Y31058D1*
X46401Y31028D1*
X46411Y30998D1*
X46422Y30968D1*
X46431Y30938D1*
X46441Y30908D1*
X46450Y30878D1*
X46457Y30848D1*
X46461Y30818D1*
X46491Y31538D2*
X46527Y31508D1*
X46570Y31478D1*
X46619Y31448D1*
X46671Y31418D1*
X41451Y31298D2*
X41408Y31268D1*
X41369Y31238D1*
X41335Y31208D1*
X41303Y31178D1*
X41272Y31148D1*
X41243Y31118D1*
X41216Y31088D1*
X41194Y31058D1*
X41172Y31028D1*
X41152Y30998D1*
X41133Y30968D1*
X41116Y30938D1*
X41100Y30908D1*
X41085Y30878D1*
X41073Y30848D1*
X41062Y30818D1*
X41052Y30788D1*
X41043Y30758D1*
X41037Y30728D1*
X41032Y30698D1*
X41027Y30668D1*
X41020Y30638D1*
X41012Y30608D1*
X41006Y30578D1*
X41004Y30548D1*
X41002Y30518D1*
Y30488D1*
Y30458D1*
Y30428D1*
X41003Y30398D1*
X41006Y30368D1*
X41014Y30338D1*
X41021Y30308D1*
X41027Y30278D1*
X41030Y30248D1*
X41036Y30218D1*
X41043Y30188D1*
X41051Y30158D1*
X41058Y30128D1*
X41064Y30098D1*
X41074Y30068D1*
X41087Y30038D1*
X41105Y30008D1*
X41126Y29978D1*
X41149Y29948D1*
X41170Y29918D1*
X41192Y29888D1*
X41216Y29858D1*
X41244Y29828D1*
X41272Y29798D1*
X41302Y29768D1*
X41333Y29738D1*
X41368Y29708D1*
X41410Y29678D1*
X41461Y29648D1*
X41520Y29618D1*
X41588Y29588D1*
X41666Y29558D1*
X41759Y29528D1*
X41871Y29498D1*
X41991Y29468D1*
X43431Y31298D2*
X43398Y31268D1*
X43367Y31238D1*
X43341Y31208D1*
X43331Y31178D1*
X43351Y31148D1*
X43376Y31118D1*
X43403Y31088D1*
X43432Y31058D1*
X43462Y31028D1*
X43491Y30998D1*
X43521Y30968D1*
X43551Y30938D1*
X43582Y30908D1*
X43613Y30878D1*
X43646Y30848D1*
X43684Y30818D1*
X43722Y30788D1*
X43762Y30758D1*
X43803Y30728D1*
X43846Y30698D1*
X43892Y30668D1*
X43934Y30638D1*
X43968Y30608D1*
X43981Y30578D1*
X43960Y30548D1*
X43932Y30518D1*
X43897Y30488D1*
X43861Y30458D1*
X43826Y30428D1*
X43792Y30398D1*
X43757Y30368D1*
X43718Y30338D1*
X43677Y30308D1*
X43634Y30278D1*
X43594Y30248D1*
X43556Y30218D1*
X43519Y30188D1*
X43480Y30158D1*
X43441Y30128D1*
X43401Y30098D1*
X43360Y30068D1*
X43316Y30038D1*
X43268Y30008D1*
X43215Y29978D1*
X43159Y29948D1*
X43100Y29918D1*
X43040Y29888D1*
X42975Y29858D1*
X42903Y29828D1*
X42822Y29798D1*
X42728Y29768D1*
X42609Y29738D1*
X42439Y29708D1*
X42204Y29678D1*
X41931Y29648D1*
X43491Y31298D2*
X43521Y31268D1*
X43551Y31238D1*
X43581Y31208D1*
X43611Y31178D1*
X43641Y31148D1*
X43671Y31118D1*
X43701Y31088D1*
X43732Y31058D1*
X43763Y31028D1*
X43797Y30998D1*
X43835Y30968D1*
X43878Y30938D1*
X43925Y30908D1*
X43978Y30878D1*
X44034Y30848D1*
X44094Y30818D1*
X44157Y30788D1*
X44225Y30758D1*
X44294Y30728D1*
X44357Y30698D1*
X44409Y30668D1*
X44451Y30638D1*
X44410Y30608D1*
X44367Y30578D1*
X44324Y30548D1*
X44284Y30518D1*
X44247Y30488D1*
X44213Y30458D1*
X44177Y30428D1*
X44139Y30398D1*
X44100Y30368D1*
X44061Y30338D1*
X44020Y30308D1*
X43977Y30278D1*
X43934Y30248D1*
X43894Y30218D1*
X43857Y30188D1*
X43823Y30158D1*
X43787Y30128D1*
X43749Y30098D1*
X43710Y30068D1*
X43671Y30038D1*
X43631Y30008D1*
X43592Y29978D1*
X43555Y29948D1*
X43519Y29918D1*
X43479Y29888D1*
X43436Y29858D1*
X43388Y29828D1*
X43336Y29798D1*
X43284Y29768D1*
X43231Y29738D1*
X43176Y29708D1*
X43114Y29678D1*
X43047Y29648D1*
X42974Y29618D1*
X42891Y29588D1*
X42796Y29558D1*
X42689Y29528D1*
X42569Y29498D1*
X42441Y29468D1*
X41481Y31268D2*
X41493Y31238D1*
X41505Y31208D1*
X41517Y31178D1*
X41526Y31148D1*
X41521Y31118D1*
X41502Y31088D1*
X41477Y31058D1*
X41450Y31028D1*
X41421Y30998D1*
X41391Y30968D1*
X41363Y30938D1*
X41336Y30908D1*
X41315Y30878D1*
X41296Y30848D1*
X41280Y30818D1*
X41265Y30788D1*
X41253Y30758D1*
X41242Y30728D1*
X41232Y30698D1*
X41223Y30668D1*
X41217Y30638D1*
X41214Y30608D1*
X41211Y30578D1*
X41207Y30548D1*
X41201Y30518D1*
X41197Y30488D1*
X41198Y30458D1*
X41203Y30428D1*
X41207Y30398D1*
X41210Y30368D1*
X41212Y30338D1*
X41216Y30308D1*
X41224Y30278D1*
X41232Y30248D1*
X41242Y30218D1*
X41253Y30188D1*
X41266Y30158D1*
X41280Y30128D1*
X41295Y30098D1*
X41313Y30068D1*
X41333Y30038D1*
X41357Y30008D1*
X41385Y29978D1*
X41418Y29948D1*
X41454Y29918D1*
X41494Y29888D1*
X41537Y29858D1*
X41586Y29828D1*
X41644Y29798D1*
X41719Y29768D1*
X41826Y29738D1*
X41996Y29708D1*
X42242Y29678D1*
X42531Y29648D1*
X45831Y31238D2*
X45711Y31208D1*
X45591Y31178D1*
X46041Y31238D2*
X46034Y31208D1*
X46022Y31178D1*
X45992Y31148D1*
X45960Y31118D1*
X45930Y31088D1*
X45905Y31058D1*
X45883Y31028D1*
X45862Y30998D1*
X45843Y30968D1*
X45826Y30938D1*
X45810Y30908D1*
X45794Y30878D1*
X45779Y30848D1*
X45765Y30818D1*
X45753Y30788D1*
X45742Y30758D1*
X45730Y30728D1*
X45716Y30698D1*
X45698Y30668D1*
X45675Y30638D1*
X45649Y30608D1*
X45619Y30578D1*
X45586Y30548D1*
X45547Y30518D1*
X45501Y30488D1*
X45440Y30458D1*
X45357Y30428D1*
X45261Y30398D1*
X46191Y30998D2*
X46138Y30968D1*
X46095Y30938D1*
X46062Y30908D1*
X46036Y30878D1*
X46013Y30848D1*
X45993Y30818D1*
X45977Y30788D1*
X45964Y30758D1*
X45952Y30728D1*
X45941Y30698D1*
X45927Y30668D1*
X45913Y30638D1*
X45898Y30608D1*
X45880Y30578D1*
X45861Y30548D1*
X45841Y30518D1*
X45820Y30488D1*
X45796Y30458D1*
X45769Y30428D1*
X45739Y30398D1*
X45706Y30368D1*
X45668Y30338D1*
X45625Y30308D1*
X45576Y30278D1*
X45517Y30248D1*
X45444Y30218D1*
X45367Y30188D1*
X45303Y30158D1*
X45257Y30128D1*
X45239Y30098D1*
X45224Y30068D1*
X45212Y30038D1*
X45202Y30008D1*
X45190Y29978D1*
X45177Y29948D1*
X45164Y29918D1*
X45153Y29888D1*
X45142Y29858D1*
X45130Y29828D1*
X45117Y29798D1*
X45103Y29768D1*
X45089Y29738D1*
X45074Y29708D1*
X45059Y29678D1*
X45044Y29648D1*
X45028Y29618D1*
X45010Y29588D1*
X44991Y29558D1*
X44971Y29528D1*
X44950Y29498D1*
X44927Y29468D1*
X44904Y29438D1*
X44883Y29408D1*
X44861Y29378D1*
X44836Y29348D1*
X44809Y29318D1*
X44781Y29288D1*
X44751Y29258D1*
X44721Y29228D1*
X44691Y29198D1*
X44661Y29168D1*
X44630Y29138D1*
X44596Y29108D1*
X44559Y29078D1*
X44521Y29048D1*
X44485Y29018D1*
X44447Y28988D1*
X44405Y28958D1*
X44358Y28928D1*
X44311Y28898D1*
X44265Y28868D1*
X44218Y28838D1*
X44169Y28808D1*
X44115Y28778D1*
X44058Y28748D1*
X43995Y28718D1*
X43929Y28688D1*
X43860Y28658D1*
X43789Y28628D1*
X43709Y28598D1*
X43615Y28568D1*
X43510Y28538D1*
X43394Y28508D1*
X43268Y28478D1*
X43130Y28448D1*
X42982Y28418D1*
X42831Y28388D1*
X42845Y28358D1*
X42854Y28328D1*
X42858Y28298D1*
X42860Y28268D1*
X42861Y28238D1*
Y28208D1*
Y28178D1*
Y28148D1*
X42862Y28118D1*
X42863Y28088D1*
X42866Y28058D1*
X42874Y28028D1*
X42881Y27998D1*
X42887Y27968D1*
X42889Y27938D1*
X42891Y27908D1*
X42893Y27878D1*
X42908Y27848D1*
X42963Y27818D1*
X43044Y27788D1*
X43144Y27758D1*
X43251Y27728D1*
X43357Y27698D1*
X43452Y27668D1*
X43526Y27638D1*
X43586Y27608D1*
X43588Y27578D1*
X43585Y27548D1*
X43579Y27518D1*
X43570Y27488D1*
X43561Y27458D1*
X43551Y27428D1*
X46161Y30998D2*
X46220Y30968D1*
X46276Y30938D1*
X46328Y30908D1*
X46376Y30878D1*
X46420Y30848D1*
X46461Y30818D1*
X41241Y28598D2*
Y28568D1*
Y28538D1*
X41240Y28508D1*
X41236Y28478D1*
X41229Y28448D1*
X41222Y28418D1*
X41216Y28388D1*
X41214Y28358D1*
X41212Y28328D1*
Y28298D1*
Y28268D1*
X41211Y28238D1*
Y28208D1*
Y28178D1*
Y28148D1*
Y28118D1*
X41210Y28088D1*
X41206Y28058D1*
X41199Y28028D1*
X41194Y27998D1*
X41193Y27968D1*
X41213Y27938D1*
X41240Y27908D1*
X41270Y27878D1*
X41301Y27848D1*
X41331Y27818D1*
X41361Y27788D1*
X41391Y27758D1*
X41421Y27728D1*
X41452Y27698D1*
X41483Y27668D1*
X41516Y27638D1*
X41554Y27608D1*
X41591Y27578D1*
X41625Y27548D1*
X41652Y27518D1*
X41671Y27488D1*
X41669Y27458D1*
X41651Y27428D1*
X41627Y27398D1*
X41600Y27368D1*
X41571Y27338D1*
X41241Y28598D2*
X41337Y28568D1*
X41440Y28538D1*
X41553Y28508D1*
X41681Y28478D1*
X41837Y28448D1*
X42025Y28418D1*
X42231Y28388D1*
X42651D2*
Y28358D1*
Y28328D1*
Y28298D1*
Y28268D1*
X42652Y28238D1*
X42653Y28208D1*
X42656Y28178D1*
X42664Y28148D1*
X42671Y28118D1*
X42677Y28088D1*
X42679Y28058D1*
X42681Y28028D1*
Y27998D1*
Y27968D1*
Y27938D1*
Y27908D1*
Y27878D1*
X42682Y27848D1*
X42683Y27818D1*
X42687Y27788D1*
X42698Y27758D1*
X42711Y27728D1*
X42683Y27698D1*
X42656Y27668D1*
X42634Y27638D1*
X42611Y27608D1*
X42588Y27578D1*
X42564Y27548D1*
X42543Y27518D1*
X42522Y27488D1*
X42503Y27458D1*
X42486Y27428D1*
X42485Y27398D1*
X42504Y27368D1*
X42531Y27338D1*
X42561Y27308D1*
X42591Y27278D1*
X40941Y27668D2*
X40910Y27638D1*
X40876Y27608D1*
X40839Y27578D1*
X40800Y27548D1*
X40761Y27518D1*
X40721Y27488D1*
X40682Y27458D1*
X40646Y27428D1*
X40611Y27398D1*
X40971Y27668D2*
Y27638D1*
Y27608D1*
Y27578D1*
Y27548D1*
Y27518D1*
Y27488D1*
Y27458D1*
X40970Y27428D1*
X40966Y27398D1*
X40959Y27368D1*
X40950Y27338D1*
X40941Y27308D1*
X41091Y27278D1*
X41211Y27638D2*
X41187Y27608D1*
X41170Y27578D1*
X41160Y27548D1*
X41155Y27518D1*
X41153Y27488D1*
X41152Y27458D1*
Y27428D1*
X41151Y27398D1*
Y27368D1*
Y27338D1*
Y27308D1*
Y27278D1*
X41211Y27638D2*
X41241Y27608D1*
X41271Y27578D1*
X41301Y27548D1*
X41332Y27518D1*
X41363Y27488D1*
X41396Y27458D1*
X41434Y27428D1*
X41471Y27398D1*
X41507Y27368D1*
X41541Y27338D1*
X42981Y27578D2*
X42983Y27548D1*
X42986Y27518D1*
X42994Y27488D1*
X43002Y27458D1*
X43012Y27428D1*
X43022Y27398D1*
X43032Y27368D1*
X43041Y27338D1*
X43051Y27308D1*
X43059Y27278D1*
X43062Y27248D1*
X43042Y27218D1*
X42987Y27188D1*
X42921Y27158D1*
X42951Y27578D2*
X43071Y27548D1*
X43191Y27518D1*
X43311Y27488D1*
X43431Y27458D1*
X43551Y27428D1*
X42771Y27458D2*
X42742Y27428D1*
X42713Y27398D1*
X42686Y27368D1*
X42664Y27338D1*
X42643Y27308D1*
X42621Y27278D1*
X42801Y27458D2*
X42806Y27428D1*
X42814Y27398D1*
X42822Y27368D1*
X42831Y27338D1*
X42842Y27308D1*
X42852Y27278D1*
X42861Y27248D1*
X42872Y27218D1*
X42882Y27188D1*
X42891Y27158D1*
X8704Y13199D2*
D78*
X8680Y13247D1*
X8608Y13319D1*
X9110D1*
X8608Y13617D2*
X8632Y13545D1*
X8704Y13497D1*
X8823Y13474D1*
X8895D1*
X9015Y13497D1*
X9086Y13545D1*
X9110Y13617D1*
Y13665D1*
X9086Y13737D1*
X9015Y13784D1*
X8895Y13808D1*
X8823D1*
X8704Y13784D1*
X8632Y13737D1*
X8608Y13665D1*
Y13617D1*
X8704Y13784D2*
X9015Y13497D1*
X8608Y14107D2*
X8632Y14035D1*
X8704Y13987D1*
X8823Y13963D1*
X8895D1*
X9015Y13987D1*
X9086Y14035D1*
X9110Y14107D1*
Y14154D1*
X9086Y14226D1*
X9015Y14273D1*
X8895Y14298D1*
X8823D1*
X8704Y14273D1*
X8632Y14226D1*
X8608Y14154D1*
Y14107D1*
X8704Y14273D2*
X9015Y13987D1*
X8775Y14452D2*
X9015D1*
X9086Y14476D1*
X9110Y14524D1*
Y14596D1*
X9086Y14643D1*
X9015Y14715D1*
X8775D2*
X9110D1*
X8608Y15181D2*
Y14870D1*
X9110D1*
X8847D2*
Y15061D1*
X42233Y11492D2*
X42257Y11420D1*
X42329Y11372D1*
X42448Y11348D1*
X42520D1*
X42640Y11372D1*
X42711Y11420D1*
X42735Y11492D1*
Y11539D1*
X42711Y11611D1*
X42640Y11659D1*
X42520Y11683D1*
X42448D1*
X42329Y11659D1*
X42257Y11611D1*
X42233Y11539D1*
Y11492D1*
X42329Y11659D2*
X42640Y11372D1*
X42687Y11861D2*
X42711Y11837D1*
X42735Y11861D1*
X42711Y11885D1*
X42687Y11861D1*
X42233Y12183D2*
X42257Y12112D1*
X42329Y12064D1*
X42448Y12040D1*
X42520D1*
X42640Y12064D1*
X42711Y12112D1*
X42735Y12183D1*
Y12231D1*
X42711Y12303D1*
X42640Y12350D1*
X42520Y12375D1*
X42448D1*
X42329Y12350D1*
X42257Y12303D1*
X42233Y12231D1*
Y12183D1*
X42329Y12350D2*
X42640Y12064D1*
X42329Y12529D2*
X42305Y12577D1*
X42233Y12649D1*
X42735D1*
X42400Y12803D2*
X42640D1*
X42711Y12827D1*
X42735Y12875D1*
Y12947D1*
X42711Y12995D1*
X42640Y13066D1*
X42400D2*
X42735D1*
X42233Y13532D2*
Y13221D1*
X42735D1*
X42472D2*
Y13412D1*
X10074Y10824D2*
X10122Y10849D1*
X10194Y10920D1*
Y10418D1*
X10635Y10920D2*
X10397D1*
X10373Y10705D1*
X10397Y10729D1*
X10468Y10753D1*
X10540D1*
X10612Y10729D1*
X10660Y10681D1*
X10683Y10609D1*
Y10562D1*
X10660Y10490D1*
X10612Y10442D1*
X10540Y10418D1*
X10468D1*
X10397Y10442D1*
X10373Y10466D1*
X10349Y10514D1*
X10982Y10920D2*
X10910Y10896D1*
X10862Y10824D1*
X10838Y10705D1*
Y10633D1*
X10862Y10514D1*
X10910Y10442D1*
X10982Y10418D1*
X11029D1*
X11101Y10442D1*
X11148Y10514D1*
X11173Y10633D1*
Y10705D1*
X11148Y10824D1*
X11101Y10896D1*
X11029Y10920D1*
X10982D1*
X11148Y10824D2*
X10862Y10514D1*
X11327Y10753D2*
Y10514D1*
X11351Y10442D1*
X11399Y10418D1*
X11471D1*
X11518Y10442D1*
X11590Y10514D1*
Y10753D2*
Y10418D1*
X12056Y10920D2*
X11745D1*
Y10418D1*
Y10681D2*
X11936D1*
X44867Y43272D2*
X44795Y43248D1*
X44747Y43176D1*
X44723Y43057D1*
Y42985D1*
X44747Y42865D1*
X44795Y42794D1*
X44867Y42770D1*
X44914D1*
X44986Y42794D1*
X45034Y42865D1*
X45058Y42985D1*
Y43057D1*
X45034Y43176D1*
X44986Y43248D1*
X44914Y43272D1*
X44867D1*
X45034Y43176D2*
X44747Y42865D1*
X45236Y42818D2*
X45212Y42794D1*
X45236Y42770D1*
X45260Y42794D1*
X45236Y42818D1*
X45558Y43272D2*
X45487Y43248D1*
X45439Y43176D1*
X45415Y43057D1*
Y42985D1*
X45439Y42865D1*
X45487Y42794D1*
X45558Y42770D1*
X45606D1*
X45678Y42794D1*
X45725Y42865D1*
X45750Y42985D1*
Y43057D1*
X45725Y43176D1*
X45678Y43248D1*
X45606Y43272D1*
X45558D1*
X45725Y43176D2*
X45439Y42865D1*
X45904Y43176D2*
X45952Y43200D1*
X46024Y43272D1*
Y42770D1*
X46178Y43105D2*
Y42865D1*
X46202Y42794D1*
X46250Y42770D1*
X46322D1*
X46370Y42794D1*
X46441Y42865D1*
Y43105D2*
Y42770D1*
X46907Y43272D2*
X46596D1*
Y42770D1*
Y43033D2*
X46787D1*
X27733Y20867D2*
X27757Y20795D1*
X27829Y20747D1*
X27948Y20723D1*
X28020D1*
X28140Y20747D1*
X28211Y20795D1*
X28235Y20867D1*
Y20914D1*
X28211Y20986D1*
X28140Y21034D1*
X28020Y21058D1*
X27948D1*
X27829Y21034D1*
X27757Y20986D1*
X27733Y20914D1*
Y20867D1*
X27829Y21034D2*
X28140Y20747D1*
X28187Y21236D2*
X28211Y21212D1*
X28235Y21236D1*
X28211Y21260D1*
X28187Y21236D1*
X27733Y21558D2*
X27757Y21487D1*
X27829Y21439D1*
X27948Y21415D1*
X28020D1*
X28140Y21439D1*
X28211Y21487D1*
X28235Y21558D1*
Y21606D1*
X28211Y21678D1*
X28140Y21725D1*
X28020Y21750D1*
X27948D1*
X27829Y21725D1*
X27757Y21678D1*
X27733Y21606D1*
Y21558D1*
X27829Y21725D2*
X28140Y21439D1*
X27829Y21904D2*
X27805Y21952D1*
X27733Y22024D1*
X28235D1*
X27900Y22178D2*
X28140D1*
X28211Y22202D1*
X28235Y22250D1*
Y22322D1*
X28211Y22370D1*
X28140Y22441D1*
X27900D2*
X28235D1*
X27733Y22907D2*
Y22596D1*
X28235D1*
X27972D2*
Y22787D1*
X36921Y27992D2*
X36945Y27920D1*
X37016Y27872D1*
X37136Y27848D1*
X37208D1*
X37327Y27872D1*
X37399Y27920D1*
X37423Y27992D1*
Y28039D1*
X37399Y28111D1*
X37327Y28159D1*
X37208Y28183D1*
X37136D1*
X37016Y28159D1*
X36945Y28111D1*
X36921Y28039D1*
Y27992D1*
X37016Y28159D2*
X37327Y27872D1*
X37375Y28361D2*
X37399Y28337D1*
X37423Y28361D1*
X37399Y28385D1*
X37375Y28361D1*
X36921Y28683D2*
X36945Y28612D1*
X37016Y28564D1*
X37136Y28540D1*
X37208D1*
X37327Y28564D1*
X37399Y28612D1*
X37423Y28683D1*
Y28731D1*
X37399Y28803D1*
X37327Y28850D1*
X37208Y28875D1*
X37136D1*
X37016Y28850D1*
X36945Y28803D1*
X36921Y28731D1*
Y28683D1*
X37016Y28850D2*
X37327Y28564D1*
X37016Y29029D2*
X36992Y29077D1*
X36921Y29149D1*
X37423D1*
X37088Y29303D2*
X37327D1*
X37398Y29327D1*
X37423Y29375D1*
Y29447D1*
X37398Y29495D1*
X37327Y29566D1*
X37088D2*
X37423D1*
X36920Y30032D2*
Y29721D1*
X37423D1*
X37160D2*
Y29912D1*
X20927Y36552D2*
X20951Y36480D1*
X21023Y36432D1*
X21142Y36409D1*
X21214D1*
X21333Y36432D1*
X21405Y36480D1*
X21429Y36552D1*
Y36600D1*
X21405Y36672D1*
X21333Y36719D1*
X21214Y36743D1*
X21142D1*
X21023Y36719D1*
X20951Y36672D1*
X20927Y36600D1*
Y36552D1*
X21023Y36719D2*
X21333Y36432D1*
X21381Y36922D2*
X21405Y36898D1*
X21429Y36922D1*
X21405Y36946D1*
X21381Y36922D1*
X21023Y37100D2*
X20999Y37148D1*
X20927Y37220D1*
X21429D1*
X21094Y37375D2*
X21333D1*
X21405Y37398D1*
X21429Y37447D1*
Y37518D1*
X21405Y37566D1*
X21333Y37638D1*
X21094D2*
X21429D1*
X20927Y38103D2*
Y37792D1*
X21429D1*
X21166D2*
Y37983D1*
X13802Y30927D2*
X13826Y30855D1*
X13898Y30807D1*
X14017Y30784D1*
X14089D1*
X14208Y30807D1*
X14280Y30855D1*
X14304Y30927D1*
Y30975D1*
X14280Y31047D1*
X14208Y31094D1*
X14089Y31118D1*
X14017D1*
X13898Y31094D1*
X13826Y31047D1*
X13802Y30975D1*
Y30927D1*
X13898Y31094D2*
X14208Y30807D1*
X14256Y31297D2*
X14280Y31273D1*
X14304Y31297D1*
X14280Y31321D1*
X14256Y31297D1*
X13898Y31475D2*
X13874Y31523D1*
X13802Y31595D1*
X14304D1*
X13969Y31750D2*
X14208D1*
X14280Y31773D1*
X14304Y31822D1*
Y31893D1*
X14280Y31941D1*
X14208Y32013D1*
X13969D2*
X14304D1*
X13802Y32478D2*
Y32167D1*
X14304D1*
X14041D2*
Y32358D1*
X43742Y19397D2*
X43670Y19373D1*
X43622Y19301D1*
X43598Y19182D1*
Y19110D1*
X43622Y18990D1*
X43670Y18919D1*
X43742Y18895D1*
X43789D1*
X43861Y18919D1*
X43909Y18990D1*
X43933Y19110D1*
Y19182D1*
X43909Y19301D1*
X43861Y19373D1*
X43789Y19397D1*
X43742D1*
X43909Y19301D2*
X43622Y18990D1*
X44111Y18943D2*
X44087Y18919D1*
X44111Y18895D1*
X44135Y18919D1*
X44111Y18943D1*
X44433Y19397D2*
X44362Y19373D1*
X44314Y19301D1*
X44290Y19182D1*
Y19110D1*
X44314Y18990D1*
X44362Y18919D1*
X44433Y18895D1*
X44481D1*
X44553Y18919D1*
X44600Y18990D1*
X44625Y19110D1*
Y19182D1*
X44600Y19301D1*
X44553Y19373D1*
X44481Y19397D1*
X44433D1*
X44600Y19301D2*
X44314Y18990D1*
X44779Y19301D2*
X44827Y19325D1*
X44899Y19397D1*
Y18895D1*
X45053Y19230D2*
Y18990D1*
X45077Y18919D1*
X45125Y18895D1*
X45197D1*
X45245Y18919D1*
X45316Y18990D1*
Y19230D2*
Y18895D1*
X45782Y19397D2*
X45471D1*
Y18895D1*
Y19158D2*
X45662D1*
X57742Y31272D2*
X57670Y31248D1*
X57622Y31176D1*
X57598Y31057D1*
Y30985D1*
X57622Y30865D1*
X57670Y30794D1*
X57742Y30770D1*
X57789D1*
X57861Y30794D1*
X57909Y30865D1*
X57933Y30985D1*
Y31057D1*
X57909Y31176D1*
X57861Y31248D1*
X57789Y31272D1*
X57742D1*
X57909Y31176D2*
X57622Y30865D1*
X58111Y30818D2*
X58087Y30794D1*
X58111Y30770D1*
X58135Y30794D1*
X58111Y30818D1*
X58433Y31272D2*
X58362Y31248D1*
X58314Y31176D1*
X58290Y31057D1*
Y30985D1*
X58314Y30865D1*
X58362Y30794D1*
X58433Y30770D1*
X58481D1*
X58553Y30794D1*
X58600Y30865D1*
X58625Y30985D1*
Y31057D1*
X58600Y31176D1*
X58553Y31248D1*
X58481Y31272D1*
X58433D1*
X58600Y31176D2*
X58314Y30865D1*
X58779Y31176D2*
X58827Y31200D1*
X58899Y31272D1*
Y30770D1*
X59053Y31105D2*
Y30865D1*
X59077Y30794D1*
X59125Y30770D1*
X59197D1*
X59245Y30794D1*
X59316Y30865D1*
Y31105D2*
Y30770D1*
X59782Y31272D2*
X59471D1*
Y30770D1*
Y31033D2*
X59662D1*
X23052Y36552D2*
X23076Y36480D1*
X23148Y36432D1*
X23267Y36409D1*
X23339D1*
X23458Y36432D1*
X23530Y36480D1*
X23554Y36552D1*
Y36600D1*
X23530Y36672D1*
X23458Y36719D1*
X23339Y36743D1*
X23267D1*
X23148Y36719D1*
X23076Y36672D1*
X23052Y36600D1*
Y36552D1*
X23148Y36719D2*
X23458Y36432D1*
X23506Y36922D2*
X23530Y36898D1*
X23554Y36922D1*
X23530Y36946D1*
X23506Y36922D1*
X23148Y37100D2*
X23124Y37148D1*
X23052Y37220D1*
X23554D1*
X23219Y37375D2*
X23458D1*
X23530Y37398D1*
X23554Y37447D1*
Y37518D1*
X23530Y37566D1*
X23458Y37638D1*
X23219D2*
X23554D1*
X23052Y38103D2*
Y37792D1*
X23554D1*
X23291D2*
Y37983D1*
X16305Y30088D2*
X16233Y30064D1*
X16185Y29992D1*
X16162Y29873D1*
Y29801D1*
X16185Y29681D1*
X16233Y29610D1*
X16305Y29586D1*
X16353D1*
X16425Y29610D1*
X16472Y29681D1*
X16496Y29801D1*
Y29873D1*
X16472Y29992D1*
X16425Y30064D1*
X16353Y30088D1*
X16305D1*
X16472Y29992D2*
X16185Y29681D1*
X16675Y29634D2*
X16651Y29610D1*
X16675Y29586D1*
X16699Y29610D1*
X16675Y29634D1*
X16853Y29992D2*
X16901Y30016D1*
X16973Y30088D1*
Y29586D1*
X17128Y29921D2*
Y29681D1*
X17151Y29610D1*
X17199Y29586D1*
X17271D1*
X17319Y29610D1*
X17391Y29681D1*
Y29921D2*
Y29586D1*
X17856Y30088D2*
X17545D1*
Y29586D1*
Y29849D2*
X17736D1*
X25177Y36552D2*
X25201Y36480D1*
X25273Y36432D1*
X25392Y36409D1*
X25464D1*
X25583Y36432D1*
X25655Y36480D1*
X25679Y36552D1*
Y36600D1*
X25655Y36672D1*
X25583Y36719D1*
X25464Y36743D1*
X25392D1*
X25273Y36719D1*
X25201Y36672D1*
X25177Y36600D1*
Y36552D1*
X25273Y36719D2*
X25583Y36432D1*
X25631Y36922D2*
X25655Y36898D1*
X25679Y36922D1*
X25655Y36946D1*
X25631Y36922D1*
X25273Y37100D2*
X25249Y37148D1*
X25177Y37220D1*
X25679D1*
X25344Y37375D2*
X25583D1*
X25655Y37398D1*
X25679Y37447D1*
Y37518D1*
X25655Y37566D1*
X25583Y37638D1*
X25344D2*
X25679D1*
X25177Y38103D2*
Y37792D1*
X25679D1*
X25416D2*
Y37983D1*
X48992Y19397D2*
X48920Y19373D1*
X48872Y19301D1*
X48848Y19182D1*
Y19110D1*
X48872Y18990D1*
X48920Y18919D1*
X48992Y18895D1*
X49039D1*
X49111Y18919D1*
X49159Y18990D1*
X49183Y19110D1*
Y19182D1*
X49159Y19301D1*
X49111Y19373D1*
X49039Y19397D1*
X48992D1*
X49159Y19301D2*
X48872Y18990D1*
X49361Y18943D2*
X49337Y18919D1*
X49361Y18895D1*
X49385Y18919D1*
X49361Y18943D1*
X49683Y19397D2*
X49612Y19373D1*
X49564Y19301D1*
X49540Y19182D1*
Y19110D1*
X49564Y18990D1*
X49612Y18919D1*
X49683Y18895D1*
X49731D1*
X49803Y18919D1*
X49850Y18990D1*
X49875Y19110D1*
Y19182D1*
X49850Y19301D1*
X49803Y19373D1*
X49731Y19397D1*
X49683D1*
X49850Y19301D2*
X49564Y18990D1*
X50029Y19301D2*
X50077Y19325D1*
X50149Y19397D1*
Y18895D1*
X50303Y19230D2*
Y18990D1*
X50327Y18919D1*
X50375Y18895D1*
X50447D1*
X50495Y18919D1*
X50566Y18990D1*
Y19230D2*
Y18895D1*
X51032Y19397D2*
X50721D1*
Y18895D1*
Y19158D2*
X50912D1*
X54242Y11272D2*
X54170Y11248D1*
X54122Y11176D1*
X54098Y11057D1*
Y10985D1*
X54122Y10865D1*
X54170Y10794D1*
X54242Y10770D1*
X54289D1*
X54361Y10794D1*
X54409Y10865D1*
X54433Y10985D1*
Y11057D1*
X54409Y11176D1*
X54361Y11248D1*
X54289Y11272D1*
X54242D1*
X54409Y11176D2*
X54122Y10865D1*
X54611Y10818D2*
X54587Y10794D1*
X54611Y10770D1*
X54635Y10794D1*
X54611Y10818D1*
X54933Y11272D2*
X54862Y11248D1*
X54814Y11176D1*
X54790Y11057D1*
Y10985D1*
X54814Y10865D1*
X54862Y10794D1*
X54933Y10770D1*
X54981D1*
X55053Y10794D1*
X55100Y10865D1*
X55125Y10985D1*
Y11057D1*
X55100Y11176D1*
X55053Y11248D1*
X54981Y11272D1*
X54933D1*
X55100Y11176D2*
X54814Y10865D1*
X55279Y11176D2*
X55327Y11200D1*
X55399Y11272D1*
Y10770D1*
X55553Y11105D2*
Y10865D1*
X55577Y10794D1*
X55625Y10770D1*
X55697D1*
X55745Y10794D1*
X55816Y10865D1*
Y11105D2*
Y10770D1*
X56282Y11272D2*
X55971D1*
Y10770D1*
Y11033D2*
X56162D1*
X16714Y23752D2*
X16762Y23777D1*
X16834Y23848D1*
Y23346D1*
X17324Y23848D2*
Y23346D1*
X16989Y23848D1*
Y23346D1*
X17765Y23848D2*
X17526D1*
X17502Y23633D1*
X17526Y23657D1*
X17598Y23681D1*
X17669D1*
X17741Y23657D1*
X17789Y23609D1*
X17813Y23537D1*
Y23490D1*
X17789Y23418D1*
X17741Y23370D1*
X17669Y23346D1*
X17598D1*
X17526Y23370D1*
X17502Y23394D1*
X17478Y23442D1*
X18087Y23848D2*
X18015Y23824D1*
X17991Y23777D1*
Y23728D1*
X18015Y23681D1*
X18063Y23657D1*
X18159Y23633D1*
X18230Y23609D1*
X18278Y23561D1*
X18302Y23513D1*
Y23442D1*
X18278Y23394D1*
X18254Y23370D1*
X18182Y23346D1*
X18087D1*
X18015Y23370D1*
X17991Y23394D1*
X17967Y23442D1*
Y23513D1*
X17991Y23561D1*
X18039Y23609D1*
X18110Y23633D1*
X18206Y23657D1*
X18254Y23681D1*
X18278Y23728D1*
Y23777D1*
X18254Y23824D1*
X18182Y23848D1*
X18087D1*
X18456Y23752D2*
X18504Y23777D1*
X18576Y23848D1*
Y23346D1*
X18826D2*
X19065Y23848D1*
X18730D1*
X6753Y12690D2*
X6728Y12738D1*
X6657Y12810D1*
X7159D1*
X6657Y13299D2*
X7159D1*
X6657Y12964D1*
X7159D1*
X6657Y13740D2*
Y13501D1*
X6872Y13478D1*
X6848Y13501D1*
X6824Y13573D1*
Y13645D1*
X6848Y13716D1*
X6896Y13765D1*
X6968Y13788D1*
X7015D1*
X7087Y13765D1*
X7135Y13716D1*
X7159Y13645D1*
Y13573D1*
X7135Y13501D1*
X7111Y13478D1*
X7063Y13453D1*
X6657Y14062D2*
X6681Y13991D1*
X6728Y13966D1*
X6777D1*
X6824Y13991D1*
X6848Y14038D1*
X6872Y14134D1*
X6896Y14206D1*
X6944Y14253D1*
X6992Y14277D1*
X7063D1*
X7111Y14253D1*
X7135Y14230D1*
X7159Y14158D1*
Y14062D1*
X7135Y13991D1*
X7111Y13966D1*
X7063Y13943D1*
X6992D1*
X6944Y13966D1*
X6896Y14015D1*
X6872Y14086D1*
X6848Y14181D1*
X6824Y14230D1*
X6777Y14253D1*
X6728D1*
X6681Y14230D1*
X6657Y14158D1*
Y14062D1*
X6753Y14431D2*
X6728Y14480D1*
X6657Y14551D1*
X7159D1*
Y14801D2*
X6657Y15041D1*
Y14706D1*
X28626Y18593D2*
X28746Y18090D1*
X28865Y18593D1*
X28985Y18090D1*
X29104Y18593D1*
X29546Y18521D2*
X29522Y18568D1*
X29450Y18592D1*
X29403D1*
X29331Y18568D1*
X29283Y18496D1*
X29259Y18377D1*
Y18258D1*
X29283Y18162D1*
X29331Y18114D1*
X29403Y18090D1*
X29426D1*
X29498Y18114D1*
X29546Y18162D1*
X29569Y18234D1*
Y18258D1*
X29546Y18329D1*
X29498Y18377D1*
X29426Y18401D1*
X29403D1*
X29331Y18377D1*
X29283Y18329D1*
X29259Y18258D1*
X30011Y18592D2*
X29772D1*
X29748Y18377D1*
X29772Y18401D1*
X29844Y18425D1*
X29915D1*
X29987Y18401D1*
X30035Y18353D1*
X30059Y18281D1*
Y18234D1*
X30035Y18162D1*
X29987Y18114D1*
X29915Y18090D1*
X29844D1*
X29772Y18114D1*
X29748Y18138D1*
X29724Y18186D1*
X30572Y18473D2*
X30548Y18521D1*
X30500Y18569D1*
X30453Y18593D1*
X30357D1*
X30309Y18569D1*
X30261Y18521D1*
X30237Y18473D1*
X30213Y18401D1*
Y18281D1*
X30237Y18210D1*
X30261Y18162D1*
X30309Y18114D1*
X30357Y18090D1*
X30453D1*
X30500Y18114D1*
X30548Y18162D1*
X30572Y18210D1*
X30751Y18473D2*
Y18496D1*
X30774Y18544D1*
X30798Y18568D1*
X30846Y18592D1*
X30942D1*
X30989Y18568D1*
X31013Y18544D1*
X31037Y18496D1*
Y18449D1*
X31013Y18401D1*
X30966Y18329D1*
X30726Y18090D1*
X31061D1*
X31240Y18473D2*
Y18496D1*
X31264Y18544D1*
X31287Y18568D1*
X31336Y18592D1*
X31431D1*
X31479Y18568D1*
X31502Y18544D1*
X31527Y18496D1*
Y18449D1*
X31502Y18401D1*
X31455Y18329D1*
X31216Y18090D1*
X31551D1*
X32040Y18521D2*
X31992Y18569D1*
X31920Y18593D1*
X31825D1*
X31753Y18569D1*
X31705Y18521D1*
Y18473D1*
X31729Y18425D1*
X31753Y18401D1*
X31801Y18378D1*
X31944Y18329D1*
X31992Y18306D1*
X32016Y18281D1*
X32040Y18234D1*
Y18162D1*
X31992Y18114D1*
X31920Y18090D1*
X31825D1*
X31753Y18114D1*
X31705Y18162D1*
X32481Y18521D2*
X32457Y18568D1*
X32386Y18592D1*
X32338D1*
X32266Y18568D1*
X32218Y18496D1*
X32194Y18377D1*
Y18258D1*
X32218Y18162D1*
X32266Y18114D1*
X32338Y18090D1*
X32362D1*
X32433Y18114D1*
X32481Y18162D1*
X32505Y18234D1*
Y18258D1*
X32481Y18329D1*
X32433Y18377D1*
X32362Y18401D1*
X32338D1*
X32266Y18377D1*
X32218Y18329D1*
X32194Y18258D1*
X32827Y18593D2*
Y18090D1*
X32659Y18593D2*
X32994D1*
X33149Y18329D2*
X33364D1*
X33435Y18353D1*
X33460Y18378D1*
X33484Y18425D1*
Y18497D1*
X33460Y18544D1*
X33435Y18569D1*
X33364Y18593D1*
X33149D1*
Y18090D1*
X33997Y18473D2*
X33973Y18521D1*
X33925Y18569D1*
X33877Y18593D1*
X33782D1*
X33734Y18569D1*
X33686Y18521D1*
X33662Y18473D1*
X33638Y18401D1*
Y18281D1*
X33662Y18210D1*
X33686Y18162D1*
X33734Y18114D1*
X33782Y18090D1*
X33877D1*
X33925Y18114D1*
X33973Y18162D1*
X33997Y18210D1*
Y18281D1*
X33877D1*
X34151Y18341D2*
X34427D1*
X34582Y18496D2*
X34630Y18521D1*
X34702Y18592D1*
Y18090D1*
X35095D2*
Y18592D1*
X34856Y18258D1*
X35215D1*
X20412Y24628D2*
X20915Y24748D1*
X20412Y24867D1*
X20915Y24987D1*
X20412Y25107D1*
X20484Y25548D2*
X20437Y25524D1*
X20413Y25452D1*
Y25405D1*
X20437Y25333D1*
X20509Y25285D1*
X20628Y25261D1*
X20747D1*
X20843Y25285D1*
X20891Y25333D1*
X20915Y25405D1*
Y25429D1*
X20891Y25500D1*
X20843Y25548D1*
X20771Y25572D1*
X20747D1*
X20676Y25548D1*
X20628Y25500D1*
X20604Y25429D1*
Y25405D1*
X20628Y25333D1*
X20676Y25285D1*
X20747Y25261D1*
X20413Y26013D2*
Y25774D1*
X20628Y25750D1*
X20604Y25774D1*
X20580Y25846D1*
Y25917D1*
X20604Y25989D1*
X20652Y26037D1*
X20724Y26061D1*
X20771D1*
X20843Y26037D1*
X20891Y25989D1*
X20915Y25917D1*
Y25846D1*
X20891Y25774D1*
X20867Y25750D1*
X20819Y25726D1*
X20532Y26574D2*
X20484Y26550D1*
X20436Y26502D1*
X20412Y26455D1*
Y26359D1*
X20436Y26311D1*
X20484Y26263D1*
X20532Y26239D1*
X20604Y26215D1*
X20724D1*
X20795Y26239D1*
X20843Y26263D1*
X20891Y26311D1*
X20915Y26359D1*
Y26455D1*
X20891Y26502D1*
X20843Y26550D1*
X20795Y26574D1*
X20413Y27015D2*
Y26777D1*
X20628Y26753D1*
X20604Y26777D1*
X20580Y26848D1*
Y26920D1*
X20604Y26992D1*
X20652Y27040D1*
X20724Y27063D1*
X20771D1*
X20843Y27040D1*
X20891Y26992D1*
X20915Y26920D1*
Y26848D1*
X20891Y26777D1*
X20867Y26753D1*
X20819Y26728D1*
X20509Y27218D2*
X20484Y27266D1*
X20413Y27338D1*
X20915D1*
X20412Y27827D2*
X20915D1*
X20412Y27492D1*
X20915D1*
X20484Y28268D2*
X20437Y28245D1*
X20413Y28173D1*
Y28125D1*
X20437Y28053D1*
X20509Y28005D1*
X20628Y27981D1*
X20747D1*
X20843Y28005D1*
X20891Y28053D1*
X20915Y28125D1*
Y28149D1*
X20891Y28220D1*
X20843Y28268D1*
X20771Y28292D1*
X20747D1*
X20676Y28268D1*
X20628Y28220D1*
X20604Y28149D1*
Y28125D1*
X20628Y28053D1*
X20676Y28005D1*
X20747Y27981D1*
X20412Y28614D2*
X20915D1*
X20412Y28446D2*
Y28781D1*
X20676Y28936D2*
Y29151D1*
X20652Y29223D1*
X20627Y29247D1*
X20580Y29271D1*
X20508D1*
X20461Y29247D1*
X20436Y29223D1*
X20412Y29151D1*
Y28936D1*
X20915D1*
X20532Y29784D2*
X20484Y29760D1*
X20436Y29712D1*
X20412Y29664D1*
Y29569D1*
X20436Y29521D1*
X20484Y29473D1*
X20532Y29449D1*
X20604Y29425D1*
X20724D1*
X20795Y29449D1*
X20843Y29473D1*
X20891Y29521D1*
X20915Y29569D1*
Y29664D1*
X20891Y29712D1*
X20843Y29760D1*
X20795Y29784D1*
X20724D1*
Y29664D1*
X20664Y29938D2*
Y30215D1*
X20509Y30369D2*
X20484Y30417D1*
X20413Y30489D1*
X20915D1*
Y30883D2*
X20413D1*
X20747Y30643D1*
Y31002D1*
X50733Y40065D2*
X50541Y40568D1*
X50350Y40065D1*
X50422Y40233D2*
X50661D1*
X51055Y40568D2*
Y40065D1*
X50887Y40568D2*
X51222D1*
X51401Y40448D2*
Y40471D1*
X51425Y40519D1*
X51448Y40543D1*
X51497Y40567D1*
X51592D1*
X51640Y40543D1*
X51663Y40519D1*
X51688Y40471D1*
Y40424D1*
X51663Y40376D1*
X51616Y40304D1*
X51377Y40065D1*
X51712D1*
X51985Y40567D2*
X51914Y40543D1*
X51890Y40496D1*
Y40448D1*
X51914Y40400D1*
X51962Y40376D1*
X52057Y40352D1*
X52129Y40328D1*
X52177Y40280D1*
X52200Y40233D1*
Y40161D1*
X52177Y40113D1*
X52153Y40089D1*
X52081Y40065D1*
X51985D1*
X51914Y40089D1*
X51890Y40113D1*
X51866Y40161D1*
Y40233D1*
X51890Y40280D1*
X51938Y40328D1*
X52009Y40352D1*
X52105Y40376D1*
X52153Y40400D1*
X52177Y40448D1*
Y40496D1*
X52153Y40543D1*
X52081Y40567D1*
X51985D1*
X52713Y40448D2*
X52690Y40496D1*
X52642Y40544D1*
X52594Y40568D1*
X52498D1*
X52450Y40544D1*
X52403Y40496D1*
X52378Y40448D1*
X52355Y40376D1*
Y40256D1*
X52378Y40185D1*
X52403Y40137D1*
X52450Y40089D1*
X52498Y40065D1*
X52594D1*
X52642Y40089D1*
X52690Y40137D1*
X52713Y40185D1*
X52892Y40448D2*
Y40471D1*
X52916Y40519D1*
X52940Y40543D1*
X52988Y40567D1*
X53083D1*
X53131Y40543D1*
X53155Y40519D1*
X53179Y40471D1*
Y40424D1*
X53155Y40376D1*
X53107Y40304D1*
X52868Y40065D1*
X53203D1*
X53644Y40567D2*
X53405D1*
X53381Y40352D1*
X53405Y40376D1*
X53477Y40400D1*
X53548D1*
X53620Y40376D1*
X53668Y40328D1*
X53692Y40256D1*
Y40209D1*
X53668Y40137D1*
X53620Y40089D1*
X53548Y40065D1*
X53477D1*
X53405Y40089D1*
X53381Y40113D1*
X53357Y40161D1*
X54133Y40496D2*
X54110Y40543D1*
X54038Y40567D1*
X53990D1*
X53918Y40543D1*
X53870Y40471D1*
X53846Y40352D1*
Y40233D1*
X53870Y40137D1*
X53918Y40089D1*
X53990Y40065D1*
X54014D1*
X54085Y40089D1*
X54133Y40137D1*
X54157Y40209D1*
Y40233D1*
X54133Y40304D1*
X54085Y40352D1*
X54014Y40376D1*
X53990D1*
X53918Y40352D1*
X53870Y40304D1*
X53846Y40233D1*
X54311Y40316D2*
X54588D1*
X54742Y40471D2*
X54790Y40496D1*
X54862Y40567D1*
Y40065D1*
X55303Y40567D2*
X55065D1*
X55041Y40352D1*
X55065Y40376D1*
X55136Y40400D1*
X55208D1*
X55280Y40376D1*
X55328Y40328D1*
X55351Y40256D1*
Y40209D1*
X55328Y40137D1*
X55280Y40089D1*
X55208Y40065D1*
X55136D1*
X55065Y40089D1*
X55041Y40113D1*
X55017Y40161D1*
X55506Y40304D2*
X55721D1*
X55793Y40328D1*
X55817Y40353D1*
X55841Y40400D1*
Y40472D1*
X55817Y40519D1*
X55793Y40544D1*
X55721Y40568D1*
X55506D1*
Y40065D1*
X55995Y40568D2*
Y40209D1*
X56019Y40137D1*
X56067Y40089D1*
X56139Y40065D1*
X56186D1*
X56258Y40089D1*
X56306Y40137D1*
X56330Y40209D1*
Y40568D1*
X29412Y27126D2*
X29915Y27246D1*
X29412Y27365D1*
X29915Y27485D1*
X29412Y27604D1*
X29484Y28046D2*
X29437Y28022D1*
X29413Y27950D1*
Y27903D1*
X29437Y27831D1*
X29509Y27783D1*
X29628Y27759D1*
X29747D1*
X29843Y27783D1*
X29891Y27831D1*
X29915Y27903D1*
Y27926D1*
X29891Y27998D1*
X29843Y28046D1*
X29771Y28069D1*
X29747D1*
X29676Y28046D1*
X29628Y27998D1*
X29604Y27926D1*
Y27903D1*
X29628Y27831D1*
X29676Y27783D1*
X29747Y27759D1*
X29413Y28511D2*
Y28272D1*
X29628Y28248D1*
X29604Y28272D1*
X29580Y28344D1*
Y28415D1*
X29604Y28487D1*
X29652Y28535D1*
X29724Y28559D1*
X29771D1*
X29843Y28535D1*
X29891Y28487D1*
X29915Y28415D1*
Y28344D1*
X29891Y28272D1*
X29867Y28248D1*
X29819Y28224D1*
X29532Y29072D2*
X29484Y29048D1*
X29436Y29000D1*
X29412Y28953D1*
Y28857D1*
X29436Y28809D1*
X29484Y28761D1*
X29532Y28737D1*
X29604Y28713D1*
X29724D1*
X29795Y28737D1*
X29843Y28761D1*
X29891Y28809D1*
X29915Y28857D1*
Y28953D1*
X29891Y29000D1*
X29843Y29048D1*
X29795Y29072D1*
X29413Y29370D2*
X29437Y29298D1*
X29509Y29250D1*
X29628Y29226D1*
X29700D1*
X29819Y29250D1*
X29891Y29298D1*
X29915Y29370D1*
Y29418D1*
X29891Y29489D1*
X29819Y29537D1*
X29700Y29561D1*
X29628D1*
X29509Y29537D1*
X29437Y29489D1*
X29413Y29418D1*
Y29370D1*
X29509Y29537D2*
X29819Y29250D1*
X29532Y29740D2*
X29509D1*
X29461Y29764D1*
X29437Y29787D1*
X29413Y29836D1*
Y29931D1*
X29437Y29979D1*
X29461Y30002D1*
X29509Y30027D1*
X29556D1*
X29604Y30002D1*
X29676Y29955D1*
X29915Y29716D1*
Y30051D1*
X29484Y30540D2*
X29436Y30492D1*
X29412Y30420D1*
Y30325D1*
X29436Y30253D1*
X29484Y30205D1*
X29532D1*
X29580Y30229D1*
X29604Y30253D1*
X29627Y30301D1*
X29676Y30444D1*
X29699Y30492D1*
X29724Y30516D1*
X29771Y30540D1*
X29843D1*
X29891Y30492D1*
X29915Y30420D1*
Y30325D1*
X29891Y30253D1*
X29843Y30205D1*
X29484Y30981D2*
X29437Y30957D1*
X29413Y30886D1*
Y30838D1*
X29437Y30766D1*
X29509Y30718D1*
X29628Y30694D1*
X29747D1*
X29843Y30718D1*
X29891Y30766D1*
X29915Y30838D1*
Y30862D1*
X29891Y30933D1*
X29843Y30981D1*
X29771Y31005D1*
X29747D1*
X29676Y30981D1*
X29628Y30933D1*
X29604Y30862D1*
Y30838D1*
X29628Y30766D1*
X29676Y30718D1*
X29747Y30694D1*
X29412Y31327D2*
X29915D1*
X29412Y31159D2*
Y31494D1*
X29676Y31649D2*
Y31864D1*
X29652Y31935D1*
X29627Y31960D1*
X29580Y31984D1*
X29508D1*
X29461Y31960D1*
X29436Y31935D1*
X29412Y31864D1*
Y31649D1*
X29915D1*
X29532Y32497D2*
X29484Y32473D1*
X29436Y32425D1*
X29412Y32377D1*
Y32282D1*
X29436Y32234D1*
X29484Y32186D1*
X29532Y32162D1*
X29604Y32138D1*
X29724D1*
X29795Y32162D1*
X29843Y32186D1*
X29891Y32234D1*
X29915Y32282D1*
Y32377D1*
X29891Y32425D1*
X29843Y32473D1*
X29795Y32497D1*
X29724D1*
Y32377D1*
X29664Y32651D2*
Y32927D1*
X29509Y33082D2*
X29484Y33130D1*
X29413Y33202D1*
X29915D1*
Y33595D2*
X29413D1*
X29747Y33356D1*
Y33715D1*
X53285Y17305D2*
X52782Y17113D1*
X53285Y16922D1*
X53117Y16994D2*
Y17233D1*
X52854Y17794D2*
X52806Y17747D1*
X52782Y17675D1*
Y17579D1*
X52806Y17508D1*
X52854Y17459D1*
X52902D1*
X52950Y17484D1*
X52974Y17508D1*
X52997Y17555D1*
X53046Y17699D1*
X53069Y17747D1*
X53094Y17771D1*
X53141Y17794D1*
X53213D1*
X53261Y17747D1*
X53285Y17675D1*
Y17579D1*
X53261Y17508D1*
X53213Y17459D1*
X52854Y18236D2*
X52807Y18212D1*
X52783Y18140D1*
Y18093D1*
X52807Y18021D1*
X52879Y17973D1*
X52998Y17949D1*
X53117D1*
X53213Y17973D1*
X53261Y18021D1*
X53285Y18093D1*
Y18116D1*
X53261Y18188D1*
X53213Y18236D1*
X53141Y18259D1*
X53117D1*
X53046Y18236D1*
X52998Y18188D1*
X52974Y18116D1*
Y18093D1*
X52998Y18021D1*
X53046Y17973D1*
X53117Y17949D1*
X52902Y18773D2*
X52854Y18749D1*
X52806Y18701D1*
X52782Y18653D1*
Y18558D1*
X52806Y18509D1*
X52854Y18462D1*
X52902Y18438D1*
X52974Y18414D1*
X53094D1*
X53165Y18438D1*
X53213Y18462D1*
X53261Y18509D1*
X53285Y18558D1*
Y18653D1*
X53261Y18701D1*
X53213Y18749D1*
X53165Y18773D1*
X52854Y19214D2*
X52807Y19190D1*
X52783Y19118D1*
Y19071D1*
X52807Y18999D1*
X52879Y18951D1*
X52998Y18927D1*
X53117D1*
X53213Y18951D1*
X53261Y18999D1*
X53285Y19071D1*
Y19094D1*
X53261Y19166D1*
X53213Y19214D1*
X53141Y19238D1*
X53117D1*
X53046Y19214D1*
X52998Y19166D1*
X52974Y19094D1*
Y19071D1*
X52998Y18999D1*
X53046Y18951D1*
X53117Y18927D1*
X52902Y19416D2*
X52879D1*
X52831Y19440D1*
X52807Y19464D1*
X52783Y19512D1*
Y19607D1*
X52807Y19655D1*
X52831Y19679D1*
X52879Y19703D1*
X52926D1*
X52974Y19679D1*
X53046Y19631D1*
X53285Y19392D1*
Y19727D1*
X52902Y19906D2*
X52879D1*
X52831Y19929D1*
X52807Y19953D1*
X52783Y20001D1*
Y20097D1*
X52807Y20144D1*
X52831Y20168D1*
X52879Y20192D1*
X52926D1*
X52974Y20168D1*
X53046Y20121D1*
X53285Y19881D1*
Y20216D1*
X52783Y20657D2*
Y20419D1*
X52998Y20395D1*
X52974Y20419D1*
X52950Y20491D1*
Y20562D1*
X52974Y20634D1*
X53022Y20682D1*
X53094Y20706D1*
X53141D1*
X53213Y20682D1*
X53261Y20634D1*
X53285Y20562D1*
Y20491D1*
X53261Y20419D1*
X53237Y20395D1*
X53189Y20371D1*
X52854Y21147D2*
X52807Y21123D1*
X52783Y21051D1*
Y21004D1*
X52807Y20932D1*
X52879Y20884D1*
X52998Y20860D1*
X53117D1*
X53213Y20884D1*
X53261Y20932D1*
X53285Y21004D1*
Y21027D1*
X53261Y21099D1*
X53213Y21147D1*
X53141Y21171D1*
X53117D1*
X53046Y21147D1*
X52998Y21099D1*
X52974Y21027D1*
Y21004D1*
X52998Y20932D1*
X53046Y20884D1*
X53117Y20860D1*
X53285Y21708D2*
X52782Y21516D1*
X53285Y21325D1*
X53117Y21397D2*
Y21636D1*
X16484Y32841D2*
X15981D1*
X16484Y32650D1*
X15981Y32459D1*
X16484D1*
Y33379D2*
X15981Y33187D1*
X16484Y32996D1*
X16316Y33067D2*
Y33307D1*
X15981Y33533D2*
X16484Y33868D1*
X15981D2*
X16484Y33533D1*
X16101Y34047D2*
X16078D1*
X16029Y34070D1*
X16006Y34094D1*
X15982Y34142D1*
Y34238D1*
X16006Y34285D1*
X16029Y34309D1*
X16078Y34333D1*
X16125D1*
X16173Y34309D1*
X16244Y34262D1*
X16484Y34022D1*
Y34357D1*
X15982Y34655D2*
X16006Y34583D1*
X16078Y34535D1*
X16197Y34512D1*
X16269D1*
X16388Y34535D1*
X16460Y34583D1*
X16484Y34655D1*
Y34703D1*
X16460Y34775D1*
X16388Y34822D1*
X16269Y34846D1*
X16197D1*
X16078Y34822D1*
X16006Y34775D1*
X15982Y34703D1*
Y34655D1*
X16078Y34822D2*
X16388Y34535D1*
X16101Y35025D2*
X16078D1*
X16029Y35049D1*
X16006Y35073D1*
X15982Y35121D1*
Y35216D1*
X16006Y35264D1*
X16029Y35288D1*
X16078Y35312D1*
X16125D1*
X16173Y35288D1*
X16244Y35240D1*
X16484Y35001D1*
Y35336D1*
X16101Y35849D2*
X16053Y35825D1*
X16005Y35777D1*
X15981Y35730D1*
Y35634D1*
X16005Y35586D1*
X16053Y35538D1*
X16101Y35514D1*
X16173Y35490D1*
X16293D1*
X16364Y35514D1*
X16412Y35538D1*
X16459Y35586D1*
X16484Y35634D1*
Y35730D1*
X16459Y35777D1*
X16412Y35825D1*
X16364Y35849D1*
X16244Y36003D2*
Y36219D1*
X16221Y36290D1*
X16196Y36314D1*
X16149Y36338D1*
X16077D1*
X16029Y36314D1*
X16005Y36290D1*
X15981Y36219D1*
Y36003D1*
X16484D1*
X15981Y36803D2*
Y36493D1*
X16484D1*
Y36803D1*
X16221Y36493D2*
Y36684D1*
X32125Y8672D2*
Y8170D1*
X32460Y8672D2*
Y8170D1*
X32125Y8433D2*
X32460D1*
X32614Y8672D2*
Y8170D1*
X32782D1*
X32854Y8194D1*
X32902Y8242D1*
X32926Y8290D1*
X32949Y8361D1*
Y8481D1*
X32926Y8553D1*
X32902Y8600D1*
X32854Y8648D1*
X32782Y8672D1*
X32614D1*
X33104Y8433D2*
X33319D1*
X33391Y8457D1*
X33415Y8481D1*
X33439Y8529D1*
Y8577D1*
X33415Y8624D1*
X33391Y8648D1*
X33319Y8672D1*
X33104D1*
Y8170D1*
X33271Y8433D2*
X33439Y8170D1*
X33593Y8421D2*
X33869D1*
X34048Y8552D2*
Y8576D1*
X34072Y8624D1*
X34096Y8648D1*
X34144Y8672D1*
X34239D1*
X34287Y8648D1*
X34311Y8624D1*
X34335Y8576D1*
Y8529D1*
X34311Y8480D1*
X34263Y8409D1*
X34024Y8170D1*
X34359D1*
X34513Y8505D2*
X34776Y8170D1*
Y8505D2*
X34513Y8170D1*
X34955Y8552D2*
Y8576D1*
X34979Y8624D1*
X35002Y8648D1*
X35051Y8672D1*
X35146D1*
X35194Y8648D1*
X35217Y8624D1*
X35242Y8576D1*
Y8529D1*
X35217Y8480D1*
X35170Y8409D1*
X34931Y8170D1*
X35266D1*
X35707Y8672D2*
X35468D1*
X35444Y8457D1*
X35468Y8480D1*
X35540Y8505D1*
X35611D1*
X35683Y8480D1*
X35731Y8433D1*
X35755Y8361D1*
Y8314D1*
X35731Y8242D1*
X35683Y8194D1*
X35611Y8170D1*
X35540D1*
X35468Y8194D1*
X35444Y8218D1*
X35420Y8265D1*
X17444Y5733D2*
X17206D1*
X17182Y5518D1*
X17206Y5542D1*
X17278Y5567D1*
X17349D1*
X17421Y5542D1*
X17469Y5495D1*
X17493Y5423D1*
Y5375D1*
X17469Y5303D1*
X17421Y5255D1*
X17349Y5232D1*
X17278D1*
X17206Y5255D1*
X17182Y5280D1*
X17158Y5327D1*
X17647Y5734D2*
X17838Y5232D1*
X18029Y5734D1*
X8079Y20191D2*
Y20215D1*
X8103Y20263D1*
X8126Y20287D1*
X8174Y20311D1*
X8270D1*
X8318Y20287D1*
X8341Y20263D1*
X8366Y20215D1*
Y20167D1*
X8341Y20119D1*
X8294Y20048D1*
X8054Y19809D1*
X8389D1*
X8568Y20191D2*
Y20215D1*
X8592Y20263D1*
X8616Y20287D1*
X8664Y20311D1*
X8759D1*
X8807Y20287D1*
X8831Y20263D1*
X8855Y20215D1*
Y20167D1*
X8831Y20119D1*
X8783Y20048D1*
X8544Y19809D1*
X8879D1*
X9033Y20144D2*
Y19904D1*
X9057Y19833D1*
X9105Y19809D1*
X9177D1*
X9224Y19833D1*
X9296Y19904D1*
Y20144D2*
Y19809D1*
X9451Y20311D2*
Y19809D1*
X9786Y20311D2*
Y19809D1*
X9451Y20072D2*
X9786D1*
X17141Y26797D2*
X17404D1*
X17260Y26605D1*
X17332D1*
X17380Y26582D1*
X17404Y26558D1*
X17428Y26486D1*
Y26439D1*
X17404Y26367D1*
X17356Y26319D1*
X17284Y26295D1*
X17212D1*
X17141Y26319D1*
X17117Y26343D1*
X17093Y26390D1*
X17606Y26343D2*
X17582Y26319D1*
X17606Y26295D1*
X17630Y26319D1*
X17606Y26343D1*
X17833Y26797D2*
X18095D1*
X17952Y26605D1*
X18024D1*
X18072Y26582D1*
X18095Y26558D1*
X18120Y26486D1*
Y26439D1*
X18095Y26367D1*
X18048Y26319D1*
X17976Y26295D1*
X17904D1*
X17833Y26319D1*
X17809Y26343D1*
X17785Y26390D1*
X18274Y26797D2*
Y26295D1*
X18513Y26630D2*
X18274Y26390D1*
X18370Y26486D2*
X18537Y26295D1*
X12599Y21052D2*
Y21076D1*
X12623Y21124D1*
X12646Y21148D1*
X12694Y21172D1*
X12790D1*
X12838Y21148D1*
X12861Y21124D1*
X12886Y21076D1*
Y21029D1*
X12861Y20980D1*
X12814Y20909D1*
X12574Y20670D1*
X12909D1*
X13351Y21172D2*
X13112D1*
X13088Y20957D1*
X13112Y20980D1*
X13184Y21005D1*
X13255D1*
X13327Y20980D1*
X13375Y20933D1*
X13399Y20861D1*
Y20814D1*
X13375Y20742D1*
X13327Y20694D1*
X13255Y20670D1*
X13184D1*
X13112Y20694D1*
X13088Y20718D1*
X13064Y20765D1*
X13840Y21172D2*
X13601D1*
X13577Y20957D1*
X13601Y20980D1*
X13673Y21005D1*
X13744D1*
X13816Y20980D1*
X13864Y20933D1*
X13888Y20861D1*
Y20814D1*
X13864Y20742D1*
X13816Y20694D1*
X13744Y20670D1*
X13673D1*
X13601Y20694D1*
X13577Y20718D1*
X13553Y20765D1*
X14042Y21172D2*
Y20670D1*
X14282Y21005D2*
X14042Y20765D1*
X14138Y20861D2*
X14306Y20670D1*
X39391Y22047D2*
X39654D1*
X39510Y21855D1*
X39582D1*
X39630Y21832D1*
X39654Y21808D1*
X39678Y21736D1*
Y21689D1*
X39654Y21617D1*
X39606Y21569D1*
X39534Y21545D1*
X39462D1*
X39391Y21569D1*
X39367Y21593D1*
X39343Y21640D1*
X39856Y21593D2*
X39832Y21569D1*
X39856Y21545D1*
X39880Y21569D1*
X39856Y21593D1*
X40083Y22047D2*
X40345D1*
X40202Y21855D1*
X40274D1*
X40322Y21832D1*
X40345Y21808D1*
X40370Y21736D1*
Y21689D1*
X40345Y21617D1*
X40298Y21569D1*
X40226Y21545D1*
X40154D1*
X40083Y21569D1*
X40059Y21593D1*
X40035Y21640D1*
X40524Y22047D2*
Y21545D1*
X40763Y21880D2*
X40524Y21640D1*
X40620Y21736D2*
X40787Y21545D1*
X36833Y23266D2*
Y23529D1*
X37025Y23385D1*
Y23457D1*
X37048Y23505D1*
X37072Y23529D1*
X37144Y23553D1*
X37191D1*
X37263Y23529D1*
X37311Y23481D1*
X37335Y23409D1*
Y23337D1*
X37311Y23266D1*
X37287Y23242D1*
X37240Y23218D1*
X37287Y23731D2*
X37311Y23707D1*
X37335Y23731D1*
X37311Y23755D1*
X37287Y23731D1*
X36833Y23958D2*
Y24220D1*
X37025Y24077D1*
Y24149D1*
X37048Y24197D1*
X37072Y24220D1*
X37144Y24245D1*
X37191D1*
X37263Y24220D1*
X37311Y24173D1*
X37335Y24101D1*
Y24029D1*
X37311Y23958D1*
X37287Y23934D1*
X37240Y23910D1*
X36833Y24399D2*
X37335D1*
X37000Y24638D2*
X37240Y24399D1*
X37144Y24495D2*
X37335Y24662D1*
X11307Y10201D2*
X11355Y10225D1*
X11427Y10297D1*
Y9795D1*
X11725Y10297D2*
X11653Y10273D1*
X11605Y10201D1*
X11581Y10082D1*
Y10010D1*
X11605Y9890D1*
X11653Y9819D1*
X11725Y9795D1*
X11773D1*
X11844Y9819D1*
X11892Y9890D1*
X11916Y10010D1*
Y10082D1*
X11892Y10201D1*
X11844Y10273D1*
X11773Y10297D1*
X11725D1*
X11892Y10201D2*
X11605Y9890D1*
X12214Y10297D2*
X12142Y10273D1*
X12094Y10201D1*
X12071Y10082D1*
Y10010D1*
X12094Y9890D1*
X12142Y9819D1*
X12214Y9795D1*
X12262D1*
X12334Y9819D1*
X12381Y9890D1*
X12406Y10010D1*
Y10082D1*
X12381Y10201D1*
X12334Y10273D1*
X12262Y10297D1*
X12214D1*
X12381Y10201D2*
X12094Y9890D1*
X12560Y10297D2*
Y9795D1*
X12799Y10130D2*
X12560Y9890D1*
X12656Y9986D2*
X12823Y9795D1*
X12909Y18795D2*
Y19297D1*
X12670Y18962D1*
X13029D1*
X13183Y19201D2*
X13231Y19225D1*
X13303Y19297D1*
Y18795D1*
X13482Y19177D2*
Y19201D1*
X13506Y19249D1*
X13529Y19273D1*
X13577Y19297D1*
X13673D1*
X13721Y19273D1*
X13744Y19249D1*
X13769Y19201D1*
Y19154D1*
X13744Y19105D1*
X13697Y19034D1*
X13458Y18795D1*
X13792D1*
X13947Y19297D2*
Y18795D1*
X14186Y19130D2*
X13947Y18890D1*
X14042Y18986D2*
X14210Y18795D1*
X12918Y5436D2*
X13133D1*
X13205Y5460D1*
X13229Y5484D1*
X13253Y5531D1*
Y5579D1*
X13229Y5627D1*
X13205Y5651D1*
X13133Y5675D1*
X12918D1*
Y5173D1*
X13086Y5436D2*
X13253Y5173D1*
X13718Y5675D2*
X13408D1*
Y5173D1*
X13718D1*
X13408Y5436D2*
X13599D1*
X14207Y5603D2*
X14160Y5651D1*
X14088Y5675D1*
X13992D1*
X13921Y5651D1*
X13873Y5603D1*
Y5556D1*
X13897Y5507D1*
X13921Y5484D1*
X13968Y5460D1*
X14112Y5412D1*
X14160Y5388D1*
X14184Y5364D1*
X14207Y5316D1*
Y5244D1*
X14160Y5197D1*
X14088Y5173D1*
X13992D1*
X13921Y5197D1*
X13873Y5244D1*
X14672Y5675D2*
X14362D1*
Y5173D1*
X14672D1*
X14362Y5436D2*
X14553D1*
X14994Y5675D2*
Y5173D1*
X14827Y5675D2*
X15162D1*
X1341Y34514D2*
X1293Y34467D1*
X1269Y34395D1*
Y34299D1*
X1293Y34228D1*
X1341Y34180D1*
X1388D1*
X1436Y34204D1*
X1460Y34228D1*
X1484Y34275D1*
X1532Y34419D1*
X1556Y34467D1*
X1580Y34491D1*
X1627Y34514D1*
X1699D1*
X1747Y34467D1*
X1771Y34395D1*
Y34299D1*
X1747Y34228D1*
X1699Y34180D1*
X1269Y34669D2*
X1771D1*
Y34956D1*
X1269Y35110D2*
X1771D1*
Y35326D1*
X1747Y35398D1*
X1723Y35421D1*
X1676Y35445D1*
X1604D1*
X1556Y35421D1*
X1532Y35398D1*
X1508Y35326D1*
X1484Y35398D1*
X1460Y35421D1*
X1412Y35445D1*
X1364D1*
X1317Y35421D1*
X1293Y35398D1*
X1269Y35326D1*
Y35110D1*
X1508D2*
Y35326D1*
X1365Y35599D2*
X1341Y35648D1*
X1269Y35719D1*
X1771D1*
X1389Y35898D2*
X1365D1*
X1317Y35922D1*
X1293Y35946D1*
X1269Y35994D1*
Y36089D1*
X1293Y36137D1*
X1317Y36161D1*
X1365Y36185D1*
X1412D1*
X1461Y36161D1*
X1532Y36113D1*
X1771Y35874D1*
Y36209D1*
X1269Y36482D2*
X1293Y36411D1*
X1341Y36387D1*
X1389D1*
X1436Y36411D1*
X1461Y36459D1*
X1484Y36554D1*
X1508Y36626D1*
X1556Y36674D1*
X1604Y36697D1*
X1676D1*
X1723Y36674D1*
X1747Y36650D1*
X1771Y36578D1*
Y36482D1*
X1747Y36411D1*
X1723Y36387D1*
X1676Y36363D1*
X1604D1*
X1556Y36387D1*
X1508Y36435D1*
X1484Y36506D1*
X1461Y36602D1*
X1436Y36650D1*
X1389Y36674D1*
X1341D1*
X1293Y36650D1*
X1269Y36578D1*
Y36482D1*
X1365Y36852D2*
X1341Y36900D1*
X1269Y36972D1*
X1771D1*
X1508Y37126D2*
Y37341D1*
X1484Y37413D1*
X1460Y37437D1*
X1412Y37461D1*
X1364D1*
X1317Y37437D1*
X1293Y37413D1*
X1269Y37341D1*
Y37126D1*
X1771D1*
X1508Y37294D2*
X1771Y37461D1*
X1269Y37902D2*
Y37664D1*
X1484Y37640D1*
X1461Y37664D1*
X1436Y37735D1*
Y37807D1*
X1461Y37879D1*
X1508Y37927D1*
X1580Y37950D1*
X1627D1*
X1699Y37927D1*
X1747Y37879D1*
X1771Y37807D1*
Y37735D1*
X1747Y37664D1*
X1723Y37640D1*
X1676Y37616D1*
X7917Y5994D2*
Y5492D1*
X8085D1*
X8157Y5516D1*
X8205Y5563D1*
X8228Y5612D1*
X8252Y5683D1*
Y5803D1*
X8228Y5875D1*
X8205Y5922D1*
X8157Y5970D1*
X8085Y5994D1*
X7917D1*
X8742Y5922D2*
X8694Y5970D1*
X8622Y5994D1*
X8527D1*
X8455Y5970D1*
X8407Y5922D1*
Y5875D1*
X8431Y5827D1*
X8455Y5803D1*
X8502Y5779D1*
X8646Y5731D1*
X8694Y5707D1*
X8718Y5683D1*
X8742Y5635D1*
Y5563D1*
X8694Y5516D1*
X8622Y5492D1*
X8527D1*
X8455Y5516D1*
X8407Y5563D1*
X8896Y5898D2*
X8944Y5922D1*
X9016Y5993D1*
Y5492D1*
X9290Y5993D2*
X9218Y5970D1*
X9194Y5922D1*
Y5874D1*
X9218Y5827D1*
X9266Y5802D1*
X9362Y5778D1*
X9433Y5755D1*
X9481Y5707D1*
X9505Y5659D1*
Y5587D1*
X9481Y5540D1*
X9457Y5515D1*
X9385Y5492D1*
X9290D1*
X9218Y5515D1*
X9194Y5540D1*
X9170Y5587D1*
Y5659D1*
X9194Y5707D1*
X9242Y5755D1*
X9313Y5778D1*
X9409Y5802D1*
X9457Y5827D1*
X9481Y5874D1*
Y5922D1*
X9457Y5970D1*
X9385Y5993D1*
X9290D1*
X9659Y5898D2*
X9707Y5922D1*
X9779Y5993D1*
Y5492D1*
X9981Y5993D2*
X10244D1*
X10101Y5802D1*
X10173D1*
X10220Y5778D1*
X10244Y5755D1*
X10268Y5683D1*
Y5635D1*
X10244Y5563D1*
X10196Y5515D1*
X10125Y5492D1*
X10053D1*
X9981Y5515D1*
X9958Y5540D1*
X9933Y5587D1*
X10423Y5743D2*
X10699D1*
X10853Y5898D2*
X10902Y5922D1*
X10973Y5993D1*
Y5492D1*
X11415Y5993D2*
X11176D1*
X11152Y5778D1*
X11176Y5802D1*
X11248Y5827D1*
X11319D1*
X11391Y5802D1*
X11439Y5755D1*
X11463Y5683D1*
Y5635D1*
X11439Y5563D1*
X11391Y5515D1*
X11319Y5492D1*
X11248D1*
X11176Y5515D1*
X11152Y5540D1*
X11128Y5587D1*
X46865Y13896D2*
X46817Y13944D1*
X46745Y13968D1*
X46650D1*
X46578Y13944D1*
X46530Y13896D1*
Y13848D1*
X46554Y13800D1*
X46578Y13776D1*
X46625Y13753D1*
X46769Y13704D1*
X46817Y13681D1*
X46841Y13656D1*
X46865Y13609D1*
Y13537D1*
X46817Y13489D1*
X46745Y13465D1*
X46650D1*
X46578Y13489D1*
X46530Y13537D1*
X47354Y13968D2*
Y13465D1*
X47019Y13968D1*
Y13465D1*
X47604D2*
X47843Y13967D1*
X47508D1*
X48237Y13465D2*
Y13967D1*
X47998Y13633D1*
X48356D1*
X48511Y13968D2*
Y13465D1*
X48846Y13968D2*
Y13465D1*
X48511Y13728D2*
X48846D1*
X49359Y13848D2*
X49335Y13896D1*
X49287Y13944D1*
X49239Y13968D1*
X49144D1*
X49096Y13944D1*
X49048Y13896D1*
X49024Y13848D1*
X49000Y13776D1*
Y13656D1*
X49024Y13585D1*
X49048Y13537D1*
X49096Y13489D1*
X49144Y13465D1*
X49239D1*
X49287Y13489D1*
X49335Y13537D1*
X49359Y13585D1*
X49513Y13871D2*
X49561Y13896D1*
X49633Y13967D1*
Y13465D1*
X49835Y13967D2*
X50098D1*
X49955Y13776D1*
X50027D1*
X50074Y13752D1*
X50098Y13728D1*
X50122Y13656D1*
Y13609D1*
X50098Y13537D1*
X50050Y13489D1*
X49979Y13465D1*
X49907D1*
X49835Y13489D1*
X49812Y13513D1*
X49787Y13561D1*
X50396Y13967D2*
X50325Y13943D1*
X50300Y13896D1*
Y13848D1*
X50325Y13800D1*
X50372Y13776D1*
X50468Y13752D1*
X50540Y13728D1*
X50587Y13680D1*
X50611Y13633D1*
Y13561D1*
X50587Y13513D1*
X50564Y13489D1*
X50492Y13465D1*
X50396D1*
X50325Y13489D1*
X50300Y13513D1*
X50277Y13561D1*
Y13633D1*
X50300Y13680D1*
X50349Y13728D1*
X50420Y13752D1*
X50515Y13776D1*
X50564Y13800D1*
X50587Y13848D1*
Y13896D1*
X50564Y13943D1*
X50492Y13967D1*
X50396D1*
X51100Y13968D2*
Y13465D1*
X50765Y13968D1*
Y13465D1*
X47984Y21626D2*
X47936Y21579D1*
X47912Y21507D1*
Y21411D1*
X47936Y21340D1*
X47984Y21291D1*
X48032D1*
X48080Y21316D1*
X48104Y21340D1*
X48127Y21387D1*
X48176Y21531D1*
X48199Y21579D1*
X48224Y21603D1*
X48271Y21626D1*
X48343D1*
X48391Y21579D1*
X48415Y21507D1*
Y21411D1*
X48391Y21340D1*
X48343Y21291D1*
X47912Y22116D2*
X48415D1*
X47912Y21781D1*
X48415D1*
Y22366D2*
X47913Y22605D1*
Y22270D1*
X48415Y22999D2*
X47913D1*
X48247Y22759D1*
Y23118D1*
X47912Y23273D2*
X48415D1*
X47912Y23607D2*
X48415D1*
X48152Y23273D2*
Y23607D1*
X48032Y24121D2*
X47984Y24097D1*
X47936Y24049D1*
X47912Y24001D1*
Y23906D1*
X47936Y23857D1*
X47984Y23810D1*
X48032Y23786D1*
X48104Y23762D1*
X48224D1*
X48295Y23786D1*
X48343Y23810D1*
X48391Y23857D1*
X48415Y23906D1*
Y24001D1*
X48391Y24049D1*
X48343Y24097D1*
X48295Y24121D1*
X47913Y24323D2*
Y24586D1*
X48104Y24442D1*
Y24514D1*
X48128Y24562D1*
X48152Y24586D1*
X48224Y24610D1*
X48271D1*
X48343Y24586D1*
X48391Y24538D1*
X48415Y24466D1*
Y24394D1*
X48391Y24323D1*
X48367Y24299D1*
X48319Y24275D1*
X47913Y24908D2*
X47937Y24836D1*
X48009Y24788D1*
X48128Y24764D1*
X48200D1*
X48319Y24788D1*
X48391Y24836D1*
X48415Y24908D1*
Y24956D1*
X48391Y25027D1*
X48319Y25075D1*
X48200Y25099D1*
X48128D1*
X48009Y25075D1*
X47937Y25027D1*
X47913Y24956D1*
Y24908D1*
X48009Y25075D2*
X48319Y24788D1*
X47912Y25589D2*
X48415D1*
X47912Y25254D1*
X48415D1*
X42734Y21626D2*
X42686Y21579D1*
X42662Y21507D1*
Y21411D1*
X42686Y21340D1*
X42734Y21291D1*
X42782D1*
X42830Y21316D1*
X42854Y21340D1*
X42877Y21387D1*
X42926Y21531D1*
X42949Y21579D1*
X42974Y21603D1*
X43021Y21626D1*
X43093D1*
X43141Y21579D1*
X43165Y21507D1*
Y21411D1*
X43141Y21340D1*
X43093Y21291D1*
X42662Y22116D2*
X43165D1*
X42662Y21781D1*
X43165D1*
Y22366D2*
X42663Y22605D1*
Y22270D1*
X43165Y22999D2*
X42663D1*
X42997Y22759D1*
Y23118D1*
X42662Y23273D2*
X43165D1*
X42662Y23607D2*
X43165D1*
X42902Y23273D2*
Y23607D1*
X42782Y24121D2*
X42734Y24097D1*
X42686Y24049D1*
X42662Y24001D1*
Y23906D1*
X42686Y23857D1*
X42734Y23810D1*
X42782Y23786D1*
X42854Y23762D1*
X42974D1*
X43045Y23786D1*
X43093Y23810D1*
X43141Y23857D1*
X43165Y23906D1*
Y24001D1*
X43141Y24049D1*
X43093Y24097D1*
X43045Y24121D1*
X42663Y24419D2*
X42687Y24347D1*
X42759Y24299D1*
X42878Y24275D1*
X42950D1*
X43069Y24299D1*
X43141Y24347D1*
X43165Y24419D1*
Y24466D1*
X43141Y24538D1*
X43069Y24586D1*
X42950Y24610D1*
X42878D1*
X42759Y24586D1*
X42687Y24538D1*
X42663Y24466D1*
Y24419D1*
X42759Y24586D2*
X43069Y24299D1*
X42663Y24908D2*
X42687Y24836D1*
X42759Y24788D1*
X42878Y24764D1*
X42950D1*
X43069Y24788D1*
X43141Y24836D1*
X43165Y24908D1*
Y24956D1*
X43141Y25027D1*
X43069Y25075D1*
X42950Y25099D1*
X42878D1*
X42759Y25075D1*
X42687Y25027D1*
X42663Y24956D1*
Y24908D1*
X42759Y25075D2*
X43069Y24788D1*
X42662Y25589D2*
X43165D1*
X42662Y25254D1*
X43165D1*
X10605Y17396D2*
Y16893D1*
X10892D1*
X11214Y17396D2*
Y16893D1*
X11046Y17396D2*
X11381D1*
X11536Y17300D2*
X11584Y17324D1*
X11656Y17395D1*
Y16893D1*
X11858Y17395D2*
X12121D1*
X11977Y17204D1*
X12049D1*
X12097Y17180D1*
X12121Y17156D1*
X12145Y17085D1*
Y17037D1*
X12121Y16965D1*
X12073Y16917D1*
X12001Y16893D1*
X11929D1*
X11858Y16917D1*
X11834Y16941D1*
X11810Y16989D1*
X12443Y17395D2*
X12371Y17371D1*
X12323Y17300D1*
X12299Y17180D1*
Y17108D1*
X12323Y16989D1*
X12371Y16917D1*
X12443Y16893D1*
X12491D1*
X12562Y16917D1*
X12610Y16989D1*
X12634Y17108D1*
Y17180D1*
X12610Y17300D1*
X12562Y17371D1*
X12491Y17395D1*
X12443D1*
X12610Y17300D2*
X12323Y16989D1*
X12837Y17395D2*
X13099D1*
X12956Y17204D1*
X13028D1*
X13076Y17180D1*
X13099Y17156D1*
X13124Y17085D1*
Y17037D1*
X13099Y16965D1*
X13052Y16917D1*
X12980Y16893D1*
X12908D1*
X12837Y16917D1*
X12813Y16941D1*
X12789Y16989D1*
X13637Y17276D2*
X13613Y17324D1*
X13565Y17372D1*
X13517Y17396D1*
X13422D1*
X13374Y17372D1*
X13326Y17324D1*
X13302Y17276D1*
X13278Y17205D1*
Y17085D1*
X13302Y17013D1*
X13326Y16965D1*
X13374Y16918D1*
X13422Y16893D1*
X13517D1*
X13565Y16918D1*
X13613Y16965D1*
X13637Y17013D1*
X14126Y17396D2*
Y16893D1*
X13791Y17396D1*
Y16893D1*
X14400Y17395D2*
X14329Y17371D1*
X14304Y17324D1*
Y17276D1*
X14329Y17228D1*
X14376Y17204D1*
X14472Y17180D1*
X14544Y17156D1*
X14591Y17108D1*
X14615Y17061D1*
Y16989D1*
X14591Y16941D1*
X14567Y16917D1*
X14495Y16893D1*
X14400D1*
X14329Y16917D1*
X14304Y16941D1*
X14280Y16989D1*
Y17061D1*
X14304Y17108D1*
X14352Y17156D1*
X14424Y17180D1*
X14519Y17204D1*
X14567Y17228D1*
X14591Y17276D1*
Y17324D1*
X14567Y17371D1*
X14495Y17395D1*
X14400D1*
X14769Y17144D2*
X15046D1*
X15487Y17395D2*
X15248D1*
X15224Y17180D1*
X15248Y17204D1*
X15320Y17228D1*
X15391D1*
X15463Y17204D1*
X15511Y17156D1*
X15535Y17085D1*
Y17037D1*
X15511Y16965D1*
X15463Y16917D1*
X15391Y16893D1*
X15320D1*
X15248Y16917D1*
X15224Y16941D1*
X15200Y16989D1*
X9349Y39517D2*
X9397Y39541D1*
X9469Y39613D1*
Y39111D1*
X9647Y39159D2*
X9624Y39135D1*
X9647Y39111D1*
X9672Y39135D1*
X9647Y39159D1*
X9946Y39613D2*
X9874Y39589D1*
X9850Y39541D1*
Y39493D1*
X9874Y39446D1*
X9922Y39421D1*
X10017Y39398D1*
X10089Y39374D1*
X10137Y39326D1*
X10161Y39278D1*
Y39206D1*
X10137Y39159D1*
X10113Y39135D1*
X10041Y39111D1*
X9946D1*
X9874Y39135D1*
X9850Y39159D1*
X9826Y39206D1*
Y39278D1*
X9850Y39326D1*
X9898Y39374D1*
X9969Y39398D1*
X10065Y39421D1*
X10113Y39446D1*
X10137Y39493D1*
Y39541D1*
X10113Y39589D1*
X10041Y39613D1*
X9946D1*
X10554Y39111D2*
Y39613D1*
X10315Y39278D1*
X10674D1*
X10876Y39613D2*
X11139D1*
X10996Y39421D1*
X11067D1*
X11115Y39398D1*
X11139Y39374D1*
X11163Y39302D1*
Y39254D1*
X11139Y39183D1*
X11091Y39135D1*
X11019Y39111D1*
X10947D1*
X10876Y39135D1*
X10852Y39159D1*
X10828Y39206D1*
X11342Y39493D2*
Y39517D1*
X11365Y39565D1*
X11389Y39589D1*
X11437Y39613D1*
X11533D1*
X11580Y39589D1*
X11604Y39565D1*
X11629Y39517D1*
Y39469D1*
X11604Y39421D1*
X11557Y39350D1*
X11317Y39111D1*
X11652D1*
X11807Y39446D2*
Y39111D1*
Y39350D2*
X11879Y39422D1*
X11927Y39446D1*
X11998D1*
X12046Y39422D1*
X12070Y39350D1*
Y39111D1*
Y39350D2*
X12142Y39422D1*
X12190Y39446D1*
X12261D1*
X12309Y39422D1*
X12333Y39350D1*
Y39111D1*
X12488Y39613D2*
Y39111D1*
Y39350D2*
X12560Y39422D1*
X12608Y39446D1*
X12680D1*
X12727Y39422D1*
X12751Y39350D1*
Y39111D1*
X12905Y39446D2*
X13168D1*
X12905Y39111D1*
X13168D1*
X9412Y27076D2*
X9460Y27100D1*
X9532Y27172D1*
Y26670D1*
X9710Y26718D2*
X9686Y26694D1*
X9710Y26670D1*
X9734Y26694D1*
X9710Y26718D1*
X10032Y27172D2*
X9960Y27148D1*
X9912Y27076D1*
X9889Y26957D1*
Y26885D1*
X9912Y26765D1*
X9960Y26694D1*
X10032Y26670D1*
X10080D1*
X10152Y26694D1*
X10199Y26765D1*
X10224Y26885D1*
Y26957D1*
X10199Y27076D1*
X10152Y27148D1*
X10080Y27172D1*
X10032D1*
X10199Y27076D2*
X9912Y26765D1*
X10522Y27172D2*
X10450Y27148D1*
X10402Y27076D1*
X10378Y26957D1*
Y26885D1*
X10402Y26765D1*
X10450Y26694D1*
X10522Y26670D1*
X10569D1*
X10641Y26694D1*
X10689Y26765D1*
X10713Y26885D1*
Y26957D1*
X10689Y27076D1*
X10641Y27148D1*
X10569Y27172D1*
X10522D1*
X10689Y27076D2*
X10402Y26765D1*
X11011Y27172D2*
X10939Y27148D1*
X10891Y27076D1*
X10867Y26957D1*
Y26885D1*
X10891Y26765D1*
X10939Y26694D1*
X11011Y26670D1*
X11058D1*
X11130Y26694D1*
X11178Y26765D1*
X11202Y26885D1*
Y26957D1*
X11178Y27076D1*
X11130Y27148D1*
X11058Y27172D1*
X11011D1*
X11178Y27076D2*
X10891Y26765D1*
X11357Y27005D2*
Y26670D1*
Y26909D2*
X11428Y26981D1*
X11476Y27005D1*
X11548D1*
X11596Y26981D1*
X11620Y26909D1*
Y26670D1*
Y26909D2*
X11691Y26981D1*
X11740Y27005D1*
X11811D1*
X11859Y26981D1*
X11883Y26909D1*
Y26670D1*
X12038Y27172D2*
Y26670D1*
Y26909D2*
X12110Y26981D1*
X12158Y27005D1*
X12229D1*
X12277Y26981D1*
X12301Y26909D1*
Y26670D1*
X12455Y27005D2*
X12718D1*
X12455Y26670D1*
X12718D1*
X17046Y12473D2*
X17023D1*
X16974Y12496D1*
X16951Y12520D1*
X16927Y12568D1*
Y12664D1*
X16951Y12711D1*
X16974Y12735D1*
X17023Y12759D1*
X17070D1*
X17118Y12735D1*
X17189Y12688D1*
X17429Y12448D1*
Y12783D1*
X16926Y13273D2*
X17429D1*
X16926Y12938D1*
X17429D1*
X16927Y13475D2*
Y13738D1*
X17118Y13594D1*
Y13666D1*
X17142Y13714D1*
X17166Y13738D1*
X17238Y13762D1*
X17285D1*
X17357Y13738D1*
X17405Y13690D1*
X17429Y13618D1*
Y13546D1*
X17405Y13475D1*
X17381Y13451D1*
X17333Y13427D1*
X17094Y14227D2*
X17166Y14203D1*
X17214Y14156D1*
X17238Y14084D1*
Y14060D1*
X17214Y13988D1*
X17166Y13941D1*
X17094Y13916D1*
X17070D1*
X16998Y13941D1*
X16951Y13988D1*
X16927Y14060D1*
Y14084D1*
X16951Y14156D1*
X16998Y14203D1*
X17094Y14227D1*
X17214D1*
X17333Y14203D1*
X17405Y14156D1*
X17429Y14084D1*
Y14036D1*
X17405Y13964D1*
X17357Y13941D1*
X16927Y14525D2*
X16951Y14454D1*
X17023Y14406D1*
X17142Y14382D1*
X17214D1*
X17333Y14406D1*
X17405Y14454D1*
X17429Y14525D1*
Y14573D1*
X17405Y14645D1*
X17333Y14692D1*
X17214Y14717D1*
X17142D1*
X17023Y14692D1*
X16951Y14645D1*
X16927Y14573D1*
Y14525D1*
X17023Y14692D2*
X17333Y14406D1*
X16998Y15158D2*
X16951Y15134D1*
X16927Y15062D1*
Y15015D1*
X16951Y14943D1*
X17023Y14895D1*
X17142Y14871D1*
X17261D1*
X17357Y14895D1*
X17405Y14943D1*
X17429Y15015D1*
Y15039D1*
X17405Y15110D1*
X17357Y15158D1*
X17285Y15182D1*
X17261D1*
X17189Y15158D1*
X17142Y15110D1*
X17118Y15039D1*
Y15015D1*
X17142Y14943D1*
X17189Y14895D1*
X17261Y14871D1*
X14304Y10801D2*
X14280Y10849D1*
X14208Y10921D1*
X14710D1*
X14208Y11076D2*
X14710D1*
X14375Y11315D2*
X14615Y11076D1*
X14519Y11171D2*
X14710Y11339D1*
X25340Y4964D2*
D79*
Y5566D1*
X25111Y4964D1*
X24881Y5566D1*
Y4964D1*
X25870Y5366D2*
Y4964D1*
Y5279D2*
X25813Y5337D1*
X25755Y5366D1*
X25669D1*
X25612Y5337D1*
X25555Y5279D1*
X25526Y5193D1*
Y5136D1*
X25555Y5050D1*
X25612Y4993D1*
X25669Y4964D1*
X25755D1*
X25813Y4993D1*
X25870Y5050D1*
X26055Y5566D2*
X26084Y5538D1*
X26113Y5566D1*
X26084Y5596D1*
X26055Y5566D1*
X26084Y5366D2*
Y4964D1*
X26298Y5366D2*
Y4964D1*
Y5251D2*
X26384Y5337D1*
X26442Y5366D1*
X26527D1*
X26585Y5337D1*
X26614Y5251D1*
Y4964D1*
X27382Y5566D2*
Y4964D1*
X27641D1*
X27727Y4993D1*
X27756Y5021D1*
X27784Y5078D1*
Y5165D1*
X27756Y5222D1*
X27727Y5251D1*
X27641Y5279D1*
X27727Y5308D1*
X27756Y5337D1*
X27784Y5394D1*
Y5452D1*
X27756Y5509D1*
X27727Y5538D1*
X27641Y5566D1*
X27382D1*
Y5279D2*
X27641D1*
X28113Y5366D2*
X28056Y5337D1*
X27998Y5279D1*
X27969Y5193D1*
Y5136D1*
X27998Y5050D1*
X28056Y4993D1*
X28113Y4964D1*
X28199D1*
X28257Y4993D1*
X28314Y5050D1*
X28343Y5136D1*
Y5193D1*
X28314Y5279D1*
X28257Y5337D1*
X28199Y5366D1*
X28113D1*
X28872D2*
Y4964D1*
Y5279D2*
X28815Y5337D1*
X28758Y5366D1*
X28672D1*
X28614Y5337D1*
X28557Y5279D1*
X28528Y5193D1*
Y5136D1*
X28557Y5050D1*
X28614Y4993D1*
X28672Y4964D1*
X28758D1*
X28815Y4993D1*
X28872Y5050D1*
X29058Y5366D2*
Y4964D1*
Y5193D2*
X29087Y5279D1*
X29144Y5337D1*
X29201Y5366D1*
X29288D1*
X29817Y5566D2*
Y4964D1*
Y5279D2*
X29760Y5337D1*
X29702Y5366D1*
X29616D1*
X29559Y5337D1*
X29501Y5279D1*
X29473Y5193D1*
Y5136D1*
X29501Y5050D1*
X29559Y4993D1*
X29616Y4964D1*
X29702D1*
X29760Y4993D1*
X29817Y5050D1*
X30586Y5366D2*
X30758Y4964D1*
X30930Y5366D1*
X31115Y5451D2*
X31173Y5480D1*
X31259Y5566D1*
Y4964D1*
X31473Y5021D2*
X31444Y4992D1*
X31473Y4964D1*
X31502Y4992D1*
X31473Y5021D1*
X31974Y4964D2*
Y5566D1*
X31687Y5165D1*
X32118D1*
X33087Y5724D2*
X33029Y5667D1*
X32972Y5580D1*
X32915Y5466D1*
X32886Y5322D1*
Y5207D1*
X32915Y5064D1*
X32972Y4949D1*
X33029Y4863D1*
X33087Y4806D1*
X33617Y5279D2*
X33560Y5337D1*
X33502Y5366D1*
X33416D1*
X33359Y5337D1*
X33302Y5279D1*
X33272Y5193D1*
Y5136D1*
X33302Y5050D1*
X33359Y4993D1*
X33416Y4964D1*
X33502D1*
X33560Y4993D1*
X33617Y5050D1*
X33803Y5724D2*
X33860Y5667D1*
X33917Y5580D1*
X33975Y5466D1*
X34004Y5322D1*
Y5207D1*
X33975Y5064D1*
X33917Y4949D1*
X33860Y4863D1*
X33803Y4806D1*
X34801Y5423D2*
Y5451D1*
X34830Y5509D1*
X34858Y5537D1*
X34916Y5566D1*
X35031D1*
X35088Y5537D1*
X35116Y5509D1*
X35145Y5451D1*
Y5394D1*
X35116Y5336D1*
X35059Y5251D1*
X34772Y4964D1*
X35174D1*
X35532Y5566D2*
X35445Y5537D1*
X35388Y5451D1*
X35359Y5308D1*
Y5222D1*
X35388Y5078D1*
X35445Y4992D1*
X35532Y4964D1*
X35589D1*
X35675Y4992D1*
X35732Y5078D1*
X35761Y5222D1*
Y5308D1*
X35732Y5451D1*
X35675Y5537D1*
X35589Y5566D1*
X35532D1*
X35732Y5451D2*
X35388Y5078D1*
X35946Y5451D2*
X36004Y5480D1*
X36090Y5566D1*
Y4964D1*
X36620Y5480D2*
X36591Y5537D1*
X36505Y5566D1*
X36448D1*
X36362Y5537D1*
X36304Y5451D1*
X36276Y5308D1*
Y5165D1*
X36304Y5050D1*
X36362Y4992D1*
X36448Y4964D1*
X36477D1*
X36562Y4992D1*
X36620Y5050D1*
X36648Y5136D1*
Y5165D1*
X36620Y5251D1*
X36562Y5308D1*
X36477Y5336D1*
X36448D1*
X36362Y5308D1*
X36304Y5251D1*
X36276Y5165D1*
X37417Y5251D2*
X37676D1*
X37761Y5279D1*
X37790Y5308D1*
X37819Y5366D1*
Y5452D1*
X37790Y5509D1*
X37761Y5538D1*
X37676Y5566D1*
X37417D1*
Y4964D1*
X38004Y5193D2*
X38348D1*
Y5251D1*
X38320Y5308D1*
X38291Y5337D1*
X38234Y5366D1*
X38147D1*
X38090Y5337D1*
X38033Y5279D1*
X38004Y5193D1*
Y5136D1*
X38033Y5050D1*
X38090Y4993D1*
X38147Y4964D1*
X38234D1*
X38291Y4993D1*
X38348Y5050D1*
X38620Y5566D2*
Y5078D1*
X38648Y4993D1*
X38706Y4964D1*
X38763D1*
X38534Y5366D2*
X38734D1*
X38948Y5193D2*
X39293D1*
Y5251D1*
X39264Y5308D1*
X39235Y5337D1*
X39178Y5366D1*
X39092D1*
X39035Y5337D1*
X38977Y5279D1*
X38948Y5193D1*
Y5136D1*
X38977Y5050D1*
X39035Y4993D1*
X39092Y4964D1*
X39178D1*
X39235Y4993D1*
X39293Y5050D1*
X39478Y5366D2*
Y4964D1*
Y5193D2*
X39507Y5279D1*
X39564Y5337D1*
X39622Y5366D1*
X39708D1*
X40878Y5566D2*
Y4964D1*
X40476Y5566D1*
Y4964D1*
X41207Y5366D2*
X41150Y5337D1*
X41092Y5279D1*
X41064Y5193D1*
Y5136D1*
X41092Y5050D1*
X41150Y4993D1*
X41207Y4964D1*
X41293D1*
X41351Y4993D1*
X41408Y5050D1*
X41437Y5136D1*
Y5193D1*
X41408Y5279D1*
X41351Y5337D1*
X41293Y5366D1*
X41207D1*
X41651D2*
X41823Y4964D1*
X41766Y4849D1*
X41708Y4791D1*
X41651Y4763D1*
X41622D1*
X41996Y5366D2*
X41823Y4964D1*
X42181Y5193D2*
X42525D1*
Y5251D1*
X42497Y5308D1*
X42468Y5337D1*
X42410Y5366D1*
X42324D1*
X42267Y5337D1*
X42209Y5279D1*
X42181Y5193D1*
Y5136D1*
X42209Y5050D1*
X42267Y4993D1*
X42324Y4964D1*
X42410D1*
X42468Y4993D1*
X42525Y5050D1*
X43026Y5279D2*
X42998Y5337D1*
X42911Y5366D1*
X42825D1*
X42739Y5337D1*
X42710Y5279D1*
X42739Y5222D1*
X42797Y5193D1*
X42940Y5165D1*
X42998Y5136D1*
X43026Y5078D1*
Y5050D1*
X42998Y4993D1*
X42911Y4964D1*
X42825D1*
X42739Y4993D1*
X42710Y5050D1*
X47716Y31799D2*
D80*
Y29890D1*
X48353D1*
X48626Y29982D1*
X48808Y30163D1*
X48899Y30346D1*
X48989Y30616D1*
Y31072D1*
X48899Y31345D1*
X48808Y31526D1*
X48626Y31709D1*
X48353Y31799D1*
X47716D1*
X50029Y31163D2*
X49849Y31072D1*
X49666Y30890D1*
X49576Y30616D1*
Y30436D1*
X49666Y30163D1*
X49849Y29982D1*
X50029Y29890D1*
X50302D1*
X50485Y29982D1*
X50666Y30163D1*
X50758Y30436D1*
Y30616D1*
X50666Y30890D1*
X50485Y31072D1*
X50302Y31163D1*
X50029D1*
X52435Y31799D2*
Y29890D1*
Y30890D2*
X52254Y31072D1*
X52072Y31163D1*
X51798D1*
X51618Y31072D1*
X51435Y30890D1*
X51345Y30616D1*
Y30436D1*
X51435Y30163D1*
X51618Y29982D1*
X51798Y29890D1*
X52072D1*
X52254Y29982D1*
X52435Y30163D1*
X53475Y31163D2*
X53295Y31072D1*
X53112Y30890D1*
X53022Y30616D1*
Y30436D1*
X53112Y30163D1*
X53295Y29982D1*
X53475Y29890D1*
X53748D1*
X53931Y29982D1*
X54112Y30163D1*
X54204Y30436D1*
Y30616D1*
X54112Y30890D1*
X53931Y31072D1*
X53748Y31163D1*
X53475D1*
X48458Y7369D2*
D81*
Y6364D1*
Y6890D2*
X48363Y6986D1*
X48266Y7034D1*
X48123D1*
X48028Y6986D1*
X47931Y6890D1*
X47884Y6747D1*
Y6652D1*
X47931Y6508D1*
X48028Y6413D1*
X48123Y6364D1*
X48266D1*
X48363Y6413D1*
X48458Y6508D1*
X49005Y7034D2*
X48910Y6986D1*
X48814Y6890D1*
X48766Y6747D1*
Y6652D1*
X48814Y6508D1*
X48910Y6413D1*
X49005Y6364D1*
X49149D1*
X49245Y6413D1*
X49340Y6508D1*
X49389Y6652D1*
Y6747D1*
X49340Y6890D1*
X49245Y6986D1*
X49149Y7034D1*
X49005D1*
X50271Y7369D2*
Y6364D1*
Y6890D2*
X50176Y6986D1*
X50080Y7034D1*
X49936D1*
X49841Y6986D1*
X49745Y6890D1*
X49698Y6747D1*
Y6652D1*
X49745Y6508D1*
X49841Y6413D1*
X49936Y6364D1*
X50080D1*
X50176Y6413D1*
X50271Y6508D1*
X50819Y7034D2*
X50724Y6986D1*
X50628Y6890D1*
X50580Y6747D1*
Y6652D1*
X50628Y6508D1*
X50724Y6413D1*
X50819Y6364D1*
X50962D1*
X51059Y6413D1*
X51154Y6508D1*
X51202Y6652D1*
Y6747D1*
X51154Y6890D1*
X51059Y6986D1*
X50962Y7034D1*
X50819D1*
X51511Y7369D2*
Y6364D1*
X52394Y7034D2*
Y6364D1*
Y6890D2*
X52299Y6986D1*
X52202Y7034D1*
X52060D1*
X51964Y6986D1*
X51869Y6890D1*
X51820Y6747D1*
Y6652D1*
X51869Y6508D1*
X51964Y6413D1*
X52060Y6364D1*
X52202D1*
X52299Y6413D1*
X52394Y6508D1*
X52702Y7369D2*
Y6364D1*
Y6890D2*
X52799Y6986D1*
X52894Y7034D1*
X53037D1*
X53132Y6986D1*
X53229Y6890D1*
X53276Y6747D1*
Y6652D1*
X53229Y6508D1*
X53132Y6413D1*
X53037Y6364D1*
X52894D1*
X52799Y6413D1*
X52702Y6508D1*
X54111Y6890D2*
X54063Y6986D1*
X53920Y7034D1*
X53776D1*
X53632Y6986D1*
X53585Y6890D1*
X53632Y6795D1*
X53729Y6747D1*
X53967Y6699D1*
X54063Y6652D1*
X54111Y6555D1*
Y6508D1*
X54063Y6413D1*
X53920Y6364D1*
X53776D1*
X53632Y6413D1*
X53585Y6508D1*
X54467Y6460D2*
X54420Y6412D1*
X54467Y6364D1*
X54516Y6412D1*
X54467Y6460D1*
X54825Y7369D2*
X54872Y7321D1*
X54921Y7369D1*
X54872Y7418D1*
X54825Y7369D1*
X54872Y7034D2*
Y6364D1*
X55468Y7034D2*
X55373Y6986D1*
X55277Y6890D1*
X55230Y6747D1*
Y6652D1*
X55277Y6508D1*
X55373Y6413D1*
X55468Y6364D1*
X55612D1*
X55708Y6413D1*
X55803Y6508D1*
X55852Y6652D1*
Y6747D1*
X55803Y6890D1*
X55708Y6986D1*
X55612Y7034D1*
X55468D1*
X48012Y29245D2*
D82*
X47979Y29312D1*
X47878Y29345D1*
X47812D1*
X47711Y29312D1*
X47644Y29211D1*
X47611Y29044D1*
Y28877D1*
X47644Y28743D1*
X47711Y28676D1*
X47812Y28642D1*
X47845D1*
X47945Y28676D1*
X48012Y28743D1*
X48046Y28844D1*
Y28877D1*
X48012Y28977D1*
X47945Y29044D1*
X47845Y29077D1*
X47812D1*
X47711Y29044D1*
X47644Y28977D1*
X47611Y28877D1*
X48663Y29345D2*
X48329D1*
X48296Y29044D1*
X48329Y29077D1*
X48430Y29111D1*
X48529D1*
X48630Y29077D1*
X48697Y29011D1*
X48731Y28910D1*
Y28844D1*
X48697Y28743D1*
X48630Y28676D1*
X48529Y28642D1*
X48430D1*
X48329Y28676D1*
X48296Y28710D1*
X48262Y28776D1*
X49148Y29345D2*
X49047Y29312D1*
X48980Y29211D1*
X48947Y29044D1*
Y28943D1*
X48980Y28776D1*
X49047Y28676D1*
X49148Y28642D1*
X49215D1*
X49315Y28676D1*
X49382Y28776D1*
X49416Y28943D1*
Y29044D1*
X49382Y29211D1*
X49315Y29312D1*
X49215Y29345D1*
X49148D1*
X49382Y29211D2*
X48980Y28776D1*
X49666Y29178D2*
Y29211D1*
X49699Y29278D1*
X49732Y29312D1*
X49800Y29345D1*
X49934D1*
X50000Y29312D1*
X50033Y29278D1*
X50068Y29211D1*
Y29145D1*
X50033Y29077D1*
X49967Y28977D1*
X49632Y28642D1*
X50101D1*
X51500Y29179D2*
X51466Y29245D1*
X51399Y29312D1*
X51332Y29346D1*
X51199D1*
X51131Y29312D1*
X51065Y29245D1*
X51031Y29179D1*
X50997Y29078D1*
Y28910D1*
X51031Y28810D1*
X51065Y28743D1*
X51131Y28676D1*
X51199Y28642D1*
X51332D1*
X51399Y28676D1*
X51466Y28743D1*
X51500Y28810D1*
Y28910D1*
X51332D1*
X52117Y29111D2*
Y28642D1*
Y29011D2*
X52051Y29078D1*
X51983Y29111D1*
X51884D1*
X51816Y29078D1*
X51750Y29011D1*
X51716Y28910D1*
Y28844D1*
X51750Y28743D1*
X51816Y28676D1*
X51884Y28642D1*
X51983D1*
X52051Y28676D1*
X52117Y28743D1*
X52333Y29111D2*
Y28642D1*
Y28977D2*
X52434Y29078D1*
X52501Y29111D1*
X52601D1*
X52668Y29078D1*
X52702Y28977D1*
Y28642D1*
Y28977D2*
X52802Y29078D1*
X52870Y29111D1*
X52969D1*
X53037Y29078D1*
X53071Y28977D1*
Y28642D1*
X53287Y28910D2*
X53689D1*
Y28977D1*
X53655Y29045D1*
X53622Y29078D1*
X53555Y29111D1*
X53454D1*
X53388Y29078D1*
X53320Y29011D1*
X53287Y28910D1*
Y28844D1*
X53320Y28743D1*
X53388Y28676D1*
X53454Y28642D1*
X53555D1*
X53622Y28676D1*
X53689Y28743D1*
X55054Y29245D2*
X54987Y29312D1*
X54887Y29346D1*
X54753D1*
X54652Y29312D1*
X54585Y29245D1*
Y29179D1*
X54619Y29111D1*
X54652Y29078D1*
X54719Y29045D1*
X54920Y28977D1*
X54987Y28944D1*
X55021Y28910D1*
X55054Y28844D1*
Y28743D1*
X54987Y28676D1*
X54887Y28642D1*
X54753D1*
X54652Y28676D1*
X54585Y28743D1*
X55304Y29111D2*
X55505Y28642D1*
X55438Y28508D1*
X55371Y28441D1*
X55304Y28408D1*
X55270D1*
X55706Y29111D2*
X55505Y28642D1*
X56290Y29011D2*
X56257Y29078D1*
X56156Y29111D1*
X56056D1*
X55955Y29078D1*
X55922Y29011D1*
X55955Y28944D1*
X56023Y28910D1*
X56190Y28877D1*
X56257Y28844D1*
X56290Y28776D1*
Y28743D1*
X56257Y28676D1*
X56156Y28642D1*
X56056D1*
X55955Y28676D1*
X55922Y28743D1*
X56607Y29346D2*
Y28776D1*
X56640Y28676D1*
X56708Y28642D1*
X56774D1*
X56506Y29111D2*
X56741D1*
X56990Y28910D2*
X57392D1*
Y28977D1*
X57359Y29045D1*
X57325Y29078D1*
X57258Y29111D1*
X57157D1*
X57091Y29078D1*
X57024Y29011D1*
X56990Y28910D1*
Y28844D1*
X57024Y28743D1*
X57091Y28676D1*
X57157Y28642D1*
X57258D1*
X57325Y28676D1*
X57392Y28743D1*
X57608Y29111D2*
Y28642D1*
Y28977D2*
X57709Y29078D1*
X57776Y29111D1*
X57876D1*
X57943Y29078D1*
X57976Y28977D1*
Y28642D1*
Y28977D2*
X58077Y29078D1*
X58144Y29111D1*
X58244D1*
X58311Y29078D1*
X58345Y28977D1*
Y28642D1*
X7137Y29035D2*
D78*
X7400D1*
X7256Y28843D1*
X7328D1*
X7376Y28820D1*
X7400Y28796D1*
X7424Y28724D1*
Y28676D1*
X7400Y28605D1*
X7352Y28556D1*
X7280Y28533D1*
X7208D1*
X7137Y28556D1*
X7113Y28581D1*
X7089Y28628D1*
X7578Y29035D2*
X7769Y28533D1*
X7961Y29035D1*
X59948Y28853D2*
X59924Y28901D1*
X59876Y28949D1*
X59828Y28973D1*
X59733D1*
X59685Y28949D1*
X59637Y28901D1*
X59613Y28853D1*
X59589Y28781D1*
Y28661D1*
X59613Y28590D1*
X59637Y28542D1*
X59685Y28495D1*
X59733Y28470D1*
X59828D1*
X59876Y28495D1*
X59924Y28542D1*
X59948Y28590D1*
Y28661D1*
X59828D1*
X60437Y28973D2*
Y28470D1*
X60102Y28973D1*
Y28470D1*
X60591Y28973D2*
Y28470D1*
X60759D1*
X60831Y28495D1*
X60879Y28542D1*
X60902Y28590D1*
X60926Y28661D1*
Y28781D1*
X60902Y28853D1*
X60879Y28901D1*
X60831Y28949D1*
X60759Y28973D1*
X60591D1*
M02*
