G04 DipTrace 2.4.0.2*
%INTop.gbr*%
%MOIN*%
%ADD13C,0.013*%
%ADD14C,0.02*%
%ADD18C,0.063*%
%ADD19R,0.063X0.063*%
%ADD20R,0.0591X0.0591*%
%ADD21C,0.0591*%
%ADD22O,0.0394X0.0787*%
%ADD23R,0.0748X0.0748*%
%ADD24C,0.0748*%
%ADD25C,0.063*%
%ADD26R,0.0665X0.0665*%
%ADD27C,0.0665*%
%ADD28C,0.1874*%
%ADD29R,0.06X0.06*%
%ADD30C,0.06*%
%ADD31C,0.06*%
%ADD32R,0.0669X0.0669*%
%ADD33C,0.0669*%
%ADD34C,0.04*%
%FSLAX44Y44*%
G04*
G70*
G90*
G75*
G01*
%LNTop*%
%LPD*%
X32500Y25000D2*
D13*
X33000D1*
X34125Y26125D1*
X35875D1*
X36875Y27125D1*
X50000D1*
X51875Y29000D1*
Y29625D1*
X51900Y29600D1*
X17500Y18375D2*
X16875D1*
X14000Y15500D1*
Y12750D1*
X50500Y7100D2*
X51350D1*
X51500Y7250D1*
Y8500D1*
X51375Y8625D1*
X48000D1*
X47500Y9125D1*
X45500D1*
X45125Y9500D1*
Y10875D1*
X43625Y12375D1*
Y13500D1*
X42500Y14625D1*
X40750D1*
X40375Y14250D1*
Y12625D1*
X39875Y12125D1*
X36125D1*
X32500Y26000D2*
X33625D1*
X34000Y26375D1*
X35750D1*
X36750Y27375D1*
X49250D1*
X50875Y29000D1*
Y29625D1*
X50900Y29600D1*
X17500Y17375D2*
X16750D1*
X15000Y15625D1*
Y12750D1*
X32500Y27000D2*
X36000D1*
X36625Y27625D1*
X48500D1*
X49875Y29000D1*
Y29600D1*
X49900D1*
X32500Y28000D2*
Y27875D1*
X47750D1*
X48875Y29000D1*
Y29600D1*
X48900D1*
X32500Y29000D2*
Y29125D1*
X33500Y28125D1*
X47000D1*
X47875Y29000D1*
Y29600D1*
X47900D1*
X32500Y30000D2*
X35000D1*
X36625Y28375D1*
X46250D1*
X46875Y29000D1*
Y29600D1*
X46900D1*
X32500Y31000D2*
X34375D1*
X36750Y28625D1*
X45500D1*
X45875Y29000D1*
Y29600D1*
X45900D1*
X32500Y32000D2*
X33750D1*
X36875Y28875D1*
X44750D1*
X44875Y29000D1*
Y29600D1*
X44900D1*
X49000Y25500D2*
X53625D1*
X57000Y28875D2*
Y36000D1*
X56000Y37000D1*
X46625D1*
X45875Y36250D1*
Y35625D1*
X45900Y35600D1*
X38750Y29750D2*
X40000Y31000D1*
X36625Y29750D2*
Y30875D1*
X32500Y35000D1*
X42125Y16125D2*
X42750D1*
X43250Y16625D1*
X47625D1*
X48000Y17000D1*
Y17750D1*
X47625Y18125D1*
X47250D1*
X38000Y29750D2*
X39250Y31000D1*
X26500Y35000D2*
X25750D1*
X25125Y34375D1*
Y32375D1*
X24250Y31500D1*
X20500D1*
X18375Y29375D1*
X17500D1*
X44900Y35600D2*
Y36225D1*
X28000Y12750D2*
Y13375D1*
X30625Y13625D2*
X33500D1*
X34750Y14875D1*
Y15250D1*
X35125Y15625D1*
X39125D1*
X39375Y15875D1*
Y17625D1*
X40875Y19125D1*
X42125D1*
X49000Y24875D2*
X53625D1*
X57000Y28250D2*
X57375Y28625D1*
Y36250D1*
X56250Y37375D1*
X46050D1*
X44900Y36225D1*
X26500Y33000D2*
X26125D1*
X24375Y31250D1*
X20750D1*
X18375Y28875D1*
X17250D1*
X16500Y28125D1*
Y27375D1*
X16000Y26875D1*
X26500Y32000D2*
X25500D1*
X24500Y31000D1*
X20875D1*
X19875Y30000D1*
Y26875D1*
X9000Y17000D2*
Y17250D1*
X9750Y16500D1*
X11000D1*
X9000Y19000D2*
X9250D1*
X11000Y17250D1*
Y17500D1*
X9000Y20000D2*
Y19750D1*
X8750Y20000D1*
X10250D1*
X11000Y19250D1*
Y19500D1*
X9000Y21000D2*
X10500D1*
X11000Y20500D1*
X26500Y24000D2*
X26250D1*
X25750Y23500D1*
Y22250D1*
X23875Y20375D1*
X23484D1*
X52900Y29600D2*
Y30600D1*
X52125Y31375D1*
X37875D1*
X32625Y36625D1*
X29875D1*
X29375Y36125D1*
Y25000D1*
X28375Y24000D1*
X26500D1*
X36125Y11125D2*
X26125D1*
X25500Y11750D1*
Y13500D1*
X24750Y14250D1*
X19750D1*
X19000Y13500D1*
Y12750D1*
X26500Y25000D2*
X26125D1*
X25500Y24375D1*
Y22625D1*
X24250Y21375D1*
X23484D1*
X53900Y29600D2*
Y30600D1*
X52875Y31625D1*
X38000D1*
X32750Y36875D1*
X29750D1*
X29125Y36250D1*
Y26000D1*
X28125Y25000D1*
X26500D1*
X36125Y10125D2*
X25875D1*
X24500Y11500D1*
Y13375D1*
X24000Y13875D1*
X20375D1*
X20000Y13500D1*
Y12750D1*
X26500Y26000D2*
X26000D1*
X25250Y25250D1*
Y23375D1*
X24250Y22375D1*
X23484D1*
X54900Y29600D2*
Y30475D1*
X53500Y31875D1*
X38125D1*
X32875Y37125D1*
X29625D1*
X28875Y36375D1*
Y26875D1*
X28000Y26000D1*
X26500D1*
X36125Y9125D2*
X25625D1*
X23500Y11250D1*
Y13250D1*
X23250Y13500D1*
X21125D1*
X21000Y13375D1*
Y12750D1*
X26500Y27000D2*
X25875D1*
X25000Y26125D1*
Y24125D1*
X24250Y23375D1*
X23484D1*
X55900Y35600D2*
Y34650D1*
X54375Y33125D1*
X37250D1*
X33000Y37375D1*
X29500D1*
X28625Y36500D1*
Y27625D1*
X28000Y27000D1*
X26500D1*
X42125Y8125D2*
X41625D1*
X41000Y7500D1*
X35750D1*
X35000Y8250D1*
X25250D1*
X22000Y11500D1*
Y12750D1*
X26500Y28000D2*
X25750D1*
X24750Y27000D1*
Y24875D1*
X24250Y24375D1*
X23484D1*
X54900Y35600D2*
Y34775D1*
X53500Y33375D1*
X37375D1*
X33125Y37625D1*
X29375D1*
X28375Y36625D1*
Y28375D1*
X28000Y28000D1*
X26500D1*
X42125Y9125D2*
X41625D1*
X41125Y8625D1*
X25500D1*
X23000Y11125D1*
Y12750D1*
X26500Y29000D2*
X25875D1*
X24500Y27625D1*
Y25625D1*
X24250Y25375D1*
X23484D1*
X53900Y35600D2*
X53875D1*
Y34750D1*
X52750Y33625D1*
X37500D1*
X33250Y37875D1*
X29250D1*
X28125Y36750D1*
Y29375D1*
X27750Y29000D1*
X26500D1*
X42125Y10125D2*
X41500D1*
X41000Y9625D1*
X25750D1*
X24000Y11375D1*
Y12750D1*
X53875Y32500D2*
Y32375D1*
X55375Y30875D1*
Y28250D1*
X26500Y30000D2*
X25875D1*
X24250Y28375D1*
Y26625D1*
X24000Y26375D1*
X23484D1*
X52900Y35600D2*
Y34775D1*
X52000Y33875D1*
X37625D1*
X33375Y38125D1*
X29125D1*
X27875Y36875D1*
Y30500D1*
X27375Y30000D1*
X26500D1*
X42125Y11125D2*
X41500D1*
X41000Y10625D1*
X26000D1*
X25000Y11625D1*
Y12750D1*
X26500Y31000D2*
X26000D1*
X24000Y29000D1*
Y27500D1*
X23875Y27375D1*
X23484D1*
X51900Y35600D2*
Y34775D1*
X51250Y34125D1*
X37750D1*
X33500Y38375D1*
X29000D1*
X27625Y37000D1*
Y31250D1*
X27375Y31000D1*
X26500D1*
X42125Y12125D2*
X41500D1*
X41000Y11625D1*
X26250D1*
X26000Y11875D1*
Y12750D1*
X53500Y9100D2*
X56500D1*
X53500Y22100D2*
X53350D1*
X52750Y21500D1*
Y21000D1*
X53125Y20625D1*
X54750D1*
X55750Y19625D1*
Y13500D1*
X56125Y13125D1*
X56475D1*
X56500Y13100D1*
X53500Y21100D2*
X54900D1*
X56000Y20000D1*
Y13750D1*
X56125Y13625D1*
X56975D1*
X57500Y13100D1*
X53500Y20100D2*
X53350D1*
X52750Y19500D1*
Y19000D1*
X53125Y18625D1*
X54750D1*
X55250Y18125D1*
Y12875D1*
X56000Y12125D1*
X56475D1*
X56500Y12100D1*
X53500Y19100D2*
X55025D1*
X55500Y18625D1*
Y13125D1*
X56000Y12625D1*
X56975D1*
X57500Y12100D1*
X53500Y18100D2*
X53350D1*
X52750Y17500D1*
Y17000D1*
X53125Y16625D1*
X54125D1*
X54750Y16000D1*
Y12375D1*
X56000Y11125D1*
X56475D1*
X56500Y11100D1*
X53500Y17100D2*
X54650D1*
X55000Y16750D1*
Y12500D1*
X55875Y11625D1*
X56975D1*
X57500Y11100D1*
X53500Y16100D2*
X53350D1*
X52750Y15500D1*
Y14750D1*
X54250Y13250D1*
Y12125D1*
X56250Y10125D1*
X56475D1*
X56500Y10100D1*
X53500Y15100D2*
X54025D1*
X54500Y14625D1*
Y12250D1*
X56125Y10625D1*
X56975D1*
X57500Y10100D1*
Y8100D2*
X57475D1*
X57000Y7625D1*
X55025D1*
X53500Y6100D1*
X57500Y7100D2*
X57475D1*
X57000Y6625D1*
X56000D1*
X53475Y4100D1*
X53500D1*
X56500Y6100D2*
X53500Y3100D1*
X57500Y6100D2*
X57475D1*
X57000Y5625D1*
Y4750D1*
X56750Y4500D1*
X55875D1*
X53475Y2100D1*
X53500D1*
Y7100D2*
Y7125D1*
X54500Y8125D1*
X56475D1*
X56500Y8100D1*
Y7100D2*
X55500D1*
X53500Y5100D1*
X57500Y9100D2*
X57475D1*
X57000Y8625D1*
X54025D1*
X53500Y8100D1*
X50500Y10100D2*
X51100D1*
X51500Y10500D1*
Y22125D1*
X52500Y23125D1*
X53525D1*
X53500Y23100D1*
X16000Y25875D2*
X16875Y26750D1*
Y27875D1*
X17375Y28375D1*
X17500D1*
X47250Y16125D2*
Y16250D1*
X46625Y15625D1*
X40625D1*
X40000Y15000D1*
Y12750D1*
X39875Y12625D1*
X35125D1*
X34500Y12000D1*
X29750D1*
X29000Y12750D1*
Y13500D1*
X28750Y13750D1*
X26375D1*
X25125Y15000D1*
Y15625D1*
X24750Y16000D1*
X20750D1*
X19375Y17375D1*
Y27375D1*
X18375Y28375D1*
X17500D1*
X47250Y17125D2*
X47000D1*
X46625Y17500D1*
Y18875D1*
X46875Y19125D1*
X47250D1*
X44250Y6625D2*
X35500D1*
X34375Y7750D1*
X17625D1*
X16500Y8875D1*
Y15125D1*
X20250Y17875D2*
X20875D1*
X22875Y19875D1*
X24000D1*
X26000Y21875D1*
Y23250D1*
X26250Y23500D1*
X27250D1*
X27625Y23125D1*
Y20375D1*
X28000Y20000D1*
X32500D1*
X47250Y5625D2*
X47500D1*
X49250Y3875D1*
Y2375D1*
X14125Y10125D2*
X11750D1*
X11000Y10875D1*
Y12875D1*
X17000Y18875D1*
X18250D1*
X19875D2*
X20625D1*
X22750Y21000D1*
Y27641D1*
X23484Y28375D1*
X31000Y12750D2*
X34125D1*
X35000Y13625D1*
X39625D1*
X40750D2*
X42500D1*
X43250Y12875D1*
Y9750D1*
X43875Y9125D1*
X44875D1*
X45125Y8875D1*
Y5875D1*
X44875Y5625D1*
X44250D1*
X16000Y2500D2*
X15500Y3000D1*
Y4250D1*
X13000Y6750D1*
X14000D2*
X16000Y4750D1*
Y3500D1*
X17000Y2500D2*
X16500Y3000D1*
Y5250D1*
X15000Y6750D1*
X16000D2*
X17000Y5750D1*
Y3500D1*
X18000Y2500D2*
X17500Y3000D1*
Y6250D1*
X17000Y6750D1*
X18000D2*
Y3500D1*
X19000Y2500D2*
X18500Y3000D1*
Y6250D1*
X19000Y6750D1*
X20000D2*
X19000Y5750D1*
Y3500D1*
X29500Y2500D2*
X29000Y3000D1*
Y3750D1*
X28750Y4000D1*
X22625D1*
X21000Y5625D1*
Y6750D1*
X29500Y3500D2*
Y3750D1*
X29000Y4250D1*
X23375D1*
X22000Y5625D1*
Y6750D1*
X30500Y2500D2*
X30000Y3000D1*
Y4000D1*
X29500Y4500D1*
X24125D1*
X23000Y5625D1*
Y6750D1*
X30500Y3500D2*
Y4000D1*
X29750Y4750D1*
X24875D1*
X24000Y5625D1*
Y6750D1*
X31500Y2500D2*
X31000Y3000D1*
Y4125D1*
X30125Y5000D1*
X25750D1*
X25000Y5750D1*
Y6750D1*
X31500Y3500D2*
Y4125D1*
X30375Y5250D1*
X26500D1*
X26000Y5750D1*
Y6750D1*
X32500Y2500D2*
X32000Y3000D1*
Y4250D1*
X30750Y5500D1*
X27375D1*
X27000Y5875D1*
Y6750D1*
X32500Y3500D2*
Y4750D1*
X31500Y5750D1*
X28250D1*
X28000Y6000D1*
Y6750D1*
X33500Y2500D2*
X33000Y3000D1*
Y4625D1*
X31625Y6000D1*
X29750D1*
X29000Y6750D1*
X33500Y3500D2*
Y4500D1*
X31750Y6250D1*
X30500D1*
X30000Y6750D1*
X34125Y22000D2*
X32500D1*
X27000Y12750D2*
X24750Y15000D1*
Y15500D1*
X24625Y15625D1*
X20250D1*
X18750Y17125D1*
Y25125D1*
X18000Y25875D1*
X17250D1*
X16625Y25250D1*
Y24500D1*
X16000Y23875D1*
X50500Y8100D2*
X49600D1*
X49000Y7500D1*
Y6500D1*
X48625Y6125D1*
X46250D1*
X45250Y5125D1*
X36625D1*
X34250Y7500D1*
X16750D1*
X15500Y8750D1*
Y15500D1*
X14000Y17000D2*
Y19875D1*
X15125Y21000D1*
Y23000D1*
X16000Y23875D1*
X8000Y36000D2*
D14*
X10169D1*
X10941Y36772D1*
X8000Y36000D2*
Y34500D1*
X9500Y33000D1*
X6000Y17000D2*
X4527D1*
X3347D1*
X2000D1*
X1000Y18000D1*
Y30000D1*
X2500Y31500D1*
X5002D1*
X9000D1*
X9500Y32000D1*
Y33000D1*
X4000Y18500D2*
Y17527D1*
X4527Y17000D1*
X25000Y2500D2*
X28500D1*
Y3500D1*
X4500Y29500D2*
Y30998D1*
X5002Y31500D1*
X42125Y23375D2*
Y21125D1*
X31000Y6750D2*
X32625D1*
Y6875D1*
X42875Y38000D2*
X42900D1*
Y35600D1*
X56750Y26000D2*
Y23375D1*
X8000Y36000D2*
Y37500D1*
X9750Y39250D1*
X16500D1*
X18750Y37000D1*
X19500D1*
X16500Y39250D2*
X41625D1*
X42875Y38000D1*
X42125Y23375D2*
Y26000D1*
X41500Y26625D1*
X43250D1*
X49115D1*
X54250D1*
X55125Y27500D1*
X57000D1*
X57750Y28250D1*
Y36750D1*
X55250Y39250D1*
X41625D1*
X1000Y18000D2*
Y4000D1*
X4000Y1000D1*
X5180D1*
X9973D1*
X23500D1*
X23576Y1076D1*
X25000Y2500D1*
X11500D2*
X11473D1*
X9973Y1000D1*
X23576Y1076D2*
Y1000D1*
X38500D1*
X42125D1*
X43500Y2375D1*
X6000Y5100D2*
Y1820D1*
X5180Y1000D1*
X7000Y14500D2*
X5847D1*
X3347Y17000D1*
X32625Y6875D2*
X38500Y1000D1*
X34125Y18000D2*
Y16750D1*
Y15000D1*
X16000Y31000D2*
Y28875D1*
X9000Y31500D2*
X11374D1*
X12247D1*
X12875D1*
X13375Y32000D1*
X15125D1*
Y31875D1*
X16000Y31000D1*
X15000Y3500D2*
Y2500D1*
X11500D2*
X15000D1*
X13000Y28875D2*
Y30747D1*
X12247Y31500D1*
X13000Y25875D2*
X12625D1*
X12375Y26125D1*
Y30499D1*
X11374Y31500D1*
X32500Y24000D2*
X34125D1*
X36625D1*
X38125D1*
X38875Y24750D1*
Y26000D1*
X39500Y26625D1*
X41500D1*
X56750Y26000D2*
X54875D1*
X54250Y26625D1*
X43500Y2375D2*
Y3875D1*
X44250Y4625D1*
Y12750D2*
Y15125D1*
X45250Y2375D2*
X45125D1*
X44750Y2000D1*
X47250Y4500D1*
Y4625D1*
X42125Y1000D2*
X43750D1*
X44750Y2000D1*
X47250Y15125D2*
X47375D1*
X48375Y16125D1*
Y25885D1*
X49115Y26625D1*
X48375Y16125D2*
Y13999D1*
Y12000D1*
X49275Y11100D1*
X50500D1*
X44250Y12750D2*
Y12250D1*
X44750Y11750D1*
X46126D1*
X48375Y13999D1*
X34125Y16750D2*
X35125Y17750D1*
Y22500D1*
X36625Y24000D1*
X25125Y17375D2*
X23484D1*
X25125D2*
X25875Y16625D1*
Y15375D1*
X26875Y14375D1*
X33500D1*
X34125Y15000D1*
X26500Y21000D2*
X26625D1*
X26500Y21125D1*
Y20875D1*
X26375D1*
X25875Y20375D1*
Y18375D1*
X26500Y19000D1*
X25875Y16625D2*
Y18375D1*
X44250Y20125D2*
X43750Y20625D1*
Y26125D1*
X43250Y26625D1*
X57750Y23375D2*
Y22125D1*
Y20500D1*
X53500Y12500D2*
Y11100D1*
X55250Y22750D2*
Y22875D1*
X54750D1*
X53500Y24125D1*
Y24100D1*
X55250Y22875D2*
X55500Y22625D1*
X57250D1*
X57750Y22125D1*
X53500Y12500D2*
X53375D1*
X54125Y11750D1*
Y10750D1*
X55250Y9625D1*
X58000D1*
X59000Y10625D1*
Y16812D1*
Y20875D1*
X57750Y22125D1*
X57500Y17600D2*
Y14100D1*
X56500D1*
X57500Y17600D2*
X58212D1*
X59000Y16812D1*
X42125Y13125D2*
D13*
Y13250D1*
X42875Y12500D1*
Y7875D1*
X41875Y6875D1*
X35625D1*
X34500Y8000D1*
X18500D1*
X17500Y9000D1*
Y14875D1*
X16250Y16125D1*
X14625Y17750D2*
Y19000D1*
X16000Y20375D1*
Y22875D1*
X32500Y18000D2*
X31000D1*
X30125Y17125D1*
Y15000D1*
X22375Y27875D2*
X21125D1*
X13000Y23875D2*
X13858D1*
X14250Y24267D1*
X14858Y24875D1*
X16000D1*
Y27875D2*
X15375D1*
X14250Y26750D1*
Y24267D1*
X48900Y35600D2*
Y35225D1*
X49250Y34875D1*
X50500D1*
X50875Y35250D1*
Y35575D1*
X50900Y35600D1*
X16000Y27875D2*
Y28125D1*
X16875Y29000D1*
Y30875D1*
X17750Y31750D1*
X24125D1*
X24750Y32375D1*
Y35875D1*
X25498Y36623D1*
X26498D1*
X28750Y38875D1*
X33750D1*
X34000Y38625D1*
X40875D1*
X43875D2*
X44375Y38125D1*
Y35375D1*
X44875Y34875D1*
X49250D1*
X13500Y35000D2*
Y35500D1*
X15000Y37000D1*
X16000D1*
X18000Y35000D1*
Y34500D1*
X20500Y37000D2*
X23500D1*
X24000Y36500D1*
X22000Y34500D2*
Y32500D1*
Y34500D2*
X24000Y36500D1*
X43900Y35600D2*
Y34775D1*
X43500Y34375D1*
X37875D1*
X33625Y38625D1*
X28875D1*
X27375Y37125D1*
Y31875D1*
X27000Y31500D1*
X25500D1*
X24375Y30375D1*
X23484D1*
X30000Y12750D2*
X30500Y13250D1*
X33625D1*
X35000Y14625D1*
X39250D1*
X39750Y15125D1*
Y17375D1*
X41000Y18625D1*
X42375D1*
X42750Y19000D1*
Y19441D1*
Y19875D1*
X42500Y20125D1*
X42125D1*
X30000Y12750D2*
Y13750D1*
X29750Y14000D1*
X26500D1*
X25500Y15000D1*
Y15750D1*
X24875Y16375D1*
X22875D1*
X22625Y16625D1*
Y17625D1*
X22875Y17875D1*
X23875D1*
X24125Y18125D1*
Y19375D1*
X26250Y21500D1*
X26875D1*
X27250Y21875D1*
Y22750D1*
X27000Y23000D1*
X26500D1*
X44250Y19125D2*
X43066D1*
X42750Y19441D1*
X44250Y21125D2*
Y21875D1*
X45000Y22625D1*
X47750D1*
X49000D2*
X49025D1*
X50500Y24100D1*
X9000Y22000D2*
X9500D1*
X11000Y23500D1*
X3000Y36000D2*
D14*
X6000D1*
X5000Y33000D2*
Y35000D1*
X6000Y36000D1*
X17500Y25375D2*
D13*
X16875Y24750D1*
Y19125D1*
X10875Y13125D1*
X6625D1*
X6000Y12500D1*
Y11100D1*
D34*
X49000Y25500D3*
X53625D3*
X57000Y28875D3*
X38750Y29750D3*
X40000Y31000D3*
X36625Y29750D3*
X38000D3*
X39250Y31000D3*
X44900Y36225D3*
X28000Y13375D3*
X30625Y13625D3*
X49000Y24875D3*
X53625D3*
X57000Y28250D3*
X19875Y26875D3*
X53875Y32500D3*
X55375Y28250D3*
X16500Y15125D3*
X20250Y17875D3*
X14125Y10125D3*
X18250Y18875D3*
X19875D3*
X39625Y13625D3*
X40750D3*
X15500Y15500D3*
X14000Y17000D3*
X16250Y16125D3*
X14625Y17750D3*
X22375Y27875D3*
X21125D3*
X40875Y38625D3*
X43875D3*
X47750Y22625D3*
X49000D3*
D18*
X34125Y25000D3*
D19*
Y24000D3*
D18*
X33625Y6875D3*
D19*
X32625D3*
D18*
X25125Y18375D3*
D19*
Y17375D3*
D18*
X41875Y38000D3*
D19*
X42875D3*
D18*
X43125Y23375D3*
D19*
X42125D3*
D18*
X15000Y31000D3*
D19*
X16000D3*
D18*
X45250Y12750D3*
D19*
X44250D3*
D18*
X57750Y26000D3*
D19*
X56750D3*
D18*
X52500Y12500D3*
D19*
X53500D3*
D18*
X55250Y23750D3*
D19*
Y22750D3*
D18*
X7000Y14500D3*
D19*
X8000D3*
D18*
X42500Y2375D3*
D19*
X43500D3*
D18*
X6000Y33000D3*
D19*
X5000D3*
D18*
X11500Y3500D3*
D19*
Y2500D3*
D18*
X25000Y3500D3*
D19*
Y2500D3*
D18*
X56500Y17600D3*
D19*
X57500D3*
D18*
X20500Y37000D3*
D19*
X19500D3*
D18*
X4000Y19500D3*
D19*
Y18500D3*
D18*
X11000Y17500D3*
D19*
Y16500D3*
D18*
Y20500D3*
D19*
Y19500D3*
D18*
Y23500D3*
D19*
Y22500D3*
D18*
X8500Y33000D3*
D19*
X9500D3*
D18*
X56750Y20500D3*
D19*
X57750D3*
D20*
X22000Y32500D3*
D21*
X18024D3*
D20*
X32500Y17000D3*
D21*
Y18000D3*
Y19000D3*
Y20000D3*
Y21000D3*
Y22000D3*
Y23000D3*
Y24000D3*
Y25000D3*
Y26000D3*
Y27000D3*
Y28000D3*
Y29000D3*
Y30000D3*
Y31000D3*
Y32000D3*
Y33000D3*
Y34000D3*
Y35000D3*
Y36000D3*
X26500D3*
Y35000D3*
Y34000D3*
Y33000D3*
Y32000D3*
Y31000D3*
Y30000D3*
Y29000D3*
Y28000D3*
Y27000D3*
Y26000D3*
Y25000D3*
Y24000D3*
Y23000D3*
Y22000D3*
Y21000D3*
Y20000D3*
Y19000D3*
Y18000D3*
Y17000D3*
D20*
X12000Y6750D3*
D21*
X13000D3*
X14000D3*
X15000D3*
X16000D3*
X17000D3*
X18000D3*
X19000D3*
X20000D3*
X21000D3*
X22000D3*
X23000D3*
X24000D3*
X25000D3*
X26000D3*
X27000D3*
X28000D3*
X29000D3*
X30000D3*
X31000D3*
Y12750D3*
X30000D3*
X29000D3*
X28000D3*
X27000D3*
X26000D3*
X25000D3*
X24000D3*
X23000D3*
X22000D3*
X21000D3*
X20000D3*
X19000D3*
X18000D3*
X17000D3*
X16000D3*
X15000D3*
X14000D3*
X13000D3*
X12000D3*
D20*
X17500Y30375D3*
D21*
Y29375D3*
Y28375D3*
Y27375D3*
Y26375D3*
Y25375D3*
Y24375D3*
Y23375D3*
Y22375D3*
Y21375D3*
Y20375D3*
Y19375D3*
Y18375D3*
Y17375D3*
X23484D3*
Y18375D3*
Y19375D3*
Y20375D3*
Y21375D3*
Y22375D3*
Y23375D3*
Y24375D3*
Y25375D3*
Y26375D3*
Y27375D3*
Y28375D3*
Y29375D3*
Y30375D3*
D20*
X42900Y29600D3*
D21*
X43900D3*
X44900D3*
X45900D3*
X46900D3*
X47900D3*
X48900D3*
X49900D3*
X50900D3*
X51900D3*
X52900D3*
X53900D3*
X54900D3*
X55900D3*
Y35600D3*
X54900D3*
X53900D3*
X52900D3*
X51900D3*
X50900D3*
X49900D3*
X48900D3*
X47900D3*
X46900D3*
X45900D3*
X44900D3*
X43900D3*
X42900D3*
D20*
X36125Y21125D3*
D21*
Y20125D3*
Y19125D3*
Y18125D3*
Y17125D3*
Y16125D3*
Y15125D3*
Y14125D3*
Y13125D3*
Y12125D3*
Y11125D3*
Y10125D3*
Y9125D3*
Y8125D3*
X42125D3*
Y9125D3*
Y10125D3*
Y11125D3*
Y12125D3*
Y13125D3*
Y14125D3*
Y15125D3*
Y16125D3*
Y17125D3*
Y18125D3*
Y19125D3*
Y20125D3*
Y21125D3*
D20*
X13000Y28875D3*
D21*
Y27875D3*
Y26875D3*
Y25875D3*
Y24875D3*
Y23875D3*
Y22875D3*
X16000D3*
Y23875D3*
Y24875D3*
Y25875D3*
Y26875D3*
Y27875D3*
Y28875D3*
D20*
X47250Y15125D3*
D21*
Y16125D3*
Y17125D3*
Y18125D3*
Y19125D3*
Y20125D3*
Y21125D3*
X44250D3*
Y20125D3*
Y19125D3*
Y18125D3*
Y17125D3*
Y16125D3*
Y15125D3*
G36*
X56553Y23080D2*
X56652Y22981D1*
X56848D1*
X56947Y23080D1*
Y23670D1*
X56848Y23769D1*
X56652D1*
X56553Y23670D1*
Y23080D1*
G37*
D22*
X57250Y23375D3*
X57750D3*
D20*
X50500Y11100D3*
D21*
Y10100D3*
Y9100D3*
Y8100D3*
Y7100D3*
Y6100D3*
Y5100D3*
Y4100D3*
Y3100D3*
Y2100D3*
X53500Y11100D3*
Y10100D3*
Y9100D3*
Y8100D3*
Y7100D3*
Y6100D3*
Y5100D3*
Y4100D3*
Y3100D3*
Y2100D3*
D20*
X50500Y24100D3*
D21*
Y23100D3*
Y22100D3*
Y21100D3*
Y20100D3*
Y19100D3*
Y18100D3*
Y17100D3*
Y16100D3*
Y15100D3*
X53500Y24100D3*
Y23100D3*
Y22100D3*
Y21100D3*
Y20100D3*
Y19100D3*
Y18100D3*
Y17100D3*
Y16100D3*
Y15100D3*
D20*
X9000Y17000D3*
D21*
Y18000D3*
Y19000D3*
Y20000D3*
Y21000D3*
Y22000D3*
Y23000D3*
Y24000D3*
X6000D3*
Y23000D3*
Y22000D3*
Y21000D3*
Y20000D3*
Y19000D3*
Y18000D3*
Y17000D3*
D20*
X47250Y4625D3*
D21*
Y5625D3*
Y6625D3*
Y7625D3*
Y8625D3*
Y9625D3*
Y10625D3*
X44250D3*
Y9625D3*
Y8625D3*
Y7625D3*
Y6625D3*
Y5625D3*
Y4625D3*
D23*
X6000Y36000D3*
D24*
X7000D3*
X8000D3*
D19*
X3000D3*
D25*
Y35213D3*
D26*
Y8000D3*
D27*
Y9091D3*
Y10181D3*
Y11272D3*
Y12362D3*
X1882Y8545D3*
Y9636D3*
Y10726D3*
Y11817D3*
D28*
X2441Y5262D3*
Y15100D3*
D29*
X15000Y2500D3*
D30*
X16000D3*
X17000D3*
X18000D3*
X19000D3*
X20000D3*
X21000D3*
Y3500D3*
X20000D3*
X19000D3*
X18000D3*
X17000D3*
X16000D3*
X15000D3*
D29*
X28500Y2500D3*
D30*
X29500D3*
X30500D3*
X31500D3*
X32500D3*
X33500D3*
X34500D3*
Y3500D3*
X33500D3*
X32500D3*
X31500D3*
X30500D3*
X29500D3*
X28500D3*
D29*
X56500Y14100D3*
D30*
Y13100D3*
Y12100D3*
Y11100D3*
Y10100D3*
Y9100D3*
Y8100D3*
Y7100D3*
Y6100D3*
Y5100D3*
X57500D3*
Y6100D3*
Y7100D3*
Y8100D3*
Y9100D3*
Y10100D3*
Y11100D3*
Y12100D3*
Y13100D3*
Y14100D3*
X16000Y37000D3*
D31*
Y33000D3*
D30*
X22000Y34500D3*
D31*
X18000D3*
D30*
X24000Y32500D3*
D31*
Y36500D3*
D30*
X34125Y15000D3*
D31*
X30125D3*
D30*
X34125Y18000D3*
D31*
Y22000D3*
D30*
X45250Y2375D3*
D31*
X49250D3*
D32*
X13500Y35000D3*
D33*
Y36772D3*
X10941D3*
Y35000D3*
D20*
X4500Y26500D3*
D21*
X10500D3*
Y29500D3*
X4500D3*
D20*
X9000Y5100D3*
D21*
Y11100D3*
X6000D3*
Y5100D3*
M02*
